%TF.GenerationSoftware,KiCad,Pcbnew,8.0.3*%
%TF.CreationDate,2025-05-12T21:07:48+02:00*%
%TF.ProjectId,IMU_PCBs,494d555f-5043-4427-932e-6b696361645f,rev?*%
%TF.SameCoordinates,Original*%
%TF.FileFunction,Drillmap*%
%TF.FilePolarity,Positive*%
%FSLAX45Y45*%
G04 Gerber Fmt 4.5, Leading zero omitted, Abs format (unit mm)*
G04 Created by KiCad (PCBNEW 8.0.3) date 2025-05-12 21:07:48*
%MOMM*%
%LPD*%
G01*
G04 APERTURE LIST*
%ADD10C,0.050000*%
%ADD11C,0.200000*%
%ADD12C,0.100000*%
%ADD13C,0.210000*%
%ADD14C,0.220000*%
G04 APERTURE END LIST*
D10*
X7278000Y-11407137D02*
X7278000Y-9737137D01*
X8602750Y-12248137D02*
X8603000Y-13897137D01*
X8906000Y-11782000D02*
X8856750Y-11782137D01*
X8906000Y-11721000D02*
X8906000Y-11782000D01*
X8906000Y-12249000D02*
X8856750Y-12248137D01*
X8906000Y-12371000D02*
X8906000Y-12249000D01*
X8856750Y-8900137D02*
X8857000Y-8763000D01*
X8856750Y-9366137D02*
X8857000Y-9413000D01*
X8602750Y-9366137D02*
X8602750Y-11782137D01*
X8603000Y-7247137D02*
X8602750Y-8900137D01*
X7513000Y-16722137D02*
X7440039Y-16912207D01*
X6788000Y-4422137D02*
G75*
G02*
X7440039Y-4232067I326020J95035D01*
G01*
X7513000Y-16722137D02*
X8603000Y-13897137D01*
X7878000Y-11407137D02*
X7278000Y-11407137D01*
X7513000Y-4422137D02*
X8603000Y-7247137D01*
X7878000Y-9737137D02*
X7278000Y-9737137D01*
X7878000Y-7247137D02*
X7878000Y-9737137D01*
X6788000Y-4422137D02*
X7878000Y-7247137D01*
X7513000Y-4422137D02*
X7440039Y-4232067D01*
X7878000Y-13897137D02*
X7878000Y-11407137D01*
X10882000Y-11117000D02*
X11177000Y-11117000D01*
X12406000Y-12371000D02*
G75*
G02*
X11706000Y-12371000I-350000J0D01*
G01*
X10077000Y-11117000D02*
X10077000Y-10017000D01*
X10388000Y-10017000D02*
X10077000Y-10017000D01*
X12357000Y-8763000D02*
X12357000Y-9413000D01*
X11177000Y-10017000D02*
X11177000Y-11117000D01*
X8906000Y-11721000D02*
G75*
G02*
X9256000Y-11371000I350000J0D01*
G01*
X9606000Y-12371000D02*
G75*
G02*
X8906000Y-12371000I-350000J0D01*
G01*
X10416000Y-11371000D02*
X9256000Y-11371000D01*
X12056000Y-11371000D02*
G75*
G02*
X12406000Y-11721000I0J-350000D01*
G01*
X12406000Y-12371000D02*
X12406000Y-11721000D01*
X10854000Y-9763000D02*
X12007000Y-9763000D01*
X10854000Y-10017000D02*
X11177000Y-10017000D01*
X11657000Y-8763000D02*
G75*
G02*
X12357000Y-8763000I350000J0D01*
G01*
X9557000Y-8763000D02*
X11657000Y-8763000D01*
X9207000Y-9763000D02*
G75*
G02*
X8857000Y-9413000I0J350000D01*
G01*
X12056000Y-11371000D02*
X10882000Y-11371000D01*
X8857000Y-8763000D02*
G75*
G02*
X9557000Y-8763000I350000J0D01*
G01*
X9207000Y-9763000D02*
X10388000Y-9763000D01*
X10416000Y-11117000D02*
X10077000Y-11117000D01*
X12357000Y-9413000D02*
G75*
G02*
X12007000Y-9763000I-350000J0D01*
G01*
X11706000Y-12371000D02*
X9606000Y-12371000D01*
X6788000Y-16722137D02*
X7878000Y-13897137D01*
X7440039Y-16912207D02*
G75*
G02*
X6788000Y-16722137I-326020J95033D01*
G01*
X8856750Y-8900137D02*
G75*
G02*
X8602750Y-8900137I-127000J0D01*
G01*
X8602750Y-9366137D02*
G75*
G02*
X8856750Y-9366137I127000J0D01*
G01*
X8602750Y-12248137D02*
G75*
G02*
X8856750Y-12248137I127000J0D01*
G01*
X8856750Y-11782137D02*
G75*
G02*
X8602750Y-11782137I-127000J0D01*
G01*
X10416000Y-11117000D02*
G75*
G02*
X10416000Y-11371000I0J-127000D01*
G01*
X10882000Y-11371000D02*
G75*
G02*
X10882000Y-11117000I0J127000D01*
G01*
X10388000Y-9763000D02*
G75*
G02*
X10388000Y-10017000I0J-127000D01*
G01*
X10854000Y-10017000D02*
G75*
G02*
X10854000Y-9763000I0J127000D01*
G01*
D11*
D12*
X8597750Y-9008137D02*
X8647750Y-9058137D01*
X8647750Y-9008137D02*
X8597750Y-9058137D01*
X8597750Y-9109137D02*
X8647750Y-9159137D01*
X8647750Y-9109137D02*
X8597750Y-9159137D01*
X8597750Y-9208137D02*
X8647750Y-9258137D01*
X8647750Y-9208137D02*
X8597750Y-9258137D01*
X8597750Y-11890137D02*
X8647750Y-11940137D01*
X8647750Y-11890137D02*
X8597750Y-11940137D01*
X8597750Y-11991137D02*
X8647750Y-12041137D01*
X8647750Y-11991137D02*
X8597750Y-12041137D01*
X8597750Y-12090137D02*
X8647750Y-12140137D01*
X8647750Y-12090137D02*
X8597750Y-12140137D01*
X8810750Y-9008137D02*
X8860750Y-9058137D01*
X8860750Y-9008137D02*
X8810750Y-9058137D01*
X8810750Y-9108137D02*
X8860750Y-9158137D01*
X8860750Y-9108137D02*
X8810750Y-9158137D01*
X8810750Y-9208137D02*
X8860750Y-9258137D01*
X8860750Y-9208137D02*
X8810750Y-9258137D01*
X8810750Y-11890137D02*
X8860750Y-11940137D01*
X8860750Y-11890137D02*
X8810750Y-11940137D01*
X8810750Y-11990137D02*
X8860750Y-12040137D01*
X8860750Y-11990137D02*
X8810750Y-12040137D01*
X8810750Y-12090137D02*
X8860750Y-12140137D01*
X8860750Y-12090137D02*
X8810750Y-12140137D01*
X10496000Y-9758000D02*
X10546000Y-9808000D01*
X10546000Y-9758000D02*
X10496000Y-9808000D01*
X10496000Y-9971000D02*
X10546000Y-10021000D01*
X10546000Y-9971000D02*
X10496000Y-10021000D01*
X10524000Y-11112000D02*
X10574000Y-11162000D01*
X10574000Y-11112000D02*
X10524000Y-11162000D01*
X10524000Y-11325000D02*
X10574000Y-11375000D01*
X10574000Y-11325000D02*
X10524000Y-11375000D01*
X10595000Y-9758000D02*
X10645000Y-9808000D01*
X10645000Y-9758000D02*
X10595000Y-9808000D01*
X10596000Y-9971000D02*
X10646000Y-10021000D01*
X10646000Y-9971000D02*
X10596000Y-10021000D01*
X10623000Y-11112000D02*
X10673000Y-11162000D01*
X10673000Y-11112000D02*
X10623000Y-11162000D01*
X10624000Y-11325000D02*
X10674000Y-11375000D01*
X10674000Y-11325000D02*
X10624000Y-11375000D01*
X10696000Y-9758000D02*
X10746000Y-9808000D01*
X10746000Y-9758000D02*
X10696000Y-9808000D01*
X10696000Y-9971000D02*
X10746000Y-10021000D01*
X10746000Y-9971000D02*
X10696000Y-10021000D01*
X10724000Y-11112000D02*
X10774000Y-11162000D01*
X10774000Y-11112000D02*
X10724000Y-11162000D01*
X10724000Y-11325000D02*
X10774000Y-11375000D01*
X10774000Y-11325000D02*
X10724000Y-11375000D01*
D13*
X9312000Y-8763000D02*
G75*
G02*
X9102000Y-8763000I-105000J0D01*
G01*
X9102000Y-8763000D02*
G75*
G02*
X9312000Y-8763000I105000J0D01*
G01*
X9361000Y-12371000D02*
G75*
G02*
X9151000Y-12371000I-105000J0D01*
G01*
X9151000Y-12371000D02*
G75*
G02*
X9361000Y-12371000I105000J0D01*
G01*
X12112000Y-8763000D02*
G75*
G02*
X11902000Y-8763000I-105000J0D01*
G01*
X11902000Y-8763000D02*
G75*
G02*
X12112000Y-8763000I105000J0D01*
G01*
X12161000Y-12371000D02*
G75*
G02*
X11951000Y-12371000I-105000J0D01*
G01*
X11951000Y-12371000D02*
G75*
G02*
X12161000Y-12371000I105000J0D01*
G01*
D14*
X7150500Y-4312137D02*
X7150500Y-4532137D01*
X7040500Y-4422137D02*
X7260500Y-4422137D01*
X7150500Y-16612137D02*
X7150500Y-16832137D01*
X7040500Y-16722137D02*
X7260500Y-16722137D01*
D11*
X7032707Y-17470747D02*
X7032707Y-17270747D01*
X7032707Y-17270747D02*
X7080326Y-17270747D01*
X7080326Y-17270747D02*
X7108898Y-17280271D01*
X7108898Y-17280271D02*
X7127945Y-17299318D01*
X7127945Y-17299318D02*
X7137469Y-17318366D01*
X7137469Y-17318366D02*
X7146993Y-17356461D01*
X7146993Y-17356461D02*
X7146993Y-17385033D01*
X7146993Y-17385033D02*
X7137469Y-17423128D01*
X7137469Y-17423128D02*
X7127945Y-17442176D01*
X7127945Y-17442176D02*
X7108898Y-17461223D01*
X7108898Y-17461223D02*
X7080326Y-17470747D01*
X7080326Y-17470747D02*
X7032707Y-17470747D01*
X7232707Y-17470747D02*
X7232707Y-17337414D01*
X7232707Y-17375509D02*
X7242231Y-17356461D01*
X7242231Y-17356461D02*
X7251755Y-17346937D01*
X7251755Y-17346937D02*
X7270802Y-17337414D01*
X7270802Y-17337414D02*
X7289850Y-17337414D01*
X7356517Y-17470747D02*
X7356517Y-17337414D01*
X7356517Y-17270747D02*
X7346993Y-17280271D01*
X7346993Y-17280271D02*
X7356517Y-17289795D01*
X7356517Y-17289795D02*
X7366040Y-17280271D01*
X7366040Y-17280271D02*
X7356517Y-17270747D01*
X7356517Y-17270747D02*
X7356517Y-17289795D01*
X7480326Y-17470747D02*
X7461278Y-17461223D01*
X7461278Y-17461223D02*
X7451755Y-17442176D01*
X7451755Y-17442176D02*
X7451755Y-17270747D01*
X7585088Y-17470747D02*
X7566040Y-17461223D01*
X7566040Y-17461223D02*
X7556517Y-17442176D01*
X7556517Y-17442176D02*
X7556517Y-17270747D01*
X7813659Y-17470747D02*
X7813659Y-17270747D01*
X7813659Y-17270747D02*
X7880326Y-17413604D01*
X7880326Y-17413604D02*
X7946993Y-17270747D01*
X7946993Y-17270747D02*
X7946993Y-17470747D01*
X8127945Y-17470747D02*
X8127945Y-17365985D01*
X8127945Y-17365985D02*
X8118421Y-17346937D01*
X8118421Y-17346937D02*
X8099374Y-17337414D01*
X8099374Y-17337414D02*
X8061278Y-17337414D01*
X8061278Y-17337414D02*
X8042231Y-17346937D01*
X8127945Y-17461223D02*
X8108898Y-17470747D01*
X8108898Y-17470747D02*
X8061278Y-17470747D01*
X8061278Y-17470747D02*
X8042231Y-17461223D01*
X8042231Y-17461223D02*
X8032707Y-17442176D01*
X8032707Y-17442176D02*
X8032707Y-17423128D01*
X8032707Y-17423128D02*
X8042231Y-17404080D01*
X8042231Y-17404080D02*
X8061278Y-17394557D01*
X8061278Y-17394557D02*
X8108898Y-17394557D01*
X8108898Y-17394557D02*
X8127945Y-17385033D01*
X8223183Y-17337414D02*
X8223183Y-17537414D01*
X8223183Y-17346937D02*
X8242231Y-17337414D01*
X8242231Y-17337414D02*
X8280326Y-17337414D01*
X8280326Y-17337414D02*
X8299374Y-17346937D01*
X8299374Y-17346937D02*
X8308898Y-17356461D01*
X8308898Y-17356461D02*
X8318421Y-17375509D01*
X8318421Y-17375509D02*
X8318421Y-17432652D01*
X8318421Y-17432652D02*
X8308898Y-17451699D01*
X8308898Y-17451699D02*
X8299374Y-17461223D01*
X8299374Y-17461223D02*
X8280326Y-17470747D01*
X8280326Y-17470747D02*
X8242231Y-17470747D01*
X8242231Y-17470747D02*
X8223183Y-17461223D01*
X8404136Y-17451699D02*
X8413660Y-17461223D01*
X8413660Y-17461223D02*
X8404136Y-17470747D01*
X8404136Y-17470747D02*
X8394612Y-17461223D01*
X8394612Y-17461223D02*
X8404136Y-17451699D01*
X8404136Y-17451699D02*
X8404136Y-17470747D01*
X8404136Y-17346937D02*
X8413660Y-17356461D01*
X8413660Y-17356461D02*
X8404136Y-17365985D01*
X8404136Y-17365985D02*
X8394612Y-17356461D01*
X8394612Y-17356461D02*
X8404136Y-17346937D01*
X8404136Y-17346937D02*
X8404136Y-17365985D01*
D12*
X6721930Y-17774263D02*
X6771930Y-17824263D01*
X6771930Y-17774263D02*
X6721930Y-17824263D01*
D11*
X7070802Y-17690747D02*
X7089850Y-17690747D01*
X7089850Y-17690747D02*
X7108898Y-17700271D01*
X7108898Y-17700271D02*
X7118421Y-17709795D01*
X7118421Y-17709795D02*
X7127945Y-17728842D01*
X7127945Y-17728842D02*
X7137469Y-17766937D01*
X7137469Y-17766937D02*
X7137469Y-17814557D01*
X7137469Y-17814557D02*
X7127945Y-17852652D01*
X7127945Y-17852652D02*
X7118421Y-17871699D01*
X7118421Y-17871699D02*
X7108898Y-17881223D01*
X7108898Y-17881223D02*
X7089850Y-17890747D01*
X7089850Y-17890747D02*
X7070802Y-17890747D01*
X7070802Y-17890747D02*
X7051755Y-17881223D01*
X7051755Y-17881223D02*
X7042231Y-17871699D01*
X7042231Y-17871699D02*
X7032707Y-17852652D01*
X7032707Y-17852652D02*
X7023183Y-17814557D01*
X7023183Y-17814557D02*
X7023183Y-17766937D01*
X7023183Y-17766937D02*
X7032707Y-17728842D01*
X7032707Y-17728842D02*
X7042231Y-17709795D01*
X7042231Y-17709795D02*
X7051755Y-17700271D01*
X7051755Y-17700271D02*
X7070802Y-17690747D01*
X7223183Y-17871699D02*
X7232707Y-17881223D01*
X7232707Y-17881223D02*
X7223183Y-17890747D01*
X7223183Y-17890747D02*
X7213659Y-17881223D01*
X7213659Y-17881223D02*
X7223183Y-17871699D01*
X7223183Y-17871699D02*
X7223183Y-17890747D01*
X7413659Y-17690747D02*
X7318421Y-17690747D01*
X7318421Y-17690747D02*
X7308898Y-17785985D01*
X7308898Y-17785985D02*
X7318421Y-17776461D01*
X7318421Y-17776461D02*
X7337469Y-17766937D01*
X7337469Y-17766937D02*
X7385088Y-17766937D01*
X7385088Y-17766937D02*
X7404136Y-17776461D01*
X7404136Y-17776461D02*
X7413659Y-17785985D01*
X7413659Y-17785985D02*
X7423183Y-17805033D01*
X7423183Y-17805033D02*
X7423183Y-17852652D01*
X7423183Y-17852652D02*
X7413659Y-17871699D01*
X7413659Y-17871699D02*
X7404136Y-17881223D01*
X7404136Y-17881223D02*
X7385088Y-17890747D01*
X7385088Y-17890747D02*
X7337469Y-17890747D01*
X7337469Y-17890747D02*
X7318421Y-17881223D01*
X7318421Y-17881223D02*
X7308898Y-17871699D01*
X7546993Y-17690747D02*
X7566040Y-17690747D01*
X7566040Y-17690747D02*
X7585088Y-17700271D01*
X7585088Y-17700271D02*
X7594612Y-17709795D01*
X7594612Y-17709795D02*
X7604136Y-17728842D01*
X7604136Y-17728842D02*
X7613659Y-17766937D01*
X7613659Y-17766937D02*
X7613659Y-17814557D01*
X7613659Y-17814557D02*
X7604136Y-17852652D01*
X7604136Y-17852652D02*
X7594612Y-17871699D01*
X7594612Y-17871699D02*
X7585088Y-17881223D01*
X7585088Y-17881223D02*
X7566040Y-17890747D01*
X7566040Y-17890747D02*
X7546993Y-17890747D01*
X7546993Y-17890747D02*
X7527945Y-17881223D01*
X7527945Y-17881223D02*
X7518421Y-17871699D01*
X7518421Y-17871699D02*
X7508898Y-17852652D01*
X7508898Y-17852652D02*
X7499374Y-17814557D01*
X7499374Y-17814557D02*
X7499374Y-17766937D01*
X7499374Y-17766937D02*
X7508898Y-17728842D01*
X7508898Y-17728842D02*
X7518421Y-17709795D01*
X7518421Y-17709795D02*
X7527945Y-17700271D01*
X7527945Y-17700271D02*
X7546993Y-17690747D01*
X7737469Y-17690747D02*
X7756517Y-17690747D01*
X7756517Y-17690747D02*
X7775564Y-17700271D01*
X7775564Y-17700271D02*
X7785088Y-17709795D01*
X7785088Y-17709795D02*
X7794612Y-17728842D01*
X7794612Y-17728842D02*
X7804136Y-17766937D01*
X7804136Y-17766937D02*
X7804136Y-17814557D01*
X7804136Y-17814557D02*
X7794612Y-17852652D01*
X7794612Y-17852652D02*
X7785088Y-17871699D01*
X7785088Y-17871699D02*
X7775564Y-17881223D01*
X7775564Y-17881223D02*
X7756517Y-17890747D01*
X7756517Y-17890747D02*
X7737469Y-17890747D01*
X7737469Y-17890747D02*
X7718421Y-17881223D01*
X7718421Y-17881223D02*
X7708898Y-17871699D01*
X7708898Y-17871699D02*
X7699374Y-17852652D01*
X7699374Y-17852652D02*
X7689850Y-17814557D01*
X7689850Y-17814557D02*
X7689850Y-17766937D01*
X7689850Y-17766937D02*
X7699374Y-17728842D01*
X7699374Y-17728842D02*
X7708898Y-17709795D01*
X7708898Y-17709795D02*
X7718421Y-17700271D01*
X7718421Y-17700271D02*
X7737469Y-17690747D01*
X7889850Y-17890747D02*
X7889850Y-17757414D01*
X7889850Y-17776461D02*
X7899374Y-17766937D01*
X7899374Y-17766937D02*
X7918421Y-17757414D01*
X7918421Y-17757414D02*
X7946993Y-17757414D01*
X7946993Y-17757414D02*
X7966040Y-17766937D01*
X7966040Y-17766937D02*
X7975564Y-17785985D01*
X7975564Y-17785985D02*
X7975564Y-17890747D01*
X7975564Y-17785985D02*
X7985088Y-17766937D01*
X7985088Y-17766937D02*
X8004136Y-17757414D01*
X8004136Y-17757414D02*
X8032707Y-17757414D01*
X8032707Y-17757414D02*
X8051755Y-17766937D01*
X8051755Y-17766937D02*
X8061279Y-17785985D01*
X8061279Y-17785985D02*
X8061279Y-17890747D01*
X8156517Y-17890747D02*
X8156517Y-17757414D01*
X8156517Y-17776461D02*
X8166040Y-17766937D01*
X8166040Y-17766937D02*
X8185088Y-17757414D01*
X8185088Y-17757414D02*
X8213660Y-17757414D01*
X8213660Y-17757414D02*
X8232707Y-17766937D01*
X8232707Y-17766937D02*
X8242231Y-17785985D01*
X8242231Y-17785985D02*
X8242231Y-17890747D01*
X8242231Y-17785985D02*
X8251755Y-17766937D01*
X8251755Y-17766937D02*
X8270802Y-17757414D01*
X8270802Y-17757414D02*
X8299374Y-17757414D01*
X8299374Y-17757414D02*
X8318421Y-17766937D01*
X8318421Y-17766937D02*
X8327945Y-17785985D01*
X8327945Y-17785985D02*
X8327945Y-17890747D01*
X8718422Y-17681223D02*
X8546993Y-17938366D01*
X8975564Y-17690747D02*
X8994612Y-17690747D01*
X8994612Y-17690747D02*
X9013660Y-17700271D01*
X9013660Y-17700271D02*
X9023184Y-17709795D01*
X9023184Y-17709795D02*
X9032707Y-17728842D01*
X9032707Y-17728842D02*
X9042231Y-17766937D01*
X9042231Y-17766937D02*
X9042231Y-17814557D01*
X9042231Y-17814557D02*
X9032707Y-17852652D01*
X9032707Y-17852652D02*
X9023184Y-17871699D01*
X9023184Y-17871699D02*
X9013660Y-17881223D01*
X9013660Y-17881223D02*
X8994612Y-17890747D01*
X8994612Y-17890747D02*
X8975564Y-17890747D01*
X8975564Y-17890747D02*
X8956517Y-17881223D01*
X8956517Y-17881223D02*
X8946993Y-17871699D01*
X8946993Y-17871699D02*
X8937469Y-17852652D01*
X8937469Y-17852652D02*
X8927945Y-17814557D01*
X8927945Y-17814557D02*
X8927945Y-17766937D01*
X8927945Y-17766937D02*
X8937469Y-17728842D01*
X8937469Y-17728842D02*
X8946993Y-17709795D01*
X8946993Y-17709795D02*
X8956517Y-17700271D01*
X8956517Y-17700271D02*
X8975564Y-17690747D01*
X9127945Y-17871699D02*
X9137469Y-17881223D01*
X9137469Y-17881223D02*
X9127945Y-17890747D01*
X9127945Y-17890747D02*
X9118422Y-17881223D01*
X9118422Y-17881223D02*
X9127945Y-17871699D01*
X9127945Y-17871699D02*
X9127945Y-17890747D01*
X9261279Y-17690747D02*
X9280326Y-17690747D01*
X9280326Y-17690747D02*
X9299374Y-17700271D01*
X9299374Y-17700271D02*
X9308898Y-17709795D01*
X9308898Y-17709795D02*
X9318422Y-17728842D01*
X9318422Y-17728842D02*
X9327945Y-17766937D01*
X9327945Y-17766937D02*
X9327945Y-17814557D01*
X9327945Y-17814557D02*
X9318422Y-17852652D01*
X9318422Y-17852652D02*
X9308898Y-17871699D01*
X9308898Y-17871699D02*
X9299374Y-17881223D01*
X9299374Y-17881223D02*
X9280326Y-17890747D01*
X9280326Y-17890747D02*
X9261279Y-17890747D01*
X9261279Y-17890747D02*
X9242231Y-17881223D01*
X9242231Y-17881223D02*
X9232707Y-17871699D01*
X9232707Y-17871699D02*
X9223184Y-17852652D01*
X9223184Y-17852652D02*
X9213660Y-17814557D01*
X9213660Y-17814557D02*
X9213660Y-17766937D01*
X9213660Y-17766937D02*
X9223184Y-17728842D01*
X9223184Y-17728842D02*
X9232707Y-17709795D01*
X9232707Y-17709795D02*
X9242231Y-17700271D01*
X9242231Y-17700271D02*
X9261279Y-17690747D01*
X9518422Y-17890747D02*
X9404136Y-17890747D01*
X9461279Y-17890747D02*
X9461279Y-17690747D01*
X9461279Y-17690747D02*
X9442231Y-17719318D01*
X9442231Y-17719318D02*
X9423184Y-17738366D01*
X9423184Y-17738366D02*
X9404136Y-17747890D01*
X9613660Y-17890747D02*
X9651755Y-17890747D01*
X9651755Y-17890747D02*
X9670803Y-17881223D01*
X9670803Y-17881223D02*
X9680326Y-17871699D01*
X9680326Y-17871699D02*
X9699374Y-17843128D01*
X9699374Y-17843128D02*
X9708898Y-17805033D01*
X9708898Y-17805033D02*
X9708898Y-17728842D01*
X9708898Y-17728842D02*
X9699374Y-17709795D01*
X9699374Y-17709795D02*
X9689850Y-17700271D01*
X9689850Y-17700271D02*
X9670803Y-17690747D01*
X9670803Y-17690747D02*
X9632707Y-17690747D01*
X9632707Y-17690747D02*
X9613660Y-17700271D01*
X9613660Y-17700271D02*
X9604136Y-17709795D01*
X9604136Y-17709795D02*
X9594612Y-17728842D01*
X9594612Y-17728842D02*
X9594612Y-17776461D01*
X9594612Y-17776461D02*
X9604136Y-17795509D01*
X9604136Y-17795509D02*
X9613660Y-17805033D01*
X9613660Y-17805033D02*
X9632707Y-17814557D01*
X9632707Y-17814557D02*
X9670803Y-17814557D01*
X9670803Y-17814557D02*
X9689850Y-17805033D01*
X9689850Y-17805033D02*
X9699374Y-17795509D01*
X9699374Y-17795509D02*
X9708898Y-17776461D01*
X9775565Y-17690747D02*
X9908898Y-17690747D01*
X9908898Y-17690747D02*
X9823184Y-17890747D01*
X9975565Y-17690747D02*
X9975565Y-17728842D01*
X10051755Y-17690747D02*
X10051755Y-17728842D01*
X10346993Y-17966937D02*
X10337469Y-17957414D01*
X10337469Y-17957414D02*
X10318422Y-17928842D01*
X10318422Y-17928842D02*
X10308898Y-17909795D01*
X10308898Y-17909795D02*
X10299374Y-17881223D01*
X10299374Y-17881223D02*
X10289850Y-17833604D01*
X10289850Y-17833604D02*
X10289850Y-17795509D01*
X10289850Y-17795509D02*
X10299374Y-17747890D01*
X10299374Y-17747890D02*
X10308898Y-17719318D01*
X10308898Y-17719318D02*
X10318422Y-17700271D01*
X10318422Y-17700271D02*
X10337469Y-17671699D01*
X10337469Y-17671699D02*
X10346993Y-17662176D01*
X10413660Y-17709795D02*
X10423184Y-17700271D01*
X10423184Y-17700271D02*
X10442231Y-17690747D01*
X10442231Y-17690747D02*
X10489850Y-17690747D01*
X10489850Y-17690747D02*
X10508898Y-17700271D01*
X10508898Y-17700271D02*
X10518422Y-17709795D01*
X10518422Y-17709795D02*
X10527946Y-17728842D01*
X10527946Y-17728842D02*
X10527946Y-17747890D01*
X10527946Y-17747890D02*
X10518422Y-17776461D01*
X10518422Y-17776461D02*
X10404136Y-17890747D01*
X10404136Y-17890747D02*
X10527946Y-17890747D01*
X10699374Y-17757414D02*
X10699374Y-17890747D01*
X10651755Y-17681223D02*
X10604136Y-17824080D01*
X10604136Y-17824080D02*
X10727946Y-17824080D01*
X10956517Y-17890747D02*
X10956517Y-17690747D01*
X11042231Y-17890747D02*
X11042231Y-17785985D01*
X11042231Y-17785985D02*
X11032708Y-17766937D01*
X11032708Y-17766937D02*
X11013660Y-17757414D01*
X11013660Y-17757414D02*
X10985088Y-17757414D01*
X10985088Y-17757414D02*
X10966041Y-17766937D01*
X10966041Y-17766937D02*
X10956517Y-17776461D01*
X11166041Y-17890747D02*
X11146993Y-17881223D01*
X11146993Y-17881223D02*
X11137469Y-17871699D01*
X11137469Y-17871699D02*
X11127946Y-17852652D01*
X11127946Y-17852652D02*
X11127946Y-17795509D01*
X11127946Y-17795509D02*
X11137469Y-17776461D01*
X11137469Y-17776461D02*
X11146993Y-17766937D01*
X11146993Y-17766937D02*
X11166041Y-17757414D01*
X11166041Y-17757414D02*
X11194612Y-17757414D01*
X11194612Y-17757414D02*
X11213660Y-17766937D01*
X11213660Y-17766937D02*
X11223184Y-17776461D01*
X11223184Y-17776461D02*
X11232707Y-17795509D01*
X11232707Y-17795509D02*
X11232707Y-17852652D01*
X11232707Y-17852652D02*
X11223184Y-17871699D01*
X11223184Y-17871699D02*
X11213660Y-17881223D01*
X11213660Y-17881223D02*
X11194612Y-17890747D01*
X11194612Y-17890747D02*
X11166041Y-17890747D01*
X11346993Y-17890747D02*
X11327946Y-17881223D01*
X11327946Y-17881223D02*
X11318422Y-17862176D01*
X11318422Y-17862176D02*
X11318422Y-17690747D01*
X11499374Y-17881223D02*
X11480327Y-17890747D01*
X11480327Y-17890747D02*
X11442231Y-17890747D01*
X11442231Y-17890747D02*
X11423184Y-17881223D01*
X11423184Y-17881223D02*
X11413660Y-17862176D01*
X11413660Y-17862176D02*
X11413660Y-17785985D01*
X11413660Y-17785985D02*
X11423184Y-17766937D01*
X11423184Y-17766937D02*
X11442231Y-17757414D01*
X11442231Y-17757414D02*
X11480327Y-17757414D01*
X11480327Y-17757414D02*
X11499374Y-17766937D01*
X11499374Y-17766937D02*
X11508898Y-17785985D01*
X11508898Y-17785985D02*
X11508898Y-17805033D01*
X11508898Y-17805033D02*
X11413660Y-17824080D01*
X11585088Y-17881223D02*
X11604136Y-17890747D01*
X11604136Y-17890747D02*
X11642231Y-17890747D01*
X11642231Y-17890747D02*
X11661279Y-17881223D01*
X11661279Y-17881223D02*
X11670803Y-17862176D01*
X11670803Y-17862176D02*
X11670803Y-17852652D01*
X11670803Y-17852652D02*
X11661279Y-17833604D01*
X11661279Y-17833604D02*
X11642231Y-17824080D01*
X11642231Y-17824080D02*
X11613660Y-17824080D01*
X11613660Y-17824080D02*
X11594612Y-17814557D01*
X11594612Y-17814557D02*
X11585088Y-17795509D01*
X11585088Y-17795509D02*
X11585088Y-17785985D01*
X11585088Y-17785985D02*
X11594612Y-17766937D01*
X11594612Y-17766937D02*
X11613660Y-17757414D01*
X11613660Y-17757414D02*
X11642231Y-17757414D01*
X11642231Y-17757414D02*
X11661279Y-17766937D01*
X11737469Y-17966937D02*
X11746993Y-17957414D01*
X11746993Y-17957414D02*
X11766041Y-17928842D01*
X11766041Y-17928842D02*
X11775565Y-17909795D01*
X11775565Y-17909795D02*
X11785088Y-17881223D01*
X11785088Y-17881223D02*
X11794612Y-17833604D01*
X11794612Y-17833604D02*
X11794612Y-17795509D01*
X11794612Y-17795509D02*
X11785088Y-17747890D01*
X11785088Y-17747890D02*
X11775565Y-17719318D01*
X11775565Y-17719318D02*
X11766041Y-17700271D01*
X11766041Y-17700271D02*
X11746993Y-17671699D01*
X11746993Y-17671699D02*
X11737469Y-17662176D01*
X12099374Y-17966937D02*
X12089850Y-17957414D01*
X12089850Y-17957414D02*
X12070803Y-17928842D01*
X12070803Y-17928842D02*
X12061279Y-17909795D01*
X12061279Y-17909795D02*
X12051755Y-17881223D01*
X12051755Y-17881223D02*
X12042231Y-17833604D01*
X12042231Y-17833604D02*
X12042231Y-17795509D01*
X12042231Y-17795509D02*
X12051755Y-17747890D01*
X12051755Y-17747890D02*
X12061279Y-17719318D01*
X12061279Y-17719318D02*
X12070803Y-17700271D01*
X12070803Y-17700271D02*
X12089850Y-17671699D01*
X12089850Y-17671699D02*
X12099374Y-17662176D01*
X12175565Y-17757414D02*
X12175565Y-17890747D01*
X12175565Y-17776461D02*
X12185088Y-17766937D01*
X12185088Y-17766937D02*
X12204136Y-17757414D01*
X12204136Y-17757414D02*
X12232708Y-17757414D01*
X12232708Y-17757414D02*
X12251755Y-17766937D01*
X12251755Y-17766937D02*
X12261279Y-17785985D01*
X12261279Y-17785985D02*
X12261279Y-17890747D01*
X12385088Y-17890747D02*
X12366041Y-17881223D01*
X12366041Y-17881223D02*
X12356517Y-17871699D01*
X12356517Y-17871699D02*
X12346993Y-17852652D01*
X12346993Y-17852652D02*
X12346993Y-17795509D01*
X12346993Y-17795509D02*
X12356517Y-17776461D01*
X12356517Y-17776461D02*
X12366041Y-17766937D01*
X12366041Y-17766937D02*
X12385088Y-17757414D01*
X12385088Y-17757414D02*
X12413660Y-17757414D01*
X12413660Y-17757414D02*
X12432708Y-17766937D01*
X12432708Y-17766937D02*
X12442231Y-17776461D01*
X12442231Y-17776461D02*
X12451755Y-17795509D01*
X12451755Y-17795509D02*
X12451755Y-17852652D01*
X12451755Y-17852652D02*
X12442231Y-17871699D01*
X12442231Y-17871699D02*
X12432708Y-17881223D01*
X12432708Y-17881223D02*
X12413660Y-17890747D01*
X12413660Y-17890747D02*
X12385088Y-17890747D01*
X12508898Y-17757414D02*
X12585088Y-17757414D01*
X12537469Y-17690747D02*
X12537469Y-17862176D01*
X12537469Y-17862176D02*
X12546993Y-17881223D01*
X12546993Y-17881223D02*
X12566041Y-17890747D01*
X12566041Y-17890747D02*
X12585088Y-17890747D01*
X12804136Y-17757414D02*
X12804136Y-17957414D01*
X12804136Y-17766937D02*
X12823184Y-17757414D01*
X12823184Y-17757414D02*
X12861279Y-17757414D01*
X12861279Y-17757414D02*
X12880327Y-17766937D01*
X12880327Y-17766937D02*
X12889850Y-17776461D01*
X12889850Y-17776461D02*
X12899374Y-17795509D01*
X12899374Y-17795509D02*
X12899374Y-17852652D01*
X12899374Y-17852652D02*
X12889850Y-17871699D01*
X12889850Y-17871699D02*
X12880327Y-17881223D01*
X12880327Y-17881223D02*
X12861279Y-17890747D01*
X12861279Y-17890747D02*
X12823184Y-17890747D01*
X12823184Y-17890747D02*
X12804136Y-17881223D01*
X13013660Y-17890747D02*
X12994612Y-17881223D01*
X12994612Y-17881223D02*
X12985089Y-17862176D01*
X12985089Y-17862176D02*
X12985089Y-17690747D01*
X13175565Y-17890747D02*
X13175565Y-17785985D01*
X13175565Y-17785985D02*
X13166041Y-17766937D01*
X13166041Y-17766937D02*
X13146993Y-17757414D01*
X13146993Y-17757414D02*
X13108898Y-17757414D01*
X13108898Y-17757414D02*
X13089850Y-17766937D01*
X13175565Y-17881223D02*
X13156517Y-17890747D01*
X13156517Y-17890747D02*
X13108898Y-17890747D01*
X13108898Y-17890747D02*
X13089850Y-17881223D01*
X13089850Y-17881223D02*
X13080327Y-17862176D01*
X13080327Y-17862176D02*
X13080327Y-17843128D01*
X13080327Y-17843128D02*
X13089850Y-17824080D01*
X13089850Y-17824080D02*
X13108898Y-17814557D01*
X13108898Y-17814557D02*
X13156517Y-17814557D01*
X13156517Y-17814557D02*
X13175565Y-17805033D01*
X13242231Y-17757414D02*
X13318422Y-17757414D01*
X13270803Y-17690747D02*
X13270803Y-17862176D01*
X13270803Y-17862176D02*
X13280327Y-17881223D01*
X13280327Y-17881223D02*
X13299374Y-17890747D01*
X13299374Y-17890747D02*
X13318422Y-17890747D01*
X13461279Y-17881223D02*
X13442231Y-17890747D01*
X13442231Y-17890747D02*
X13404136Y-17890747D01*
X13404136Y-17890747D02*
X13385089Y-17881223D01*
X13385089Y-17881223D02*
X13375565Y-17862176D01*
X13375565Y-17862176D02*
X13375565Y-17785985D01*
X13375565Y-17785985D02*
X13385089Y-17766937D01*
X13385089Y-17766937D02*
X13404136Y-17757414D01*
X13404136Y-17757414D02*
X13442231Y-17757414D01*
X13442231Y-17757414D02*
X13461279Y-17766937D01*
X13461279Y-17766937D02*
X13470803Y-17785985D01*
X13470803Y-17785985D02*
X13470803Y-17805033D01*
X13470803Y-17805033D02*
X13375565Y-17824080D01*
X13642231Y-17890747D02*
X13642231Y-17690747D01*
X13642231Y-17881223D02*
X13623184Y-17890747D01*
X13623184Y-17890747D02*
X13585089Y-17890747D01*
X13585089Y-17890747D02*
X13566041Y-17881223D01*
X13566041Y-17881223D02*
X13556517Y-17871699D01*
X13556517Y-17871699D02*
X13546993Y-17852652D01*
X13546993Y-17852652D02*
X13546993Y-17795509D01*
X13546993Y-17795509D02*
X13556517Y-17776461D01*
X13556517Y-17776461D02*
X13566041Y-17766937D01*
X13566041Y-17766937D02*
X13585089Y-17757414D01*
X13585089Y-17757414D02*
X13623184Y-17757414D01*
X13623184Y-17757414D02*
X13642231Y-17766937D01*
X13718422Y-17966937D02*
X13727946Y-17957414D01*
X13727946Y-17957414D02*
X13746993Y-17928842D01*
X13746993Y-17928842D02*
X13756517Y-17909795D01*
X13756517Y-17909795D02*
X13766041Y-17881223D01*
X13766041Y-17881223D02*
X13775565Y-17833604D01*
X13775565Y-17833604D02*
X13775565Y-17795509D01*
X13775565Y-17795509D02*
X13766041Y-17747890D01*
X13766041Y-17747890D02*
X13756517Y-17719318D01*
X13756517Y-17719318D02*
X13746993Y-17700271D01*
X13746993Y-17700271D02*
X13727946Y-17671699D01*
X13727946Y-17671699D02*
X13718422Y-17662176D01*
X6771930Y-18063263D02*
G75*
G02*
X6571930Y-18063263I-100000J0D01*
G01*
X6571930Y-18063263D02*
G75*
G02*
X6771930Y-18063263I100000J0D01*
G01*
X7023183Y-17973795D02*
X7032707Y-17964271D01*
X7032707Y-17964271D02*
X7051755Y-17954747D01*
X7051755Y-17954747D02*
X7099374Y-17954747D01*
X7099374Y-17954747D02*
X7118421Y-17964271D01*
X7118421Y-17964271D02*
X7127945Y-17973795D01*
X7127945Y-17973795D02*
X7137469Y-17992842D01*
X7137469Y-17992842D02*
X7137469Y-18011890D01*
X7137469Y-18011890D02*
X7127945Y-18040461D01*
X7127945Y-18040461D02*
X7013659Y-18154747D01*
X7013659Y-18154747D02*
X7137469Y-18154747D01*
X7223183Y-18135699D02*
X7232707Y-18145223D01*
X7232707Y-18145223D02*
X7223183Y-18154747D01*
X7223183Y-18154747D02*
X7213659Y-18145223D01*
X7213659Y-18145223D02*
X7223183Y-18135699D01*
X7223183Y-18135699D02*
X7223183Y-18154747D01*
X7423183Y-18154747D02*
X7308898Y-18154747D01*
X7366040Y-18154747D02*
X7366040Y-17954747D01*
X7366040Y-17954747D02*
X7346993Y-17983318D01*
X7346993Y-17983318D02*
X7327945Y-18002366D01*
X7327945Y-18002366D02*
X7308898Y-18011890D01*
X7546993Y-17954747D02*
X7566040Y-17954747D01*
X7566040Y-17954747D02*
X7585088Y-17964271D01*
X7585088Y-17964271D02*
X7594612Y-17973795D01*
X7594612Y-17973795D02*
X7604136Y-17992842D01*
X7604136Y-17992842D02*
X7613659Y-18030937D01*
X7613659Y-18030937D02*
X7613659Y-18078557D01*
X7613659Y-18078557D02*
X7604136Y-18116652D01*
X7604136Y-18116652D02*
X7594612Y-18135699D01*
X7594612Y-18135699D02*
X7585088Y-18145223D01*
X7585088Y-18145223D02*
X7566040Y-18154747D01*
X7566040Y-18154747D02*
X7546993Y-18154747D01*
X7546993Y-18154747D02*
X7527945Y-18145223D01*
X7527945Y-18145223D02*
X7518421Y-18135699D01*
X7518421Y-18135699D02*
X7508898Y-18116652D01*
X7508898Y-18116652D02*
X7499374Y-18078557D01*
X7499374Y-18078557D02*
X7499374Y-18030937D01*
X7499374Y-18030937D02*
X7508898Y-17992842D01*
X7508898Y-17992842D02*
X7518421Y-17973795D01*
X7518421Y-17973795D02*
X7527945Y-17964271D01*
X7527945Y-17964271D02*
X7546993Y-17954747D01*
X7737469Y-17954747D02*
X7756517Y-17954747D01*
X7756517Y-17954747D02*
X7775564Y-17964271D01*
X7775564Y-17964271D02*
X7785088Y-17973795D01*
X7785088Y-17973795D02*
X7794612Y-17992842D01*
X7794612Y-17992842D02*
X7804136Y-18030937D01*
X7804136Y-18030937D02*
X7804136Y-18078557D01*
X7804136Y-18078557D02*
X7794612Y-18116652D01*
X7794612Y-18116652D02*
X7785088Y-18135699D01*
X7785088Y-18135699D02*
X7775564Y-18145223D01*
X7775564Y-18145223D02*
X7756517Y-18154747D01*
X7756517Y-18154747D02*
X7737469Y-18154747D01*
X7737469Y-18154747D02*
X7718421Y-18145223D01*
X7718421Y-18145223D02*
X7708898Y-18135699D01*
X7708898Y-18135699D02*
X7699374Y-18116652D01*
X7699374Y-18116652D02*
X7689850Y-18078557D01*
X7689850Y-18078557D02*
X7689850Y-18030937D01*
X7689850Y-18030937D02*
X7699374Y-17992842D01*
X7699374Y-17992842D02*
X7708898Y-17973795D01*
X7708898Y-17973795D02*
X7718421Y-17964271D01*
X7718421Y-17964271D02*
X7737469Y-17954747D01*
X7889850Y-18154747D02*
X7889850Y-18021414D01*
X7889850Y-18040461D02*
X7899374Y-18030937D01*
X7899374Y-18030937D02*
X7918421Y-18021414D01*
X7918421Y-18021414D02*
X7946993Y-18021414D01*
X7946993Y-18021414D02*
X7966040Y-18030937D01*
X7966040Y-18030937D02*
X7975564Y-18049985D01*
X7975564Y-18049985D02*
X7975564Y-18154747D01*
X7975564Y-18049985D02*
X7985088Y-18030937D01*
X7985088Y-18030937D02*
X8004136Y-18021414D01*
X8004136Y-18021414D02*
X8032707Y-18021414D01*
X8032707Y-18021414D02*
X8051755Y-18030937D01*
X8051755Y-18030937D02*
X8061279Y-18049985D01*
X8061279Y-18049985D02*
X8061279Y-18154747D01*
X8156517Y-18154747D02*
X8156517Y-18021414D01*
X8156517Y-18040461D02*
X8166040Y-18030937D01*
X8166040Y-18030937D02*
X8185088Y-18021414D01*
X8185088Y-18021414D02*
X8213660Y-18021414D01*
X8213660Y-18021414D02*
X8232707Y-18030937D01*
X8232707Y-18030937D02*
X8242231Y-18049985D01*
X8242231Y-18049985D02*
X8242231Y-18154747D01*
X8242231Y-18049985D02*
X8251755Y-18030937D01*
X8251755Y-18030937D02*
X8270802Y-18021414D01*
X8270802Y-18021414D02*
X8299374Y-18021414D01*
X8299374Y-18021414D02*
X8318421Y-18030937D01*
X8318421Y-18030937D02*
X8327945Y-18049985D01*
X8327945Y-18049985D02*
X8327945Y-18154747D01*
X8718422Y-17945223D02*
X8546993Y-18202366D01*
X8975564Y-17954747D02*
X8994612Y-17954747D01*
X8994612Y-17954747D02*
X9013660Y-17964271D01*
X9013660Y-17964271D02*
X9023184Y-17973795D01*
X9023184Y-17973795D02*
X9032707Y-17992842D01*
X9032707Y-17992842D02*
X9042231Y-18030937D01*
X9042231Y-18030937D02*
X9042231Y-18078557D01*
X9042231Y-18078557D02*
X9032707Y-18116652D01*
X9032707Y-18116652D02*
X9023184Y-18135699D01*
X9023184Y-18135699D02*
X9013660Y-18145223D01*
X9013660Y-18145223D02*
X8994612Y-18154747D01*
X8994612Y-18154747D02*
X8975564Y-18154747D01*
X8975564Y-18154747D02*
X8956517Y-18145223D01*
X8956517Y-18145223D02*
X8946993Y-18135699D01*
X8946993Y-18135699D02*
X8937469Y-18116652D01*
X8937469Y-18116652D02*
X8927945Y-18078557D01*
X8927945Y-18078557D02*
X8927945Y-18030937D01*
X8927945Y-18030937D02*
X8937469Y-17992842D01*
X8937469Y-17992842D02*
X8946993Y-17973795D01*
X8946993Y-17973795D02*
X8956517Y-17964271D01*
X8956517Y-17964271D02*
X8975564Y-17954747D01*
X9127945Y-18135699D02*
X9137469Y-18145223D01*
X9137469Y-18145223D02*
X9127945Y-18154747D01*
X9127945Y-18154747D02*
X9118422Y-18145223D01*
X9118422Y-18145223D02*
X9127945Y-18135699D01*
X9127945Y-18135699D02*
X9127945Y-18154747D01*
X9261279Y-17954747D02*
X9280326Y-17954747D01*
X9280326Y-17954747D02*
X9299374Y-17964271D01*
X9299374Y-17964271D02*
X9308898Y-17973795D01*
X9308898Y-17973795D02*
X9318422Y-17992842D01*
X9318422Y-17992842D02*
X9327945Y-18030937D01*
X9327945Y-18030937D02*
X9327945Y-18078557D01*
X9327945Y-18078557D02*
X9318422Y-18116652D01*
X9318422Y-18116652D02*
X9308898Y-18135699D01*
X9308898Y-18135699D02*
X9299374Y-18145223D01*
X9299374Y-18145223D02*
X9280326Y-18154747D01*
X9280326Y-18154747D02*
X9261279Y-18154747D01*
X9261279Y-18154747D02*
X9242231Y-18145223D01*
X9242231Y-18145223D02*
X9232707Y-18135699D01*
X9232707Y-18135699D02*
X9223184Y-18116652D01*
X9223184Y-18116652D02*
X9213660Y-18078557D01*
X9213660Y-18078557D02*
X9213660Y-18030937D01*
X9213660Y-18030937D02*
X9223184Y-17992842D01*
X9223184Y-17992842D02*
X9232707Y-17973795D01*
X9232707Y-17973795D02*
X9242231Y-17964271D01*
X9242231Y-17964271D02*
X9261279Y-17954747D01*
X9442231Y-18040461D02*
X9423184Y-18030937D01*
X9423184Y-18030937D02*
X9413660Y-18021414D01*
X9413660Y-18021414D02*
X9404136Y-18002366D01*
X9404136Y-18002366D02*
X9404136Y-17992842D01*
X9404136Y-17992842D02*
X9413660Y-17973795D01*
X9413660Y-17973795D02*
X9423184Y-17964271D01*
X9423184Y-17964271D02*
X9442231Y-17954747D01*
X9442231Y-17954747D02*
X9480326Y-17954747D01*
X9480326Y-17954747D02*
X9499374Y-17964271D01*
X9499374Y-17964271D02*
X9508898Y-17973795D01*
X9508898Y-17973795D02*
X9518422Y-17992842D01*
X9518422Y-17992842D02*
X9518422Y-18002366D01*
X9518422Y-18002366D02*
X9508898Y-18021414D01*
X9508898Y-18021414D02*
X9499374Y-18030937D01*
X9499374Y-18030937D02*
X9480326Y-18040461D01*
X9480326Y-18040461D02*
X9442231Y-18040461D01*
X9442231Y-18040461D02*
X9423184Y-18049985D01*
X9423184Y-18049985D02*
X9413660Y-18059509D01*
X9413660Y-18059509D02*
X9404136Y-18078557D01*
X9404136Y-18078557D02*
X9404136Y-18116652D01*
X9404136Y-18116652D02*
X9413660Y-18135699D01*
X9413660Y-18135699D02*
X9423184Y-18145223D01*
X9423184Y-18145223D02*
X9442231Y-18154747D01*
X9442231Y-18154747D02*
X9480326Y-18154747D01*
X9480326Y-18154747D02*
X9499374Y-18145223D01*
X9499374Y-18145223D02*
X9508898Y-18135699D01*
X9508898Y-18135699D02*
X9518422Y-18116652D01*
X9518422Y-18116652D02*
X9518422Y-18078557D01*
X9518422Y-18078557D02*
X9508898Y-18059509D01*
X9508898Y-18059509D02*
X9499374Y-18049985D01*
X9499374Y-18049985D02*
X9480326Y-18040461D01*
X9594612Y-17973795D02*
X9604136Y-17964271D01*
X9604136Y-17964271D02*
X9623184Y-17954747D01*
X9623184Y-17954747D02*
X9670803Y-17954747D01*
X9670803Y-17954747D02*
X9689850Y-17964271D01*
X9689850Y-17964271D02*
X9699374Y-17973795D01*
X9699374Y-17973795D02*
X9708898Y-17992842D01*
X9708898Y-17992842D02*
X9708898Y-18011890D01*
X9708898Y-18011890D02*
X9699374Y-18040461D01*
X9699374Y-18040461D02*
X9585088Y-18154747D01*
X9585088Y-18154747D02*
X9708898Y-18154747D01*
X9775565Y-17954747D02*
X9908898Y-17954747D01*
X9908898Y-17954747D02*
X9823184Y-18154747D01*
X9975565Y-17954747D02*
X9975565Y-17992842D01*
X10051755Y-17954747D02*
X10051755Y-17992842D01*
X10346993Y-18230937D02*
X10337469Y-18221414D01*
X10337469Y-18221414D02*
X10318422Y-18192842D01*
X10318422Y-18192842D02*
X10308898Y-18173795D01*
X10308898Y-18173795D02*
X10299374Y-18145223D01*
X10299374Y-18145223D02*
X10289850Y-18097604D01*
X10289850Y-18097604D02*
X10289850Y-18059509D01*
X10289850Y-18059509D02*
X10299374Y-18011890D01*
X10299374Y-18011890D02*
X10308898Y-17983318D01*
X10308898Y-17983318D02*
X10318422Y-17964271D01*
X10318422Y-17964271D02*
X10337469Y-17935699D01*
X10337469Y-17935699D02*
X10346993Y-17926176D01*
X10508898Y-18021414D02*
X10508898Y-18154747D01*
X10461279Y-17945223D02*
X10413660Y-18088080D01*
X10413660Y-18088080D02*
X10537469Y-18088080D01*
X10766041Y-18154747D02*
X10766041Y-17954747D01*
X10851755Y-18154747D02*
X10851755Y-18049985D01*
X10851755Y-18049985D02*
X10842231Y-18030937D01*
X10842231Y-18030937D02*
X10823184Y-18021414D01*
X10823184Y-18021414D02*
X10794612Y-18021414D01*
X10794612Y-18021414D02*
X10775565Y-18030937D01*
X10775565Y-18030937D02*
X10766041Y-18040461D01*
X10975565Y-18154747D02*
X10956517Y-18145223D01*
X10956517Y-18145223D02*
X10946993Y-18135699D01*
X10946993Y-18135699D02*
X10937469Y-18116652D01*
X10937469Y-18116652D02*
X10937469Y-18059509D01*
X10937469Y-18059509D02*
X10946993Y-18040461D01*
X10946993Y-18040461D02*
X10956517Y-18030937D01*
X10956517Y-18030937D02*
X10975565Y-18021414D01*
X10975565Y-18021414D02*
X11004136Y-18021414D01*
X11004136Y-18021414D02*
X11023184Y-18030937D01*
X11023184Y-18030937D02*
X11032708Y-18040461D01*
X11032708Y-18040461D02*
X11042231Y-18059509D01*
X11042231Y-18059509D02*
X11042231Y-18116652D01*
X11042231Y-18116652D02*
X11032708Y-18135699D01*
X11032708Y-18135699D02*
X11023184Y-18145223D01*
X11023184Y-18145223D02*
X11004136Y-18154747D01*
X11004136Y-18154747D02*
X10975565Y-18154747D01*
X11156517Y-18154747D02*
X11137469Y-18145223D01*
X11137469Y-18145223D02*
X11127946Y-18126176D01*
X11127946Y-18126176D02*
X11127946Y-17954747D01*
X11308898Y-18145223D02*
X11289850Y-18154747D01*
X11289850Y-18154747D02*
X11251755Y-18154747D01*
X11251755Y-18154747D02*
X11232707Y-18145223D01*
X11232707Y-18145223D02*
X11223184Y-18126176D01*
X11223184Y-18126176D02*
X11223184Y-18049985D01*
X11223184Y-18049985D02*
X11232707Y-18030937D01*
X11232707Y-18030937D02*
X11251755Y-18021414D01*
X11251755Y-18021414D02*
X11289850Y-18021414D01*
X11289850Y-18021414D02*
X11308898Y-18030937D01*
X11308898Y-18030937D02*
X11318422Y-18049985D01*
X11318422Y-18049985D02*
X11318422Y-18069033D01*
X11318422Y-18069033D02*
X11223184Y-18088080D01*
X11394612Y-18145223D02*
X11413660Y-18154747D01*
X11413660Y-18154747D02*
X11451755Y-18154747D01*
X11451755Y-18154747D02*
X11470803Y-18145223D01*
X11470803Y-18145223D02*
X11480327Y-18126176D01*
X11480327Y-18126176D02*
X11480327Y-18116652D01*
X11480327Y-18116652D02*
X11470803Y-18097604D01*
X11470803Y-18097604D02*
X11451755Y-18088080D01*
X11451755Y-18088080D02*
X11423184Y-18088080D01*
X11423184Y-18088080D02*
X11404136Y-18078557D01*
X11404136Y-18078557D02*
X11394612Y-18059509D01*
X11394612Y-18059509D02*
X11394612Y-18049985D01*
X11394612Y-18049985D02*
X11404136Y-18030937D01*
X11404136Y-18030937D02*
X11423184Y-18021414D01*
X11423184Y-18021414D02*
X11451755Y-18021414D01*
X11451755Y-18021414D02*
X11470803Y-18030937D01*
X11546993Y-18230937D02*
X11556517Y-18221414D01*
X11556517Y-18221414D02*
X11575565Y-18192842D01*
X11575565Y-18192842D02*
X11585088Y-18173795D01*
X11585088Y-18173795D02*
X11594612Y-18145223D01*
X11594612Y-18145223D02*
X11604136Y-18097604D01*
X11604136Y-18097604D02*
X11604136Y-18059509D01*
X11604136Y-18059509D02*
X11594612Y-18011890D01*
X11594612Y-18011890D02*
X11585088Y-17983318D01*
X11585088Y-17983318D02*
X11575565Y-17964271D01*
X11575565Y-17964271D02*
X11556517Y-17935699D01*
X11556517Y-17935699D02*
X11546993Y-17926176D01*
X11908898Y-18230937D02*
X11899374Y-18221414D01*
X11899374Y-18221414D02*
X11880327Y-18192842D01*
X11880327Y-18192842D02*
X11870803Y-18173795D01*
X11870803Y-18173795D02*
X11861279Y-18145223D01*
X11861279Y-18145223D02*
X11851755Y-18097604D01*
X11851755Y-18097604D02*
X11851755Y-18059509D01*
X11851755Y-18059509D02*
X11861279Y-18011890D01*
X11861279Y-18011890D02*
X11870803Y-17983318D01*
X11870803Y-17983318D02*
X11880327Y-17964271D01*
X11880327Y-17964271D02*
X11899374Y-17935699D01*
X11899374Y-17935699D02*
X11908898Y-17926176D01*
X11985088Y-18021414D02*
X11985088Y-18154747D01*
X11985088Y-18040461D02*
X11994612Y-18030937D01*
X11994612Y-18030937D02*
X12013660Y-18021414D01*
X12013660Y-18021414D02*
X12042231Y-18021414D01*
X12042231Y-18021414D02*
X12061279Y-18030937D01*
X12061279Y-18030937D02*
X12070803Y-18049985D01*
X12070803Y-18049985D02*
X12070803Y-18154747D01*
X12194612Y-18154747D02*
X12175565Y-18145223D01*
X12175565Y-18145223D02*
X12166041Y-18135699D01*
X12166041Y-18135699D02*
X12156517Y-18116652D01*
X12156517Y-18116652D02*
X12156517Y-18059509D01*
X12156517Y-18059509D02*
X12166041Y-18040461D01*
X12166041Y-18040461D02*
X12175565Y-18030937D01*
X12175565Y-18030937D02*
X12194612Y-18021414D01*
X12194612Y-18021414D02*
X12223184Y-18021414D01*
X12223184Y-18021414D02*
X12242231Y-18030937D01*
X12242231Y-18030937D02*
X12251755Y-18040461D01*
X12251755Y-18040461D02*
X12261279Y-18059509D01*
X12261279Y-18059509D02*
X12261279Y-18116652D01*
X12261279Y-18116652D02*
X12251755Y-18135699D01*
X12251755Y-18135699D02*
X12242231Y-18145223D01*
X12242231Y-18145223D02*
X12223184Y-18154747D01*
X12223184Y-18154747D02*
X12194612Y-18154747D01*
X12318422Y-18021414D02*
X12394612Y-18021414D01*
X12346993Y-17954747D02*
X12346993Y-18126176D01*
X12346993Y-18126176D02*
X12356517Y-18145223D01*
X12356517Y-18145223D02*
X12375565Y-18154747D01*
X12375565Y-18154747D02*
X12394612Y-18154747D01*
X12613660Y-18021414D02*
X12613660Y-18221414D01*
X12613660Y-18030937D02*
X12632708Y-18021414D01*
X12632708Y-18021414D02*
X12670803Y-18021414D01*
X12670803Y-18021414D02*
X12689850Y-18030937D01*
X12689850Y-18030937D02*
X12699374Y-18040461D01*
X12699374Y-18040461D02*
X12708898Y-18059509D01*
X12708898Y-18059509D02*
X12708898Y-18116652D01*
X12708898Y-18116652D02*
X12699374Y-18135699D01*
X12699374Y-18135699D02*
X12689850Y-18145223D01*
X12689850Y-18145223D02*
X12670803Y-18154747D01*
X12670803Y-18154747D02*
X12632708Y-18154747D01*
X12632708Y-18154747D02*
X12613660Y-18145223D01*
X12823184Y-18154747D02*
X12804136Y-18145223D01*
X12804136Y-18145223D02*
X12794612Y-18126176D01*
X12794612Y-18126176D02*
X12794612Y-17954747D01*
X12985089Y-18154747D02*
X12985089Y-18049985D01*
X12985089Y-18049985D02*
X12975565Y-18030937D01*
X12975565Y-18030937D02*
X12956517Y-18021414D01*
X12956517Y-18021414D02*
X12918422Y-18021414D01*
X12918422Y-18021414D02*
X12899374Y-18030937D01*
X12985089Y-18145223D02*
X12966041Y-18154747D01*
X12966041Y-18154747D02*
X12918422Y-18154747D01*
X12918422Y-18154747D02*
X12899374Y-18145223D01*
X12899374Y-18145223D02*
X12889850Y-18126176D01*
X12889850Y-18126176D02*
X12889850Y-18107128D01*
X12889850Y-18107128D02*
X12899374Y-18088080D01*
X12899374Y-18088080D02*
X12918422Y-18078557D01*
X12918422Y-18078557D02*
X12966041Y-18078557D01*
X12966041Y-18078557D02*
X12985089Y-18069033D01*
X13051755Y-18021414D02*
X13127946Y-18021414D01*
X13080327Y-17954747D02*
X13080327Y-18126176D01*
X13080327Y-18126176D02*
X13089850Y-18145223D01*
X13089850Y-18145223D02*
X13108898Y-18154747D01*
X13108898Y-18154747D02*
X13127946Y-18154747D01*
X13270803Y-18145223D02*
X13251755Y-18154747D01*
X13251755Y-18154747D02*
X13213660Y-18154747D01*
X13213660Y-18154747D02*
X13194612Y-18145223D01*
X13194612Y-18145223D02*
X13185089Y-18126176D01*
X13185089Y-18126176D02*
X13185089Y-18049985D01*
X13185089Y-18049985D02*
X13194612Y-18030937D01*
X13194612Y-18030937D02*
X13213660Y-18021414D01*
X13213660Y-18021414D02*
X13251755Y-18021414D01*
X13251755Y-18021414D02*
X13270803Y-18030937D01*
X13270803Y-18030937D02*
X13280327Y-18049985D01*
X13280327Y-18049985D02*
X13280327Y-18069033D01*
X13280327Y-18069033D02*
X13185089Y-18088080D01*
X13451755Y-18154747D02*
X13451755Y-17954747D01*
X13451755Y-18145223D02*
X13432708Y-18154747D01*
X13432708Y-18154747D02*
X13394612Y-18154747D01*
X13394612Y-18154747D02*
X13375565Y-18145223D01*
X13375565Y-18145223D02*
X13366041Y-18135699D01*
X13366041Y-18135699D02*
X13356517Y-18116652D01*
X13356517Y-18116652D02*
X13356517Y-18059509D01*
X13356517Y-18059509D02*
X13366041Y-18040461D01*
X13366041Y-18040461D02*
X13375565Y-18030937D01*
X13375565Y-18030937D02*
X13394612Y-18021414D01*
X13394612Y-18021414D02*
X13432708Y-18021414D01*
X13432708Y-18021414D02*
X13451755Y-18030937D01*
X13527946Y-18230937D02*
X13537470Y-18221414D01*
X13537470Y-18221414D02*
X13556517Y-18192842D01*
X13556517Y-18192842D02*
X13566041Y-18173795D01*
X13566041Y-18173795D02*
X13575565Y-18145223D01*
X13575565Y-18145223D02*
X13585089Y-18097604D01*
X13585089Y-18097604D02*
X13585089Y-18059509D01*
X13585089Y-18059509D02*
X13575565Y-18011890D01*
X13575565Y-18011890D02*
X13566041Y-17983318D01*
X13566041Y-17983318D02*
X13556517Y-17964271D01*
X13556517Y-17964271D02*
X13537470Y-17935699D01*
X13537470Y-17935699D02*
X13527946Y-17926176D01*
X6671930Y-18283263D02*
X6671930Y-18483263D01*
X6571930Y-18383263D02*
X6771930Y-18383263D01*
X7023183Y-18293795D02*
X7032707Y-18284271D01*
X7032707Y-18284271D02*
X7051755Y-18274747D01*
X7051755Y-18274747D02*
X7099374Y-18274747D01*
X7099374Y-18274747D02*
X7118421Y-18284271D01*
X7118421Y-18284271D02*
X7127945Y-18293795D01*
X7127945Y-18293795D02*
X7137469Y-18312842D01*
X7137469Y-18312842D02*
X7137469Y-18331890D01*
X7137469Y-18331890D02*
X7127945Y-18360461D01*
X7127945Y-18360461D02*
X7013659Y-18474747D01*
X7013659Y-18474747D02*
X7137469Y-18474747D01*
X7223183Y-18455699D02*
X7232707Y-18465223D01*
X7232707Y-18465223D02*
X7223183Y-18474747D01*
X7223183Y-18474747D02*
X7213659Y-18465223D01*
X7213659Y-18465223D02*
X7223183Y-18455699D01*
X7223183Y-18455699D02*
X7223183Y-18474747D01*
X7308898Y-18293795D02*
X7318421Y-18284271D01*
X7318421Y-18284271D02*
X7337469Y-18274747D01*
X7337469Y-18274747D02*
X7385088Y-18274747D01*
X7385088Y-18274747D02*
X7404136Y-18284271D01*
X7404136Y-18284271D02*
X7413659Y-18293795D01*
X7413659Y-18293795D02*
X7423183Y-18312842D01*
X7423183Y-18312842D02*
X7423183Y-18331890D01*
X7423183Y-18331890D02*
X7413659Y-18360461D01*
X7413659Y-18360461D02*
X7299374Y-18474747D01*
X7299374Y-18474747D02*
X7423183Y-18474747D01*
X7546993Y-18274747D02*
X7566040Y-18274747D01*
X7566040Y-18274747D02*
X7585088Y-18284271D01*
X7585088Y-18284271D02*
X7594612Y-18293795D01*
X7594612Y-18293795D02*
X7604136Y-18312842D01*
X7604136Y-18312842D02*
X7613659Y-18350937D01*
X7613659Y-18350937D02*
X7613659Y-18398557D01*
X7613659Y-18398557D02*
X7604136Y-18436652D01*
X7604136Y-18436652D02*
X7594612Y-18455699D01*
X7594612Y-18455699D02*
X7585088Y-18465223D01*
X7585088Y-18465223D02*
X7566040Y-18474747D01*
X7566040Y-18474747D02*
X7546993Y-18474747D01*
X7546993Y-18474747D02*
X7527945Y-18465223D01*
X7527945Y-18465223D02*
X7518421Y-18455699D01*
X7518421Y-18455699D02*
X7508898Y-18436652D01*
X7508898Y-18436652D02*
X7499374Y-18398557D01*
X7499374Y-18398557D02*
X7499374Y-18350937D01*
X7499374Y-18350937D02*
X7508898Y-18312842D01*
X7508898Y-18312842D02*
X7518421Y-18293795D01*
X7518421Y-18293795D02*
X7527945Y-18284271D01*
X7527945Y-18284271D02*
X7546993Y-18274747D01*
X7737469Y-18274747D02*
X7756517Y-18274747D01*
X7756517Y-18274747D02*
X7775564Y-18284271D01*
X7775564Y-18284271D02*
X7785088Y-18293795D01*
X7785088Y-18293795D02*
X7794612Y-18312842D01*
X7794612Y-18312842D02*
X7804136Y-18350937D01*
X7804136Y-18350937D02*
X7804136Y-18398557D01*
X7804136Y-18398557D02*
X7794612Y-18436652D01*
X7794612Y-18436652D02*
X7785088Y-18455699D01*
X7785088Y-18455699D02*
X7775564Y-18465223D01*
X7775564Y-18465223D02*
X7756517Y-18474747D01*
X7756517Y-18474747D02*
X7737469Y-18474747D01*
X7737469Y-18474747D02*
X7718421Y-18465223D01*
X7718421Y-18465223D02*
X7708898Y-18455699D01*
X7708898Y-18455699D02*
X7699374Y-18436652D01*
X7699374Y-18436652D02*
X7689850Y-18398557D01*
X7689850Y-18398557D02*
X7689850Y-18350937D01*
X7689850Y-18350937D02*
X7699374Y-18312842D01*
X7699374Y-18312842D02*
X7708898Y-18293795D01*
X7708898Y-18293795D02*
X7718421Y-18284271D01*
X7718421Y-18284271D02*
X7737469Y-18274747D01*
X7889850Y-18474747D02*
X7889850Y-18341414D01*
X7889850Y-18360461D02*
X7899374Y-18350937D01*
X7899374Y-18350937D02*
X7918421Y-18341414D01*
X7918421Y-18341414D02*
X7946993Y-18341414D01*
X7946993Y-18341414D02*
X7966040Y-18350937D01*
X7966040Y-18350937D02*
X7975564Y-18369985D01*
X7975564Y-18369985D02*
X7975564Y-18474747D01*
X7975564Y-18369985D02*
X7985088Y-18350937D01*
X7985088Y-18350937D02*
X8004136Y-18341414D01*
X8004136Y-18341414D02*
X8032707Y-18341414D01*
X8032707Y-18341414D02*
X8051755Y-18350937D01*
X8051755Y-18350937D02*
X8061279Y-18369985D01*
X8061279Y-18369985D02*
X8061279Y-18474747D01*
X8156517Y-18474747D02*
X8156517Y-18341414D01*
X8156517Y-18360461D02*
X8166040Y-18350937D01*
X8166040Y-18350937D02*
X8185088Y-18341414D01*
X8185088Y-18341414D02*
X8213660Y-18341414D01*
X8213660Y-18341414D02*
X8232707Y-18350937D01*
X8232707Y-18350937D02*
X8242231Y-18369985D01*
X8242231Y-18369985D02*
X8242231Y-18474747D01*
X8242231Y-18369985D02*
X8251755Y-18350937D01*
X8251755Y-18350937D02*
X8270802Y-18341414D01*
X8270802Y-18341414D02*
X8299374Y-18341414D01*
X8299374Y-18341414D02*
X8318421Y-18350937D01*
X8318421Y-18350937D02*
X8327945Y-18369985D01*
X8327945Y-18369985D02*
X8327945Y-18474747D01*
X8718422Y-18265223D02*
X8546993Y-18522366D01*
X8975564Y-18274747D02*
X8994612Y-18274747D01*
X8994612Y-18274747D02*
X9013660Y-18284271D01*
X9013660Y-18284271D02*
X9023184Y-18293795D01*
X9023184Y-18293795D02*
X9032707Y-18312842D01*
X9032707Y-18312842D02*
X9042231Y-18350937D01*
X9042231Y-18350937D02*
X9042231Y-18398557D01*
X9042231Y-18398557D02*
X9032707Y-18436652D01*
X9032707Y-18436652D02*
X9023184Y-18455699D01*
X9023184Y-18455699D02*
X9013660Y-18465223D01*
X9013660Y-18465223D02*
X8994612Y-18474747D01*
X8994612Y-18474747D02*
X8975564Y-18474747D01*
X8975564Y-18474747D02*
X8956517Y-18465223D01*
X8956517Y-18465223D02*
X8946993Y-18455699D01*
X8946993Y-18455699D02*
X8937469Y-18436652D01*
X8937469Y-18436652D02*
X8927945Y-18398557D01*
X8927945Y-18398557D02*
X8927945Y-18350937D01*
X8927945Y-18350937D02*
X8937469Y-18312842D01*
X8937469Y-18312842D02*
X8946993Y-18293795D01*
X8946993Y-18293795D02*
X8956517Y-18284271D01*
X8956517Y-18284271D02*
X8975564Y-18274747D01*
X9127945Y-18455699D02*
X9137469Y-18465223D01*
X9137469Y-18465223D02*
X9127945Y-18474747D01*
X9127945Y-18474747D02*
X9118422Y-18465223D01*
X9118422Y-18465223D02*
X9127945Y-18455699D01*
X9127945Y-18455699D02*
X9127945Y-18474747D01*
X9261279Y-18274747D02*
X9280326Y-18274747D01*
X9280326Y-18274747D02*
X9299374Y-18284271D01*
X9299374Y-18284271D02*
X9308898Y-18293795D01*
X9308898Y-18293795D02*
X9318422Y-18312842D01*
X9318422Y-18312842D02*
X9327945Y-18350937D01*
X9327945Y-18350937D02*
X9327945Y-18398557D01*
X9327945Y-18398557D02*
X9318422Y-18436652D01*
X9318422Y-18436652D02*
X9308898Y-18455699D01*
X9308898Y-18455699D02*
X9299374Y-18465223D01*
X9299374Y-18465223D02*
X9280326Y-18474747D01*
X9280326Y-18474747D02*
X9261279Y-18474747D01*
X9261279Y-18474747D02*
X9242231Y-18465223D01*
X9242231Y-18465223D02*
X9232707Y-18455699D01*
X9232707Y-18455699D02*
X9223184Y-18436652D01*
X9223184Y-18436652D02*
X9213660Y-18398557D01*
X9213660Y-18398557D02*
X9213660Y-18350937D01*
X9213660Y-18350937D02*
X9223184Y-18312842D01*
X9223184Y-18312842D02*
X9232707Y-18293795D01*
X9232707Y-18293795D02*
X9242231Y-18284271D01*
X9242231Y-18284271D02*
X9261279Y-18274747D01*
X9442231Y-18360461D02*
X9423184Y-18350937D01*
X9423184Y-18350937D02*
X9413660Y-18341414D01*
X9413660Y-18341414D02*
X9404136Y-18322366D01*
X9404136Y-18322366D02*
X9404136Y-18312842D01*
X9404136Y-18312842D02*
X9413660Y-18293795D01*
X9413660Y-18293795D02*
X9423184Y-18284271D01*
X9423184Y-18284271D02*
X9442231Y-18274747D01*
X9442231Y-18274747D02*
X9480326Y-18274747D01*
X9480326Y-18274747D02*
X9499374Y-18284271D01*
X9499374Y-18284271D02*
X9508898Y-18293795D01*
X9508898Y-18293795D02*
X9518422Y-18312842D01*
X9518422Y-18312842D02*
X9518422Y-18322366D01*
X9518422Y-18322366D02*
X9508898Y-18341414D01*
X9508898Y-18341414D02*
X9499374Y-18350937D01*
X9499374Y-18350937D02*
X9480326Y-18360461D01*
X9480326Y-18360461D02*
X9442231Y-18360461D01*
X9442231Y-18360461D02*
X9423184Y-18369985D01*
X9423184Y-18369985D02*
X9413660Y-18379509D01*
X9413660Y-18379509D02*
X9404136Y-18398557D01*
X9404136Y-18398557D02*
X9404136Y-18436652D01*
X9404136Y-18436652D02*
X9413660Y-18455699D01*
X9413660Y-18455699D02*
X9423184Y-18465223D01*
X9423184Y-18465223D02*
X9442231Y-18474747D01*
X9442231Y-18474747D02*
X9480326Y-18474747D01*
X9480326Y-18474747D02*
X9499374Y-18465223D01*
X9499374Y-18465223D02*
X9508898Y-18455699D01*
X9508898Y-18455699D02*
X9518422Y-18436652D01*
X9518422Y-18436652D02*
X9518422Y-18398557D01*
X9518422Y-18398557D02*
X9508898Y-18379509D01*
X9508898Y-18379509D02*
X9499374Y-18369985D01*
X9499374Y-18369985D02*
X9480326Y-18360461D01*
X9689850Y-18274747D02*
X9651755Y-18274747D01*
X9651755Y-18274747D02*
X9632707Y-18284271D01*
X9632707Y-18284271D02*
X9623184Y-18293795D01*
X9623184Y-18293795D02*
X9604136Y-18322366D01*
X9604136Y-18322366D02*
X9594612Y-18360461D01*
X9594612Y-18360461D02*
X9594612Y-18436652D01*
X9594612Y-18436652D02*
X9604136Y-18455699D01*
X9604136Y-18455699D02*
X9613660Y-18465223D01*
X9613660Y-18465223D02*
X9632707Y-18474747D01*
X9632707Y-18474747D02*
X9670803Y-18474747D01*
X9670803Y-18474747D02*
X9689850Y-18465223D01*
X9689850Y-18465223D02*
X9699374Y-18455699D01*
X9699374Y-18455699D02*
X9708898Y-18436652D01*
X9708898Y-18436652D02*
X9708898Y-18389033D01*
X9708898Y-18389033D02*
X9699374Y-18369985D01*
X9699374Y-18369985D02*
X9689850Y-18360461D01*
X9689850Y-18360461D02*
X9670803Y-18350937D01*
X9670803Y-18350937D02*
X9632707Y-18350937D01*
X9632707Y-18350937D02*
X9613660Y-18360461D01*
X9613660Y-18360461D02*
X9604136Y-18369985D01*
X9604136Y-18369985D02*
X9594612Y-18389033D01*
X9880326Y-18274747D02*
X9842231Y-18274747D01*
X9842231Y-18274747D02*
X9823184Y-18284271D01*
X9823184Y-18284271D02*
X9813660Y-18293795D01*
X9813660Y-18293795D02*
X9794612Y-18322366D01*
X9794612Y-18322366D02*
X9785088Y-18360461D01*
X9785088Y-18360461D02*
X9785088Y-18436652D01*
X9785088Y-18436652D02*
X9794612Y-18455699D01*
X9794612Y-18455699D02*
X9804136Y-18465223D01*
X9804136Y-18465223D02*
X9823184Y-18474747D01*
X9823184Y-18474747D02*
X9861279Y-18474747D01*
X9861279Y-18474747D02*
X9880326Y-18465223D01*
X9880326Y-18465223D02*
X9889850Y-18455699D01*
X9889850Y-18455699D02*
X9899374Y-18436652D01*
X9899374Y-18436652D02*
X9899374Y-18389033D01*
X9899374Y-18389033D02*
X9889850Y-18369985D01*
X9889850Y-18369985D02*
X9880326Y-18360461D01*
X9880326Y-18360461D02*
X9861279Y-18350937D01*
X9861279Y-18350937D02*
X9823184Y-18350937D01*
X9823184Y-18350937D02*
X9804136Y-18360461D01*
X9804136Y-18360461D02*
X9794612Y-18369985D01*
X9794612Y-18369985D02*
X9785088Y-18389033D01*
X9975565Y-18274747D02*
X9975565Y-18312842D01*
X10051755Y-18274747D02*
X10051755Y-18312842D01*
X10346993Y-18550937D02*
X10337469Y-18541414D01*
X10337469Y-18541414D02*
X10318422Y-18512842D01*
X10318422Y-18512842D02*
X10308898Y-18493795D01*
X10308898Y-18493795D02*
X10299374Y-18465223D01*
X10299374Y-18465223D02*
X10289850Y-18417604D01*
X10289850Y-18417604D02*
X10289850Y-18379509D01*
X10289850Y-18379509D02*
X10299374Y-18331890D01*
X10299374Y-18331890D02*
X10308898Y-18303318D01*
X10308898Y-18303318D02*
X10318422Y-18284271D01*
X10318422Y-18284271D02*
X10337469Y-18255699D01*
X10337469Y-18255699D02*
X10346993Y-18246176D01*
X10413660Y-18293795D02*
X10423184Y-18284271D01*
X10423184Y-18284271D02*
X10442231Y-18274747D01*
X10442231Y-18274747D02*
X10489850Y-18274747D01*
X10489850Y-18274747D02*
X10508898Y-18284271D01*
X10508898Y-18284271D02*
X10518422Y-18293795D01*
X10518422Y-18293795D02*
X10527946Y-18312842D01*
X10527946Y-18312842D02*
X10527946Y-18331890D01*
X10527946Y-18331890D02*
X10518422Y-18360461D01*
X10518422Y-18360461D02*
X10404136Y-18474747D01*
X10404136Y-18474747D02*
X10527946Y-18474747D01*
X10766041Y-18474747D02*
X10766041Y-18274747D01*
X10851755Y-18474747D02*
X10851755Y-18369985D01*
X10851755Y-18369985D02*
X10842231Y-18350937D01*
X10842231Y-18350937D02*
X10823184Y-18341414D01*
X10823184Y-18341414D02*
X10794612Y-18341414D01*
X10794612Y-18341414D02*
X10775565Y-18350937D01*
X10775565Y-18350937D02*
X10766041Y-18360461D01*
X10975565Y-18474747D02*
X10956517Y-18465223D01*
X10956517Y-18465223D02*
X10946993Y-18455699D01*
X10946993Y-18455699D02*
X10937469Y-18436652D01*
X10937469Y-18436652D02*
X10937469Y-18379509D01*
X10937469Y-18379509D02*
X10946993Y-18360461D01*
X10946993Y-18360461D02*
X10956517Y-18350937D01*
X10956517Y-18350937D02*
X10975565Y-18341414D01*
X10975565Y-18341414D02*
X11004136Y-18341414D01*
X11004136Y-18341414D02*
X11023184Y-18350937D01*
X11023184Y-18350937D02*
X11032708Y-18360461D01*
X11032708Y-18360461D02*
X11042231Y-18379509D01*
X11042231Y-18379509D02*
X11042231Y-18436652D01*
X11042231Y-18436652D02*
X11032708Y-18455699D01*
X11032708Y-18455699D02*
X11023184Y-18465223D01*
X11023184Y-18465223D02*
X11004136Y-18474747D01*
X11004136Y-18474747D02*
X10975565Y-18474747D01*
X11156517Y-18474747D02*
X11137469Y-18465223D01*
X11137469Y-18465223D02*
X11127946Y-18446176D01*
X11127946Y-18446176D02*
X11127946Y-18274747D01*
X11308898Y-18465223D02*
X11289850Y-18474747D01*
X11289850Y-18474747D02*
X11251755Y-18474747D01*
X11251755Y-18474747D02*
X11232707Y-18465223D01*
X11232707Y-18465223D02*
X11223184Y-18446176D01*
X11223184Y-18446176D02*
X11223184Y-18369985D01*
X11223184Y-18369985D02*
X11232707Y-18350937D01*
X11232707Y-18350937D02*
X11251755Y-18341414D01*
X11251755Y-18341414D02*
X11289850Y-18341414D01*
X11289850Y-18341414D02*
X11308898Y-18350937D01*
X11308898Y-18350937D02*
X11318422Y-18369985D01*
X11318422Y-18369985D02*
X11318422Y-18389033D01*
X11318422Y-18389033D02*
X11223184Y-18408080D01*
X11394612Y-18465223D02*
X11413660Y-18474747D01*
X11413660Y-18474747D02*
X11451755Y-18474747D01*
X11451755Y-18474747D02*
X11470803Y-18465223D01*
X11470803Y-18465223D02*
X11480327Y-18446176D01*
X11480327Y-18446176D02*
X11480327Y-18436652D01*
X11480327Y-18436652D02*
X11470803Y-18417604D01*
X11470803Y-18417604D02*
X11451755Y-18408080D01*
X11451755Y-18408080D02*
X11423184Y-18408080D01*
X11423184Y-18408080D02*
X11404136Y-18398557D01*
X11404136Y-18398557D02*
X11394612Y-18379509D01*
X11394612Y-18379509D02*
X11394612Y-18369985D01*
X11394612Y-18369985D02*
X11404136Y-18350937D01*
X11404136Y-18350937D02*
X11423184Y-18341414D01*
X11423184Y-18341414D02*
X11451755Y-18341414D01*
X11451755Y-18341414D02*
X11470803Y-18350937D01*
X11546993Y-18550937D02*
X11556517Y-18541414D01*
X11556517Y-18541414D02*
X11575565Y-18512842D01*
X11575565Y-18512842D02*
X11585088Y-18493795D01*
X11585088Y-18493795D02*
X11594612Y-18465223D01*
X11594612Y-18465223D02*
X11604136Y-18417604D01*
X11604136Y-18417604D02*
X11604136Y-18379509D01*
X11604136Y-18379509D02*
X11594612Y-18331890D01*
X11594612Y-18331890D02*
X11585088Y-18303318D01*
X11585088Y-18303318D02*
X11575565Y-18284271D01*
X11575565Y-18284271D02*
X11556517Y-18255699D01*
X11556517Y-18255699D02*
X11546993Y-18246176D01*
X11908898Y-18550937D02*
X11899374Y-18541414D01*
X11899374Y-18541414D02*
X11880327Y-18512842D01*
X11880327Y-18512842D02*
X11870803Y-18493795D01*
X11870803Y-18493795D02*
X11861279Y-18465223D01*
X11861279Y-18465223D02*
X11851755Y-18417604D01*
X11851755Y-18417604D02*
X11851755Y-18379509D01*
X11851755Y-18379509D02*
X11861279Y-18331890D01*
X11861279Y-18331890D02*
X11870803Y-18303318D01*
X11870803Y-18303318D02*
X11880327Y-18284271D01*
X11880327Y-18284271D02*
X11899374Y-18255699D01*
X11899374Y-18255699D02*
X11908898Y-18246176D01*
X11985088Y-18341414D02*
X11985088Y-18474747D01*
X11985088Y-18360461D02*
X11994612Y-18350937D01*
X11994612Y-18350937D02*
X12013660Y-18341414D01*
X12013660Y-18341414D02*
X12042231Y-18341414D01*
X12042231Y-18341414D02*
X12061279Y-18350937D01*
X12061279Y-18350937D02*
X12070803Y-18369985D01*
X12070803Y-18369985D02*
X12070803Y-18474747D01*
X12194612Y-18474747D02*
X12175565Y-18465223D01*
X12175565Y-18465223D02*
X12166041Y-18455699D01*
X12166041Y-18455699D02*
X12156517Y-18436652D01*
X12156517Y-18436652D02*
X12156517Y-18379509D01*
X12156517Y-18379509D02*
X12166041Y-18360461D01*
X12166041Y-18360461D02*
X12175565Y-18350937D01*
X12175565Y-18350937D02*
X12194612Y-18341414D01*
X12194612Y-18341414D02*
X12223184Y-18341414D01*
X12223184Y-18341414D02*
X12242231Y-18350937D01*
X12242231Y-18350937D02*
X12251755Y-18360461D01*
X12251755Y-18360461D02*
X12261279Y-18379509D01*
X12261279Y-18379509D02*
X12261279Y-18436652D01*
X12261279Y-18436652D02*
X12251755Y-18455699D01*
X12251755Y-18455699D02*
X12242231Y-18465223D01*
X12242231Y-18465223D02*
X12223184Y-18474747D01*
X12223184Y-18474747D02*
X12194612Y-18474747D01*
X12318422Y-18341414D02*
X12394612Y-18341414D01*
X12346993Y-18274747D02*
X12346993Y-18446176D01*
X12346993Y-18446176D02*
X12356517Y-18465223D01*
X12356517Y-18465223D02*
X12375565Y-18474747D01*
X12375565Y-18474747D02*
X12394612Y-18474747D01*
X12613660Y-18341414D02*
X12613660Y-18541414D01*
X12613660Y-18350937D02*
X12632708Y-18341414D01*
X12632708Y-18341414D02*
X12670803Y-18341414D01*
X12670803Y-18341414D02*
X12689850Y-18350937D01*
X12689850Y-18350937D02*
X12699374Y-18360461D01*
X12699374Y-18360461D02*
X12708898Y-18379509D01*
X12708898Y-18379509D02*
X12708898Y-18436652D01*
X12708898Y-18436652D02*
X12699374Y-18455699D01*
X12699374Y-18455699D02*
X12689850Y-18465223D01*
X12689850Y-18465223D02*
X12670803Y-18474747D01*
X12670803Y-18474747D02*
X12632708Y-18474747D01*
X12632708Y-18474747D02*
X12613660Y-18465223D01*
X12823184Y-18474747D02*
X12804136Y-18465223D01*
X12804136Y-18465223D02*
X12794612Y-18446176D01*
X12794612Y-18446176D02*
X12794612Y-18274747D01*
X12985089Y-18474747D02*
X12985089Y-18369985D01*
X12985089Y-18369985D02*
X12975565Y-18350937D01*
X12975565Y-18350937D02*
X12956517Y-18341414D01*
X12956517Y-18341414D02*
X12918422Y-18341414D01*
X12918422Y-18341414D02*
X12899374Y-18350937D01*
X12985089Y-18465223D02*
X12966041Y-18474747D01*
X12966041Y-18474747D02*
X12918422Y-18474747D01*
X12918422Y-18474747D02*
X12899374Y-18465223D01*
X12899374Y-18465223D02*
X12889850Y-18446176D01*
X12889850Y-18446176D02*
X12889850Y-18427128D01*
X12889850Y-18427128D02*
X12899374Y-18408080D01*
X12899374Y-18408080D02*
X12918422Y-18398557D01*
X12918422Y-18398557D02*
X12966041Y-18398557D01*
X12966041Y-18398557D02*
X12985089Y-18389033D01*
X13051755Y-18341414D02*
X13127946Y-18341414D01*
X13080327Y-18274747D02*
X13080327Y-18446176D01*
X13080327Y-18446176D02*
X13089850Y-18465223D01*
X13089850Y-18465223D02*
X13108898Y-18474747D01*
X13108898Y-18474747D02*
X13127946Y-18474747D01*
X13270803Y-18465223D02*
X13251755Y-18474747D01*
X13251755Y-18474747D02*
X13213660Y-18474747D01*
X13213660Y-18474747D02*
X13194612Y-18465223D01*
X13194612Y-18465223D02*
X13185089Y-18446176D01*
X13185089Y-18446176D02*
X13185089Y-18369985D01*
X13185089Y-18369985D02*
X13194612Y-18350937D01*
X13194612Y-18350937D02*
X13213660Y-18341414D01*
X13213660Y-18341414D02*
X13251755Y-18341414D01*
X13251755Y-18341414D02*
X13270803Y-18350937D01*
X13270803Y-18350937D02*
X13280327Y-18369985D01*
X13280327Y-18369985D02*
X13280327Y-18389033D01*
X13280327Y-18389033D02*
X13185089Y-18408080D01*
X13451755Y-18474747D02*
X13451755Y-18274747D01*
X13451755Y-18465223D02*
X13432708Y-18474747D01*
X13432708Y-18474747D02*
X13394612Y-18474747D01*
X13394612Y-18474747D02*
X13375565Y-18465223D01*
X13375565Y-18465223D02*
X13366041Y-18455699D01*
X13366041Y-18455699D02*
X13356517Y-18436652D01*
X13356517Y-18436652D02*
X13356517Y-18379509D01*
X13356517Y-18379509D02*
X13366041Y-18360461D01*
X13366041Y-18360461D02*
X13375565Y-18350937D01*
X13375565Y-18350937D02*
X13394612Y-18341414D01*
X13394612Y-18341414D02*
X13432708Y-18341414D01*
X13432708Y-18341414D02*
X13451755Y-18350937D01*
X13527946Y-18550937D02*
X13537470Y-18541414D01*
X13537470Y-18541414D02*
X13556517Y-18512842D01*
X13556517Y-18512842D02*
X13566041Y-18493795D01*
X13566041Y-18493795D02*
X13575565Y-18465223D01*
X13575565Y-18465223D02*
X13585089Y-18417604D01*
X13585089Y-18417604D02*
X13585089Y-18379509D01*
X13585089Y-18379509D02*
X13575565Y-18331890D01*
X13575565Y-18331890D02*
X13566041Y-18303318D01*
X13566041Y-18303318D02*
X13556517Y-18284271D01*
X13556517Y-18284271D02*
X13537470Y-18255699D01*
X13537470Y-18255699D02*
X13527946Y-18246176D01*
M02*
