%TF.GenerationSoftware,KiCad,Pcbnew,8.0.3*%
%TF.CreationDate,2025-05-12T21:07:47+02:00*%
%TF.ProjectId,IMU_PCBs,494d555f-5043-4427-932e-6b696361645f,rev?*%
%TF.SameCoordinates,Original*%
%TF.FileFunction,Plated,1,2,PTH,Drill*%
%TF.FilePolarity,Positive*%
%FSLAX46Y46*%
G04 Gerber Fmt 4.6, Leading zero omitted, Abs format (unit mm)*
G04 Created by KiCad (PCBNEW 8.0.3) date 2025-05-12 21:07:47*
%MOMM*%
%LPD*%
G01*
G04 APERTURE LIST*
%TA.AperFunction,ViaDrill*%
%ADD10C,0.200000*%
%TD*%
%TA.AperFunction,ViaDrill*%
%ADD11C,0.250000*%
%TD*%
%TA.AperFunction,ViaDrill*%
%ADD12C,0.260000*%
%TD*%
G04 APERTURE END LIST*
D10*
X74300000Y-158041372D03*
X76710000Y-59351372D03*
X78600000Y-149241372D03*
X79750000Y-66291372D03*
X81030000Y-130321372D03*
X81870000Y-94231372D03*
X81900000Y-74641372D03*
X81950000Y-84121372D03*
X81950000Y-103101372D03*
X81985000Y-122026372D03*
X82040000Y-111271372D03*
X82050000Y-137851372D03*
X100470000Y-90330000D03*
X103570000Y-90880000D03*
X105560000Y-115810000D03*
X106070000Y-89980000D03*
X106160000Y-120010000D03*
X106370000Y-107370000D03*
X107310000Y-119410000D03*
X108020000Y-91530000D03*
X108110000Y-117710000D03*
X110560000Y-120560000D03*
D11*
X102170000Y-103570000D03*
X102670000Y-108770000D03*
X109070000Y-108770000D03*
X109270000Y-103670000D03*
D12*
X73140000Y-155831372D03*
X73990000Y-50281372D03*
X75220000Y-110141372D03*
X76420000Y-109751372D03*
X76430000Y-110631372D03*
X76530000Y-112321372D03*
X76540000Y-100431372D03*
X77230000Y-145371372D03*
X77520000Y-100481372D03*
X77570000Y-113091372D03*
X77700000Y-148401372D03*
X78140000Y-55281372D03*
X78260000Y-63031372D03*
X78350000Y-100491372D03*
X78670000Y-113071372D03*
X78850000Y-109801372D03*
X80560000Y-143271372D03*
X80770000Y-137991372D03*
X81120000Y-68851372D03*
X81380000Y-72391372D03*
X81600000Y-132991372D03*
X81680000Y-105431372D03*
X81720000Y-128441372D03*
X81720000Y-147141372D03*
X81880000Y-124321372D03*
X81900000Y-86861372D03*
X81900000Y-91191372D03*
X81990000Y-81901372D03*
X82210000Y-119351372D03*
X82270000Y-116591372D03*
X82530000Y-101441372D03*
X83080000Y-119321372D03*
X83100000Y-120511372D03*
X83840002Y-70321370D03*
X84180002Y-109571372D03*
X84199998Y-127321370D03*
X84369998Y-89321370D03*
X85160000Y-109571372D03*
X85220000Y-110571372D03*
X97570000Y-91480000D03*
X99620000Y-94830000D03*
X99670000Y-91480000D03*
X99795000Y-93280000D03*
X101920000Y-96730000D03*
X102810000Y-117710000D03*
X103870000Y-105170000D03*
X104560000Y-120510000D03*
X104820000Y-96030000D03*
X108070000Y-89130000D03*
X108270000Y-103270000D03*
X108795000Y-95280000D03*
X108970000Y-92580000D03*
X110170000Y-92680000D03*
X110920000Y-96542500D03*
X113720000Y-95980000D03*
X115320000Y-90230000D03*
X117120000Y-92130000D03*
M02*
