%TF.GenerationSoftware,KiCad,Pcbnew,8.0.3*%
%TF.CreationDate,2025-05-12T21:07:43+02:00*%
%TF.ProjectId,IMU_PCBs,494d555f-5043-4427-932e-6b696361645f,rev?*%
%TF.SameCoordinates,Original*%
%TF.FileFunction,Paste,Bot*%
%TF.FilePolarity,Positive*%
%FSLAX46Y46*%
G04 Gerber Fmt 4.6, Leading zero omitted, Abs format (unit mm)*
G04 Created by KiCad (PCBNEW 8.0.3) date 2025-05-12 21:07:43*
%MOMM*%
%LPD*%
G01*
G04 APERTURE LIST*
G04 Aperture macros list*
%AMRoundRect*
0 Rectangle with rounded corners*
0 $1 Rounding radius*
0 $2 $3 $4 $5 $6 $7 $8 $9 X,Y pos of 4 corners*
0 Add a 4 corners polygon primitive as box body*
4,1,4,$2,$3,$4,$5,$6,$7,$8,$9,$2,$3,0*
0 Add four circle primitives for the rounded corners*
1,1,$1+$1,$2,$3*
1,1,$1+$1,$4,$5*
1,1,$1+$1,$6,$7*
1,1,$1+$1,$8,$9*
0 Add four rect primitives between the rounded corners*
20,1,$1+$1,$2,$3,$4,$5,0*
20,1,$1+$1,$4,$5,$6,$7,0*
20,1,$1+$1,$6,$7,$8,$9,0*
20,1,$1+$1,$8,$9,$2,$3,0*%
G04 Aperture macros list end*
%ADD10R,1.000000X1.000000*%
%ADD11RoundRect,0.237500X-0.250000X-0.237500X0.250000X-0.237500X0.250000X0.237500X-0.250000X0.237500X0*%
%ADD12RoundRect,0.237500X0.250000X0.237500X-0.250000X0.237500X-0.250000X-0.237500X0.250000X-0.237500X0*%
G04 APERTURE END LIST*
D10*
%TO.C,U1*%
X75930000Y-51321370D03*
X74130000Y-51321370D03*
X74130000Y-55621370D03*
X75930000Y-55621370D03*
%TD*%
%TO.C,U3*%
X82930000Y-70321370D03*
X81130000Y-70321370D03*
X81130000Y-74621370D03*
X82930000Y-74621370D03*
%TD*%
D11*
%TO.C,R11*%
X82297500Y-134211372D03*
X84122500Y-134211372D03*
%TD*%
D12*
%TO.C,R5*%
X84012500Y-96211372D03*
X82187500Y-96211372D03*
%TD*%
D10*
%TO.C,U12*%
X75930000Y-155821370D03*
X74130000Y-155821370D03*
X74130000Y-160121370D03*
X75930000Y-160121370D03*
%TD*%
%TO.C,U8*%
X82930000Y-117821370D03*
X81130000Y-117821370D03*
X81130000Y-122121370D03*
X82930000Y-122121370D03*
%TD*%
%TO.C,U11*%
X79430000Y-146321370D03*
X77630000Y-146321370D03*
X77630000Y-150621370D03*
X79430000Y-150621370D03*
%TD*%
D12*
%TO.C,R16*%
X79142500Y-153261372D03*
X77317500Y-153261372D03*
%TD*%
D10*
%TO.C,U7*%
X82930000Y-108321370D03*
X81130000Y-108321370D03*
X81130000Y-112621370D03*
X82930000Y-112621370D03*
%TD*%
D11*
%TO.C,R8*%
X82205000Y-115321372D03*
X84030000Y-115321372D03*
%TD*%
D10*
%TO.C,U2*%
X79430000Y-60821370D03*
X77630000Y-60821370D03*
X77630000Y-65121370D03*
X79430000Y-65121370D03*
%TD*%
%TO.C,U4*%
X82930000Y-79821370D03*
X81130000Y-79821370D03*
X81130000Y-84121370D03*
X82930000Y-84121370D03*
%TD*%
D11*
%TO.C,R1*%
X77045000Y-58151372D03*
X78870000Y-58151372D03*
%TD*%
D10*
%TO.C,U9*%
X82930000Y-127321370D03*
X81130000Y-127321370D03*
X81130000Y-131621370D03*
X82930000Y-131621370D03*
%TD*%
%TO.C,U10*%
X82930000Y-136821370D03*
X81130000Y-136821370D03*
X81130000Y-141121370D03*
X82930000Y-141121370D03*
%TD*%
%TO.C,U6*%
X82930000Y-98821370D03*
X81130000Y-98821370D03*
X81130000Y-103121370D03*
X82930000Y-103121370D03*
%TD*%
%TO.C,U5*%
X82930000Y-89321370D03*
X81130000Y-89321370D03*
X81130000Y-93621370D03*
X82930000Y-93621370D03*
%TD*%
D12*
%TO.C,R2*%
X84012500Y-77171372D03*
X82187500Y-77171372D03*
%TD*%
M02*
