%TF.GenerationSoftware,KiCad,Pcbnew,8.0.3*%
%TF.CreationDate,2025-05-12T21:07:43+02:00*%
%TF.ProjectId,IMU_PCBs,494d555f-5043-4427-932e-6b696361645f,rev?*%
%TF.SameCoordinates,Original*%
%TF.FileFunction,Soldermask,Top*%
%TF.FilePolarity,Negative*%
%FSLAX46Y46*%
G04 Gerber Fmt 4.6, Leading zero omitted, Abs format (unit mm)*
G04 Created by KiCad (PCBNEW 8.0.3) date 2025-05-12 21:07:43*
%MOMM*%
%LPD*%
G01*
G04 APERTURE LIST*
G04 Aperture macros list*
%AMRoundRect*
0 Rectangle with rounded corners*
0 $1 Rounding radius*
0 $2 $3 $4 $5 $6 $7 $8 $9 X,Y pos of 4 corners*
0 Add a 4 corners polygon primitive as box body*
4,1,4,$2,$3,$4,$5,$6,$7,$8,$9,$2,$3,0*
0 Add four circle primitives for the rounded corners*
1,1,$1+$1,$2,$3*
1,1,$1+$1,$4,$5*
1,1,$1+$1,$6,$7*
1,1,$1+$1,$8,$9*
0 Add four rect primitives between the rounded corners*
20,1,$1+$1,$2,$3,$4,$5,0*
20,1,$1+$1,$4,$5,$6,$7,0*
20,1,$1+$1,$6,$7,$8,$9,0*
20,1,$1+$1,$8,$9,$2,$3,0*%
G04 Aperture macros list end*
%ADD10C,0.010000*%
%ADD11C,0.500000*%
%ADD12C,2.200000*%
%ADD13RoundRect,0.155000X-0.155000X0.212500X-0.155000X-0.212500X0.155000X-0.212500X0.155000X0.212500X0*%
%ADD14RoundRect,0.160000X-0.197500X-0.160000X0.197500X-0.160000X0.197500X0.160000X-0.197500X0.160000X0*%
%ADD15R,1.300000X0.300000*%
%ADD16R,2.200000X1.800000*%
%ADD17C,2.100000*%
%ADD18RoundRect,0.225000X-0.225000X-0.250000X0.225000X-0.250000X0.225000X0.250000X-0.225000X0.250000X0*%
%ADD19RoundRect,0.237500X-0.250000X-0.237500X0.250000X-0.237500X0.250000X0.237500X-0.250000X0.237500X0*%
%ADD20RoundRect,0.237500X-0.300000X-0.237500X0.300000X-0.237500X0.300000X0.237500X-0.300000X0.237500X0*%
%ADD21RoundRect,0.237500X0.250000X0.237500X-0.250000X0.237500X-0.250000X-0.237500X0.250000X-0.237500X0*%
%ADD22RoundRect,0.375000X0.375000X-0.875000X0.375000X0.875000X-0.375000X0.875000X-0.375000X-0.875000X0*%
%ADD23RoundRect,0.237500X0.300000X0.237500X-0.300000X0.237500X-0.300000X-0.237500X0.300000X-0.237500X0*%
%ADD24RoundRect,0.150000X-0.150000X0.512500X-0.150000X-0.512500X0.150000X-0.512500X0.150000X0.512500X0*%
%ADD25RoundRect,0.225000X0.225000X0.250000X-0.225000X0.250000X-0.225000X-0.250000X0.225000X-0.250000X0*%
%ADD26RoundRect,0.375000X0.375000X-0.625000X0.375000X0.625000X-0.375000X0.625000X-0.375000X-0.625000X0*%
%ADD27RoundRect,0.225000X-0.250000X0.225000X-0.250000X-0.225000X0.250000X-0.225000X0.250000X0.225000X0*%
%ADD28RoundRect,0.237500X0.237500X-0.300000X0.237500X0.300000X-0.237500X0.300000X-0.237500X-0.300000X0*%
%ADD29RoundRect,0.225000X0.250000X-0.225000X0.250000X0.225000X-0.250000X0.225000X-0.250000X-0.225000X0*%
%ADD30RoundRect,0.075000X0.075000X-0.350000X0.075000X0.350000X-0.075000X0.350000X-0.075000X-0.350000X0*%
%ADD31RoundRect,0.075000X0.350000X0.075000X-0.350000X0.075000X-0.350000X-0.075000X0.350000X-0.075000X0*%
%ADD32RoundRect,0.218750X-0.218750X-0.256250X0.218750X-0.256250X0.218750X0.256250X-0.218750X0.256250X0*%
%ADD33RoundRect,0.375000X-0.375000X0.625000X-0.375000X-0.625000X0.375000X-0.625000X0.375000X0.625000X0*%
%ADD34RoundRect,0.237500X-0.237500X0.250000X-0.237500X-0.250000X0.237500X-0.250000X0.237500X0.250000X0*%
%ADD35RoundRect,0.375000X-0.375000X0.875000X-0.375000X-0.875000X0.375000X-0.875000X0.375000X0.875000X0*%
G04 APERTURE END LIST*
D10*
%TO.C,U1*%
X105338000Y-104696000D02*
X105345000Y-104697000D01*
X105351000Y-104698000D01*
X105357000Y-104699000D01*
X105364000Y-104701000D01*
X105370000Y-104703000D01*
X105376000Y-104706000D01*
X105382000Y-104709000D01*
X105388000Y-104712000D01*
X105393000Y-104715000D01*
X105398000Y-104719000D01*
X105404000Y-104723000D01*
X105409000Y-104727000D01*
X105413000Y-104732000D01*
X105418000Y-104736000D01*
X105422000Y-104741000D01*
X105426000Y-104747000D01*
X105430000Y-104752000D01*
X105433000Y-104758000D01*
X105436000Y-104763000D01*
X105439000Y-104769000D01*
X105442000Y-104775000D01*
X105444000Y-104781000D01*
X105446000Y-104788000D01*
X105447000Y-104794000D01*
X105448000Y-104800000D01*
X105449000Y-104807000D01*
X105450000Y-104813000D01*
X105450000Y-104820000D01*
X105450000Y-105020000D01*
X105450000Y-105027000D01*
X105449000Y-105033000D01*
X105448000Y-105040000D01*
X105447000Y-105046000D01*
X105446000Y-105052000D01*
X105444000Y-105059000D01*
X105442000Y-105065000D01*
X105439000Y-105071000D01*
X105436000Y-105077000D01*
X105433000Y-105082000D01*
X105430000Y-105088000D01*
X105426000Y-105093000D01*
X105422000Y-105099000D01*
X105418000Y-105104000D01*
X105413000Y-105108000D01*
X105409000Y-105113000D01*
X105404000Y-105117000D01*
X105398000Y-105121000D01*
X105393000Y-105125000D01*
X105388000Y-105128000D01*
X105382000Y-105131000D01*
X105376000Y-105134000D01*
X105370000Y-105137000D01*
X105364000Y-105139000D01*
X105357000Y-105141000D01*
X105351000Y-105142000D01*
X105345000Y-105143000D01*
X105338000Y-105144000D01*
X105332000Y-105145000D01*
X105325000Y-105145000D01*
X104885000Y-105145000D01*
X104878000Y-105145000D01*
X104872000Y-105144000D01*
X104865000Y-105143000D01*
X104859000Y-105142000D01*
X104853000Y-105141000D01*
X104846000Y-105139000D01*
X104840000Y-105137000D01*
X104834000Y-105134000D01*
X104828000Y-105131000D01*
X104822000Y-105128000D01*
X104817000Y-105125000D01*
X104812000Y-105121000D01*
X104806000Y-105117000D01*
X104801000Y-105113000D01*
X104797000Y-105108000D01*
X104792000Y-105104000D01*
X104788000Y-105099000D01*
X104784000Y-105093000D01*
X104780000Y-105088000D01*
X104777000Y-105082000D01*
X104774000Y-105077000D01*
X104771000Y-105071000D01*
X104768000Y-105065000D01*
X104766000Y-105059000D01*
X104764000Y-105052000D01*
X104763000Y-105046000D01*
X104762000Y-105040000D01*
X104761000Y-105033000D01*
X104760000Y-105027000D01*
X104760000Y-105020000D01*
X104760000Y-104820000D01*
X104760000Y-104813000D01*
X104761000Y-104807000D01*
X104762000Y-104800000D01*
X104763000Y-104794000D01*
X104764000Y-104788000D01*
X104766000Y-104781000D01*
X104768000Y-104775000D01*
X104771000Y-104769000D01*
X104774000Y-104763000D01*
X104777000Y-104758000D01*
X104780000Y-104752000D01*
X104784000Y-104747000D01*
X104788000Y-104741000D01*
X104792000Y-104736000D01*
X104797000Y-104732000D01*
X104801000Y-104727000D01*
X104806000Y-104723000D01*
X104812000Y-104719000D01*
X104817000Y-104715000D01*
X104822000Y-104712000D01*
X104828000Y-104709000D01*
X104834000Y-104706000D01*
X104840000Y-104703000D01*
X104846000Y-104701000D01*
X104853000Y-104699000D01*
X104859000Y-104698000D01*
X104865000Y-104697000D01*
X104872000Y-104696000D01*
X104878000Y-104695000D01*
X104885000Y-104695000D01*
X105325000Y-104695000D01*
X105332000Y-104695000D01*
X105338000Y-104696000D01*
G36*
X105338000Y-104696000D02*
G01*
X105345000Y-104697000D01*
X105351000Y-104698000D01*
X105357000Y-104699000D01*
X105364000Y-104701000D01*
X105370000Y-104703000D01*
X105376000Y-104706000D01*
X105382000Y-104709000D01*
X105388000Y-104712000D01*
X105393000Y-104715000D01*
X105398000Y-104719000D01*
X105404000Y-104723000D01*
X105409000Y-104727000D01*
X105413000Y-104732000D01*
X105418000Y-104736000D01*
X105422000Y-104741000D01*
X105426000Y-104747000D01*
X105430000Y-104752000D01*
X105433000Y-104758000D01*
X105436000Y-104763000D01*
X105439000Y-104769000D01*
X105442000Y-104775000D01*
X105444000Y-104781000D01*
X105446000Y-104788000D01*
X105447000Y-104794000D01*
X105448000Y-104800000D01*
X105449000Y-104807000D01*
X105450000Y-104813000D01*
X105450000Y-104820000D01*
X105450000Y-105020000D01*
X105450000Y-105027000D01*
X105449000Y-105033000D01*
X105448000Y-105040000D01*
X105447000Y-105046000D01*
X105446000Y-105052000D01*
X105444000Y-105059000D01*
X105442000Y-105065000D01*
X105439000Y-105071000D01*
X105436000Y-105077000D01*
X105433000Y-105082000D01*
X105430000Y-105088000D01*
X105426000Y-105093000D01*
X105422000Y-105099000D01*
X105418000Y-105104000D01*
X105413000Y-105108000D01*
X105409000Y-105113000D01*
X105404000Y-105117000D01*
X105398000Y-105121000D01*
X105393000Y-105125000D01*
X105388000Y-105128000D01*
X105382000Y-105131000D01*
X105376000Y-105134000D01*
X105370000Y-105137000D01*
X105364000Y-105139000D01*
X105357000Y-105141000D01*
X105351000Y-105142000D01*
X105345000Y-105143000D01*
X105338000Y-105144000D01*
X105332000Y-105145000D01*
X105325000Y-105145000D01*
X104885000Y-105145000D01*
X104878000Y-105145000D01*
X104872000Y-105144000D01*
X104865000Y-105143000D01*
X104859000Y-105142000D01*
X104853000Y-105141000D01*
X104846000Y-105139000D01*
X104840000Y-105137000D01*
X104834000Y-105134000D01*
X104828000Y-105131000D01*
X104822000Y-105128000D01*
X104817000Y-105125000D01*
X104812000Y-105121000D01*
X104806000Y-105117000D01*
X104801000Y-105113000D01*
X104797000Y-105108000D01*
X104792000Y-105104000D01*
X104788000Y-105099000D01*
X104784000Y-105093000D01*
X104780000Y-105088000D01*
X104777000Y-105082000D01*
X104774000Y-105077000D01*
X104771000Y-105071000D01*
X104768000Y-105065000D01*
X104766000Y-105059000D01*
X104764000Y-105052000D01*
X104763000Y-105046000D01*
X104762000Y-105040000D01*
X104761000Y-105033000D01*
X104760000Y-105027000D01*
X104760000Y-105020000D01*
X104760000Y-104820000D01*
X104760000Y-104813000D01*
X104761000Y-104807000D01*
X104762000Y-104800000D01*
X104763000Y-104794000D01*
X104764000Y-104788000D01*
X104766000Y-104781000D01*
X104768000Y-104775000D01*
X104771000Y-104769000D01*
X104774000Y-104763000D01*
X104777000Y-104758000D01*
X104780000Y-104752000D01*
X104784000Y-104747000D01*
X104788000Y-104741000D01*
X104792000Y-104736000D01*
X104797000Y-104732000D01*
X104801000Y-104727000D01*
X104806000Y-104723000D01*
X104812000Y-104719000D01*
X104817000Y-104715000D01*
X104822000Y-104712000D01*
X104828000Y-104709000D01*
X104834000Y-104706000D01*
X104840000Y-104703000D01*
X104846000Y-104701000D01*
X104853000Y-104699000D01*
X104859000Y-104698000D01*
X104865000Y-104697000D01*
X104872000Y-104696000D01*
X104878000Y-104695000D01*
X104885000Y-104695000D01*
X105325000Y-104695000D01*
X105332000Y-104695000D01*
X105338000Y-104696000D01*
G37*
X105338000Y-105196000D02*
X105345000Y-105197000D01*
X105351000Y-105198000D01*
X105357000Y-105199000D01*
X105364000Y-105201000D01*
X105370000Y-105203000D01*
X105376000Y-105206000D01*
X105382000Y-105209000D01*
X105388000Y-105212000D01*
X105393000Y-105215000D01*
X105398000Y-105219000D01*
X105404000Y-105223000D01*
X105409000Y-105227000D01*
X105413000Y-105232000D01*
X105418000Y-105236000D01*
X105422000Y-105241000D01*
X105426000Y-105247000D01*
X105430000Y-105252000D01*
X105433000Y-105258000D01*
X105436000Y-105263000D01*
X105439000Y-105269000D01*
X105442000Y-105275000D01*
X105444000Y-105281000D01*
X105446000Y-105288000D01*
X105447000Y-105294000D01*
X105448000Y-105300000D01*
X105449000Y-105307000D01*
X105450000Y-105313000D01*
X105450000Y-105320000D01*
X105450000Y-105520000D01*
X105450000Y-105527000D01*
X105449000Y-105533000D01*
X105448000Y-105540000D01*
X105447000Y-105546000D01*
X105446000Y-105552000D01*
X105444000Y-105559000D01*
X105442000Y-105565000D01*
X105439000Y-105571000D01*
X105436000Y-105577000D01*
X105433000Y-105582000D01*
X105430000Y-105588000D01*
X105426000Y-105593000D01*
X105422000Y-105599000D01*
X105418000Y-105604000D01*
X105413000Y-105608000D01*
X105409000Y-105613000D01*
X105404000Y-105617000D01*
X105398000Y-105621000D01*
X105393000Y-105625000D01*
X105388000Y-105628000D01*
X105382000Y-105631000D01*
X105376000Y-105634000D01*
X105370000Y-105637000D01*
X105364000Y-105639000D01*
X105357000Y-105641000D01*
X105351000Y-105642000D01*
X105345000Y-105643000D01*
X105338000Y-105644000D01*
X105332000Y-105645000D01*
X105325000Y-105645000D01*
X104885000Y-105645000D01*
X104878000Y-105645000D01*
X104872000Y-105644000D01*
X104865000Y-105643000D01*
X104859000Y-105642000D01*
X104853000Y-105641000D01*
X104846000Y-105639000D01*
X104840000Y-105637000D01*
X104834000Y-105634000D01*
X104828000Y-105631000D01*
X104822000Y-105628000D01*
X104817000Y-105625000D01*
X104812000Y-105621000D01*
X104806000Y-105617000D01*
X104801000Y-105613000D01*
X104797000Y-105608000D01*
X104792000Y-105604000D01*
X104788000Y-105599000D01*
X104784000Y-105593000D01*
X104780000Y-105588000D01*
X104777000Y-105582000D01*
X104774000Y-105577000D01*
X104771000Y-105571000D01*
X104768000Y-105565000D01*
X104766000Y-105559000D01*
X104764000Y-105552000D01*
X104763000Y-105546000D01*
X104762000Y-105540000D01*
X104761000Y-105533000D01*
X104760000Y-105527000D01*
X104760000Y-105520000D01*
X104760000Y-105320000D01*
X104760000Y-105313000D01*
X104761000Y-105307000D01*
X104762000Y-105300000D01*
X104763000Y-105294000D01*
X104764000Y-105288000D01*
X104766000Y-105281000D01*
X104768000Y-105275000D01*
X104771000Y-105269000D01*
X104774000Y-105263000D01*
X104777000Y-105258000D01*
X104780000Y-105252000D01*
X104784000Y-105247000D01*
X104788000Y-105241000D01*
X104792000Y-105236000D01*
X104797000Y-105232000D01*
X104801000Y-105227000D01*
X104806000Y-105223000D01*
X104812000Y-105219000D01*
X104817000Y-105215000D01*
X104822000Y-105212000D01*
X104828000Y-105209000D01*
X104834000Y-105206000D01*
X104840000Y-105203000D01*
X104846000Y-105201000D01*
X104853000Y-105199000D01*
X104859000Y-105198000D01*
X104865000Y-105197000D01*
X104872000Y-105196000D01*
X104878000Y-105195000D01*
X104885000Y-105195000D01*
X105325000Y-105195000D01*
X105332000Y-105195000D01*
X105338000Y-105196000D01*
G36*
X105338000Y-105196000D02*
G01*
X105345000Y-105197000D01*
X105351000Y-105198000D01*
X105357000Y-105199000D01*
X105364000Y-105201000D01*
X105370000Y-105203000D01*
X105376000Y-105206000D01*
X105382000Y-105209000D01*
X105388000Y-105212000D01*
X105393000Y-105215000D01*
X105398000Y-105219000D01*
X105404000Y-105223000D01*
X105409000Y-105227000D01*
X105413000Y-105232000D01*
X105418000Y-105236000D01*
X105422000Y-105241000D01*
X105426000Y-105247000D01*
X105430000Y-105252000D01*
X105433000Y-105258000D01*
X105436000Y-105263000D01*
X105439000Y-105269000D01*
X105442000Y-105275000D01*
X105444000Y-105281000D01*
X105446000Y-105288000D01*
X105447000Y-105294000D01*
X105448000Y-105300000D01*
X105449000Y-105307000D01*
X105450000Y-105313000D01*
X105450000Y-105320000D01*
X105450000Y-105520000D01*
X105450000Y-105527000D01*
X105449000Y-105533000D01*
X105448000Y-105540000D01*
X105447000Y-105546000D01*
X105446000Y-105552000D01*
X105444000Y-105559000D01*
X105442000Y-105565000D01*
X105439000Y-105571000D01*
X105436000Y-105577000D01*
X105433000Y-105582000D01*
X105430000Y-105588000D01*
X105426000Y-105593000D01*
X105422000Y-105599000D01*
X105418000Y-105604000D01*
X105413000Y-105608000D01*
X105409000Y-105613000D01*
X105404000Y-105617000D01*
X105398000Y-105621000D01*
X105393000Y-105625000D01*
X105388000Y-105628000D01*
X105382000Y-105631000D01*
X105376000Y-105634000D01*
X105370000Y-105637000D01*
X105364000Y-105639000D01*
X105357000Y-105641000D01*
X105351000Y-105642000D01*
X105345000Y-105643000D01*
X105338000Y-105644000D01*
X105332000Y-105645000D01*
X105325000Y-105645000D01*
X104885000Y-105645000D01*
X104878000Y-105645000D01*
X104872000Y-105644000D01*
X104865000Y-105643000D01*
X104859000Y-105642000D01*
X104853000Y-105641000D01*
X104846000Y-105639000D01*
X104840000Y-105637000D01*
X104834000Y-105634000D01*
X104828000Y-105631000D01*
X104822000Y-105628000D01*
X104817000Y-105625000D01*
X104812000Y-105621000D01*
X104806000Y-105617000D01*
X104801000Y-105613000D01*
X104797000Y-105608000D01*
X104792000Y-105604000D01*
X104788000Y-105599000D01*
X104784000Y-105593000D01*
X104780000Y-105588000D01*
X104777000Y-105582000D01*
X104774000Y-105577000D01*
X104771000Y-105571000D01*
X104768000Y-105565000D01*
X104766000Y-105559000D01*
X104764000Y-105552000D01*
X104763000Y-105546000D01*
X104762000Y-105540000D01*
X104761000Y-105533000D01*
X104760000Y-105527000D01*
X104760000Y-105520000D01*
X104760000Y-105320000D01*
X104760000Y-105313000D01*
X104761000Y-105307000D01*
X104762000Y-105300000D01*
X104763000Y-105294000D01*
X104764000Y-105288000D01*
X104766000Y-105281000D01*
X104768000Y-105275000D01*
X104771000Y-105269000D01*
X104774000Y-105263000D01*
X104777000Y-105258000D01*
X104780000Y-105252000D01*
X104784000Y-105247000D01*
X104788000Y-105241000D01*
X104792000Y-105236000D01*
X104797000Y-105232000D01*
X104801000Y-105227000D01*
X104806000Y-105223000D01*
X104812000Y-105219000D01*
X104817000Y-105215000D01*
X104822000Y-105212000D01*
X104828000Y-105209000D01*
X104834000Y-105206000D01*
X104840000Y-105203000D01*
X104846000Y-105201000D01*
X104853000Y-105199000D01*
X104859000Y-105198000D01*
X104865000Y-105197000D01*
X104872000Y-105196000D01*
X104878000Y-105195000D01*
X104885000Y-105195000D01*
X105325000Y-105195000D01*
X105332000Y-105195000D01*
X105338000Y-105196000D01*
G37*
X105338000Y-105696000D02*
X105345000Y-105697000D01*
X105351000Y-105698000D01*
X105357000Y-105699000D01*
X105364000Y-105701000D01*
X105370000Y-105703000D01*
X105376000Y-105706000D01*
X105382000Y-105709000D01*
X105388000Y-105712000D01*
X105393000Y-105715000D01*
X105398000Y-105719000D01*
X105404000Y-105723000D01*
X105409000Y-105727000D01*
X105413000Y-105732000D01*
X105418000Y-105736000D01*
X105422000Y-105741000D01*
X105426000Y-105747000D01*
X105430000Y-105752000D01*
X105433000Y-105758000D01*
X105436000Y-105763000D01*
X105439000Y-105769000D01*
X105442000Y-105775000D01*
X105444000Y-105781000D01*
X105446000Y-105788000D01*
X105447000Y-105794000D01*
X105448000Y-105800000D01*
X105449000Y-105807000D01*
X105450000Y-105813000D01*
X105450000Y-105820000D01*
X105450000Y-106020000D01*
X105450000Y-106027000D01*
X105449000Y-106033000D01*
X105448000Y-106040000D01*
X105447000Y-106046000D01*
X105446000Y-106052000D01*
X105444000Y-106059000D01*
X105442000Y-106065000D01*
X105439000Y-106071000D01*
X105436000Y-106077000D01*
X105433000Y-106082000D01*
X105430000Y-106088000D01*
X105426000Y-106093000D01*
X105422000Y-106099000D01*
X105418000Y-106104000D01*
X105413000Y-106108000D01*
X105409000Y-106113000D01*
X105404000Y-106117000D01*
X105398000Y-106121000D01*
X105393000Y-106125000D01*
X105388000Y-106128000D01*
X105382000Y-106131000D01*
X105376000Y-106134000D01*
X105370000Y-106137000D01*
X105364000Y-106139000D01*
X105357000Y-106141000D01*
X105351000Y-106142000D01*
X105345000Y-106143000D01*
X105338000Y-106144000D01*
X105332000Y-106145000D01*
X105325000Y-106145000D01*
X104885000Y-106145000D01*
X104878000Y-106145000D01*
X104872000Y-106144000D01*
X104865000Y-106143000D01*
X104859000Y-106142000D01*
X104853000Y-106141000D01*
X104846000Y-106139000D01*
X104840000Y-106137000D01*
X104834000Y-106134000D01*
X104828000Y-106131000D01*
X104822000Y-106128000D01*
X104817000Y-106125000D01*
X104812000Y-106121000D01*
X104806000Y-106117000D01*
X104801000Y-106113000D01*
X104797000Y-106108000D01*
X104792000Y-106104000D01*
X104788000Y-106099000D01*
X104784000Y-106093000D01*
X104780000Y-106088000D01*
X104777000Y-106082000D01*
X104774000Y-106077000D01*
X104771000Y-106071000D01*
X104768000Y-106065000D01*
X104766000Y-106059000D01*
X104764000Y-106052000D01*
X104763000Y-106046000D01*
X104762000Y-106040000D01*
X104761000Y-106033000D01*
X104760000Y-106027000D01*
X104760000Y-106020000D01*
X104760000Y-105820000D01*
X104760000Y-105813000D01*
X104761000Y-105807000D01*
X104762000Y-105800000D01*
X104763000Y-105794000D01*
X104764000Y-105788000D01*
X104766000Y-105781000D01*
X104768000Y-105775000D01*
X104771000Y-105769000D01*
X104774000Y-105763000D01*
X104777000Y-105758000D01*
X104780000Y-105752000D01*
X104784000Y-105747000D01*
X104788000Y-105741000D01*
X104792000Y-105736000D01*
X104797000Y-105732000D01*
X104801000Y-105727000D01*
X104806000Y-105723000D01*
X104812000Y-105719000D01*
X104817000Y-105715000D01*
X104822000Y-105712000D01*
X104828000Y-105709000D01*
X104834000Y-105706000D01*
X104840000Y-105703000D01*
X104846000Y-105701000D01*
X104853000Y-105699000D01*
X104859000Y-105698000D01*
X104865000Y-105697000D01*
X104872000Y-105696000D01*
X104878000Y-105695000D01*
X104885000Y-105695000D01*
X105325000Y-105695000D01*
X105332000Y-105695000D01*
X105338000Y-105696000D01*
G36*
X105338000Y-105696000D02*
G01*
X105345000Y-105697000D01*
X105351000Y-105698000D01*
X105357000Y-105699000D01*
X105364000Y-105701000D01*
X105370000Y-105703000D01*
X105376000Y-105706000D01*
X105382000Y-105709000D01*
X105388000Y-105712000D01*
X105393000Y-105715000D01*
X105398000Y-105719000D01*
X105404000Y-105723000D01*
X105409000Y-105727000D01*
X105413000Y-105732000D01*
X105418000Y-105736000D01*
X105422000Y-105741000D01*
X105426000Y-105747000D01*
X105430000Y-105752000D01*
X105433000Y-105758000D01*
X105436000Y-105763000D01*
X105439000Y-105769000D01*
X105442000Y-105775000D01*
X105444000Y-105781000D01*
X105446000Y-105788000D01*
X105447000Y-105794000D01*
X105448000Y-105800000D01*
X105449000Y-105807000D01*
X105450000Y-105813000D01*
X105450000Y-105820000D01*
X105450000Y-106020000D01*
X105450000Y-106027000D01*
X105449000Y-106033000D01*
X105448000Y-106040000D01*
X105447000Y-106046000D01*
X105446000Y-106052000D01*
X105444000Y-106059000D01*
X105442000Y-106065000D01*
X105439000Y-106071000D01*
X105436000Y-106077000D01*
X105433000Y-106082000D01*
X105430000Y-106088000D01*
X105426000Y-106093000D01*
X105422000Y-106099000D01*
X105418000Y-106104000D01*
X105413000Y-106108000D01*
X105409000Y-106113000D01*
X105404000Y-106117000D01*
X105398000Y-106121000D01*
X105393000Y-106125000D01*
X105388000Y-106128000D01*
X105382000Y-106131000D01*
X105376000Y-106134000D01*
X105370000Y-106137000D01*
X105364000Y-106139000D01*
X105357000Y-106141000D01*
X105351000Y-106142000D01*
X105345000Y-106143000D01*
X105338000Y-106144000D01*
X105332000Y-106145000D01*
X105325000Y-106145000D01*
X104885000Y-106145000D01*
X104878000Y-106145000D01*
X104872000Y-106144000D01*
X104865000Y-106143000D01*
X104859000Y-106142000D01*
X104853000Y-106141000D01*
X104846000Y-106139000D01*
X104840000Y-106137000D01*
X104834000Y-106134000D01*
X104828000Y-106131000D01*
X104822000Y-106128000D01*
X104817000Y-106125000D01*
X104812000Y-106121000D01*
X104806000Y-106117000D01*
X104801000Y-106113000D01*
X104797000Y-106108000D01*
X104792000Y-106104000D01*
X104788000Y-106099000D01*
X104784000Y-106093000D01*
X104780000Y-106088000D01*
X104777000Y-106082000D01*
X104774000Y-106077000D01*
X104771000Y-106071000D01*
X104768000Y-106065000D01*
X104766000Y-106059000D01*
X104764000Y-106052000D01*
X104763000Y-106046000D01*
X104762000Y-106040000D01*
X104761000Y-106033000D01*
X104760000Y-106027000D01*
X104760000Y-106020000D01*
X104760000Y-105820000D01*
X104760000Y-105813000D01*
X104761000Y-105807000D01*
X104762000Y-105800000D01*
X104763000Y-105794000D01*
X104764000Y-105788000D01*
X104766000Y-105781000D01*
X104768000Y-105775000D01*
X104771000Y-105769000D01*
X104774000Y-105763000D01*
X104777000Y-105758000D01*
X104780000Y-105752000D01*
X104784000Y-105747000D01*
X104788000Y-105741000D01*
X104792000Y-105736000D01*
X104797000Y-105732000D01*
X104801000Y-105727000D01*
X104806000Y-105723000D01*
X104812000Y-105719000D01*
X104817000Y-105715000D01*
X104822000Y-105712000D01*
X104828000Y-105709000D01*
X104834000Y-105706000D01*
X104840000Y-105703000D01*
X104846000Y-105701000D01*
X104853000Y-105699000D01*
X104859000Y-105698000D01*
X104865000Y-105697000D01*
X104872000Y-105696000D01*
X104878000Y-105695000D01*
X104885000Y-105695000D01*
X105325000Y-105695000D01*
X105332000Y-105695000D01*
X105338000Y-105696000D01*
G37*
X105338000Y-106196000D02*
X105345000Y-106197000D01*
X105351000Y-106198000D01*
X105357000Y-106199000D01*
X105364000Y-106201000D01*
X105370000Y-106203000D01*
X105376000Y-106206000D01*
X105382000Y-106209000D01*
X105388000Y-106212000D01*
X105393000Y-106215000D01*
X105398000Y-106219000D01*
X105404000Y-106223000D01*
X105409000Y-106227000D01*
X105413000Y-106232000D01*
X105418000Y-106236000D01*
X105422000Y-106241000D01*
X105426000Y-106247000D01*
X105430000Y-106252000D01*
X105433000Y-106258000D01*
X105436000Y-106263000D01*
X105439000Y-106269000D01*
X105442000Y-106275000D01*
X105444000Y-106281000D01*
X105446000Y-106288000D01*
X105447000Y-106294000D01*
X105448000Y-106300000D01*
X105449000Y-106307000D01*
X105450000Y-106313000D01*
X105450000Y-106320000D01*
X105450000Y-106520000D01*
X105450000Y-106527000D01*
X105449000Y-106533000D01*
X105448000Y-106540000D01*
X105447000Y-106546000D01*
X105446000Y-106552000D01*
X105444000Y-106559000D01*
X105442000Y-106565000D01*
X105439000Y-106571000D01*
X105436000Y-106577000D01*
X105433000Y-106582000D01*
X105430000Y-106588000D01*
X105426000Y-106593000D01*
X105422000Y-106599000D01*
X105418000Y-106604000D01*
X105413000Y-106608000D01*
X105409000Y-106613000D01*
X105404000Y-106617000D01*
X105398000Y-106621000D01*
X105393000Y-106625000D01*
X105388000Y-106628000D01*
X105382000Y-106631000D01*
X105376000Y-106634000D01*
X105370000Y-106637000D01*
X105364000Y-106639000D01*
X105357000Y-106641000D01*
X105351000Y-106642000D01*
X105345000Y-106643000D01*
X105338000Y-106644000D01*
X105332000Y-106645000D01*
X105325000Y-106645000D01*
X104885000Y-106645000D01*
X104878000Y-106645000D01*
X104872000Y-106644000D01*
X104865000Y-106643000D01*
X104859000Y-106642000D01*
X104853000Y-106641000D01*
X104846000Y-106639000D01*
X104840000Y-106637000D01*
X104834000Y-106634000D01*
X104828000Y-106631000D01*
X104822000Y-106628000D01*
X104817000Y-106625000D01*
X104812000Y-106621000D01*
X104806000Y-106617000D01*
X104801000Y-106613000D01*
X104797000Y-106608000D01*
X104792000Y-106604000D01*
X104788000Y-106599000D01*
X104784000Y-106593000D01*
X104780000Y-106588000D01*
X104777000Y-106582000D01*
X104774000Y-106577000D01*
X104771000Y-106571000D01*
X104768000Y-106565000D01*
X104766000Y-106559000D01*
X104764000Y-106552000D01*
X104763000Y-106546000D01*
X104762000Y-106540000D01*
X104761000Y-106533000D01*
X104760000Y-106527000D01*
X104760000Y-106520000D01*
X104760000Y-106320000D01*
X104760000Y-106313000D01*
X104761000Y-106307000D01*
X104762000Y-106300000D01*
X104763000Y-106294000D01*
X104764000Y-106288000D01*
X104766000Y-106281000D01*
X104768000Y-106275000D01*
X104771000Y-106269000D01*
X104774000Y-106263000D01*
X104777000Y-106258000D01*
X104780000Y-106252000D01*
X104784000Y-106247000D01*
X104788000Y-106241000D01*
X104792000Y-106236000D01*
X104797000Y-106232000D01*
X104801000Y-106227000D01*
X104806000Y-106223000D01*
X104812000Y-106219000D01*
X104817000Y-106215000D01*
X104822000Y-106212000D01*
X104828000Y-106209000D01*
X104834000Y-106206000D01*
X104840000Y-106203000D01*
X104846000Y-106201000D01*
X104853000Y-106199000D01*
X104859000Y-106198000D01*
X104865000Y-106197000D01*
X104872000Y-106196000D01*
X104878000Y-106195000D01*
X104885000Y-106195000D01*
X105325000Y-106195000D01*
X105332000Y-106195000D01*
X105338000Y-106196000D01*
G36*
X105338000Y-106196000D02*
G01*
X105345000Y-106197000D01*
X105351000Y-106198000D01*
X105357000Y-106199000D01*
X105364000Y-106201000D01*
X105370000Y-106203000D01*
X105376000Y-106206000D01*
X105382000Y-106209000D01*
X105388000Y-106212000D01*
X105393000Y-106215000D01*
X105398000Y-106219000D01*
X105404000Y-106223000D01*
X105409000Y-106227000D01*
X105413000Y-106232000D01*
X105418000Y-106236000D01*
X105422000Y-106241000D01*
X105426000Y-106247000D01*
X105430000Y-106252000D01*
X105433000Y-106258000D01*
X105436000Y-106263000D01*
X105439000Y-106269000D01*
X105442000Y-106275000D01*
X105444000Y-106281000D01*
X105446000Y-106288000D01*
X105447000Y-106294000D01*
X105448000Y-106300000D01*
X105449000Y-106307000D01*
X105450000Y-106313000D01*
X105450000Y-106320000D01*
X105450000Y-106520000D01*
X105450000Y-106527000D01*
X105449000Y-106533000D01*
X105448000Y-106540000D01*
X105447000Y-106546000D01*
X105446000Y-106552000D01*
X105444000Y-106559000D01*
X105442000Y-106565000D01*
X105439000Y-106571000D01*
X105436000Y-106577000D01*
X105433000Y-106582000D01*
X105430000Y-106588000D01*
X105426000Y-106593000D01*
X105422000Y-106599000D01*
X105418000Y-106604000D01*
X105413000Y-106608000D01*
X105409000Y-106613000D01*
X105404000Y-106617000D01*
X105398000Y-106621000D01*
X105393000Y-106625000D01*
X105388000Y-106628000D01*
X105382000Y-106631000D01*
X105376000Y-106634000D01*
X105370000Y-106637000D01*
X105364000Y-106639000D01*
X105357000Y-106641000D01*
X105351000Y-106642000D01*
X105345000Y-106643000D01*
X105338000Y-106644000D01*
X105332000Y-106645000D01*
X105325000Y-106645000D01*
X104885000Y-106645000D01*
X104878000Y-106645000D01*
X104872000Y-106644000D01*
X104865000Y-106643000D01*
X104859000Y-106642000D01*
X104853000Y-106641000D01*
X104846000Y-106639000D01*
X104840000Y-106637000D01*
X104834000Y-106634000D01*
X104828000Y-106631000D01*
X104822000Y-106628000D01*
X104817000Y-106625000D01*
X104812000Y-106621000D01*
X104806000Y-106617000D01*
X104801000Y-106613000D01*
X104797000Y-106608000D01*
X104792000Y-106604000D01*
X104788000Y-106599000D01*
X104784000Y-106593000D01*
X104780000Y-106588000D01*
X104777000Y-106582000D01*
X104774000Y-106577000D01*
X104771000Y-106571000D01*
X104768000Y-106565000D01*
X104766000Y-106559000D01*
X104764000Y-106552000D01*
X104763000Y-106546000D01*
X104762000Y-106540000D01*
X104761000Y-106533000D01*
X104760000Y-106527000D01*
X104760000Y-106520000D01*
X104760000Y-106320000D01*
X104760000Y-106313000D01*
X104761000Y-106307000D01*
X104762000Y-106300000D01*
X104763000Y-106294000D01*
X104764000Y-106288000D01*
X104766000Y-106281000D01*
X104768000Y-106275000D01*
X104771000Y-106269000D01*
X104774000Y-106263000D01*
X104777000Y-106258000D01*
X104780000Y-106252000D01*
X104784000Y-106247000D01*
X104788000Y-106241000D01*
X104792000Y-106236000D01*
X104797000Y-106232000D01*
X104801000Y-106227000D01*
X104806000Y-106223000D01*
X104812000Y-106219000D01*
X104817000Y-106215000D01*
X104822000Y-106212000D01*
X104828000Y-106209000D01*
X104834000Y-106206000D01*
X104840000Y-106203000D01*
X104846000Y-106201000D01*
X104853000Y-106199000D01*
X104859000Y-106198000D01*
X104865000Y-106197000D01*
X104872000Y-106196000D01*
X104878000Y-106195000D01*
X104885000Y-106195000D01*
X105325000Y-106195000D01*
X105332000Y-106195000D01*
X105338000Y-106196000D01*
G37*
X105883000Y-104411000D02*
X105890000Y-104412000D01*
X105896000Y-104413000D01*
X105902000Y-104414000D01*
X105909000Y-104416000D01*
X105915000Y-104418000D01*
X105921000Y-104421000D01*
X105927000Y-104424000D01*
X105932000Y-104427000D01*
X105938000Y-104430000D01*
X105943000Y-104434000D01*
X105949000Y-104438000D01*
X105954000Y-104442000D01*
X105958000Y-104447000D01*
X105963000Y-104451000D01*
X105967000Y-104456000D01*
X105971000Y-104462000D01*
X105975000Y-104467000D01*
X105978000Y-104472000D01*
X105981000Y-104478000D01*
X105984000Y-104484000D01*
X105987000Y-104490000D01*
X105989000Y-104496000D01*
X105991000Y-104503000D01*
X105992000Y-104509000D01*
X105993000Y-104515000D01*
X105994000Y-104522000D01*
X105995000Y-104528000D01*
X105995000Y-104535000D01*
X105995000Y-104975000D01*
X105995000Y-104982000D01*
X105994000Y-104988000D01*
X105993000Y-104995000D01*
X105992000Y-105001000D01*
X105991000Y-105007000D01*
X105989000Y-105014000D01*
X105987000Y-105020000D01*
X105984000Y-105026000D01*
X105981000Y-105032000D01*
X105978000Y-105038000D01*
X105975000Y-105043000D01*
X105971000Y-105048000D01*
X105967000Y-105054000D01*
X105963000Y-105059000D01*
X105958000Y-105063000D01*
X105954000Y-105068000D01*
X105949000Y-105072000D01*
X105943000Y-105076000D01*
X105938000Y-105080000D01*
X105932000Y-105083000D01*
X105927000Y-105086000D01*
X105921000Y-105089000D01*
X105915000Y-105092000D01*
X105909000Y-105094000D01*
X105902000Y-105096000D01*
X105896000Y-105097000D01*
X105890000Y-105098000D01*
X105883000Y-105099000D01*
X105877000Y-105100000D01*
X105870000Y-105100000D01*
X105670000Y-105100000D01*
X105663000Y-105100000D01*
X105657000Y-105099000D01*
X105650000Y-105098000D01*
X105644000Y-105097000D01*
X105638000Y-105096000D01*
X105631000Y-105094000D01*
X105625000Y-105092000D01*
X105619000Y-105089000D01*
X105613000Y-105086000D01*
X105607000Y-105083000D01*
X105602000Y-105080000D01*
X105597000Y-105076000D01*
X105591000Y-105072000D01*
X105586000Y-105068000D01*
X105582000Y-105063000D01*
X105577000Y-105059000D01*
X105573000Y-105054000D01*
X105569000Y-105048000D01*
X105565000Y-105043000D01*
X105562000Y-105038000D01*
X105559000Y-105032000D01*
X105556000Y-105026000D01*
X105553000Y-105020000D01*
X105551000Y-105014000D01*
X105549000Y-105007000D01*
X105548000Y-105001000D01*
X105547000Y-104995000D01*
X105546000Y-104988000D01*
X105545000Y-104982000D01*
X105545000Y-104975000D01*
X105545000Y-104535000D01*
X105545000Y-104528000D01*
X105546000Y-104522000D01*
X105547000Y-104515000D01*
X105548000Y-104509000D01*
X105549000Y-104503000D01*
X105551000Y-104496000D01*
X105553000Y-104490000D01*
X105556000Y-104484000D01*
X105559000Y-104478000D01*
X105562000Y-104472000D01*
X105565000Y-104467000D01*
X105569000Y-104462000D01*
X105573000Y-104456000D01*
X105577000Y-104451000D01*
X105582000Y-104447000D01*
X105586000Y-104442000D01*
X105591000Y-104438000D01*
X105597000Y-104434000D01*
X105602000Y-104430000D01*
X105608000Y-104427000D01*
X105613000Y-104424000D01*
X105619000Y-104421000D01*
X105625000Y-104418000D01*
X105631000Y-104416000D01*
X105638000Y-104414000D01*
X105644000Y-104413000D01*
X105650000Y-104412000D01*
X105657000Y-104411000D01*
X105663000Y-104410000D01*
X105670000Y-104410000D01*
X105870000Y-104410000D01*
X105877000Y-104410000D01*
X105883000Y-104411000D01*
G36*
X105883000Y-104411000D02*
G01*
X105890000Y-104412000D01*
X105896000Y-104413000D01*
X105902000Y-104414000D01*
X105909000Y-104416000D01*
X105915000Y-104418000D01*
X105921000Y-104421000D01*
X105927000Y-104424000D01*
X105932000Y-104427000D01*
X105938000Y-104430000D01*
X105943000Y-104434000D01*
X105949000Y-104438000D01*
X105954000Y-104442000D01*
X105958000Y-104447000D01*
X105963000Y-104451000D01*
X105967000Y-104456000D01*
X105971000Y-104462000D01*
X105975000Y-104467000D01*
X105978000Y-104472000D01*
X105981000Y-104478000D01*
X105984000Y-104484000D01*
X105987000Y-104490000D01*
X105989000Y-104496000D01*
X105991000Y-104503000D01*
X105992000Y-104509000D01*
X105993000Y-104515000D01*
X105994000Y-104522000D01*
X105995000Y-104528000D01*
X105995000Y-104535000D01*
X105995000Y-104975000D01*
X105995000Y-104982000D01*
X105994000Y-104988000D01*
X105993000Y-104995000D01*
X105992000Y-105001000D01*
X105991000Y-105007000D01*
X105989000Y-105014000D01*
X105987000Y-105020000D01*
X105984000Y-105026000D01*
X105981000Y-105032000D01*
X105978000Y-105038000D01*
X105975000Y-105043000D01*
X105971000Y-105048000D01*
X105967000Y-105054000D01*
X105963000Y-105059000D01*
X105958000Y-105063000D01*
X105954000Y-105068000D01*
X105949000Y-105072000D01*
X105943000Y-105076000D01*
X105938000Y-105080000D01*
X105932000Y-105083000D01*
X105927000Y-105086000D01*
X105921000Y-105089000D01*
X105915000Y-105092000D01*
X105909000Y-105094000D01*
X105902000Y-105096000D01*
X105896000Y-105097000D01*
X105890000Y-105098000D01*
X105883000Y-105099000D01*
X105877000Y-105100000D01*
X105870000Y-105100000D01*
X105670000Y-105100000D01*
X105663000Y-105100000D01*
X105657000Y-105099000D01*
X105650000Y-105098000D01*
X105644000Y-105097000D01*
X105638000Y-105096000D01*
X105631000Y-105094000D01*
X105625000Y-105092000D01*
X105619000Y-105089000D01*
X105613000Y-105086000D01*
X105607000Y-105083000D01*
X105602000Y-105080000D01*
X105597000Y-105076000D01*
X105591000Y-105072000D01*
X105586000Y-105068000D01*
X105582000Y-105063000D01*
X105577000Y-105059000D01*
X105573000Y-105054000D01*
X105569000Y-105048000D01*
X105565000Y-105043000D01*
X105562000Y-105038000D01*
X105559000Y-105032000D01*
X105556000Y-105026000D01*
X105553000Y-105020000D01*
X105551000Y-105014000D01*
X105549000Y-105007000D01*
X105548000Y-105001000D01*
X105547000Y-104995000D01*
X105546000Y-104988000D01*
X105545000Y-104982000D01*
X105545000Y-104975000D01*
X105545000Y-104535000D01*
X105545000Y-104528000D01*
X105546000Y-104522000D01*
X105547000Y-104515000D01*
X105548000Y-104509000D01*
X105549000Y-104503000D01*
X105551000Y-104496000D01*
X105553000Y-104490000D01*
X105556000Y-104484000D01*
X105559000Y-104478000D01*
X105562000Y-104472000D01*
X105565000Y-104467000D01*
X105569000Y-104462000D01*
X105573000Y-104456000D01*
X105577000Y-104451000D01*
X105582000Y-104447000D01*
X105586000Y-104442000D01*
X105591000Y-104438000D01*
X105597000Y-104434000D01*
X105602000Y-104430000D01*
X105608000Y-104427000D01*
X105613000Y-104424000D01*
X105619000Y-104421000D01*
X105625000Y-104418000D01*
X105631000Y-104416000D01*
X105638000Y-104414000D01*
X105644000Y-104413000D01*
X105650000Y-104412000D01*
X105657000Y-104411000D01*
X105663000Y-104410000D01*
X105670000Y-104410000D01*
X105870000Y-104410000D01*
X105877000Y-104410000D01*
X105883000Y-104411000D01*
G37*
X105883000Y-106241000D02*
X105890000Y-106242000D01*
X105896000Y-106243000D01*
X105902000Y-106244000D01*
X105909000Y-106246000D01*
X105915000Y-106248000D01*
X105921000Y-106251000D01*
X105927000Y-106254000D01*
X105932000Y-106257000D01*
X105938000Y-106260000D01*
X105943000Y-106264000D01*
X105949000Y-106268000D01*
X105954000Y-106272000D01*
X105958000Y-106277000D01*
X105963000Y-106281000D01*
X105967000Y-106286000D01*
X105971000Y-106292000D01*
X105975000Y-106297000D01*
X105978000Y-106302000D01*
X105981000Y-106308000D01*
X105984000Y-106314000D01*
X105987000Y-106320000D01*
X105989000Y-106326000D01*
X105991000Y-106333000D01*
X105992000Y-106339000D01*
X105993000Y-106345000D01*
X105994000Y-106352000D01*
X105995000Y-106358000D01*
X105995000Y-106365000D01*
X105995000Y-106805000D01*
X105995000Y-106812000D01*
X105994000Y-106818000D01*
X105993000Y-106825000D01*
X105992000Y-106831000D01*
X105991000Y-106837000D01*
X105989000Y-106844000D01*
X105987000Y-106850000D01*
X105984000Y-106856000D01*
X105981000Y-106862000D01*
X105978000Y-106868000D01*
X105975000Y-106873000D01*
X105971000Y-106878000D01*
X105967000Y-106884000D01*
X105963000Y-106889000D01*
X105958000Y-106893000D01*
X105954000Y-106898000D01*
X105949000Y-106902000D01*
X105943000Y-106906000D01*
X105938000Y-106910000D01*
X105932000Y-106913000D01*
X105927000Y-106916000D01*
X105921000Y-106919000D01*
X105915000Y-106922000D01*
X105909000Y-106924000D01*
X105902000Y-106926000D01*
X105896000Y-106927000D01*
X105890000Y-106928000D01*
X105883000Y-106929000D01*
X105877000Y-106930000D01*
X105870000Y-106930000D01*
X105670000Y-106930000D01*
X105663000Y-106930000D01*
X105657000Y-106929000D01*
X105650000Y-106928000D01*
X105644000Y-106927000D01*
X105638000Y-106926000D01*
X105631000Y-106924000D01*
X105625000Y-106922000D01*
X105619000Y-106919000D01*
X105613000Y-106916000D01*
X105607000Y-106913000D01*
X105602000Y-106910000D01*
X105597000Y-106906000D01*
X105591000Y-106902000D01*
X105586000Y-106898000D01*
X105582000Y-106893000D01*
X105577000Y-106889000D01*
X105573000Y-106884000D01*
X105569000Y-106878000D01*
X105565000Y-106873000D01*
X105562000Y-106868000D01*
X105559000Y-106862000D01*
X105556000Y-106856000D01*
X105553000Y-106850000D01*
X105551000Y-106844000D01*
X105549000Y-106837000D01*
X105548000Y-106831000D01*
X105547000Y-106825000D01*
X105546000Y-106818000D01*
X105545000Y-106812000D01*
X105545000Y-106805000D01*
X105545000Y-106365000D01*
X105545000Y-106358000D01*
X105546000Y-106352000D01*
X105547000Y-106345000D01*
X105548000Y-106339000D01*
X105549000Y-106333000D01*
X105551000Y-106326000D01*
X105553000Y-106320000D01*
X105556000Y-106314000D01*
X105559000Y-106308000D01*
X105562000Y-106302000D01*
X105565000Y-106297000D01*
X105569000Y-106292000D01*
X105573000Y-106286000D01*
X105577000Y-106281000D01*
X105582000Y-106277000D01*
X105586000Y-106272000D01*
X105591000Y-106268000D01*
X105597000Y-106264000D01*
X105602000Y-106260000D01*
X105608000Y-106257000D01*
X105613000Y-106254000D01*
X105619000Y-106251000D01*
X105625000Y-106248000D01*
X105631000Y-106246000D01*
X105638000Y-106244000D01*
X105644000Y-106243000D01*
X105650000Y-106242000D01*
X105657000Y-106241000D01*
X105663000Y-106240000D01*
X105670000Y-106240000D01*
X105870000Y-106240000D01*
X105877000Y-106240000D01*
X105883000Y-106241000D01*
G36*
X105883000Y-106241000D02*
G01*
X105890000Y-106242000D01*
X105896000Y-106243000D01*
X105902000Y-106244000D01*
X105909000Y-106246000D01*
X105915000Y-106248000D01*
X105921000Y-106251000D01*
X105927000Y-106254000D01*
X105932000Y-106257000D01*
X105938000Y-106260000D01*
X105943000Y-106264000D01*
X105949000Y-106268000D01*
X105954000Y-106272000D01*
X105958000Y-106277000D01*
X105963000Y-106281000D01*
X105967000Y-106286000D01*
X105971000Y-106292000D01*
X105975000Y-106297000D01*
X105978000Y-106302000D01*
X105981000Y-106308000D01*
X105984000Y-106314000D01*
X105987000Y-106320000D01*
X105989000Y-106326000D01*
X105991000Y-106333000D01*
X105992000Y-106339000D01*
X105993000Y-106345000D01*
X105994000Y-106352000D01*
X105995000Y-106358000D01*
X105995000Y-106365000D01*
X105995000Y-106805000D01*
X105995000Y-106812000D01*
X105994000Y-106818000D01*
X105993000Y-106825000D01*
X105992000Y-106831000D01*
X105991000Y-106837000D01*
X105989000Y-106844000D01*
X105987000Y-106850000D01*
X105984000Y-106856000D01*
X105981000Y-106862000D01*
X105978000Y-106868000D01*
X105975000Y-106873000D01*
X105971000Y-106878000D01*
X105967000Y-106884000D01*
X105963000Y-106889000D01*
X105958000Y-106893000D01*
X105954000Y-106898000D01*
X105949000Y-106902000D01*
X105943000Y-106906000D01*
X105938000Y-106910000D01*
X105932000Y-106913000D01*
X105927000Y-106916000D01*
X105921000Y-106919000D01*
X105915000Y-106922000D01*
X105909000Y-106924000D01*
X105902000Y-106926000D01*
X105896000Y-106927000D01*
X105890000Y-106928000D01*
X105883000Y-106929000D01*
X105877000Y-106930000D01*
X105870000Y-106930000D01*
X105670000Y-106930000D01*
X105663000Y-106930000D01*
X105657000Y-106929000D01*
X105650000Y-106928000D01*
X105644000Y-106927000D01*
X105638000Y-106926000D01*
X105631000Y-106924000D01*
X105625000Y-106922000D01*
X105619000Y-106919000D01*
X105613000Y-106916000D01*
X105607000Y-106913000D01*
X105602000Y-106910000D01*
X105597000Y-106906000D01*
X105591000Y-106902000D01*
X105586000Y-106898000D01*
X105582000Y-106893000D01*
X105577000Y-106889000D01*
X105573000Y-106884000D01*
X105569000Y-106878000D01*
X105565000Y-106873000D01*
X105562000Y-106868000D01*
X105559000Y-106862000D01*
X105556000Y-106856000D01*
X105553000Y-106850000D01*
X105551000Y-106844000D01*
X105549000Y-106837000D01*
X105548000Y-106831000D01*
X105547000Y-106825000D01*
X105546000Y-106818000D01*
X105545000Y-106812000D01*
X105545000Y-106805000D01*
X105545000Y-106365000D01*
X105545000Y-106358000D01*
X105546000Y-106352000D01*
X105547000Y-106345000D01*
X105548000Y-106339000D01*
X105549000Y-106333000D01*
X105551000Y-106326000D01*
X105553000Y-106320000D01*
X105556000Y-106314000D01*
X105559000Y-106308000D01*
X105562000Y-106302000D01*
X105565000Y-106297000D01*
X105569000Y-106292000D01*
X105573000Y-106286000D01*
X105577000Y-106281000D01*
X105582000Y-106277000D01*
X105586000Y-106272000D01*
X105591000Y-106268000D01*
X105597000Y-106264000D01*
X105602000Y-106260000D01*
X105608000Y-106257000D01*
X105613000Y-106254000D01*
X105619000Y-106251000D01*
X105625000Y-106248000D01*
X105631000Y-106246000D01*
X105638000Y-106244000D01*
X105644000Y-106243000D01*
X105650000Y-106242000D01*
X105657000Y-106241000D01*
X105663000Y-106240000D01*
X105670000Y-106240000D01*
X105870000Y-106240000D01*
X105877000Y-106240000D01*
X105883000Y-106241000D01*
G37*
X106383000Y-104411000D02*
X106390000Y-104412000D01*
X106396000Y-104413000D01*
X106402000Y-104414000D01*
X106409000Y-104416000D01*
X106415000Y-104418000D01*
X106421000Y-104421000D01*
X106427000Y-104424000D01*
X106433000Y-104427000D01*
X106438000Y-104430000D01*
X106443000Y-104434000D01*
X106449000Y-104438000D01*
X106454000Y-104442000D01*
X106458000Y-104447000D01*
X106463000Y-104451000D01*
X106467000Y-104456000D01*
X106471000Y-104462000D01*
X106475000Y-104467000D01*
X106478000Y-104472000D01*
X106481000Y-104478000D01*
X106484000Y-104484000D01*
X106487000Y-104490000D01*
X106489000Y-104496000D01*
X106491000Y-104503000D01*
X106492000Y-104509000D01*
X106493000Y-104515000D01*
X106494000Y-104522000D01*
X106495000Y-104528000D01*
X106495000Y-104535000D01*
X106495000Y-104975000D01*
X106495000Y-104982000D01*
X106494000Y-104988000D01*
X106493000Y-104995000D01*
X106492000Y-105001000D01*
X106491000Y-105007000D01*
X106489000Y-105014000D01*
X106487000Y-105020000D01*
X106484000Y-105026000D01*
X106481000Y-105032000D01*
X106478000Y-105038000D01*
X106475000Y-105043000D01*
X106471000Y-105048000D01*
X106467000Y-105054000D01*
X106463000Y-105059000D01*
X106458000Y-105063000D01*
X106454000Y-105068000D01*
X106449000Y-105072000D01*
X106443000Y-105076000D01*
X106438000Y-105080000D01*
X106433000Y-105083000D01*
X106427000Y-105086000D01*
X106421000Y-105089000D01*
X106415000Y-105092000D01*
X106409000Y-105094000D01*
X106402000Y-105096000D01*
X106396000Y-105097000D01*
X106390000Y-105098000D01*
X106383000Y-105099000D01*
X106377000Y-105100000D01*
X106370000Y-105100000D01*
X106170000Y-105100000D01*
X106163000Y-105100000D01*
X106157000Y-105099000D01*
X106150000Y-105098000D01*
X106144000Y-105097000D01*
X106138000Y-105096000D01*
X106131000Y-105094000D01*
X106125000Y-105092000D01*
X106119000Y-105089000D01*
X106113000Y-105086000D01*
X106107000Y-105083000D01*
X106102000Y-105080000D01*
X106097000Y-105076000D01*
X106091000Y-105072000D01*
X106086000Y-105068000D01*
X106082000Y-105063000D01*
X106077000Y-105059000D01*
X106073000Y-105054000D01*
X106069000Y-105048000D01*
X106065000Y-105043000D01*
X106062000Y-105038000D01*
X106059000Y-105032000D01*
X106056000Y-105026000D01*
X106053000Y-105020000D01*
X106051000Y-105014000D01*
X106049000Y-105007000D01*
X106048000Y-105001000D01*
X106047000Y-104995000D01*
X106046000Y-104988000D01*
X106045000Y-104982000D01*
X106045000Y-104975000D01*
X106045000Y-104535000D01*
X106045000Y-104528000D01*
X106046000Y-104522000D01*
X106047000Y-104515000D01*
X106048000Y-104509000D01*
X106049000Y-104503000D01*
X106051000Y-104496000D01*
X106053000Y-104490000D01*
X106056000Y-104484000D01*
X106059000Y-104478000D01*
X106062000Y-104472000D01*
X106065000Y-104467000D01*
X106069000Y-104462000D01*
X106073000Y-104456000D01*
X106077000Y-104451000D01*
X106082000Y-104447000D01*
X106086000Y-104442000D01*
X106091000Y-104438000D01*
X106097000Y-104434000D01*
X106102000Y-104430000D01*
X106108000Y-104427000D01*
X106113000Y-104424000D01*
X106119000Y-104421000D01*
X106125000Y-104418000D01*
X106131000Y-104416000D01*
X106138000Y-104414000D01*
X106144000Y-104413000D01*
X106150000Y-104412000D01*
X106157000Y-104411000D01*
X106163000Y-104410000D01*
X106170000Y-104410000D01*
X106370000Y-104410000D01*
X106377000Y-104410000D01*
X106383000Y-104411000D01*
G36*
X106383000Y-104411000D02*
G01*
X106390000Y-104412000D01*
X106396000Y-104413000D01*
X106402000Y-104414000D01*
X106409000Y-104416000D01*
X106415000Y-104418000D01*
X106421000Y-104421000D01*
X106427000Y-104424000D01*
X106433000Y-104427000D01*
X106438000Y-104430000D01*
X106443000Y-104434000D01*
X106449000Y-104438000D01*
X106454000Y-104442000D01*
X106458000Y-104447000D01*
X106463000Y-104451000D01*
X106467000Y-104456000D01*
X106471000Y-104462000D01*
X106475000Y-104467000D01*
X106478000Y-104472000D01*
X106481000Y-104478000D01*
X106484000Y-104484000D01*
X106487000Y-104490000D01*
X106489000Y-104496000D01*
X106491000Y-104503000D01*
X106492000Y-104509000D01*
X106493000Y-104515000D01*
X106494000Y-104522000D01*
X106495000Y-104528000D01*
X106495000Y-104535000D01*
X106495000Y-104975000D01*
X106495000Y-104982000D01*
X106494000Y-104988000D01*
X106493000Y-104995000D01*
X106492000Y-105001000D01*
X106491000Y-105007000D01*
X106489000Y-105014000D01*
X106487000Y-105020000D01*
X106484000Y-105026000D01*
X106481000Y-105032000D01*
X106478000Y-105038000D01*
X106475000Y-105043000D01*
X106471000Y-105048000D01*
X106467000Y-105054000D01*
X106463000Y-105059000D01*
X106458000Y-105063000D01*
X106454000Y-105068000D01*
X106449000Y-105072000D01*
X106443000Y-105076000D01*
X106438000Y-105080000D01*
X106433000Y-105083000D01*
X106427000Y-105086000D01*
X106421000Y-105089000D01*
X106415000Y-105092000D01*
X106409000Y-105094000D01*
X106402000Y-105096000D01*
X106396000Y-105097000D01*
X106390000Y-105098000D01*
X106383000Y-105099000D01*
X106377000Y-105100000D01*
X106370000Y-105100000D01*
X106170000Y-105100000D01*
X106163000Y-105100000D01*
X106157000Y-105099000D01*
X106150000Y-105098000D01*
X106144000Y-105097000D01*
X106138000Y-105096000D01*
X106131000Y-105094000D01*
X106125000Y-105092000D01*
X106119000Y-105089000D01*
X106113000Y-105086000D01*
X106107000Y-105083000D01*
X106102000Y-105080000D01*
X106097000Y-105076000D01*
X106091000Y-105072000D01*
X106086000Y-105068000D01*
X106082000Y-105063000D01*
X106077000Y-105059000D01*
X106073000Y-105054000D01*
X106069000Y-105048000D01*
X106065000Y-105043000D01*
X106062000Y-105038000D01*
X106059000Y-105032000D01*
X106056000Y-105026000D01*
X106053000Y-105020000D01*
X106051000Y-105014000D01*
X106049000Y-105007000D01*
X106048000Y-105001000D01*
X106047000Y-104995000D01*
X106046000Y-104988000D01*
X106045000Y-104982000D01*
X106045000Y-104975000D01*
X106045000Y-104535000D01*
X106045000Y-104528000D01*
X106046000Y-104522000D01*
X106047000Y-104515000D01*
X106048000Y-104509000D01*
X106049000Y-104503000D01*
X106051000Y-104496000D01*
X106053000Y-104490000D01*
X106056000Y-104484000D01*
X106059000Y-104478000D01*
X106062000Y-104472000D01*
X106065000Y-104467000D01*
X106069000Y-104462000D01*
X106073000Y-104456000D01*
X106077000Y-104451000D01*
X106082000Y-104447000D01*
X106086000Y-104442000D01*
X106091000Y-104438000D01*
X106097000Y-104434000D01*
X106102000Y-104430000D01*
X106108000Y-104427000D01*
X106113000Y-104424000D01*
X106119000Y-104421000D01*
X106125000Y-104418000D01*
X106131000Y-104416000D01*
X106138000Y-104414000D01*
X106144000Y-104413000D01*
X106150000Y-104412000D01*
X106157000Y-104411000D01*
X106163000Y-104410000D01*
X106170000Y-104410000D01*
X106370000Y-104410000D01*
X106377000Y-104410000D01*
X106383000Y-104411000D01*
G37*
X106383000Y-106241000D02*
X106390000Y-106242000D01*
X106396000Y-106243000D01*
X106402000Y-106244000D01*
X106409000Y-106246000D01*
X106415000Y-106248000D01*
X106421000Y-106251000D01*
X106427000Y-106254000D01*
X106433000Y-106257000D01*
X106438000Y-106260000D01*
X106443000Y-106264000D01*
X106449000Y-106268000D01*
X106454000Y-106272000D01*
X106458000Y-106277000D01*
X106463000Y-106281000D01*
X106467000Y-106286000D01*
X106471000Y-106292000D01*
X106475000Y-106297000D01*
X106478000Y-106302000D01*
X106481000Y-106308000D01*
X106484000Y-106314000D01*
X106487000Y-106320000D01*
X106489000Y-106326000D01*
X106491000Y-106333000D01*
X106492000Y-106339000D01*
X106493000Y-106345000D01*
X106494000Y-106352000D01*
X106495000Y-106358000D01*
X106495000Y-106365000D01*
X106495000Y-106805000D01*
X106495000Y-106812000D01*
X106494000Y-106818000D01*
X106493000Y-106825000D01*
X106492000Y-106831000D01*
X106491000Y-106837000D01*
X106489000Y-106844000D01*
X106487000Y-106850000D01*
X106484000Y-106856000D01*
X106481000Y-106862000D01*
X106478000Y-106868000D01*
X106475000Y-106873000D01*
X106471000Y-106878000D01*
X106467000Y-106884000D01*
X106463000Y-106889000D01*
X106458000Y-106893000D01*
X106454000Y-106898000D01*
X106449000Y-106902000D01*
X106443000Y-106906000D01*
X106438000Y-106910000D01*
X106433000Y-106913000D01*
X106427000Y-106916000D01*
X106421000Y-106919000D01*
X106415000Y-106922000D01*
X106409000Y-106924000D01*
X106402000Y-106926000D01*
X106396000Y-106927000D01*
X106390000Y-106928000D01*
X106383000Y-106929000D01*
X106377000Y-106930000D01*
X106370000Y-106930000D01*
X106170000Y-106930000D01*
X106163000Y-106930000D01*
X106157000Y-106929000D01*
X106150000Y-106928000D01*
X106144000Y-106927000D01*
X106138000Y-106926000D01*
X106131000Y-106924000D01*
X106125000Y-106922000D01*
X106119000Y-106919000D01*
X106113000Y-106916000D01*
X106107000Y-106913000D01*
X106102000Y-106910000D01*
X106097000Y-106906000D01*
X106091000Y-106902000D01*
X106086000Y-106898000D01*
X106082000Y-106893000D01*
X106077000Y-106889000D01*
X106073000Y-106884000D01*
X106069000Y-106878000D01*
X106065000Y-106873000D01*
X106062000Y-106868000D01*
X106059000Y-106862000D01*
X106056000Y-106856000D01*
X106053000Y-106850000D01*
X106051000Y-106844000D01*
X106049000Y-106837000D01*
X106048000Y-106831000D01*
X106047000Y-106825000D01*
X106046000Y-106818000D01*
X106045000Y-106812000D01*
X106045000Y-106805000D01*
X106045000Y-106365000D01*
X106045000Y-106358000D01*
X106046000Y-106352000D01*
X106047000Y-106345000D01*
X106048000Y-106339000D01*
X106049000Y-106333000D01*
X106051000Y-106326000D01*
X106053000Y-106320000D01*
X106056000Y-106314000D01*
X106059000Y-106308000D01*
X106062000Y-106302000D01*
X106065000Y-106297000D01*
X106069000Y-106292000D01*
X106073000Y-106286000D01*
X106077000Y-106281000D01*
X106082000Y-106277000D01*
X106086000Y-106272000D01*
X106091000Y-106268000D01*
X106097000Y-106264000D01*
X106102000Y-106260000D01*
X106108000Y-106257000D01*
X106113000Y-106254000D01*
X106119000Y-106251000D01*
X106125000Y-106248000D01*
X106131000Y-106246000D01*
X106138000Y-106244000D01*
X106144000Y-106243000D01*
X106150000Y-106242000D01*
X106157000Y-106241000D01*
X106163000Y-106240000D01*
X106170000Y-106240000D01*
X106370000Y-106240000D01*
X106377000Y-106240000D01*
X106383000Y-106241000D01*
G36*
X106383000Y-106241000D02*
G01*
X106390000Y-106242000D01*
X106396000Y-106243000D01*
X106402000Y-106244000D01*
X106409000Y-106246000D01*
X106415000Y-106248000D01*
X106421000Y-106251000D01*
X106427000Y-106254000D01*
X106433000Y-106257000D01*
X106438000Y-106260000D01*
X106443000Y-106264000D01*
X106449000Y-106268000D01*
X106454000Y-106272000D01*
X106458000Y-106277000D01*
X106463000Y-106281000D01*
X106467000Y-106286000D01*
X106471000Y-106292000D01*
X106475000Y-106297000D01*
X106478000Y-106302000D01*
X106481000Y-106308000D01*
X106484000Y-106314000D01*
X106487000Y-106320000D01*
X106489000Y-106326000D01*
X106491000Y-106333000D01*
X106492000Y-106339000D01*
X106493000Y-106345000D01*
X106494000Y-106352000D01*
X106495000Y-106358000D01*
X106495000Y-106365000D01*
X106495000Y-106805000D01*
X106495000Y-106812000D01*
X106494000Y-106818000D01*
X106493000Y-106825000D01*
X106492000Y-106831000D01*
X106491000Y-106837000D01*
X106489000Y-106844000D01*
X106487000Y-106850000D01*
X106484000Y-106856000D01*
X106481000Y-106862000D01*
X106478000Y-106868000D01*
X106475000Y-106873000D01*
X106471000Y-106878000D01*
X106467000Y-106884000D01*
X106463000Y-106889000D01*
X106458000Y-106893000D01*
X106454000Y-106898000D01*
X106449000Y-106902000D01*
X106443000Y-106906000D01*
X106438000Y-106910000D01*
X106433000Y-106913000D01*
X106427000Y-106916000D01*
X106421000Y-106919000D01*
X106415000Y-106922000D01*
X106409000Y-106924000D01*
X106402000Y-106926000D01*
X106396000Y-106927000D01*
X106390000Y-106928000D01*
X106383000Y-106929000D01*
X106377000Y-106930000D01*
X106370000Y-106930000D01*
X106170000Y-106930000D01*
X106163000Y-106930000D01*
X106157000Y-106929000D01*
X106150000Y-106928000D01*
X106144000Y-106927000D01*
X106138000Y-106926000D01*
X106131000Y-106924000D01*
X106125000Y-106922000D01*
X106119000Y-106919000D01*
X106113000Y-106916000D01*
X106107000Y-106913000D01*
X106102000Y-106910000D01*
X106097000Y-106906000D01*
X106091000Y-106902000D01*
X106086000Y-106898000D01*
X106082000Y-106893000D01*
X106077000Y-106889000D01*
X106073000Y-106884000D01*
X106069000Y-106878000D01*
X106065000Y-106873000D01*
X106062000Y-106868000D01*
X106059000Y-106862000D01*
X106056000Y-106856000D01*
X106053000Y-106850000D01*
X106051000Y-106844000D01*
X106049000Y-106837000D01*
X106048000Y-106831000D01*
X106047000Y-106825000D01*
X106046000Y-106818000D01*
X106045000Y-106812000D01*
X106045000Y-106805000D01*
X106045000Y-106365000D01*
X106045000Y-106358000D01*
X106046000Y-106352000D01*
X106047000Y-106345000D01*
X106048000Y-106339000D01*
X106049000Y-106333000D01*
X106051000Y-106326000D01*
X106053000Y-106320000D01*
X106056000Y-106314000D01*
X106059000Y-106308000D01*
X106062000Y-106302000D01*
X106065000Y-106297000D01*
X106069000Y-106292000D01*
X106073000Y-106286000D01*
X106077000Y-106281000D01*
X106082000Y-106277000D01*
X106086000Y-106272000D01*
X106091000Y-106268000D01*
X106097000Y-106264000D01*
X106102000Y-106260000D01*
X106108000Y-106257000D01*
X106113000Y-106254000D01*
X106119000Y-106251000D01*
X106125000Y-106248000D01*
X106131000Y-106246000D01*
X106138000Y-106244000D01*
X106144000Y-106243000D01*
X106150000Y-106242000D01*
X106157000Y-106241000D01*
X106163000Y-106240000D01*
X106170000Y-106240000D01*
X106370000Y-106240000D01*
X106377000Y-106240000D01*
X106383000Y-106241000D01*
G37*
X106883000Y-104411000D02*
X106890000Y-104412000D01*
X106896000Y-104413000D01*
X106902000Y-104414000D01*
X106909000Y-104416000D01*
X106915000Y-104418000D01*
X106921000Y-104421000D01*
X106927000Y-104424000D01*
X106932000Y-104427000D01*
X106938000Y-104430000D01*
X106943000Y-104434000D01*
X106949000Y-104438000D01*
X106954000Y-104442000D01*
X106958000Y-104447000D01*
X106963000Y-104451000D01*
X106967000Y-104456000D01*
X106971000Y-104462000D01*
X106975000Y-104467000D01*
X106978000Y-104472000D01*
X106981000Y-104478000D01*
X106984000Y-104484000D01*
X106987000Y-104490000D01*
X106989000Y-104496000D01*
X106991000Y-104503000D01*
X106992000Y-104509000D01*
X106993000Y-104515000D01*
X106994000Y-104522000D01*
X106995000Y-104528000D01*
X106995000Y-104535000D01*
X106995000Y-104975000D01*
X106995000Y-104982000D01*
X106994000Y-104988000D01*
X106993000Y-104995000D01*
X106992000Y-105001000D01*
X106991000Y-105007000D01*
X106989000Y-105014000D01*
X106987000Y-105020000D01*
X106984000Y-105026000D01*
X106981000Y-105032000D01*
X106978000Y-105038000D01*
X106975000Y-105043000D01*
X106971000Y-105048000D01*
X106967000Y-105054000D01*
X106963000Y-105059000D01*
X106958000Y-105063000D01*
X106954000Y-105068000D01*
X106949000Y-105072000D01*
X106943000Y-105076000D01*
X106938000Y-105080000D01*
X106932000Y-105083000D01*
X106927000Y-105086000D01*
X106921000Y-105089000D01*
X106915000Y-105092000D01*
X106909000Y-105094000D01*
X106902000Y-105096000D01*
X106896000Y-105097000D01*
X106890000Y-105098000D01*
X106883000Y-105099000D01*
X106877000Y-105100000D01*
X106870000Y-105100000D01*
X106670000Y-105100000D01*
X106663000Y-105100000D01*
X106657000Y-105099000D01*
X106650000Y-105098000D01*
X106644000Y-105097000D01*
X106638000Y-105096000D01*
X106631000Y-105094000D01*
X106625000Y-105092000D01*
X106619000Y-105089000D01*
X106613000Y-105086000D01*
X106607000Y-105083000D01*
X106602000Y-105080000D01*
X106597000Y-105076000D01*
X106591000Y-105072000D01*
X106586000Y-105068000D01*
X106582000Y-105063000D01*
X106577000Y-105059000D01*
X106573000Y-105054000D01*
X106569000Y-105048000D01*
X106565000Y-105043000D01*
X106562000Y-105038000D01*
X106559000Y-105032000D01*
X106556000Y-105026000D01*
X106553000Y-105020000D01*
X106551000Y-105014000D01*
X106549000Y-105007000D01*
X106548000Y-105001000D01*
X106547000Y-104995000D01*
X106546000Y-104988000D01*
X106545000Y-104982000D01*
X106545000Y-104975000D01*
X106545000Y-104535000D01*
X106545000Y-104528000D01*
X106546000Y-104522000D01*
X106547000Y-104515000D01*
X106548000Y-104509000D01*
X106549000Y-104503000D01*
X106551000Y-104496000D01*
X106553000Y-104490000D01*
X106556000Y-104484000D01*
X106559000Y-104478000D01*
X106562000Y-104472000D01*
X106565000Y-104467000D01*
X106569000Y-104462000D01*
X106573000Y-104456000D01*
X106577000Y-104451000D01*
X106582000Y-104447000D01*
X106586000Y-104442000D01*
X106591000Y-104438000D01*
X106597000Y-104434000D01*
X106602000Y-104430000D01*
X106608000Y-104427000D01*
X106613000Y-104424000D01*
X106619000Y-104421000D01*
X106625000Y-104418000D01*
X106631000Y-104416000D01*
X106638000Y-104414000D01*
X106644000Y-104413000D01*
X106650000Y-104412000D01*
X106657000Y-104411000D01*
X106663000Y-104410000D01*
X106670000Y-104410000D01*
X106870000Y-104410000D01*
X106877000Y-104410000D01*
X106883000Y-104411000D01*
G36*
X106883000Y-104411000D02*
G01*
X106890000Y-104412000D01*
X106896000Y-104413000D01*
X106902000Y-104414000D01*
X106909000Y-104416000D01*
X106915000Y-104418000D01*
X106921000Y-104421000D01*
X106927000Y-104424000D01*
X106932000Y-104427000D01*
X106938000Y-104430000D01*
X106943000Y-104434000D01*
X106949000Y-104438000D01*
X106954000Y-104442000D01*
X106958000Y-104447000D01*
X106963000Y-104451000D01*
X106967000Y-104456000D01*
X106971000Y-104462000D01*
X106975000Y-104467000D01*
X106978000Y-104472000D01*
X106981000Y-104478000D01*
X106984000Y-104484000D01*
X106987000Y-104490000D01*
X106989000Y-104496000D01*
X106991000Y-104503000D01*
X106992000Y-104509000D01*
X106993000Y-104515000D01*
X106994000Y-104522000D01*
X106995000Y-104528000D01*
X106995000Y-104535000D01*
X106995000Y-104975000D01*
X106995000Y-104982000D01*
X106994000Y-104988000D01*
X106993000Y-104995000D01*
X106992000Y-105001000D01*
X106991000Y-105007000D01*
X106989000Y-105014000D01*
X106987000Y-105020000D01*
X106984000Y-105026000D01*
X106981000Y-105032000D01*
X106978000Y-105038000D01*
X106975000Y-105043000D01*
X106971000Y-105048000D01*
X106967000Y-105054000D01*
X106963000Y-105059000D01*
X106958000Y-105063000D01*
X106954000Y-105068000D01*
X106949000Y-105072000D01*
X106943000Y-105076000D01*
X106938000Y-105080000D01*
X106932000Y-105083000D01*
X106927000Y-105086000D01*
X106921000Y-105089000D01*
X106915000Y-105092000D01*
X106909000Y-105094000D01*
X106902000Y-105096000D01*
X106896000Y-105097000D01*
X106890000Y-105098000D01*
X106883000Y-105099000D01*
X106877000Y-105100000D01*
X106870000Y-105100000D01*
X106670000Y-105100000D01*
X106663000Y-105100000D01*
X106657000Y-105099000D01*
X106650000Y-105098000D01*
X106644000Y-105097000D01*
X106638000Y-105096000D01*
X106631000Y-105094000D01*
X106625000Y-105092000D01*
X106619000Y-105089000D01*
X106613000Y-105086000D01*
X106607000Y-105083000D01*
X106602000Y-105080000D01*
X106597000Y-105076000D01*
X106591000Y-105072000D01*
X106586000Y-105068000D01*
X106582000Y-105063000D01*
X106577000Y-105059000D01*
X106573000Y-105054000D01*
X106569000Y-105048000D01*
X106565000Y-105043000D01*
X106562000Y-105038000D01*
X106559000Y-105032000D01*
X106556000Y-105026000D01*
X106553000Y-105020000D01*
X106551000Y-105014000D01*
X106549000Y-105007000D01*
X106548000Y-105001000D01*
X106547000Y-104995000D01*
X106546000Y-104988000D01*
X106545000Y-104982000D01*
X106545000Y-104975000D01*
X106545000Y-104535000D01*
X106545000Y-104528000D01*
X106546000Y-104522000D01*
X106547000Y-104515000D01*
X106548000Y-104509000D01*
X106549000Y-104503000D01*
X106551000Y-104496000D01*
X106553000Y-104490000D01*
X106556000Y-104484000D01*
X106559000Y-104478000D01*
X106562000Y-104472000D01*
X106565000Y-104467000D01*
X106569000Y-104462000D01*
X106573000Y-104456000D01*
X106577000Y-104451000D01*
X106582000Y-104447000D01*
X106586000Y-104442000D01*
X106591000Y-104438000D01*
X106597000Y-104434000D01*
X106602000Y-104430000D01*
X106608000Y-104427000D01*
X106613000Y-104424000D01*
X106619000Y-104421000D01*
X106625000Y-104418000D01*
X106631000Y-104416000D01*
X106638000Y-104414000D01*
X106644000Y-104413000D01*
X106650000Y-104412000D01*
X106657000Y-104411000D01*
X106663000Y-104410000D01*
X106670000Y-104410000D01*
X106870000Y-104410000D01*
X106877000Y-104410000D01*
X106883000Y-104411000D01*
G37*
X106883000Y-106241000D02*
X106890000Y-106242000D01*
X106896000Y-106243000D01*
X106902000Y-106244000D01*
X106909000Y-106246000D01*
X106915000Y-106248000D01*
X106921000Y-106251000D01*
X106927000Y-106254000D01*
X106932000Y-106257000D01*
X106938000Y-106260000D01*
X106943000Y-106264000D01*
X106949000Y-106268000D01*
X106954000Y-106272000D01*
X106958000Y-106277000D01*
X106963000Y-106281000D01*
X106967000Y-106286000D01*
X106971000Y-106292000D01*
X106975000Y-106297000D01*
X106978000Y-106302000D01*
X106981000Y-106308000D01*
X106984000Y-106314000D01*
X106987000Y-106320000D01*
X106989000Y-106326000D01*
X106991000Y-106333000D01*
X106992000Y-106339000D01*
X106993000Y-106345000D01*
X106994000Y-106352000D01*
X106995000Y-106358000D01*
X106995000Y-106365000D01*
X106995000Y-106805000D01*
X106995000Y-106812000D01*
X106994000Y-106818000D01*
X106993000Y-106825000D01*
X106992000Y-106831000D01*
X106991000Y-106837000D01*
X106989000Y-106844000D01*
X106987000Y-106850000D01*
X106984000Y-106856000D01*
X106981000Y-106862000D01*
X106978000Y-106868000D01*
X106975000Y-106873000D01*
X106971000Y-106878000D01*
X106967000Y-106884000D01*
X106963000Y-106889000D01*
X106958000Y-106893000D01*
X106954000Y-106898000D01*
X106949000Y-106902000D01*
X106943000Y-106906000D01*
X106938000Y-106910000D01*
X106932000Y-106913000D01*
X106927000Y-106916000D01*
X106921000Y-106919000D01*
X106915000Y-106922000D01*
X106909000Y-106924000D01*
X106902000Y-106926000D01*
X106896000Y-106927000D01*
X106890000Y-106928000D01*
X106883000Y-106929000D01*
X106877000Y-106930000D01*
X106870000Y-106930000D01*
X106670000Y-106930000D01*
X106663000Y-106930000D01*
X106657000Y-106929000D01*
X106650000Y-106928000D01*
X106644000Y-106927000D01*
X106638000Y-106926000D01*
X106631000Y-106924000D01*
X106625000Y-106922000D01*
X106619000Y-106919000D01*
X106613000Y-106916000D01*
X106607000Y-106913000D01*
X106602000Y-106910000D01*
X106597000Y-106906000D01*
X106591000Y-106902000D01*
X106586000Y-106898000D01*
X106582000Y-106893000D01*
X106577000Y-106889000D01*
X106573000Y-106884000D01*
X106569000Y-106878000D01*
X106565000Y-106873000D01*
X106562000Y-106868000D01*
X106559000Y-106862000D01*
X106556000Y-106856000D01*
X106553000Y-106850000D01*
X106551000Y-106844000D01*
X106549000Y-106837000D01*
X106548000Y-106831000D01*
X106547000Y-106825000D01*
X106546000Y-106818000D01*
X106545000Y-106812000D01*
X106545000Y-106805000D01*
X106545000Y-106365000D01*
X106545000Y-106358000D01*
X106546000Y-106352000D01*
X106547000Y-106345000D01*
X106548000Y-106339000D01*
X106549000Y-106333000D01*
X106551000Y-106326000D01*
X106553000Y-106320000D01*
X106556000Y-106314000D01*
X106559000Y-106308000D01*
X106562000Y-106302000D01*
X106565000Y-106297000D01*
X106569000Y-106292000D01*
X106573000Y-106286000D01*
X106577000Y-106281000D01*
X106582000Y-106277000D01*
X106586000Y-106272000D01*
X106591000Y-106268000D01*
X106597000Y-106264000D01*
X106602000Y-106260000D01*
X106608000Y-106257000D01*
X106613000Y-106254000D01*
X106619000Y-106251000D01*
X106625000Y-106248000D01*
X106631000Y-106246000D01*
X106638000Y-106244000D01*
X106644000Y-106243000D01*
X106650000Y-106242000D01*
X106657000Y-106241000D01*
X106663000Y-106240000D01*
X106670000Y-106240000D01*
X106870000Y-106240000D01*
X106877000Y-106240000D01*
X106883000Y-106241000D01*
G36*
X106883000Y-106241000D02*
G01*
X106890000Y-106242000D01*
X106896000Y-106243000D01*
X106902000Y-106244000D01*
X106909000Y-106246000D01*
X106915000Y-106248000D01*
X106921000Y-106251000D01*
X106927000Y-106254000D01*
X106932000Y-106257000D01*
X106938000Y-106260000D01*
X106943000Y-106264000D01*
X106949000Y-106268000D01*
X106954000Y-106272000D01*
X106958000Y-106277000D01*
X106963000Y-106281000D01*
X106967000Y-106286000D01*
X106971000Y-106292000D01*
X106975000Y-106297000D01*
X106978000Y-106302000D01*
X106981000Y-106308000D01*
X106984000Y-106314000D01*
X106987000Y-106320000D01*
X106989000Y-106326000D01*
X106991000Y-106333000D01*
X106992000Y-106339000D01*
X106993000Y-106345000D01*
X106994000Y-106352000D01*
X106995000Y-106358000D01*
X106995000Y-106365000D01*
X106995000Y-106805000D01*
X106995000Y-106812000D01*
X106994000Y-106818000D01*
X106993000Y-106825000D01*
X106992000Y-106831000D01*
X106991000Y-106837000D01*
X106989000Y-106844000D01*
X106987000Y-106850000D01*
X106984000Y-106856000D01*
X106981000Y-106862000D01*
X106978000Y-106868000D01*
X106975000Y-106873000D01*
X106971000Y-106878000D01*
X106967000Y-106884000D01*
X106963000Y-106889000D01*
X106958000Y-106893000D01*
X106954000Y-106898000D01*
X106949000Y-106902000D01*
X106943000Y-106906000D01*
X106938000Y-106910000D01*
X106932000Y-106913000D01*
X106927000Y-106916000D01*
X106921000Y-106919000D01*
X106915000Y-106922000D01*
X106909000Y-106924000D01*
X106902000Y-106926000D01*
X106896000Y-106927000D01*
X106890000Y-106928000D01*
X106883000Y-106929000D01*
X106877000Y-106930000D01*
X106870000Y-106930000D01*
X106670000Y-106930000D01*
X106663000Y-106930000D01*
X106657000Y-106929000D01*
X106650000Y-106928000D01*
X106644000Y-106927000D01*
X106638000Y-106926000D01*
X106631000Y-106924000D01*
X106625000Y-106922000D01*
X106619000Y-106919000D01*
X106613000Y-106916000D01*
X106607000Y-106913000D01*
X106602000Y-106910000D01*
X106597000Y-106906000D01*
X106591000Y-106902000D01*
X106586000Y-106898000D01*
X106582000Y-106893000D01*
X106577000Y-106889000D01*
X106573000Y-106884000D01*
X106569000Y-106878000D01*
X106565000Y-106873000D01*
X106562000Y-106868000D01*
X106559000Y-106862000D01*
X106556000Y-106856000D01*
X106553000Y-106850000D01*
X106551000Y-106844000D01*
X106549000Y-106837000D01*
X106548000Y-106831000D01*
X106547000Y-106825000D01*
X106546000Y-106818000D01*
X106545000Y-106812000D01*
X106545000Y-106805000D01*
X106545000Y-106365000D01*
X106545000Y-106358000D01*
X106546000Y-106352000D01*
X106547000Y-106345000D01*
X106548000Y-106339000D01*
X106549000Y-106333000D01*
X106551000Y-106326000D01*
X106553000Y-106320000D01*
X106556000Y-106314000D01*
X106559000Y-106308000D01*
X106562000Y-106302000D01*
X106565000Y-106297000D01*
X106569000Y-106292000D01*
X106573000Y-106286000D01*
X106577000Y-106281000D01*
X106582000Y-106277000D01*
X106586000Y-106272000D01*
X106591000Y-106268000D01*
X106597000Y-106264000D01*
X106602000Y-106260000D01*
X106608000Y-106257000D01*
X106613000Y-106254000D01*
X106619000Y-106251000D01*
X106625000Y-106248000D01*
X106631000Y-106246000D01*
X106638000Y-106244000D01*
X106644000Y-106243000D01*
X106650000Y-106242000D01*
X106657000Y-106241000D01*
X106663000Y-106240000D01*
X106670000Y-106240000D01*
X106870000Y-106240000D01*
X106877000Y-106240000D01*
X106883000Y-106241000D01*
G37*
X107668000Y-104696000D02*
X107675000Y-104697000D01*
X107681000Y-104698000D01*
X107687000Y-104699000D01*
X107694000Y-104701000D01*
X107700000Y-104703000D01*
X107706000Y-104706000D01*
X107712000Y-104709000D01*
X107718000Y-104712000D01*
X107723000Y-104715000D01*
X107728000Y-104719000D01*
X107734000Y-104723000D01*
X107739000Y-104727000D01*
X107743000Y-104732000D01*
X107748000Y-104736000D01*
X107752000Y-104741000D01*
X107756000Y-104747000D01*
X107760000Y-104752000D01*
X107763000Y-104758000D01*
X107766000Y-104763000D01*
X107769000Y-104769000D01*
X107772000Y-104775000D01*
X107774000Y-104781000D01*
X107776000Y-104788000D01*
X107777000Y-104794000D01*
X107778000Y-104800000D01*
X107779000Y-104807000D01*
X107780000Y-104813000D01*
X107780000Y-104820000D01*
X107780000Y-105020000D01*
X107780000Y-105027000D01*
X107779000Y-105033000D01*
X107778000Y-105040000D01*
X107777000Y-105046000D01*
X107776000Y-105052000D01*
X107774000Y-105059000D01*
X107772000Y-105065000D01*
X107769000Y-105071000D01*
X107766000Y-105077000D01*
X107763000Y-105082000D01*
X107760000Y-105088000D01*
X107756000Y-105093000D01*
X107752000Y-105099000D01*
X107748000Y-105104000D01*
X107743000Y-105108000D01*
X107739000Y-105113000D01*
X107734000Y-105117000D01*
X107728000Y-105121000D01*
X107723000Y-105125000D01*
X107718000Y-105128000D01*
X107712000Y-105131000D01*
X107706000Y-105134000D01*
X107700000Y-105137000D01*
X107694000Y-105139000D01*
X107687000Y-105141000D01*
X107681000Y-105142000D01*
X107675000Y-105143000D01*
X107668000Y-105144000D01*
X107662000Y-105145000D01*
X107655000Y-105145000D01*
X107215000Y-105145000D01*
X107208000Y-105145000D01*
X107202000Y-105144000D01*
X107195000Y-105143000D01*
X107189000Y-105142000D01*
X107183000Y-105141000D01*
X107176000Y-105139000D01*
X107170000Y-105137000D01*
X107164000Y-105134000D01*
X107158000Y-105131000D01*
X107152000Y-105128000D01*
X107147000Y-105125000D01*
X107142000Y-105121000D01*
X107136000Y-105117000D01*
X107131000Y-105113000D01*
X107127000Y-105108000D01*
X107122000Y-105104000D01*
X107118000Y-105099000D01*
X107114000Y-105093000D01*
X107110000Y-105088000D01*
X107107000Y-105082000D01*
X107104000Y-105077000D01*
X107101000Y-105071000D01*
X107098000Y-105065000D01*
X107096000Y-105059000D01*
X107094000Y-105052000D01*
X107093000Y-105046000D01*
X107092000Y-105040000D01*
X107091000Y-105033000D01*
X107090000Y-105027000D01*
X107090000Y-105020000D01*
X107090000Y-104820000D01*
X107090000Y-104813000D01*
X107091000Y-104807000D01*
X107092000Y-104800000D01*
X107093000Y-104794000D01*
X107094000Y-104788000D01*
X107096000Y-104781000D01*
X107098000Y-104775000D01*
X107101000Y-104769000D01*
X107104000Y-104763000D01*
X107107000Y-104758000D01*
X107110000Y-104752000D01*
X107114000Y-104747000D01*
X107118000Y-104741000D01*
X107122000Y-104736000D01*
X107127000Y-104732000D01*
X107131000Y-104727000D01*
X107136000Y-104723000D01*
X107142000Y-104719000D01*
X107147000Y-104715000D01*
X107152000Y-104712000D01*
X107158000Y-104709000D01*
X107164000Y-104706000D01*
X107170000Y-104703000D01*
X107176000Y-104701000D01*
X107183000Y-104699000D01*
X107189000Y-104698000D01*
X107195000Y-104697000D01*
X107202000Y-104696000D01*
X107208000Y-104695000D01*
X107215000Y-104695000D01*
X107655000Y-104695000D01*
X107662000Y-104695000D01*
X107668000Y-104696000D01*
G36*
X107668000Y-104696000D02*
G01*
X107675000Y-104697000D01*
X107681000Y-104698000D01*
X107687000Y-104699000D01*
X107694000Y-104701000D01*
X107700000Y-104703000D01*
X107706000Y-104706000D01*
X107712000Y-104709000D01*
X107718000Y-104712000D01*
X107723000Y-104715000D01*
X107728000Y-104719000D01*
X107734000Y-104723000D01*
X107739000Y-104727000D01*
X107743000Y-104732000D01*
X107748000Y-104736000D01*
X107752000Y-104741000D01*
X107756000Y-104747000D01*
X107760000Y-104752000D01*
X107763000Y-104758000D01*
X107766000Y-104763000D01*
X107769000Y-104769000D01*
X107772000Y-104775000D01*
X107774000Y-104781000D01*
X107776000Y-104788000D01*
X107777000Y-104794000D01*
X107778000Y-104800000D01*
X107779000Y-104807000D01*
X107780000Y-104813000D01*
X107780000Y-104820000D01*
X107780000Y-105020000D01*
X107780000Y-105027000D01*
X107779000Y-105033000D01*
X107778000Y-105040000D01*
X107777000Y-105046000D01*
X107776000Y-105052000D01*
X107774000Y-105059000D01*
X107772000Y-105065000D01*
X107769000Y-105071000D01*
X107766000Y-105077000D01*
X107763000Y-105082000D01*
X107760000Y-105088000D01*
X107756000Y-105093000D01*
X107752000Y-105099000D01*
X107748000Y-105104000D01*
X107743000Y-105108000D01*
X107739000Y-105113000D01*
X107734000Y-105117000D01*
X107728000Y-105121000D01*
X107723000Y-105125000D01*
X107718000Y-105128000D01*
X107712000Y-105131000D01*
X107706000Y-105134000D01*
X107700000Y-105137000D01*
X107694000Y-105139000D01*
X107687000Y-105141000D01*
X107681000Y-105142000D01*
X107675000Y-105143000D01*
X107668000Y-105144000D01*
X107662000Y-105145000D01*
X107655000Y-105145000D01*
X107215000Y-105145000D01*
X107208000Y-105145000D01*
X107202000Y-105144000D01*
X107195000Y-105143000D01*
X107189000Y-105142000D01*
X107183000Y-105141000D01*
X107176000Y-105139000D01*
X107170000Y-105137000D01*
X107164000Y-105134000D01*
X107158000Y-105131000D01*
X107152000Y-105128000D01*
X107147000Y-105125000D01*
X107142000Y-105121000D01*
X107136000Y-105117000D01*
X107131000Y-105113000D01*
X107127000Y-105108000D01*
X107122000Y-105104000D01*
X107118000Y-105099000D01*
X107114000Y-105093000D01*
X107110000Y-105088000D01*
X107107000Y-105082000D01*
X107104000Y-105077000D01*
X107101000Y-105071000D01*
X107098000Y-105065000D01*
X107096000Y-105059000D01*
X107094000Y-105052000D01*
X107093000Y-105046000D01*
X107092000Y-105040000D01*
X107091000Y-105033000D01*
X107090000Y-105027000D01*
X107090000Y-105020000D01*
X107090000Y-104820000D01*
X107090000Y-104813000D01*
X107091000Y-104807000D01*
X107092000Y-104800000D01*
X107093000Y-104794000D01*
X107094000Y-104788000D01*
X107096000Y-104781000D01*
X107098000Y-104775000D01*
X107101000Y-104769000D01*
X107104000Y-104763000D01*
X107107000Y-104758000D01*
X107110000Y-104752000D01*
X107114000Y-104747000D01*
X107118000Y-104741000D01*
X107122000Y-104736000D01*
X107127000Y-104732000D01*
X107131000Y-104727000D01*
X107136000Y-104723000D01*
X107142000Y-104719000D01*
X107147000Y-104715000D01*
X107152000Y-104712000D01*
X107158000Y-104709000D01*
X107164000Y-104706000D01*
X107170000Y-104703000D01*
X107176000Y-104701000D01*
X107183000Y-104699000D01*
X107189000Y-104698000D01*
X107195000Y-104697000D01*
X107202000Y-104696000D01*
X107208000Y-104695000D01*
X107215000Y-104695000D01*
X107655000Y-104695000D01*
X107662000Y-104695000D01*
X107668000Y-104696000D01*
G37*
X107668000Y-105196000D02*
X107675000Y-105197000D01*
X107681000Y-105198000D01*
X107687000Y-105199000D01*
X107694000Y-105201000D01*
X107700000Y-105203000D01*
X107706000Y-105206000D01*
X107712000Y-105209000D01*
X107718000Y-105212000D01*
X107723000Y-105215000D01*
X107728000Y-105219000D01*
X107734000Y-105223000D01*
X107739000Y-105227000D01*
X107743000Y-105232000D01*
X107748000Y-105236000D01*
X107752000Y-105241000D01*
X107756000Y-105247000D01*
X107760000Y-105252000D01*
X107763000Y-105258000D01*
X107766000Y-105263000D01*
X107769000Y-105269000D01*
X107772000Y-105275000D01*
X107774000Y-105281000D01*
X107776000Y-105288000D01*
X107777000Y-105294000D01*
X107778000Y-105300000D01*
X107779000Y-105307000D01*
X107780000Y-105313000D01*
X107780000Y-105320000D01*
X107780000Y-105520000D01*
X107780000Y-105527000D01*
X107779000Y-105533000D01*
X107778000Y-105540000D01*
X107777000Y-105546000D01*
X107776000Y-105552000D01*
X107774000Y-105559000D01*
X107772000Y-105565000D01*
X107769000Y-105571000D01*
X107766000Y-105577000D01*
X107763000Y-105582000D01*
X107760000Y-105588000D01*
X107756000Y-105593000D01*
X107752000Y-105599000D01*
X107748000Y-105604000D01*
X107743000Y-105608000D01*
X107739000Y-105613000D01*
X107734000Y-105617000D01*
X107728000Y-105621000D01*
X107723000Y-105625000D01*
X107718000Y-105628000D01*
X107712000Y-105631000D01*
X107706000Y-105634000D01*
X107700000Y-105637000D01*
X107694000Y-105639000D01*
X107687000Y-105641000D01*
X107681000Y-105642000D01*
X107675000Y-105643000D01*
X107668000Y-105644000D01*
X107662000Y-105645000D01*
X107655000Y-105645000D01*
X107215000Y-105645000D01*
X107208000Y-105645000D01*
X107202000Y-105644000D01*
X107195000Y-105643000D01*
X107189000Y-105642000D01*
X107183000Y-105641000D01*
X107176000Y-105639000D01*
X107170000Y-105637000D01*
X107164000Y-105634000D01*
X107158000Y-105631000D01*
X107152000Y-105628000D01*
X107147000Y-105625000D01*
X107142000Y-105621000D01*
X107136000Y-105617000D01*
X107131000Y-105613000D01*
X107127000Y-105608000D01*
X107122000Y-105604000D01*
X107118000Y-105599000D01*
X107114000Y-105593000D01*
X107110000Y-105588000D01*
X107107000Y-105582000D01*
X107104000Y-105577000D01*
X107101000Y-105571000D01*
X107098000Y-105565000D01*
X107096000Y-105559000D01*
X107094000Y-105552000D01*
X107093000Y-105546000D01*
X107092000Y-105540000D01*
X107091000Y-105533000D01*
X107090000Y-105527000D01*
X107090000Y-105520000D01*
X107090000Y-105320000D01*
X107090000Y-105313000D01*
X107091000Y-105307000D01*
X107092000Y-105300000D01*
X107093000Y-105294000D01*
X107094000Y-105288000D01*
X107096000Y-105281000D01*
X107098000Y-105275000D01*
X107101000Y-105269000D01*
X107104000Y-105263000D01*
X107107000Y-105258000D01*
X107110000Y-105252000D01*
X107114000Y-105247000D01*
X107118000Y-105241000D01*
X107122000Y-105236000D01*
X107127000Y-105232000D01*
X107131000Y-105227000D01*
X107136000Y-105223000D01*
X107142000Y-105219000D01*
X107147000Y-105215000D01*
X107152000Y-105212000D01*
X107158000Y-105209000D01*
X107164000Y-105206000D01*
X107170000Y-105203000D01*
X107176000Y-105201000D01*
X107183000Y-105199000D01*
X107189000Y-105198000D01*
X107195000Y-105197000D01*
X107202000Y-105196000D01*
X107208000Y-105195000D01*
X107215000Y-105195000D01*
X107655000Y-105195000D01*
X107662000Y-105195000D01*
X107668000Y-105196000D01*
G36*
X107668000Y-105196000D02*
G01*
X107675000Y-105197000D01*
X107681000Y-105198000D01*
X107687000Y-105199000D01*
X107694000Y-105201000D01*
X107700000Y-105203000D01*
X107706000Y-105206000D01*
X107712000Y-105209000D01*
X107718000Y-105212000D01*
X107723000Y-105215000D01*
X107728000Y-105219000D01*
X107734000Y-105223000D01*
X107739000Y-105227000D01*
X107743000Y-105232000D01*
X107748000Y-105236000D01*
X107752000Y-105241000D01*
X107756000Y-105247000D01*
X107760000Y-105252000D01*
X107763000Y-105258000D01*
X107766000Y-105263000D01*
X107769000Y-105269000D01*
X107772000Y-105275000D01*
X107774000Y-105281000D01*
X107776000Y-105288000D01*
X107777000Y-105294000D01*
X107778000Y-105300000D01*
X107779000Y-105307000D01*
X107780000Y-105313000D01*
X107780000Y-105320000D01*
X107780000Y-105520000D01*
X107780000Y-105527000D01*
X107779000Y-105533000D01*
X107778000Y-105540000D01*
X107777000Y-105546000D01*
X107776000Y-105552000D01*
X107774000Y-105559000D01*
X107772000Y-105565000D01*
X107769000Y-105571000D01*
X107766000Y-105577000D01*
X107763000Y-105582000D01*
X107760000Y-105588000D01*
X107756000Y-105593000D01*
X107752000Y-105599000D01*
X107748000Y-105604000D01*
X107743000Y-105608000D01*
X107739000Y-105613000D01*
X107734000Y-105617000D01*
X107728000Y-105621000D01*
X107723000Y-105625000D01*
X107718000Y-105628000D01*
X107712000Y-105631000D01*
X107706000Y-105634000D01*
X107700000Y-105637000D01*
X107694000Y-105639000D01*
X107687000Y-105641000D01*
X107681000Y-105642000D01*
X107675000Y-105643000D01*
X107668000Y-105644000D01*
X107662000Y-105645000D01*
X107655000Y-105645000D01*
X107215000Y-105645000D01*
X107208000Y-105645000D01*
X107202000Y-105644000D01*
X107195000Y-105643000D01*
X107189000Y-105642000D01*
X107183000Y-105641000D01*
X107176000Y-105639000D01*
X107170000Y-105637000D01*
X107164000Y-105634000D01*
X107158000Y-105631000D01*
X107152000Y-105628000D01*
X107147000Y-105625000D01*
X107142000Y-105621000D01*
X107136000Y-105617000D01*
X107131000Y-105613000D01*
X107127000Y-105608000D01*
X107122000Y-105604000D01*
X107118000Y-105599000D01*
X107114000Y-105593000D01*
X107110000Y-105588000D01*
X107107000Y-105582000D01*
X107104000Y-105577000D01*
X107101000Y-105571000D01*
X107098000Y-105565000D01*
X107096000Y-105559000D01*
X107094000Y-105552000D01*
X107093000Y-105546000D01*
X107092000Y-105540000D01*
X107091000Y-105533000D01*
X107090000Y-105527000D01*
X107090000Y-105520000D01*
X107090000Y-105320000D01*
X107090000Y-105313000D01*
X107091000Y-105307000D01*
X107092000Y-105300000D01*
X107093000Y-105294000D01*
X107094000Y-105288000D01*
X107096000Y-105281000D01*
X107098000Y-105275000D01*
X107101000Y-105269000D01*
X107104000Y-105263000D01*
X107107000Y-105258000D01*
X107110000Y-105252000D01*
X107114000Y-105247000D01*
X107118000Y-105241000D01*
X107122000Y-105236000D01*
X107127000Y-105232000D01*
X107131000Y-105227000D01*
X107136000Y-105223000D01*
X107142000Y-105219000D01*
X107147000Y-105215000D01*
X107152000Y-105212000D01*
X107158000Y-105209000D01*
X107164000Y-105206000D01*
X107170000Y-105203000D01*
X107176000Y-105201000D01*
X107183000Y-105199000D01*
X107189000Y-105198000D01*
X107195000Y-105197000D01*
X107202000Y-105196000D01*
X107208000Y-105195000D01*
X107215000Y-105195000D01*
X107655000Y-105195000D01*
X107662000Y-105195000D01*
X107668000Y-105196000D01*
G37*
X107668000Y-105696000D02*
X107675000Y-105697000D01*
X107681000Y-105698000D01*
X107687000Y-105699000D01*
X107694000Y-105701000D01*
X107700000Y-105703000D01*
X107706000Y-105706000D01*
X107712000Y-105709000D01*
X107718000Y-105712000D01*
X107723000Y-105715000D01*
X107728000Y-105719000D01*
X107734000Y-105723000D01*
X107739000Y-105727000D01*
X107743000Y-105732000D01*
X107748000Y-105736000D01*
X107752000Y-105741000D01*
X107756000Y-105747000D01*
X107760000Y-105752000D01*
X107763000Y-105758000D01*
X107766000Y-105763000D01*
X107769000Y-105769000D01*
X107772000Y-105775000D01*
X107774000Y-105781000D01*
X107776000Y-105788000D01*
X107777000Y-105794000D01*
X107778000Y-105800000D01*
X107779000Y-105807000D01*
X107780000Y-105813000D01*
X107780000Y-105820000D01*
X107780000Y-106020000D01*
X107780000Y-106027000D01*
X107779000Y-106033000D01*
X107778000Y-106040000D01*
X107777000Y-106046000D01*
X107776000Y-106052000D01*
X107774000Y-106059000D01*
X107772000Y-106065000D01*
X107769000Y-106071000D01*
X107766000Y-106077000D01*
X107763000Y-106082000D01*
X107760000Y-106088000D01*
X107756000Y-106093000D01*
X107752000Y-106099000D01*
X107748000Y-106104000D01*
X107743000Y-106108000D01*
X107739000Y-106113000D01*
X107734000Y-106117000D01*
X107728000Y-106121000D01*
X107723000Y-106125000D01*
X107718000Y-106128000D01*
X107712000Y-106131000D01*
X107706000Y-106134000D01*
X107700000Y-106137000D01*
X107694000Y-106139000D01*
X107687000Y-106141000D01*
X107681000Y-106142000D01*
X107675000Y-106143000D01*
X107668000Y-106144000D01*
X107662000Y-106145000D01*
X107655000Y-106145000D01*
X107215000Y-106145000D01*
X107208000Y-106145000D01*
X107202000Y-106144000D01*
X107195000Y-106143000D01*
X107189000Y-106142000D01*
X107183000Y-106141000D01*
X107176000Y-106139000D01*
X107170000Y-106137000D01*
X107164000Y-106134000D01*
X107158000Y-106131000D01*
X107152000Y-106128000D01*
X107147000Y-106125000D01*
X107142000Y-106121000D01*
X107136000Y-106117000D01*
X107131000Y-106113000D01*
X107127000Y-106108000D01*
X107122000Y-106104000D01*
X107118000Y-106099000D01*
X107114000Y-106093000D01*
X107110000Y-106088000D01*
X107107000Y-106082000D01*
X107104000Y-106077000D01*
X107101000Y-106071000D01*
X107098000Y-106065000D01*
X107096000Y-106059000D01*
X107094000Y-106052000D01*
X107093000Y-106046000D01*
X107092000Y-106040000D01*
X107091000Y-106033000D01*
X107090000Y-106027000D01*
X107090000Y-106020000D01*
X107090000Y-105820000D01*
X107090000Y-105813000D01*
X107091000Y-105807000D01*
X107092000Y-105800000D01*
X107093000Y-105794000D01*
X107094000Y-105788000D01*
X107096000Y-105781000D01*
X107098000Y-105775000D01*
X107101000Y-105769000D01*
X107104000Y-105763000D01*
X107107000Y-105758000D01*
X107110000Y-105752000D01*
X107114000Y-105747000D01*
X107118000Y-105741000D01*
X107122000Y-105736000D01*
X107127000Y-105732000D01*
X107131000Y-105727000D01*
X107136000Y-105723000D01*
X107142000Y-105719000D01*
X107147000Y-105715000D01*
X107152000Y-105712000D01*
X107158000Y-105709000D01*
X107164000Y-105706000D01*
X107170000Y-105703000D01*
X107176000Y-105701000D01*
X107183000Y-105699000D01*
X107189000Y-105698000D01*
X107195000Y-105697000D01*
X107202000Y-105696000D01*
X107208000Y-105695000D01*
X107215000Y-105695000D01*
X107655000Y-105695000D01*
X107662000Y-105695000D01*
X107668000Y-105696000D01*
G36*
X107668000Y-105696000D02*
G01*
X107675000Y-105697000D01*
X107681000Y-105698000D01*
X107687000Y-105699000D01*
X107694000Y-105701000D01*
X107700000Y-105703000D01*
X107706000Y-105706000D01*
X107712000Y-105709000D01*
X107718000Y-105712000D01*
X107723000Y-105715000D01*
X107728000Y-105719000D01*
X107734000Y-105723000D01*
X107739000Y-105727000D01*
X107743000Y-105732000D01*
X107748000Y-105736000D01*
X107752000Y-105741000D01*
X107756000Y-105747000D01*
X107760000Y-105752000D01*
X107763000Y-105758000D01*
X107766000Y-105763000D01*
X107769000Y-105769000D01*
X107772000Y-105775000D01*
X107774000Y-105781000D01*
X107776000Y-105788000D01*
X107777000Y-105794000D01*
X107778000Y-105800000D01*
X107779000Y-105807000D01*
X107780000Y-105813000D01*
X107780000Y-105820000D01*
X107780000Y-106020000D01*
X107780000Y-106027000D01*
X107779000Y-106033000D01*
X107778000Y-106040000D01*
X107777000Y-106046000D01*
X107776000Y-106052000D01*
X107774000Y-106059000D01*
X107772000Y-106065000D01*
X107769000Y-106071000D01*
X107766000Y-106077000D01*
X107763000Y-106082000D01*
X107760000Y-106088000D01*
X107756000Y-106093000D01*
X107752000Y-106099000D01*
X107748000Y-106104000D01*
X107743000Y-106108000D01*
X107739000Y-106113000D01*
X107734000Y-106117000D01*
X107728000Y-106121000D01*
X107723000Y-106125000D01*
X107718000Y-106128000D01*
X107712000Y-106131000D01*
X107706000Y-106134000D01*
X107700000Y-106137000D01*
X107694000Y-106139000D01*
X107687000Y-106141000D01*
X107681000Y-106142000D01*
X107675000Y-106143000D01*
X107668000Y-106144000D01*
X107662000Y-106145000D01*
X107655000Y-106145000D01*
X107215000Y-106145000D01*
X107208000Y-106145000D01*
X107202000Y-106144000D01*
X107195000Y-106143000D01*
X107189000Y-106142000D01*
X107183000Y-106141000D01*
X107176000Y-106139000D01*
X107170000Y-106137000D01*
X107164000Y-106134000D01*
X107158000Y-106131000D01*
X107152000Y-106128000D01*
X107147000Y-106125000D01*
X107142000Y-106121000D01*
X107136000Y-106117000D01*
X107131000Y-106113000D01*
X107127000Y-106108000D01*
X107122000Y-106104000D01*
X107118000Y-106099000D01*
X107114000Y-106093000D01*
X107110000Y-106088000D01*
X107107000Y-106082000D01*
X107104000Y-106077000D01*
X107101000Y-106071000D01*
X107098000Y-106065000D01*
X107096000Y-106059000D01*
X107094000Y-106052000D01*
X107093000Y-106046000D01*
X107092000Y-106040000D01*
X107091000Y-106033000D01*
X107090000Y-106027000D01*
X107090000Y-106020000D01*
X107090000Y-105820000D01*
X107090000Y-105813000D01*
X107091000Y-105807000D01*
X107092000Y-105800000D01*
X107093000Y-105794000D01*
X107094000Y-105788000D01*
X107096000Y-105781000D01*
X107098000Y-105775000D01*
X107101000Y-105769000D01*
X107104000Y-105763000D01*
X107107000Y-105758000D01*
X107110000Y-105752000D01*
X107114000Y-105747000D01*
X107118000Y-105741000D01*
X107122000Y-105736000D01*
X107127000Y-105732000D01*
X107131000Y-105727000D01*
X107136000Y-105723000D01*
X107142000Y-105719000D01*
X107147000Y-105715000D01*
X107152000Y-105712000D01*
X107158000Y-105709000D01*
X107164000Y-105706000D01*
X107170000Y-105703000D01*
X107176000Y-105701000D01*
X107183000Y-105699000D01*
X107189000Y-105698000D01*
X107195000Y-105697000D01*
X107202000Y-105696000D01*
X107208000Y-105695000D01*
X107215000Y-105695000D01*
X107655000Y-105695000D01*
X107662000Y-105695000D01*
X107668000Y-105696000D01*
G37*
X107668000Y-106196000D02*
X107675000Y-106197000D01*
X107681000Y-106198000D01*
X107687000Y-106199000D01*
X107694000Y-106201000D01*
X107700000Y-106203000D01*
X107706000Y-106206000D01*
X107712000Y-106209000D01*
X107718000Y-106212000D01*
X107723000Y-106215000D01*
X107728000Y-106219000D01*
X107734000Y-106223000D01*
X107739000Y-106227000D01*
X107743000Y-106232000D01*
X107748000Y-106236000D01*
X107752000Y-106241000D01*
X107756000Y-106247000D01*
X107760000Y-106252000D01*
X107763000Y-106258000D01*
X107766000Y-106263000D01*
X107769000Y-106269000D01*
X107772000Y-106275000D01*
X107774000Y-106281000D01*
X107776000Y-106288000D01*
X107777000Y-106294000D01*
X107778000Y-106300000D01*
X107779000Y-106307000D01*
X107780000Y-106313000D01*
X107780000Y-106320000D01*
X107780000Y-106520000D01*
X107780000Y-106527000D01*
X107779000Y-106533000D01*
X107778000Y-106540000D01*
X107777000Y-106546000D01*
X107776000Y-106552000D01*
X107774000Y-106559000D01*
X107772000Y-106565000D01*
X107769000Y-106571000D01*
X107766000Y-106577000D01*
X107763000Y-106582000D01*
X107760000Y-106588000D01*
X107756000Y-106593000D01*
X107752000Y-106599000D01*
X107748000Y-106604000D01*
X107743000Y-106608000D01*
X107739000Y-106613000D01*
X107734000Y-106617000D01*
X107728000Y-106621000D01*
X107723000Y-106625000D01*
X107718000Y-106628000D01*
X107712000Y-106631000D01*
X107706000Y-106634000D01*
X107700000Y-106637000D01*
X107694000Y-106639000D01*
X107687000Y-106641000D01*
X107681000Y-106642000D01*
X107675000Y-106643000D01*
X107668000Y-106644000D01*
X107662000Y-106645000D01*
X107655000Y-106645000D01*
X107215000Y-106645000D01*
X107208000Y-106645000D01*
X107202000Y-106644000D01*
X107195000Y-106643000D01*
X107189000Y-106642000D01*
X107183000Y-106641000D01*
X107176000Y-106639000D01*
X107170000Y-106637000D01*
X107164000Y-106634000D01*
X107158000Y-106631000D01*
X107152000Y-106628000D01*
X107147000Y-106625000D01*
X107142000Y-106621000D01*
X107136000Y-106617000D01*
X107131000Y-106613000D01*
X107127000Y-106608000D01*
X107122000Y-106604000D01*
X107118000Y-106599000D01*
X107114000Y-106593000D01*
X107110000Y-106588000D01*
X107107000Y-106582000D01*
X107104000Y-106577000D01*
X107101000Y-106571000D01*
X107098000Y-106565000D01*
X107096000Y-106559000D01*
X107094000Y-106552000D01*
X107093000Y-106546000D01*
X107092000Y-106540000D01*
X107091000Y-106533000D01*
X107090000Y-106527000D01*
X107090000Y-106520000D01*
X107090000Y-106320000D01*
X107090000Y-106313000D01*
X107091000Y-106307000D01*
X107092000Y-106300000D01*
X107093000Y-106294000D01*
X107094000Y-106288000D01*
X107096000Y-106281000D01*
X107098000Y-106275000D01*
X107101000Y-106269000D01*
X107104000Y-106263000D01*
X107107000Y-106258000D01*
X107110000Y-106252000D01*
X107114000Y-106247000D01*
X107118000Y-106241000D01*
X107122000Y-106236000D01*
X107127000Y-106232000D01*
X107131000Y-106227000D01*
X107136000Y-106223000D01*
X107142000Y-106219000D01*
X107147000Y-106215000D01*
X107152000Y-106212000D01*
X107158000Y-106209000D01*
X107164000Y-106206000D01*
X107170000Y-106203000D01*
X107176000Y-106201000D01*
X107183000Y-106199000D01*
X107189000Y-106198000D01*
X107195000Y-106197000D01*
X107202000Y-106196000D01*
X107208000Y-106195000D01*
X107215000Y-106195000D01*
X107655000Y-106195000D01*
X107662000Y-106195000D01*
X107668000Y-106196000D01*
G36*
X107668000Y-106196000D02*
G01*
X107675000Y-106197000D01*
X107681000Y-106198000D01*
X107687000Y-106199000D01*
X107694000Y-106201000D01*
X107700000Y-106203000D01*
X107706000Y-106206000D01*
X107712000Y-106209000D01*
X107718000Y-106212000D01*
X107723000Y-106215000D01*
X107728000Y-106219000D01*
X107734000Y-106223000D01*
X107739000Y-106227000D01*
X107743000Y-106232000D01*
X107748000Y-106236000D01*
X107752000Y-106241000D01*
X107756000Y-106247000D01*
X107760000Y-106252000D01*
X107763000Y-106258000D01*
X107766000Y-106263000D01*
X107769000Y-106269000D01*
X107772000Y-106275000D01*
X107774000Y-106281000D01*
X107776000Y-106288000D01*
X107777000Y-106294000D01*
X107778000Y-106300000D01*
X107779000Y-106307000D01*
X107780000Y-106313000D01*
X107780000Y-106320000D01*
X107780000Y-106520000D01*
X107780000Y-106527000D01*
X107779000Y-106533000D01*
X107778000Y-106540000D01*
X107777000Y-106546000D01*
X107776000Y-106552000D01*
X107774000Y-106559000D01*
X107772000Y-106565000D01*
X107769000Y-106571000D01*
X107766000Y-106577000D01*
X107763000Y-106582000D01*
X107760000Y-106588000D01*
X107756000Y-106593000D01*
X107752000Y-106599000D01*
X107748000Y-106604000D01*
X107743000Y-106608000D01*
X107739000Y-106613000D01*
X107734000Y-106617000D01*
X107728000Y-106621000D01*
X107723000Y-106625000D01*
X107718000Y-106628000D01*
X107712000Y-106631000D01*
X107706000Y-106634000D01*
X107700000Y-106637000D01*
X107694000Y-106639000D01*
X107687000Y-106641000D01*
X107681000Y-106642000D01*
X107675000Y-106643000D01*
X107668000Y-106644000D01*
X107662000Y-106645000D01*
X107655000Y-106645000D01*
X107215000Y-106645000D01*
X107208000Y-106645000D01*
X107202000Y-106644000D01*
X107195000Y-106643000D01*
X107189000Y-106642000D01*
X107183000Y-106641000D01*
X107176000Y-106639000D01*
X107170000Y-106637000D01*
X107164000Y-106634000D01*
X107158000Y-106631000D01*
X107152000Y-106628000D01*
X107147000Y-106625000D01*
X107142000Y-106621000D01*
X107136000Y-106617000D01*
X107131000Y-106613000D01*
X107127000Y-106608000D01*
X107122000Y-106604000D01*
X107118000Y-106599000D01*
X107114000Y-106593000D01*
X107110000Y-106588000D01*
X107107000Y-106582000D01*
X107104000Y-106577000D01*
X107101000Y-106571000D01*
X107098000Y-106565000D01*
X107096000Y-106559000D01*
X107094000Y-106552000D01*
X107093000Y-106546000D01*
X107092000Y-106540000D01*
X107091000Y-106533000D01*
X107090000Y-106527000D01*
X107090000Y-106520000D01*
X107090000Y-106320000D01*
X107090000Y-106313000D01*
X107091000Y-106307000D01*
X107092000Y-106300000D01*
X107093000Y-106294000D01*
X107094000Y-106288000D01*
X107096000Y-106281000D01*
X107098000Y-106275000D01*
X107101000Y-106269000D01*
X107104000Y-106263000D01*
X107107000Y-106258000D01*
X107110000Y-106252000D01*
X107114000Y-106247000D01*
X107118000Y-106241000D01*
X107122000Y-106236000D01*
X107127000Y-106232000D01*
X107131000Y-106227000D01*
X107136000Y-106223000D01*
X107142000Y-106219000D01*
X107147000Y-106215000D01*
X107152000Y-106212000D01*
X107158000Y-106209000D01*
X107164000Y-106206000D01*
X107170000Y-106203000D01*
X107176000Y-106201000D01*
X107183000Y-106199000D01*
X107189000Y-106198000D01*
X107195000Y-106197000D01*
X107202000Y-106196000D01*
X107208000Y-106195000D01*
X107215000Y-106195000D01*
X107655000Y-106195000D01*
X107662000Y-106195000D01*
X107668000Y-106196000D01*
G37*
X105923000Y-116201000D02*
X105930000Y-116202000D01*
X105936000Y-116203000D01*
X105942000Y-116204000D01*
X105949000Y-116206000D01*
X105955000Y-116208000D01*
X105961000Y-116211000D01*
X105967000Y-116214000D01*
X105972000Y-116217000D01*
X105978000Y-116220000D01*
X105983000Y-116224000D01*
X105989000Y-116228000D01*
X105994000Y-116232000D01*
X105998000Y-116237000D01*
X106003000Y-116241000D01*
X106007000Y-116246000D01*
X106011000Y-116252000D01*
X106015000Y-116257000D01*
X106018000Y-116262000D01*
X106021000Y-116268000D01*
X106024000Y-116274000D01*
X106027000Y-116280000D01*
X106029000Y-116286000D01*
X106031000Y-116293000D01*
X106032000Y-116299000D01*
X106033000Y-116305000D01*
X106034000Y-116312000D01*
X106035000Y-116318000D01*
X106035000Y-116325000D01*
X106035000Y-116765000D01*
X106035000Y-116772000D01*
X106034000Y-116778000D01*
X106033000Y-116785000D01*
X106032000Y-116791000D01*
X106031000Y-116797000D01*
X106029000Y-116804000D01*
X106027000Y-116810000D01*
X106024000Y-116816000D01*
X106021000Y-116822000D01*
X106018000Y-116828000D01*
X106015000Y-116833000D01*
X106011000Y-116838000D01*
X106007000Y-116844000D01*
X106003000Y-116849000D01*
X105998000Y-116853000D01*
X105994000Y-116858000D01*
X105989000Y-116862000D01*
X105983000Y-116866000D01*
X105978000Y-116870000D01*
X105972000Y-116873000D01*
X105967000Y-116876000D01*
X105961000Y-116879000D01*
X105955000Y-116882000D01*
X105949000Y-116884000D01*
X105942000Y-116886000D01*
X105936000Y-116887000D01*
X105930000Y-116888000D01*
X105923000Y-116889000D01*
X105917000Y-116890000D01*
X105910000Y-116890000D01*
X105710000Y-116890000D01*
X105703000Y-116890000D01*
X105697000Y-116889000D01*
X105690000Y-116888000D01*
X105684000Y-116887000D01*
X105678000Y-116886000D01*
X105671000Y-116884000D01*
X105665000Y-116882000D01*
X105659000Y-116879000D01*
X105653000Y-116876000D01*
X105648000Y-116873000D01*
X105642000Y-116870000D01*
X105637000Y-116866000D01*
X105631000Y-116862000D01*
X105626000Y-116858000D01*
X105622000Y-116853000D01*
X105617000Y-116849000D01*
X105613000Y-116844000D01*
X105609000Y-116838000D01*
X105605000Y-116833000D01*
X105602000Y-116828000D01*
X105599000Y-116822000D01*
X105596000Y-116816000D01*
X105593000Y-116810000D01*
X105591000Y-116804000D01*
X105589000Y-116797000D01*
X105588000Y-116791000D01*
X105587000Y-116785000D01*
X105586000Y-116778000D01*
X105585000Y-116772000D01*
X105585000Y-116765000D01*
X105585000Y-116325000D01*
X105585000Y-116318000D01*
X105586000Y-116312000D01*
X105587000Y-116305000D01*
X105588000Y-116299000D01*
X105589000Y-116293000D01*
X105591000Y-116286000D01*
X105593000Y-116280000D01*
X105596000Y-116274000D01*
X105599000Y-116268000D01*
X105602000Y-116262000D01*
X105605000Y-116257000D01*
X105609000Y-116252000D01*
X105613000Y-116246000D01*
X105617000Y-116241000D01*
X105622000Y-116237000D01*
X105626000Y-116232000D01*
X105631000Y-116228000D01*
X105637000Y-116224000D01*
X105642000Y-116220000D01*
X105648000Y-116217000D01*
X105653000Y-116214000D01*
X105659000Y-116211000D01*
X105665000Y-116208000D01*
X105671000Y-116206000D01*
X105678000Y-116204000D01*
X105684000Y-116203000D01*
X105690000Y-116202000D01*
X105697000Y-116201000D01*
X105703000Y-116200000D01*
X105710000Y-116200000D01*
X105910000Y-116200000D01*
X105917000Y-116200000D01*
X105923000Y-116201000D01*
G36*
X105923000Y-116201000D02*
G01*
X105930000Y-116202000D01*
X105936000Y-116203000D01*
X105942000Y-116204000D01*
X105949000Y-116206000D01*
X105955000Y-116208000D01*
X105961000Y-116211000D01*
X105967000Y-116214000D01*
X105972000Y-116217000D01*
X105978000Y-116220000D01*
X105983000Y-116224000D01*
X105989000Y-116228000D01*
X105994000Y-116232000D01*
X105998000Y-116237000D01*
X106003000Y-116241000D01*
X106007000Y-116246000D01*
X106011000Y-116252000D01*
X106015000Y-116257000D01*
X106018000Y-116262000D01*
X106021000Y-116268000D01*
X106024000Y-116274000D01*
X106027000Y-116280000D01*
X106029000Y-116286000D01*
X106031000Y-116293000D01*
X106032000Y-116299000D01*
X106033000Y-116305000D01*
X106034000Y-116312000D01*
X106035000Y-116318000D01*
X106035000Y-116325000D01*
X106035000Y-116765000D01*
X106035000Y-116772000D01*
X106034000Y-116778000D01*
X106033000Y-116785000D01*
X106032000Y-116791000D01*
X106031000Y-116797000D01*
X106029000Y-116804000D01*
X106027000Y-116810000D01*
X106024000Y-116816000D01*
X106021000Y-116822000D01*
X106018000Y-116828000D01*
X106015000Y-116833000D01*
X106011000Y-116838000D01*
X106007000Y-116844000D01*
X106003000Y-116849000D01*
X105998000Y-116853000D01*
X105994000Y-116858000D01*
X105989000Y-116862000D01*
X105983000Y-116866000D01*
X105978000Y-116870000D01*
X105972000Y-116873000D01*
X105967000Y-116876000D01*
X105961000Y-116879000D01*
X105955000Y-116882000D01*
X105949000Y-116884000D01*
X105942000Y-116886000D01*
X105936000Y-116887000D01*
X105930000Y-116888000D01*
X105923000Y-116889000D01*
X105917000Y-116890000D01*
X105910000Y-116890000D01*
X105710000Y-116890000D01*
X105703000Y-116890000D01*
X105697000Y-116889000D01*
X105690000Y-116888000D01*
X105684000Y-116887000D01*
X105678000Y-116886000D01*
X105671000Y-116884000D01*
X105665000Y-116882000D01*
X105659000Y-116879000D01*
X105653000Y-116876000D01*
X105648000Y-116873000D01*
X105642000Y-116870000D01*
X105637000Y-116866000D01*
X105631000Y-116862000D01*
X105626000Y-116858000D01*
X105622000Y-116853000D01*
X105617000Y-116849000D01*
X105613000Y-116844000D01*
X105609000Y-116838000D01*
X105605000Y-116833000D01*
X105602000Y-116828000D01*
X105599000Y-116822000D01*
X105596000Y-116816000D01*
X105593000Y-116810000D01*
X105591000Y-116804000D01*
X105589000Y-116797000D01*
X105588000Y-116791000D01*
X105587000Y-116785000D01*
X105586000Y-116778000D01*
X105585000Y-116772000D01*
X105585000Y-116765000D01*
X105585000Y-116325000D01*
X105585000Y-116318000D01*
X105586000Y-116312000D01*
X105587000Y-116305000D01*
X105588000Y-116299000D01*
X105589000Y-116293000D01*
X105591000Y-116286000D01*
X105593000Y-116280000D01*
X105596000Y-116274000D01*
X105599000Y-116268000D01*
X105602000Y-116262000D01*
X105605000Y-116257000D01*
X105609000Y-116252000D01*
X105613000Y-116246000D01*
X105617000Y-116241000D01*
X105622000Y-116237000D01*
X105626000Y-116232000D01*
X105631000Y-116228000D01*
X105637000Y-116224000D01*
X105642000Y-116220000D01*
X105648000Y-116217000D01*
X105653000Y-116214000D01*
X105659000Y-116211000D01*
X105665000Y-116208000D01*
X105671000Y-116206000D01*
X105678000Y-116204000D01*
X105684000Y-116203000D01*
X105690000Y-116202000D01*
X105697000Y-116201000D01*
X105703000Y-116200000D01*
X105710000Y-116200000D01*
X105910000Y-116200000D01*
X105917000Y-116200000D01*
X105923000Y-116201000D01*
G37*
X105923000Y-118531000D02*
X105930000Y-118532000D01*
X105936000Y-118533000D01*
X105942000Y-118534000D01*
X105949000Y-118536000D01*
X105955000Y-118538000D01*
X105961000Y-118541000D01*
X105967000Y-118544000D01*
X105972000Y-118547000D01*
X105978000Y-118550000D01*
X105983000Y-118554000D01*
X105989000Y-118558000D01*
X105994000Y-118562000D01*
X105998000Y-118567000D01*
X106003000Y-118571000D01*
X106007000Y-118576000D01*
X106011000Y-118582000D01*
X106015000Y-118587000D01*
X106018000Y-118592000D01*
X106021000Y-118598000D01*
X106024000Y-118604000D01*
X106027000Y-118610000D01*
X106029000Y-118616000D01*
X106031000Y-118623000D01*
X106032000Y-118629000D01*
X106033000Y-118635000D01*
X106034000Y-118642000D01*
X106035000Y-118648000D01*
X106035000Y-118655000D01*
X106035000Y-119095000D01*
X106035000Y-119102000D01*
X106034000Y-119108000D01*
X106033000Y-119115000D01*
X106032000Y-119121000D01*
X106031000Y-119127000D01*
X106029000Y-119134000D01*
X106027000Y-119140000D01*
X106024000Y-119146000D01*
X106021000Y-119152000D01*
X106018000Y-119158000D01*
X106015000Y-119163000D01*
X106011000Y-119168000D01*
X106007000Y-119174000D01*
X106003000Y-119179000D01*
X105998000Y-119183000D01*
X105994000Y-119188000D01*
X105989000Y-119192000D01*
X105983000Y-119196000D01*
X105978000Y-119200000D01*
X105972000Y-119203000D01*
X105967000Y-119206000D01*
X105961000Y-119209000D01*
X105955000Y-119212000D01*
X105949000Y-119214000D01*
X105942000Y-119216000D01*
X105936000Y-119217000D01*
X105930000Y-119218000D01*
X105923000Y-119219000D01*
X105917000Y-119220000D01*
X105910000Y-119220000D01*
X105710000Y-119220000D01*
X105703000Y-119220000D01*
X105697000Y-119219000D01*
X105690000Y-119218000D01*
X105684000Y-119217000D01*
X105678000Y-119216000D01*
X105671000Y-119214000D01*
X105665000Y-119212000D01*
X105659000Y-119209000D01*
X105653000Y-119206000D01*
X105648000Y-119203000D01*
X105642000Y-119200000D01*
X105637000Y-119196000D01*
X105631000Y-119192000D01*
X105626000Y-119188000D01*
X105622000Y-119183000D01*
X105617000Y-119179000D01*
X105613000Y-119174000D01*
X105609000Y-119168000D01*
X105605000Y-119163000D01*
X105602000Y-119158000D01*
X105599000Y-119152000D01*
X105596000Y-119146000D01*
X105593000Y-119140000D01*
X105591000Y-119134000D01*
X105589000Y-119127000D01*
X105588000Y-119121000D01*
X105587000Y-119115000D01*
X105586000Y-119108000D01*
X105585000Y-119102000D01*
X105585000Y-119095000D01*
X105585000Y-118655000D01*
X105585000Y-118648000D01*
X105586000Y-118642000D01*
X105587000Y-118635000D01*
X105588000Y-118629000D01*
X105589000Y-118623000D01*
X105591000Y-118616000D01*
X105593000Y-118610000D01*
X105596000Y-118604000D01*
X105599000Y-118598000D01*
X105602000Y-118592000D01*
X105605000Y-118587000D01*
X105609000Y-118582000D01*
X105613000Y-118576000D01*
X105617000Y-118571000D01*
X105622000Y-118567000D01*
X105626000Y-118562000D01*
X105631000Y-118558000D01*
X105637000Y-118554000D01*
X105642000Y-118550000D01*
X105648000Y-118547000D01*
X105653000Y-118544000D01*
X105659000Y-118541000D01*
X105665000Y-118538000D01*
X105671000Y-118536000D01*
X105678000Y-118534000D01*
X105684000Y-118533000D01*
X105690000Y-118532000D01*
X105697000Y-118531000D01*
X105703000Y-118530000D01*
X105710000Y-118530000D01*
X105910000Y-118530000D01*
X105917000Y-118530000D01*
X105923000Y-118531000D01*
G36*
X105923000Y-118531000D02*
G01*
X105930000Y-118532000D01*
X105936000Y-118533000D01*
X105942000Y-118534000D01*
X105949000Y-118536000D01*
X105955000Y-118538000D01*
X105961000Y-118541000D01*
X105967000Y-118544000D01*
X105972000Y-118547000D01*
X105978000Y-118550000D01*
X105983000Y-118554000D01*
X105989000Y-118558000D01*
X105994000Y-118562000D01*
X105998000Y-118567000D01*
X106003000Y-118571000D01*
X106007000Y-118576000D01*
X106011000Y-118582000D01*
X106015000Y-118587000D01*
X106018000Y-118592000D01*
X106021000Y-118598000D01*
X106024000Y-118604000D01*
X106027000Y-118610000D01*
X106029000Y-118616000D01*
X106031000Y-118623000D01*
X106032000Y-118629000D01*
X106033000Y-118635000D01*
X106034000Y-118642000D01*
X106035000Y-118648000D01*
X106035000Y-118655000D01*
X106035000Y-119095000D01*
X106035000Y-119102000D01*
X106034000Y-119108000D01*
X106033000Y-119115000D01*
X106032000Y-119121000D01*
X106031000Y-119127000D01*
X106029000Y-119134000D01*
X106027000Y-119140000D01*
X106024000Y-119146000D01*
X106021000Y-119152000D01*
X106018000Y-119158000D01*
X106015000Y-119163000D01*
X106011000Y-119168000D01*
X106007000Y-119174000D01*
X106003000Y-119179000D01*
X105998000Y-119183000D01*
X105994000Y-119188000D01*
X105989000Y-119192000D01*
X105983000Y-119196000D01*
X105978000Y-119200000D01*
X105972000Y-119203000D01*
X105967000Y-119206000D01*
X105961000Y-119209000D01*
X105955000Y-119212000D01*
X105949000Y-119214000D01*
X105942000Y-119216000D01*
X105936000Y-119217000D01*
X105930000Y-119218000D01*
X105923000Y-119219000D01*
X105917000Y-119220000D01*
X105910000Y-119220000D01*
X105710000Y-119220000D01*
X105703000Y-119220000D01*
X105697000Y-119219000D01*
X105690000Y-119218000D01*
X105684000Y-119217000D01*
X105678000Y-119216000D01*
X105671000Y-119214000D01*
X105665000Y-119212000D01*
X105659000Y-119209000D01*
X105653000Y-119206000D01*
X105648000Y-119203000D01*
X105642000Y-119200000D01*
X105637000Y-119196000D01*
X105631000Y-119192000D01*
X105626000Y-119188000D01*
X105622000Y-119183000D01*
X105617000Y-119179000D01*
X105613000Y-119174000D01*
X105609000Y-119168000D01*
X105605000Y-119163000D01*
X105602000Y-119158000D01*
X105599000Y-119152000D01*
X105596000Y-119146000D01*
X105593000Y-119140000D01*
X105591000Y-119134000D01*
X105589000Y-119127000D01*
X105588000Y-119121000D01*
X105587000Y-119115000D01*
X105586000Y-119108000D01*
X105585000Y-119102000D01*
X105585000Y-119095000D01*
X105585000Y-118655000D01*
X105585000Y-118648000D01*
X105586000Y-118642000D01*
X105587000Y-118635000D01*
X105588000Y-118629000D01*
X105589000Y-118623000D01*
X105591000Y-118616000D01*
X105593000Y-118610000D01*
X105596000Y-118604000D01*
X105599000Y-118598000D01*
X105602000Y-118592000D01*
X105605000Y-118587000D01*
X105609000Y-118582000D01*
X105613000Y-118576000D01*
X105617000Y-118571000D01*
X105622000Y-118567000D01*
X105626000Y-118562000D01*
X105631000Y-118558000D01*
X105637000Y-118554000D01*
X105642000Y-118550000D01*
X105648000Y-118547000D01*
X105653000Y-118544000D01*
X105659000Y-118541000D01*
X105665000Y-118538000D01*
X105671000Y-118536000D01*
X105678000Y-118534000D01*
X105684000Y-118533000D01*
X105690000Y-118532000D01*
X105697000Y-118531000D01*
X105703000Y-118530000D01*
X105710000Y-118530000D01*
X105910000Y-118530000D01*
X105917000Y-118530000D01*
X105923000Y-118531000D01*
G37*
X105878000Y-116986000D02*
X105885000Y-116987000D01*
X105891000Y-116988000D01*
X105897000Y-116989000D01*
X105904000Y-116991000D01*
X105910000Y-116993000D01*
X105916000Y-116996000D01*
X105922000Y-116999000D01*
X105928000Y-117002000D01*
X105933000Y-117005000D01*
X105938000Y-117009000D01*
X105944000Y-117013000D01*
X105949000Y-117017000D01*
X105953000Y-117022000D01*
X105958000Y-117026000D01*
X105962000Y-117031000D01*
X105966000Y-117037000D01*
X105970000Y-117042000D01*
X105973000Y-117048000D01*
X105976000Y-117053000D01*
X105979000Y-117059000D01*
X105982000Y-117065000D01*
X105984000Y-117071000D01*
X105986000Y-117078000D01*
X105987000Y-117084000D01*
X105988000Y-117090000D01*
X105989000Y-117097000D01*
X105990000Y-117103000D01*
X105990000Y-117110000D01*
X105990000Y-117310000D01*
X105990000Y-117317000D01*
X105989000Y-117323000D01*
X105988000Y-117330000D01*
X105987000Y-117336000D01*
X105986000Y-117342000D01*
X105984000Y-117349000D01*
X105982000Y-117355000D01*
X105979000Y-117361000D01*
X105976000Y-117367000D01*
X105973000Y-117372000D01*
X105970000Y-117378000D01*
X105966000Y-117383000D01*
X105962000Y-117389000D01*
X105958000Y-117394000D01*
X105953000Y-117398000D01*
X105949000Y-117403000D01*
X105944000Y-117407000D01*
X105938000Y-117411000D01*
X105933000Y-117415000D01*
X105928000Y-117418000D01*
X105922000Y-117421000D01*
X105916000Y-117424000D01*
X105910000Y-117427000D01*
X105904000Y-117429000D01*
X105897000Y-117431000D01*
X105891000Y-117432000D01*
X105885000Y-117433000D01*
X105878000Y-117434000D01*
X105872000Y-117435000D01*
X105865000Y-117435000D01*
X105425000Y-117435000D01*
X105418000Y-117435000D01*
X105412000Y-117434000D01*
X105405000Y-117433000D01*
X105399000Y-117432000D01*
X105393000Y-117431000D01*
X105386000Y-117429000D01*
X105380000Y-117427000D01*
X105374000Y-117424000D01*
X105368000Y-117421000D01*
X105362000Y-117418000D01*
X105357000Y-117415000D01*
X105352000Y-117411000D01*
X105346000Y-117407000D01*
X105341000Y-117403000D01*
X105337000Y-117398000D01*
X105332000Y-117394000D01*
X105328000Y-117389000D01*
X105324000Y-117383000D01*
X105320000Y-117378000D01*
X105317000Y-117372000D01*
X105314000Y-117367000D01*
X105311000Y-117361000D01*
X105308000Y-117355000D01*
X105306000Y-117349000D01*
X105304000Y-117342000D01*
X105303000Y-117336000D01*
X105302000Y-117330000D01*
X105301000Y-117323000D01*
X105300000Y-117317000D01*
X105300000Y-117310000D01*
X105300000Y-117110000D01*
X105300000Y-117103000D01*
X105301000Y-117097000D01*
X105302000Y-117090000D01*
X105303000Y-117084000D01*
X105304000Y-117078000D01*
X105306000Y-117071000D01*
X105308000Y-117065000D01*
X105311000Y-117059000D01*
X105314000Y-117053000D01*
X105317000Y-117047000D01*
X105320000Y-117042000D01*
X105324000Y-117037000D01*
X105328000Y-117031000D01*
X105332000Y-117026000D01*
X105337000Y-117022000D01*
X105341000Y-117017000D01*
X105346000Y-117013000D01*
X105352000Y-117009000D01*
X105357000Y-117005000D01*
X105362000Y-117002000D01*
X105368000Y-116999000D01*
X105374000Y-116996000D01*
X105380000Y-116993000D01*
X105386000Y-116991000D01*
X105393000Y-116989000D01*
X105399000Y-116988000D01*
X105405000Y-116987000D01*
X105412000Y-116986000D01*
X105418000Y-116985000D01*
X105425000Y-116985000D01*
X105865000Y-116985000D01*
X105872000Y-116985000D01*
X105878000Y-116986000D01*
G36*
X105878000Y-116986000D02*
G01*
X105885000Y-116987000D01*
X105891000Y-116988000D01*
X105897000Y-116989000D01*
X105904000Y-116991000D01*
X105910000Y-116993000D01*
X105916000Y-116996000D01*
X105922000Y-116999000D01*
X105928000Y-117002000D01*
X105933000Y-117005000D01*
X105938000Y-117009000D01*
X105944000Y-117013000D01*
X105949000Y-117017000D01*
X105953000Y-117022000D01*
X105958000Y-117026000D01*
X105962000Y-117031000D01*
X105966000Y-117037000D01*
X105970000Y-117042000D01*
X105973000Y-117048000D01*
X105976000Y-117053000D01*
X105979000Y-117059000D01*
X105982000Y-117065000D01*
X105984000Y-117071000D01*
X105986000Y-117078000D01*
X105987000Y-117084000D01*
X105988000Y-117090000D01*
X105989000Y-117097000D01*
X105990000Y-117103000D01*
X105990000Y-117110000D01*
X105990000Y-117310000D01*
X105990000Y-117317000D01*
X105989000Y-117323000D01*
X105988000Y-117330000D01*
X105987000Y-117336000D01*
X105986000Y-117342000D01*
X105984000Y-117349000D01*
X105982000Y-117355000D01*
X105979000Y-117361000D01*
X105976000Y-117367000D01*
X105973000Y-117372000D01*
X105970000Y-117378000D01*
X105966000Y-117383000D01*
X105962000Y-117389000D01*
X105958000Y-117394000D01*
X105953000Y-117398000D01*
X105949000Y-117403000D01*
X105944000Y-117407000D01*
X105938000Y-117411000D01*
X105933000Y-117415000D01*
X105928000Y-117418000D01*
X105922000Y-117421000D01*
X105916000Y-117424000D01*
X105910000Y-117427000D01*
X105904000Y-117429000D01*
X105897000Y-117431000D01*
X105891000Y-117432000D01*
X105885000Y-117433000D01*
X105878000Y-117434000D01*
X105872000Y-117435000D01*
X105865000Y-117435000D01*
X105425000Y-117435000D01*
X105418000Y-117435000D01*
X105412000Y-117434000D01*
X105405000Y-117433000D01*
X105399000Y-117432000D01*
X105393000Y-117431000D01*
X105386000Y-117429000D01*
X105380000Y-117427000D01*
X105374000Y-117424000D01*
X105368000Y-117421000D01*
X105362000Y-117418000D01*
X105357000Y-117415000D01*
X105352000Y-117411000D01*
X105346000Y-117407000D01*
X105341000Y-117403000D01*
X105337000Y-117398000D01*
X105332000Y-117394000D01*
X105328000Y-117389000D01*
X105324000Y-117383000D01*
X105320000Y-117378000D01*
X105317000Y-117372000D01*
X105314000Y-117367000D01*
X105311000Y-117361000D01*
X105308000Y-117355000D01*
X105306000Y-117349000D01*
X105304000Y-117342000D01*
X105303000Y-117336000D01*
X105302000Y-117330000D01*
X105301000Y-117323000D01*
X105300000Y-117317000D01*
X105300000Y-117310000D01*
X105300000Y-117110000D01*
X105300000Y-117103000D01*
X105301000Y-117097000D01*
X105302000Y-117090000D01*
X105303000Y-117084000D01*
X105304000Y-117078000D01*
X105306000Y-117071000D01*
X105308000Y-117065000D01*
X105311000Y-117059000D01*
X105314000Y-117053000D01*
X105317000Y-117047000D01*
X105320000Y-117042000D01*
X105324000Y-117037000D01*
X105328000Y-117031000D01*
X105332000Y-117026000D01*
X105337000Y-117022000D01*
X105341000Y-117017000D01*
X105346000Y-117013000D01*
X105352000Y-117009000D01*
X105357000Y-117005000D01*
X105362000Y-117002000D01*
X105368000Y-116999000D01*
X105374000Y-116996000D01*
X105380000Y-116993000D01*
X105386000Y-116991000D01*
X105393000Y-116989000D01*
X105399000Y-116988000D01*
X105405000Y-116987000D01*
X105412000Y-116986000D01*
X105418000Y-116985000D01*
X105425000Y-116985000D01*
X105865000Y-116985000D01*
X105872000Y-116985000D01*
X105878000Y-116986000D01*
G37*
X105878000Y-117486000D02*
X105885000Y-117487000D01*
X105891000Y-117488000D01*
X105897000Y-117489000D01*
X105904000Y-117491000D01*
X105910000Y-117493000D01*
X105916000Y-117496000D01*
X105922000Y-117499000D01*
X105928000Y-117502000D01*
X105933000Y-117505000D01*
X105938000Y-117509000D01*
X105944000Y-117513000D01*
X105949000Y-117517000D01*
X105953000Y-117522000D01*
X105958000Y-117526000D01*
X105962000Y-117531000D01*
X105966000Y-117537000D01*
X105970000Y-117542000D01*
X105973000Y-117548000D01*
X105976000Y-117553000D01*
X105979000Y-117559000D01*
X105982000Y-117565000D01*
X105984000Y-117571000D01*
X105986000Y-117578000D01*
X105987000Y-117584000D01*
X105988000Y-117590000D01*
X105989000Y-117597000D01*
X105990000Y-117603000D01*
X105990000Y-117610000D01*
X105990000Y-117810000D01*
X105990000Y-117817000D01*
X105989000Y-117823000D01*
X105988000Y-117830000D01*
X105987000Y-117836000D01*
X105986000Y-117842000D01*
X105984000Y-117849000D01*
X105982000Y-117855000D01*
X105979000Y-117861000D01*
X105976000Y-117867000D01*
X105973000Y-117873000D01*
X105970000Y-117878000D01*
X105966000Y-117883000D01*
X105962000Y-117889000D01*
X105958000Y-117894000D01*
X105953000Y-117898000D01*
X105949000Y-117903000D01*
X105944000Y-117907000D01*
X105938000Y-117911000D01*
X105933000Y-117915000D01*
X105928000Y-117918000D01*
X105922000Y-117921000D01*
X105916000Y-117924000D01*
X105910000Y-117927000D01*
X105904000Y-117929000D01*
X105897000Y-117931000D01*
X105891000Y-117932000D01*
X105885000Y-117933000D01*
X105878000Y-117934000D01*
X105872000Y-117935000D01*
X105865000Y-117935000D01*
X105425000Y-117935000D01*
X105418000Y-117935000D01*
X105412000Y-117934000D01*
X105405000Y-117933000D01*
X105399000Y-117932000D01*
X105393000Y-117931000D01*
X105386000Y-117929000D01*
X105380000Y-117927000D01*
X105374000Y-117924000D01*
X105368000Y-117921000D01*
X105362000Y-117918000D01*
X105357000Y-117915000D01*
X105352000Y-117911000D01*
X105346000Y-117907000D01*
X105341000Y-117903000D01*
X105337000Y-117898000D01*
X105332000Y-117894000D01*
X105328000Y-117889000D01*
X105324000Y-117883000D01*
X105320000Y-117878000D01*
X105317000Y-117873000D01*
X105314000Y-117867000D01*
X105311000Y-117861000D01*
X105308000Y-117855000D01*
X105306000Y-117849000D01*
X105304000Y-117842000D01*
X105303000Y-117836000D01*
X105302000Y-117830000D01*
X105301000Y-117823000D01*
X105300000Y-117817000D01*
X105300000Y-117810000D01*
X105300000Y-117610000D01*
X105300000Y-117603000D01*
X105301000Y-117597000D01*
X105302000Y-117590000D01*
X105303000Y-117584000D01*
X105304000Y-117578000D01*
X105306000Y-117571000D01*
X105308000Y-117565000D01*
X105311000Y-117559000D01*
X105314000Y-117553000D01*
X105317000Y-117547000D01*
X105320000Y-117542000D01*
X105324000Y-117537000D01*
X105328000Y-117531000D01*
X105332000Y-117526000D01*
X105337000Y-117522000D01*
X105341000Y-117517000D01*
X105346000Y-117513000D01*
X105352000Y-117509000D01*
X105357000Y-117505000D01*
X105362000Y-117502000D01*
X105368000Y-117499000D01*
X105374000Y-117496000D01*
X105380000Y-117493000D01*
X105386000Y-117491000D01*
X105393000Y-117489000D01*
X105399000Y-117488000D01*
X105405000Y-117487000D01*
X105412000Y-117486000D01*
X105418000Y-117485000D01*
X105425000Y-117485000D01*
X105865000Y-117485000D01*
X105872000Y-117485000D01*
X105878000Y-117486000D01*
G36*
X105878000Y-117486000D02*
G01*
X105885000Y-117487000D01*
X105891000Y-117488000D01*
X105897000Y-117489000D01*
X105904000Y-117491000D01*
X105910000Y-117493000D01*
X105916000Y-117496000D01*
X105922000Y-117499000D01*
X105928000Y-117502000D01*
X105933000Y-117505000D01*
X105938000Y-117509000D01*
X105944000Y-117513000D01*
X105949000Y-117517000D01*
X105953000Y-117522000D01*
X105958000Y-117526000D01*
X105962000Y-117531000D01*
X105966000Y-117537000D01*
X105970000Y-117542000D01*
X105973000Y-117548000D01*
X105976000Y-117553000D01*
X105979000Y-117559000D01*
X105982000Y-117565000D01*
X105984000Y-117571000D01*
X105986000Y-117578000D01*
X105987000Y-117584000D01*
X105988000Y-117590000D01*
X105989000Y-117597000D01*
X105990000Y-117603000D01*
X105990000Y-117610000D01*
X105990000Y-117810000D01*
X105990000Y-117817000D01*
X105989000Y-117823000D01*
X105988000Y-117830000D01*
X105987000Y-117836000D01*
X105986000Y-117842000D01*
X105984000Y-117849000D01*
X105982000Y-117855000D01*
X105979000Y-117861000D01*
X105976000Y-117867000D01*
X105973000Y-117873000D01*
X105970000Y-117878000D01*
X105966000Y-117883000D01*
X105962000Y-117889000D01*
X105958000Y-117894000D01*
X105953000Y-117898000D01*
X105949000Y-117903000D01*
X105944000Y-117907000D01*
X105938000Y-117911000D01*
X105933000Y-117915000D01*
X105928000Y-117918000D01*
X105922000Y-117921000D01*
X105916000Y-117924000D01*
X105910000Y-117927000D01*
X105904000Y-117929000D01*
X105897000Y-117931000D01*
X105891000Y-117932000D01*
X105885000Y-117933000D01*
X105878000Y-117934000D01*
X105872000Y-117935000D01*
X105865000Y-117935000D01*
X105425000Y-117935000D01*
X105418000Y-117935000D01*
X105412000Y-117934000D01*
X105405000Y-117933000D01*
X105399000Y-117932000D01*
X105393000Y-117931000D01*
X105386000Y-117929000D01*
X105380000Y-117927000D01*
X105374000Y-117924000D01*
X105368000Y-117921000D01*
X105362000Y-117918000D01*
X105357000Y-117915000D01*
X105352000Y-117911000D01*
X105346000Y-117907000D01*
X105341000Y-117903000D01*
X105337000Y-117898000D01*
X105332000Y-117894000D01*
X105328000Y-117889000D01*
X105324000Y-117883000D01*
X105320000Y-117878000D01*
X105317000Y-117873000D01*
X105314000Y-117867000D01*
X105311000Y-117861000D01*
X105308000Y-117855000D01*
X105306000Y-117849000D01*
X105304000Y-117842000D01*
X105303000Y-117836000D01*
X105302000Y-117830000D01*
X105301000Y-117823000D01*
X105300000Y-117817000D01*
X105300000Y-117810000D01*
X105300000Y-117610000D01*
X105300000Y-117603000D01*
X105301000Y-117597000D01*
X105302000Y-117590000D01*
X105303000Y-117584000D01*
X105304000Y-117578000D01*
X105306000Y-117571000D01*
X105308000Y-117565000D01*
X105311000Y-117559000D01*
X105314000Y-117553000D01*
X105317000Y-117547000D01*
X105320000Y-117542000D01*
X105324000Y-117537000D01*
X105328000Y-117531000D01*
X105332000Y-117526000D01*
X105337000Y-117522000D01*
X105341000Y-117517000D01*
X105346000Y-117513000D01*
X105352000Y-117509000D01*
X105357000Y-117505000D01*
X105362000Y-117502000D01*
X105368000Y-117499000D01*
X105374000Y-117496000D01*
X105380000Y-117493000D01*
X105386000Y-117491000D01*
X105393000Y-117489000D01*
X105399000Y-117488000D01*
X105405000Y-117487000D01*
X105412000Y-117486000D01*
X105418000Y-117485000D01*
X105425000Y-117485000D01*
X105865000Y-117485000D01*
X105872000Y-117485000D01*
X105878000Y-117486000D01*
G37*
X105878000Y-117986000D02*
X105885000Y-117987000D01*
X105891000Y-117988000D01*
X105897000Y-117989000D01*
X105904000Y-117991000D01*
X105910000Y-117993000D01*
X105916000Y-117996000D01*
X105922000Y-117999000D01*
X105928000Y-118002000D01*
X105933000Y-118005000D01*
X105938000Y-118009000D01*
X105944000Y-118013000D01*
X105949000Y-118017000D01*
X105953000Y-118022000D01*
X105958000Y-118026000D01*
X105962000Y-118031000D01*
X105966000Y-118037000D01*
X105970000Y-118042000D01*
X105973000Y-118048000D01*
X105976000Y-118053000D01*
X105979000Y-118059000D01*
X105982000Y-118065000D01*
X105984000Y-118071000D01*
X105986000Y-118078000D01*
X105987000Y-118084000D01*
X105988000Y-118090000D01*
X105989000Y-118097000D01*
X105990000Y-118103000D01*
X105990000Y-118110000D01*
X105990000Y-118310000D01*
X105990000Y-118317000D01*
X105989000Y-118323000D01*
X105988000Y-118330000D01*
X105987000Y-118336000D01*
X105986000Y-118342000D01*
X105984000Y-118349000D01*
X105982000Y-118355000D01*
X105979000Y-118361000D01*
X105976000Y-118367000D01*
X105973000Y-118372000D01*
X105970000Y-118378000D01*
X105966000Y-118383000D01*
X105962000Y-118389000D01*
X105958000Y-118394000D01*
X105953000Y-118398000D01*
X105949000Y-118403000D01*
X105944000Y-118407000D01*
X105938000Y-118411000D01*
X105933000Y-118415000D01*
X105928000Y-118418000D01*
X105922000Y-118421000D01*
X105916000Y-118424000D01*
X105910000Y-118427000D01*
X105904000Y-118429000D01*
X105897000Y-118431000D01*
X105891000Y-118432000D01*
X105885000Y-118433000D01*
X105878000Y-118434000D01*
X105872000Y-118435000D01*
X105865000Y-118435000D01*
X105425000Y-118435000D01*
X105418000Y-118435000D01*
X105412000Y-118434000D01*
X105405000Y-118433000D01*
X105399000Y-118432000D01*
X105393000Y-118431000D01*
X105386000Y-118429000D01*
X105380000Y-118427000D01*
X105374000Y-118424000D01*
X105368000Y-118421000D01*
X105362000Y-118418000D01*
X105357000Y-118415000D01*
X105352000Y-118411000D01*
X105346000Y-118407000D01*
X105341000Y-118403000D01*
X105337000Y-118398000D01*
X105332000Y-118394000D01*
X105328000Y-118389000D01*
X105324000Y-118383000D01*
X105320000Y-118378000D01*
X105317000Y-118372000D01*
X105314000Y-118367000D01*
X105311000Y-118361000D01*
X105308000Y-118355000D01*
X105306000Y-118349000D01*
X105304000Y-118342000D01*
X105303000Y-118336000D01*
X105302000Y-118330000D01*
X105301000Y-118323000D01*
X105300000Y-118317000D01*
X105300000Y-118310000D01*
X105300000Y-118110000D01*
X105300000Y-118103000D01*
X105301000Y-118097000D01*
X105302000Y-118090000D01*
X105303000Y-118084000D01*
X105304000Y-118078000D01*
X105306000Y-118071000D01*
X105308000Y-118065000D01*
X105311000Y-118059000D01*
X105314000Y-118053000D01*
X105317000Y-118047000D01*
X105320000Y-118042000D01*
X105324000Y-118037000D01*
X105328000Y-118031000D01*
X105332000Y-118026000D01*
X105337000Y-118022000D01*
X105341000Y-118017000D01*
X105346000Y-118013000D01*
X105352000Y-118009000D01*
X105357000Y-118005000D01*
X105362000Y-118002000D01*
X105368000Y-117999000D01*
X105374000Y-117996000D01*
X105380000Y-117993000D01*
X105386000Y-117991000D01*
X105393000Y-117989000D01*
X105399000Y-117988000D01*
X105405000Y-117987000D01*
X105412000Y-117986000D01*
X105418000Y-117985000D01*
X105425000Y-117985000D01*
X105865000Y-117985000D01*
X105872000Y-117985000D01*
X105878000Y-117986000D01*
G36*
X105878000Y-117986000D02*
G01*
X105885000Y-117987000D01*
X105891000Y-117988000D01*
X105897000Y-117989000D01*
X105904000Y-117991000D01*
X105910000Y-117993000D01*
X105916000Y-117996000D01*
X105922000Y-117999000D01*
X105928000Y-118002000D01*
X105933000Y-118005000D01*
X105938000Y-118009000D01*
X105944000Y-118013000D01*
X105949000Y-118017000D01*
X105953000Y-118022000D01*
X105958000Y-118026000D01*
X105962000Y-118031000D01*
X105966000Y-118037000D01*
X105970000Y-118042000D01*
X105973000Y-118048000D01*
X105976000Y-118053000D01*
X105979000Y-118059000D01*
X105982000Y-118065000D01*
X105984000Y-118071000D01*
X105986000Y-118078000D01*
X105987000Y-118084000D01*
X105988000Y-118090000D01*
X105989000Y-118097000D01*
X105990000Y-118103000D01*
X105990000Y-118110000D01*
X105990000Y-118310000D01*
X105990000Y-118317000D01*
X105989000Y-118323000D01*
X105988000Y-118330000D01*
X105987000Y-118336000D01*
X105986000Y-118342000D01*
X105984000Y-118349000D01*
X105982000Y-118355000D01*
X105979000Y-118361000D01*
X105976000Y-118367000D01*
X105973000Y-118372000D01*
X105970000Y-118378000D01*
X105966000Y-118383000D01*
X105962000Y-118389000D01*
X105958000Y-118394000D01*
X105953000Y-118398000D01*
X105949000Y-118403000D01*
X105944000Y-118407000D01*
X105938000Y-118411000D01*
X105933000Y-118415000D01*
X105928000Y-118418000D01*
X105922000Y-118421000D01*
X105916000Y-118424000D01*
X105910000Y-118427000D01*
X105904000Y-118429000D01*
X105897000Y-118431000D01*
X105891000Y-118432000D01*
X105885000Y-118433000D01*
X105878000Y-118434000D01*
X105872000Y-118435000D01*
X105865000Y-118435000D01*
X105425000Y-118435000D01*
X105418000Y-118435000D01*
X105412000Y-118434000D01*
X105405000Y-118433000D01*
X105399000Y-118432000D01*
X105393000Y-118431000D01*
X105386000Y-118429000D01*
X105380000Y-118427000D01*
X105374000Y-118424000D01*
X105368000Y-118421000D01*
X105362000Y-118418000D01*
X105357000Y-118415000D01*
X105352000Y-118411000D01*
X105346000Y-118407000D01*
X105341000Y-118403000D01*
X105337000Y-118398000D01*
X105332000Y-118394000D01*
X105328000Y-118389000D01*
X105324000Y-118383000D01*
X105320000Y-118378000D01*
X105317000Y-118372000D01*
X105314000Y-118367000D01*
X105311000Y-118361000D01*
X105308000Y-118355000D01*
X105306000Y-118349000D01*
X105304000Y-118342000D01*
X105303000Y-118336000D01*
X105302000Y-118330000D01*
X105301000Y-118323000D01*
X105300000Y-118317000D01*
X105300000Y-118310000D01*
X105300000Y-118110000D01*
X105300000Y-118103000D01*
X105301000Y-118097000D01*
X105302000Y-118090000D01*
X105303000Y-118084000D01*
X105304000Y-118078000D01*
X105306000Y-118071000D01*
X105308000Y-118065000D01*
X105311000Y-118059000D01*
X105314000Y-118053000D01*
X105317000Y-118047000D01*
X105320000Y-118042000D01*
X105324000Y-118037000D01*
X105328000Y-118031000D01*
X105332000Y-118026000D01*
X105337000Y-118022000D01*
X105341000Y-118017000D01*
X105346000Y-118013000D01*
X105352000Y-118009000D01*
X105357000Y-118005000D01*
X105362000Y-118002000D01*
X105368000Y-117999000D01*
X105374000Y-117996000D01*
X105380000Y-117993000D01*
X105386000Y-117991000D01*
X105393000Y-117989000D01*
X105399000Y-117988000D01*
X105405000Y-117987000D01*
X105412000Y-117986000D01*
X105418000Y-117985000D01*
X105425000Y-117985000D01*
X105865000Y-117985000D01*
X105872000Y-117985000D01*
X105878000Y-117986000D01*
G37*
X106423000Y-116201000D02*
X106430000Y-116202000D01*
X106436000Y-116203000D01*
X106442000Y-116204000D01*
X106449000Y-116206000D01*
X106455000Y-116208000D01*
X106461000Y-116211000D01*
X106467000Y-116214000D01*
X106472000Y-116217000D01*
X106478000Y-116220000D01*
X106483000Y-116224000D01*
X106489000Y-116228000D01*
X106494000Y-116232000D01*
X106498000Y-116237000D01*
X106503000Y-116241000D01*
X106507000Y-116246000D01*
X106511000Y-116252000D01*
X106515000Y-116257000D01*
X106518000Y-116262000D01*
X106521000Y-116268000D01*
X106524000Y-116274000D01*
X106527000Y-116280000D01*
X106529000Y-116286000D01*
X106531000Y-116293000D01*
X106532000Y-116299000D01*
X106533000Y-116305000D01*
X106534000Y-116312000D01*
X106535000Y-116318000D01*
X106535000Y-116325000D01*
X106535000Y-116765000D01*
X106535000Y-116772000D01*
X106534000Y-116778000D01*
X106533000Y-116785000D01*
X106532000Y-116791000D01*
X106531000Y-116797000D01*
X106529000Y-116804000D01*
X106527000Y-116810000D01*
X106524000Y-116816000D01*
X106521000Y-116822000D01*
X106518000Y-116828000D01*
X106515000Y-116833000D01*
X106511000Y-116838000D01*
X106507000Y-116844000D01*
X106503000Y-116849000D01*
X106498000Y-116853000D01*
X106494000Y-116858000D01*
X106489000Y-116862000D01*
X106483000Y-116866000D01*
X106478000Y-116870000D01*
X106472000Y-116873000D01*
X106467000Y-116876000D01*
X106461000Y-116879000D01*
X106455000Y-116882000D01*
X106449000Y-116884000D01*
X106442000Y-116886000D01*
X106436000Y-116887000D01*
X106430000Y-116888000D01*
X106423000Y-116889000D01*
X106417000Y-116890000D01*
X106410000Y-116890000D01*
X106210000Y-116890000D01*
X106203000Y-116890000D01*
X106197000Y-116889000D01*
X106190000Y-116888000D01*
X106184000Y-116887000D01*
X106178000Y-116886000D01*
X106171000Y-116884000D01*
X106165000Y-116882000D01*
X106159000Y-116879000D01*
X106153000Y-116876000D01*
X106148000Y-116873000D01*
X106142000Y-116870000D01*
X106137000Y-116866000D01*
X106131000Y-116862000D01*
X106126000Y-116858000D01*
X106122000Y-116853000D01*
X106117000Y-116849000D01*
X106113000Y-116844000D01*
X106109000Y-116838000D01*
X106105000Y-116833000D01*
X106102000Y-116828000D01*
X106099000Y-116822000D01*
X106096000Y-116816000D01*
X106093000Y-116810000D01*
X106091000Y-116804000D01*
X106089000Y-116797000D01*
X106088000Y-116791000D01*
X106087000Y-116785000D01*
X106086000Y-116778000D01*
X106085000Y-116772000D01*
X106085000Y-116765000D01*
X106085000Y-116325000D01*
X106085000Y-116318000D01*
X106086000Y-116312000D01*
X106087000Y-116305000D01*
X106088000Y-116299000D01*
X106089000Y-116293000D01*
X106091000Y-116286000D01*
X106093000Y-116280000D01*
X106096000Y-116274000D01*
X106099000Y-116268000D01*
X106102000Y-116262000D01*
X106105000Y-116257000D01*
X106109000Y-116252000D01*
X106113000Y-116246000D01*
X106117000Y-116241000D01*
X106122000Y-116237000D01*
X106126000Y-116232000D01*
X106131000Y-116228000D01*
X106137000Y-116224000D01*
X106142000Y-116220000D01*
X106148000Y-116217000D01*
X106153000Y-116214000D01*
X106159000Y-116211000D01*
X106165000Y-116208000D01*
X106171000Y-116206000D01*
X106178000Y-116204000D01*
X106184000Y-116203000D01*
X106190000Y-116202000D01*
X106197000Y-116201000D01*
X106203000Y-116200000D01*
X106210000Y-116200000D01*
X106410000Y-116200000D01*
X106417000Y-116200000D01*
X106423000Y-116201000D01*
G36*
X106423000Y-116201000D02*
G01*
X106430000Y-116202000D01*
X106436000Y-116203000D01*
X106442000Y-116204000D01*
X106449000Y-116206000D01*
X106455000Y-116208000D01*
X106461000Y-116211000D01*
X106467000Y-116214000D01*
X106472000Y-116217000D01*
X106478000Y-116220000D01*
X106483000Y-116224000D01*
X106489000Y-116228000D01*
X106494000Y-116232000D01*
X106498000Y-116237000D01*
X106503000Y-116241000D01*
X106507000Y-116246000D01*
X106511000Y-116252000D01*
X106515000Y-116257000D01*
X106518000Y-116262000D01*
X106521000Y-116268000D01*
X106524000Y-116274000D01*
X106527000Y-116280000D01*
X106529000Y-116286000D01*
X106531000Y-116293000D01*
X106532000Y-116299000D01*
X106533000Y-116305000D01*
X106534000Y-116312000D01*
X106535000Y-116318000D01*
X106535000Y-116325000D01*
X106535000Y-116765000D01*
X106535000Y-116772000D01*
X106534000Y-116778000D01*
X106533000Y-116785000D01*
X106532000Y-116791000D01*
X106531000Y-116797000D01*
X106529000Y-116804000D01*
X106527000Y-116810000D01*
X106524000Y-116816000D01*
X106521000Y-116822000D01*
X106518000Y-116828000D01*
X106515000Y-116833000D01*
X106511000Y-116838000D01*
X106507000Y-116844000D01*
X106503000Y-116849000D01*
X106498000Y-116853000D01*
X106494000Y-116858000D01*
X106489000Y-116862000D01*
X106483000Y-116866000D01*
X106478000Y-116870000D01*
X106472000Y-116873000D01*
X106467000Y-116876000D01*
X106461000Y-116879000D01*
X106455000Y-116882000D01*
X106449000Y-116884000D01*
X106442000Y-116886000D01*
X106436000Y-116887000D01*
X106430000Y-116888000D01*
X106423000Y-116889000D01*
X106417000Y-116890000D01*
X106410000Y-116890000D01*
X106210000Y-116890000D01*
X106203000Y-116890000D01*
X106197000Y-116889000D01*
X106190000Y-116888000D01*
X106184000Y-116887000D01*
X106178000Y-116886000D01*
X106171000Y-116884000D01*
X106165000Y-116882000D01*
X106159000Y-116879000D01*
X106153000Y-116876000D01*
X106148000Y-116873000D01*
X106142000Y-116870000D01*
X106137000Y-116866000D01*
X106131000Y-116862000D01*
X106126000Y-116858000D01*
X106122000Y-116853000D01*
X106117000Y-116849000D01*
X106113000Y-116844000D01*
X106109000Y-116838000D01*
X106105000Y-116833000D01*
X106102000Y-116828000D01*
X106099000Y-116822000D01*
X106096000Y-116816000D01*
X106093000Y-116810000D01*
X106091000Y-116804000D01*
X106089000Y-116797000D01*
X106088000Y-116791000D01*
X106087000Y-116785000D01*
X106086000Y-116778000D01*
X106085000Y-116772000D01*
X106085000Y-116765000D01*
X106085000Y-116325000D01*
X106085000Y-116318000D01*
X106086000Y-116312000D01*
X106087000Y-116305000D01*
X106088000Y-116299000D01*
X106089000Y-116293000D01*
X106091000Y-116286000D01*
X106093000Y-116280000D01*
X106096000Y-116274000D01*
X106099000Y-116268000D01*
X106102000Y-116262000D01*
X106105000Y-116257000D01*
X106109000Y-116252000D01*
X106113000Y-116246000D01*
X106117000Y-116241000D01*
X106122000Y-116237000D01*
X106126000Y-116232000D01*
X106131000Y-116228000D01*
X106137000Y-116224000D01*
X106142000Y-116220000D01*
X106148000Y-116217000D01*
X106153000Y-116214000D01*
X106159000Y-116211000D01*
X106165000Y-116208000D01*
X106171000Y-116206000D01*
X106178000Y-116204000D01*
X106184000Y-116203000D01*
X106190000Y-116202000D01*
X106197000Y-116201000D01*
X106203000Y-116200000D01*
X106210000Y-116200000D01*
X106410000Y-116200000D01*
X106417000Y-116200000D01*
X106423000Y-116201000D01*
G37*
X106423000Y-118531000D02*
X106430000Y-118532000D01*
X106436000Y-118533000D01*
X106442000Y-118534000D01*
X106449000Y-118536000D01*
X106455000Y-118538000D01*
X106461000Y-118541000D01*
X106467000Y-118544000D01*
X106472000Y-118547000D01*
X106478000Y-118550000D01*
X106483000Y-118554000D01*
X106489000Y-118558000D01*
X106494000Y-118562000D01*
X106498000Y-118567000D01*
X106503000Y-118571000D01*
X106507000Y-118576000D01*
X106511000Y-118582000D01*
X106515000Y-118587000D01*
X106518000Y-118592000D01*
X106521000Y-118598000D01*
X106524000Y-118604000D01*
X106527000Y-118610000D01*
X106529000Y-118616000D01*
X106531000Y-118623000D01*
X106532000Y-118629000D01*
X106533000Y-118635000D01*
X106534000Y-118642000D01*
X106535000Y-118648000D01*
X106535000Y-118655000D01*
X106535000Y-119095000D01*
X106535000Y-119102000D01*
X106534000Y-119108000D01*
X106533000Y-119115000D01*
X106532000Y-119121000D01*
X106531000Y-119127000D01*
X106529000Y-119134000D01*
X106527000Y-119140000D01*
X106524000Y-119146000D01*
X106521000Y-119152000D01*
X106518000Y-119158000D01*
X106515000Y-119163000D01*
X106511000Y-119168000D01*
X106507000Y-119174000D01*
X106503000Y-119179000D01*
X106498000Y-119183000D01*
X106494000Y-119188000D01*
X106489000Y-119192000D01*
X106483000Y-119196000D01*
X106478000Y-119200000D01*
X106472000Y-119203000D01*
X106467000Y-119206000D01*
X106461000Y-119209000D01*
X106455000Y-119212000D01*
X106449000Y-119214000D01*
X106442000Y-119216000D01*
X106436000Y-119217000D01*
X106430000Y-119218000D01*
X106423000Y-119219000D01*
X106417000Y-119220000D01*
X106410000Y-119220000D01*
X106210000Y-119220000D01*
X106203000Y-119220000D01*
X106197000Y-119219000D01*
X106190000Y-119218000D01*
X106184000Y-119217000D01*
X106178000Y-119216000D01*
X106171000Y-119214000D01*
X106165000Y-119212000D01*
X106159000Y-119209000D01*
X106153000Y-119206000D01*
X106148000Y-119203000D01*
X106142000Y-119200000D01*
X106137000Y-119196000D01*
X106131000Y-119192000D01*
X106126000Y-119188000D01*
X106122000Y-119183000D01*
X106117000Y-119179000D01*
X106113000Y-119174000D01*
X106109000Y-119168000D01*
X106105000Y-119163000D01*
X106102000Y-119158000D01*
X106099000Y-119152000D01*
X106096000Y-119146000D01*
X106093000Y-119140000D01*
X106091000Y-119134000D01*
X106089000Y-119127000D01*
X106088000Y-119121000D01*
X106087000Y-119115000D01*
X106086000Y-119108000D01*
X106085000Y-119102000D01*
X106085000Y-119095000D01*
X106085000Y-118655000D01*
X106085000Y-118648000D01*
X106086000Y-118642000D01*
X106087000Y-118635000D01*
X106088000Y-118629000D01*
X106089000Y-118623000D01*
X106091000Y-118616000D01*
X106093000Y-118610000D01*
X106096000Y-118604000D01*
X106099000Y-118598000D01*
X106102000Y-118592000D01*
X106105000Y-118587000D01*
X106109000Y-118582000D01*
X106113000Y-118576000D01*
X106117000Y-118571000D01*
X106122000Y-118567000D01*
X106126000Y-118562000D01*
X106131000Y-118558000D01*
X106137000Y-118554000D01*
X106142000Y-118550000D01*
X106148000Y-118547000D01*
X106153000Y-118544000D01*
X106159000Y-118541000D01*
X106165000Y-118538000D01*
X106171000Y-118536000D01*
X106178000Y-118534000D01*
X106184000Y-118533000D01*
X106190000Y-118532000D01*
X106197000Y-118531000D01*
X106203000Y-118530000D01*
X106210000Y-118530000D01*
X106410000Y-118530000D01*
X106417000Y-118530000D01*
X106423000Y-118531000D01*
G36*
X106423000Y-118531000D02*
G01*
X106430000Y-118532000D01*
X106436000Y-118533000D01*
X106442000Y-118534000D01*
X106449000Y-118536000D01*
X106455000Y-118538000D01*
X106461000Y-118541000D01*
X106467000Y-118544000D01*
X106472000Y-118547000D01*
X106478000Y-118550000D01*
X106483000Y-118554000D01*
X106489000Y-118558000D01*
X106494000Y-118562000D01*
X106498000Y-118567000D01*
X106503000Y-118571000D01*
X106507000Y-118576000D01*
X106511000Y-118582000D01*
X106515000Y-118587000D01*
X106518000Y-118592000D01*
X106521000Y-118598000D01*
X106524000Y-118604000D01*
X106527000Y-118610000D01*
X106529000Y-118616000D01*
X106531000Y-118623000D01*
X106532000Y-118629000D01*
X106533000Y-118635000D01*
X106534000Y-118642000D01*
X106535000Y-118648000D01*
X106535000Y-118655000D01*
X106535000Y-119095000D01*
X106535000Y-119102000D01*
X106534000Y-119108000D01*
X106533000Y-119115000D01*
X106532000Y-119121000D01*
X106531000Y-119127000D01*
X106529000Y-119134000D01*
X106527000Y-119140000D01*
X106524000Y-119146000D01*
X106521000Y-119152000D01*
X106518000Y-119158000D01*
X106515000Y-119163000D01*
X106511000Y-119168000D01*
X106507000Y-119174000D01*
X106503000Y-119179000D01*
X106498000Y-119183000D01*
X106494000Y-119188000D01*
X106489000Y-119192000D01*
X106483000Y-119196000D01*
X106478000Y-119200000D01*
X106472000Y-119203000D01*
X106467000Y-119206000D01*
X106461000Y-119209000D01*
X106455000Y-119212000D01*
X106449000Y-119214000D01*
X106442000Y-119216000D01*
X106436000Y-119217000D01*
X106430000Y-119218000D01*
X106423000Y-119219000D01*
X106417000Y-119220000D01*
X106410000Y-119220000D01*
X106210000Y-119220000D01*
X106203000Y-119220000D01*
X106197000Y-119219000D01*
X106190000Y-119218000D01*
X106184000Y-119217000D01*
X106178000Y-119216000D01*
X106171000Y-119214000D01*
X106165000Y-119212000D01*
X106159000Y-119209000D01*
X106153000Y-119206000D01*
X106148000Y-119203000D01*
X106142000Y-119200000D01*
X106137000Y-119196000D01*
X106131000Y-119192000D01*
X106126000Y-119188000D01*
X106122000Y-119183000D01*
X106117000Y-119179000D01*
X106113000Y-119174000D01*
X106109000Y-119168000D01*
X106105000Y-119163000D01*
X106102000Y-119158000D01*
X106099000Y-119152000D01*
X106096000Y-119146000D01*
X106093000Y-119140000D01*
X106091000Y-119134000D01*
X106089000Y-119127000D01*
X106088000Y-119121000D01*
X106087000Y-119115000D01*
X106086000Y-119108000D01*
X106085000Y-119102000D01*
X106085000Y-119095000D01*
X106085000Y-118655000D01*
X106085000Y-118648000D01*
X106086000Y-118642000D01*
X106087000Y-118635000D01*
X106088000Y-118629000D01*
X106089000Y-118623000D01*
X106091000Y-118616000D01*
X106093000Y-118610000D01*
X106096000Y-118604000D01*
X106099000Y-118598000D01*
X106102000Y-118592000D01*
X106105000Y-118587000D01*
X106109000Y-118582000D01*
X106113000Y-118576000D01*
X106117000Y-118571000D01*
X106122000Y-118567000D01*
X106126000Y-118562000D01*
X106131000Y-118558000D01*
X106137000Y-118554000D01*
X106142000Y-118550000D01*
X106148000Y-118547000D01*
X106153000Y-118544000D01*
X106159000Y-118541000D01*
X106165000Y-118538000D01*
X106171000Y-118536000D01*
X106178000Y-118534000D01*
X106184000Y-118533000D01*
X106190000Y-118532000D01*
X106197000Y-118531000D01*
X106203000Y-118530000D01*
X106210000Y-118530000D01*
X106410000Y-118530000D01*
X106417000Y-118530000D01*
X106423000Y-118531000D01*
G37*
X106923000Y-116201000D02*
X106930000Y-116202000D01*
X106936000Y-116203000D01*
X106942000Y-116204000D01*
X106949000Y-116206000D01*
X106955000Y-116208000D01*
X106961000Y-116211000D01*
X106967000Y-116214000D01*
X106972000Y-116217000D01*
X106978000Y-116220000D01*
X106983000Y-116224000D01*
X106989000Y-116228000D01*
X106994000Y-116232000D01*
X106998000Y-116237000D01*
X107003000Y-116241000D01*
X107007000Y-116246000D01*
X107011000Y-116252000D01*
X107015000Y-116257000D01*
X107018000Y-116262000D01*
X107021000Y-116268000D01*
X107024000Y-116274000D01*
X107027000Y-116280000D01*
X107029000Y-116286000D01*
X107031000Y-116293000D01*
X107032000Y-116299000D01*
X107033000Y-116305000D01*
X107034000Y-116312000D01*
X107035000Y-116318000D01*
X107035000Y-116325000D01*
X107035000Y-116765000D01*
X107035000Y-116772000D01*
X107034000Y-116778000D01*
X107033000Y-116785000D01*
X107032000Y-116791000D01*
X107031000Y-116797000D01*
X107029000Y-116804000D01*
X107027000Y-116810000D01*
X107024000Y-116816000D01*
X107021000Y-116822000D01*
X107018000Y-116828000D01*
X107015000Y-116833000D01*
X107011000Y-116838000D01*
X107007000Y-116844000D01*
X107003000Y-116849000D01*
X106998000Y-116853000D01*
X106994000Y-116858000D01*
X106989000Y-116862000D01*
X106983000Y-116866000D01*
X106978000Y-116870000D01*
X106972000Y-116873000D01*
X106967000Y-116876000D01*
X106961000Y-116879000D01*
X106955000Y-116882000D01*
X106949000Y-116884000D01*
X106942000Y-116886000D01*
X106936000Y-116887000D01*
X106930000Y-116888000D01*
X106923000Y-116889000D01*
X106917000Y-116890000D01*
X106910000Y-116890000D01*
X106710000Y-116890000D01*
X106703000Y-116890000D01*
X106697000Y-116889000D01*
X106690000Y-116888000D01*
X106684000Y-116887000D01*
X106678000Y-116886000D01*
X106671000Y-116884000D01*
X106665000Y-116882000D01*
X106659000Y-116879000D01*
X106653000Y-116876000D01*
X106648000Y-116873000D01*
X106642000Y-116870000D01*
X106637000Y-116866000D01*
X106631000Y-116862000D01*
X106626000Y-116858000D01*
X106622000Y-116853000D01*
X106617000Y-116849000D01*
X106613000Y-116844000D01*
X106609000Y-116838000D01*
X106605000Y-116833000D01*
X106602000Y-116828000D01*
X106599000Y-116822000D01*
X106596000Y-116816000D01*
X106593000Y-116810000D01*
X106591000Y-116804000D01*
X106589000Y-116797000D01*
X106588000Y-116791000D01*
X106587000Y-116785000D01*
X106586000Y-116778000D01*
X106585000Y-116772000D01*
X106585000Y-116765000D01*
X106585000Y-116325000D01*
X106585000Y-116318000D01*
X106586000Y-116312000D01*
X106587000Y-116305000D01*
X106588000Y-116299000D01*
X106589000Y-116293000D01*
X106591000Y-116286000D01*
X106593000Y-116280000D01*
X106596000Y-116274000D01*
X106599000Y-116268000D01*
X106602000Y-116262000D01*
X106605000Y-116257000D01*
X106609000Y-116252000D01*
X106613000Y-116246000D01*
X106617000Y-116241000D01*
X106622000Y-116237000D01*
X106626000Y-116232000D01*
X106631000Y-116228000D01*
X106637000Y-116224000D01*
X106642000Y-116220000D01*
X106648000Y-116217000D01*
X106653000Y-116214000D01*
X106659000Y-116211000D01*
X106665000Y-116208000D01*
X106671000Y-116206000D01*
X106678000Y-116204000D01*
X106684000Y-116203000D01*
X106690000Y-116202000D01*
X106697000Y-116201000D01*
X106703000Y-116200000D01*
X106710000Y-116200000D01*
X106910000Y-116200000D01*
X106917000Y-116200000D01*
X106923000Y-116201000D01*
G36*
X106923000Y-116201000D02*
G01*
X106930000Y-116202000D01*
X106936000Y-116203000D01*
X106942000Y-116204000D01*
X106949000Y-116206000D01*
X106955000Y-116208000D01*
X106961000Y-116211000D01*
X106967000Y-116214000D01*
X106972000Y-116217000D01*
X106978000Y-116220000D01*
X106983000Y-116224000D01*
X106989000Y-116228000D01*
X106994000Y-116232000D01*
X106998000Y-116237000D01*
X107003000Y-116241000D01*
X107007000Y-116246000D01*
X107011000Y-116252000D01*
X107015000Y-116257000D01*
X107018000Y-116262000D01*
X107021000Y-116268000D01*
X107024000Y-116274000D01*
X107027000Y-116280000D01*
X107029000Y-116286000D01*
X107031000Y-116293000D01*
X107032000Y-116299000D01*
X107033000Y-116305000D01*
X107034000Y-116312000D01*
X107035000Y-116318000D01*
X107035000Y-116325000D01*
X107035000Y-116765000D01*
X107035000Y-116772000D01*
X107034000Y-116778000D01*
X107033000Y-116785000D01*
X107032000Y-116791000D01*
X107031000Y-116797000D01*
X107029000Y-116804000D01*
X107027000Y-116810000D01*
X107024000Y-116816000D01*
X107021000Y-116822000D01*
X107018000Y-116828000D01*
X107015000Y-116833000D01*
X107011000Y-116838000D01*
X107007000Y-116844000D01*
X107003000Y-116849000D01*
X106998000Y-116853000D01*
X106994000Y-116858000D01*
X106989000Y-116862000D01*
X106983000Y-116866000D01*
X106978000Y-116870000D01*
X106972000Y-116873000D01*
X106967000Y-116876000D01*
X106961000Y-116879000D01*
X106955000Y-116882000D01*
X106949000Y-116884000D01*
X106942000Y-116886000D01*
X106936000Y-116887000D01*
X106930000Y-116888000D01*
X106923000Y-116889000D01*
X106917000Y-116890000D01*
X106910000Y-116890000D01*
X106710000Y-116890000D01*
X106703000Y-116890000D01*
X106697000Y-116889000D01*
X106690000Y-116888000D01*
X106684000Y-116887000D01*
X106678000Y-116886000D01*
X106671000Y-116884000D01*
X106665000Y-116882000D01*
X106659000Y-116879000D01*
X106653000Y-116876000D01*
X106648000Y-116873000D01*
X106642000Y-116870000D01*
X106637000Y-116866000D01*
X106631000Y-116862000D01*
X106626000Y-116858000D01*
X106622000Y-116853000D01*
X106617000Y-116849000D01*
X106613000Y-116844000D01*
X106609000Y-116838000D01*
X106605000Y-116833000D01*
X106602000Y-116828000D01*
X106599000Y-116822000D01*
X106596000Y-116816000D01*
X106593000Y-116810000D01*
X106591000Y-116804000D01*
X106589000Y-116797000D01*
X106588000Y-116791000D01*
X106587000Y-116785000D01*
X106586000Y-116778000D01*
X106585000Y-116772000D01*
X106585000Y-116765000D01*
X106585000Y-116325000D01*
X106585000Y-116318000D01*
X106586000Y-116312000D01*
X106587000Y-116305000D01*
X106588000Y-116299000D01*
X106589000Y-116293000D01*
X106591000Y-116286000D01*
X106593000Y-116280000D01*
X106596000Y-116274000D01*
X106599000Y-116268000D01*
X106602000Y-116262000D01*
X106605000Y-116257000D01*
X106609000Y-116252000D01*
X106613000Y-116246000D01*
X106617000Y-116241000D01*
X106622000Y-116237000D01*
X106626000Y-116232000D01*
X106631000Y-116228000D01*
X106637000Y-116224000D01*
X106642000Y-116220000D01*
X106648000Y-116217000D01*
X106653000Y-116214000D01*
X106659000Y-116211000D01*
X106665000Y-116208000D01*
X106671000Y-116206000D01*
X106678000Y-116204000D01*
X106684000Y-116203000D01*
X106690000Y-116202000D01*
X106697000Y-116201000D01*
X106703000Y-116200000D01*
X106710000Y-116200000D01*
X106910000Y-116200000D01*
X106917000Y-116200000D01*
X106923000Y-116201000D01*
G37*
X106923000Y-118531000D02*
X106930000Y-118532000D01*
X106936000Y-118533000D01*
X106942000Y-118534000D01*
X106949000Y-118536000D01*
X106955000Y-118538000D01*
X106961000Y-118541000D01*
X106967000Y-118544000D01*
X106972000Y-118547000D01*
X106978000Y-118550000D01*
X106983000Y-118554000D01*
X106989000Y-118558000D01*
X106994000Y-118562000D01*
X106998000Y-118567000D01*
X107003000Y-118571000D01*
X107007000Y-118576000D01*
X107011000Y-118582000D01*
X107015000Y-118587000D01*
X107018000Y-118592000D01*
X107021000Y-118598000D01*
X107024000Y-118604000D01*
X107027000Y-118610000D01*
X107029000Y-118616000D01*
X107031000Y-118623000D01*
X107032000Y-118629000D01*
X107033000Y-118635000D01*
X107034000Y-118642000D01*
X107035000Y-118648000D01*
X107035000Y-118655000D01*
X107035000Y-119095000D01*
X107035000Y-119102000D01*
X107034000Y-119108000D01*
X107033000Y-119115000D01*
X107032000Y-119121000D01*
X107031000Y-119127000D01*
X107029000Y-119134000D01*
X107027000Y-119140000D01*
X107024000Y-119146000D01*
X107021000Y-119152000D01*
X107018000Y-119158000D01*
X107015000Y-119163000D01*
X107011000Y-119168000D01*
X107007000Y-119174000D01*
X107003000Y-119179000D01*
X106998000Y-119183000D01*
X106994000Y-119188000D01*
X106989000Y-119192000D01*
X106983000Y-119196000D01*
X106978000Y-119200000D01*
X106972000Y-119203000D01*
X106967000Y-119206000D01*
X106961000Y-119209000D01*
X106955000Y-119212000D01*
X106949000Y-119214000D01*
X106942000Y-119216000D01*
X106936000Y-119217000D01*
X106930000Y-119218000D01*
X106923000Y-119219000D01*
X106917000Y-119220000D01*
X106910000Y-119220000D01*
X106710000Y-119220000D01*
X106703000Y-119220000D01*
X106697000Y-119219000D01*
X106690000Y-119218000D01*
X106684000Y-119217000D01*
X106678000Y-119216000D01*
X106671000Y-119214000D01*
X106665000Y-119212000D01*
X106659000Y-119209000D01*
X106653000Y-119206000D01*
X106648000Y-119203000D01*
X106642000Y-119200000D01*
X106637000Y-119196000D01*
X106631000Y-119192000D01*
X106626000Y-119188000D01*
X106622000Y-119183000D01*
X106617000Y-119179000D01*
X106613000Y-119174000D01*
X106609000Y-119168000D01*
X106605000Y-119163000D01*
X106602000Y-119158000D01*
X106599000Y-119152000D01*
X106596000Y-119146000D01*
X106593000Y-119140000D01*
X106591000Y-119134000D01*
X106589000Y-119127000D01*
X106588000Y-119121000D01*
X106587000Y-119115000D01*
X106586000Y-119108000D01*
X106585000Y-119102000D01*
X106585000Y-119095000D01*
X106585000Y-118655000D01*
X106585000Y-118648000D01*
X106586000Y-118642000D01*
X106587000Y-118635000D01*
X106588000Y-118629000D01*
X106589000Y-118623000D01*
X106591000Y-118616000D01*
X106593000Y-118610000D01*
X106596000Y-118604000D01*
X106599000Y-118598000D01*
X106602000Y-118592000D01*
X106605000Y-118587000D01*
X106609000Y-118582000D01*
X106613000Y-118576000D01*
X106617000Y-118571000D01*
X106622000Y-118567000D01*
X106626000Y-118562000D01*
X106631000Y-118558000D01*
X106637000Y-118554000D01*
X106642000Y-118550000D01*
X106648000Y-118547000D01*
X106653000Y-118544000D01*
X106659000Y-118541000D01*
X106665000Y-118538000D01*
X106671000Y-118536000D01*
X106678000Y-118534000D01*
X106684000Y-118533000D01*
X106690000Y-118532000D01*
X106697000Y-118531000D01*
X106703000Y-118530000D01*
X106710000Y-118530000D01*
X106910000Y-118530000D01*
X106917000Y-118530000D01*
X106923000Y-118531000D01*
G36*
X106923000Y-118531000D02*
G01*
X106930000Y-118532000D01*
X106936000Y-118533000D01*
X106942000Y-118534000D01*
X106949000Y-118536000D01*
X106955000Y-118538000D01*
X106961000Y-118541000D01*
X106967000Y-118544000D01*
X106972000Y-118547000D01*
X106978000Y-118550000D01*
X106983000Y-118554000D01*
X106989000Y-118558000D01*
X106994000Y-118562000D01*
X106998000Y-118567000D01*
X107003000Y-118571000D01*
X107007000Y-118576000D01*
X107011000Y-118582000D01*
X107015000Y-118587000D01*
X107018000Y-118592000D01*
X107021000Y-118598000D01*
X107024000Y-118604000D01*
X107027000Y-118610000D01*
X107029000Y-118616000D01*
X107031000Y-118623000D01*
X107032000Y-118629000D01*
X107033000Y-118635000D01*
X107034000Y-118642000D01*
X107035000Y-118648000D01*
X107035000Y-118655000D01*
X107035000Y-119095000D01*
X107035000Y-119102000D01*
X107034000Y-119108000D01*
X107033000Y-119115000D01*
X107032000Y-119121000D01*
X107031000Y-119127000D01*
X107029000Y-119134000D01*
X107027000Y-119140000D01*
X107024000Y-119146000D01*
X107021000Y-119152000D01*
X107018000Y-119158000D01*
X107015000Y-119163000D01*
X107011000Y-119168000D01*
X107007000Y-119174000D01*
X107003000Y-119179000D01*
X106998000Y-119183000D01*
X106994000Y-119188000D01*
X106989000Y-119192000D01*
X106983000Y-119196000D01*
X106978000Y-119200000D01*
X106972000Y-119203000D01*
X106967000Y-119206000D01*
X106961000Y-119209000D01*
X106955000Y-119212000D01*
X106949000Y-119214000D01*
X106942000Y-119216000D01*
X106936000Y-119217000D01*
X106930000Y-119218000D01*
X106923000Y-119219000D01*
X106917000Y-119220000D01*
X106910000Y-119220000D01*
X106710000Y-119220000D01*
X106703000Y-119220000D01*
X106697000Y-119219000D01*
X106690000Y-119218000D01*
X106684000Y-119217000D01*
X106678000Y-119216000D01*
X106671000Y-119214000D01*
X106665000Y-119212000D01*
X106659000Y-119209000D01*
X106653000Y-119206000D01*
X106648000Y-119203000D01*
X106642000Y-119200000D01*
X106637000Y-119196000D01*
X106631000Y-119192000D01*
X106626000Y-119188000D01*
X106622000Y-119183000D01*
X106617000Y-119179000D01*
X106613000Y-119174000D01*
X106609000Y-119168000D01*
X106605000Y-119163000D01*
X106602000Y-119158000D01*
X106599000Y-119152000D01*
X106596000Y-119146000D01*
X106593000Y-119140000D01*
X106591000Y-119134000D01*
X106589000Y-119127000D01*
X106588000Y-119121000D01*
X106587000Y-119115000D01*
X106586000Y-119108000D01*
X106585000Y-119102000D01*
X106585000Y-119095000D01*
X106585000Y-118655000D01*
X106585000Y-118648000D01*
X106586000Y-118642000D01*
X106587000Y-118635000D01*
X106588000Y-118629000D01*
X106589000Y-118623000D01*
X106591000Y-118616000D01*
X106593000Y-118610000D01*
X106596000Y-118604000D01*
X106599000Y-118598000D01*
X106602000Y-118592000D01*
X106605000Y-118587000D01*
X106609000Y-118582000D01*
X106613000Y-118576000D01*
X106617000Y-118571000D01*
X106622000Y-118567000D01*
X106626000Y-118562000D01*
X106631000Y-118558000D01*
X106637000Y-118554000D01*
X106642000Y-118550000D01*
X106648000Y-118547000D01*
X106653000Y-118544000D01*
X106659000Y-118541000D01*
X106665000Y-118538000D01*
X106671000Y-118536000D01*
X106678000Y-118534000D01*
X106684000Y-118533000D01*
X106690000Y-118532000D01*
X106697000Y-118531000D01*
X106703000Y-118530000D01*
X106710000Y-118530000D01*
X106910000Y-118530000D01*
X106917000Y-118530000D01*
X106923000Y-118531000D01*
G37*
X107423000Y-116201000D02*
X107430000Y-116202000D01*
X107436000Y-116203000D01*
X107442000Y-116204000D01*
X107449000Y-116206000D01*
X107455000Y-116208000D01*
X107461000Y-116211000D01*
X107467000Y-116214000D01*
X107472000Y-116217000D01*
X107478000Y-116220000D01*
X107483000Y-116224000D01*
X107489000Y-116228000D01*
X107494000Y-116232000D01*
X107498000Y-116237000D01*
X107503000Y-116241000D01*
X107507000Y-116246000D01*
X107511000Y-116252000D01*
X107515000Y-116257000D01*
X107518000Y-116262000D01*
X107521000Y-116268000D01*
X107524000Y-116274000D01*
X107527000Y-116280000D01*
X107529000Y-116286000D01*
X107531000Y-116293000D01*
X107532000Y-116299000D01*
X107533000Y-116305000D01*
X107534000Y-116312000D01*
X107535000Y-116318000D01*
X107535000Y-116325000D01*
X107535000Y-116765000D01*
X107535000Y-116772000D01*
X107534000Y-116778000D01*
X107533000Y-116785000D01*
X107532000Y-116791000D01*
X107531000Y-116797000D01*
X107529000Y-116804000D01*
X107527000Y-116810000D01*
X107524000Y-116816000D01*
X107521000Y-116822000D01*
X107518000Y-116828000D01*
X107515000Y-116833000D01*
X107511000Y-116838000D01*
X107507000Y-116844000D01*
X107503000Y-116849000D01*
X107498000Y-116853000D01*
X107494000Y-116858000D01*
X107489000Y-116862000D01*
X107483000Y-116866000D01*
X107478000Y-116870000D01*
X107472000Y-116873000D01*
X107467000Y-116876000D01*
X107461000Y-116879000D01*
X107455000Y-116882000D01*
X107449000Y-116884000D01*
X107442000Y-116886000D01*
X107436000Y-116887000D01*
X107430000Y-116888000D01*
X107423000Y-116889000D01*
X107417000Y-116890000D01*
X107410000Y-116890000D01*
X107210000Y-116890000D01*
X107203000Y-116890000D01*
X107197000Y-116889000D01*
X107190000Y-116888000D01*
X107184000Y-116887000D01*
X107178000Y-116886000D01*
X107171000Y-116884000D01*
X107165000Y-116882000D01*
X107159000Y-116879000D01*
X107153000Y-116876000D01*
X107148000Y-116873000D01*
X107142000Y-116870000D01*
X107137000Y-116866000D01*
X107131000Y-116862000D01*
X107126000Y-116858000D01*
X107122000Y-116853000D01*
X107117000Y-116849000D01*
X107113000Y-116844000D01*
X107109000Y-116838000D01*
X107105000Y-116833000D01*
X107102000Y-116828000D01*
X107099000Y-116822000D01*
X107096000Y-116816000D01*
X107093000Y-116810000D01*
X107091000Y-116804000D01*
X107089000Y-116797000D01*
X107088000Y-116791000D01*
X107087000Y-116785000D01*
X107086000Y-116778000D01*
X107085000Y-116772000D01*
X107085000Y-116765000D01*
X107085000Y-116325000D01*
X107085000Y-116318000D01*
X107086000Y-116312000D01*
X107087000Y-116305000D01*
X107088000Y-116299000D01*
X107089000Y-116293000D01*
X107091000Y-116286000D01*
X107093000Y-116280000D01*
X107096000Y-116274000D01*
X107099000Y-116268000D01*
X107102000Y-116262000D01*
X107105000Y-116257000D01*
X107109000Y-116252000D01*
X107113000Y-116246000D01*
X107117000Y-116241000D01*
X107122000Y-116237000D01*
X107126000Y-116232000D01*
X107131000Y-116228000D01*
X107137000Y-116224000D01*
X107142000Y-116220000D01*
X107148000Y-116217000D01*
X107153000Y-116214000D01*
X107159000Y-116211000D01*
X107165000Y-116208000D01*
X107171000Y-116206000D01*
X107178000Y-116204000D01*
X107184000Y-116203000D01*
X107190000Y-116202000D01*
X107197000Y-116201000D01*
X107203000Y-116200000D01*
X107210000Y-116200000D01*
X107410000Y-116200000D01*
X107417000Y-116200000D01*
X107423000Y-116201000D01*
G36*
X107423000Y-116201000D02*
G01*
X107430000Y-116202000D01*
X107436000Y-116203000D01*
X107442000Y-116204000D01*
X107449000Y-116206000D01*
X107455000Y-116208000D01*
X107461000Y-116211000D01*
X107467000Y-116214000D01*
X107472000Y-116217000D01*
X107478000Y-116220000D01*
X107483000Y-116224000D01*
X107489000Y-116228000D01*
X107494000Y-116232000D01*
X107498000Y-116237000D01*
X107503000Y-116241000D01*
X107507000Y-116246000D01*
X107511000Y-116252000D01*
X107515000Y-116257000D01*
X107518000Y-116262000D01*
X107521000Y-116268000D01*
X107524000Y-116274000D01*
X107527000Y-116280000D01*
X107529000Y-116286000D01*
X107531000Y-116293000D01*
X107532000Y-116299000D01*
X107533000Y-116305000D01*
X107534000Y-116312000D01*
X107535000Y-116318000D01*
X107535000Y-116325000D01*
X107535000Y-116765000D01*
X107535000Y-116772000D01*
X107534000Y-116778000D01*
X107533000Y-116785000D01*
X107532000Y-116791000D01*
X107531000Y-116797000D01*
X107529000Y-116804000D01*
X107527000Y-116810000D01*
X107524000Y-116816000D01*
X107521000Y-116822000D01*
X107518000Y-116828000D01*
X107515000Y-116833000D01*
X107511000Y-116838000D01*
X107507000Y-116844000D01*
X107503000Y-116849000D01*
X107498000Y-116853000D01*
X107494000Y-116858000D01*
X107489000Y-116862000D01*
X107483000Y-116866000D01*
X107478000Y-116870000D01*
X107472000Y-116873000D01*
X107467000Y-116876000D01*
X107461000Y-116879000D01*
X107455000Y-116882000D01*
X107449000Y-116884000D01*
X107442000Y-116886000D01*
X107436000Y-116887000D01*
X107430000Y-116888000D01*
X107423000Y-116889000D01*
X107417000Y-116890000D01*
X107410000Y-116890000D01*
X107210000Y-116890000D01*
X107203000Y-116890000D01*
X107197000Y-116889000D01*
X107190000Y-116888000D01*
X107184000Y-116887000D01*
X107178000Y-116886000D01*
X107171000Y-116884000D01*
X107165000Y-116882000D01*
X107159000Y-116879000D01*
X107153000Y-116876000D01*
X107148000Y-116873000D01*
X107142000Y-116870000D01*
X107137000Y-116866000D01*
X107131000Y-116862000D01*
X107126000Y-116858000D01*
X107122000Y-116853000D01*
X107117000Y-116849000D01*
X107113000Y-116844000D01*
X107109000Y-116838000D01*
X107105000Y-116833000D01*
X107102000Y-116828000D01*
X107099000Y-116822000D01*
X107096000Y-116816000D01*
X107093000Y-116810000D01*
X107091000Y-116804000D01*
X107089000Y-116797000D01*
X107088000Y-116791000D01*
X107087000Y-116785000D01*
X107086000Y-116778000D01*
X107085000Y-116772000D01*
X107085000Y-116765000D01*
X107085000Y-116325000D01*
X107085000Y-116318000D01*
X107086000Y-116312000D01*
X107087000Y-116305000D01*
X107088000Y-116299000D01*
X107089000Y-116293000D01*
X107091000Y-116286000D01*
X107093000Y-116280000D01*
X107096000Y-116274000D01*
X107099000Y-116268000D01*
X107102000Y-116262000D01*
X107105000Y-116257000D01*
X107109000Y-116252000D01*
X107113000Y-116246000D01*
X107117000Y-116241000D01*
X107122000Y-116237000D01*
X107126000Y-116232000D01*
X107131000Y-116228000D01*
X107137000Y-116224000D01*
X107142000Y-116220000D01*
X107148000Y-116217000D01*
X107153000Y-116214000D01*
X107159000Y-116211000D01*
X107165000Y-116208000D01*
X107171000Y-116206000D01*
X107178000Y-116204000D01*
X107184000Y-116203000D01*
X107190000Y-116202000D01*
X107197000Y-116201000D01*
X107203000Y-116200000D01*
X107210000Y-116200000D01*
X107410000Y-116200000D01*
X107417000Y-116200000D01*
X107423000Y-116201000D01*
G37*
X107423000Y-118531000D02*
X107430000Y-118532000D01*
X107436000Y-118533000D01*
X107442000Y-118534000D01*
X107449000Y-118536000D01*
X107455000Y-118538000D01*
X107461000Y-118541000D01*
X107467000Y-118544000D01*
X107472000Y-118547000D01*
X107478000Y-118550000D01*
X107483000Y-118554000D01*
X107489000Y-118558000D01*
X107494000Y-118562000D01*
X107498000Y-118567000D01*
X107503000Y-118571000D01*
X107507000Y-118576000D01*
X107511000Y-118582000D01*
X107515000Y-118587000D01*
X107518000Y-118592000D01*
X107521000Y-118598000D01*
X107524000Y-118604000D01*
X107527000Y-118610000D01*
X107529000Y-118616000D01*
X107531000Y-118623000D01*
X107532000Y-118629000D01*
X107533000Y-118635000D01*
X107534000Y-118642000D01*
X107535000Y-118648000D01*
X107535000Y-118655000D01*
X107535000Y-119095000D01*
X107535000Y-119102000D01*
X107534000Y-119108000D01*
X107533000Y-119115000D01*
X107532000Y-119121000D01*
X107531000Y-119127000D01*
X107529000Y-119134000D01*
X107527000Y-119140000D01*
X107524000Y-119146000D01*
X107521000Y-119152000D01*
X107518000Y-119158000D01*
X107515000Y-119163000D01*
X107511000Y-119168000D01*
X107507000Y-119174000D01*
X107503000Y-119179000D01*
X107498000Y-119183000D01*
X107494000Y-119188000D01*
X107489000Y-119192000D01*
X107483000Y-119196000D01*
X107478000Y-119200000D01*
X107472000Y-119203000D01*
X107467000Y-119206000D01*
X107461000Y-119209000D01*
X107455000Y-119212000D01*
X107449000Y-119214000D01*
X107442000Y-119216000D01*
X107436000Y-119217000D01*
X107430000Y-119218000D01*
X107423000Y-119219000D01*
X107417000Y-119220000D01*
X107410000Y-119220000D01*
X107210000Y-119220000D01*
X107203000Y-119220000D01*
X107197000Y-119219000D01*
X107190000Y-119218000D01*
X107184000Y-119217000D01*
X107178000Y-119216000D01*
X107171000Y-119214000D01*
X107165000Y-119212000D01*
X107159000Y-119209000D01*
X107153000Y-119206000D01*
X107148000Y-119203000D01*
X107142000Y-119200000D01*
X107137000Y-119196000D01*
X107131000Y-119192000D01*
X107126000Y-119188000D01*
X107122000Y-119183000D01*
X107117000Y-119179000D01*
X107113000Y-119174000D01*
X107109000Y-119168000D01*
X107105000Y-119163000D01*
X107102000Y-119158000D01*
X107099000Y-119152000D01*
X107096000Y-119146000D01*
X107093000Y-119140000D01*
X107091000Y-119134000D01*
X107089000Y-119127000D01*
X107088000Y-119121000D01*
X107087000Y-119115000D01*
X107086000Y-119108000D01*
X107085000Y-119102000D01*
X107085000Y-119095000D01*
X107085000Y-118655000D01*
X107085000Y-118648000D01*
X107086000Y-118642000D01*
X107087000Y-118635000D01*
X107088000Y-118629000D01*
X107089000Y-118623000D01*
X107091000Y-118616000D01*
X107093000Y-118610000D01*
X107096000Y-118604000D01*
X107099000Y-118598000D01*
X107102000Y-118592000D01*
X107105000Y-118587000D01*
X107109000Y-118582000D01*
X107113000Y-118576000D01*
X107117000Y-118571000D01*
X107122000Y-118567000D01*
X107126000Y-118562000D01*
X107131000Y-118558000D01*
X107137000Y-118554000D01*
X107142000Y-118550000D01*
X107148000Y-118547000D01*
X107153000Y-118544000D01*
X107159000Y-118541000D01*
X107165000Y-118538000D01*
X107171000Y-118536000D01*
X107178000Y-118534000D01*
X107184000Y-118533000D01*
X107190000Y-118532000D01*
X107197000Y-118531000D01*
X107203000Y-118530000D01*
X107210000Y-118530000D01*
X107410000Y-118530000D01*
X107417000Y-118530000D01*
X107423000Y-118531000D01*
G36*
X107423000Y-118531000D02*
G01*
X107430000Y-118532000D01*
X107436000Y-118533000D01*
X107442000Y-118534000D01*
X107449000Y-118536000D01*
X107455000Y-118538000D01*
X107461000Y-118541000D01*
X107467000Y-118544000D01*
X107472000Y-118547000D01*
X107478000Y-118550000D01*
X107483000Y-118554000D01*
X107489000Y-118558000D01*
X107494000Y-118562000D01*
X107498000Y-118567000D01*
X107503000Y-118571000D01*
X107507000Y-118576000D01*
X107511000Y-118582000D01*
X107515000Y-118587000D01*
X107518000Y-118592000D01*
X107521000Y-118598000D01*
X107524000Y-118604000D01*
X107527000Y-118610000D01*
X107529000Y-118616000D01*
X107531000Y-118623000D01*
X107532000Y-118629000D01*
X107533000Y-118635000D01*
X107534000Y-118642000D01*
X107535000Y-118648000D01*
X107535000Y-118655000D01*
X107535000Y-119095000D01*
X107535000Y-119102000D01*
X107534000Y-119108000D01*
X107533000Y-119115000D01*
X107532000Y-119121000D01*
X107531000Y-119127000D01*
X107529000Y-119134000D01*
X107527000Y-119140000D01*
X107524000Y-119146000D01*
X107521000Y-119152000D01*
X107518000Y-119158000D01*
X107515000Y-119163000D01*
X107511000Y-119168000D01*
X107507000Y-119174000D01*
X107503000Y-119179000D01*
X107498000Y-119183000D01*
X107494000Y-119188000D01*
X107489000Y-119192000D01*
X107483000Y-119196000D01*
X107478000Y-119200000D01*
X107472000Y-119203000D01*
X107467000Y-119206000D01*
X107461000Y-119209000D01*
X107455000Y-119212000D01*
X107449000Y-119214000D01*
X107442000Y-119216000D01*
X107436000Y-119217000D01*
X107430000Y-119218000D01*
X107423000Y-119219000D01*
X107417000Y-119220000D01*
X107410000Y-119220000D01*
X107210000Y-119220000D01*
X107203000Y-119220000D01*
X107197000Y-119219000D01*
X107190000Y-119218000D01*
X107184000Y-119217000D01*
X107178000Y-119216000D01*
X107171000Y-119214000D01*
X107165000Y-119212000D01*
X107159000Y-119209000D01*
X107153000Y-119206000D01*
X107148000Y-119203000D01*
X107142000Y-119200000D01*
X107137000Y-119196000D01*
X107131000Y-119192000D01*
X107126000Y-119188000D01*
X107122000Y-119183000D01*
X107117000Y-119179000D01*
X107113000Y-119174000D01*
X107109000Y-119168000D01*
X107105000Y-119163000D01*
X107102000Y-119158000D01*
X107099000Y-119152000D01*
X107096000Y-119146000D01*
X107093000Y-119140000D01*
X107091000Y-119134000D01*
X107089000Y-119127000D01*
X107088000Y-119121000D01*
X107087000Y-119115000D01*
X107086000Y-119108000D01*
X107085000Y-119102000D01*
X107085000Y-119095000D01*
X107085000Y-118655000D01*
X107085000Y-118648000D01*
X107086000Y-118642000D01*
X107087000Y-118635000D01*
X107088000Y-118629000D01*
X107089000Y-118623000D01*
X107091000Y-118616000D01*
X107093000Y-118610000D01*
X107096000Y-118604000D01*
X107099000Y-118598000D01*
X107102000Y-118592000D01*
X107105000Y-118587000D01*
X107109000Y-118582000D01*
X107113000Y-118576000D01*
X107117000Y-118571000D01*
X107122000Y-118567000D01*
X107126000Y-118562000D01*
X107131000Y-118558000D01*
X107137000Y-118554000D01*
X107142000Y-118550000D01*
X107148000Y-118547000D01*
X107153000Y-118544000D01*
X107159000Y-118541000D01*
X107165000Y-118538000D01*
X107171000Y-118536000D01*
X107178000Y-118534000D01*
X107184000Y-118533000D01*
X107190000Y-118532000D01*
X107197000Y-118531000D01*
X107203000Y-118530000D01*
X107210000Y-118530000D01*
X107410000Y-118530000D01*
X107417000Y-118530000D01*
X107423000Y-118531000D01*
G37*
X107708000Y-116986000D02*
X107715000Y-116987000D01*
X107721000Y-116988000D01*
X107727000Y-116989000D01*
X107734000Y-116991000D01*
X107740000Y-116993000D01*
X107746000Y-116996000D01*
X107752000Y-116999000D01*
X107758000Y-117002000D01*
X107763000Y-117005000D01*
X107768000Y-117009000D01*
X107774000Y-117013000D01*
X107779000Y-117017000D01*
X107783000Y-117022000D01*
X107788000Y-117026000D01*
X107792000Y-117031000D01*
X107796000Y-117037000D01*
X107800000Y-117042000D01*
X107803000Y-117048000D01*
X107806000Y-117053000D01*
X107809000Y-117059000D01*
X107812000Y-117065000D01*
X107814000Y-117071000D01*
X107816000Y-117078000D01*
X107817000Y-117084000D01*
X107818000Y-117090000D01*
X107819000Y-117097000D01*
X107820000Y-117103000D01*
X107820000Y-117110000D01*
X107820000Y-117310000D01*
X107820000Y-117317000D01*
X107819000Y-117323000D01*
X107818000Y-117330000D01*
X107817000Y-117336000D01*
X107816000Y-117342000D01*
X107814000Y-117349000D01*
X107812000Y-117355000D01*
X107809000Y-117361000D01*
X107806000Y-117367000D01*
X107803000Y-117372000D01*
X107800000Y-117378000D01*
X107796000Y-117383000D01*
X107792000Y-117389000D01*
X107788000Y-117394000D01*
X107783000Y-117398000D01*
X107779000Y-117403000D01*
X107774000Y-117407000D01*
X107768000Y-117411000D01*
X107763000Y-117415000D01*
X107758000Y-117418000D01*
X107752000Y-117421000D01*
X107746000Y-117424000D01*
X107740000Y-117427000D01*
X107734000Y-117429000D01*
X107727000Y-117431000D01*
X107721000Y-117432000D01*
X107715000Y-117433000D01*
X107708000Y-117434000D01*
X107702000Y-117435000D01*
X107695000Y-117435000D01*
X107255000Y-117435000D01*
X107248000Y-117435000D01*
X107242000Y-117434000D01*
X107235000Y-117433000D01*
X107229000Y-117432000D01*
X107223000Y-117431000D01*
X107216000Y-117429000D01*
X107210000Y-117427000D01*
X107204000Y-117424000D01*
X107198000Y-117421000D01*
X107192000Y-117418000D01*
X107187000Y-117415000D01*
X107182000Y-117411000D01*
X107176000Y-117407000D01*
X107171000Y-117403000D01*
X107167000Y-117398000D01*
X107162000Y-117394000D01*
X107158000Y-117389000D01*
X107154000Y-117383000D01*
X107150000Y-117378000D01*
X107147000Y-117372000D01*
X107144000Y-117367000D01*
X107141000Y-117361000D01*
X107138000Y-117355000D01*
X107136000Y-117349000D01*
X107134000Y-117342000D01*
X107133000Y-117336000D01*
X107132000Y-117330000D01*
X107131000Y-117323000D01*
X107130000Y-117317000D01*
X107130000Y-117310000D01*
X107130000Y-117110000D01*
X107130000Y-117103000D01*
X107131000Y-117097000D01*
X107132000Y-117090000D01*
X107133000Y-117084000D01*
X107134000Y-117078000D01*
X107136000Y-117071000D01*
X107138000Y-117065000D01*
X107141000Y-117059000D01*
X107144000Y-117053000D01*
X107147000Y-117047000D01*
X107150000Y-117042000D01*
X107154000Y-117037000D01*
X107158000Y-117031000D01*
X107162000Y-117026000D01*
X107167000Y-117022000D01*
X107171000Y-117017000D01*
X107176000Y-117013000D01*
X107182000Y-117009000D01*
X107187000Y-117005000D01*
X107192000Y-117002000D01*
X107198000Y-116999000D01*
X107204000Y-116996000D01*
X107210000Y-116993000D01*
X107216000Y-116991000D01*
X107223000Y-116989000D01*
X107229000Y-116988000D01*
X107235000Y-116987000D01*
X107242000Y-116986000D01*
X107248000Y-116985000D01*
X107255000Y-116985000D01*
X107695000Y-116985000D01*
X107702000Y-116985000D01*
X107708000Y-116986000D01*
G36*
X107708000Y-116986000D02*
G01*
X107715000Y-116987000D01*
X107721000Y-116988000D01*
X107727000Y-116989000D01*
X107734000Y-116991000D01*
X107740000Y-116993000D01*
X107746000Y-116996000D01*
X107752000Y-116999000D01*
X107758000Y-117002000D01*
X107763000Y-117005000D01*
X107768000Y-117009000D01*
X107774000Y-117013000D01*
X107779000Y-117017000D01*
X107783000Y-117022000D01*
X107788000Y-117026000D01*
X107792000Y-117031000D01*
X107796000Y-117037000D01*
X107800000Y-117042000D01*
X107803000Y-117048000D01*
X107806000Y-117053000D01*
X107809000Y-117059000D01*
X107812000Y-117065000D01*
X107814000Y-117071000D01*
X107816000Y-117078000D01*
X107817000Y-117084000D01*
X107818000Y-117090000D01*
X107819000Y-117097000D01*
X107820000Y-117103000D01*
X107820000Y-117110000D01*
X107820000Y-117310000D01*
X107820000Y-117317000D01*
X107819000Y-117323000D01*
X107818000Y-117330000D01*
X107817000Y-117336000D01*
X107816000Y-117342000D01*
X107814000Y-117349000D01*
X107812000Y-117355000D01*
X107809000Y-117361000D01*
X107806000Y-117367000D01*
X107803000Y-117372000D01*
X107800000Y-117378000D01*
X107796000Y-117383000D01*
X107792000Y-117389000D01*
X107788000Y-117394000D01*
X107783000Y-117398000D01*
X107779000Y-117403000D01*
X107774000Y-117407000D01*
X107768000Y-117411000D01*
X107763000Y-117415000D01*
X107758000Y-117418000D01*
X107752000Y-117421000D01*
X107746000Y-117424000D01*
X107740000Y-117427000D01*
X107734000Y-117429000D01*
X107727000Y-117431000D01*
X107721000Y-117432000D01*
X107715000Y-117433000D01*
X107708000Y-117434000D01*
X107702000Y-117435000D01*
X107695000Y-117435000D01*
X107255000Y-117435000D01*
X107248000Y-117435000D01*
X107242000Y-117434000D01*
X107235000Y-117433000D01*
X107229000Y-117432000D01*
X107223000Y-117431000D01*
X107216000Y-117429000D01*
X107210000Y-117427000D01*
X107204000Y-117424000D01*
X107198000Y-117421000D01*
X107192000Y-117418000D01*
X107187000Y-117415000D01*
X107182000Y-117411000D01*
X107176000Y-117407000D01*
X107171000Y-117403000D01*
X107167000Y-117398000D01*
X107162000Y-117394000D01*
X107158000Y-117389000D01*
X107154000Y-117383000D01*
X107150000Y-117378000D01*
X107147000Y-117372000D01*
X107144000Y-117367000D01*
X107141000Y-117361000D01*
X107138000Y-117355000D01*
X107136000Y-117349000D01*
X107134000Y-117342000D01*
X107133000Y-117336000D01*
X107132000Y-117330000D01*
X107131000Y-117323000D01*
X107130000Y-117317000D01*
X107130000Y-117310000D01*
X107130000Y-117110000D01*
X107130000Y-117103000D01*
X107131000Y-117097000D01*
X107132000Y-117090000D01*
X107133000Y-117084000D01*
X107134000Y-117078000D01*
X107136000Y-117071000D01*
X107138000Y-117065000D01*
X107141000Y-117059000D01*
X107144000Y-117053000D01*
X107147000Y-117047000D01*
X107150000Y-117042000D01*
X107154000Y-117037000D01*
X107158000Y-117031000D01*
X107162000Y-117026000D01*
X107167000Y-117022000D01*
X107171000Y-117017000D01*
X107176000Y-117013000D01*
X107182000Y-117009000D01*
X107187000Y-117005000D01*
X107192000Y-117002000D01*
X107198000Y-116999000D01*
X107204000Y-116996000D01*
X107210000Y-116993000D01*
X107216000Y-116991000D01*
X107223000Y-116989000D01*
X107229000Y-116988000D01*
X107235000Y-116987000D01*
X107242000Y-116986000D01*
X107248000Y-116985000D01*
X107255000Y-116985000D01*
X107695000Y-116985000D01*
X107702000Y-116985000D01*
X107708000Y-116986000D01*
G37*
X107708000Y-117486000D02*
X107715000Y-117487000D01*
X107721000Y-117488000D01*
X107727000Y-117489000D01*
X107734000Y-117491000D01*
X107740000Y-117493000D01*
X107746000Y-117496000D01*
X107752000Y-117499000D01*
X107758000Y-117502000D01*
X107763000Y-117505000D01*
X107768000Y-117509000D01*
X107774000Y-117513000D01*
X107779000Y-117517000D01*
X107783000Y-117522000D01*
X107788000Y-117526000D01*
X107792000Y-117531000D01*
X107796000Y-117537000D01*
X107800000Y-117542000D01*
X107803000Y-117548000D01*
X107806000Y-117553000D01*
X107809000Y-117559000D01*
X107812000Y-117565000D01*
X107814000Y-117571000D01*
X107816000Y-117578000D01*
X107817000Y-117584000D01*
X107818000Y-117590000D01*
X107819000Y-117597000D01*
X107820000Y-117603000D01*
X107820000Y-117610000D01*
X107820000Y-117810000D01*
X107820000Y-117817000D01*
X107819000Y-117823000D01*
X107818000Y-117830000D01*
X107817000Y-117836000D01*
X107816000Y-117842000D01*
X107814000Y-117849000D01*
X107812000Y-117855000D01*
X107809000Y-117861000D01*
X107806000Y-117867000D01*
X107803000Y-117873000D01*
X107800000Y-117878000D01*
X107796000Y-117883000D01*
X107792000Y-117889000D01*
X107788000Y-117894000D01*
X107783000Y-117898000D01*
X107779000Y-117903000D01*
X107774000Y-117907000D01*
X107768000Y-117911000D01*
X107763000Y-117915000D01*
X107758000Y-117918000D01*
X107752000Y-117921000D01*
X107746000Y-117924000D01*
X107740000Y-117927000D01*
X107734000Y-117929000D01*
X107727000Y-117931000D01*
X107721000Y-117932000D01*
X107715000Y-117933000D01*
X107708000Y-117934000D01*
X107702000Y-117935000D01*
X107695000Y-117935000D01*
X107255000Y-117935000D01*
X107248000Y-117935000D01*
X107242000Y-117934000D01*
X107235000Y-117933000D01*
X107229000Y-117932000D01*
X107223000Y-117931000D01*
X107216000Y-117929000D01*
X107210000Y-117927000D01*
X107204000Y-117924000D01*
X107198000Y-117921000D01*
X107192000Y-117918000D01*
X107187000Y-117915000D01*
X107182000Y-117911000D01*
X107176000Y-117907000D01*
X107171000Y-117903000D01*
X107167000Y-117898000D01*
X107162000Y-117894000D01*
X107158000Y-117889000D01*
X107154000Y-117883000D01*
X107150000Y-117878000D01*
X107147000Y-117873000D01*
X107144000Y-117867000D01*
X107141000Y-117861000D01*
X107138000Y-117855000D01*
X107136000Y-117849000D01*
X107134000Y-117842000D01*
X107133000Y-117836000D01*
X107132000Y-117830000D01*
X107131000Y-117823000D01*
X107130000Y-117817000D01*
X107130000Y-117810000D01*
X107130000Y-117610000D01*
X107130000Y-117603000D01*
X107131000Y-117597000D01*
X107132000Y-117590000D01*
X107133000Y-117584000D01*
X107134000Y-117578000D01*
X107136000Y-117571000D01*
X107138000Y-117565000D01*
X107141000Y-117559000D01*
X107144000Y-117553000D01*
X107147000Y-117547000D01*
X107150000Y-117542000D01*
X107154000Y-117537000D01*
X107158000Y-117531000D01*
X107162000Y-117526000D01*
X107167000Y-117522000D01*
X107171000Y-117517000D01*
X107176000Y-117513000D01*
X107182000Y-117509000D01*
X107187000Y-117505000D01*
X107192000Y-117502000D01*
X107198000Y-117499000D01*
X107204000Y-117496000D01*
X107210000Y-117493000D01*
X107216000Y-117491000D01*
X107223000Y-117489000D01*
X107229000Y-117488000D01*
X107235000Y-117487000D01*
X107242000Y-117486000D01*
X107248000Y-117485000D01*
X107255000Y-117485000D01*
X107695000Y-117485000D01*
X107702000Y-117485000D01*
X107708000Y-117486000D01*
G36*
X107708000Y-117486000D02*
G01*
X107715000Y-117487000D01*
X107721000Y-117488000D01*
X107727000Y-117489000D01*
X107734000Y-117491000D01*
X107740000Y-117493000D01*
X107746000Y-117496000D01*
X107752000Y-117499000D01*
X107758000Y-117502000D01*
X107763000Y-117505000D01*
X107768000Y-117509000D01*
X107774000Y-117513000D01*
X107779000Y-117517000D01*
X107783000Y-117522000D01*
X107788000Y-117526000D01*
X107792000Y-117531000D01*
X107796000Y-117537000D01*
X107800000Y-117542000D01*
X107803000Y-117548000D01*
X107806000Y-117553000D01*
X107809000Y-117559000D01*
X107812000Y-117565000D01*
X107814000Y-117571000D01*
X107816000Y-117578000D01*
X107817000Y-117584000D01*
X107818000Y-117590000D01*
X107819000Y-117597000D01*
X107820000Y-117603000D01*
X107820000Y-117610000D01*
X107820000Y-117810000D01*
X107820000Y-117817000D01*
X107819000Y-117823000D01*
X107818000Y-117830000D01*
X107817000Y-117836000D01*
X107816000Y-117842000D01*
X107814000Y-117849000D01*
X107812000Y-117855000D01*
X107809000Y-117861000D01*
X107806000Y-117867000D01*
X107803000Y-117873000D01*
X107800000Y-117878000D01*
X107796000Y-117883000D01*
X107792000Y-117889000D01*
X107788000Y-117894000D01*
X107783000Y-117898000D01*
X107779000Y-117903000D01*
X107774000Y-117907000D01*
X107768000Y-117911000D01*
X107763000Y-117915000D01*
X107758000Y-117918000D01*
X107752000Y-117921000D01*
X107746000Y-117924000D01*
X107740000Y-117927000D01*
X107734000Y-117929000D01*
X107727000Y-117931000D01*
X107721000Y-117932000D01*
X107715000Y-117933000D01*
X107708000Y-117934000D01*
X107702000Y-117935000D01*
X107695000Y-117935000D01*
X107255000Y-117935000D01*
X107248000Y-117935000D01*
X107242000Y-117934000D01*
X107235000Y-117933000D01*
X107229000Y-117932000D01*
X107223000Y-117931000D01*
X107216000Y-117929000D01*
X107210000Y-117927000D01*
X107204000Y-117924000D01*
X107198000Y-117921000D01*
X107192000Y-117918000D01*
X107187000Y-117915000D01*
X107182000Y-117911000D01*
X107176000Y-117907000D01*
X107171000Y-117903000D01*
X107167000Y-117898000D01*
X107162000Y-117894000D01*
X107158000Y-117889000D01*
X107154000Y-117883000D01*
X107150000Y-117878000D01*
X107147000Y-117873000D01*
X107144000Y-117867000D01*
X107141000Y-117861000D01*
X107138000Y-117855000D01*
X107136000Y-117849000D01*
X107134000Y-117842000D01*
X107133000Y-117836000D01*
X107132000Y-117830000D01*
X107131000Y-117823000D01*
X107130000Y-117817000D01*
X107130000Y-117810000D01*
X107130000Y-117610000D01*
X107130000Y-117603000D01*
X107131000Y-117597000D01*
X107132000Y-117590000D01*
X107133000Y-117584000D01*
X107134000Y-117578000D01*
X107136000Y-117571000D01*
X107138000Y-117565000D01*
X107141000Y-117559000D01*
X107144000Y-117553000D01*
X107147000Y-117547000D01*
X107150000Y-117542000D01*
X107154000Y-117537000D01*
X107158000Y-117531000D01*
X107162000Y-117526000D01*
X107167000Y-117522000D01*
X107171000Y-117517000D01*
X107176000Y-117513000D01*
X107182000Y-117509000D01*
X107187000Y-117505000D01*
X107192000Y-117502000D01*
X107198000Y-117499000D01*
X107204000Y-117496000D01*
X107210000Y-117493000D01*
X107216000Y-117491000D01*
X107223000Y-117489000D01*
X107229000Y-117488000D01*
X107235000Y-117487000D01*
X107242000Y-117486000D01*
X107248000Y-117485000D01*
X107255000Y-117485000D01*
X107695000Y-117485000D01*
X107702000Y-117485000D01*
X107708000Y-117486000D01*
G37*
X107708000Y-117986000D02*
X107715000Y-117987000D01*
X107721000Y-117988000D01*
X107727000Y-117989000D01*
X107734000Y-117991000D01*
X107740000Y-117993000D01*
X107746000Y-117996000D01*
X107752000Y-117999000D01*
X107758000Y-118002000D01*
X107763000Y-118005000D01*
X107768000Y-118009000D01*
X107774000Y-118013000D01*
X107779000Y-118017000D01*
X107783000Y-118022000D01*
X107788000Y-118026000D01*
X107792000Y-118031000D01*
X107796000Y-118037000D01*
X107800000Y-118042000D01*
X107803000Y-118048000D01*
X107806000Y-118053000D01*
X107809000Y-118059000D01*
X107812000Y-118065000D01*
X107814000Y-118071000D01*
X107816000Y-118078000D01*
X107817000Y-118084000D01*
X107818000Y-118090000D01*
X107819000Y-118097000D01*
X107820000Y-118103000D01*
X107820000Y-118110000D01*
X107820000Y-118310000D01*
X107820000Y-118317000D01*
X107819000Y-118323000D01*
X107818000Y-118330000D01*
X107817000Y-118336000D01*
X107816000Y-118342000D01*
X107814000Y-118349000D01*
X107812000Y-118355000D01*
X107809000Y-118361000D01*
X107806000Y-118367000D01*
X107803000Y-118372000D01*
X107800000Y-118378000D01*
X107796000Y-118383000D01*
X107792000Y-118389000D01*
X107788000Y-118394000D01*
X107783000Y-118398000D01*
X107779000Y-118403000D01*
X107774000Y-118407000D01*
X107768000Y-118411000D01*
X107763000Y-118415000D01*
X107758000Y-118418000D01*
X107752000Y-118421000D01*
X107746000Y-118424000D01*
X107740000Y-118427000D01*
X107734000Y-118429000D01*
X107727000Y-118431000D01*
X107721000Y-118432000D01*
X107715000Y-118433000D01*
X107708000Y-118434000D01*
X107702000Y-118435000D01*
X107695000Y-118435000D01*
X107255000Y-118435000D01*
X107248000Y-118435000D01*
X107242000Y-118434000D01*
X107235000Y-118433000D01*
X107229000Y-118432000D01*
X107223000Y-118431000D01*
X107216000Y-118429000D01*
X107210000Y-118427000D01*
X107204000Y-118424000D01*
X107198000Y-118421000D01*
X107192000Y-118418000D01*
X107187000Y-118415000D01*
X107182000Y-118411000D01*
X107176000Y-118407000D01*
X107171000Y-118403000D01*
X107167000Y-118398000D01*
X107162000Y-118394000D01*
X107158000Y-118389000D01*
X107154000Y-118383000D01*
X107150000Y-118378000D01*
X107147000Y-118372000D01*
X107144000Y-118367000D01*
X107141000Y-118361000D01*
X107138000Y-118355000D01*
X107136000Y-118349000D01*
X107134000Y-118342000D01*
X107133000Y-118336000D01*
X107132000Y-118330000D01*
X107131000Y-118323000D01*
X107130000Y-118317000D01*
X107130000Y-118310000D01*
X107130000Y-118110000D01*
X107130000Y-118103000D01*
X107131000Y-118097000D01*
X107132000Y-118090000D01*
X107133000Y-118084000D01*
X107134000Y-118078000D01*
X107136000Y-118071000D01*
X107138000Y-118065000D01*
X107141000Y-118059000D01*
X107144000Y-118053000D01*
X107147000Y-118047000D01*
X107150000Y-118042000D01*
X107154000Y-118037000D01*
X107158000Y-118031000D01*
X107162000Y-118026000D01*
X107167000Y-118022000D01*
X107171000Y-118017000D01*
X107176000Y-118013000D01*
X107182000Y-118009000D01*
X107187000Y-118005000D01*
X107192000Y-118002000D01*
X107198000Y-117999000D01*
X107204000Y-117996000D01*
X107210000Y-117993000D01*
X107216000Y-117991000D01*
X107223000Y-117989000D01*
X107229000Y-117988000D01*
X107235000Y-117987000D01*
X107242000Y-117986000D01*
X107248000Y-117985000D01*
X107255000Y-117985000D01*
X107695000Y-117985000D01*
X107702000Y-117985000D01*
X107708000Y-117986000D01*
G36*
X107708000Y-117986000D02*
G01*
X107715000Y-117987000D01*
X107721000Y-117988000D01*
X107727000Y-117989000D01*
X107734000Y-117991000D01*
X107740000Y-117993000D01*
X107746000Y-117996000D01*
X107752000Y-117999000D01*
X107758000Y-118002000D01*
X107763000Y-118005000D01*
X107768000Y-118009000D01*
X107774000Y-118013000D01*
X107779000Y-118017000D01*
X107783000Y-118022000D01*
X107788000Y-118026000D01*
X107792000Y-118031000D01*
X107796000Y-118037000D01*
X107800000Y-118042000D01*
X107803000Y-118048000D01*
X107806000Y-118053000D01*
X107809000Y-118059000D01*
X107812000Y-118065000D01*
X107814000Y-118071000D01*
X107816000Y-118078000D01*
X107817000Y-118084000D01*
X107818000Y-118090000D01*
X107819000Y-118097000D01*
X107820000Y-118103000D01*
X107820000Y-118110000D01*
X107820000Y-118310000D01*
X107820000Y-118317000D01*
X107819000Y-118323000D01*
X107818000Y-118330000D01*
X107817000Y-118336000D01*
X107816000Y-118342000D01*
X107814000Y-118349000D01*
X107812000Y-118355000D01*
X107809000Y-118361000D01*
X107806000Y-118367000D01*
X107803000Y-118372000D01*
X107800000Y-118378000D01*
X107796000Y-118383000D01*
X107792000Y-118389000D01*
X107788000Y-118394000D01*
X107783000Y-118398000D01*
X107779000Y-118403000D01*
X107774000Y-118407000D01*
X107768000Y-118411000D01*
X107763000Y-118415000D01*
X107758000Y-118418000D01*
X107752000Y-118421000D01*
X107746000Y-118424000D01*
X107740000Y-118427000D01*
X107734000Y-118429000D01*
X107727000Y-118431000D01*
X107721000Y-118432000D01*
X107715000Y-118433000D01*
X107708000Y-118434000D01*
X107702000Y-118435000D01*
X107695000Y-118435000D01*
X107255000Y-118435000D01*
X107248000Y-118435000D01*
X107242000Y-118434000D01*
X107235000Y-118433000D01*
X107229000Y-118432000D01*
X107223000Y-118431000D01*
X107216000Y-118429000D01*
X107210000Y-118427000D01*
X107204000Y-118424000D01*
X107198000Y-118421000D01*
X107192000Y-118418000D01*
X107187000Y-118415000D01*
X107182000Y-118411000D01*
X107176000Y-118407000D01*
X107171000Y-118403000D01*
X107167000Y-118398000D01*
X107162000Y-118394000D01*
X107158000Y-118389000D01*
X107154000Y-118383000D01*
X107150000Y-118378000D01*
X107147000Y-118372000D01*
X107144000Y-118367000D01*
X107141000Y-118361000D01*
X107138000Y-118355000D01*
X107136000Y-118349000D01*
X107134000Y-118342000D01*
X107133000Y-118336000D01*
X107132000Y-118330000D01*
X107131000Y-118323000D01*
X107130000Y-118317000D01*
X107130000Y-118310000D01*
X107130000Y-118110000D01*
X107130000Y-118103000D01*
X107131000Y-118097000D01*
X107132000Y-118090000D01*
X107133000Y-118084000D01*
X107134000Y-118078000D01*
X107136000Y-118071000D01*
X107138000Y-118065000D01*
X107141000Y-118059000D01*
X107144000Y-118053000D01*
X107147000Y-118047000D01*
X107150000Y-118042000D01*
X107154000Y-118037000D01*
X107158000Y-118031000D01*
X107162000Y-118026000D01*
X107167000Y-118022000D01*
X107171000Y-118017000D01*
X107176000Y-118013000D01*
X107182000Y-118009000D01*
X107187000Y-118005000D01*
X107192000Y-118002000D01*
X107198000Y-117999000D01*
X107204000Y-117996000D01*
X107210000Y-117993000D01*
X107216000Y-117991000D01*
X107223000Y-117989000D01*
X107229000Y-117988000D01*
X107235000Y-117987000D01*
X107242000Y-117986000D01*
X107248000Y-117985000D01*
X107255000Y-117985000D01*
X107695000Y-117985000D01*
X107702000Y-117985000D01*
X107708000Y-117986000D01*
G37*
%TD*%
D11*
%TO.C,mouse-bite-2.54mm-4.66mm*%
X88357500Y-90331372D03*
X86227500Y-90331372D03*
X88357500Y-91331372D03*
X86227500Y-91341372D03*
X88357500Y-92331372D03*
X86227500Y-92331372D03*
%TD*%
%TO.C,mouse-bite-2.54mm-4.66mm*%
X86227500Y-121151372D03*
X88357500Y-121151372D03*
X86227500Y-120161372D03*
X88357500Y-120151372D03*
X86227500Y-119151372D03*
X88357500Y-119151372D03*
%TD*%
D12*
%TO.C,REF\u002A\u002A*%
X71505000Y-44221372D03*
%TD*%
D13*
%TO.C,C2*%
X78590000Y-110903872D03*
X78590000Y-112038872D03*
%TD*%
D14*
%TO.C,R12*%
X82942500Y-136821372D03*
X84137500Y-136821372D03*
%TD*%
%TO.C,R3*%
X83002500Y-84121372D03*
X84197500Y-84121372D03*
%TD*%
%TO.C,R14*%
X75970000Y-55641372D03*
X77165000Y-55641372D03*
%TD*%
%TO.C,R9*%
X82935000Y-122161372D03*
X84130000Y-122161372D03*
%TD*%
%TO.C,R7*%
X82980000Y-93651372D03*
X84175000Y-93651372D03*
%TD*%
D15*
%TO.C,J1*%
X77580000Y-101321372D03*
X77580000Y-101821372D03*
X77580000Y-102321372D03*
X77580000Y-102821372D03*
X77580000Y-103321372D03*
X77580000Y-103821372D03*
X77580000Y-104321372D03*
X77580000Y-104821372D03*
X77580000Y-105321372D03*
X77580000Y-105821372D03*
X77580000Y-106321372D03*
X77580000Y-106821372D03*
X77580000Y-107321372D03*
X77580000Y-107821372D03*
X77580000Y-108321372D03*
X77580000Y-108821372D03*
X77580000Y-109321372D03*
X77580000Y-109821372D03*
D16*
X74330000Y-99421372D03*
X74330000Y-111721372D03*
%TD*%
D14*
%TO.C,R13*%
X79465000Y-65101372D03*
X80660000Y-65101372D03*
%TD*%
D12*
%TO.C,REF\u002A\u002A*%
X71505000Y-167221372D03*
%TD*%
D14*
%TO.C,R6*%
X82942500Y-103101372D03*
X84137500Y-103101372D03*
%TD*%
%TO.C,R10*%
X82960000Y-112601372D03*
X84155000Y-112601372D03*
%TD*%
%TO.C,R4*%
X83035000Y-74641372D03*
X84230000Y-74641372D03*
%TD*%
%TO.C,R18*%
X79575000Y-146271372D03*
X80770000Y-146271372D03*
%TD*%
%TO.C,R15*%
X82995000Y-131661372D03*
X84190000Y-131661372D03*
%TD*%
D13*
%TO.C,C1*%
X77580000Y-110913872D03*
X77580000Y-112048872D03*
%TD*%
D14*
%TO.C,R17*%
X76172500Y-155781372D03*
X77367500Y-155781372D03*
%TD*%
D17*
%TO.C,REF\u002A\u002A*%
X120560000Y-123710000D03*
%TD*%
D18*
%TO.C,C6*%
X112095000Y-89130000D03*
X113645000Y-89130000D03*
%TD*%
D19*
%TO.C,R2*%
X100645000Y-94830000D03*
X102470000Y-94830000D03*
%TD*%
D20*
%TO.C,C4*%
X115907500Y-93130000D03*
X117632500Y-93130000D03*
%TD*%
D11*
%TO.C,mouse-bite-2.54mm-4.66mm*%
X105490000Y-111370000D03*
X105490000Y-113500000D03*
X106480000Y-111370000D03*
X106490000Y-113500000D03*
X107490000Y-111370000D03*
X107490000Y-113500000D03*
%TD*%
D21*
%TO.C,R2*%
X111685000Y-119160000D03*
X109860000Y-119160000D03*
%TD*%
D22*
%TO.C,IMU_Conn1*%
X102560000Y-122210000D03*
X104560000Y-122210000D03*
X106560000Y-122210000D03*
X108560000Y-122210000D03*
X110560000Y-122210000D03*
%TD*%
D23*
%TO.C,C2*%
X102432500Y-93130000D03*
X100707500Y-93130000D03*
%TD*%
D24*
%TO.C,U2*%
X114020000Y-90992500D03*
X113070000Y-90992500D03*
X112120000Y-90992500D03*
X112120000Y-93267500D03*
X114020000Y-93267500D03*
%TD*%
D25*
%TO.C,C3*%
X103835000Y-115710000D03*
X102285000Y-115710000D03*
%TD*%
D26*
%TO.C,J2*%
X105170000Y-109470000D03*
X107370000Y-109470000D03*
%TD*%
D27*
%TO.C,C1*%
X102070000Y-104870000D03*
X102070000Y-106420000D03*
%TD*%
%TO.C,C3*%
X110470000Y-108020000D03*
X110470000Y-109570000D03*
%TD*%
D28*
%TO.C,C1*%
X110070000Y-96542500D03*
X110070000Y-94817500D03*
%TD*%
D29*
%TO.C,C1*%
X103560000Y-119260000D03*
X103560000Y-117710000D03*
%TD*%
D25*
%TO.C,C5*%
X115270000Y-95180000D03*
X113720000Y-95180000D03*
%TD*%
D21*
%TO.C,R1*%
X111672500Y-117610000D03*
X109847500Y-117610000D03*
%TD*%
D17*
%TO.C,REF\u002A\u002A*%
X92070000Y-87630000D03*
%TD*%
%TO.C,REF\u002A\u002A*%
X92560000Y-123710000D03*
%TD*%
D29*
%TO.C,C2*%
X110470000Y-106470000D03*
X110470000Y-104920000D03*
%TD*%
D17*
%TO.C,REF\u002A\u002A*%
X120070000Y-87630000D03*
%TD*%
D19*
%TO.C,R3*%
X100645000Y-91330000D03*
X102470000Y-91330000D03*
%TD*%
D29*
%TO.C,C2*%
X102060000Y-119260000D03*
X102060000Y-117710000D03*
%TD*%
D30*
%TO.C,U1*%
X104820000Y-95280000D03*
X105320000Y-95280000D03*
X105820000Y-95280000D03*
X106320000Y-95280000D03*
X106820000Y-95280000D03*
X107320000Y-95280000D03*
D31*
X108020000Y-94580000D03*
X108020000Y-94080000D03*
X108020000Y-93580000D03*
X108020000Y-93080000D03*
X108020000Y-92580000D03*
X108020000Y-92080000D03*
D30*
X107320000Y-91380000D03*
X106820000Y-91380000D03*
X106320000Y-91380000D03*
X105820000Y-91380000D03*
X105320000Y-91380000D03*
X104820000Y-91380000D03*
D31*
X104120000Y-92080000D03*
X104120000Y-92580000D03*
X104120000Y-93080000D03*
X104120000Y-93580000D03*
X104120000Y-94080000D03*
X104120000Y-94580000D03*
%TD*%
D32*
%TO.C,D1*%
X113695000Y-96780000D03*
X115270000Y-96780000D03*
%TD*%
D23*
%TO.C,C3*%
X107420000Y-96780000D03*
X105695000Y-96780000D03*
%TD*%
D33*
%TO.C,J1*%
X109520000Y-101670000D03*
X107320000Y-101670000D03*
X105120000Y-101670000D03*
X102920000Y-101670000D03*
%TD*%
D34*
%TO.C,R1*%
X116870000Y-94967500D03*
X116870000Y-96792500D03*
%TD*%
D11*
%TO.C,mouse-bite-2.54mm-4.66mm*%
X105210000Y-97830000D03*
X105210000Y-99960000D03*
X106200000Y-97830000D03*
X106210000Y-99960000D03*
X107210000Y-97830000D03*
X107210000Y-99960000D03*
%TD*%
D35*
%TO.C,IMU_Conn1*%
X110070000Y-89230000D03*
X108070000Y-89230000D03*
X106070000Y-89230000D03*
X104070000Y-89230000D03*
X102070000Y-89230000D03*
%TD*%
M02*
