%TF.GenerationSoftware,KiCad,Pcbnew,8.0.3*%
%TF.CreationDate,2025-05-12T21:07:43+02:00*%
%TF.ProjectId,IMU_PCBs,494d555f-5043-4427-932e-6b696361645f,rev?*%
%TF.SameCoordinates,Original*%
%TF.FileFunction,Copper,L2,Bot*%
%TF.FilePolarity,Positive*%
%FSLAX46Y46*%
G04 Gerber Fmt 4.6, Leading zero omitted, Abs format (unit mm)*
G04 Created by KiCad (PCBNEW 8.0.3) date 2025-05-12 21:07:43*
%MOMM*%
%LPD*%
G01*
G04 APERTURE LIST*
G04 Aperture macros list*
%AMRoundRect*
0 Rectangle with rounded corners*
0 $1 Rounding radius*
0 $2 $3 $4 $5 $6 $7 $8 $9 X,Y pos of 4 corners*
0 Add a 4 corners polygon primitive as box body*
4,1,4,$2,$3,$4,$5,$6,$7,$8,$9,$2,$3,0*
0 Add four circle primitives for the rounded corners*
1,1,$1+$1,$2,$3*
1,1,$1+$1,$4,$5*
1,1,$1+$1,$6,$7*
1,1,$1+$1,$8,$9*
0 Add four rect primitives between the rounded corners*
20,1,$1+$1,$2,$3,$4,$5,0*
20,1,$1+$1,$4,$5,$6,$7,0*
20,1,$1+$1,$6,$7,$8,$9,0*
20,1,$1+$1,$8,$9,$2,$3,0*%
G04 Aperture macros list end*
%TA.AperFunction,SMDPad,CuDef*%
%ADD10R,1.000000X1.000000*%
%TD*%
%TA.AperFunction,SMDPad,CuDef*%
%ADD11RoundRect,0.237500X-0.250000X-0.237500X0.250000X-0.237500X0.250000X0.237500X-0.250000X0.237500X0*%
%TD*%
%TA.AperFunction,SMDPad,CuDef*%
%ADD12RoundRect,0.237500X0.250000X0.237500X-0.250000X0.237500X-0.250000X-0.237500X0.250000X-0.237500X0*%
%TD*%
%TA.AperFunction,ViaPad*%
%ADD13C,0.400000*%
%TD*%
%TA.AperFunction,ViaPad*%
%ADD14C,0.600000*%
%TD*%
%TA.AperFunction,ViaPad*%
%ADD15C,0.550000*%
%TD*%
%TA.AperFunction,Conductor*%
%ADD16C,0.500000*%
%TD*%
%TA.AperFunction,Conductor*%
%ADD17C,0.200000*%
%TD*%
%TA.AperFunction,Conductor*%
%ADD18C,0.300000*%
%TD*%
%TA.AperFunction,Conductor*%
%ADD19C,0.150000*%
%TD*%
G04 APERTURE END LIST*
D10*
%TO.P,U1,1*%
%TO.N,+3.3V*%
X75930000Y-51321370D03*
%TO.P,U1,2*%
%TO.N,GND*%
X74130000Y-51321370D03*
%TO.P,U1,3*%
%TO.N,N/C*%
X74130000Y-55621370D03*
%TO.P,U1,4*%
X75930000Y-55621370D03*
%TD*%
%TO.P,U3,1*%
%TO.N,+3.3V*%
X82930000Y-70321370D03*
%TO.P,U3,2*%
%TO.N,GND*%
X81130000Y-70321370D03*
%TO.P,U3,3*%
%TO.N,N/C*%
X81130000Y-74621370D03*
%TO.P,U3,4*%
X82930000Y-74621370D03*
%TD*%
D11*
%TO.P,R11,1*%
%TO.N,N/C*%
X82297500Y-134211372D03*
%TO.P,R11,2*%
X84122500Y-134211372D03*
%TD*%
D12*
%TO.P,R5,1*%
%TO.N,N/C*%
X84012500Y-96211372D03*
%TO.P,R5,2*%
X82187500Y-96211372D03*
%TD*%
D10*
%TO.P,U12,1*%
%TO.N,N/C*%
X75930000Y-155821370D03*
%TO.P,U12,2*%
%TO.N,GND*%
X74130000Y-155821370D03*
%TO.P,U12,3*%
%TO.N,N/C*%
X74130000Y-160121370D03*
%TO.P,U12,4*%
%TO.N,GND*%
X75930000Y-160121370D03*
%TD*%
%TO.P,U8,1*%
%TO.N,N/C*%
X82930000Y-117821370D03*
%TO.P,U8,2*%
%TO.N,GND*%
X81130000Y-117821370D03*
%TO.P,U8,3*%
%TO.N,N/C*%
X81130000Y-122121370D03*
%TO.P,U8,4*%
%TO.N,GND*%
X82930000Y-122121370D03*
%TD*%
%TO.P,U11,1*%
%TO.N,+3.3V*%
X79430000Y-146321370D03*
%TO.P,U11,2*%
%TO.N,GND*%
X77630000Y-146321370D03*
%TO.P,U11,3*%
%TO.N,N/C*%
X77630000Y-150621370D03*
%TO.P,U11,4*%
X79430000Y-150621370D03*
%TD*%
D12*
%TO.P,R16,1*%
%TO.N,N/C*%
X79142500Y-153261372D03*
%TO.P,R16,2*%
X77317500Y-153261372D03*
%TD*%
D10*
%TO.P,U7,1*%
%TO.N,+3.3V*%
X82930000Y-108321370D03*
%TO.P,U7,2*%
%TO.N,GND*%
X81130000Y-108321370D03*
%TO.P,U7,3*%
%TO.N,N/C*%
X81130000Y-112621370D03*
%TO.P,U7,4*%
X82930000Y-112621370D03*
%TD*%
D11*
%TO.P,R8,1*%
%TO.N,N/C*%
X82205000Y-115321372D03*
%TO.P,R8,2*%
X84030000Y-115321372D03*
%TD*%
D10*
%TO.P,U2,1*%
%TO.N,N/C*%
X79430000Y-60821370D03*
%TO.P,U2,2*%
%TO.N,GND*%
X77630000Y-60821370D03*
%TO.P,U2,3*%
%TO.N,N/C*%
X77630000Y-65121370D03*
%TO.P,U2,4*%
%TO.N,GND*%
X79430000Y-65121370D03*
%TD*%
%TO.P,U4,1*%
%TO.N,N/C*%
X82930000Y-79821370D03*
%TO.P,U4,2*%
%TO.N,GND*%
X81130000Y-79821370D03*
%TO.P,U4,3*%
%TO.N,N/C*%
X81130000Y-84121370D03*
%TO.P,U4,4*%
%TO.N,GND*%
X82930000Y-84121370D03*
%TD*%
D11*
%TO.P,R1,1*%
%TO.N,N/C*%
X77045000Y-58151372D03*
%TO.P,R1,2*%
X78870000Y-58151372D03*
%TD*%
D10*
%TO.P,U9,1*%
%TO.N,+3.3V*%
X82930000Y-127321370D03*
%TO.P,U9,2*%
%TO.N,GND*%
X81130000Y-127321370D03*
%TO.P,U9,3*%
%TO.N,N/C*%
X81130000Y-131621370D03*
%TO.P,U9,4*%
X82930000Y-131621370D03*
%TD*%
%TO.P,U10,1*%
%TO.N,N/C*%
X82930000Y-136821370D03*
%TO.P,U10,2*%
%TO.N,GND*%
X81130000Y-136821370D03*
%TO.P,U10,3*%
%TO.N,N/C*%
X81130000Y-141121370D03*
%TO.P,U10,4*%
%TO.N,GND*%
X82930000Y-141121370D03*
%TD*%
%TO.P,U6,1*%
%TO.N,N/C*%
X82930000Y-98821370D03*
%TO.P,U6,2*%
%TO.N,GND*%
X81130000Y-98821370D03*
%TO.P,U6,3*%
%TO.N,N/C*%
X81130000Y-103121370D03*
%TO.P,U6,4*%
%TO.N,GND*%
X82930000Y-103121370D03*
%TD*%
%TO.P,U5,1*%
%TO.N,+3.3V*%
X82930000Y-89321370D03*
%TO.P,U5,2*%
%TO.N,GND*%
X81130000Y-89321370D03*
%TO.P,U5,3*%
%TO.N,N/C*%
X81130000Y-93621370D03*
%TO.P,U5,4*%
X82930000Y-93621370D03*
%TD*%
D12*
%TO.P,R2,1*%
%TO.N,N/C*%
X84012500Y-77171372D03*
%TO.P,R2,2*%
X82187500Y-77171372D03*
%TD*%
D13*
%TO.N,*%
X81985000Y-122026372D03*
X81950000Y-84121372D03*
X74300000Y-158041372D03*
X81950000Y-103101372D03*
X82040000Y-111271372D03*
X76710000Y-59351372D03*
X78600000Y-149241372D03*
X81900000Y-74641372D03*
X81870000Y-94231372D03*
X79750000Y-66291372D03*
D14*
%TO.N,GND*%
X73990000Y-50281372D03*
X78350000Y-100491372D03*
X81680000Y-105431372D03*
X81900000Y-86861372D03*
X73140000Y-155831372D03*
X80560000Y-143271372D03*
X77700000Y-148401372D03*
X75220000Y-110141372D03*
X77520000Y-100481372D03*
X80770000Y-137991372D03*
X81900000Y-91191372D03*
X78260000Y-63031372D03*
X82530000Y-101441372D03*
X81600000Y-132991372D03*
X77570000Y-113091372D03*
X83100000Y-120511372D03*
X76540000Y-100431372D03*
X81880000Y-124321372D03*
%TO.N,+3.3V*%
X83840002Y-70321370D03*
X85160000Y-109571372D03*
X76430000Y-110631372D03*
X84180002Y-109571372D03*
X84369998Y-89321370D03*
X78140000Y-55281372D03*
X85220000Y-110571372D03*
%TO.N,GND*%
X82270000Y-116591372D03*
D13*
%TO.N,*%
X82050000Y-137851372D03*
D14*
%TO.N,+3.3V*%
X78850000Y-109801372D03*
%TO.N,GND*%
X81120000Y-68851372D03*
D13*
%TO.N,*%
X81030000Y-130321372D03*
D14*
%TO.N,GND*%
X78670000Y-113071372D03*
X77230000Y-145371372D03*
X81720000Y-128441372D03*
%TO.N,+3.3V*%
X84199998Y-127321370D03*
X81720000Y-147141372D03*
X76420000Y-109751372D03*
%TO.N,GND*%
X81380000Y-72391372D03*
X83080000Y-119321372D03*
X81990000Y-81901372D03*
X82210000Y-119351372D03*
X76530000Y-112321372D03*
%TO.N,+3.3V*%
X99620000Y-94830000D03*
X101920000Y-96730000D03*
X110170000Y-92680000D03*
X108795000Y-95280000D03*
X99670000Y-91480000D03*
X97570000Y-91480000D03*
%TO.N,GND*%
X99795000Y-93280000D03*
X108970000Y-92580000D03*
D15*
X102670000Y-108770000D03*
D13*
X107310000Y-119410000D03*
D14*
X117120000Y-92130000D03*
D15*
X109270000Y-103670000D03*
D14*
X104820000Y-96030000D03*
X102810000Y-117710000D03*
X104560000Y-120510000D03*
D13*
X106370000Y-107370000D03*
D14*
X113720000Y-95980000D03*
D15*
X109070000Y-108770000D03*
D14*
X115320000Y-90230000D03*
X110920000Y-96542500D03*
X108070000Y-89130000D03*
D15*
X102170000Y-103570000D03*
D14*
%TO.N,INT1*%
X108270000Y-103270000D03*
X103870000Y-105170000D03*
D13*
%TO.N,I2C3_SCL*%
X108110000Y-117710000D03*
X110560000Y-120560000D03*
%TO.N,I2C3_SDA*%
X100470000Y-90330000D03*
X103570000Y-90880000D03*
%TO.N,I2C3_IMU_INT*%
X106160000Y-120010000D03*
X108020000Y-91530000D03*
X105560000Y-115810000D03*
X106070000Y-89980000D03*
%TD*%
D16*
%TO.N,*%
X75930000Y-55621370D02*
X75930000Y-57036372D01*
X82187500Y-96211372D02*
X82187500Y-98078870D01*
X78870000Y-58151372D02*
X78870000Y-60261370D01*
X78870000Y-60261370D02*
X79430000Y-60821370D01*
D17*
X77630000Y-65121370D02*
X77649998Y-65121370D01*
D16*
X79430000Y-151811372D02*
X79142500Y-152098872D01*
X84030000Y-116721370D02*
X82930000Y-117821370D01*
X79430000Y-150621370D02*
X79430000Y-151811372D01*
D17*
X81149998Y-103101372D02*
X81950000Y-103101372D01*
D16*
X79142500Y-152098872D02*
X79142500Y-153261372D01*
X77317500Y-153261372D02*
X77317500Y-155383872D01*
X77317500Y-155383872D02*
X76880002Y-155821370D01*
X84020000Y-134201372D02*
X84020000Y-135731370D01*
D17*
X74130000Y-55621370D02*
X74130000Y-56771372D01*
X81130000Y-103121370D02*
X81149998Y-103101372D01*
D16*
X82930000Y-131621370D02*
X82930000Y-133466372D01*
X82930000Y-114596372D02*
X82205000Y-115321372D01*
X82930000Y-133466372D02*
X82195000Y-134201372D01*
X84030000Y-115321372D02*
X84030000Y-116721370D01*
D17*
X74130000Y-56771372D02*
X76710000Y-59351372D01*
D16*
X82187500Y-77171372D02*
X82187500Y-79078870D01*
D17*
X78820000Y-66291372D02*
X79750000Y-66291372D01*
D16*
X82187500Y-79078870D02*
X82930000Y-79821370D01*
X82930000Y-76088872D02*
X84012500Y-77171372D01*
D17*
X81890002Y-122121370D02*
X81985000Y-122026372D01*
D16*
X82187500Y-98078870D02*
X82930000Y-98821370D01*
D17*
X81130000Y-122121370D02*
X81890002Y-122121370D01*
D16*
X76880002Y-155821370D02*
X75930000Y-155821370D01*
X82930000Y-112621370D02*
X82930000Y-114596372D01*
X82930000Y-93621370D02*
X82930000Y-95128872D01*
X75930000Y-57036372D02*
X77045000Y-58151372D01*
X82930000Y-95128872D02*
X84012500Y-96211372D01*
D17*
X77649998Y-65121370D02*
X78820000Y-66291372D01*
D16*
X82930000Y-74621370D02*
X82930000Y-76088872D01*
X84020000Y-135731370D02*
X82930000Y-136821370D01*
D17*
X81950000Y-84121372D02*
X81130002Y-84121372D01*
X78020000Y-149241372D02*
X77630000Y-149631372D01*
X81739998Y-93621370D02*
X81870000Y-93751372D01*
X81130000Y-93621370D02*
X81739998Y-93621370D01*
X77630000Y-149631372D02*
X77630000Y-150621370D01*
X81130000Y-112621370D02*
X82040000Y-111711370D01*
X81130002Y-84121372D02*
X81130000Y-84121370D01*
X81150002Y-74641372D02*
X81130000Y-74621370D01*
X78600000Y-149241372D02*
X78020000Y-149241372D01*
X74300000Y-158041372D02*
X74300000Y-158751372D01*
X74300000Y-158751372D02*
X74130000Y-158921372D01*
X74130000Y-158921372D02*
X74130000Y-160121370D01*
X81870000Y-93751372D02*
X81870000Y-94231372D01*
X82040000Y-111711370D02*
X82040000Y-111271372D01*
X81900000Y-74641372D02*
X81150002Y-74641372D01*
D16*
%TO.N,+3.3V*%
X77674685Y-53801372D02*
X76410000Y-53801372D01*
D17*
%TO.N,*%
X82050000Y-137851372D02*
X81130000Y-138771372D01*
D16*
%TO.N,+3.3V*%
X83840002Y-70321370D02*
X82930000Y-70321370D01*
X76420000Y-109751372D02*
X78800000Y-109751372D01*
X76410000Y-53801372D02*
X75930000Y-53321372D01*
X84180002Y-109571372D02*
X84180002Y-110321374D01*
X84180002Y-110321374D02*
X84430000Y-110571372D01*
X79430000Y-146321370D02*
X80899998Y-146321370D01*
X75930000Y-53321372D02*
X75930000Y-51321370D01*
X78850000Y-109801372D02*
X82560000Y-109801372D01*
X84180002Y-108761374D02*
X83739998Y-108321370D01*
X76430000Y-110631372D02*
X76430000Y-109761372D01*
X83739998Y-108321370D02*
X82930000Y-108321370D01*
X84180002Y-109571372D02*
X85160000Y-109571372D01*
X78800000Y-109751372D02*
X78850000Y-109801372D01*
X82560000Y-109801372D02*
X82930000Y-109431372D01*
X84199998Y-127321370D02*
X82930000Y-127321370D01*
X84430000Y-110571372D02*
X85220000Y-110571372D01*
X76430000Y-109761372D02*
X76420000Y-109751372D01*
X80899998Y-146321370D02*
X81720000Y-147141372D01*
X84369998Y-89321370D02*
X82930000Y-89321370D01*
D17*
%TO.N,*%
X81130000Y-138771372D02*
X81130000Y-141121370D01*
D16*
%TO.N,+3.3V*%
X82930000Y-109431372D02*
X82930000Y-108321370D01*
X78140000Y-55281372D02*
X78140000Y-54266687D01*
X84180002Y-109571372D02*
X84180002Y-108761374D01*
X78140000Y-54266687D02*
X77674685Y-53801372D01*
D17*
%TO.N,*%
X81130000Y-131621370D02*
X81030000Y-131521370D01*
X81030000Y-131521370D02*
X81030000Y-130321372D01*
D18*
%TO.N,+3.3V*%
X109570000Y-95280000D02*
X108795000Y-95280000D01*
X110170000Y-94680000D02*
X109570000Y-95280000D01*
X108795000Y-95280000D02*
X108795000Y-96455000D01*
X101920000Y-96730000D02*
X100620000Y-96730000D01*
X100620000Y-96730000D02*
X99620000Y-95730000D01*
X108520000Y-96730000D02*
X101920000Y-96730000D01*
X108795000Y-96455000D02*
X108520000Y-96730000D01*
X99620000Y-95730000D02*
X99620000Y-94830000D01*
X110170000Y-92680000D02*
X110170000Y-94680000D01*
X99670000Y-91480000D02*
X97570000Y-91480000D01*
D17*
%TO.N,INT1*%
X107870000Y-103670000D02*
X108270000Y-103270000D01*
X103870000Y-105170000D02*
X103870000Y-104170000D01*
X104370000Y-103670000D02*
X107870000Y-103670000D01*
X103870000Y-104170000D02*
X104270000Y-103770000D01*
X104270000Y-103770000D02*
X104370000Y-103670000D01*
D19*
%TO.N,I2C3_SCL*%
X110560000Y-120560000D02*
X110560000Y-118460000D01*
X110560000Y-118460000D02*
X109810000Y-117710000D01*
X109810000Y-117710000D02*
X108110000Y-117710000D01*
%TO.N,I2C3_SDA*%
X103220000Y-90880000D02*
X103570000Y-90880000D01*
X100470000Y-90330000D02*
X102670000Y-90330000D01*
X102670000Y-90330000D02*
X103220000Y-90880000D01*
%TO.N,I2C3_IMU_INT*%
X105560000Y-115810000D02*
X105610000Y-115810000D01*
X108020000Y-91530000D02*
X106320000Y-91530000D01*
X104910000Y-119410000D02*
X104910000Y-115960000D01*
X104910000Y-115960000D02*
X105060000Y-115810000D01*
X105510000Y-120010000D02*
X104910000Y-119410000D01*
X105060000Y-115810000D02*
X105560000Y-115810000D01*
X106320000Y-91530000D02*
X106070000Y-91280000D01*
X106160000Y-120010000D02*
X105510000Y-120010000D01*
X106070000Y-91280000D02*
X106070000Y-89980000D01*
%TD*%
%TA.AperFunction,Conductor*%
%TO.N,GND*%
G36*
X105817410Y-100184352D02*
G01*
X105825196Y-100194499D01*
X105849511Y-100236613D01*
X105933387Y-100320489D01*
X106036114Y-100379799D01*
X106064758Y-100387474D01*
X106150688Y-100410500D01*
X106150691Y-100410500D01*
X106269311Y-100410500D01*
X106326597Y-100395149D01*
X106383886Y-100379799D01*
X106486613Y-100320489D01*
X106570489Y-100236613D01*
X106594803Y-100194499D01*
X106624556Y-100171670D01*
X106637238Y-100170000D01*
X106782762Y-100170000D01*
X106817410Y-100184352D01*
X106825196Y-100194499D01*
X106849511Y-100236613D01*
X106933387Y-100320489D01*
X107036114Y-100379799D01*
X107064758Y-100387474D01*
X107150688Y-100410500D01*
X107150691Y-100410500D01*
X107269311Y-100410500D01*
X107326597Y-100395149D01*
X107383886Y-100379799D01*
X107486613Y-100320489D01*
X107570489Y-100236613D01*
X107584200Y-100212864D01*
X107613951Y-100190035D01*
X107651133Y-100194929D01*
X107654226Y-100196872D01*
X107752548Y-100263907D01*
X107752549Y-100263907D01*
X107752550Y-100263908D01*
X107964616Y-100366034D01*
X107964619Y-100366035D01*
X107964623Y-100366037D01*
X108189551Y-100435418D01*
X108422307Y-100470500D01*
X108500438Y-100470500D01*
X111420500Y-100470500D01*
X111455148Y-100484852D01*
X111469500Y-100519500D01*
X111469500Y-110820500D01*
X111455148Y-110855148D01*
X111420500Y-110869500D01*
X108867595Y-110869500D01*
X108820000Y-110869500D01*
X108702307Y-110869500D01*
X108469551Y-110904582D01*
X108469548Y-110904583D01*
X108244629Y-110973960D01*
X108244616Y-110973965D01*
X108032548Y-111076092D01*
X108032545Y-111076093D01*
X107938378Y-111140295D01*
X107901666Y-111147955D01*
X107870290Y-111127411D01*
X107868354Y-111124330D01*
X107850489Y-111093387D01*
X107766613Y-111009511D01*
X107663887Y-110950201D01*
X107663884Y-110950200D01*
X107549312Y-110919500D01*
X107549309Y-110919500D01*
X107430691Y-110919500D01*
X107430688Y-110919500D01*
X107316115Y-110950200D01*
X107316112Y-110950201D01*
X107213386Y-111009511D01*
X107213386Y-111009512D01*
X107129513Y-111093384D01*
X107129511Y-111093386D01*
X107129511Y-111093387D01*
X107101305Y-111142242D01*
X107099423Y-111145501D01*
X107069670Y-111168331D01*
X107056988Y-111170000D01*
X106913012Y-111170000D01*
X106878364Y-111155648D01*
X106870577Y-111145501D01*
X106840489Y-111093387D01*
X106756613Y-111009511D01*
X106653887Y-110950201D01*
X106653884Y-110950200D01*
X106539312Y-110919500D01*
X106539309Y-110919500D01*
X106420691Y-110919500D01*
X106420688Y-110919500D01*
X106306115Y-110950200D01*
X106306112Y-110950201D01*
X106203386Y-111009511D01*
X106203386Y-111009512D01*
X106119513Y-111093384D01*
X106119511Y-111093386D01*
X106119511Y-111093387D01*
X106091305Y-111142242D01*
X106089423Y-111145501D01*
X106059670Y-111168331D01*
X106046988Y-111170000D01*
X105923012Y-111170000D01*
X105888364Y-111155648D01*
X105880577Y-111145501D01*
X105850489Y-111093387D01*
X105766613Y-111009511D01*
X105663887Y-110950201D01*
X105663884Y-110950200D01*
X105549312Y-110919500D01*
X105549309Y-110919500D01*
X105430691Y-110919500D01*
X105430688Y-110919500D01*
X105316115Y-110950200D01*
X105316112Y-110950201D01*
X105213386Y-111009511D01*
X105213386Y-111009512D01*
X105129514Y-111093383D01*
X105129505Y-111093395D01*
X105111656Y-111124309D01*
X105081902Y-111147139D01*
X105044721Y-111142242D01*
X105041620Y-111140294D01*
X104947454Y-111076093D01*
X104947451Y-111076092D01*
X104735383Y-110973965D01*
X104735370Y-110973960D01*
X104558812Y-110919500D01*
X104510449Y-110904582D01*
X104277693Y-110869500D01*
X104277691Y-110869500D01*
X101119500Y-110869500D01*
X101084852Y-110855148D01*
X101070500Y-110820500D01*
X101070500Y-106120000D01*
X105620000Y-106120000D01*
X106920000Y-106120000D01*
X106920000Y-105220000D01*
X105620000Y-105220000D01*
X105620000Y-106120000D01*
X101070500Y-106120000D01*
X101070500Y-105169997D01*
X103364353Y-105169997D01*
X103364353Y-105170002D01*
X103384833Y-105312454D01*
X103416935Y-105382746D01*
X103444623Y-105443373D01*
X103444624Y-105443374D01*
X103444625Y-105443376D01*
X103538871Y-105552142D01*
X103538872Y-105552143D01*
X103659947Y-105629953D01*
X103736785Y-105652514D01*
X103798034Y-105670499D01*
X103798037Y-105670499D01*
X103798039Y-105670500D01*
X103798040Y-105670500D01*
X103941960Y-105670500D01*
X103941961Y-105670500D01*
X103941963Y-105670499D01*
X103941965Y-105670499D01*
X103964795Y-105663795D01*
X104080053Y-105629953D01*
X104201128Y-105552143D01*
X104295377Y-105443373D01*
X104355165Y-105312457D01*
X104355165Y-105312455D01*
X104355166Y-105312454D01*
X104375647Y-105170002D01*
X104375647Y-105169997D01*
X104355166Y-105027545D01*
X104350751Y-105017879D01*
X104295377Y-104896627D01*
X104201128Y-104787857D01*
X104193006Y-104782637D01*
X104171619Y-104751830D01*
X104170500Y-104741417D01*
X104170500Y-104314767D01*
X104184852Y-104280119D01*
X104480119Y-103984852D01*
X104514767Y-103970500D01*
X107909564Y-103970500D01*
X107936230Y-103963354D01*
X107985989Y-103950021D01*
X108054511Y-103910460D01*
X108110460Y-103854511D01*
X108180118Y-103784851D01*
X108214766Y-103770500D01*
X108341960Y-103770500D01*
X108341961Y-103770500D01*
X108341963Y-103770499D01*
X108341965Y-103770499D01*
X108364795Y-103763795D01*
X108480053Y-103729953D01*
X108601128Y-103652143D01*
X108695377Y-103543373D01*
X108755165Y-103412457D01*
X108755165Y-103412455D01*
X108755166Y-103412454D01*
X108775647Y-103270002D01*
X108775647Y-103269997D01*
X108755166Y-103127545D01*
X108750751Y-103117879D01*
X108695377Y-102996627D01*
X108601128Y-102887857D01*
X108480053Y-102810047D01*
X108480050Y-102810046D01*
X108341965Y-102769500D01*
X108341961Y-102769500D01*
X108198039Y-102769500D01*
X108198034Y-102769500D01*
X108059949Y-102810046D01*
X107938871Y-102887857D01*
X107844625Y-102996623D01*
X107844624Y-102996625D01*
X107784833Y-103127545D01*
X107764353Y-103269997D01*
X107764353Y-103270001D01*
X107770611Y-103313527D01*
X107761337Y-103349865D01*
X107729083Y-103369001D01*
X107722110Y-103369500D01*
X104330436Y-103369500D01*
X104254012Y-103389978D01*
X104254008Y-103389979D01*
X104215083Y-103412454D01*
X104215078Y-103412457D01*
X104207680Y-103416727D01*
X104185492Y-103429537D01*
X104185486Y-103429542D01*
X103629541Y-103985488D01*
X103629540Y-103985488D01*
X103589979Y-104054008D01*
X103589979Y-104054010D01*
X103569500Y-104130436D01*
X103569500Y-104741417D01*
X103555148Y-104776065D01*
X103546994Y-104782637D01*
X103538872Y-104787857D01*
X103538868Y-104787860D01*
X103444625Y-104896623D01*
X103444624Y-104896625D01*
X103384833Y-105027545D01*
X103364353Y-105169997D01*
X101070500Y-105169997D01*
X101070500Y-100519500D01*
X101084852Y-100484852D01*
X101119500Y-100470500D01*
X103997691Y-100470500D01*
X103997693Y-100470500D01*
X104230449Y-100435418D01*
X104455377Y-100366037D01*
X104667452Y-100263907D01*
X104765761Y-100196879D01*
X104802473Y-100189219D01*
X104833849Y-100209762D01*
X104835799Y-100212864D01*
X104849511Y-100236613D01*
X104933387Y-100320489D01*
X105036114Y-100379799D01*
X105064758Y-100387474D01*
X105150688Y-100410500D01*
X105150691Y-100410500D01*
X105269311Y-100410500D01*
X105326597Y-100395149D01*
X105383886Y-100379799D01*
X105486613Y-100320489D01*
X105570489Y-100236613D01*
X105594803Y-100194499D01*
X105624556Y-100171670D01*
X105637238Y-100170000D01*
X105782762Y-100170000D01*
X105817410Y-100184352D01*
G37*
%TD.AperFunction*%
%TD*%
%TA.AperFunction,Conductor*%
%TO.N,GND*%
G36*
X106097410Y-113724352D02*
G01*
X106105196Y-113734499D01*
X106129511Y-113776613D01*
X106213387Y-113860489D01*
X106316114Y-113919799D01*
X106344758Y-113927474D01*
X106430688Y-113950500D01*
X106430691Y-113950500D01*
X106549311Y-113950500D01*
X106606597Y-113935149D01*
X106663886Y-113919799D01*
X106766613Y-113860489D01*
X106850489Y-113776613D01*
X106874803Y-113734499D01*
X106904556Y-113711670D01*
X106917238Y-113710000D01*
X107062762Y-113710000D01*
X107097410Y-113724352D01*
X107105196Y-113734499D01*
X107129511Y-113776613D01*
X107213387Y-113860489D01*
X107316114Y-113919799D01*
X107344758Y-113927474D01*
X107430688Y-113950500D01*
X107430691Y-113950500D01*
X107549311Y-113950500D01*
X107606597Y-113935149D01*
X107663886Y-113919799D01*
X107766613Y-113860489D01*
X107850489Y-113776613D01*
X107864200Y-113752864D01*
X107893951Y-113730035D01*
X107931133Y-113734929D01*
X107934226Y-113736872D01*
X108032548Y-113803907D01*
X108032549Y-113803907D01*
X108032550Y-113803908D01*
X108244616Y-113906034D01*
X108244619Y-113906035D01*
X108244623Y-113906037D01*
X108469551Y-113975418D01*
X108702307Y-114010500D01*
X108780438Y-114010500D01*
X120512405Y-114010500D01*
X120558714Y-114010500D01*
X120561278Y-114010567D01*
X120891882Y-114027893D01*
X120896964Y-114028426D01*
X121222684Y-114080016D01*
X121227696Y-114081082D01*
X121546222Y-114166431D01*
X121551095Y-114168014D01*
X121858958Y-114286191D01*
X121863634Y-114288273D01*
X122064499Y-114390619D01*
X122157462Y-114437986D01*
X122161900Y-114440548D01*
X122438470Y-114620154D01*
X122442607Y-114623160D01*
X122481509Y-114654662D01*
X122698890Y-114830694D01*
X122702701Y-114834126D01*
X122935873Y-115067298D01*
X122939305Y-115071109D01*
X123087242Y-115253796D01*
X123146834Y-115327385D01*
X123149849Y-115331535D01*
X123329449Y-115608096D01*
X123332013Y-115612537D01*
X123481724Y-115906360D01*
X123483810Y-115911046D01*
X123601984Y-116218902D01*
X123603569Y-116223780D01*
X123688916Y-116542300D01*
X123689983Y-116547317D01*
X123741571Y-116873025D01*
X123742107Y-116878126D01*
X123759433Y-117208721D01*
X123759500Y-117211285D01*
X123759500Y-123708674D01*
X123759428Y-123711327D01*
X123740887Y-124053278D01*
X123740313Y-124058552D01*
X123685127Y-124395170D01*
X123683987Y-124400352D01*
X123592727Y-124729044D01*
X123591033Y-124734072D01*
X123464770Y-125050969D01*
X123462542Y-125055784D01*
X123302760Y-125357166D01*
X123300025Y-125361712D01*
X123108591Y-125644055D01*
X123105380Y-125648279D01*
X122884542Y-125908269D01*
X122880893Y-125912121D01*
X122633244Y-126146706D01*
X122629201Y-126150141D01*
X122357627Y-126356587D01*
X122353235Y-126359564D01*
X122060949Y-126535427D01*
X122056262Y-126537912D01*
X121746669Y-126681145D01*
X121741740Y-126683109D01*
X121418469Y-126792031D01*
X121413357Y-126793450D01*
X121080223Y-126866778D01*
X121074987Y-126867637D01*
X120735856Y-126904521D01*
X120730558Y-126904808D01*
X120389442Y-126904808D01*
X120384144Y-126904521D01*
X120045012Y-126867637D01*
X120039776Y-126866778D01*
X119706642Y-126793450D01*
X119701530Y-126792031D01*
X119536626Y-126736468D01*
X119378254Y-126683107D01*
X119373335Y-126681147D01*
X119063736Y-126537911D01*
X119059050Y-126535427D01*
X119049001Y-126529381D01*
X118766764Y-126359564D01*
X118762372Y-126356587D01*
X118490798Y-126150141D01*
X118486755Y-126146706D01*
X118239106Y-125912121D01*
X118235457Y-125908269D01*
X118014619Y-125648279D01*
X118011408Y-125644055D01*
X117819969Y-125361704D01*
X117817244Y-125357174D01*
X117657454Y-125055778D01*
X117655229Y-125050969D01*
X117528960Y-124734056D01*
X117527277Y-124729059D01*
X117436011Y-124400350D01*
X117434872Y-124395170D01*
X117379686Y-124058552D01*
X117379112Y-124053278D01*
X117376376Y-124002823D01*
X117360572Y-123711327D01*
X117360500Y-123708674D01*
X117360500Y-123662407D01*
X117360500Y-123662405D01*
X117348608Y-123625808D01*
X117347898Y-123623409D01*
X117344729Y-123611583D01*
X119309500Y-123611583D01*
X119309500Y-123808416D01*
X119340290Y-124002823D01*
X119340291Y-124002826D01*
X119401116Y-124190026D01*
X119490472Y-124365399D01*
X119490475Y-124365403D01*
X119490476Y-124365405D01*
X119606172Y-124524646D01*
X119606174Y-124524648D01*
X119606177Y-124524652D01*
X119745347Y-124663822D01*
X119745350Y-124663824D01*
X119745354Y-124663828D01*
X119904595Y-124779524D01*
X119904597Y-124779525D01*
X119904600Y-124779527D01*
X120079973Y-124868883D01*
X120079975Y-124868884D01*
X120267174Y-124929709D01*
X120461583Y-124960500D01*
X120461584Y-124960500D01*
X120658416Y-124960500D01*
X120658417Y-124960500D01*
X120852826Y-124929709D01*
X121040025Y-124868884D01*
X121215405Y-124779524D01*
X121374646Y-124663828D01*
X121513828Y-124524646D01*
X121629524Y-124365405D01*
X121718884Y-124190025D01*
X121779709Y-124002826D01*
X121810500Y-123808417D01*
X121810500Y-123611583D01*
X121779709Y-123417174D01*
X121718884Y-123229975D01*
X121629524Y-123054595D01*
X121513828Y-122895354D01*
X121513824Y-122895350D01*
X121513822Y-122895347D01*
X121374652Y-122756177D01*
X121374653Y-122756177D01*
X121322882Y-122718563D01*
X121215405Y-122640476D01*
X121215403Y-122640475D01*
X121215399Y-122640472D01*
X121040026Y-122551116D01*
X120852826Y-122490291D01*
X120852823Y-122490290D01*
X120703482Y-122466637D01*
X120658417Y-122459500D01*
X120461583Y-122459500D01*
X120424998Y-122465294D01*
X120267176Y-122490290D01*
X120267173Y-122490291D01*
X120079973Y-122551116D01*
X119904600Y-122640472D01*
X119745347Y-122756177D01*
X119606177Y-122895347D01*
X119490472Y-123054600D01*
X119401116Y-123229973D01*
X119340291Y-123417173D01*
X119340290Y-123417176D01*
X119309500Y-123611583D01*
X117344729Y-123611583D01*
X117340021Y-123594011D01*
X117338609Y-123591565D01*
X117334442Y-123582207D01*
X117331085Y-123571875D01*
X117313864Y-123548174D01*
X117311082Y-123543888D01*
X117300464Y-123525495D01*
X117300461Y-123525492D01*
X117300460Y-123525489D01*
X117291937Y-123516966D01*
X117286944Y-123511120D01*
X117275133Y-123494865D01*
X117258882Y-123483058D01*
X117253035Y-123478064D01*
X117244513Y-123469542D01*
X117244507Y-123469537D01*
X117226118Y-123458921D01*
X117221816Y-123456127D01*
X117198126Y-123438915D01*
X117198123Y-123438914D01*
X117187788Y-123435555D01*
X117178444Y-123431396D01*
X117177343Y-123430760D01*
X117175989Y-123429979D01*
X117175988Y-123429978D01*
X117175987Y-123429978D01*
X117146621Y-123422109D01*
X117144162Y-123421381D01*
X117107596Y-123409500D01*
X117107595Y-123409500D01*
X117099562Y-123409500D01*
X96107595Y-123409500D01*
X96012405Y-123409500D01*
X96012403Y-123409500D01*
X95975835Y-123421381D01*
X95973378Y-123422109D01*
X95944012Y-123429978D01*
X95944007Y-123429980D01*
X95941555Y-123431396D01*
X95932211Y-123435555D01*
X95921877Y-123438913D01*
X95921875Y-123438914D01*
X95898188Y-123456123D01*
X95893892Y-123458913D01*
X95875489Y-123469540D01*
X95875485Y-123469542D01*
X95866960Y-123478067D01*
X95861119Y-123483056D01*
X95844866Y-123494866D01*
X95833056Y-123511119D01*
X95828067Y-123516960D01*
X95819542Y-123525485D01*
X95819540Y-123525489D01*
X95808913Y-123543892D01*
X95806123Y-123548188D01*
X95788914Y-123571875D01*
X95788913Y-123571877D01*
X95785555Y-123582211D01*
X95781396Y-123591555D01*
X95779980Y-123594007D01*
X95779978Y-123594012D01*
X95772109Y-123623378D01*
X95771381Y-123625835D01*
X95759500Y-123662403D01*
X95759500Y-123708674D01*
X95759428Y-123711327D01*
X95740887Y-124053278D01*
X95740313Y-124058552D01*
X95685127Y-124395170D01*
X95683987Y-124400352D01*
X95592727Y-124729044D01*
X95591033Y-124734072D01*
X95464770Y-125050969D01*
X95462542Y-125055784D01*
X95302760Y-125357166D01*
X95300025Y-125361712D01*
X95108591Y-125644055D01*
X95105380Y-125648279D01*
X94884542Y-125908269D01*
X94880893Y-125912121D01*
X94633244Y-126146706D01*
X94629201Y-126150141D01*
X94357627Y-126356587D01*
X94353235Y-126359564D01*
X94060949Y-126535427D01*
X94056262Y-126537912D01*
X93746669Y-126681145D01*
X93741740Y-126683109D01*
X93418469Y-126792031D01*
X93413357Y-126793450D01*
X93080223Y-126866778D01*
X93074987Y-126867637D01*
X92735856Y-126904521D01*
X92730558Y-126904808D01*
X92389442Y-126904808D01*
X92384144Y-126904521D01*
X92045012Y-126867637D01*
X92039776Y-126866778D01*
X91706642Y-126793450D01*
X91701530Y-126792031D01*
X91536626Y-126736468D01*
X91378254Y-126683107D01*
X91373335Y-126681147D01*
X91063736Y-126537911D01*
X91059050Y-126535427D01*
X91049001Y-126529381D01*
X90766764Y-126359564D01*
X90762372Y-126356587D01*
X90490798Y-126150141D01*
X90486755Y-126146706D01*
X90239106Y-125912121D01*
X90235457Y-125908269D01*
X90014619Y-125648279D01*
X90011408Y-125644055D01*
X89819969Y-125361704D01*
X89817244Y-125357174D01*
X89657454Y-125055778D01*
X89655229Y-125050969D01*
X89528960Y-124734056D01*
X89527277Y-124729059D01*
X89436011Y-124400350D01*
X89434872Y-124395170D01*
X89379686Y-124058552D01*
X89379112Y-124053278D01*
X89376376Y-124002823D01*
X89360572Y-123711327D01*
X89360500Y-123708674D01*
X89360500Y-123611583D01*
X91309500Y-123611583D01*
X91309500Y-123808416D01*
X91340290Y-124002823D01*
X91340291Y-124002826D01*
X91401116Y-124190026D01*
X91490472Y-124365399D01*
X91490475Y-124365403D01*
X91490476Y-124365405D01*
X91606172Y-124524646D01*
X91606174Y-124524648D01*
X91606177Y-124524652D01*
X91745347Y-124663822D01*
X91745350Y-124663824D01*
X91745354Y-124663828D01*
X91904595Y-124779524D01*
X91904597Y-124779525D01*
X91904600Y-124779527D01*
X92079973Y-124868883D01*
X92079975Y-124868884D01*
X92267174Y-124929709D01*
X92461583Y-124960500D01*
X92461584Y-124960500D01*
X92658416Y-124960500D01*
X92658417Y-124960500D01*
X92852826Y-124929709D01*
X93040025Y-124868884D01*
X93215405Y-124779524D01*
X93374646Y-124663828D01*
X93513828Y-124524646D01*
X93629524Y-124365405D01*
X93718884Y-124190025D01*
X93779709Y-124002826D01*
X93810500Y-123808417D01*
X93810500Y-123611583D01*
X93779709Y-123417174D01*
X93718884Y-123229975D01*
X93629524Y-123054595D01*
X93513828Y-122895354D01*
X93513824Y-122895350D01*
X93513822Y-122895347D01*
X93374652Y-122756177D01*
X93374653Y-122756177D01*
X93322882Y-122718563D01*
X93215405Y-122640476D01*
X93215403Y-122640475D01*
X93215399Y-122640472D01*
X93040026Y-122551116D01*
X92852826Y-122490291D01*
X92852823Y-122490290D01*
X92703482Y-122466637D01*
X92658417Y-122459500D01*
X92461583Y-122459500D01*
X92424998Y-122465294D01*
X92267176Y-122490290D01*
X92267173Y-122490291D01*
X92079973Y-122551116D01*
X91904600Y-122640472D01*
X91745347Y-122756177D01*
X91606177Y-122895347D01*
X91490472Y-123054600D01*
X91401116Y-123229973D01*
X91340291Y-123417173D01*
X91340290Y-123417176D01*
X91309500Y-123611583D01*
X89360500Y-123611583D01*
X89360500Y-122493039D01*
X89360508Y-122492180D01*
X89361147Y-122455711D01*
X89360852Y-122453117D01*
X89360500Y-122450446D01*
X89360500Y-122450438D01*
X89351052Y-122415178D01*
X89350837Y-122414346D01*
X89349091Y-122407344D01*
X89342010Y-122378934D01*
X89342007Y-122378930D01*
X89341058Y-122376516D01*
X89340022Y-122374016D01*
X89340021Y-122374011D01*
X89321751Y-122342366D01*
X89321405Y-122341757D01*
X89303655Y-122309729D01*
X89303652Y-122309726D01*
X89302094Y-122307620D01*
X89300458Y-122305487D01*
X89287648Y-122292677D01*
X89274618Y-122279647D01*
X89274071Y-122279090D01*
X89248692Y-122252806D01*
X89246645Y-122251178D01*
X89244513Y-122249541D01*
X89233558Y-122243216D01*
X89212894Y-122231285D01*
X89212180Y-122230864D01*
X89180877Y-122212054D01*
X89178460Y-122211002D01*
X89175990Y-122209979D01*
X89175989Y-122209979D01*
X89175987Y-122209978D01*
X89175986Y-122209978D01*
X89140741Y-122200533D01*
X89139916Y-122200304D01*
X89104821Y-122190239D01*
X89101910Y-122189804D01*
X89096043Y-122188555D01*
X89096025Y-122188550D01*
X89096574Y-122186572D01*
X89069800Y-122170719D01*
X89060000Y-122141319D01*
X89060000Y-118168679D01*
X89074352Y-118134031D01*
X89096207Y-118123265D01*
X89095715Y-118121541D01*
X89095757Y-118121529D01*
X89097644Y-118121135D01*
X89100396Y-118120389D01*
X89100399Y-118120389D01*
X89138161Y-118110156D01*
X89138309Y-118110175D01*
X89138295Y-118110120D01*
X89138296Y-118110120D01*
X89175989Y-118100021D01*
X89175994Y-118100018D01*
X89175998Y-118100017D01*
X89176761Y-118099699D01*
X89176769Y-118099697D01*
X89210649Y-118080009D01*
X89244511Y-118060460D01*
X89244516Y-118060454D01*
X89244627Y-118060370D01*
X89244684Y-118060326D01*
X89245173Y-118059948D01*
X89245180Y-118059945D01*
X89264019Y-118040999D01*
X89272621Y-118032350D01*
X89272718Y-118032252D01*
X89300460Y-118004511D01*
X89300464Y-118004502D01*
X89300511Y-118004443D01*
X89300581Y-118004352D01*
X89300970Y-118003843D01*
X89300969Y-118003843D01*
X89300973Y-118003840D01*
X89320402Y-117969970D01*
X89340021Y-117935989D01*
X89340022Y-117935983D01*
X89340065Y-117935881D01*
X89340098Y-117935800D01*
X89340343Y-117935207D01*
X89350363Y-117897393D01*
X89350378Y-117897397D01*
X89350395Y-117897268D01*
X89360500Y-117859562D01*
X89360500Y-117859559D01*
X89360502Y-117859552D01*
X89360564Y-117859071D01*
X89360584Y-117858921D01*
X89360609Y-117858730D01*
X89360500Y-117819522D01*
X89360500Y-117211285D01*
X89360567Y-117208721D01*
X89362573Y-117170438D01*
X89377893Y-116878115D01*
X89378426Y-116873037D01*
X89430017Y-116547311D01*
X89431083Y-116542300D01*
X89516432Y-116223771D01*
X89518012Y-116218910D01*
X89636194Y-115911034D01*
X89638269Y-115906372D01*
X89638867Y-115905198D01*
X104634500Y-115905198D01*
X104634500Y-115905200D01*
X104634500Y-119464800D01*
X104676443Y-119566058D01*
X104676444Y-119566059D01*
X104676445Y-119566061D01*
X105353937Y-120243554D01*
X105353940Y-120243556D01*
X105353941Y-120243557D01*
X105383597Y-120255840D01*
X105383598Y-120255841D01*
X105383599Y-120255841D01*
X105455200Y-120285500D01*
X105840934Y-120285500D01*
X105872565Y-120297077D01*
X105877729Y-120301442D01*
X105889755Y-120308443D01*
X105899748Y-120316140D01*
X105921657Y-120338049D01*
X105921664Y-120338054D01*
X106034691Y-120395644D01*
X106034692Y-120395644D01*
X106034696Y-120395646D01*
X106160000Y-120415492D01*
X106285304Y-120395646D01*
X106285308Y-120395644D01*
X106285309Y-120395644D01*
X106398335Y-120338054D01*
X106398337Y-120338052D01*
X106398342Y-120338050D01*
X106488050Y-120248342D01*
X106490488Y-120243558D01*
X106545644Y-120135309D01*
X106545644Y-120135307D01*
X106545646Y-120135304D01*
X106565492Y-120010000D01*
X106545646Y-119884696D01*
X106545644Y-119884692D01*
X106545644Y-119884690D01*
X106488054Y-119771664D01*
X106488049Y-119771657D01*
X106398342Y-119681950D01*
X106398335Y-119681945D01*
X106285308Y-119624355D01*
X106285305Y-119624354D01*
X106285304Y-119624354D01*
X106160000Y-119604508D01*
X106034696Y-119624354D01*
X106034694Y-119624354D01*
X106034693Y-119624355D01*
X105921659Y-119681949D01*
X105921657Y-119681950D01*
X105899003Y-119704603D01*
X105888081Y-119712826D01*
X105877737Y-119718549D01*
X105877730Y-119718555D01*
X105872561Y-119722924D01*
X105840932Y-119734500D01*
X105644412Y-119734500D01*
X105609764Y-119720148D01*
X105199852Y-119310236D01*
X105185500Y-119275588D01*
X105185500Y-118510000D01*
X105960000Y-118510000D01*
X107160000Y-118510000D01*
X107160000Y-117710000D01*
X107704508Y-117710000D01*
X107724354Y-117835304D01*
X107724354Y-117835305D01*
X107724355Y-117835307D01*
X107724355Y-117835309D01*
X107781945Y-117948335D01*
X107781950Y-117948342D01*
X107871657Y-118038049D01*
X107871664Y-118038054D01*
X107984691Y-118095644D01*
X107984692Y-118095644D01*
X107984696Y-118095646D01*
X108110000Y-118115492D01*
X108235304Y-118095646D01*
X108348342Y-118038050D01*
X108370673Y-118015718D01*
X108379911Y-118011891D01*
X108390447Y-118002984D01*
X108390471Y-118002966D01*
X108391841Y-118001806D01*
X108391889Y-118001765D01*
X108393020Y-118000808D01*
X108393021Y-118000809D01*
X108397437Y-117997075D01*
X108429067Y-117985500D01*
X109675589Y-117985500D01*
X109710237Y-117999852D01*
X110270148Y-118559763D01*
X110284500Y-118594411D01*
X110284500Y-120240932D01*
X110272925Y-120272561D01*
X110268554Y-120277732D01*
X110268549Y-120277738D01*
X110261553Y-120289756D01*
X110253858Y-120299748D01*
X110231950Y-120321657D01*
X110231949Y-120321659D01*
X110174355Y-120434693D01*
X110174354Y-120434694D01*
X110174354Y-120434696D01*
X110154508Y-120560000D01*
X110174354Y-120685304D01*
X110174354Y-120685305D01*
X110174355Y-120685307D01*
X110174355Y-120685309D01*
X110231945Y-120798335D01*
X110231950Y-120798342D01*
X110321657Y-120888049D01*
X110321664Y-120888054D01*
X110434691Y-120945644D01*
X110434692Y-120945644D01*
X110434696Y-120945646D01*
X110560000Y-120965492D01*
X110685304Y-120945646D01*
X110685308Y-120945644D01*
X110685309Y-120945644D01*
X110798335Y-120888054D01*
X110798337Y-120888052D01*
X110798342Y-120888050D01*
X110888050Y-120798342D01*
X110888054Y-120798335D01*
X110945644Y-120685309D01*
X110945644Y-120685307D01*
X110945646Y-120685304D01*
X110965492Y-120560000D01*
X110945646Y-120434696D01*
X110945644Y-120434692D01*
X110945644Y-120434690D01*
X110888054Y-120321664D01*
X110888050Y-120321659D01*
X110888050Y-120321658D01*
X110865394Y-120299002D01*
X110857170Y-120288081D01*
X110851442Y-120277729D01*
X110851437Y-120277723D01*
X110847076Y-120272563D01*
X110835500Y-120240933D01*
X110835500Y-118405202D01*
X110835499Y-118405198D01*
X110793557Y-118303942D01*
X110793556Y-118303940D01*
X109966060Y-117476444D01*
X109966058Y-117476443D01*
X109954506Y-117471658D01*
X109954505Y-117471657D01*
X109864801Y-117434500D01*
X109864800Y-117434500D01*
X108429067Y-117434500D01*
X108397433Y-117422921D01*
X108392266Y-117418553D01*
X108392267Y-117418553D01*
X108392264Y-117418551D01*
X108380242Y-117411553D01*
X108370246Y-117403854D01*
X108348342Y-117381950D01*
X108348335Y-117381945D01*
X108235308Y-117324355D01*
X108235305Y-117324354D01*
X108235304Y-117324354D01*
X108110000Y-117304508D01*
X107984696Y-117324354D01*
X107984694Y-117324354D01*
X107984692Y-117324355D01*
X107984690Y-117324355D01*
X107871664Y-117381945D01*
X107871657Y-117381950D01*
X107781950Y-117471657D01*
X107781945Y-117471664D01*
X107724355Y-117584690D01*
X107724355Y-117584692D01*
X107724354Y-117584694D01*
X107724354Y-117584696D01*
X107704508Y-117710000D01*
X107160000Y-117710000D01*
X107160000Y-116910000D01*
X105960000Y-116910000D01*
X105960000Y-118510000D01*
X105185500Y-118510000D01*
X105185500Y-116134500D01*
X105199852Y-116099852D01*
X105234500Y-116085500D01*
X105240934Y-116085500D01*
X105272565Y-116097077D01*
X105277729Y-116101442D01*
X105289755Y-116108443D01*
X105299748Y-116116140D01*
X105321657Y-116138049D01*
X105321664Y-116138054D01*
X105434691Y-116195644D01*
X105434692Y-116195644D01*
X105434696Y-116195646D01*
X105560000Y-116215492D01*
X105685304Y-116195646D01*
X105685308Y-116195644D01*
X105685309Y-116195644D01*
X105798335Y-116138054D01*
X105798337Y-116138052D01*
X105798342Y-116138050D01*
X105888050Y-116048342D01*
X105888054Y-116048335D01*
X105945644Y-115935309D01*
X105945644Y-115935307D01*
X105945646Y-115935304D01*
X105965492Y-115810000D01*
X105945646Y-115684696D01*
X105945644Y-115684692D01*
X105945644Y-115684690D01*
X105888054Y-115571664D01*
X105888049Y-115571657D01*
X105798342Y-115481950D01*
X105798335Y-115481945D01*
X105685308Y-115424355D01*
X105685305Y-115424354D01*
X105685304Y-115424354D01*
X105560000Y-115404508D01*
X105434696Y-115424354D01*
X105434694Y-115424354D01*
X105434693Y-115424355D01*
X105321659Y-115481949D01*
X105321657Y-115481950D01*
X105299003Y-115504603D01*
X105288081Y-115512826D01*
X105277737Y-115518549D01*
X105277730Y-115518555D01*
X105272561Y-115522924D01*
X105240932Y-115534500D01*
X105005198Y-115534500D01*
X104915494Y-115571657D01*
X104915494Y-115571658D01*
X104908207Y-115574676D01*
X104903939Y-115576444D01*
X104753942Y-115726443D01*
X104676444Y-115803939D01*
X104676444Y-115803940D01*
X104634500Y-115905198D01*
X89638867Y-115905198D01*
X89787992Y-115612526D01*
X89790543Y-115608107D01*
X89970161Y-115331519D01*
X89973153Y-115327400D01*
X90180703Y-115071099D01*
X90184116Y-115067308D01*
X90417308Y-114834116D01*
X90421099Y-114830703D01*
X90677400Y-114623153D01*
X90681519Y-114620161D01*
X90958107Y-114440543D01*
X90962526Y-114437992D01*
X91256372Y-114288269D01*
X91261034Y-114286194D01*
X91568910Y-114168012D01*
X91573771Y-114166432D01*
X91892307Y-114081081D01*
X91897311Y-114080017D01*
X92223037Y-114028426D01*
X92228115Y-114027893D01*
X92558722Y-114010567D01*
X92561286Y-114010500D01*
X104277691Y-114010500D01*
X104277693Y-114010500D01*
X104510449Y-113975418D01*
X104735377Y-113906037D01*
X104947452Y-113803907D01*
X105045761Y-113736879D01*
X105082473Y-113729219D01*
X105113849Y-113749762D01*
X105115799Y-113752864D01*
X105129511Y-113776613D01*
X105213387Y-113860489D01*
X105316114Y-113919799D01*
X105344758Y-113927474D01*
X105430688Y-113950500D01*
X105430691Y-113950500D01*
X105549311Y-113950500D01*
X105606597Y-113935149D01*
X105663886Y-113919799D01*
X105766613Y-113860489D01*
X105850489Y-113776613D01*
X105874803Y-113734499D01*
X105904556Y-113711670D01*
X105917238Y-113710000D01*
X106062762Y-113710000D01*
X106097410Y-113724352D01*
G37*
%TD.AperFunction*%
%TD*%
%TA.AperFunction,Conductor*%
%TO.N,GND*%
G36*
X92245855Y-84435478D02*
G01*
X92584996Y-84472363D01*
X92590209Y-84473218D01*
X92923369Y-84546552D01*
X92928462Y-84547966D01*
X93251755Y-84656895D01*
X93256654Y-84658848D01*
X93566270Y-84802091D01*
X93570943Y-84804568D01*
X93863239Y-84980438D01*
X93867627Y-84983412D01*
X94139201Y-85189858D01*
X94143244Y-85193293D01*
X94390893Y-85427878D01*
X94394542Y-85431730D01*
X94615380Y-85691720D01*
X94618591Y-85695944D01*
X94810025Y-85978287D01*
X94812760Y-85982833D01*
X94972542Y-86284215D01*
X94974770Y-86289030D01*
X95082923Y-86560476D01*
X95101033Y-86605927D01*
X95102727Y-86610955D01*
X95193987Y-86939647D01*
X95195127Y-86944829D01*
X95250313Y-87281447D01*
X95250887Y-87286721D01*
X95269428Y-87628672D01*
X95269500Y-87631325D01*
X95269500Y-87677595D01*
X95281381Y-87714162D01*
X95282109Y-87716621D01*
X95289978Y-87745987D01*
X95291396Y-87748444D01*
X95295555Y-87757788D01*
X95298914Y-87768123D01*
X95298915Y-87768126D01*
X95316127Y-87791816D01*
X95318921Y-87796118D01*
X95329537Y-87814507D01*
X95329542Y-87814513D01*
X95338064Y-87823035D01*
X95343058Y-87828882D01*
X95354865Y-87845133D01*
X95371120Y-87856944D01*
X95376966Y-87861937D01*
X95385489Y-87870460D01*
X95385492Y-87870461D01*
X95385495Y-87870464D01*
X95403888Y-87881082D01*
X95408174Y-87883864D01*
X95431875Y-87901085D01*
X95442207Y-87904442D01*
X95451565Y-87908609D01*
X95454011Y-87910021D01*
X95483409Y-87917898D01*
X95485808Y-87918608D01*
X95522405Y-87930500D01*
X95522407Y-87930500D01*
X116617593Y-87930500D01*
X116617595Y-87930500D01*
X116654175Y-87918614D01*
X116656615Y-87917892D01*
X116669561Y-87914422D01*
X116685989Y-87910021D01*
X116688438Y-87908606D01*
X116697787Y-87904443D01*
X116708125Y-87901085D01*
X116731826Y-87883863D01*
X116736091Y-87881093D01*
X116754511Y-87870460D01*
X116763043Y-87861926D01*
X116768878Y-87856944D01*
X116785134Y-87845134D01*
X116796945Y-87828876D01*
X116801926Y-87823043D01*
X116810460Y-87814511D01*
X116821093Y-87796091D01*
X116823863Y-87791826D01*
X116841085Y-87768125D01*
X116844443Y-87757787D01*
X116848606Y-87748438D01*
X116850021Y-87745989D01*
X116854729Y-87728417D01*
X116857892Y-87716615D01*
X116858620Y-87714155D01*
X116870500Y-87677595D01*
X116870500Y-87631308D01*
X116870572Y-87628672D01*
X116875836Y-87531583D01*
X118819500Y-87531583D01*
X118819500Y-87728416D01*
X118850290Y-87922823D01*
X118850291Y-87922826D01*
X118911116Y-88110026D01*
X119000472Y-88285399D01*
X119000475Y-88285403D01*
X119000476Y-88285405D01*
X119116172Y-88444646D01*
X119116174Y-88444648D01*
X119116177Y-88444652D01*
X119255347Y-88583822D01*
X119255350Y-88583824D01*
X119255354Y-88583828D01*
X119414595Y-88699524D01*
X119414597Y-88699525D01*
X119414600Y-88699527D01*
X119474971Y-88730287D01*
X119589975Y-88788884D01*
X119777174Y-88849709D01*
X119971583Y-88880500D01*
X119971584Y-88880500D01*
X120168416Y-88880500D01*
X120168417Y-88880500D01*
X120362826Y-88849709D01*
X120550025Y-88788884D01*
X120725405Y-88699524D01*
X120884646Y-88583828D01*
X121023828Y-88444646D01*
X121139524Y-88285405D01*
X121228884Y-88110025D01*
X121289709Y-87922826D01*
X121320500Y-87728417D01*
X121320500Y-87531583D01*
X121289709Y-87337174D01*
X121228884Y-87149975D01*
X121139524Y-86974595D01*
X121023828Y-86815354D01*
X121023824Y-86815350D01*
X121023822Y-86815347D01*
X120884652Y-86676177D01*
X120884653Y-86676177D01*
X120791359Y-86608395D01*
X120725405Y-86560476D01*
X120725403Y-86560475D01*
X120725399Y-86560472D01*
X120550026Y-86471116D01*
X120362826Y-86410291D01*
X120362823Y-86410290D01*
X120213482Y-86386637D01*
X120168417Y-86379500D01*
X119971583Y-86379500D01*
X119934998Y-86385294D01*
X119777176Y-86410290D01*
X119777173Y-86410291D01*
X119589973Y-86471116D01*
X119414600Y-86560472D01*
X119255347Y-86676177D01*
X119116177Y-86815347D01*
X119000472Y-86974600D01*
X118911116Y-87149973D01*
X118850291Y-87337173D01*
X118850290Y-87337176D01*
X118819500Y-87531583D01*
X116875836Y-87531583D01*
X116880623Y-87443293D01*
X116889112Y-87286713D01*
X116889684Y-87281456D01*
X116944873Y-86944823D01*
X116946012Y-86939647D01*
X117037278Y-86610934D01*
X117038958Y-86605948D01*
X117165235Y-86289016D01*
X117167450Y-86284228D01*
X117327248Y-85982816D01*
X117329963Y-85978303D01*
X117521417Y-85695931D01*
X117524610Y-85691731D01*
X117745464Y-85431721D01*
X117749098Y-85427885D01*
X117996765Y-85193284D01*
X118000786Y-85189867D01*
X118272383Y-84983403D01*
X118276751Y-84980443D01*
X118569064Y-84804564D01*
X118573721Y-84802094D01*
X118883351Y-84658845D01*
X118888238Y-84656898D01*
X119211542Y-84547964D01*
X119216625Y-84546553D01*
X119549793Y-84473218D01*
X119555000Y-84472363D01*
X119894144Y-84435478D01*
X119899442Y-84435192D01*
X120240558Y-84435192D01*
X120245855Y-84435478D01*
X120584996Y-84472363D01*
X120590209Y-84473218D01*
X120923369Y-84546552D01*
X120928462Y-84547966D01*
X121251755Y-84656895D01*
X121256654Y-84658848D01*
X121566270Y-84802091D01*
X121570943Y-84804568D01*
X121863239Y-84980438D01*
X121867627Y-84983412D01*
X122139201Y-85189858D01*
X122143244Y-85193293D01*
X122390893Y-85427878D01*
X122394542Y-85431730D01*
X122615380Y-85691720D01*
X122618591Y-85695944D01*
X122810025Y-85978287D01*
X122812760Y-85982833D01*
X122972542Y-86284215D01*
X122974770Y-86289030D01*
X123082923Y-86560476D01*
X123101033Y-86605927D01*
X123102727Y-86610955D01*
X123193987Y-86939647D01*
X123195127Y-86944829D01*
X123250313Y-87281447D01*
X123250887Y-87286721D01*
X123269428Y-87628672D01*
X123269500Y-87631325D01*
X123269500Y-94128714D01*
X123269433Y-94131278D01*
X123252107Y-94461873D01*
X123251571Y-94466974D01*
X123199983Y-94792682D01*
X123198916Y-94797699D01*
X123113569Y-95116219D01*
X123111984Y-95121097D01*
X122993810Y-95428953D01*
X122991724Y-95433639D01*
X122842013Y-95727462D01*
X122839449Y-95731903D01*
X122659849Y-96008464D01*
X122656834Y-96012614D01*
X122449305Y-96268890D01*
X122445873Y-96272701D01*
X122212701Y-96505873D01*
X122208890Y-96509305D01*
X121952614Y-96716834D01*
X121948464Y-96719849D01*
X121671903Y-96899449D01*
X121667462Y-96902013D01*
X121373639Y-97051724D01*
X121368953Y-97053810D01*
X121061097Y-97171984D01*
X121056219Y-97173569D01*
X120737699Y-97258916D01*
X120732682Y-97259983D01*
X120406974Y-97311571D01*
X120401873Y-97312107D01*
X120071278Y-97329433D01*
X120068714Y-97329500D01*
X108587595Y-97329500D01*
X108540000Y-97329500D01*
X108422307Y-97329500D01*
X108189551Y-97364582D01*
X108189548Y-97364583D01*
X107964629Y-97433960D01*
X107964616Y-97433965D01*
X107752550Y-97536091D01*
X107658380Y-97600295D01*
X107621667Y-97607955D01*
X107590291Y-97587412D01*
X107588342Y-97584309D01*
X107570492Y-97553392D01*
X107570491Y-97553391D01*
X107570489Y-97553387D01*
X107486613Y-97469511D01*
X107383887Y-97410201D01*
X107383884Y-97410200D01*
X107269312Y-97379500D01*
X107269309Y-97379500D01*
X107150691Y-97379500D01*
X107150688Y-97379500D01*
X107036115Y-97410200D01*
X107036112Y-97410201D01*
X106933386Y-97469511D01*
X106933386Y-97469512D01*
X106849512Y-97553386D01*
X106849511Y-97553386D01*
X106790201Y-97656112D01*
X106790200Y-97656115D01*
X106759500Y-97770688D01*
X106759500Y-97889311D01*
X106790200Y-98003884D01*
X106790201Y-98003887D01*
X106790439Y-98004299D01*
X106849511Y-98106613D01*
X106933387Y-98190489D01*
X106974906Y-98214460D01*
X107036110Y-98249797D01*
X107036111Y-98249797D01*
X107036114Y-98249799D01*
X107048251Y-98253051D01*
X107078004Y-98275880D01*
X107082900Y-98313062D01*
X107081182Y-98318282D01*
X107035066Y-98435784D01*
X107035065Y-98435786D01*
X106982686Y-98665269D01*
X106982685Y-98665278D01*
X106966245Y-98884662D01*
X106949344Y-98918141D01*
X106917382Y-98930000D01*
X105502618Y-98930000D01*
X105467970Y-98915648D01*
X105453755Y-98884662D01*
X105437314Y-98665278D01*
X105437314Y-98665273D01*
X105384935Y-98435789D01*
X105338817Y-98318282D01*
X105339518Y-98280786D01*
X105366528Y-98254768D01*
X105371733Y-98253055D01*
X105383886Y-98249799D01*
X105486613Y-98190489D01*
X105570489Y-98106613D01*
X105629799Y-98003886D01*
X105649463Y-97930500D01*
X105657670Y-97899873D01*
X105680500Y-97870120D01*
X105717682Y-97865225D01*
X105747435Y-97888055D01*
X105752330Y-97899873D01*
X105780200Y-98003884D01*
X105780201Y-98003887D01*
X105780439Y-98004299D01*
X105839511Y-98106613D01*
X105923387Y-98190489D01*
X105964906Y-98214460D01*
X106026110Y-98249797D01*
X106026114Y-98249799D01*
X106054758Y-98257474D01*
X106140688Y-98280500D01*
X106140691Y-98280500D01*
X106259311Y-98280500D01*
X106316597Y-98265149D01*
X106373886Y-98249799D01*
X106476613Y-98190489D01*
X106560489Y-98106613D01*
X106619799Y-98003886D01*
X106639463Y-97930500D01*
X106650500Y-97889311D01*
X106650500Y-97770688D01*
X106619799Y-97656115D01*
X106619798Y-97656112D01*
X106588696Y-97602242D01*
X106560489Y-97553387D01*
X106476613Y-97469511D01*
X106373887Y-97410201D01*
X106373884Y-97410200D01*
X106259312Y-97379500D01*
X106259309Y-97379500D01*
X106140691Y-97379500D01*
X106140688Y-97379500D01*
X106026115Y-97410200D01*
X106026112Y-97410201D01*
X105923386Y-97469511D01*
X105923386Y-97469512D01*
X105839512Y-97553386D01*
X105839511Y-97553386D01*
X105780201Y-97656112D01*
X105780201Y-97656113D01*
X105752330Y-97760127D01*
X105729500Y-97789879D01*
X105692317Y-97794774D01*
X105662565Y-97771944D01*
X105657670Y-97760127D01*
X105629799Y-97656115D01*
X105629799Y-97656114D01*
X105570489Y-97553387D01*
X105486613Y-97469511D01*
X105383887Y-97410201D01*
X105383884Y-97410200D01*
X105269312Y-97379500D01*
X105269309Y-97379500D01*
X105150691Y-97379500D01*
X105150688Y-97379500D01*
X105036115Y-97410200D01*
X105036112Y-97410201D01*
X104933386Y-97469511D01*
X104933386Y-97469512D01*
X104849514Y-97553383D01*
X104849505Y-97553395D01*
X104831656Y-97584309D01*
X104801902Y-97607139D01*
X104764721Y-97602242D01*
X104761620Y-97600294D01*
X104667454Y-97536093D01*
X104667451Y-97536092D01*
X104455383Y-97433965D01*
X104455370Y-97433960D01*
X104278812Y-97379500D01*
X104230449Y-97364582D01*
X103997693Y-97329500D01*
X103997691Y-97329500D01*
X92071286Y-97329500D01*
X92068722Y-97329433D01*
X91738126Y-97312107D01*
X91733025Y-97311571D01*
X91407317Y-97259983D01*
X91402300Y-97258916D01*
X91083780Y-97173569D01*
X91078902Y-97171984D01*
X90771046Y-97053810D01*
X90766360Y-97051724D01*
X90472537Y-96902013D01*
X90468096Y-96899449D01*
X90191535Y-96719849D01*
X90187385Y-96716834D01*
X89931109Y-96509305D01*
X89927298Y-96505873D01*
X89694126Y-96272701D01*
X89690694Y-96268890D01*
X89483160Y-96012607D01*
X89480154Y-96008470D01*
X89300548Y-95731900D01*
X89297986Y-95727462D01*
X89148273Y-95433634D01*
X89146189Y-95428953D01*
X89143695Y-95422457D01*
X89028014Y-95121095D01*
X89026430Y-95116219D01*
X89026115Y-95115045D01*
X88949737Y-94829997D01*
X99114353Y-94829997D01*
X99114353Y-94830000D01*
X99134833Y-94972454D01*
X99163606Y-95035457D01*
X99165272Y-95039593D01*
X99172753Y-95060922D01*
X99182366Y-95077189D01*
X99184752Y-95081759D01*
X99194623Y-95103373D01*
X99201838Y-95111699D01*
X99206989Y-95118857D01*
X99262685Y-95213108D01*
X99269500Y-95238036D01*
X99269500Y-95776146D01*
X99293385Y-95865286D01*
X99293386Y-95865290D01*
X99339530Y-95945212D01*
X100404788Y-97010470D01*
X100462838Y-97043985D01*
X100484712Y-97056614D01*
X100506998Y-97062585D01*
X100573853Y-97080500D01*
X100573856Y-97080500D01*
X100573857Y-97080500D01*
X100666144Y-97080500D01*
X101511965Y-97080500D01*
X101536893Y-97087315D01*
X101689079Y-97177246D01*
X101694771Y-97180351D01*
X101697790Y-97182140D01*
X101709947Y-97189953D01*
X101786785Y-97212514D01*
X101848034Y-97230499D01*
X101848037Y-97230499D01*
X101848039Y-97230500D01*
X101848040Y-97230500D01*
X101991960Y-97230500D01*
X101991961Y-97230500D01*
X101991963Y-97230499D01*
X101991965Y-97230499D01*
X102029459Y-97219489D01*
X102130053Y-97189953D01*
X102144153Y-97180890D01*
X102149989Y-97177678D01*
X102150902Y-97177252D01*
X102150918Y-97177247D01*
X102303107Y-97087314D01*
X102328035Y-97080500D01*
X108566146Y-97080500D01*
X108610716Y-97068557D01*
X108655288Y-97056614D01*
X108677162Y-97043985D01*
X108735212Y-97010470D01*
X109075470Y-96670212D01*
X109121614Y-96590288D01*
X109141844Y-96514788D01*
X109145500Y-96501144D01*
X109145500Y-95688036D01*
X109152311Y-95663114D01*
X109152315Y-95663108D01*
X109155484Y-95657743D01*
X109172745Y-95640482D01*
X109178113Y-95637310D01*
X109203034Y-95630500D01*
X109616146Y-95630500D01*
X109660716Y-95618557D01*
X109705288Y-95606614D01*
X109724044Y-95595785D01*
X109785212Y-95560470D01*
X110450470Y-94895212D01*
X110496614Y-94815288D01*
X110501993Y-94795213D01*
X110520500Y-94726144D01*
X110520500Y-93088035D01*
X110527314Y-93063108D01*
X110583011Y-92968853D01*
X110588152Y-92961709D01*
X110595377Y-92953373D01*
X110605257Y-92931736D01*
X110607625Y-92927199D01*
X110617248Y-92910917D01*
X110624005Y-92898529D01*
X110624728Y-92897088D01*
X110625930Y-92894652D01*
X110628653Y-92882880D01*
X110631820Y-92873573D01*
X110655163Y-92822461D01*
X110655162Y-92822461D01*
X110655165Y-92822457D01*
X110675647Y-92680000D01*
X110675566Y-92679435D01*
X110655166Y-92537545D01*
X110640420Y-92505256D01*
X110595377Y-92406627D01*
X110501128Y-92297857D01*
X110380053Y-92220047D01*
X110380050Y-92220046D01*
X110241965Y-92179500D01*
X110241961Y-92179500D01*
X110098039Y-92179500D01*
X110098034Y-92179500D01*
X109959949Y-92220046D01*
X109838871Y-92297857D01*
X109744625Y-92406623D01*
X109744624Y-92406625D01*
X109684833Y-92537545D01*
X109664353Y-92679997D01*
X109664353Y-92680002D01*
X109684833Y-92822454D01*
X109713606Y-92885457D01*
X109715272Y-92889593D01*
X109722753Y-92910922D01*
X109732366Y-92927189D01*
X109734752Y-92931759D01*
X109744623Y-92953373D01*
X109751838Y-92961699D01*
X109756989Y-92968857D01*
X109812685Y-93063108D01*
X109819500Y-93088036D01*
X109819500Y-94514522D01*
X109805148Y-94549170D01*
X109439170Y-94915148D01*
X109404522Y-94929500D01*
X109203036Y-94929500D01*
X109178108Y-94922685D01*
X109025919Y-94832752D01*
X109024027Y-94831720D01*
X109020223Y-94829646D01*
X109017204Y-94827856D01*
X109005053Y-94820047D01*
X109005052Y-94820046D01*
X109005051Y-94820046D01*
X108866965Y-94779500D01*
X108866961Y-94779500D01*
X108723039Y-94779500D01*
X108723034Y-94779500D01*
X108584949Y-94820046D01*
X108584947Y-94820046D01*
X108584947Y-94820047D01*
X108569460Y-94830000D01*
X108463871Y-94897857D01*
X108369625Y-95006623D01*
X108369624Y-95006625D01*
X108309833Y-95137545D01*
X108289353Y-95279997D01*
X108289353Y-95280002D01*
X108309833Y-95422454D01*
X108338606Y-95485457D01*
X108340272Y-95489593D01*
X108347753Y-95510922D01*
X108357366Y-95527189D01*
X108359753Y-95531761D01*
X108369623Y-95553373D01*
X108376839Y-95561700D01*
X108381989Y-95568857D01*
X108437685Y-95663108D01*
X108444500Y-95688036D01*
X108444500Y-96289522D01*
X108430148Y-96324170D01*
X108389170Y-96365148D01*
X108354522Y-96379500D01*
X102328036Y-96379500D01*
X102303108Y-96372685D01*
X102150919Y-96282752D01*
X102149027Y-96281720D01*
X102145223Y-96279646D01*
X102142204Y-96277856D01*
X102130053Y-96270047D01*
X102130052Y-96270046D01*
X102130051Y-96270046D01*
X101991965Y-96229500D01*
X101991961Y-96229500D01*
X101848039Y-96229500D01*
X101848034Y-96229500D01*
X101709946Y-96270046D01*
X101709945Y-96270047D01*
X101695857Y-96279101D01*
X101690050Y-96282300D01*
X101689082Y-96282750D01*
X101536891Y-96372685D01*
X101511963Y-96379500D01*
X100785478Y-96379500D01*
X100750830Y-96365148D01*
X99984852Y-95599170D01*
X99970500Y-95564522D01*
X99970500Y-95238035D01*
X99977314Y-95213108D01*
X100033011Y-95118853D01*
X100038152Y-95111709D01*
X100045377Y-95103373D01*
X100055257Y-95081736D01*
X100057625Y-95077199D01*
X100067248Y-95060917D01*
X100074005Y-95048529D01*
X100074728Y-95047088D01*
X100075930Y-95044652D01*
X100078653Y-95032880D01*
X100081820Y-95023573D01*
X100105163Y-94972461D01*
X100105162Y-94972461D01*
X100105165Y-94972457D01*
X100125647Y-94830000D01*
X100125597Y-94829651D01*
X100105166Y-94687545D01*
X100100751Y-94677879D01*
X100045377Y-94556627D01*
X99951128Y-94447857D01*
X99830053Y-94370047D01*
X99830050Y-94370046D01*
X99691965Y-94329500D01*
X99691961Y-94329500D01*
X99548039Y-94329500D01*
X99548034Y-94329500D01*
X99409949Y-94370046D01*
X99288871Y-94447857D01*
X99194625Y-94556623D01*
X99194624Y-94556625D01*
X99134833Y-94687545D01*
X99114353Y-94829997D01*
X88949737Y-94829997D01*
X88941082Y-94797696D01*
X88940016Y-94792682D01*
X88937928Y-94779500D01*
X88888426Y-94466964D01*
X88887893Y-94461882D01*
X88870567Y-94131278D01*
X88870500Y-94128714D01*
X88870500Y-94080461D01*
X88870221Y-94077050D01*
X88868000Y-93660511D01*
X88868000Y-93543679D01*
X88832918Y-93310923D01*
X88763537Y-93085995D01*
X88763534Y-93085988D01*
X88661411Y-92873927D01*
X88661408Y-92873923D01*
X88661407Y-92873920D01*
X88594378Y-92775607D01*
X88586719Y-92738896D01*
X88607262Y-92707520D01*
X88610355Y-92705577D01*
X88634113Y-92691861D01*
X88717989Y-92607985D01*
X88777299Y-92505258D01*
X88792649Y-92447969D01*
X88808000Y-92390683D01*
X88808000Y-92272060D01*
X88777299Y-92157487D01*
X88777298Y-92157484D01*
X88717988Y-92054758D01*
X88634113Y-91970883D01*
X88531387Y-91911573D01*
X88531384Y-91911572D01*
X88456318Y-91891458D01*
X88426565Y-91868628D01*
X88420000Y-91844128D01*
X88420000Y-91818614D01*
X88434352Y-91783966D01*
X88456311Y-91771287D01*
X88531386Y-91751171D01*
X88634113Y-91691861D01*
X88717989Y-91607985D01*
X88777299Y-91505258D01*
X88784068Y-91479997D01*
X97064353Y-91479997D01*
X97064353Y-91480002D01*
X97084833Y-91622454D01*
X97099836Y-91655304D01*
X97144623Y-91753373D01*
X97144624Y-91753374D01*
X97144625Y-91753376D01*
X97235325Y-91858050D01*
X97238872Y-91862143D01*
X97359947Y-91939953D01*
X97436785Y-91962514D01*
X97498034Y-91980499D01*
X97498037Y-91980499D01*
X97498039Y-91980500D01*
X97498040Y-91980500D01*
X97641960Y-91980500D01*
X97641961Y-91980500D01*
X97641963Y-91980499D01*
X97641965Y-91980499D01*
X97679459Y-91969489D01*
X97780053Y-91939953D01*
X97794153Y-91930890D01*
X97799989Y-91927678D01*
X97800902Y-91927252D01*
X97800918Y-91927247D01*
X97953107Y-91837314D01*
X97978035Y-91830500D01*
X99261965Y-91830500D01*
X99286892Y-91837314D01*
X99355648Y-91877944D01*
X99439079Y-91927246D01*
X99444771Y-91930351D01*
X99447790Y-91932140D01*
X99459947Y-91939953D01*
X99536785Y-91962514D01*
X99598034Y-91980499D01*
X99598037Y-91980499D01*
X99598039Y-91980500D01*
X99598040Y-91980500D01*
X99741960Y-91980500D01*
X99741961Y-91980500D01*
X99741963Y-91980499D01*
X99741965Y-91980499D01*
X99774714Y-91970883D01*
X99880053Y-91939953D01*
X100001128Y-91862143D01*
X100028980Y-91830000D01*
X104570000Y-91830000D01*
X104619999Y-94829999D01*
X104620000Y-94830000D01*
X107570000Y-94830000D01*
X107570000Y-91854500D01*
X107584352Y-91819852D01*
X107619000Y-91805500D01*
X107700934Y-91805500D01*
X107732565Y-91817077D01*
X107737729Y-91821442D01*
X107749755Y-91828443D01*
X107759748Y-91836140D01*
X107781657Y-91858049D01*
X107781664Y-91858054D01*
X107894691Y-91915644D01*
X107894692Y-91915644D01*
X107894696Y-91915646D01*
X108020000Y-91935492D01*
X108145304Y-91915646D01*
X108145308Y-91915644D01*
X108145309Y-91915644D01*
X108258335Y-91858054D01*
X108258337Y-91858052D01*
X108258342Y-91858050D01*
X108348050Y-91768342D01*
X108348054Y-91768335D01*
X108405644Y-91655309D01*
X108405644Y-91655307D01*
X108405646Y-91655304D01*
X108425492Y-91530000D01*
X108405646Y-91404696D01*
X108405644Y-91404692D01*
X108405644Y-91404690D01*
X108348054Y-91291664D01*
X108348049Y-91291657D01*
X108258342Y-91201950D01*
X108258335Y-91201945D01*
X108145308Y-91144355D01*
X108145305Y-91144354D01*
X108145304Y-91144354D01*
X108020000Y-91124508D01*
X107894696Y-91144354D01*
X107894694Y-91144354D01*
X107894693Y-91144355D01*
X107781659Y-91201949D01*
X107781657Y-91201950D01*
X107759003Y-91224603D01*
X107748081Y-91232826D01*
X107737737Y-91238549D01*
X107737730Y-91238555D01*
X107732561Y-91242924D01*
X107700932Y-91254500D01*
X106454412Y-91254500D01*
X106419764Y-91240148D01*
X106359852Y-91180236D01*
X106345500Y-91145588D01*
X106345500Y-90299066D01*
X106357080Y-90267431D01*
X106361440Y-90262273D01*
X106361443Y-90262270D01*
X106368440Y-90250248D01*
X106376136Y-90240255D01*
X106398050Y-90218342D01*
X106455646Y-90105304D01*
X106475492Y-89980000D01*
X106455646Y-89854696D01*
X106455644Y-89854692D01*
X106455644Y-89854690D01*
X106398054Y-89741664D01*
X106398049Y-89741657D01*
X106308342Y-89651950D01*
X106308335Y-89651945D01*
X106195308Y-89594355D01*
X106195305Y-89594354D01*
X106195304Y-89594354D01*
X106070000Y-89574508D01*
X105944696Y-89594354D01*
X105944694Y-89594354D01*
X105944692Y-89594355D01*
X105944690Y-89594355D01*
X105831664Y-89651945D01*
X105831657Y-89651950D01*
X105741950Y-89741657D01*
X105741945Y-89741664D01*
X105684355Y-89854690D01*
X105684355Y-89854692D01*
X105684354Y-89854694D01*
X105684354Y-89854696D01*
X105664508Y-89980000D01*
X105684354Y-90105304D01*
X105684354Y-90105305D01*
X105684355Y-90105307D01*
X105684355Y-90105309D01*
X105741945Y-90218335D01*
X105741950Y-90218342D01*
X105764602Y-90240994D01*
X105772827Y-90251917D01*
X105778555Y-90262268D01*
X105778558Y-90262273D01*
X105782921Y-90267434D01*
X105794500Y-90299067D01*
X105794500Y-91334801D01*
X105835530Y-91433853D01*
X105835530Y-91433855D01*
X105836440Y-91436052D01*
X105836441Y-91436054D01*
X105836443Y-91436058D01*
X105836445Y-91436060D01*
X106146735Y-91746352D01*
X106161087Y-91781000D01*
X106146735Y-91815648D01*
X106112087Y-91830000D01*
X104570000Y-91830000D01*
X100028980Y-91830000D01*
X100095377Y-91753373D01*
X100155165Y-91622457D01*
X100155165Y-91622455D01*
X100155166Y-91622454D01*
X100175647Y-91480002D01*
X100175647Y-91479997D01*
X100155166Y-91337545D01*
X100150751Y-91327879D01*
X100095377Y-91206627D01*
X100091324Y-91201950D01*
X100001128Y-91097857D01*
X99880053Y-91020047D01*
X99880050Y-91020046D01*
X99741965Y-90979500D01*
X99741961Y-90979500D01*
X99598039Y-90979500D01*
X99598034Y-90979500D01*
X99459946Y-91020046D01*
X99459945Y-91020047D01*
X99445857Y-91029101D01*
X99440050Y-91032300D01*
X99439082Y-91032750D01*
X99286891Y-91122685D01*
X99261963Y-91129500D01*
X97978036Y-91129500D01*
X97953108Y-91122685D01*
X97937659Y-91113556D01*
X97838160Y-91054759D01*
X97800919Y-91032752D01*
X97799027Y-91031720D01*
X97795223Y-91029646D01*
X97792204Y-91027856D01*
X97780053Y-91020047D01*
X97780052Y-91020046D01*
X97780051Y-91020046D01*
X97641965Y-90979500D01*
X97641961Y-90979500D01*
X97498039Y-90979500D01*
X97498034Y-90979500D01*
X97359949Y-91020046D01*
X97238871Y-91097857D01*
X97144625Y-91206623D01*
X97144624Y-91206625D01*
X97084833Y-91337545D01*
X97064353Y-91479997D01*
X88784068Y-91479997D01*
X88796431Y-91433856D01*
X88808000Y-91390683D01*
X88808000Y-91272060D01*
X88782914Y-91178441D01*
X88777299Y-91157486D01*
X88776152Y-91155500D01*
X88717988Y-91054758D01*
X88634113Y-90970883D01*
X88531387Y-90911573D01*
X88531384Y-90911572D01*
X88456318Y-90891458D01*
X88426565Y-90868628D01*
X88420000Y-90844128D01*
X88420000Y-90818614D01*
X88434352Y-90783966D01*
X88456311Y-90771287D01*
X88531386Y-90751171D01*
X88634113Y-90691861D01*
X88717989Y-90607985D01*
X88777299Y-90505258D01*
X88800061Y-90420311D01*
X88808000Y-90390683D01*
X88808000Y-90330000D01*
X100064508Y-90330000D01*
X100084354Y-90455304D01*
X100084354Y-90455305D01*
X100084355Y-90455307D01*
X100084355Y-90455309D01*
X100141945Y-90568335D01*
X100141950Y-90568342D01*
X100231657Y-90658049D01*
X100231664Y-90658054D01*
X100344691Y-90715644D01*
X100344692Y-90715644D01*
X100344696Y-90715646D01*
X100470000Y-90735492D01*
X100595304Y-90715646D01*
X100708342Y-90658050D01*
X100730673Y-90635718D01*
X100739911Y-90631891D01*
X100750447Y-90622984D01*
X100750471Y-90622966D01*
X100751841Y-90621806D01*
X100751889Y-90621765D01*
X100753020Y-90620808D01*
X100753021Y-90620809D01*
X100757437Y-90617075D01*
X100789067Y-90605500D01*
X102535589Y-90605500D01*
X102570237Y-90619852D01*
X103063938Y-91113555D01*
X103063940Y-91113556D01*
X103063941Y-91113557D01*
X103089013Y-91123942D01*
X103165200Y-91155500D01*
X103250934Y-91155500D01*
X103282565Y-91167077D01*
X103287729Y-91171442D01*
X103299755Y-91178443D01*
X103309748Y-91186140D01*
X103331657Y-91208049D01*
X103331664Y-91208054D01*
X103444691Y-91265644D01*
X103444692Y-91265644D01*
X103444696Y-91265646D01*
X103570000Y-91285492D01*
X103695304Y-91265646D01*
X103695308Y-91265644D01*
X103695309Y-91265644D01*
X103808335Y-91208054D01*
X103808337Y-91208052D01*
X103808342Y-91208050D01*
X103898050Y-91118342D01*
X103898054Y-91118335D01*
X103955644Y-91005309D01*
X103955644Y-91005307D01*
X103955646Y-91005304D01*
X103975492Y-90880000D01*
X103955646Y-90754696D01*
X103955644Y-90754692D01*
X103955644Y-90754690D01*
X103898054Y-90641664D01*
X103898049Y-90641657D01*
X103808342Y-90551950D01*
X103808335Y-90551945D01*
X103695308Y-90494355D01*
X103695305Y-90494354D01*
X103695304Y-90494354D01*
X103570000Y-90474508D01*
X103444696Y-90494354D01*
X103444694Y-90494354D01*
X103444692Y-90494355D01*
X103444690Y-90494355D01*
X103330192Y-90552695D01*
X103292805Y-90555638D01*
X103273299Y-90543684D01*
X102826060Y-90096444D01*
X102826058Y-90096443D01*
X102814506Y-90091658D01*
X102814505Y-90091657D01*
X102724801Y-90054500D01*
X102724800Y-90054500D01*
X100789067Y-90054500D01*
X100757433Y-90042921D01*
X100752266Y-90038553D01*
X100752267Y-90038553D01*
X100752264Y-90038551D01*
X100740242Y-90031553D01*
X100730246Y-90023854D01*
X100708342Y-90001950D01*
X100708335Y-90001945D01*
X100595308Y-89944355D01*
X100595305Y-89944354D01*
X100595304Y-89944354D01*
X100470000Y-89924508D01*
X100344696Y-89944354D01*
X100344694Y-89944354D01*
X100344692Y-89944355D01*
X100344690Y-89944355D01*
X100231664Y-90001945D01*
X100231657Y-90001950D01*
X100141950Y-90091657D01*
X100141945Y-90091664D01*
X100084355Y-90204690D01*
X100084355Y-90204692D01*
X100084354Y-90204694D01*
X100084354Y-90204696D01*
X100064508Y-90330000D01*
X88808000Y-90330000D01*
X88808000Y-90272060D01*
X88777299Y-90157487D01*
X88777298Y-90157484D01*
X88747173Y-90105307D01*
X88717989Y-90054759D01*
X88634113Y-89970883D01*
X88634109Y-89970881D01*
X88634107Y-89970879D01*
X88610365Y-89957172D01*
X88587535Y-89927419D01*
X88592430Y-89890237D01*
X88594370Y-89887148D01*
X88661407Y-89788824D01*
X88684122Y-89741657D01*
X88763534Y-89576755D01*
X88763537Y-89576749D01*
X88832918Y-89351821D01*
X88868000Y-89119065D01*
X88868000Y-89001372D01*
X88870405Y-87681985D01*
X88870500Y-87680814D01*
X88870500Y-87631308D01*
X88870572Y-87628655D01*
X88875836Y-87531583D01*
X90819500Y-87531583D01*
X90819500Y-87728416D01*
X90850290Y-87922823D01*
X90850291Y-87922826D01*
X90911116Y-88110026D01*
X91000472Y-88285399D01*
X91000475Y-88285403D01*
X91000476Y-88285405D01*
X91116172Y-88444646D01*
X91116174Y-88444648D01*
X91116177Y-88444652D01*
X91255347Y-88583822D01*
X91255350Y-88583824D01*
X91255354Y-88583828D01*
X91414595Y-88699524D01*
X91414597Y-88699525D01*
X91414600Y-88699527D01*
X91474971Y-88730287D01*
X91589975Y-88788884D01*
X91777174Y-88849709D01*
X91971583Y-88880500D01*
X91971584Y-88880500D01*
X92168416Y-88880500D01*
X92168417Y-88880500D01*
X92362826Y-88849709D01*
X92550025Y-88788884D01*
X92725405Y-88699524D01*
X92884646Y-88583828D01*
X93023828Y-88444646D01*
X93139524Y-88285405D01*
X93228884Y-88110025D01*
X93289709Y-87922826D01*
X93320500Y-87728417D01*
X93320500Y-87531583D01*
X93289709Y-87337174D01*
X93228884Y-87149975D01*
X93139524Y-86974595D01*
X93023828Y-86815354D01*
X93023824Y-86815350D01*
X93023822Y-86815347D01*
X92884652Y-86676177D01*
X92884653Y-86676177D01*
X92791359Y-86608395D01*
X92725405Y-86560476D01*
X92725403Y-86560475D01*
X92725399Y-86560472D01*
X92550026Y-86471116D01*
X92362826Y-86410291D01*
X92362823Y-86410290D01*
X92213482Y-86386637D01*
X92168417Y-86379500D01*
X91971583Y-86379500D01*
X91934998Y-86385294D01*
X91777176Y-86410290D01*
X91777173Y-86410291D01*
X91589973Y-86471116D01*
X91414600Y-86560472D01*
X91255347Y-86676177D01*
X91116177Y-86815347D01*
X91000472Y-86974600D01*
X90911116Y-87149973D01*
X90850291Y-87337173D01*
X90850290Y-87337176D01*
X90819500Y-87531583D01*
X88875836Y-87531583D01*
X88880623Y-87443293D01*
X88889112Y-87286713D01*
X88889684Y-87281456D01*
X88944873Y-86944823D01*
X88946012Y-86939647D01*
X89037278Y-86610934D01*
X89038958Y-86605948D01*
X89165235Y-86289016D01*
X89167450Y-86284228D01*
X89327248Y-85982816D01*
X89329963Y-85978303D01*
X89521417Y-85695931D01*
X89524610Y-85691731D01*
X89745464Y-85431721D01*
X89749098Y-85427885D01*
X89996765Y-85193284D01*
X90000786Y-85189867D01*
X90272383Y-84983403D01*
X90276751Y-84980443D01*
X90569064Y-84804564D01*
X90573721Y-84802094D01*
X90883351Y-84658845D01*
X90888238Y-84656898D01*
X91211542Y-84547964D01*
X91216625Y-84546553D01*
X91549793Y-84473218D01*
X91555000Y-84472363D01*
X91894144Y-84435478D01*
X91899442Y-84435192D01*
X92240558Y-84435192D01*
X92245855Y-84435478D01*
G37*
%TD.AperFunction*%
%TD*%
%TA.AperFunction,Conductor*%
%TO.N,GND*%
G36*
X71432758Y-40189630D02*
G01*
X71438032Y-40190135D01*
X71764204Y-40239325D01*
X71769383Y-40240396D01*
X72088319Y-40324561D01*
X72093368Y-40326190D01*
X72401339Y-40444347D01*
X72406173Y-40446509D01*
X72699567Y-40597272D01*
X72704128Y-40599937D01*
X72961420Y-40769614D01*
X72979501Y-40781538D01*
X72983766Y-40784695D01*
X73237879Y-40994995D01*
X73241777Y-40998594D01*
X73471663Y-41235134D01*
X73475147Y-41239130D01*
X73678117Y-41499149D01*
X73681141Y-41503486D01*
X73720412Y-41566901D01*
X73854809Y-41783927D01*
X73857354Y-41788582D01*
X73999679Y-42086146D01*
X74001706Y-42091049D01*
X74103107Y-42379717D01*
X74105607Y-42390833D01*
X74105668Y-42391418D01*
X74105668Y-42391419D01*
X74105669Y-42391423D01*
X74105670Y-42391425D01*
X74114655Y-42414832D01*
X74115945Y-42418662D01*
X74125215Y-42450459D01*
X74127753Y-42454186D01*
X74129156Y-42456248D01*
X74134396Y-42466262D01*
X74834143Y-44289162D01*
X74834476Y-44290231D01*
X74849495Y-44329155D01*
X74849510Y-44329240D01*
X74849525Y-44329235D01*
X74864546Y-44368366D01*
X74865018Y-44369390D01*
X78541843Y-53898776D01*
X78540926Y-53936268D01*
X78513767Y-53962130D01*
X78476275Y-53961213D01*
X78461480Y-53951063D01*
X77951300Y-53440884D01*
X77951299Y-53440883D01*
X77848573Y-53381573D01*
X77848571Y-53381572D01*
X77824358Y-53375085D01*
X77794236Y-53367014D01*
X77733996Y-53350872D01*
X77733994Y-53350872D01*
X76616899Y-53350872D01*
X76582251Y-53336520D01*
X76394852Y-53149121D01*
X76380500Y-53114473D01*
X76380500Y-52070870D01*
X76394852Y-52036222D01*
X76429500Y-52021870D01*
X76449745Y-52021870D01*
X76449748Y-52021870D01*
X76508231Y-52010237D01*
X76574552Y-51965922D01*
X76618867Y-51899601D01*
X76630500Y-51841118D01*
X76630500Y-50801622D01*
X76618867Y-50743139D01*
X76592301Y-50703382D01*
X76574552Y-50676817D01*
X76534795Y-50650252D01*
X76508231Y-50632503D01*
X76449748Y-50620870D01*
X75410252Y-50620870D01*
X75351769Y-50632503D01*
X75285447Y-50676817D01*
X75241133Y-50743139D01*
X75229500Y-50801622D01*
X75229500Y-51841118D01*
X75241133Y-51899601D01*
X75258882Y-51926165D01*
X75285447Y-51965922D01*
X75312012Y-51983671D01*
X75351769Y-52010237D01*
X75410252Y-52021870D01*
X75430500Y-52021870D01*
X75465148Y-52036222D01*
X75479500Y-52070870D01*
X75479500Y-53380682D01*
X75503713Y-53471044D01*
X75503713Y-53471045D01*
X75510200Y-53495258D01*
X75510201Y-53495260D01*
X75569511Y-53597986D01*
X76133387Y-54161862D01*
X76212224Y-54207378D01*
X76236114Y-54221171D01*
X76264758Y-54228846D01*
X76350688Y-54251872D01*
X76350691Y-54251872D01*
X77467786Y-54251872D01*
X77502434Y-54266224D01*
X77675148Y-54438938D01*
X77689500Y-54473586D01*
X77689500Y-55052349D01*
X77685072Y-55072704D01*
X77654834Y-55138914D01*
X77654834Y-55138916D01*
X77634353Y-55281369D01*
X77634353Y-55281374D01*
X77654833Y-55423826D01*
X77686935Y-55494118D01*
X77714623Y-55554745D01*
X77714624Y-55554746D01*
X77714625Y-55554748D01*
X77808871Y-55663514D01*
X77808872Y-55663515D01*
X77929947Y-55741325D01*
X78006785Y-55763886D01*
X78068034Y-55781871D01*
X78068037Y-55781871D01*
X78068039Y-55781872D01*
X78068040Y-55781872D01*
X78211960Y-55781872D01*
X78211961Y-55781872D01*
X78211963Y-55781871D01*
X78211965Y-55781871D01*
X78234795Y-55775167D01*
X78350053Y-55741325D01*
X78471128Y-55663515D01*
X78565377Y-55554745D01*
X78625165Y-55423829D01*
X78625165Y-55423827D01*
X78625166Y-55423826D01*
X78645647Y-55281374D01*
X78645647Y-55281369D01*
X78625165Y-55138916D01*
X78625165Y-55138914D01*
X78594928Y-55072704D01*
X78590500Y-55052349D01*
X78590500Y-54287997D01*
X78604852Y-54253349D01*
X78639500Y-54238997D01*
X78674148Y-54253349D01*
X78685214Y-54270357D01*
X80654607Y-59374516D01*
X85726204Y-72518795D01*
X85729489Y-72536441D01*
X85727007Y-88950107D01*
X85727000Y-88950209D01*
X85727000Y-89001224D01*
X85726994Y-89044105D01*
X85727000Y-89044194D01*
X85727000Y-89119065D01*
X85762082Y-89351821D01*
X85762083Y-89351823D01*
X85831460Y-89576742D01*
X85831465Y-89576755D01*
X85933592Y-89788823D01*
X85933593Y-89788826D01*
X85997794Y-89882992D01*
X86005454Y-89919704D01*
X85984910Y-89951080D01*
X85981809Y-89953028D01*
X85950895Y-89970877D01*
X85950883Y-89970886D01*
X85867012Y-90054758D01*
X85867011Y-90054758D01*
X85807701Y-90157484D01*
X85807700Y-90157487D01*
X85777000Y-90272060D01*
X85777000Y-90390683D01*
X85807700Y-90505256D01*
X85807701Y-90505259D01*
X85867011Y-90607985D01*
X85950887Y-90691861D01*
X86053614Y-90751171D01*
X86082258Y-90758846D01*
X86168188Y-90781872D01*
X86168191Y-90781872D01*
X86286811Y-90781872D01*
X86344097Y-90766521D01*
X86401386Y-90751171D01*
X86504113Y-90691861D01*
X86587989Y-90607985D01*
X86647299Y-90505258D01*
X86650551Y-90493119D01*
X86673380Y-90463368D01*
X86710562Y-90458471D01*
X86715782Y-90460189D01*
X86729692Y-90465648D01*
X86788902Y-90488886D01*
X86815911Y-90514903D01*
X86820000Y-90534498D01*
X86820000Y-92128244D01*
X86805648Y-92162892D01*
X86788901Y-92173857D01*
X86715782Y-92202553D01*
X86678286Y-92201851D01*
X86652268Y-92174841D01*
X86650551Y-92169622D01*
X86647299Y-92157486D01*
X86647298Y-92157484D01*
X86587988Y-92054758D01*
X86504113Y-91970883D01*
X86401387Y-91911573D01*
X86401384Y-91911572D01*
X86297373Y-91883702D01*
X86267620Y-91860872D01*
X86262725Y-91823690D01*
X86285555Y-91793937D01*
X86297373Y-91789042D01*
X86353672Y-91773955D01*
X86401386Y-91761171D01*
X86504113Y-91701861D01*
X86587989Y-91617985D01*
X86647299Y-91515258D01*
X86662649Y-91457969D01*
X86678000Y-91400683D01*
X86678000Y-91282060D01*
X86647299Y-91167487D01*
X86647298Y-91167484D01*
X86587988Y-91064758D01*
X86504113Y-90980883D01*
X86401387Y-90921573D01*
X86401384Y-90921572D01*
X86286812Y-90890872D01*
X86286809Y-90890872D01*
X86168191Y-90890872D01*
X86168188Y-90890872D01*
X86053615Y-90921572D01*
X86053612Y-90921573D01*
X85950886Y-90980883D01*
X85950886Y-90980884D01*
X85867012Y-91064758D01*
X85867011Y-91064758D01*
X85807701Y-91167484D01*
X85807700Y-91167487D01*
X85777000Y-91282060D01*
X85777000Y-91400683D01*
X85807700Y-91515256D01*
X85807701Y-91515259D01*
X85867011Y-91617985D01*
X85950887Y-91701861D01*
X86053614Y-91761171D01*
X86097638Y-91772967D01*
X86157627Y-91789042D01*
X86187379Y-91811872D01*
X86192274Y-91849055D01*
X86169444Y-91878807D01*
X86157627Y-91883702D01*
X86053613Y-91911573D01*
X86053612Y-91911573D01*
X85950886Y-91970883D01*
X85950886Y-91970884D01*
X85867012Y-92054758D01*
X85867011Y-92054758D01*
X85807701Y-92157484D01*
X85807700Y-92157487D01*
X85777000Y-92272060D01*
X85777000Y-92390683D01*
X85807700Y-92505256D01*
X85807701Y-92505259D01*
X85867011Y-92607985D01*
X85950887Y-92691861D01*
X85950891Y-92691863D01*
X85950892Y-92691864D01*
X85981809Y-92709714D01*
X86004639Y-92739467D01*
X85999744Y-92776649D01*
X85997795Y-92779752D01*
X85933591Y-92873922D01*
X85831465Y-93085988D01*
X85831460Y-93086001D01*
X85768425Y-93290360D01*
X85762082Y-93310923D01*
X85751533Y-93380912D01*
X85727000Y-93543680D01*
X85727000Y-109382858D01*
X85712648Y-109417506D01*
X85678000Y-109431858D01*
X85643352Y-109417506D01*
X85633428Y-109403214D01*
X85610500Y-109353010D01*
X85585377Y-109297999D01*
X85579675Y-109291419D01*
X85491128Y-109189229D01*
X85370053Y-109111419D01*
X85370050Y-109111418D01*
X85231965Y-109070872D01*
X85231961Y-109070872D01*
X85088039Y-109070872D01*
X85088034Y-109070872D01*
X84949949Y-109111418D01*
X84949947Y-109111418D01*
X84949947Y-109111419D01*
X84947338Y-109113095D01*
X84920850Y-109120872D01*
X84679502Y-109120872D01*
X84644854Y-109106520D01*
X84630502Y-109071872D01*
X84630502Y-108702062D01*
X84599802Y-108587492D01*
X84599801Y-108587488D01*
X84540492Y-108484760D01*
X84016612Y-107960881D01*
X83913886Y-107901571D01*
X83913884Y-107901570D01*
X83889671Y-107895083D01*
X83859549Y-107887012D01*
X83799309Y-107870870D01*
X83799307Y-107870870D01*
X83679500Y-107870870D01*
X83644852Y-107856518D01*
X83630500Y-107821870D01*
X83630500Y-107801625D01*
X83630500Y-107801622D01*
X83618867Y-107743139D01*
X83592301Y-107703382D01*
X83574552Y-107676817D01*
X83534795Y-107650252D01*
X83508231Y-107632503D01*
X83449748Y-107620870D01*
X82410252Y-107620870D01*
X82351769Y-107632503D01*
X82285447Y-107676817D01*
X82241133Y-107743139D01*
X82229500Y-107801622D01*
X82229500Y-108841118D01*
X82241133Y-108899601D01*
X82258882Y-108926165D01*
X82285447Y-108965922D01*
X82288966Y-108968273D01*
X82351769Y-109010237D01*
X82410252Y-109021870D01*
X82430500Y-109021870D01*
X82465148Y-109036222D01*
X82479500Y-109070870D01*
X82479500Y-109224473D01*
X82465148Y-109259121D01*
X82387749Y-109336520D01*
X82353101Y-109350872D01*
X79089150Y-109350872D01*
X79062661Y-109343095D01*
X79060053Y-109341419D01*
X79060050Y-109341418D01*
X78921965Y-109300872D01*
X78921961Y-109300872D01*
X78859309Y-109300872D01*
X76659150Y-109300872D01*
X76632661Y-109293095D01*
X76630053Y-109291419D01*
X76630050Y-109291418D01*
X76491965Y-109250872D01*
X76491961Y-109250872D01*
X76348039Y-109250872D01*
X76348034Y-109250872D01*
X76209949Y-109291418D01*
X76209947Y-109291418D01*
X76209947Y-109291419D01*
X76195238Y-109300872D01*
X76088871Y-109369229D01*
X75994625Y-109477995D01*
X75994624Y-109477997D01*
X75934833Y-109608917D01*
X75914353Y-109751369D01*
X75914353Y-109751374D01*
X75934833Y-109893826D01*
X75975072Y-109981934D01*
X75979500Y-110002290D01*
X75979500Y-110402349D01*
X75975072Y-110422704D01*
X75944834Y-110488914D01*
X75944834Y-110488916D01*
X75924353Y-110631369D01*
X75924353Y-110631374D01*
X75944833Y-110773826D01*
X75971879Y-110833046D01*
X76004623Y-110904745D01*
X76004624Y-110904746D01*
X76004625Y-110904748D01*
X76046881Y-110953514D01*
X76098872Y-111013515D01*
X76219947Y-111091325D01*
X76296785Y-111113886D01*
X76358034Y-111131871D01*
X76358037Y-111131871D01*
X76358039Y-111131872D01*
X76358040Y-111131872D01*
X76501960Y-111131872D01*
X76501961Y-111131872D01*
X76501963Y-111131871D01*
X76501965Y-111131871D01*
X76524795Y-111125167D01*
X76640053Y-111091325D01*
X76761128Y-111013515D01*
X76855377Y-110904745D01*
X76915165Y-110773829D01*
X76915165Y-110773827D01*
X76915166Y-110773826D01*
X76935647Y-110631374D01*
X76935647Y-110631369D01*
X76920285Y-110524529D01*
X76915165Y-110488915D01*
X76887764Y-110428915D01*
X76884928Y-110422704D01*
X76880500Y-110402349D01*
X76880500Y-110250872D01*
X76894852Y-110216224D01*
X76929500Y-110201872D01*
X78533049Y-110201872D01*
X78559540Y-110209651D01*
X78639947Y-110261325D01*
X78722996Y-110285710D01*
X78778034Y-110301871D01*
X78778037Y-110301871D01*
X78778039Y-110301872D01*
X78778040Y-110301872D01*
X78921960Y-110301872D01*
X78921961Y-110301872D01*
X78921963Y-110301871D01*
X78921965Y-110301871D01*
X78952483Y-110292910D01*
X79060053Y-110261325D01*
X79062661Y-110259648D01*
X79089150Y-110251872D01*
X82619311Y-110251872D01*
X82649430Y-110243800D01*
X82709673Y-110227658D01*
X82733887Y-110221171D01*
X82836614Y-110161861D01*
X83290489Y-109707986D01*
X83349799Y-109605259D01*
X83356286Y-109581045D01*
X83380500Y-109490681D01*
X83380500Y-109070870D01*
X83394852Y-109036222D01*
X83429500Y-109021870D01*
X83449745Y-109021870D01*
X83449748Y-109021870D01*
X83508231Y-109010237D01*
X83574552Y-108965922D01*
X83610634Y-108911922D01*
X83641815Y-108891088D01*
X83678598Y-108898404D01*
X83686023Y-108904498D01*
X83715150Y-108933625D01*
X83729502Y-108968273D01*
X83729502Y-109342349D01*
X83725074Y-109362704D01*
X83694836Y-109428914D01*
X83694836Y-109428916D01*
X83674355Y-109571369D01*
X83674355Y-109571373D01*
X83694837Y-109713829D01*
X83694837Y-109713830D01*
X83725074Y-109780037D01*
X83729502Y-109800393D01*
X83729502Y-110380684D01*
X83738873Y-110415654D01*
X83738873Y-110415655D01*
X83760202Y-110495260D01*
X83760203Y-110495262D01*
X83804146Y-110571372D01*
X83819513Y-110597988D01*
X84153387Y-110931862D01*
X84220955Y-110970872D01*
X84256111Y-110991170D01*
X84256113Y-110991170D01*
X84256114Y-110991171D01*
X84284758Y-110998846D01*
X84370688Y-111021872D01*
X84370691Y-111021872D01*
X84980850Y-111021872D01*
X85007338Y-111029648D01*
X85009947Y-111031325D01*
X85086785Y-111053886D01*
X85148034Y-111071871D01*
X85148037Y-111071871D01*
X85148039Y-111071872D01*
X85148040Y-111071872D01*
X85291960Y-111071872D01*
X85291961Y-111071872D01*
X85291963Y-111071871D01*
X85291965Y-111071871D01*
X85314795Y-111065167D01*
X85430053Y-111031325D01*
X85551128Y-110953515D01*
X85640968Y-110849832D01*
X85674504Y-110833046D01*
X85710088Y-110844889D01*
X85726875Y-110878425D01*
X85727000Y-110881921D01*
X85727000Y-117773777D01*
X85727000Y-117821372D01*
X85727000Y-117939065D01*
X85762082Y-118171821D01*
X85762083Y-118171823D01*
X85831460Y-118396742D01*
X85831465Y-118396755D01*
X85933592Y-118608823D01*
X85933593Y-118608826D01*
X85997794Y-118702992D01*
X86005454Y-118739704D01*
X85984910Y-118771080D01*
X85981809Y-118773028D01*
X85950895Y-118790877D01*
X85950883Y-118790886D01*
X85867012Y-118874758D01*
X85867011Y-118874758D01*
X85807701Y-118977484D01*
X85807700Y-118977487D01*
X85777000Y-119092060D01*
X85777000Y-119210683D01*
X85807700Y-119325256D01*
X85807701Y-119325259D01*
X85867011Y-119427985D01*
X85950887Y-119511861D01*
X86053614Y-119571171D01*
X86082258Y-119578846D01*
X86168188Y-119601872D01*
X86168191Y-119601872D01*
X86286811Y-119601872D01*
X86344097Y-119586521D01*
X86401386Y-119571171D01*
X86504113Y-119511861D01*
X86587989Y-119427985D01*
X86647299Y-119325258D01*
X86650551Y-119313119D01*
X86673380Y-119283368D01*
X86710562Y-119278471D01*
X86715782Y-119280189D01*
X86729692Y-119285648D01*
X86788902Y-119308886D01*
X86815911Y-119334903D01*
X86820000Y-119354498D01*
X86820000Y-120948244D01*
X86805648Y-120982892D01*
X86788901Y-120993857D01*
X86715782Y-121022553D01*
X86678286Y-121021851D01*
X86652268Y-120994841D01*
X86650551Y-120989622D01*
X86647299Y-120977486D01*
X86647298Y-120977484D01*
X86587988Y-120874758D01*
X86504113Y-120790883D01*
X86401387Y-120731573D01*
X86401384Y-120731572D01*
X86297373Y-120703702D01*
X86267620Y-120680872D01*
X86262725Y-120643690D01*
X86285555Y-120613937D01*
X86297373Y-120609042D01*
X86353672Y-120593955D01*
X86401386Y-120581171D01*
X86504113Y-120521861D01*
X86587989Y-120437985D01*
X86647299Y-120335258D01*
X86662649Y-120277969D01*
X86678000Y-120220683D01*
X86678000Y-120102060D01*
X86647299Y-119987487D01*
X86647298Y-119987484D01*
X86587988Y-119884758D01*
X86504113Y-119800883D01*
X86401387Y-119741573D01*
X86401384Y-119741572D01*
X86286812Y-119710872D01*
X86286809Y-119710872D01*
X86168191Y-119710872D01*
X86168188Y-119710872D01*
X86053615Y-119741572D01*
X86053612Y-119741573D01*
X85950886Y-119800883D01*
X85950886Y-119800884D01*
X85867012Y-119884758D01*
X85867011Y-119884758D01*
X85807701Y-119987484D01*
X85807700Y-119987487D01*
X85777000Y-120102060D01*
X85777000Y-120220683D01*
X85807700Y-120335256D01*
X85807701Y-120335259D01*
X85867011Y-120437985D01*
X85950887Y-120521861D01*
X86053614Y-120581171D01*
X86097638Y-120592967D01*
X86157627Y-120609042D01*
X86187379Y-120631872D01*
X86192274Y-120669055D01*
X86169444Y-120698807D01*
X86157627Y-120703702D01*
X86053613Y-120731573D01*
X86053612Y-120731573D01*
X85950886Y-120790883D01*
X85950886Y-120790884D01*
X85867012Y-120874758D01*
X85867011Y-120874758D01*
X85807701Y-120977484D01*
X85807700Y-120977487D01*
X85777000Y-121092060D01*
X85777000Y-121210683D01*
X85807700Y-121325256D01*
X85807701Y-121325259D01*
X85862903Y-121420870D01*
X85867011Y-121427985D01*
X85950887Y-121511861D01*
X85950891Y-121511863D01*
X85950892Y-121511864D01*
X85981809Y-121529714D01*
X86004639Y-121559467D01*
X85999744Y-121596649D01*
X85997795Y-121599752D01*
X85933591Y-121693922D01*
X85831465Y-121905988D01*
X85831460Y-121906001D01*
X85768425Y-122110360D01*
X85762082Y-122130923D01*
X85728395Y-122354422D01*
X85727000Y-122363680D01*
X85727000Y-122438684D01*
X85726994Y-122438778D01*
X85726994Y-122441854D01*
X85726994Y-122441856D01*
X85727000Y-122481371D01*
X85727000Y-122481372D01*
X85727000Y-122532692D01*
X85727007Y-122532789D01*
X85729489Y-138906301D01*
X85726204Y-138923947D01*
X74865006Y-167073383D01*
X74864540Y-167074395D01*
X74849556Y-167113430D01*
X74849526Y-167113507D01*
X74834478Y-167152508D01*
X74834146Y-167153572D01*
X74134397Y-168976480D01*
X74129156Y-168986496D01*
X74125213Y-168992286D01*
X74125211Y-168992290D01*
X74115949Y-169024068D01*
X74114653Y-169027915D01*
X74105668Y-169051320D01*
X74105612Y-169051863D01*
X74103112Y-169062979D01*
X74001697Y-169351693D01*
X73999670Y-169356597D01*
X73857346Y-169654163D01*
X73854801Y-169658818D01*
X73681143Y-169939247D01*
X73678110Y-169943600D01*
X73475140Y-170203621D01*
X73471653Y-170207620D01*
X73241773Y-170444158D01*
X73237875Y-170447757D01*
X72983762Y-170658058D01*
X72979497Y-170661215D01*
X72704138Y-170842808D01*
X72699558Y-170845484D01*
X72406164Y-170996250D01*
X72401330Y-170998412D01*
X72159547Y-171091176D01*
X72093372Y-171116565D01*
X72088323Y-171118194D01*
X71769387Y-171202361D01*
X71764191Y-171203435D01*
X71438032Y-171252623D01*
X71432751Y-171253129D01*
X71103183Y-171266766D01*
X71097877Y-171266698D01*
X70768768Y-171244621D01*
X70763502Y-171243980D01*
X70438707Y-171186450D01*
X70433540Y-171185243D01*
X70116875Y-171092934D01*
X70111869Y-171091176D01*
X69807026Y-170965166D01*
X69802240Y-170962876D01*
X69512828Y-170804655D01*
X69508317Y-170801862D01*
X69237693Y-170613266D01*
X69233511Y-170610001D01*
X68984878Y-170393263D01*
X68981073Y-170389566D01*
X68885820Y-170286392D01*
X68757307Y-170147192D01*
X68753945Y-170143129D01*
X68557694Y-169877978D01*
X68554782Y-169873561D01*
X68473004Y-169733616D01*
X68388359Y-169588763D01*
X68385942Y-169584060D01*
X68251283Y-169282928D01*
X68249392Y-169277999D01*
X68148079Y-168964069D01*
X68146730Y-168958957D01*
X68079953Y-168635916D01*
X68079165Y-168630688D01*
X68047707Y-168302330D01*
X68047489Y-168297030D01*
X68048562Y-168213333D01*
X68051718Y-167967195D01*
X68052070Y-167961935D01*
X68091940Y-167634466D01*
X68092861Y-167629267D01*
X68165972Y-167316287D01*
X68167964Y-167309820D01*
X68241582Y-167119020D01*
X70204500Y-167119020D01*
X70204500Y-167323724D01*
X70211923Y-167370592D01*
X70236522Y-167525903D01*
X70236523Y-167525906D01*
X70299779Y-167720589D01*
X70392714Y-167902984D01*
X70392716Y-167902987D01*
X70513035Y-168068592D01*
X70513039Y-168068597D01*
X70657775Y-168213333D01*
X70657779Y-168213336D01*
X70657781Y-168213338D01*
X70823390Y-168333659D01*
X71005781Y-168426592D01*
X71200466Y-168489849D01*
X71402648Y-168521872D01*
X71402649Y-168521872D01*
X71607351Y-168521872D01*
X71607352Y-168521872D01*
X71809534Y-168489849D01*
X72004219Y-168426592D01*
X72186610Y-168333659D01*
X72352219Y-168213338D01*
X72352222Y-168213334D01*
X72352225Y-168213333D01*
X72496961Y-168068597D01*
X72496962Y-168068594D01*
X72496966Y-168068591D01*
X72617287Y-167902982D01*
X72710220Y-167720591D01*
X72773477Y-167525906D01*
X72805500Y-167323724D01*
X72805500Y-167119020D01*
X72773477Y-166916838D01*
X72710220Y-166722153D01*
X72617287Y-166539762D01*
X72496966Y-166374153D01*
X72496964Y-166374151D01*
X72496961Y-166374147D01*
X72352225Y-166229411D01*
X72352220Y-166229407D01*
X72186615Y-166109088D01*
X72186612Y-166109086D01*
X72004217Y-166016151D01*
X71809534Y-165952895D01*
X71809531Y-165952894D01*
X71654220Y-165928295D01*
X71607352Y-165920872D01*
X71402648Y-165920872D01*
X71364599Y-165926898D01*
X71200468Y-165952894D01*
X71200465Y-165952895D01*
X71005782Y-166016151D01*
X70823387Y-166109086D01*
X70823384Y-166109088D01*
X70657779Y-166229407D01*
X70513035Y-166374151D01*
X70392716Y-166539756D01*
X70392714Y-166539759D01*
X70299779Y-166722154D01*
X70236523Y-166916837D01*
X70236522Y-166916840D01*
X70211728Y-167073383D01*
X70204500Y-167119020D01*
X68241582Y-167119020D01*
X71142100Y-159601622D01*
X73429500Y-159601622D01*
X73429500Y-160641118D01*
X73441133Y-160699601D01*
X73458882Y-160726165D01*
X73485447Y-160765922D01*
X73512012Y-160783671D01*
X73551769Y-160810237D01*
X73610252Y-160821870D01*
X73610255Y-160821870D01*
X74649745Y-160821870D01*
X74649748Y-160821870D01*
X74708231Y-160810237D01*
X74774552Y-160765922D01*
X74818867Y-160699601D01*
X74830500Y-160641118D01*
X74830500Y-159601622D01*
X74818867Y-159543139D01*
X74792301Y-159503382D01*
X74774552Y-159476817D01*
X74734795Y-159450252D01*
X74708231Y-159432503D01*
X74649748Y-159420870D01*
X74649745Y-159420870D01*
X74479500Y-159420870D01*
X74444852Y-159406518D01*
X74430500Y-159371870D01*
X74430500Y-159066139D01*
X74444852Y-159031491D01*
X74540459Y-158935884D01*
X74540460Y-158935883D01*
X74580021Y-158867361D01*
X74600500Y-158790934D01*
X74600500Y-158327560D01*
X74614852Y-158292912D01*
X74628050Y-158279714D01*
X74628054Y-158279707D01*
X74685644Y-158166681D01*
X74685644Y-158166679D01*
X74685646Y-158166676D01*
X74705492Y-158041372D01*
X74685646Y-157916068D01*
X74685644Y-157916064D01*
X74685644Y-157916062D01*
X74628054Y-157803036D01*
X74628049Y-157803029D01*
X74538342Y-157713322D01*
X74538335Y-157713317D01*
X74425308Y-157655727D01*
X74425305Y-157655726D01*
X74425304Y-157655726D01*
X74300000Y-157635880D01*
X74174696Y-157655726D01*
X74174694Y-157655726D01*
X74174692Y-157655727D01*
X74174690Y-157655727D01*
X74061664Y-157713317D01*
X74061657Y-157713322D01*
X73971950Y-157803029D01*
X73971945Y-157803036D01*
X73914355Y-157916062D01*
X73914355Y-157916064D01*
X73914354Y-157916066D01*
X73914354Y-157916068D01*
X73894508Y-158041372D01*
X73914354Y-158166676D01*
X73914354Y-158166677D01*
X73914355Y-158166679D01*
X73914355Y-158166681D01*
X73971945Y-158279707D01*
X73971950Y-158279714D01*
X73985148Y-158292912D01*
X73999500Y-158327560D01*
X73999500Y-158606605D01*
X73985148Y-158641253D01*
X73889541Y-158736860D01*
X73889540Y-158736860D01*
X73849979Y-158805380D01*
X73849979Y-158805382D01*
X73829500Y-158881808D01*
X73829500Y-159371870D01*
X73815148Y-159406518D01*
X73780500Y-159420870D01*
X73610252Y-159420870D01*
X73551769Y-159432503D01*
X73485447Y-159476817D01*
X73441133Y-159543139D01*
X73429500Y-159601622D01*
X71142100Y-159601622D01*
X72801215Y-155301622D01*
X75229500Y-155301622D01*
X75229500Y-156341118D01*
X75241133Y-156399601D01*
X75258882Y-156426165D01*
X75285447Y-156465922D01*
X75312012Y-156483671D01*
X75351769Y-156510237D01*
X75410252Y-156521870D01*
X75410255Y-156521870D01*
X76449745Y-156521870D01*
X76449748Y-156521870D01*
X76508231Y-156510237D01*
X76574552Y-156465922D01*
X76618867Y-156399601D01*
X76630500Y-156341118D01*
X76630500Y-156320870D01*
X76644852Y-156286222D01*
X76679500Y-156271870D01*
X76939313Y-156271870D01*
X76969432Y-156263798D01*
X77029675Y-156247656D01*
X77053889Y-156241169D01*
X77156616Y-156181859D01*
X77677990Y-155660486D01*
X77737299Y-155557758D01*
X77740783Y-155544756D01*
X77768000Y-155443181D01*
X77768000Y-153920003D01*
X77782352Y-153885355D01*
X77787896Y-153880582D01*
X77880711Y-153812083D01*
X77880711Y-153812081D01*
X77880713Y-153812081D01*
X77919913Y-153758965D01*
X77959116Y-153705847D01*
X78002725Y-153581221D01*
X78005500Y-153551628D01*
X78005500Y-152971125D01*
X78454500Y-152971125D01*
X78454500Y-153551618D01*
X78454501Y-153551639D01*
X78457274Y-153581214D01*
X78457275Y-153581223D01*
X78487794Y-153668441D01*
X78500884Y-153705847D01*
X78500885Y-153705849D01*
X78500884Y-153705849D01*
X78579288Y-153812083D01*
X78672096Y-153880577D01*
X78685525Y-153890488D01*
X78810151Y-153934097D01*
X78839744Y-153936872D01*
X78839754Y-153936872D01*
X79445246Y-153936872D01*
X79445256Y-153936872D01*
X79474849Y-153934097D01*
X79599475Y-153890488D01*
X79705711Y-153812083D01*
X79784116Y-153705847D01*
X79827725Y-153581221D01*
X79830500Y-153551628D01*
X79830500Y-152971116D01*
X79827725Y-152941523D01*
X79784116Y-152816897D01*
X79784114Y-152816894D01*
X79784115Y-152816894D01*
X79705711Y-152710660D01*
X79612903Y-152642165D01*
X79593547Y-152610043D01*
X79593000Y-152602740D01*
X79593000Y-152305771D01*
X79607352Y-152271123D01*
X79790489Y-152087986D01*
X79849798Y-151985259D01*
X79849799Y-151985258D01*
X79880499Y-151870684D01*
X79880500Y-151870684D01*
X79880500Y-151370870D01*
X79894852Y-151336222D01*
X79929500Y-151321870D01*
X79949745Y-151321870D01*
X79949748Y-151321870D01*
X80008231Y-151310237D01*
X80074552Y-151265922D01*
X80118867Y-151199601D01*
X80130500Y-151141118D01*
X80130500Y-150101622D01*
X80118867Y-150043139D01*
X80092301Y-150003382D01*
X80074552Y-149976817D01*
X80034795Y-149950252D01*
X80008231Y-149932503D01*
X79949748Y-149920870D01*
X78910252Y-149920870D01*
X78851769Y-149932503D01*
X78785447Y-149976817D01*
X78741133Y-150043139D01*
X78729500Y-150101622D01*
X78729500Y-151141118D01*
X78741133Y-151199601D01*
X78758882Y-151226165D01*
X78785447Y-151265922D01*
X78812012Y-151283671D01*
X78851769Y-151310237D01*
X78910252Y-151321870D01*
X78930500Y-151321870D01*
X78965148Y-151336222D01*
X78979500Y-151370870D01*
X78979500Y-151604473D01*
X78965148Y-151639121D01*
X78782012Y-151822257D01*
X78782011Y-151822257D01*
X78722701Y-151924983D01*
X78721032Y-151931215D01*
X78721031Y-151931214D01*
X78721031Y-151931218D01*
X78692000Y-152039560D01*
X78692000Y-152602740D01*
X78677648Y-152637388D01*
X78672097Y-152642165D01*
X78579288Y-152710660D01*
X78500885Y-152816894D01*
X78457275Y-152941520D01*
X78457274Y-152941529D01*
X78454501Y-152971104D01*
X78454500Y-152971125D01*
X78005500Y-152971125D01*
X78005500Y-152971116D01*
X78002725Y-152941523D01*
X77959116Y-152816897D01*
X77959114Y-152816894D01*
X77959115Y-152816894D01*
X77880711Y-152710660D01*
X77774477Y-152632257D01*
X77774475Y-152632256D01*
X77710995Y-152610043D01*
X77649851Y-152588647D01*
X77649842Y-152588646D01*
X77620267Y-152585873D01*
X77620266Y-152585872D01*
X77620256Y-152585872D01*
X77014744Y-152585872D01*
X77014734Y-152585872D01*
X77014732Y-152585873D01*
X76985157Y-152588646D01*
X76985148Y-152588647D01*
X76860522Y-152632257D01*
X76754288Y-152710660D01*
X76675885Y-152816894D01*
X76632275Y-152941520D01*
X76632274Y-152941529D01*
X76629501Y-152971104D01*
X76629500Y-152971125D01*
X76629500Y-153551618D01*
X76629501Y-153551639D01*
X76632274Y-153581214D01*
X76632275Y-153581223D01*
X76662794Y-153668441D01*
X76675884Y-153705847D01*
X76675885Y-153705849D01*
X76675884Y-153705849D01*
X76754286Y-153812081D01*
X76754289Y-153812083D01*
X76847097Y-153880578D01*
X76866453Y-153912699D01*
X76867000Y-153920003D01*
X76867000Y-155176972D01*
X76852648Y-155211620D01*
X76714148Y-155350120D01*
X76679500Y-155364472D01*
X76644852Y-155350120D01*
X76630500Y-155315472D01*
X76630500Y-155301625D01*
X76630500Y-155301622D01*
X76618867Y-155243139D01*
X76592301Y-155203382D01*
X76574552Y-155176817D01*
X76534795Y-155150252D01*
X76508231Y-155132503D01*
X76449748Y-155120870D01*
X75410252Y-155120870D01*
X75351769Y-155132503D01*
X75285447Y-155176817D01*
X75241133Y-155243139D01*
X75229500Y-155301622D01*
X72801215Y-155301622D01*
X74807587Y-150101622D01*
X76929500Y-150101622D01*
X76929500Y-151141118D01*
X76941133Y-151199601D01*
X76958882Y-151226165D01*
X76985447Y-151265922D01*
X77012012Y-151283671D01*
X77051769Y-151310237D01*
X77110252Y-151321870D01*
X77110255Y-151321870D01*
X78149745Y-151321870D01*
X78149748Y-151321870D01*
X78208231Y-151310237D01*
X78274552Y-151265922D01*
X78318867Y-151199601D01*
X78330500Y-151141118D01*
X78330500Y-150101622D01*
X78318867Y-150043139D01*
X78292301Y-150003382D01*
X78274552Y-149976817D01*
X78234795Y-149950252D01*
X78208231Y-149932503D01*
X78149748Y-149920870D01*
X78149745Y-149920870D01*
X77979500Y-149920870D01*
X77944852Y-149906518D01*
X77930500Y-149871870D01*
X77930500Y-149776139D01*
X77944852Y-149741491D01*
X78130119Y-149556224D01*
X78164767Y-149541872D01*
X78313812Y-149541872D01*
X78348460Y-149556224D01*
X78361657Y-149569421D01*
X78361664Y-149569426D01*
X78474691Y-149627016D01*
X78474692Y-149627016D01*
X78474696Y-149627018D01*
X78600000Y-149646864D01*
X78725304Y-149627018D01*
X78725308Y-149627016D01*
X78725309Y-149627016D01*
X78838335Y-149569426D01*
X78838337Y-149569424D01*
X78838342Y-149569422D01*
X78928050Y-149479714D01*
X78944790Y-149446860D01*
X78985644Y-149366681D01*
X78985644Y-149366679D01*
X78985646Y-149366676D01*
X79005492Y-149241372D01*
X78985646Y-149116068D01*
X78985644Y-149116064D01*
X78985644Y-149116062D01*
X78928054Y-149003036D01*
X78928049Y-149003029D01*
X78838342Y-148913322D01*
X78838335Y-148913317D01*
X78725308Y-148855727D01*
X78725305Y-148855726D01*
X78725304Y-148855726D01*
X78600000Y-148835880D01*
X78474696Y-148855726D01*
X78474694Y-148855726D01*
X78474692Y-148855727D01*
X78474690Y-148855727D01*
X78361664Y-148913317D01*
X78361657Y-148913322D01*
X78348460Y-148926520D01*
X78313812Y-148940872D01*
X77980436Y-148940872D01*
X77904010Y-148961351D01*
X77904008Y-148961351D01*
X77835488Y-149000912D01*
X77835488Y-149000913D01*
X77389541Y-149446860D01*
X77389540Y-149446860D01*
X77349979Y-149515380D01*
X77349979Y-149515382D01*
X77329500Y-149591808D01*
X77329500Y-149871870D01*
X77315148Y-149906518D01*
X77280500Y-149920870D01*
X77110252Y-149920870D01*
X77051769Y-149932503D01*
X76985447Y-149976817D01*
X76941133Y-150043139D01*
X76929500Y-150101622D01*
X74807587Y-150101622D01*
X76466702Y-145801622D01*
X78729500Y-145801622D01*
X78729500Y-146841118D01*
X78741133Y-146899601D01*
X78758882Y-146926165D01*
X78785447Y-146965922D01*
X78812012Y-146983671D01*
X78851769Y-147010237D01*
X78910252Y-147021870D01*
X78910255Y-147021870D01*
X79949745Y-147021870D01*
X79949748Y-147021870D01*
X80008231Y-147010237D01*
X80074552Y-146965922D01*
X80118867Y-146899601D01*
X80130500Y-146841118D01*
X80130500Y-146820870D01*
X80144852Y-146786222D01*
X80179500Y-146771870D01*
X80693099Y-146771870D01*
X80727747Y-146786222D01*
X81236551Y-147295026D01*
X81246475Y-147309318D01*
X81294623Y-147414745D01*
X81294624Y-147414746D01*
X81294625Y-147414748D01*
X81388871Y-147523514D01*
X81388872Y-147523515D01*
X81509947Y-147601325D01*
X81586785Y-147623886D01*
X81648034Y-147641871D01*
X81648037Y-147641871D01*
X81648039Y-147641872D01*
X81648040Y-147641872D01*
X81791960Y-147641872D01*
X81791961Y-147641872D01*
X81791963Y-147641871D01*
X81791965Y-147641871D01*
X81814795Y-147635167D01*
X81930053Y-147601325D01*
X82051128Y-147523515D01*
X82145377Y-147414745D01*
X82205165Y-147283829D01*
X82205165Y-147283827D01*
X82205166Y-147283826D01*
X82225647Y-147141374D01*
X82225647Y-147141369D01*
X82205166Y-146998917D01*
X82159809Y-146899601D01*
X82145377Y-146867999D01*
X82122081Y-146841114D01*
X82051128Y-146759229D01*
X81930053Y-146681419D01*
X81930050Y-146681418D01*
X81895472Y-146671265D01*
X81874629Y-146658898D01*
X81176612Y-145960881D01*
X81073886Y-145901571D01*
X81073884Y-145901570D01*
X81049671Y-145895083D01*
X81019549Y-145887012D01*
X80959309Y-145870870D01*
X80959307Y-145870870D01*
X80179500Y-145870870D01*
X80144852Y-145856518D01*
X80130500Y-145821870D01*
X80130500Y-145801625D01*
X80130500Y-145801622D01*
X80118867Y-145743139D01*
X80092301Y-145703382D01*
X80074552Y-145676817D01*
X80034795Y-145650252D01*
X80008231Y-145632503D01*
X79949748Y-145620870D01*
X78910252Y-145620870D01*
X78851769Y-145632503D01*
X78785447Y-145676817D01*
X78741133Y-145743139D01*
X78729500Y-145801622D01*
X76466702Y-145801622D01*
X78473075Y-140601622D01*
X80429500Y-140601622D01*
X80429500Y-141641118D01*
X80441133Y-141699601D01*
X80458882Y-141726165D01*
X80485447Y-141765922D01*
X80512012Y-141783671D01*
X80551769Y-141810237D01*
X80610252Y-141821870D01*
X80610255Y-141821870D01*
X81649745Y-141821870D01*
X81649748Y-141821870D01*
X81708231Y-141810237D01*
X81774552Y-141765922D01*
X81818867Y-141699601D01*
X81830500Y-141641118D01*
X81830500Y-140601622D01*
X81818867Y-140543139D01*
X81792301Y-140503382D01*
X81774552Y-140476817D01*
X81734795Y-140450252D01*
X81708231Y-140432503D01*
X81649748Y-140420870D01*
X81649745Y-140420870D01*
X81479500Y-140420870D01*
X81444852Y-140406518D01*
X81430500Y-140371870D01*
X81430500Y-138916138D01*
X81444851Y-138881491D01*
X82061887Y-138264454D01*
X82088866Y-138250707D01*
X82175304Y-138237018D01*
X82288335Y-138179426D01*
X82288337Y-138179424D01*
X82288342Y-138179422D01*
X82378050Y-138089714D01*
X82378054Y-138089707D01*
X82435644Y-137976681D01*
X82435644Y-137976679D01*
X82435646Y-137976676D01*
X82455492Y-137851372D01*
X82435646Y-137726068D01*
X82435644Y-137726064D01*
X82435644Y-137726062D01*
X82378054Y-137613036D01*
X82378049Y-137613029D01*
X82370247Y-137605227D01*
X82355895Y-137570579D01*
X82370247Y-137535931D01*
X82404895Y-137521579D01*
X82409705Y-137521816D01*
X82410252Y-137521870D01*
X83449745Y-137521870D01*
X83449748Y-137521870D01*
X83508231Y-137510237D01*
X83574552Y-137465922D01*
X83618867Y-137399601D01*
X83630500Y-137341118D01*
X83630500Y-136778269D01*
X83644852Y-136743621D01*
X84380490Y-136007984D01*
X84439799Y-135905257D01*
X84446286Y-135881043D01*
X84470500Y-135790679D01*
X84470500Y-134913387D01*
X84484852Y-134878739D01*
X84503317Y-134867137D01*
X84579469Y-134840490D01*
X84579467Y-134840490D01*
X84579475Y-134840488D01*
X84685711Y-134762083D01*
X84764116Y-134655847D01*
X84807725Y-134531221D01*
X84810500Y-134501628D01*
X84810500Y-133921116D01*
X84807725Y-133891523D01*
X84764116Y-133766897D01*
X84764114Y-133766894D01*
X84764115Y-133766894D01*
X84685711Y-133660660D01*
X84579477Y-133582257D01*
X84579475Y-133582256D01*
X84542069Y-133569166D01*
X84454851Y-133538647D01*
X84454842Y-133538646D01*
X84425267Y-133535873D01*
X84425266Y-133535872D01*
X84425256Y-133535872D01*
X83819744Y-133535872D01*
X83819734Y-133535872D01*
X83819732Y-133535873D01*
X83790157Y-133538646D01*
X83790148Y-133538647D01*
X83665522Y-133582257D01*
X83559288Y-133660660D01*
X83480885Y-133766894D01*
X83437275Y-133891520D01*
X83437274Y-133891529D01*
X83434501Y-133921104D01*
X83434500Y-133921125D01*
X83434500Y-134501618D01*
X83434501Y-134501639D01*
X83437274Y-134531214D01*
X83437275Y-134531223D01*
X83467794Y-134618441D01*
X83480884Y-134655847D01*
X83480885Y-134655849D01*
X83480884Y-134655849D01*
X83538212Y-134733524D01*
X83559289Y-134762083D01*
X83559290Y-134762083D01*
X83559925Y-134762944D01*
X83569500Y-134792041D01*
X83569500Y-135524470D01*
X83555148Y-135559118D01*
X83007749Y-136106518D01*
X82973101Y-136120870D01*
X82410252Y-136120870D01*
X82351769Y-136132503D01*
X82285447Y-136176817D01*
X82241133Y-136243139D01*
X82229500Y-136301622D01*
X82229500Y-137341118D01*
X82241133Y-137399600D01*
X82241134Y-137399605D01*
X82242631Y-137403219D01*
X82242631Y-137440722D01*
X82216112Y-137467240D01*
X82178609Y-137467240D01*
X82175373Y-137465748D01*
X82175307Y-137465727D01*
X82175305Y-137465726D01*
X82175304Y-137465726D01*
X82050000Y-137445880D01*
X81924696Y-137465726D01*
X81924694Y-137465726D01*
X81924692Y-137465727D01*
X81924690Y-137465727D01*
X81811664Y-137523317D01*
X81811657Y-137523322D01*
X81721950Y-137613029D01*
X81721945Y-137613036D01*
X81664355Y-137726062D01*
X81664355Y-137726064D01*
X81650663Y-137812503D01*
X81636914Y-137839485D01*
X80945489Y-138530912D01*
X80889541Y-138586860D01*
X80889540Y-138586860D01*
X80849979Y-138655380D01*
X80849979Y-138655382D01*
X80829500Y-138731808D01*
X80829500Y-140371870D01*
X80815148Y-140406518D01*
X80780500Y-140420870D01*
X80610252Y-140420870D01*
X80551769Y-140432503D01*
X80485447Y-140476817D01*
X80441133Y-140543139D01*
X80429500Y-140601622D01*
X78473075Y-140601622D01*
X79050568Y-139104908D01*
X79053836Y-139098071D01*
X79060021Y-139087361D01*
X79065444Y-139067119D01*
X79067052Y-139062188D01*
X79074597Y-139042634D01*
X79075910Y-139030344D01*
X79077303Y-139022864D01*
X79080500Y-139010934D01*
X79080500Y-138989990D01*
X79080777Y-138984785D01*
X79083002Y-138963959D01*
X79081090Y-138951749D01*
X79080500Y-138944168D01*
X79080500Y-133921125D01*
X81609500Y-133921125D01*
X81609500Y-134501618D01*
X81609501Y-134501639D01*
X81612274Y-134531214D01*
X81612275Y-134531223D01*
X81642794Y-134618441D01*
X81655884Y-134655847D01*
X81655885Y-134655849D01*
X81655884Y-134655849D01*
X81734288Y-134762083D01*
X81840522Y-134840486D01*
X81840525Y-134840488D01*
X81965151Y-134884097D01*
X81994744Y-134886872D01*
X81994754Y-134886872D01*
X82600246Y-134886872D01*
X82600256Y-134886872D01*
X82629849Y-134884097D01*
X82754475Y-134840488D01*
X82860711Y-134762083D01*
X82939116Y-134655847D01*
X82982725Y-134531221D01*
X82985500Y-134501628D01*
X82985500Y-134068271D01*
X82999852Y-134033623D01*
X83290488Y-133742987D01*
X83290489Y-133742986D01*
X83349799Y-133640259D01*
X83356286Y-133616045D01*
X83380500Y-133525681D01*
X83380500Y-132370870D01*
X83394852Y-132336222D01*
X83429500Y-132321870D01*
X83449745Y-132321870D01*
X83449748Y-132321870D01*
X83508231Y-132310237D01*
X83574552Y-132265922D01*
X83618867Y-132199601D01*
X83630500Y-132141118D01*
X83630500Y-131101622D01*
X83618867Y-131043139D01*
X83592301Y-131003382D01*
X83574552Y-130976817D01*
X83534795Y-130950252D01*
X83508231Y-130932503D01*
X83449748Y-130920870D01*
X82410252Y-130920870D01*
X82351769Y-130932503D01*
X82285447Y-130976817D01*
X82241133Y-131043139D01*
X82229500Y-131101622D01*
X82229500Y-132141118D01*
X82241133Y-132199601D01*
X82258882Y-132226165D01*
X82285447Y-132265922D01*
X82312012Y-132283671D01*
X82351769Y-132310237D01*
X82410252Y-132321870D01*
X82430500Y-132321870D01*
X82465148Y-132336222D01*
X82479500Y-132370870D01*
X82479500Y-133259473D01*
X82465148Y-133294121D01*
X82237749Y-133521520D01*
X82203101Y-133535872D01*
X81994744Y-133535872D01*
X81994734Y-133535872D01*
X81994732Y-133535873D01*
X81965157Y-133538646D01*
X81965148Y-133538647D01*
X81840522Y-133582257D01*
X81734288Y-133660660D01*
X81655885Y-133766894D01*
X81612275Y-133891520D01*
X81612274Y-133891529D01*
X81609501Y-133921104D01*
X81609500Y-133921125D01*
X79080500Y-133921125D01*
X79080500Y-131101622D01*
X80429500Y-131101622D01*
X80429500Y-132141118D01*
X80441133Y-132199601D01*
X80458882Y-132226165D01*
X80485447Y-132265922D01*
X80512012Y-132283671D01*
X80551769Y-132310237D01*
X80610252Y-132321870D01*
X80610255Y-132321870D01*
X81649745Y-132321870D01*
X81649748Y-132321870D01*
X81708231Y-132310237D01*
X81774552Y-132265922D01*
X81818867Y-132199601D01*
X81830500Y-132141118D01*
X81830500Y-131101622D01*
X81818867Y-131043139D01*
X81792301Y-131003382D01*
X81774552Y-130976817D01*
X81734795Y-130950252D01*
X81708231Y-130932503D01*
X81649748Y-130920870D01*
X81649745Y-130920870D01*
X81379500Y-130920870D01*
X81344852Y-130906518D01*
X81330500Y-130871870D01*
X81330500Y-130607560D01*
X81344852Y-130572912D01*
X81358050Y-130559714D01*
X81358054Y-130559707D01*
X81415644Y-130446681D01*
X81415644Y-130446679D01*
X81415646Y-130446676D01*
X81435492Y-130321372D01*
X81415646Y-130196068D01*
X81415644Y-130196064D01*
X81415644Y-130196062D01*
X81358054Y-130083036D01*
X81358049Y-130083029D01*
X81268342Y-129993322D01*
X81268335Y-129993317D01*
X81155308Y-129935727D01*
X81155305Y-129935726D01*
X81155304Y-129935726D01*
X81030000Y-129915880D01*
X80904696Y-129935726D01*
X80904694Y-129935726D01*
X80904692Y-129935727D01*
X80904690Y-129935727D01*
X80791664Y-129993317D01*
X80791657Y-129993322D01*
X80701950Y-130083029D01*
X80701945Y-130083036D01*
X80644355Y-130196062D01*
X80644355Y-130196064D01*
X80644354Y-130196066D01*
X80644354Y-130196068D01*
X80624508Y-130321372D01*
X80644354Y-130446676D01*
X80644354Y-130446677D01*
X80644355Y-130446679D01*
X80644355Y-130446681D01*
X80701945Y-130559707D01*
X80701950Y-130559714D01*
X80715148Y-130572912D01*
X80729500Y-130607560D01*
X80729500Y-130871870D01*
X80715148Y-130906518D01*
X80680500Y-130920870D01*
X80610252Y-130920870D01*
X80551769Y-130932503D01*
X80485447Y-130976817D01*
X80441133Y-131043139D01*
X80429500Y-131101622D01*
X79080500Y-131101622D01*
X79080500Y-126801622D01*
X82229500Y-126801622D01*
X82229500Y-127841118D01*
X82241133Y-127899601D01*
X82258882Y-127926165D01*
X82285447Y-127965922D01*
X82312012Y-127983671D01*
X82351769Y-128010237D01*
X82410252Y-128021870D01*
X82410255Y-128021870D01*
X83449745Y-128021870D01*
X83449748Y-128021870D01*
X83508231Y-128010237D01*
X83574552Y-127965922D01*
X83618867Y-127899601D01*
X83630500Y-127841118D01*
X83630500Y-127820870D01*
X83644852Y-127786222D01*
X83679500Y-127771870D01*
X83960848Y-127771870D01*
X83987336Y-127779646D01*
X83989945Y-127781323D01*
X84066783Y-127803884D01*
X84128032Y-127821869D01*
X84128035Y-127821869D01*
X84128037Y-127821870D01*
X84128038Y-127821870D01*
X84271958Y-127821870D01*
X84271959Y-127821870D01*
X84271961Y-127821869D01*
X84271963Y-127821869D01*
X84294793Y-127815165D01*
X84410051Y-127781323D01*
X84531126Y-127703513D01*
X84625375Y-127594743D01*
X84685163Y-127463827D01*
X84685163Y-127463825D01*
X84685164Y-127463824D01*
X84705645Y-127321372D01*
X84705645Y-127321367D01*
X84685164Y-127178915D01*
X84680749Y-127169249D01*
X84625375Y-127047997D01*
X84531126Y-126939227D01*
X84410051Y-126861417D01*
X84410048Y-126861416D01*
X84271963Y-126820870D01*
X84271959Y-126820870D01*
X84128037Y-126820870D01*
X84128032Y-126820870D01*
X83989947Y-126861416D01*
X83989945Y-126861416D01*
X83989945Y-126861417D01*
X83987336Y-126863093D01*
X83960848Y-126870870D01*
X83679500Y-126870870D01*
X83644852Y-126856518D01*
X83630500Y-126821870D01*
X83630500Y-126801625D01*
X83630500Y-126801622D01*
X83618867Y-126743139D01*
X83592301Y-126703382D01*
X83574552Y-126676817D01*
X83534795Y-126650252D01*
X83508231Y-126632503D01*
X83449748Y-126620870D01*
X82410252Y-126620870D01*
X82351769Y-126632503D01*
X82285447Y-126676817D01*
X82241133Y-126743139D01*
X82229500Y-126801622D01*
X79080500Y-126801622D01*
X79080500Y-121601622D01*
X80429500Y-121601622D01*
X80429500Y-122641118D01*
X80441133Y-122699601D01*
X80458882Y-122726165D01*
X80485447Y-122765922D01*
X80509318Y-122781872D01*
X80551769Y-122810237D01*
X80610252Y-122821870D01*
X80610255Y-122821870D01*
X81649745Y-122821870D01*
X81649748Y-122821870D01*
X81708231Y-122810237D01*
X81774552Y-122765922D01*
X81818867Y-122699601D01*
X81830500Y-122641118D01*
X81830500Y-122470870D01*
X81844852Y-122436222D01*
X81879500Y-122421870D01*
X81918042Y-122421870D01*
X81925707Y-122422473D01*
X81985000Y-122431864D01*
X82110304Y-122412018D01*
X82110308Y-122412016D01*
X82110309Y-122412016D01*
X82223335Y-122354426D01*
X82223337Y-122354424D01*
X82223342Y-122354422D01*
X82313050Y-122264714D01*
X82313054Y-122264707D01*
X82370644Y-122151681D01*
X82370644Y-122151679D01*
X82370646Y-122151676D01*
X82390492Y-122026372D01*
X82370646Y-121901068D01*
X82370644Y-121901064D01*
X82370644Y-121901062D01*
X82313054Y-121788036D01*
X82313049Y-121788029D01*
X82223342Y-121698322D01*
X82223335Y-121698317D01*
X82110308Y-121640727D01*
X82110305Y-121640726D01*
X82110304Y-121640726D01*
X81985000Y-121620880D01*
X81984999Y-121620880D01*
X81942009Y-121627688D01*
X81885463Y-121636644D01*
X81848997Y-121627890D01*
X81829741Y-121597809D01*
X81818867Y-121543139D01*
X81797975Y-121511872D01*
X81774552Y-121476817D01*
X81734795Y-121450252D01*
X81708231Y-121432503D01*
X81649748Y-121420870D01*
X80610252Y-121420870D01*
X80551769Y-121432503D01*
X80485447Y-121476817D01*
X80441134Y-121543138D01*
X80441133Y-121543139D01*
X80429500Y-121601622D01*
X79080500Y-121601622D01*
X79080500Y-114031808D01*
X79071843Y-113999506D01*
X79060021Y-113955383D01*
X79060020Y-113955381D01*
X79060020Y-113955380D01*
X79020459Y-113886860D01*
X78964511Y-113830912D01*
X78895990Y-113791351D01*
X78819564Y-113770872D01*
X78819562Y-113770872D01*
X73129500Y-113770872D01*
X73094852Y-113756520D01*
X73080500Y-113721872D01*
X73080500Y-112101622D01*
X80429500Y-112101622D01*
X80429500Y-113141118D01*
X80441133Y-113199601D01*
X80458882Y-113226165D01*
X80485447Y-113265922D01*
X80512012Y-113283671D01*
X80551769Y-113310237D01*
X80610252Y-113321870D01*
X80610255Y-113321870D01*
X81649745Y-113321870D01*
X81649748Y-113321870D01*
X81708231Y-113310237D01*
X81774552Y-113265922D01*
X81818867Y-113199601D01*
X81830500Y-113141118D01*
X81830500Y-112366137D01*
X81844852Y-112331489D01*
X82153714Y-112022626D01*
X82188361Y-112008275D01*
X82223009Y-112022627D01*
X82237361Y-112057275D01*
X82236420Y-112066831D01*
X82229500Y-112101622D01*
X82229500Y-113141118D01*
X82241133Y-113199601D01*
X82258882Y-113226165D01*
X82285447Y-113265922D01*
X82312012Y-113283671D01*
X82351769Y-113310237D01*
X82410252Y-113321870D01*
X82430500Y-113321870D01*
X82465148Y-113336222D01*
X82479500Y-113370870D01*
X82479500Y-114389472D01*
X82465148Y-114424120D01*
X82257749Y-114631520D01*
X82223101Y-114645872D01*
X81902244Y-114645872D01*
X81902234Y-114645872D01*
X81902232Y-114645873D01*
X81872657Y-114648646D01*
X81872648Y-114648647D01*
X81748022Y-114692257D01*
X81641788Y-114770660D01*
X81563385Y-114876894D01*
X81519775Y-115001520D01*
X81519774Y-115001529D01*
X81517001Y-115031104D01*
X81517000Y-115031125D01*
X81517000Y-115611618D01*
X81517001Y-115611639D01*
X81519774Y-115641214D01*
X81519775Y-115641223D01*
X81550294Y-115728441D01*
X81563384Y-115765847D01*
X81563385Y-115765849D01*
X81563384Y-115765849D01*
X81641788Y-115872083D01*
X81734596Y-115940577D01*
X81748025Y-115950488D01*
X81872651Y-115994097D01*
X81902244Y-115996872D01*
X81902254Y-115996872D01*
X82507746Y-115996872D01*
X82507756Y-115996872D01*
X82537349Y-115994097D01*
X82661975Y-115950488D01*
X82768211Y-115872083D01*
X82846616Y-115765847D01*
X82890225Y-115641221D01*
X82893000Y-115611628D01*
X82893000Y-115290771D01*
X82907352Y-115256123D01*
X83290490Y-114872986D01*
X83290491Y-114872983D01*
X83291378Y-114872097D01*
X83326026Y-114857745D01*
X83360674Y-114872097D01*
X83375026Y-114906745D01*
X83372276Y-114922929D01*
X83344775Y-115001520D01*
X83344774Y-115001529D01*
X83342001Y-115031104D01*
X83342000Y-115031125D01*
X83342000Y-115611618D01*
X83342001Y-115611639D01*
X83344774Y-115641214D01*
X83344775Y-115641223D01*
X83375294Y-115728441D01*
X83388384Y-115765847D01*
X83388385Y-115765849D01*
X83388384Y-115765849D01*
X83466786Y-115872081D01*
X83466789Y-115872083D01*
X83559597Y-115940578D01*
X83578953Y-115972699D01*
X83579500Y-115980003D01*
X83579500Y-116514471D01*
X83565148Y-116549119D01*
X83007749Y-117106518D01*
X82973101Y-117120870D01*
X82410252Y-117120870D01*
X82351769Y-117132503D01*
X82285447Y-117176817D01*
X82241133Y-117243139D01*
X82229500Y-117301622D01*
X82229500Y-118341118D01*
X82241133Y-118399601D01*
X82258882Y-118426165D01*
X82285447Y-118465922D01*
X82312012Y-118483671D01*
X82351769Y-118510237D01*
X82410252Y-118521870D01*
X82410255Y-118521870D01*
X83449745Y-118521870D01*
X83449748Y-118521870D01*
X83508231Y-118510237D01*
X83574552Y-118465922D01*
X83618867Y-118399601D01*
X83630500Y-118341118D01*
X83630500Y-117778269D01*
X83644852Y-117743621D01*
X84390488Y-116997985D01*
X84390489Y-116997984D01*
X84449799Y-116895257D01*
X84456286Y-116871043D01*
X84480500Y-116780679D01*
X84480500Y-115980003D01*
X84494852Y-115945355D01*
X84500396Y-115940582D01*
X84593211Y-115872083D01*
X84593211Y-115872081D01*
X84593213Y-115872081D01*
X84632413Y-115818965D01*
X84671616Y-115765847D01*
X84715225Y-115641221D01*
X84718000Y-115611628D01*
X84718000Y-115031116D01*
X84715225Y-115001523D01*
X84671616Y-114876897D01*
X84671614Y-114876894D01*
X84671615Y-114876894D01*
X84593211Y-114770660D01*
X84486977Y-114692257D01*
X84486975Y-114692256D01*
X84449569Y-114679166D01*
X84362351Y-114648647D01*
X84362342Y-114648646D01*
X84332767Y-114645873D01*
X84332766Y-114645872D01*
X84332756Y-114645872D01*
X83727244Y-114645872D01*
X83727234Y-114645872D01*
X83727232Y-114645873D01*
X83697657Y-114648646D01*
X83697648Y-114648647D01*
X83573022Y-114692257D01*
X83466789Y-114770659D01*
X83436727Y-114811392D01*
X83404604Y-114830747D01*
X83368204Y-114821719D01*
X83348849Y-114789596D01*
X83349970Y-114769618D01*
X83356286Y-114746045D01*
X83380500Y-114655681D01*
X83380500Y-113370870D01*
X83394852Y-113336222D01*
X83429500Y-113321870D01*
X83449745Y-113321870D01*
X83449748Y-113321870D01*
X83508231Y-113310237D01*
X83574552Y-113265922D01*
X83618867Y-113199601D01*
X83630500Y-113141118D01*
X83630500Y-112101622D01*
X83618867Y-112043139D01*
X83592301Y-112003382D01*
X83574552Y-111976817D01*
X83534795Y-111950252D01*
X83508231Y-111932503D01*
X83449748Y-111920870D01*
X82410252Y-111920870D01*
X82365385Y-111929794D01*
X82353387Y-111932181D01*
X82316605Y-111924864D01*
X82295769Y-111893681D01*
X82301392Y-111859624D01*
X82320021Y-111827359D01*
X82340500Y-111750932D01*
X82340500Y-111557560D01*
X82354852Y-111522912D01*
X82368050Y-111509714D01*
X82368054Y-111509707D01*
X82425644Y-111396681D01*
X82425644Y-111396679D01*
X82425646Y-111396676D01*
X82445492Y-111271372D01*
X82425646Y-111146068D01*
X82425644Y-111146064D01*
X82425644Y-111146062D01*
X82368054Y-111033036D01*
X82368049Y-111033029D01*
X82278342Y-110943322D01*
X82278335Y-110943317D01*
X82165308Y-110885727D01*
X82165305Y-110885726D01*
X82165304Y-110885726D01*
X82040000Y-110865880D01*
X81914696Y-110885726D01*
X81914694Y-110885726D01*
X81914692Y-110885727D01*
X81914690Y-110885727D01*
X81801664Y-110943317D01*
X81801657Y-110943322D01*
X81711950Y-111033029D01*
X81711945Y-111033036D01*
X81654355Y-111146062D01*
X81654355Y-111146064D01*
X81654354Y-111146066D01*
X81654354Y-111146068D01*
X81634508Y-111271372D01*
X81654354Y-111396676D01*
X81654354Y-111396677D01*
X81654355Y-111396679D01*
X81654355Y-111396681D01*
X81711945Y-111509707D01*
X81711950Y-111509714D01*
X81725148Y-111522912D01*
X81739500Y-111557560D01*
X81739500Y-111566603D01*
X81725148Y-111601251D01*
X81419881Y-111906518D01*
X81385233Y-111920870D01*
X80610252Y-111920870D01*
X80553388Y-111932181D01*
X80551769Y-111932503D01*
X80485447Y-111976817D01*
X80441133Y-112043139D01*
X80429500Y-112101622D01*
X73080500Y-112101622D01*
X73080500Y-102601622D01*
X80429500Y-102601622D01*
X80429500Y-103641118D01*
X80441133Y-103699601D01*
X80458882Y-103726165D01*
X80485447Y-103765922D01*
X80512012Y-103783671D01*
X80551769Y-103810237D01*
X80610252Y-103821870D01*
X80610255Y-103821870D01*
X81649745Y-103821870D01*
X81649748Y-103821870D01*
X81708231Y-103810237D01*
X81774552Y-103765922D01*
X81818867Y-103699601D01*
X81830500Y-103641118D01*
X81830500Y-103545308D01*
X81844852Y-103510660D01*
X81879500Y-103496308D01*
X81887152Y-103496909D01*
X81950000Y-103506864D01*
X82075304Y-103487018D01*
X82075308Y-103487016D01*
X82075309Y-103487016D01*
X82188335Y-103429426D01*
X82188337Y-103429424D01*
X82188342Y-103429422D01*
X82278050Y-103339714D01*
X82278054Y-103339707D01*
X82335644Y-103226681D01*
X82335644Y-103226679D01*
X82335646Y-103226676D01*
X82355492Y-103101372D01*
X82335646Y-102976068D01*
X82335644Y-102976064D01*
X82335644Y-102976062D01*
X82278054Y-102863036D01*
X82278049Y-102863029D01*
X82188342Y-102773322D01*
X82188335Y-102773317D01*
X82075308Y-102715727D01*
X82075305Y-102715726D01*
X82075304Y-102715726D01*
X81950000Y-102695880D01*
X81949999Y-102695880D01*
X81887164Y-102705831D01*
X81850698Y-102697075D01*
X81831103Y-102665098D01*
X81830500Y-102657434D01*
X81830500Y-102601625D01*
X81830500Y-102601622D01*
X81818867Y-102543139D01*
X81792301Y-102503382D01*
X81774552Y-102476817D01*
X81734795Y-102450252D01*
X81708231Y-102432503D01*
X81649748Y-102420870D01*
X80610252Y-102420870D01*
X80551769Y-102432503D01*
X80485447Y-102476817D01*
X80441133Y-102543139D01*
X80429500Y-102601622D01*
X73080500Y-102601622D01*
X73080500Y-97720872D01*
X73094852Y-97686224D01*
X73129500Y-97671872D01*
X78819564Y-97671872D01*
X78846230Y-97664726D01*
X78895989Y-97651393D01*
X78964511Y-97611832D01*
X79020460Y-97555883D01*
X79060021Y-97487361D01*
X79080500Y-97410934D01*
X79080500Y-93101622D01*
X80429500Y-93101622D01*
X80429500Y-94141118D01*
X80441133Y-94199601D01*
X80458882Y-94226165D01*
X80485447Y-94265922D01*
X80512012Y-94283671D01*
X80551769Y-94310237D01*
X80610252Y-94321870D01*
X81437445Y-94321870D01*
X81472093Y-94336222D01*
X81482540Y-94353273D01*
X81482603Y-94353241D01*
X81483011Y-94354042D01*
X81484049Y-94355736D01*
X81484356Y-94356681D01*
X81541945Y-94469707D01*
X81541950Y-94469714D01*
X81631657Y-94559421D01*
X81631664Y-94559426D01*
X81744691Y-94617016D01*
X81744692Y-94617016D01*
X81744696Y-94617018D01*
X81870000Y-94636864D01*
X81995304Y-94617018D01*
X81995308Y-94617016D01*
X81995309Y-94617016D01*
X82108335Y-94559426D01*
X82108337Y-94559424D01*
X82108342Y-94559422D01*
X82198050Y-94469714D01*
X82255646Y-94356676D01*
X82259522Y-94332200D01*
X82279116Y-94300227D01*
X82315583Y-94291471D01*
X82335139Y-94299125D01*
X82351769Y-94310237D01*
X82410252Y-94321870D01*
X82430500Y-94321870D01*
X82465148Y-94336222D01*
X82479500Y-94370870D01*
X82479500Y-95188182D01*
X82503713Y-95278544D01*
X82503713Y-95278545D01*
X82510200Y-95302758D01*
X82510201Y-95302760D01*
X82569511Y-95405486D01*
X82649276Y-95485251D01*
X82663628Y-95519899D01*
X82649276Y-95554547D01*
X82614628Y-95568899D01*
X82598444Y-95566149D01*
X82519851Y-95538647D01*
X82519842Y-95538646D01*
X82490267Y-95535873D01*
X82490266Y-95535872D01*
X82490256Y-95535872D01*
X81884744Y-95535872D01*
X81884734Y-95535872D01*
X81884732Y-95535873D01*
X81855157Y-95538646D01*
X81855148Y-95538647D01*
X81730522Y-95582257D01*
X81624288Y-95660660D01*
X81545885Y-95766894D01*
X81502275Y-95891520D01*
X81502274Y-95891529D01*
X81499501Y-95921104D01*
X81499500Y-95921125D01*
X81499500Y-96501618D01*
X81499501Y-96501639D01*
X81502274Y-96531214D01*
X81502275Y-96531223D01*
X81532794Y-96618441D01*
X81545884Y-96655847D01*
X81545885Y-96655849D01*
X81545884Y-96655849D01*
X81624286Y-96762081D01*
X81624289Y-96762083D01*
X81717097Y-96830578D01*
X81736453Y-96862699D01*
X81737000Y-96870003D01*
X81737000Y-98138180D01*
X81761213Y-98228542D01*
X81761213Y-98228543D01*
X81767700Y-98252756D01*
X81767701Y-98252758D01*
X81827011Y-98355484D01*
X82215148Y-98743621D01*
X82229500Y-98778269D01*
X82229500Y-99341118D01*
X82241133Y-99399601D01*
X82258882Y-99426165D01*
X82285447Y-99465922D01*
X82312012Y-99483671D01*
X82351769Y-99510237D01*
X82410252Y-99521870D01*
X82410255Y-99521870D01*
X83449745Y-99521870D01*
X83449748Y-99521870D01*
X83508231Y-99510237D01*
X83574552Y-99465922D01*
X83618867Y-99399601D01*
X83630500Y-99341118D01*
X83630500Y-98301622D01*
X83618867Y-98243139D01*
X83592301Y-98203382D01*
X83574552Y-98176817D01*
X83534795Y-98150252D01*
X83508231Y-98132503D01*
X83449748Y-98120870D01*
X83449745Y-98120870D01*
X82886899Y-98120870D01*
X82852251Y-98106518D01*
X82652352Y-97906618D01*
X82638000Y-97871970D01*
X82638000Y-96870003D01*
X82652352Y-96835355D01*
X82657896Y-96830582D01*
X82750711Y-96762083D01*
X82750711Y-96762081D01*
X82750713Y-96762081D01*
X82789913Y-96708965D01*
X82829116Y-96655847D01*
X82872725Y-96531221D01*
X82875500Y-96501628D01*
X82875500Y-95921116D01*
X82872725Y-95891523D01*
X82845222Y-95812925D01*
X82847324Y-95775483D01*
X82875288Y-95750493D01*
X82912732Y-95752595D01*
X82926120Y-95762095D01*
X83310148Y-96146123D01*
X83324500Y-96180771D01*
X83324500Y-96501618D01*
X83324501Y-96501639D01*
X83327274Y-96531214D01*
X83327275Y-96531223D01*
X83357794Y-96618441D01*
X83370884Y-96655847D01*
X83370885Y-96655849D01*
X83370884Y-96655849D01*
X83449288Y-96762083D01*
X83542096Y-96830577D01*
X83555525Y-96840488D01*
X83680151Y-96884097D01*
X83709744Y-96886872D01*
X83709754Y-96886872D01*
X84315246Y-96886872D01*
X84315256Y-96886872D01*
X84344849Y-96884097D01*
X84469475Y-96840488D01*
X84575711Y-96762083D01*
X84654116Y-96655847D01*
X84697725Y-96531221D01*
X84700500Y-96501628D01*
X84700500Y-95921116D01*
X84697725Y-95891523D01*
X84654116Y-95766897D01*
X84654114Y-95766894D01*
X84654115Y-95766894D01*
X84575711Y-95660660D01*
X84469477Y-95582257D01*
X84469475Y-95582256D01*
X84431303Y-95568899D01*
X84344851Y-95538647D01*
X84344842Y-95538646D01*
X84315267Y-95535873D01*
X84315266Y-95535872D01*
X84315256Y-95535872D01*
X84315246Y-95535872D01*
X83994399Y-95535872D01*
X83959751Y-95521520D01*
X83394852Y-94956621D01*
X83380500Y-94921973D01*
X83380500Y-94370870D01*
X83394852Y-94336222D01*
X83429500Y-94321870D01*
X83449745Y-94321870D01*
X83449748Y-94321870D01*
X83508231Y-94310237D01*
X83574552Y-94265922D01*
X83618867Y-94199601D01*
X83630500Y-94141118D01*
X83630500Y-93101622D01*
X83618867Y-93043139D01*
X83592301Y-93003382D01*
X83574552Y-92976817D01*
X83534795Y-92950252D01*
X83508231Y-92932503D01*
X83449748Y-92920870D01*
X82410252Y-92920870D01*
X82351769Y-92932503D01*
X82285447Y-92976817D01*
X82241133Y-93043139D01*
X82229500Y-93101622D01*
X82229500Y-93101625D01*
X82229500Y-93590173D01*
X82215148Y-93624821D01*
X82180500Y-93639173D01*
X82145852Y-93624821D01*
X82138065Y-93614674D01*
X82123919Y-93590173D01*
X82110460Y-93566861D01*
X81924509Y-93380910D01*
X81883307Y-93357122D01*
X81854999Y-93340778D01*
X81832169Y-93311024D01*
X81830500Y-93298343D01*
X81830500Y-93101625D01*
X81830500Y-93101622D01*
X81818867Y-93043139D01*
X81792301Y-93003382D01*
X81774552Y-92976817D01*
X81734795Y-92950252D01*
X81708231Y-92932503D01*
X81649748Y-92920870D01*
X80610252Y-92920870D01*
X80551769Y-92932503D01*
X80485447Y-92976817D01*
X80441133Y-93043139D01*
X80429500Y-93101622D01*
X79080500Y-93101622D01*
X79080500Y-88801622D01*
X82229500Y-88801622D01*
X82229500Y-89841118D01*
X82241133Y-89899601D01*
X82254566Y-89919704D01*
X82285447Y-89965922D01*
X82311469Y-89983309D01*
X82351769Y-90010237D01*
X82410252Y-90021870D01*
X82410255Y-90021870D01*
X83449745Y-90021870D01*
X83449748Y-90021870D01*
X83508231Y-90010237D01*
X83574552Y-89965922D01*
X83618867Y-89899601D01*
X83630500Y-89841118D01*
X83630500Y-89820870D01*
X83644852Y-89786222D01*
X83679500Y-89771870D01*
X84130848Y-89771870D01*
X84157336Y-89779646D01*
X84159945Y-89781323D01*
X84236783Y-89803884D01*
X84298032Y-89821869D01*
X84298035Y-89821869D01*
X84298037Y-89821870D01*
X84298038Y-89821870D01*
X84441958Y-89821870D01*
X84441959Y-89821870D01*
X84441961Y-89821869D01*
X84441963Y-89821869D01*
X84464793Y-89815165D01*
X84580051Y-89781323D01*
X84701126Y-89703513D01*
X84795375Y-89594743D01*
X84855163Y-89463827D01*
X84855163Y-89463825D01*
X84855164Y-89463824D01*
X84875645Y-89321372D01*
X84875645Y-89321367D01*
X84855164Y-89178915D01*
X84827830Y-89119063D01*
X84795375Y-89047997D01*
X84754846Y-89001224D01*
X84701126Y-88939227D01*
X84580051Y-88861417D01*
X84580048Y-88861416D01*
X84441963Y-88820870D01*
X84441959Y-88820870D01*
X84298037Y-88820870D01*
X84298032Y-88820870D01*
X84159947Y-88861416D01*
X84159945Y-88861416D01*
X84159945Y-88861417D01*
X84157336Y-88863093D01*
X84130848Y-88870870D01*
X83679500Y-88870870D01*
X83644852Y-88856518D01*
X83630500Y-88821870D01*
X83630500Y-88801625D01*
X83630500Y-88801622D01*
X83618867Y-88743139D01*
X83590625Y-88700872D01*
X83574552Y-88676817D01*
X83534795Y-88650252D01*
X83508231Y-88632503D01*
X83449748Y-88620870D01*
X82410252Y-88620870D01*
X82351769Y-88632503D01*
X82285447Y-88676817D01*
X82241133Y-88743139D01*
X82229500Y-88801622D01*
X79080500Y-88801622D01*
X79080500Y-83601622D01*
X80429500Y-83601622D01*
X80429500Y-84641118D01*
X80441133Y-84699601D01*
X80458882Y-84726165D01*
X80485447Y-84765922D01*
X80512012Y-84783671D01*
X80551769Y-84810237D01*
X80610252Y-84821870D01*
X80610255Y-84821870D01*
X81649745Y-84821870D01*
X81649748Y-84821870D01*
X81708231Y-84810237D01*
X81774552Y-84765922D01*
X81818867Y-84699601D01*
X81830500Y-84641118D01*
X81830500Y-84565308D01*
X81844852Y-84530660D01*
X81879500Y-84516308D01*
X81887152Y-84516909D01*
X81950000Y-84526864D01*
X82075304Y-84507018D01*
X82075308Y-84507016D01*
X82075309Y-84507016D01*
X82188335Y-84449426D01*
X82188337Y-84449424D01*
X82188342Y-84449422D01*
X82278050Y-84359714D01*
X82278054Y-84359707D01*
X82335644Y-84246681D01*
X82335644Y-84246679D01*
X82335646Y-84246676D01*
X82355492Y-84121372D01*
X82335646Y-83996068D01*
X82335644Y-83996064D01*
X82335644Y-83996062D01*
X82278054Y-83883036D01*
X82278049Y-83883029D01*
X82188342Y-83793322D01*
X82188335Y-83793317D01*
X82075308Y-83735727D01*
X82075305Y-83735726D01*
X82075304Y-83735726D01*
X81950000Y-83715880D01*
X81949999Y-83715880D01*
X81887164Y-83725831D01*
X81850698Y-83717075D01*
X81831103Y-83685098D01*
X81830500Y-83677434D01*
X81830500Y-83601625D01*
X81830500Y-83601622D01*
X81818867Y-83543139D01*
X81792301Y-83503382D01*
X81774552Y-83476817D01*
X81734795Y-83450252D01*
X81708231Y-83432503D01*
X81649748Y-83420870D01*
X80610252Y-83420870D01*
X80551769Y-83432503D01*
X80485447Y-83476817D01*
X80441133Y-83543139D01*
X80429500Y-83601622D01*
X79080500Y-83601622D01*
X79080500Y-74101622D01*
X80429500Y-74101622D01*
X80429500Y-75141118D01*
X80441133Y-75199601D01*
X80458882Y-75226165D01*
X80485447Y-75265922D01*
X80512012Y-75283671D01*
X80551769Y-75310237D01*
X80610252Y-75321870D01*
X80610255Y-75321870D01*
X81649745Y-75321870D01*
X81649748Y-75321870D01*
X81708231Y-75310237D01*
X81774552Y-75265922D01*
X81818867Y-75199601D01*
X81830500Y-75141118D01*
X81830500Y-75093227D01*
X81844852Y-75058579D01*
X81879500Y-75044227D01*
X81887160Y-75044830D01*
X81900000Y-75046864D01*
X82025304Y-75027018D01*
X82025308Y-75027016D01*
X82025309Y-75027016D01*
X82138335Y-74969426D01*
X82138337Y-74969424D01*
X82138342Y-74969422D01*
X82145852Y-74961912D01*
X82180500Y-74947560D01*
X82215148Y-74961912D01*
X82229500Y-74996560D01*
X82229500Y-75141118D01*
X82241133Y-75199601D01*
X82258882Y-75226165D01*
X82285447Y-75265922D01*
X82312012Y-75283671D01*
X82351769Y-75310237D01*
X82410252Y-75321870D01*
X82430500Y-75321870D01*
X82465148Y-75336222D01*
X82479500Y-75370870D01*
X82479500Y-76148182D01*
X82503713Y-76238544D01*
X82503713Y-76238545D01*
X82510200Y-76262758D01*
X82510201Y-76262760D01*
X82569511Y-76365486D01*
X82649276Y-76445251D01*
X82663628Y-76479899D01*
X82649276Y-76514547D01*
X82614628Y-76528899D01*
X82598444Y-76526149D01*
X82519851Y-76498647D01*
X82519842Y-76498646D01*
X82490267Y-76495873D01*
X82490266Y-76495872D01*
X82490256Y-76495872D01*
X81884744Y-76495872D01*
X81884734Y-76495872D01*
X81884732Y-76495873D01*
X81855157Y-76498646D01*
X81855148Y-76498647D01*
X81730522Y-76542257D01*
X81624288Y-76620660D01*
X81545885Y-76726894D01*
X81502275Y-76851520D01*
X81502274Y-76851529D01*
X81499501Y-76881104D01*
X81499500Y-76881125D01*
X81499500Y-77461618D01*
X81499501Y-77461639D01*
X81502274Y-77491214D01*
X81502275Y-77491223D01*
X81532794Y-77578441D01*
X81545884Y-77615847D01*
X81545885Y-77615849D01*
X81545884Y-77615849D01*
X81624286Y-77722081D01*
X81624289Y-77722083D01*
X81717097Y-77790578D01*
X81736453Y-77822699D01*
X81737000Y-77830003D01*
X81737000Y-79138180D01*
X81761213Y-79228542D01*
X81761213Y-79228543D01*
X81767700Y-79252756D01*
X81767701Y-79252758D01*
X81827011Y-79355484D01*
X82215148Y-79743621D01*
X82229500Y-79778269D01*
X82229500Y-80341118D01*
X82241133Y-80399601D01*
X82258882Y-80426165D01*
X82285447Y-80465922D01*
X82312012Y-80483671D01*
X82351769Y-80510237D01*
X82410252Y-80521870D01*
X82410255Y-80521870D01*
X83449745Y-80521870D01*
X83449748Y-80521870D01*
X83508231Y-80510237D01*
X83574552Y-80465922D01*
X83618867Y-80399601D01*
X83630500Y-80341118D01*
X83630500Y-79301622D01*
X83618867Y-79243139D01*
X83592301Y-79203382D01*
X83574552Y-79176817D01*
X83534795Y-79150252D01*
X83508231Y-79132503D01*
X83449748Y-79120870D01*
X83449745Y-79120870D01*
X82886899Y-79120870D01*
X82852251Y-79106518D01*
X82652352Y-78906618D01*
X82638000Y-78871970D01*
X82638000Y-77830003D01*
X82652352Y-77795355D01*
X82657896Y-77790582D01*
X82750711Y-77722083D01*
X82750711Y-77722081D01*
X82750713Y-77722081D01*
X82789913Y-77668965D01*
X82829116Y-77615847D01*
X82872725Y-77491221D01*
X82875500Y-77461628D01*
X82875500Y-76881116D01*
X82872725Y-76851523D01*
X82845222Y-76772925D01*
X82847324Y-76735483D01*
X82875288Y-76710493D01*
X82912732Y-76712595D01*
X82926120Y-76722095D01*
X83310148Y-77106123D01*
X83324500Y-77140771D01*
X83324500Y-77461618D01*
X83324501Y-77461639D01*
X83327274Y-77491214D01*
X83327275Y-77491223D01*
X83357794Y-77578441D01*
X83370884Y-77615847D01*
X83370885Y-77615849D01*
X83370884Y-77615849D01*
X83449288Y-77722083D01*
X83542096Y-77790577D01*
X83555525Y-77800488D01*
X83680151Y-77844097D01*
X83709744Y-77846872D01*
X83709754Y-77846872D01*
X84315246Y-77846872D01*
X84315256Y-77846872D01*
X84344849Y-77844097D01*
X84469475Y-77800488D01*
X84575711Y-77722083D01*
X84654116Y-77615847D01*
X84697725Y-77491221D01*
X84700500Y-77461628D01*
X84700500Y-76881116D01*
X84697725Y-76851523D01*
X84654116Y-76726897D01*
X84654114Y-76726894D01*
X84654115Y-76726894D01*
X84575711Y-76620660D01*
X84469477Y-76542257D01*
X84469475Y-76542256D01*
X84431303Y-76528899D01*
X84344851Y-76498647D01*
X84344842Y-76498646D01*
X84315267Y-76495873D01*
X84315266Y-76495872D01*
X84315256Y-76495872D01*
X84315246Y-76495872D01*
X83994399Y-76495872D01*
X83959751Y-76481520D01*
X83394852Y-75916621D01*
X83380500Y-75881973D01*
X83380500Y-75370870D01*
X83394852Y-75336222D01*
X83429500Y-75321870D01*
X83449745Y-75321870D01*
X83449748Y-75321870D01*
X83508231Y-75310237D01*
X83574552Y-75265922D01*
X83618867Y-75199601D01*
X83630500Y-75141118D01*
X83630500Y-74101622D01*
X83618867Y-74043139D01*
X83592301Y-74003382D01*
X83574552Y-73976817D01*
X83534795Y-73950252D01*
X83508231Y-73932503D01*
X83449748Y-73920870D01*
X82410252Y-73920870D01*
X82351769Y-73932503D01*
X82285447Y-73976817D01*
X82241133Y-74043139D01*
X82229500Y-74101622D01*
X82229500Y-74101625D01*
X82229500Y-74286184D01*
X82215148Y-74320832D01*
X82180500Y-74335184D01*
X82145852Y-74320832D01*
X82138342Y-74313322D01*
X82138335Y-74313317D01*
X82025308Y-74255727D01*
X82025305Y-74255726D01*
X82025304Y-74255726D01*
X81900000Y-74235880D01*
X81899998Y-74235880D01*
X81899997Y-74235880D01*
X81887162Y-74237912D01*
X81850696Y-74229155D01*
X81831103Y-74197177D01*
X81830500Y-74189515D01*
X81830500Y-74101625D01*
X81830500Y-74101622D01*
X81818867Y-74043139D01*
X81792301Y-74003382D01*
X81774552Y-73976817D01*
X81734795Y-73950252D01*
X81708231Y-73932503D01*
X81649748Y-73920870D01*
X80610252Y-73920870D01*
X80551769Y-73932503D01*
X80485447Y-73976817D01*
X80441133Y-74043139D01*
X80429500Y-74101622D01*
X79080500Y-74101622D01*
X79080500Y-72498574D01*
X79081090Y-72490991D01*
X79083002Y-72478785D01*
X79080777Y-72457957D01*
X79080500Y-72452752D01*
X79080500Y-72431809D01*
X79077303Y-72419880D01*
X79075910Y-72412400D01*
X79074597Y-72400112D01*
X79074597Y-72400110D01*
X79067052Y-72380555D01*
X79065441Y-72375610D01*
X79060022Y-72355385D01*
X79060020Y-72355380D01*
X79053842Y-72344680D01*
X79050562Y-72337819D01*
X78167055Y-70047997D01*
X78071994Y-69801622D01*
X82229500Y-69801622D01*
X82229500Y-70841118D01*
X82241133Y-70899601D01*
X82258882Y-70926165D01*
X82285447Y-70965922D01*
X82312012Y-70983671D01*
X82351769Y-71010237D01*
X82410252Y-71021870D01*
X82410255Y-71021870D01*
X83449745Y-71021870D01*
X83449748Y-71021870D01*
X83508231Y-71010237D01*
X83574552Y-70965922D01*
X83618867Y-70899601D01*
X83630500Y-70841118D01*
X83630500Y-70841114D01*
X83630969Y-70838757D01*
X83632049Y-70838971D01*
X83648088Y-70808966D01*
X83683977Y-70798080D01*
X83692974Y-70799828D01*
X83768041Y-70821870D01*
X83768046Y-70821870D01*
X83911962Y-70821870D01*
X83911963Y-70821870D01*
X83911965Y-70821869D01*
X83911967Y-70821869D01*
X83955910Y-70808966D01*
X84050055Y-70781323D01*
X84171130Y-70703513D01*
X84265379Y-70594743D01*
X84325167Y-70463827D01*
X84325167Y-70463825D01*
X84325168Y-70463824D01*
X84345649Y-70321372D01*
X84345649Y-70321367D01*
X84325168Y-70178915D01*
X84320753Y-70169249D01*
X84265379Y-70047997D01*
X84171130Y-69939227D01*
X84050055Y-69861417D01*
X84050052Y-69861416D01*
X83911967Y-69820870D01*
X83911963Y-69820870D01*
X83768041Y-69820870D01*
X83768034Y-69820870D01*
X83692976Y-69842909D01*
X83655688Y-69838900D01*
X83632157Y-69809698D01*
X83631044Y-69803967D01*
X83630969Y-69803983D01*
X83630500Y-69801625D01*
X83630500Y-69801622D01*
X83618867Y-69743139D01*
X83592301Y-69703382D01*
X83574552Y-69676817D01*
X83534795Y-69650252D01*
X83508231Y-69632503D01*
X83449748Y-69620870D01*
X82410252Y-69620870D01*
X82351769Y-69632503D01*
X82285447Y-69676817D01*
X82241133Y-69743139D01*
X82229500Y-69801622D01*
X78071994Y-69801622D01*
X76065622Y-64601622D01*
X76929500Y-64601622D01*
X76929500Y-65641118D01*
X76941133Y-65699601D01*
X76958882Y-65726165D01*
X76985447Y-65765922D01*
X77012012Y-65783671D01*
X77051769Y-65810237D01*
X77110252Y-65821870D01*
X77905231Y-65821870D01*
X77939879Y-65836222D01*
X78635489Y-66531832D01*
X78704012Y-66571394D01*
X78764286Y-66587544D01*
X78780434Y-66591871D01*
X78780435Y-66591872D01*
X78780438Y-66591872D01*
X78859562Y-66591872D01*
X79463812Y-66591872D01*
X79498460Y-66606224D01*
X79511657Y-66619421D01*
X79511664Y-66619426D01*
X79624691Y-66677016D01*
X79624692Y-66677016D01*
X79624696Y-66677018D01*
X79750000Y-66696864D01*
X79875304Y-66677018D01*
X79875308Y-66677016D01*
X79875309Y-66677016D01*
X79988335Y-66619426D01*
X79988337Y-66619424D01*
X79988342Y-66619422D01*
X80078050Y-66529714D01*
X80078054Y-66529707D01*
X80135644Y-66416681D01*
X80135644Y-66416679D01*
X80135646Y-66416676D01*
X80155492Y-66291372D01*
X80135646Y-66166068D01*
X80135644Y-66166064D01*
X80135644Y-66166062D01*
X80078054Y-66053036D01*
X80078049Y-66053029D01*
X79988342Y-65963322D01*
X79988335Y-65963317D01*
X79875308Y-65905727D01*
X79875305Y-65905726D01*
X79875304Y-65905726D01*
X79750000Y-65885880D01*
X79624696Y-65905726D01*
X79624694Y-65905726D01*
X79624692Y-65905727D01*
X79624690Y-65905727D01*
X79511664Y-65963317D01*
X79511657Y-65963322D01*
X79498460Y-65976520D01*
X79463812Y-65990872D01*
X78964767Y-65990872D01*
X78930119Y-65976520D01*
X78344852Y-65391253D01*
X78330500Y-65356605D01*
X78330500Y-64601625D01*
X78330500Y-64601622D01*
X78318867Y-64543139D01*
X78292301Y-64503382D01*
X78274552Y-64476817D01*
X78234795Y-64450252D01*
X78208231Y-64432503D01*
X78149748Y-64420870D01*
X77110252Y-64420870D01*
X77051769Y-64432503D01*
X76985447Y-64476817D01*
X76941133Y-64543139D01*
X76929500Y-64601622D01*
X76065622Y-64601622D01*
X73316218Y-57475872D01*
X72400136Y-55101622D01*
X73429500Y-55101622D01*
X73429500Y-56141118D01*
X73441133Y-56199601D01*
X73458882Y-56226165D01*
X73485447Y-56265922D01*
X73512012Y-56283671D01*
X73551769Y-56310237D01*
X73610252Y-56321870D01*
X73780500Y-56321870D01*
X73815148Y-56336222D01*
X73829500Y-56370870D01*
X73829500Y-56810935D01*
X73849979Y-56887361D01*
X73849979Y-56887363D01*
X73889540Y-56955883D01*
X76296914Y-59363257D01*
X76310663Y-59390239D01*
X76324354Y-59476676D01*
X76324354Y-59476677D01*
X76324355Y-59476679D01*
X76324355Y-59476681D01*
X76381945Y-59589707D01*
X76381950Y-59589714D01*
X76471657Y-59679421D01*
X76471664Y-59679426D01*
X76584691Y-59737016D01*
X76584692Y-59737016D01*
X76584696Y-59737018D01*
X76710000Y-59756864D01*
X76835304Y-59737018D01*
X76835308Y-59737016D01*
X76835309Y-59737016D01*
X76948335Y-59679426D01*
X76948337Y-59679424D01*
X76948342Y-59679422D01*
X77038050Y-59589714D01*
X77038054Y-59589707D01*
X77095644Y-59476681D01*
X77095644Y-59476679D01*
X77095646Y-59476676D01*
X77115492Y-59351372D01*
X77095646Y-59226068D01*
X77095644Y-59226064D01*
X77095644Y-59226062D01*
X77038054Y-59113036D01*
X77038049Y-59113029D01*
X76948342Y-59023322D01*
X76948335Y-59023317D01*
X76835308Y-58965727D01*
X76835305Y-58965726D01*
X76835304Y-58965726D01*
X76790917Y-58958695D01*
X76748867Y-58952035D01*
X76721885Y-58938286D01*
X76692961Y-58909362D01*
X76678609Y-58874714D01*
X76692961Y-58840066D01*
X76727609Y-58825714D01*
X76732167Y-58825927D01*
X76742244Y-58826872D01*
X76742254Y-58826872D01*
X77347746Y-58826872D01*
X77347756Y-58826872D01*
X77377349Y-58824097D01*
X77501975Y-58780488D01*
X77608211Y-58702083D01*
X77686616Y-58595847D01*
X77730225Y-58471221D01*
X77733000Y-58441628D01*
X77733000Y-57861125D01*
X78182000Y-57861125D01*
X78182000Y-58441618D01*
X78182001Y-58441639D01*
X78184774Y-58471214D01*
X78184775Y-58471223D01*
X78215294Y-58558441D01*
X78228384Y-58595847D01*
X78228385Y-58595849D01*
X78228384Y-58595849D01*
X78306786Y-58702081D01*
X78306789Y-58702083D01*
X78399597Y-58770578D01*
X78418953Y-58802699D01*
X78419500Y-58810003D01*
X78419500Y-60320680D01*
X78443713Y-60411042D01*
X78443713Y-60411043D01*
X78450200Y-60435256D01*
X78450201Y-60435258D01*
X78509511Y-60537984D01*
X78715148Y-60743621D01*
X78729500Y-60778269D01*
X78729500Y-61341118D01*
X78741133Y-61399601D01*
X78758882Y-61426165D01*
X78785447Y-61465922D01*
X78812012Y-61483671D01*
X78851769Y-61510237D01*
X78910252Y-61521870D01*
X78910255Y-61521870D01*
X79949745Y-61521870D01*
X79949748Y-61521870D01*
X80008231Y-61510237D01*
X80074552Y-61465922D01*
X80118867Y-61399601D01*
X80130500Y-61341118D01*
X80130500Y-60301622D01*
X80118867Y-60243139D01*
X80092301Y-60203382D01*
X80074552Y-60176817D01*
X80034795Y-60150252D01*
X80008231Y-60132503D01*
X79949748Y-60120870D01*
X79949745Y-60120870D01*
X79386900Y-60120870D01*
X79352252Y-60106518D01*
X79352251Y-60106517D01*
X79334851Y-60089116D01*
X79320500Y-60054469D01*
X79320500Y-58810003D01*
X79334852Y-58775355D01*
X79340396Y-58770582D01*
X79433211Y-58702083D01*
X79433211Y-58702081D01*
X79433213Y-58702081D01*
X79472413Y-58648965D01*
X79511616Y-58595847D01*
X79555225Y-58471221D01*
X79558000Y-58441628D01*
X79558000Y-57861116D01*
X79555225Y-57831523D01*
X79511616Y-57706897D01*
X79511614Y-57706894D01*
X79511615Y-57706894D01*
X79433211Y-57600660D01*
X79326977Y-57522257D01*
X79326975Y-57522256D01*
X79289569Y-57509166D01*
X79202351Y-57478647D01*
X79202342Y-57478646D01*
X79172767Y-57475873D01*
X79172766Y-57475872D01*
X79172756Y-57475872D01*
X78567244Y-57475872D01*
X78567234Y-57475872D01*
X78567232Y-57475873D01*
X78537657Y-57478646D01*
X78537648Y-57478647D01*
X78413022Y-57522257D01*
X78306788Y-57600660D01*
X78228385Y-57706894D01*
X78184775Y-57831520D01*
X78184774Y-57831529D01*
X78182001Y-57861104D01*
X78182000Y-57861125D01*
X77733000Y-57861125D01*
X77733000Y-57861116D01*
X77730225Y-57831523D01*
X77686616Y-57706897D01*
X77686614Y-57706894D01*
X77686615Y-57706894D01*
X77608211Y-57600660D01*
X77501977Y-57522257D01*
X77501975Y-57522256D01*
X77464569Y-57509166D01*
X77377351Y-57478647D01*
X77377342Y-57478646D01*
X77347767Y-57475873D01*
X77347766Y-57475872D01*
X77347756Y-57475872D01*
X77347746Y-57475872D01*
X77026899Y-57475872D01*
X76992251Y-57461520D01*
X76394852Y-56864121D01*
X76380500Y-56829473D01*
X76380500Y-56370870D01*
X76394852Y-56336222D01*
X76429500Y-56321870D01*
X76449745Y-56321870D01*
X76449748Y-56321870D01*
X76508231Y-56310237D01*
X76574552Y-56265922D01*
X76618867Y-56199601D01*
X76630500Y-56141118D01*
X76630500Y-55101622D01*
X76618867Y-55043139D01*
X76592301Y-55003382D01*
X76574552Y-54976817D01*
X76534795Y-54950252D01*
X76508231Y-54932503D01*
X76449748Y-54920870D01*
X75410252Y-54920870D01*
X75351769Y-54932503D01*
X75285447Y-54976817D01*
X75241133Y-55043139D01*
X75229500Y-55101622D01*
X75229500Y-56141118D01*
X75241133Y-56199601D01*
X75258882Y-56226165D01*
X75285447Y-56265922D01*
X75312012Y-56283671D01*
X75351769Y-56310237D01*
X75410252Y-56321870D01*
X75430500Y-56321870D01*
X75465148Y-56336222D01*
X75479500Y-56370870D01*
X75479500Y-57095682D01*
X75503713Y-57186044D01*
X75503713Y-57186045D01*
X75510200Y-57210258D01*
X75510201Y-57210260D01*
X75569511Y-57312986D01*
X76342648Y-58086123D01*
X76357000Y-58120771D01*
X76357000Y-58441618D01*
X76357001Y-58441640D01*
X76357943Y-58451688D01*
X76346888Y-58487525D01*
X76313731Y-58505048D01*
X76277894Y-58493993D01*
X76274509Y-58490910D01*
X74444852Y-56661253D01*
X74430500Y-56626605D01*
X74430500Y-56370870D01*
X74444852Y-56336222D01*
X74479500Y-56321870D01*
X74649745Y-56321870D01*
X74649748Y-56321870D01*
X74708231Y-56310237D01*
X74774552Y-56265922D01*
X74818867Y-56199601D01*
X74830500Y-56141118D01*
X74830500Y-55101622D01*
X74818867Y-55043139D01*
X74792301Y-55003382D01*
X74774552Y-54976817D01*
X74734795Y-54950252D01*
X74708231Y-54932503D01*
X74649748Y-54920870D01*
X73610252Y-54920870D01*
X73551769Y-54932503D01*
X73485447Y-54976817D01*
X73441133Y-55043139D01*
X73429500Y-55101622D01*
X72400136Y-55101622D01*
X68167955Y-44132896D01*
X68165955Y-44126403D01*
X68164230Y-44119020D01*
X70204500Y-44119020D01*
X70204500Y-44323723D01*
X70236522Y-44525903D01*
X70236523Y-44525906D01*
X70299779Y-44720589D01*
X70392714Y-44902984D01*
X70392716Y-44902987D01*
X70513035Y-45068592D01*
X70513039Y-45068597D01*
X70657775Y-45213333D01*
X70657779Y-45213336D01*
X70657781Y-45213338D01*
X70823390Y-45333659D01*
X71005781Y-45426592D01*
X71200466Y-45489849D01*
X71402648Y-45521872D01*
X71402649Y-45521872D01*
X71607351Y-45521872D01*
X71607352Y-45521872D01*
X71809534Y-45489849D01*
X72004219Y-45426592D01*
X72186610Y-45333659D01*
X72352219Y-45213338D01*
X72352222Y-45213334D01*
X72352225Y-45213333D01*
X72496961Y-45068597D01*
X72496962Y-45068594D01*
X72496966Y-45068591D01*
X72617287Y-44902982D01*
X72710220Y-44720591D01*
X72773477Y-44525906D01*
X72805500Y-44323724D01*
X72805500Y-44119020D01*
X72773477Y-43916838D01*
X72710220Y-43722153D01*
X72617287Y-43539762D01*
X72496966Y-43374153D01*
X72496964Y-43374151D01*
X72496961Y-43374147D01*
X72352225Y-43229411D01*
X72352220Y-43229407D01*
X72186615Y-43109088D01*
X72186612Y-43109086D01*
X72004217Y-43016151D01*
X71809534Y-42952895D01*
X71809531Y-42952894D01*
X71654220Y-42928295D01*
X71607352Y-42920872D01*
X71402648Y-42920872D01*
X71364599Y-42926898D01*
X71200468Y-42952894D01*
X71200465Y-42952895D01*
X71005782Y-43016151D01*
X70823387Y-43109086D01*
X70823384Y-43109088D01*
X70657779Y-43229407D01*
X70513035Y-43374151D01*
X70392716Y-43539756D01*
X70392714Y-43539759D01*
X70299779Y-43722154D01*
X70236523Y-43916837D01*
X70236522Y-43916840D01*
X70204500Y-44119020D01*
X68164230Y-44119020D01*
X68092860Y-43813484D01*
X68091935Y-43808270D01*
X68052070Y-43480813D01*
X68051718Y-43475553D01*
X68047491Y-43145717D01*
X68047710Y-43140418D01*
X68065676Y-42952895D01*
X68079170Y-42812053D01*
X68079959Y-42806825D01*
X68146735Y-42483795D01*
X68148079Y-42478696D01*
X68249400Y-42164747D01*
X68251287Y-42159830D01*
X68385953Y-41858686D01*
X68388362Y-41853998D01*
X68554796Y-41569184D01*
X68557706Y-41564772D01*
X68753946Y-41299639D01*
X68757317Y-41295564D01*
X68981086Y-41053186D01*
X68984882Y-41049498D01*
X69233528Y-40832751D01*
X69237696Y-40829497D01*
X69508340Y-40640888D01*
X69512822Y-40638112D01*
X69802266Y-40479875D01*
X69807018Y-40477601D01*
X70111886Y-40351580D01*
X70116874Y-40349828D01*
X70433562Y-40257514D01*
X70438699Y-40256314D01*
X70763512Y-40198780D01*
X70768771Y-40198140D01*
X71097898Y-40176061D01*
X71103173Y-40175994D01*
X71432758Y-40189630D01*
G37*
%TD.AperFunction*%
%TD*%
%TA.AperFunction,Conductor*%
%TO.N,+3.3V*%
G36*
X108919931Y-95008948D02*
G01*
X108921369Y-95009669D01*
X109119252Y-95126603D01*
X109124631Y-95133762D01*
X109125000Y-95136676D01*
X109125000Y-95423323D01*
X109121573Y-95431596D01*
X109119252Y-95433396D01*
X108921372Y-95550328D01*
X108912506Y-95551586D01*
X108905347Y-95546207D01*
X108904629Y-95544776D01*
X108795883Y-95284509D01*
X108795857Y-95275556D01*
X108795862Y-95275542D01*
X108904626Y-95015230D01*
X108910976Y-95008921D01*
X108919931Y-95008948D01*
G37*
%TD.AperFunction*%
%TD*%
%TA.AperFunction,Conductor*%
%TO.N,+3.3V*%
G36*
X109059767Y-95389625D02*
G01*
X109066078Y-95395976D01*
X109066051Y-95404931D01*
X109065328Y-95406372D01*
X108948397Y-95604252D01*
X108941238Y-95609631D01*
X108938324Y-95610000D01*
X108651676Y-95610000D01*
X108643403Y-95606573D01*
X108641603Y-95604252D01*
X108524671Y-95406372D01*
X108523413Y-95397506D01*
X108528792Y-95390347D01*
X108530217Y-95389631D01*
X108790490Y-95280883D01*
X108799444Y-95280857D01*
X109059767Y-95389625D01*
G37*
%TD.AperFunction*%
%TD*%
%TA.AperFunction,Conductor*%
%TO.N,+3.3V*%
G36*
X101809652Y-96463792D02*
G01*
X101810373Y-96465229D01*
X101857660Y-96578403D01*
X101919115Y-96725489D01*
X101919142Y-96734444D01*
X101919115Y-96734511D01*
X101810375Y-96994766D01*
X101804023Y-97001078D01*
X101795068Y-97001051D01*
X101793627Y-97000328D01*
X101595748Y-96883396D01*
X101590369Y-96876237D01*
X101590000Y-96873323D01*
X101590000Y-96586676D01*
X101593427Y-96578403D01*
X101595746Y-96576604D01*
X101793628Y-96459670D01*
X101802493Y-96458413D01*
X101809652Y-96463792D01*
G37*
%TD.AperFunction*%
%TD*%
%TA.AperFunction,Conductor*%
%TO.N,+3.3V*%
G36*
X102044931Y-96458948D02*
G01*
X102046369Y-96459669D01*
X102244252Y-96576603D01*
X102249631Y-96583762D01*
X102250000Y-96586676D01*
X102250000Y-96873323D01*
X102246573Y-96881596D01*
X102244252Y-96883396D01*
X102046372Y-97000328D01*
X102037506Y-97001586D01*
X102030347Y-96996207D01*
X102029629Y-96994776D01*
X101920883Y-96734509D01*
X101920857Y-96725556D01*
X101920862Y-96725542D01*
X102029626Y-96465230D01*
X102035976Y-96458921D01*
X102044931Y-96458948D01*
G37*
%TD.AperFunction*%
%TD*%
%TA.AperFunction,Conductor*%
%TO.N,+3.3V*%
G36*
X99884767Y-94939625D02*
G01*
X99891078Y-94945976D01*
X99891051Y-94954931D01*
X99890328Y-94956372D01*
X99773397Y-95154252D01*
X99766238Y-95159631D01*
X99763324Y-95160000D01*
X99476676Y-95160000D01*
X99468403Y-95156573D01*
X99466603Y-95154252D01*
X99349671Y-94956372D01*
X99348413Y-94947506D01*
X99353792Y-94940347D01*
X99355217Y-94939631D01*
X99615490Y-94830883D01*
X99624444Y-94830857D01*
X99884767Y-94939625D01*
G37*
%TD.AperFunction*%
%TD*%
%TA.AperFunction,Conductor*%
%TO.N,+3.3V*%
G36*
X110434767Y-92789625D02*
G01*
X110441078Y-92795976D01*
X110441051Y-92804931D01*
X110440328Y-92806372D01*
X110323397Y-93004252D01*
X110316238Y-93009631D01*
X110313324Y-93010000D01*
X110026676Y-93010000D01*
X110018403Y-93006573D01*
X110016603Y-93004252D01*
X109899671Y-92806372D01*
X109898413Y-92797506D01*
X109903792Y-92790347D01*
X109905217Y-92789631D01*
X110165490Y-92680883D01*
X110174444Y-92680857D01*
X110434767Y-92789625D01*
G37*
%TD.AperFunction*%
%TD*%
%TA.AperFunction,Conductor*%
%TO.N,+3.3V*%
G36*
X99559652Y-91213792D02*
G01*
X99560373Y-91215229D01*
X99607660Y-91328403D01*
X99669115Y-91475489D01*
X99669142Y-91484444D01*
X99669115Y-91484511D01*
X99560375Y-91744766D01*
X99554023Y-91751078D01*
X99545068Y-91751051D01*
X99543627Y-91750328D01*
X99345748Y-91633396D01*
X99340369Y-91626237D01*
X99340000Y-91623323D01*
X99340000Y-91336676D01*
X99343427Y-91328403D01*
X99345746Y-91326604D01*
X99543628Y-91209670D01*
X99552493Y-91208413D01*
X99559652Y-91213792D01*
G37*
%TD.AperFunction*%
%TD*%
%TA.AperFunction,Conductor*%
%TO.N,+3.3V*%
G36*
X97694931Y-91208948D02*
G01*
X97696369Y-91209669D01*
X97894252Y-91326603D01*
X97899631Y-91333762D01*
X97900000Y-91336676D01*
X97900000Y-91623323D01*
X97896573Y-91631596D01*
X97894252Y-91633396D01*
X97696372Y-91750328D01*
X97687506Y-91751586D01*
X97680347Y-91746207D01*
X97679629Y-91744776D01*
X97570883Y-91484509D01*
X97570857Y-91475556D01*
X97570862Y-91475542D01*
X97679626Y-91215230D01*
X97685976Y-91208921D01*
X97694931Y-91208948D01*
G37*
%TD.AperFunction*%
%TD*%
%TA.AperFunction,Conductor*%
%TO.N,I2C3_SCL*%
G36*
X110637843Y-120343427D02*
G01*
X110638505Y-120344147D01*
X110694499Y-120410390D01*
X110697223Y-120418921D01*
X110693866Y-120426187D01*
X110568302Y-120552639D01*
X110560041Y-120556095D01*
X110551756Y-120552697D01*
X110551698Y-120552639D01*
X110509525Y-120510168D01*
X110426132Y-120426186D01*
X110422735Y-120417902D01*
X110425499Y-120410392D01*
X110481495Y-120344147D01*
X110489453Y-120340041D01*
X110490430Y-120340000D01*
X110629570Y-120340000D01*
X110637843Y-120343427D01*
G37*
%TD.AperFunction*%
%TD*%
%TA.AperFunction,Conductor*%
%TO.N,I2C3_SCL*%
G36*
X108259606Y-117575498D02*
G01*
X108325854Y-117631495D01*
X108329959Y-117639451D01*
X108330000Y-117640429D01*
X108330000Y-117779570D01*
X108326573Y-117787843D01*
X108325861Y-117788498D01*
X108260359Y-117843866D01*
X108259609Y-117844500D01*
X108251078Y-117847223D01*
X108243813Y-117843866D01*
X108117359Y-117718300D01*
X108113904Y-117710041D01*
X108117302Y-117701756D01*
X108243814Y-117576131D01*
X108252097Y-117572735D01*
X108259606Y-117575498D01*
G37*
%TD.AperFunction*%
%TD*%
%TA.AperFunction,Conductor*%
%TO.N,I2C3_SDA*%
G36*
X103436185Y-90746132D02*
G01*
X103491939Y-90801494D01*
X103562639Y-90871698D01*
X103566095Y-90879959D01*
X103562697Y-90888244D01*
X103562639Y-90888302D01*
X103436187Y-91013866D01*
X103427902Y-91017264D01*
X103420390Y-91014499D01*
X103354147Y-90958505D01*
X103350041Y-90950548D01*
X103350000Y-90949570D01*
X103350000Y-90810429D01*
X103353427Y-90802156D01*
X103354138Y-90801501D01*
X103420391Y-90745499D01*
X103428921Y-90742776D01*
X103436185Y-90746132D01*
G37*
%TD.AperFunction*%
%TD*%
%TA.AperFunction,Conductor*%
%TO.N,I2C3_SDA*%
G36*
X100619606Y-90195498D02*
G01*
X100685854Y-90251495D01*
X100689959Y-90259451D01*
X100690000Y-90260429D01*
X100690000Y-90399570D01*
X100686573Y-90407843D01*
X100685861Y-90408498D01*
X100620359Y-90463866D01*
X100619609Y-90464500D01*
X100611078Y-90467223D01*
X100603813Y-90463866D01*
X100477359Y-90338300D01*
X100473904Y-90330041D01*
X100477302Y-90321756D01*
X100603814Y-90196131D01*
X100612097Y-90192735D01*
X100619606Y-90195498D01*
G37*
%TD.AperFunction*%
%TD*%
%TA.AperFunction,Conductor*%
%TO.N,I2C3_IMU_INT*%
G36*
X107886185Y-91396132D02*
G01*
X107941939Y-91451494D01*
X108012639Y-91521698D01*
X108016095Y-91529959D01*
X108012697Y-91538244D01*
X108012639Y-91538302D01*
X107886187Y-91663866D01*
X107877902Y-91667264D01*
X107870390Y-91664499D01*
X107804147Y-91608505D01*
X107800041Y-91600548D01*
X107800000Y-91599570D01*
X107800000Y-91460429D01*
X107803427Y-91452156D01*
X107804138Y-91451501D01*
X107870391Y-91395499D01*
X107878921Y-91392776D01*
X107886185Y-91396132D01*
G37*
%TD.AperFunction*%
%TD*%
%TA.AperFunction,Conductor*%
%TO.N,I2C3_IMU_INT*%
G36*
X105426185Y-115676132D02*
G01*
X105481939Y-115731494D01*
X105552639Y-115801698D01*
X105556095Y-115809959D01*
X105552697Y-115818244D01*
X105552639Y-115818302D01*
X105426187Y-115943866D01*
X105417902Y-115947264D01*
X105410390Y-115944499D01*
X105344147Y-115888505D01*
X105340041Y-115880548D01*
X105340000Y-115879570D01*
X105340000Y-115740429D01*
X105343427Y-115732156D01*
X105344138Y-115731501D01*
X105410391Y-115675499D01*
X105418921Y-115672776D01*
X105426185Y-115676132D01*
G37*
%TD.AperFunction*%
%TD*%
%TA.AperFunction,Conductor*%
%TO.N,I2C3_IMU_INT*%
G36*
X106026185Y-119876132D02*
G01*
X106081939Y-119931494D01*
X106152639Y-120001698D01*
X106156095Y-120009959D01*
X106152697Y-120018244D01*
X106152639Y-120018302D01*
X106026187Y-120143866D01*
X106017902Y-120147264D01*
X106010390Y-120144499D01*
X105944147Y-120088505D01*
X105940041Y-120080548D01*
X105940000Y-120079570D01*
X105940000Y-119940429D01*
X105943427Y-119932156D01*
X105944138Y-119931501D01*
X106010391Y-119875499D01*
X106018921Y-119872776D01*
X106026185Y-119876132D01*
G37*
%TD.AperFunction*%
%TD*%
%TA.AperFunction,Conductor*%
%TO.N,I2C3_IMU_INT*%
G36*
X106078243Y-89987301D02*
G01*
X106203866Y-90113812D01*
X106207264Y-90122097D01*
X106204500Y-90129608D01*
X106148504Y-90195853D01*
X106140548Y-90199959D01*
X106139570Y-90200000D01*
X106000430Y-90200000D01*
X105992157Y-90196573D01*
X105991495Y-90195853D01*
X105935500Y-90129609D01*
X105932776Y-90121078D01*
X105936131Y-90113814D01*
X106061699Y-89987359D01*
X106069959Y-89983904D01*
X106078243Y-89987301D01*
G37*
%TD.AperFunction*%
%TD*%
M02*
