%TF.GenerationSoftware,KiCad,Pcbnew,8.0.8*%
%TF.CreationDate,2025-07-27T02:47:14+02:00*%
%TF.ProjectId,ESC_PCB,4553435f-5043-4422-9e6b-696361645f70,rev?*%
%TF.SameCoordinates,Original*%
%TF.FileFunction,Paste,Bot*%
%TF.FilePolarity,Positive*%
%FSLAX46Y46*%
G04 Gerber Fmt 4.6, Leading zero omitted, Abs format (unit mm)*
G04 Created by KiCad (PCBNEW 8.0.8) date 2025-07-27 02:47:14*
%MOMM*%
%LPD*%
G01*
G04 APERTURE LIST*
G04 Aperture macros list*
%AMRoundRect*
0 Rectangle with rounded corners*
0 $1 Rounding radius*
0 $2 $3 $4 $5 $6 $7 $8 $9 X,Y pos of 4 corners*
0 Add a 4 corners polygon primitive as box body*
4,1,4,$2,$3,$4,$5,$6,$7,$8,$9,$2,$3,0*
0 Add four circle primitives for the rounded corners*
1,1,$1+$1,$2,$3*
1,1,$1+$1,$4,$5*
1,1,$1+$1,$6,$7*
1,1,$1+$1,$8,$9*
0 Add four rect primitives between the rounded corners*
20,1,$1+$1,$2,$3,$4,$5,0*
20,1,$1+$1,$4,$5,$6,$7,0*
20,1,$1+$1,$6,$7,$8,$9,0*
20,1,$1+$1,$8,$9,$2,$3,0*%
%AMFreePoly0*
4,1,14,0.364320,0.111820,0.377500,0.080000,0.377500,0.053640,0.364320,0.021820,0.230680,-0.111820,0.198860,-0.125000,-0.332500,-0.125000,-0.364320,-0.111820,-0.377500,-0.080000,-0.377500,0.080000,-0.364320,0.111820,-0.332500,0.125000,0.332500,0.125000,0.364320,0.111820,0.364320,0.111820,$1*%
%AMFreePoly1*
4,1,14,0.230680,0.111820,0.364320,-0.021820,0.377500,-0.053640,0.377500,-0.080000,0.364320,-0.111820,0.332500,-0.125000,-0.332500,-0.125000,-0.364320,-0.111820,-0.377500,-0.080000,-0.377500,0.080000,-0.364320,0.111820,-0.332500,0.125000,0.198860,0.125000,0.230680,0.111820,0.230680,0.111820,$1*%
%AMFreePoly2*
4,1,14,0.111820,0.364320,0.125000,0.332500,0.125000,-0.332500,0.111820,-0.364320,0.080000,-0.377500,0.053640,-0.377500,0.021820,-0.364320,-0.111820,-0.230680,-0.125000,-0.198860,-0.125000,0.332500,-0.111820,0.364320,-0.080000,0.377500,0.080000,0.377500,0.111820,0.364320,0.111820,0.364320,$1*%
%AMFreePoly3*
4,1,14,0.111820,0.364320,0.125000,0.332500,0.125000,-0.198860,0.111820,-0.230680,-0.021820,-0.364320,-0.053640,-0.377500,-0.080000,-0.377500,-0.111820,-0.364320,-0.125000,-0.332500,-0.125000,0.332500,-0.111820,0.364320,-0.080000,0.377500,0.080000,0.377500,0.111820,0.364320,0.111820,0.364320,$1*%
%AMFreePoly4*
4,1,14,0.364320,0.111820,0.377500,0.080000,0.377500,-0.080000,0.364320,-0.111820,0.332500,-0.125000,-0.332500,-0.125000,-0.364320,-0.111820,-0.377500,-0.080000,-0.377500,-0.053640,-0.364320,-0.021820,-0.230680,0.111820,-0.198860,0.125000,0.332500,0.125000,0.364320,0.111820,0.364320,0.111820,$1*%
%AMFreePoly5*
4,1,14,0.364320,0.111820,0.377500,0.080000,0.377500,-0.080000,0.364320,-0.111820,0.332500,-0.125000,-0.198860,-0.125000,-0.230680,-0.111820,-0.364320,0.021820,-0.377500,0.053640,-0.377500,0.080000,-0.364320,0.111820,-0.332500,0.125000,0.332500,0.125000,0.364320,0.111820,0.364320,0.111820,$1*%
%AMFreePoly6*
4,1,14,-0.021820,0.364320,0.111820,0.230680,0.125000,0.198860,0.125000,-0.332500,0.111820,-0.364320,0.080000,-0.377500,-0.080000,-0.377500,-0.111820,-0.364320,-0.125000,-0.332500,-0.125000,0.332500,-0.111820,0.364320,-0.080000,0.377500,-0.053640,0.377500,-0.021820,0.364320,-0.021820,0.364320,$1*%
%AMFreePoly7*
4,1,14,0.111820,0.364320,0.125000,0.332500,0.125000,-0.332500,0.111820,-0.364320,0.080000,-0.377500,-0.080000,-0.377500,-0.111820,-0.364320,-0.125000,-0.332500,-0.125000,0.198860,-0.111820,0.230680,0.021820,0.364320,0.053640,0.377500,0.080000,0.377500,0.111820,0.364320,0.111820,0.364320,$1*%
G04 Aperture macros list end*
%ADD10C,0.010000*%
%ADD11RoundRect,0.150000X-0.200000X0.150000X-0.200000X-0.150000X0.200000X-0.150000X0.200000X0.150000X0*%
%ADD12RoundRect,0.160000X-0.197500X-0.160000X0.197500X-0.160000X0.197500X0.160000X-0.197500X0.160000X0*%
%ADD13RoundRect,0.067500X-0.347500X-0.067500X0.347500X-0.067500X0.347500X0.067500X-0.347500X0.067500X0*%
%ADD14RoundRect,0.067500X-0.067500X-0.347500X0.067500X-0.347500X0.067500X0.347500X-0.067500X0.347500X0*%
%ADD15RoundRect,0.160000X0.197500X0.160000X-0.197500X0.160000X-0.197500X-0.160000X0.197500X-0.160000X0*%
%ADD16RoundRect,0.250000X0.250000X0.750000X-0.250000X0.750000X-0.250000X-0.750000X0.250000X-0.750000X0*%
%ADD17RoundRect,0.160000X0.160000X-0.197500X0.160000X0.197500X-0.160000X0.197500X-0.160000X-0.197500X0*%
%ADD18RoundRect,0.160000X-0.160000X0.197500X-0.160000X-0.197500X0.160000X-0.197500X0.160000X0.197500X0*%
%ADD19FreePoly0,90.000000*%
%ADD20RoundRect,0.062500X0.062500X-0.375000X0.062500X0.375000X-0.062500X0.375000X-0.062500X-0.375000X0*%
%ADD21FreePoly1,90.000000*%
%ADD22FreePoly2,90.000000*%
%ADD23RoundRect,0.062500X0.375000X-0.062500X0.375000X0.062500X-0.375000X0.062500X-0.375000X-0.062500X0*%
%ADD24FreePoly3,90.000000*%
%ADD25FreePoly4,90.000000*%
%ADD26FreePoly5,90.000000*%
%ADD27FreePoly6,90.000000*%
%ADD28FreePoly7,90.000000*%
%ADD29RoundRect,0.237500X0.300000X0.237500X-0.300000X0.237500X-0.300000X-0.237500X0.300000X-0.237500X0*%
%ADD30RoundRect,0.155000X0.155000X-0.212500X0.155000X0.212500X-0.155000X0.212500X-0.155000X-0.212500X0*%
%ADD31RoundRect,0.155000X0.212500X0.155000X-0.212500X0.155000X-0.212500X-0.155000X0.212500X-0.155000X0*%
G04 APERTURE END LIST*
D10*
%TO.C,U6*%
X149617500Y-73042500D02*
X148657500Y-73042500D01*
X148657500Y-72082500D01*
X149617500Y-72082500D01*
X149617500Y-73042500D01*
G36*
X149617500Y-73042500D02*
G01*
X148657500Y-73042500D01*
X148657500Y-72082500D01*
X149617500Y-72082500D01*
X149617500Y-73042500D01*
G37*
X149617500Y-74262500D02*
X148657500Y-74262500D01*
X148657500Y-73302500D01*
X149617500Y-73302500D01*
X149617500Y-74262500D01*
G36*
X149617500Y-74262500D02*
G01*
X148657500Y-74262500D01*
X148657500Y-73302500D01*
X149617500Y-73302500D01*
X149617500Y-74262500D01*
G37*
X150837500Y-73042500D02*
X149877500Y-73042500D01*
X149877500Y-72082500D01*
X150837500Y-72082500D01*
X150837500Y-73042500D01*
G36*
X150837500Y-73042500D02*
G01*
X149877500Y-73042500D01*
X149877500Y-72082500D01*
X150837500Y-72082500D01*
X150837500Y-73042500D01*
G37*
X150837500Y-74262500D02*
X149877500Y-74262500D01*
X149877500Y-73302500D01*
X150837500Y-73302500D01*
X150837500Y-74262500D01*
G36*
X150837500Y-74262500D02*
G01*
X149877500Y-74262500D01*
X149877500Y-73302500D01*
X150837500Y-73302500D01*
X150837500Y-74262500D01*
G37*
%TD*%
D11*
%TO.C,D2*%
X153900000Y-71535000D03*
X153900000Y-70135000D03*
%TD*%
D12*
%TO.C,R17*%
X155305000Y-57900000D03*
X156500000Y-57900000D03*
%TD*%
D13*
%TO.C,U6*%
X147807500Y-74422500D03*
X147807500Y-73922500D03*
X147807500Y-73422500D03*
X147807500Y-72922500D03*
X147807500Y-72422500D03*
X147807500Y-71922500D03*
D14*
X148497500Y-71232500D03*
X148997500Y-71232500D03*
X149497500Y-71232500D03*
X149997500Y-71232500D03*
X150497500Y-71232500D03*
X150997500Y-71232500D03*
D13*
X151687500Y-71922500D03*
X151687500Y-72422500D03*
X151687500Y-72922500D03*
X151687500Y-73422500D03*
X151687500Y-73922500D03*
X151687500Y-74422500D03*
D14*
X150997500Y-75112500D03*
X150497500Y-75112500D03*
X149997500Y-75112500D03*
X149497500Y-75112500D03*
X148997500Y-75112500D03*
X148497500Y-75112500D03*
%TD*%
D15*
%TO.C,R6*%
X146745000Y-83550000D03*
X145550000Y-83550000D03*
%TD*%
D16*
%TO.C,TP6*%
X149500000Y-88500000D03*
%TD*%
D17*
%TO.C,R10*%
X150550000Y-86447500D03*
X150550000Y-85252500D03*
%TD*%
D15*
%TO.C,R14*%
X149197500Y-63400000D03*
X148002500Y-63400000D03*
%TD*%
D17*
%TO.C,R9*%
X151550000Y-86445000D03*
X151550000Y-85250000D03*
%TD*%
D18*
%TO.C,R8*%
X152550000Y-85252500D03*
X152550000Y-86447500D03*
%TD*%
D15*
%TO.C,R12*%
X149400000Y-52400000D03*
X148205000Y-52400000D03*
%TD*%
D12*
%TO.C,R18*%
X144005000Y-78000000D03*
X145200000Y-78000000D03*
%TD*%
D15*
%TO.C,R16*%
X149200000Y-57900000D03*
X148005000Y-57900000D03*
%TD*%
D19*
%TO.C,U1*%
X151245000Y-80747500D03*
D20*
X150745000Y-80687500D03*
X150245000Y-80687500D03*
X149745000Y-80687500D03*
X149245000Y-80687500D03*
X148745000Y-80687500D03*
D21*
X148245000Y-80747500D03*
D22*
X147747500Y-80250000D03*
D23*
X147807500Y-79750000D03*
X147807500Y-79250000D03*
X147807500Y-78750000D03*
X147807500Y-78250000D03*
X147807500Y-77750000D03*
D24*
X147747500Y-77250000D03*
D25*
X148245000Y-76752500D03*
D20*
X148745000Y-76812500D03*
X149245000Y-76812500D03*
X149745000Y-76812500D03*
X150245000Y-76812500D03*
X150745000Y-76812500D03*
D26*
X151245000Y-76752500D03*
D27*
X151742500Y-77250000D03*
D23*
X151682500Y-77750000D03*
X151682500Y-78250000D03*
X151682500Y-78750000D03*
X151682500Y-79250000D03*
X151682500Y-79750000D03*
D28*
X151742500Y-80250000D03*
%TD*%
D15*
%TO.C,R19*%
X145200000Y-77000000D03*
X144005000Y-77000000D03*
%TD*%
D29*
%TO.C,C8*%
X146262500Y-72900000D03*
X144537500Y-72900000D03*
%TD*%
D12*
%TO.C,R15*%
X155305000Y-63400000D03*
X156500000Y-63400000D03*
%TD*%
%TO.C,R5*%
X145602500Y-82500000D03*
X146797500Y-82500000D03*
%TD*%
D30*
%TO.C,C10*%
X155100000Y-71535000D03*
X155100000Y-70400000D03*
%TD*%
D31*
%TO.C,C7*%
X150467500Y-82000000D03*
X149332500Y-82000000D03*
%TD*%
D15*
%TO.C,R7*%
X146745000Y-84600000D03*
X145550000Y-84600000D03*
%TD*%
D31*
%TO.C,C6*%
X150567500Y-83300000D03*
X149432500Y-83300000D03*
%TD*%
D16*
%TO.C,TP5*%
X147750000Y-88500000D03*
%TD*%
D31*
%TO.C,C12*%
X146167500Y-74150000D03*
X145032500Y-74150000D03*
%TD*%
D12*
%TO.C,R13*%
X155202500Y-52300000D03*
X156397500Y-52300000D03*
%TD*%
D16*
%TO.C,TP7*%
X151250000Y-88500000D03*
%TD*%
M02*
