%TF.GenerationSoftware,KiCad,Pcbnew,8.0.8*%
%TF.CreationDate,2025-07-27T02:47:14+02:00*%
%TF.ProjectId,ESC_PCB,4553435f-5043-4422-9e6b-696361645f70,rev?*%
%TF.SameCoordinates,Original*%
%TF.FileFunction,Copper,L1,Top*%
%TF.FilePolarity,Positive*%
%FSLAX46Y46*%
G04 Gerber Fmt 4.6, Leading zero omitted, Abs format (unit mm)*
G04 Created by KiCad (PCBNEW 8.0.8) date 2025-07-27 02:47:14*
%MOMM*%
%LPD*%
G01*
G04 APERTURE LIST*
G04 Aperture macros list*
%AMRoundRect*
0 Rectangle with rounded corners*
0 $1 Rounding radius*
0 $2 $3 $4 $5 $6 $7 $8 $9 X,Y pos of 4 corners*
0 Add a 4 corners polygon primitive as box body*
4,1,4,$2,$3,$4,$5,$6,$7,$8,$9,$2,$3,0*
0 Add four circle primitives for the rounded corners*
1,1,$1+$1,$2,$3*
1,1,$1+$1,$4,$5*
1,1,$1+$1,$6,$7*
1,1,$1+$1,$8,$9*
0 Add four rect primitives between the rounded corners*
20,1,$1+$1,$2,$3,$4,$5,0*
20,1,$1+$1,$4,$5,$6,$7,0*
20,1,$1+$1,$6,$7,$8,$9,0*
20,1,$1+$1,$8,$9,$2,$3,0*%
%AMFreePoly0*
4,1,9,3.862500,-0.866500,0.737500,-0.866500,0.737500,-0.450000,-0.737500,-0.450000,-0.737500,0.450000,0.737500,0.450000,0.737500,0.866500,3.862500,0.866500,3.862500,-0.866500,3.862500,-0.866500,$1*%
G04 Aperture macros list end*
%TA.AperFunction,SMDPad,CuDef*%
%ADD10R,3.750000X4.700000*%
%TD*%
%TA.AperFunction,SMDPad,CuDef*%
%ADD11R,1.050000X0.850000*%
%TD*%
%TA.AperFunction,SMDPad,CuDef*%
%ADD12R,1.450000X0.850000*%
%TD*%
%TA.AperFunction,SMDPad,CuDef*%
%ADD13RoundRect,0.625000X-0.625000X-1.125000X0.625000X-1.125000X0.625000X1.125000X-0.625000X1.125000X0*%
%TD*%
%TA.AperFunction,SMDPad,CuDef*%
%ADD14RoundRect,0.155000X0.212500X0.155000X-0.212500X0.155000X-0.212500X-0.155000X0.212500X-0.155000X0*%
%TD*%
%TA.AperFunction,SMDPad,CuDef*%
%ADD15RoundRect,0.625000X-1.375000X-0.625000X1.375000X-0.625000X1.375000X0.625000X-1.375000X0.625000X0*%
%TD*%
%TA.AperFunction,SMDPad,CuDef*%
%ADD16RoundRect,0.155000X-0.212500X-0.155000X0.212500X-0.155000X0.212500X0.155000X-0.212500X0.155000X0*%
%TD*%
%TA.AperFunction,SMDPad,CuDef*%
%ADD17RoundRect,0.250000X-0.337500X-0.475000X0.337500X-0.475000X0.337500X0.475000X-0.337500X0.475000X0*%
%TD*%
%TA.AperFunction,SMDPad,CuDef*%
%ADD18RoundRect,0.160000X0.197500X0.160000X-0.197500X0.160000X-0.197500X-0.160000X0.197500X-0.160000X0*%
%TD*%
%TA.AperFunction,SMDPad,CuDef*%
%ADD19RoundRect,0.160000X-0.197500X-0.160000X0.197500X-0.160000X0.197500X0.160000X-0.197500X0.160000X0*%
%TD*%
%TA.AperFunction,SMDPad,CuDef*%
%ADD20RoundRect,0.155000X-0.155000X0.212500X-0.155000X-0.212500X0.155000X-0.212500X0.155000X0.212500X0*%
%TD*%
%TA.AperFunction,SMDPad,CuDef*%
%ADD21RoundRect,0.237500X0.287500X0.237500X-0.287500X0.237500X-0.287500X-0.237500X0.287500X-0.237500X0*%
%TD*%
%TA.AperFunction,SMDPad,CuDef*%
%ADD22RoundRect,0.225000X-0.425000X-0.225000X0.425000X-0.225000X0.425000X0.225000X-0.425000X0.225000X0*%
%TD*%
%TA.AperFunction,SMDPad,CuDef*%
%ADD23FreePoly0,0.000000*%
%TD*%
%TA.AperFunction,SMDPad,CuDef*%
%ADD24RoundRect,0.150000X0.150000X-0.512500X0.150000X0.512500X-0.150000X0.512500X-0.150000X-0.512500X0*%
%TD*%
%TA.AperFunction,SMDPad,CuDef*%
%ADD25RoundRect,0.237500X-0.300000X-0.237500X0.300000X-0.237500X0.300000X0.237500X-0.300000X0.237500X0*%
%TD*%
%TA.AperFunction,SMDPad,CuDef*%
%ADD26RoundRect,0.150000X-0.150000X-0.200000X0.150000X-0.200000X0.150000X0.200000X-0.150000X0.200000X0*%
%TD*%
%TA.AperFunction,SMDPad,CuDef*%
%ADD27RoundRect,0.150000X0.150000X0.200000X-0.150000X0.200000X-0.150000X-0.200000X0.150000X-0.200000X0*%
%TD*%
%TA.AperFunction,ViaPad*%
%ADD28C,0.900000*%
%TD*%
%TA.AperFunction,ViaPad*%
%ADD29C,0.400000*%
%TD*%
%TA.AperFunction,ViaPad*%
%ADD30C,0.600000*%
%TD*%
%TA.AperFunction,Conductor*%
%ADD31C,0.500000*%
%TD*%
%TA.AperFunction,Conductor*%
%ADD32C,0.300000*%
%TD*%
%TA.AperFunction,Conductor*%
%ADD33C,1.200000*%
%TD*%
%TA.AperFunction,Conductor*%
%ADD34C,0.200000*%
%TD*%
%TA.AperFunction,Conductor*%
%ADD35C,0.100000*%
%TD*%
%TA.AperFunction,Conductor*%
%ADD36C,0.150000*%
%TD*%
G04 APERTURE END LIST*
D10*
%TO.P,Q6,1,D*%
%TO.N,PHASE_C*%
X153200000Y-65250000D03*
D11*
X150800000Y-67155000D03*
X150800000Y-65885000D03*
X150800000Y-64615000D03*
X150800000Y-63345000D03*
D12*
%TO.P,Q6,2,G*%
%TO.N,Net-(Q6-G)*%
X156500000Y-63345000D03*
%TO.P,Q6,3,S*%
%TO.N,GND*%
X156500000Y-67155000D03*
X156500000Y-65885000D03*
X156500000Y-64615000D03*
%TD*%
D10*
%TO.P,Q4,1,D*%
%TO.N,PHASE_A*%
X153200000Y-59750000D03*
D11*
X150800000Y-61655000D03*
X150800000Y-60385000D03*
X150800000Y-59115000D03*
X150800000Y-57845000D03*
D12*
%TO.P,Q4,2,G*%
%TO.N,Net-(Q4-G)*%
X156500000Y-57845000D03*
%TO.P,Q4,3,S*%
%TO.N,GND*%
X156500000Y-61655000D03*
X156500000Y-60385000D03*
X156500000Y-59115000D03*
%TD*%
D13*
%TO.P,J3,1,Pin_1*%
%TO.N,GND*%
X157550000Y-88050000D03*
%TD*%
D14*
%TO.P,C11,1*%
%TO.N,Net-(D3-K)*%
X152832500Y-70185000D03*
%TO.P,C11,2*%
%TO.N,Net-(U6-VS3)*%
X151697500Y-70185000D03*
%TD*%
D15*
%TO.P,TP9,1,1*%
%TO.N,PHASE_C*%
X156350000Y-49450000D03*
%TD*%
D16*
%TO.P,C4,1*%
%TO.N,+3.3V*%
X149032500Y-79900000D03*
%TO.P,C4,2*%
%TO.N,GND*%
X150167500Y-79900000D03*
%TD*%
D17*
%TO.P,C25,1*%
%TO.N,VDC*%
X142762500Y-71400000D03*
%TO.P,C25,2*%
%TO.N,GND*%
X144837500Y-71400000D03*
%TD*%
D18*
%TO.P,R1,1*%
%TO.N,PHASE_A*%
X147595000Y-68800000D03*
%TO.P,R1,2*%
%TO.N,BEMF_A*%
X146400000Y-68800000D03*
%TD*%
D19*
%TO.P,R3,1*%
%TO.N,BEMF_A*%
X146402500Y-69900000D03*
%TO.P,R3,2*%
%TO.N,BEMF_REF*%
X147597500Y-69900000D03*
%TD*%
D13*
%TO.P,J2,1,Pin_1*%
%TO.N,VDC*%
X141550000Y-88000000D03*
%TD*%
D17*
%TO.P,C24,1*%
%TO.N,VDC*%
X142762500Y-69345000D03*
%TO.P,C24,2*%
%TO.N,GND*%
X144837500Y-69345000D03*
%TD*%
%TO.P,C24,1*%
%TO.N,VDC*%
X142825000Y-75600000D03*
%TO.P,C24,2*%
%TO.N,GND*%
X144900000Y-75600000D03*
%TD*%
D10*
%TO.P,Q5,1,D*%
%TO.N,PHASE_B*%
X153200000Y-54135000D03*
D11*
X150800000Y-56040000D03*
X150800000Y-54770000D03*
X150800000Y-53500000D03*
X150800000Y-52230000D03*
D12*
%TO.P,Q5,2,G*%
%TO.N,Net-(Q5-G)*%
X156500000Y-52230000D03*
%TO.P,Q5,3,S*%
%TO.N,GND*%
X156500000Y-56040000D03*
X156500000Y-54770000D03*
X156500000Y-53500000D03*
%TD*%
D19*
%TO.P,R4,1*%
%TO.N,BEMF_A*%
X146395000Y-71000000D03*
%TO.P,R4,2*%
%TO.N,GND*%
X147590000Y-71000000D03*
%TD*%
D16*
%TO.P,C3,1*%
%TO.N,+5V*%
X144300000Y-81200000D03*
%TO.P,C3,2*%
%TO.N,GND*%
X145435000Y-81200000D03*
%TD*%
D20*
%TO.P,C2,1*%
%TO.N,VDC*%
X144900000Y-86432500D03*
%TO.P,C2,2*%
%TO.N,GND*%
X144900000Y-87567500D03*
%TD*%
D21*
%TO.P,D4,1,K*%
%TO.N,Net-(D4-K)*%
X150000000Y-78600000D03*
%TO.P,D4,2,A*%
%TO.N,+3.3V*%
X148250000Y-78600000D03*
%TD*%
D16*
%TO.P,C1,1*%
%TO.N,VDC*%
X144132500Y-89300000D03*
%TO.P,C1,2*%
%TO.N,GND*%
X145267500Y-89300000D03*
%TD*%
D22*
%TO.P,U4,1,OUT*%
%TO.N,+6V*%
X148100000Y-85600000D03*
D23*
%TO.P,U4,2,GND*%
%TO.N,GND*%
X148187500Y-87100000D03*
D22*
%TO.P,U4,3,IN*%
%TO.N,VDC*%
X148100000Y-88600000D03*
%TD*%
D24*
%TO.P,U2,1,V_{IN}*%
%TO.N,VDC*%
X144500000Y-84975000D03*
%TO.P,U2,2,V_{SS}*%
%TO.N,GND*%
X145450000Y-84975000D03*
%TO.P,U2,3,CE*%
%TO.N,VDC*%
X146400000Y-84975000D03*
%TO.P,U2,4,NC*%
%TO.N,unconnected-(U2-NC-Pad4)*%
X146400000Y-82700000D03*
%TO.P,U2,5,V_{OUT}*%
%TO.N,+5V*%
X144500000Y-82700000D03*
%TD*%
D15*
%TO.P,TP10,1,1*%
%TO.N,PHASE_B*%
X149700000Y-49450000D03*
%TD*%
D10*
%TO.P,Q3,1,D*%
%TO.N,VDC*%
X144500000Y-54250000D03*
D11*
X142100000Y-56155000D03*
X142100000Y-54885000D03*
X142100000Y-53615000D03*
X142100000Y-52345000D03*
D12*
%TO.P,Q3,2,G*%
%TO.N,Net-(Q3-G)*%
X147800000Y-52345000D03*
%TO.P,Q3,3,S*%
%TO.N,PHASE_B*%
X147800000Y-56155000D03*
X147800000Y-54885000D03*
X147800000Y-53615000D03*
%TD*%
D17*
%TO.P,C25,1*%
%TO.N,VDC*%
X142825000Y-77655000D03*
%TO.P,C25,2*%
%TO.N,GND*%
X144900000Y-77655000D03*
%TD*%
D15*
%TO.P,TP11,1,1*%
%TO.N,PHASE_A*%
X142700000Y-49450000D03*
%TD*%
D17*
%TO.P,C26,1*%
%TO.N,VDC*%
X142762500Y-73500000D03*
%TO.P,C26,2*%
%TO.N,GND*%
X144837500Y-73500000D03*
%TD*%
D25*
%TO.P,C23,1*%
%TO.N,+6V*%
X153137500Y-85300000D03*
%TO.P,C23,2*%
%TO.N,GND*%
X154862500Y-85300000D03*
%TD*%
D10*
%TO.P,Q2,1,D*%
%TO.N,VDC*%
X144500000Y-65250000D03*
D11*
X142100000Y-67155000D03*
X142100000Y-65885000D03*
X142100000Y-64615000D03*
X142100000Y-63345000D03*
D12*
%TO.P,Q2,2,G*%
%TO.N,Net-(Q2-G)*%
X147800000Y-63345000D03*
%TO.P,Q2,3,S*%
%TO.N,PHASE_C*%
X147800000Y-67155000D03*
X147800000Y-65885000D03*
X147800000Y-64615000D03*
%TD*%
D26*
%TO.P,D3,1,K*%
%TO.N,Net-(D3-K)*%
X152900000Y-69000000D03*
%TO.P,D3,2,A*%
%TO.N,+6V*%
X151500000Y-69000000D03*
%TD*%
D10*
%TO.P,Q1,1,D*%
%TO.N,VDC*%
X144450000Y-59750000D03*
D11*
X142050000Y-61655000D03*
X142050000Y-60385000D03*
X142050000Y-59115000D03*
X142050000Y-57845000D03*
D12*
%TO.P,Q1,2,G*%
%TO.N,Net-(Q1-G)*%
X147750000Y-57845000D03*
%TO.P,Q1,3,S*%
%TO.N,PHASE_A*%
X147750000Y-61655000D03*
X147750000Y-60385000D03*
X147750000Y-59115000D03*
%TD*%
D17*
%TO.P,C26,1*%
%TO.N,VDC*%
X142825000Y-79755000D03*
%TO.P,C26,2*%
%TO.N,GND*%
X144900000Y-79755000D03*
%TD*%
D24*
%TO.P,U3,1,V_{IN}*%
%TO.N,+6V*%
X149050000Y-83637500D03*
%TO.P,U3,2,V_{SS}*%
%TO.N,GND*%
X150000000Y-83637500D03*
%TO.P,U3,3,CE*%
%TO.N,+6V*%
X150950000Y-83637500D03*
%TO.P,U3,4,NC*%
%TO.N,unconnected-(U3-NC-Pad4)*%
X150950000Y-81362500D03*
%TO.P,U3,5,V_{OUT}*%
%TO.N,+3.3V*%
X149050000Y-81362500D03*
%TD*%
D19*
%TO.P,R11,1*%
%TO.N,Net-(D4-K)*%
X151400000Y-78800000D03*
%TO.P,R11,2*%
%TO.N,GND*%
X152595000Y-78800000D03*
%TD*%
D27*
%TO.P,D1,1,K*%
%TO.N,Net-(D1-K)*%
X153200000Y-75700000D03*
%TO.P,D1,2,A*%
%TO.N,+6V*%
X154600000Y-75700000D03*
%TD*%
D16*
%TO.P,C9,1*%
%TO.N,Net-(D1-K)*%
X153232500Y-74400000D03*
%TO.P,C9,2*%
%TO.N,Net-(U6-VS1)*%
X154367500Y-74400000D03*
%TD*%
D28*
%TO.N,VDC*%
X142700000Y-69500000D03*
X142700000Y-88500000D03*
X140700000Y-79500000D03*
X142700000Y-56400000D03*
X142700000Y-58400000D03*
X142700000Y-59500000D03*
X140700000Y-63500000D03*
X141700000Y-66500000D03*
X141700000Y-68500000D03*
X140700000Y-66500000D03*
X142700000Y-82500000D03*
X141700000Y-75500000D03*
X141700000Y-53400000D03*
X141700000Y-69500000D03*
X141700000Y-64500000D03*
X141700000Y-55400000D03*
X140700000Y-71500000D03*
X140700000Y-58400000D03*
X141700000Y-79500000D03*
X141700000Y-85500000D03*
X140700000Y-82500000D03*
X140700000Y-57400000D03*
X140700000Y-84500000D03*
X142700000Y-63500000D03*
X142700000Y-84500000D03*
X140700000Y-86500000D03*
X142700000Y-85500000D03*
X142700000Y-71500000D03*
X142700000Y-86500000D03*
X141700000Y-54400000D03*
X141700000Y-58400000D03*
X141700000Y-88500000D03*
X142700000Y-60500000D03*
X141700000Y-80500000D03*
X141700000Y-56400000D03*
X141700000Y-72500000D03*
X142700000Y-57400000D03*
X142700000Y-68500000D03*
X140700000Y-54400000D03*
X140700000Y-83500000D03*
X140700000Y-87500000D03*
X141700000Y-81500000D03*
X142700000Y-77500000D03*
X140700000Y-73500000D03*
X140700000Y-61500000D03*
X142700000Y-73500000D03*
X140700000Y-60500000D03*
X140700000Y-72500000D03*
X141700000Y-74500000D03*
X142700000Y-72500000D03*
X142700000Y-65500000D03*
X142700000Y-75500000D03*
X141700000Y-82500000D03*
X141700000Y-63500000D03*
X141700000Y-61500000D03*
X142700000Y-54400000D03*
X142700000Y-74500000D03*
X141700000Y-60500000D03*
X141700000Y-62500000D03*
X141700000Y-78500000D03*
X140700000Y-65500000D03*
X142700000Y-83500000D03*
X140700000Y-53400000D03*
X140700000Y-68500000D03*
X141700000Y-86500000D03*
X142700000Y-70500000D03*
X141700000Y-59500000D03*
X142700000Y-52400000D03*
X141700000Y-70500000D03*
X140700000Y-70500000D03*
X141700000Y-76500000D03*
X142700000Y-53400000D03*
X140700000Y-74500000D03*
X141700000Y-73500000D03*
X142700000Y-76500000D03*
X142700000Y-78500000D03*
X140700000Y-64500000D03*
X142700000Y-64500000D03*
X140700000Y-75500000D03*
X140700000Y-67500000D03*
X140700000Y-76500000D03*
X142700000Y-80500000D03*
X141700000Y-77500000D03*
X140700000Y-80500000D03*
X141700000Y-65500000D03*
X142700000Y-87500000D03*
X140700000Y-85500000D03*
X140700000Y-88500000D03*
X141700000Y-71500000D03*
X140700000Y-55400000D03*
X141700000Y-83500000D03*
X142700000Y-67500000D03*
X141700000Y-57400000D03*
X142700000Y-66500000D03*
X142700000Y-55400000D03*
X140700000Y-81500000D03*
X140700000Y-77500000D03*
X141700000Y-52400000D03*
X142700000Y-81500000D03*
X140700000Y-62500000D03*
X140700000Y-69500000D03*
X141700000Y-84500000D03*
X142700000Y-62500000D03*
X141700000Y-87500000D03*
X142700000Y-79500000D03*
X140700000Y-52400000D03*
X140700000Y-59500000D03*
X140700000Y-56400000D03*
X142700000Y-61500000D03*
X140700000Y-78500000D03*
X141700000Y-67500000D03*
%TO.N,GND*%
X158200000Y-76200000D03*
X157200000Y-86200000D03*
X156200000Y-67200000D03*
D29*
X154700000Y-79100000D03*
D28*
X158200000Y-88200000D03*
X156200000Y-79200000D03*
X156200000Y-81200000D03*
X157200000Y-73200000D03*
X158200000Y-83200000D03*
X158200000Y-56100000D03*
X158200000Y-53100000D03*
X158200000Y-82200000D03*
X158200000Y-74200000D03*
X158200000Y-68200000D03*
X156200000Y-65200000D03*
X156200000Y-71200000D03*
X157200000Y-78200000D03*
X158200000Y-77200000D03*
D29*
X147590000Y-71000000D03*
D28*
X158200000Y-81200000D03*
X156200000Y-55100000D03*
X157200000Y-74200000D03*
X158200000Y-87200000D03*
X158200000Y-80200000D03*
X157200000Y-69200000D03*
D29*
X145435000Y-81200000D03*
D28*
X156200000Y-80200000D03*
X158200000Y-84200000D03*
X157200000Y-81200000D03*
X157200000Y-65200000D03*
X146100000Y-87700000D03*
X157200000Y-60200000D03*
X156200000Y-87200000D03*
X144837500Y-69345000D03*
X156200000Y-60200000D03*
X158200000Y-69200000D03*
X157200000Y-88200000D03*
D29*
X145575000Y-83575000D03*
D28*
X156200000Y-62200000D03*
X158200000Y-86200000D03*
X157200000Y-70200000D03*
X158200000Y-64200000D03*
X156200000Y-82200000D03*
X157200000Y-72200000D03*
X157200000Y-55100000D03*
D29*
X151950000Y-82925000D03*
D28*
X157200000Y-83200000D03*
X144537500Y-72900000D03*
X156200000Y-61200000D03*
X158200000Y-66200000D03*
X156200000Y-68200000D03*
X158200000Y-55100000D03*
X158200000Y-60200000D03*
X157200000Y-68200000D03*
X158200000Y-71200000D03*
X157200000Y-59200000D03*
X158200000Y-57100000D03*
X156200000Y-69200000D03*
X158200000Y-65200000D03*
X156200000Y-54100000D03*
X156200000Y-83200000D03*
X157200000Y-84200000D03*
X157200000Y-76200000D03*
X157200000Y-75200000D03*
X156200000Y-86200000D03*
X158200000Y-78200000D03*
X151250000Y-88500000D03*
X158200000Y-79200000D03*
X156200000Y-73200000D03*
D29*
X144000000Y-76300000D03*
D28*
X144900000Y-79700000D03*
X156200000Y-72200000D03*
X156200000Y-76200000D03*
X158200000Y-58100000D03*
X157200000Y-62200000D03*
X144900000Y-75600000D03*
D29*
X146500000Y-89300000D03*
D28*
X156200000Y-85200000D03*
X156200000Y-88200000D03*
X158200000Y-67200000D03*
X157200000Y-56100000D03*
X157200000Y-71200000D03*
X157200000Y-87200000D03*
X158200000Y-72200000D03*
X158200000Y-54100000D03*
X157200000Y-67200000D03*
X156200000Y-66200000D03*
X158200000Y-52100000D03*
X158200000Y-70200000D03*
X156200000Y-77200000D03*
X156200000Y-84200000D03*
X158200000Y-62200000D03*
X156200000Y-70200000D03*
X155100000Y-82525000D03*
X144837500Y-71400000D03*
X156200000Y-75200000D03*
X157200000Y-82200000D03*
X158200000Y-61200000D03*
X157200000Y-66200000D03*
X158200000Y-73200000D03*
X158200000Y-85200000D03*
X158200000Y-75200000D03*
X156200000Y-56100000D03*
X157200000Y-80200000D03*
X158200000Y-63200000D03*
X156200000Y-59200000D03*
X157200000Y-61200000D03*
X157200000Y-77200000D03*
X158200000Y-59200000D03*
X156200000Y-78200000D03*
X156200000Y-74200000D03*
X157200000Y-79200000D03*
X157200000Y-54100000D03*
X157200000Y-85200000D03*
%TO.N,+5V*%
X144500000Y-82600000D03*
D29*
%TO.N,+3.3V*%
X154700000Y-73100000D03*
D28*
X147929013Y-81741010D03*
D29*
X152550000Y-81525000D03*
%TO.N,+6V*%
X149100000Y-68600000D03*
D30*
X148150000Y-85600000D03*
D28*
X146450000Y-72900000D03*
D30*
X153000000Y-77400000D03*
D29*
X153900000Y-70135000D03*
%TO.N,Net-(D1-K)*%
X150497500Y-75800000D03*
%TO.N,Net-(U6-VS1)*%
X155300000Y-74100000D03*
%TO.N,Net-(D3-K)*%
X152800000Y-72000000D03*
%TO.N,Net-(U6-VS3)*%
X151225000Y-70200000D03*
%TO.N,Net-(Q1-G)*%
X148005000Y-57900000D03*
D28*
%TO.N,PHASE_A*%
X145400000Y-49675000D03*
X142400000Y-49675000D03*
X142400000Y-50675000D03*
X150800000Y-57845000D03*
X147750000Y-61655000D03*
X144400000Y-48675000D03*
X143400000Y-48675000D03*
X141400000Y-49675000D03*
X150800000Y-61655000D03*
X145400000Y-50675000D03*
X143400000Y-49675000D03*
X144400000Y-49675000D03*
X149300000Y-61900000D03*
X150800000Y-59115000D03*
X142400000Y-48675000D03*
X141400000Y-50675000D03*
X149300000Y-60900000D03*
X150800000Y-60385000D03*
D29*
X147595000Y-68800000D03*
D28*
X147750000Y-59115000D03*
X141400000Y-48675000D03*
X149300000Y-59900000D03*
X144400000Y-50675000D03*
X145400000Y-48675000D03*
X147750000Y-60385000D03*
X149300000Y-58900000D03*
X143400000Y-50675000D03*
%TO.N,PHASE_C*%
X153400000Y-49675000D03*
X155500000Y-50675000D03*
X149400000Y-67300000D03*
D29*
X152550000Y-83700000D03*
D28*
X157600000Y-49675000D03*
X149400000Y-66400000D03*
X154500000Y-49675000D03*
X157600000Y-50675000D03*
X154500000Y-48675000D03*
X153200000Y-63300000D03*
X156600000Y-49675000D03*
X147800000Y-65885000D03*
X153400000Y-50675000D03*
X149400000Y-65500000D03*
X157600000Y-48675000D03*
X147800000Y-67155000D03*
X156600000Y-50675000D03*
X155500000Y-49675000D03*
X156600000Y-48675000D03*
X149400000Y-64600000D03*
X153400000Y-48675000D03*
X150800000Y-65885000D03*
X150800000Y-67155000D03*
X155500000Y-48675000D03*
X154500000Y-50675000D03*
X147800000Y-64615000D03*
X153200000Y-64300000D03*
D29*
%TO.N,Net-(Q2-G)*%
X148002500Y-63400000D03*
%TO.N,Net-(Q3-G)*%
X148205000Y-52400000D03*
D28*
%TO.N,PHASE_B*%
X147800000Y-56155000D03*
X147800000Y-54885000D03*
X149100000Y-50675000D03*
X151100000Y-48675000D03*
X148100000Y-50675000D03*
X149400000Y-54300000D03*
X149400000Y-56100000D03*
X149400000Y-55200000D03*
X152100000Y-48675000D03*
X152100000Y-49675000D03*
X151100000Y-49675000D03*
X150100000Y-48675000D03*
X147100000Y-48675000D03*
X149400000Y-53400000D03*
X150100000Y-50675000D03*
X148100000Y-49675000D03*
X149100000Y-49675000D03*
X150800000Y-56040000D03*
X150800000Y-54770000D03*
D29*
X146475000Y-81350000D03*
D28*
X152100000Y-52900000D03*
X152100000Y-53900000D03*
X150800000Y-52230000D03*
X152100000Y-55900000D03*
X152100000Y-50675000D03*
X150800000Y-53500000D03*
X148100000Y-48675000D03*
X150100000Y-49675000D03*
X147100000Y-50675000D03*
X149100000Y-48675000D03*
X151100000Y-50675000D03*
X147800000Y-53615000D03*
X147100000Y-49675000D03*
X152100000Y-54900000D03*
D29*
%TO.N,Net-(Q4-G)*%
X156500000Y-57900000D03*
%TO.N,Net-(Q5-G)*%
X156397500Y-52300000D03*
%TO.N,Net-(Q6-G)*%
X156500000Y-63400000D03*
%TO.N,BEMF_A*%
X146425000Y-80250000D03*
%TO.N,BEMF_REF*%
X153200000Y-80600000D03*
%TO.N,BEMF_B*%
X148184620Y-83934620D03*
X146650000Y-79300000D03*
%TO.N,GHB*%
X152700000Y-73400000D03*
X149400000Y-52400000D03*
%TO.N,GLB*%
X154250000Y-69025000D03*
X155400000Y-51500000D03*
%TO.N,GHC*%
X152800000Y-71100000D03*
X149197500Y-63400000D03*
%TO.N,GLC*%
X155150000Y-68500000D03*
X155500000Y-62600000D03*
%TO.N,GHA*%
X149200000Y-57900000D03*
X152000000Y-75200000D03*
%TO.N,GLA*%
X155500000Y-57100000D03*
X155100000Y-69600000D03*
%TD*%
D31*
%TO.N,VDC*%
X146400000Y-86100000D02*
X146200000Y-86300000D01*
X144132500Y-89300000D02*
X143300000Y-89300000D01*
X146200000Y-86300000D02*
X144700000Y-86300000D01*
X148100000Y-88600000D02*
X142150000Y-88600000D01*
X144500000Y-86100000D02*
X144500000Y-84975000D01*
X142925000Y-84975000D02*
X142900000Y-85000000D01*
X146400000Y-84975000D02*
X146400000Y-86100000D01*
X144500000Y-84975000D02*
X142925000Y-84975000D01*
X142150000Y-88600000D02*
X141550000Y-88000000D01*
X143300000Y-89300000D02*
X143100000Y-89100000D01*
X144700000Y-86300000D02*
X144500000Y-86100000D01*
%TO.N,GND*%
X145267500Y-89300000D02*
X146500000Y-89300000D01*
X145737500Y-83862500D02*
X145575000Y-83575000D01*
X145032500Y-87700000D02*
X144900000Y-87567500D01*
X148300000Y-82900000D02*
X147337500Y-83862500D01*
D32*
X152397500Y-78800000D02*
X154400000Y-78800000D01*
D31*
X155100000Y-82525000D02*
X156225000Y-82525000D01*
D33*
X144900000Y-79755000D02*
X144900000Y-79700000D01*
D31*
X150450001Y-82525000D02*
X155100000Y-82525000D01*
X153900000Y-79900000D02*
X154700000Y-79100000D01*
X145450000Y-84975000D02*
X145450000Y-84150000D01*
X146100000Y-87700000D02*
X145032500Y-87700000D01*
X147337500Y-83862500D02*
X145737500Y-83862500D01*
X145575000Y-83575000D02*
X145450000Y-84150000D01*
D33*
X144900000Y-79700000D02*
X144900000Y-75600000D01*
D31*
X150000000Y-82975001D02*
X150450001Y-82525000D01*
X154862500Y-85300000D02*
X156700000Y-85300000D01*
D33*
X144900000Y-69407500D02*
X144837500Y-69345000D01*
D31*
X148672316Y-82500000D02*
X148300000Y-82872316D01*
X156225000Y-82525000D02*
X156300000Y-82600000D01*
X149524999Y-82500000D02*
X148672316Y-82500000D01*
D32*
X154400000Y-78800000D02*
X154700000Y-79100000D01*
D31*
X149524999Y-82500000D02*
X150000000Y-82975001D01*
X150167500Y-79900000D02*
X153900000Y-79900000D01*
X148187500Y-87100000D02*
X146700000Y-87100000D01*
X150000000Y-83637500D02*
X150000000Y-82975001D01*
X148300000Y-82872316D02*
X148300000Y-82900000D01*
X146700000Y-87100000D02*
X146100000Y-87700000D01*
D33*
X144900000Y-75600000D02*
X144900000Y-69407500D01*
D31*
%TO.N,+5V*%
X144500000Y-82600000D02*
X144500000Y-81400000D01*
X144500000Y-82700000D02*
X144500000Y-82600000D01*
X144500000Y-81400000D02*
X144300000Y-81200000D01*
%TO.N,+3.3V*%
X148307523Y-81362500D02*
X149050000Y-81362500D01*
D32*
X149032500Y-79382500D02*
X149032500Y-79900000D01*
D31*
X149050000Y-79917500D02*
X149032500Y-79900000D01*
X147929013Y-81741010D02*
X148307523Y-81362500D01*
X149050000Y-81362500D02*
X149050000Y-79917500D01*
D32*
X148250000Y-78600000D02*
X149032500Y-79382500D01*
%TO.N,+6V*%
X153000000Y-77400000D02*
X153000000Y-77300000D01*
D34*
X153750000Y-68850000D02*
X153250000Y-68350000D01*
D31*
X148100000Y-85600000D02*
X148100000Y-85600000D01*
X149150000Y-84750000D02*
X149050000Y-84650000D01*
D34*
X153750000Y-69985000D02*
X153750000Y-68850000D01*
D31*
X149050000Y-84650000D02*
X148150000Y-85550000D01*
X151950001Y-85300000D02*
X150950000Y-84299999D01*
D32*
X153000000Y-77300000D02*
X154600000Y-75700000D01*
D31*
X153137500Y-85300000D02*
X151950001Y-85300000D01*
X148150000Y-85600000D02*
X148100000Y-85600000D01*
X150950000Y-83637500D02*
X150950000Y-84299999D01*
D34*
X153250000Y-68350000D02*
X152150000Y-68350000D01*
D31*
X148150000Y-85550000D02*
X148150000Y-85600000D01*
D34*
X153900000Y-70135000D02*
X153750000Y-69985000D01*
D31*
X151500000Y-69000000D02*
X149500000Y-69000000D01*
X150950000Y-84299999D02*
X150499999Y-84750000D01*
X150499999Y-84750000D02*
X149150000Y-84750000D01*
D34*
X152150000Y-68350000D02*
X151500000Y-69000000D01*
D31*
X149050000Y-83637500D02*
X149050000Y-84650000D01*
X149500000Y-69000000D02*
X149100000Y-68600000D01*
D35*
%TO.N,Net-(D1-K)*%
X153200000Y-75700000D02*
X150597500Y-75700000D01*
X150597500Y-75700000D02*
X150497500Y-75800000D01*
X153232500Y-75667500D02*
X153200000Y-75700000D01*
X153232500Y-74400000D02*
X153232500Y-75667500D01*
%TO.N,Net-(U6-VS1)*%
X154367500Y-74400000D02*
X155000000Y-74400000D01*
X155000000Y-74400000D02*
X155300000Y-74100000D01*
%TO.N,Net-(D3-K)*%
X153136397Y-72000000D02*
X152800000Y-72000000D01*
X153250000Y-71886397D02*
X153136397Y-72000000D01*
X152832500Y-70185000D02*
X152832500Y-70267500D01*
X152900000Y-70117500D02*
X152832500Y-70185000D01*
X153250000Y-70685000D02*
X153250000Y-71886397D01*
X152900000Y-69000000D02*
X152900000Y-70117500D01*
X152832500Y-70267500D02*
X153250000Y-70685000D01*
%TO.N,Net-(U6-VS3)*%
X151697500Y-70185000D02*
X151240000Y-70185000D01*
X151240000Y-70185000D02*
X151225000Y-70200000D01*
D32*
%TO.N,Net-(D4-K)*%
X151225000Y-78800000D02*
X151025000Y-78600000D01*
X151025000Y-78600000D02*
X150000000Y-78600000D01*
D35*
%TO.N,BEMF_A*%
X145750000Y-71645000D02*
X146395000Y-71000000D01*
X146400000Y-68800000D02*
X146400000Y-69897500D01*
X146402500Y-70992500D02*
X146395000Y-71000000D01*
X145750000Y-79575000D02*
X145750000Y-71645000D01*
X146400000Y-69897500D02*
X146402500Y-69900000D01*
X146402500Y-69900000D02*
X146402500Y-70992500D01*
X146425000Y-80250000D02*
X145750000Y-79575000D01*
D36*
%TO.N,BEMF_REF*%
X155400000Y-78500000D02*
X155400000Y-79900000D01*
X155400000Y-79900000D02*
X154700000Y-80600000D01*
X149600000Y-69900000D02*
X150000000Y-70300000D01*
X151500000Y-78100000D02*
X155000000Y-78100000D01*
X150000000Y-70300000D02*
X150000000Y-76600000D01*
X147597500Y-69900000D02*
X149600000Y-69900000D01*
X150000000Y-76600000D02*
X151500000Y-78100000D01*
X154700000Y-80600000D02*
X153200000Y-80600000D01*
X155000000Y-78100000D02*
X155400000Y-78500000D01*
%TD*%
%TA.AperFunction,Conductor*%
%TO.N,PHASE_C*%
G36*
X158742539Y-48220185D02*
G01*
X158788294Y-48272989D01*
X158799500Y-48324500D01*
X158799500Y-51376000D01*
X158779815Y-51443039D01*
X158727011Y-51488794D01*
X158675500Y-51500000D01*
X158487118Y-51500000D01*
X158439975Y-51488381D01*
X158439376Y-51489963D01*
X158432366Y-51487304D01*
X158278985Y-51449500D01*
X158121015Y-51449500D01*
X157967633Y-51487304D01*
X157960624Y-51489963D01*
X157960024Y-51488381D01*
X157912882Y-51500000D01*
X155911398Y-51500000D01*
X155844359Y-51480315D01*
X155798604Y-51427511D01*
X155788925Y-51395399D01*
X155785646Y-51374696D01*
X155728050Y-51261658D01*
X155728046Y-51261654D01*
X155728045Y-51261652D01*
X155638347Y-51171954D01*
X155638344Y-51171952D01*
X155638342Y-51171950D01*
X155525304Y-51114354D01*
X155525303Y-51114353D01*
X155525300Y-51114352D01*
X155400003Y-51094508D01*
X155399997Y-51094508D01*
X155274699Y-51114352D01*
X155274698Y-51114352D01*
X155199337Y-51152751D01*
X155161658Y-51171950D01*
X155161657Y-51171951D01*
X155161652Y-51171954D01*
X155065049Y-51268558D01*
X155062579Y-51266088D01*
X155021204Y-51297967D01*
X154951588Y-51303918D01*
X154949927Y-51303569D01*
X154946521Y-51302828D01*
X154944618Y-51302554D01*
X154888602Y-51294500D01*
X154888598Y-51294500D01*
X152929500Y-51294500D01*
X152862461Y-51274815D01*
X152816706Y-51222011D01*
X152805500Y-51170500D01*
X152805500Y-48324500D01*
X152825185Y-48257461D01*
X152877989Y-48211706D01*
X152929500Y-48200500D01*
X158675500Y-48200500D01*
X158742539Y-48220185D01*
G37*
%TD.AperFunction*%
%TD*%
%TA.AperFunction,Conductor*%
%TO.N,GND*%
G36*
X158742539Y-52919685D02*
G01*
X158788294Y-52972489D01*
X158799500Y-53024000D01*
X158799500Y-89675500D01*
X158779815Y-89742539D01*
X158727011Y-89788294D01*
X158675500Y-89799500D01*
X155700000Y-89799500D01*
X155700000Y-74134678D01*
X155705492Y-74100003D01*
X155705492Y-74099996D01*
X155700000Y-74065320D01*
X155700000Y-67720705D01*
X155715780Y-67660171D01*
X155717786Y-67656585D01*
X155751990Y-67595437D01*
X155771675Y-67528398D01*
X155780000Y-67470500D01*
X155780000Y-67407853D01*
X155776633Y-67370808D01*
X155768574Y-67326835D01*
X155768540Y-67326715D01*
X155768507Y-67326546D01*
X155767942Y-67324095D01*
X155768015Y-67324077D01*
X155764888Y-67308357D01*
X155753545Y-67214937D01*
X155753545Y-67185058D01*
X155764887Y-67091640D01*
X155768019Y-67075911D01*
X155767945Y-67075894D01*
X155768514Y-67073426D01*
X155768546Y-67073266D01*
X155768576Y-67073160D01*
X155776634Y-67029190D01*
X155780000Y-66992147D01*
X155780000Y-66762273D01*
X155794826Y-66703477D01*
X155797092Y-66699268D01*
X155797093Y-66699267D01*
X155815300Y-66656068D01*
X155817383Y-66650932D01*
X155830825Y-66560470D01*
X155825458Y-66490807D01*
X155812710Y-66433719D01*
X155770092Y-66321348D01*
X155762941Y-66292335D01*
X155753545Y-66214939D01*
X155753545Y-66185059D01*
X155764887Y-66091643D01*
X155768019Y-66075911D01*
X155767945Y-66075894D01*
X155768514Y-66073426D01*
X155768546Y-66073266D01*
X155768576Y-66073160D01*
X155776634Y-66029190D01*
X155780000Y-65992147D01*
X155780000Y-65461542D01*
X155782247Y-65453889D01*
X155780439Y-65432461D01*
X155780000Y-65422035D01*
X155780000Y-65412578D01*
X155779802Y-65412216D01*
X155777397Y-65396158D01*
X155773867Y-65353770D01*
X155767796Y-65326976D01*
X155765641Y-65314559D01*
X155753545Y-65214937D01*
X155753545Y-65185058D01*
X155764887Y-65091640D01*
X155768019Y-65075911D01*
X155767945Y-65075894D01*
X155768514Y-65073426D01*
X155768546Y-65073266D01*
X155768576Y-65073160D01*
X155776634Y-65029190D01*
X155780000Y-64992147D01*
X155780000Y-64229085D01*
X155799685Y-64162046D01*
X155800287Y-64161117D01*
X155801038Y-64159971D01*
X155803430Y-64156248D01*
X155828717Y-64099535D01*
X155839099Y-64061693D01*
X155875818Y-64002251D01*
X155938846Y-63972096D01*
X155958680Y-63970500D01*
X157244750Y-63970500D01*
X157244751Y-63970499D01*
X157259568Y-63967552D01*
X157303229Y-63958868D01*
X157303229Y-63958867D01*
X157303231Y-63958867D01*
X157369552Y-63914552D01*
X157413867Y-63848231D01*
X157413867Y-63848229D01*
X157413868Y-63848229D01*
X157425499Y-63789752D01*
X157425500Y-63789750D01*
X157425500Y-62900249D01*
X157425499Y-62900247D01*
X157413868Y-62841770D01*
X157413867Y-62841769D01*
X157369552Y-62775447D01*
X157303230Y-62731132D01*
X157303229Y-62731131D01*
X157244752Y-62719500D01*
X157244748Y-62719500D01*
X156029492Y-62719500D01*
X155962453Y-62699815D01*
X155916698Y-62647011D01*
X155908516Y-62609400D01*
X155907019Y-62609638D01*
X155885647Y-62474699D01*
X155885647Y-62474698D01*
X155885646Y-62474696D01*
X155828050Y-62361658D01*
X155828046Y-62361654D01*
X155828045Y-62361652D01*
X155774355Y-62307962D01*
X155740870Y-62246639D01*
X155744932Y-62179504D01*
X155746308Y-62175549D01*
X155746315Y-62175535D01*
X155761559Y-62119059D01*
X155764885Y-62091655D01*
X155768015Y-62075937D01*
X155767940Y-62075920D01*
X155768525Y-62073380D01*
X155768552Y-62073246D01*
X155768576Y-62073160D01*
X155776634Y-62029190D01*
X155780000Y-61992147D01*
X155780000Y-61407853D01*
X155776633Y-61370808D01*
X155768574Y-61326835D01*
X155768540Y-61326715D01*
X155768507Y-61326546D01*
X155767942Y-61324095D01*
X155768015Y-61324077D01*
X155764888Y-61308357D01*
X155753545Y-61214937D01*
X155753545Y-61185058D01*
X155762942Y-61107658D01*
X155770094Y-61078643D01*
X155779837Y-61052956D01*
X155785720Y-61034994D01*
X155791808Y-61013038D01*
X155798102Y-60936157D01*
X155793316Y-60891651D01*
X155794752Y-60883686D01*
X155791421Y-60866935D01*
X155791419Y-60866920D01*
X155790845Y-60864036D01*
X155789166Y-60853068D01*
X155788743Y-60849139D01*
X155785278Y-60836048D01*
X155782381Y-60821480D01*
X155780000Y-60797298D01*
X155780000Y-60407854D01*
X155776634Y-60370818D01*
X155776633Y-60370817D01*
X155776633Y-60370808D01*
X155768574Y-60326835D01*
X155768540Y-60326715D01*
X155768507Y-60326546D01*
X155767942Y-60324095D01*
X155768015Y-60324077D01*
X155764888Y-60308357D01*
X155753545Y-60214937D01*
X155753545Y-60185058D01*
X155764887Y-60091640D01*
X155768019Y-60075911D01*
X155767945Y-60075894D01*
X155768514Y-60073426D01*
X155768546Y-60073266D01*
X155768576Y-60073160D01*
X155776634Y-60029190D01*
X155780000Y-59992147D01*
X155780000Y-59992145D01*
X155780254Y-59989350D01*
X155781336Y-59989448D01*
X155800104Y-59931395D01*
X155801038Y-59929971D01*
X155803430Y-59926248D01*
X155828717Y-59869535D01*
X155847202Y-59802155D01*
X155852357Y-59777554D01*
X155845136Y-59686383D01*
X155824259Y-59619706D01*
X155799014Y-59566940D01*
X155799013Y-59566939D01*
X155799012Y-59566936D01*
X155796823Y-59563092D01*
X155798503Y-59562134D01*
X155780019Y-59503051D01*
X155780000Y-59500868D01*
X155780000Y-59407854D01*
X155776634Y-59370818D01*
X155776633Y-59370817D01*
X155776633Y-59370808D01*
X155768574Y-59326835D01*
X155768540Y-59326715D01*
X155768507Y-59326546D01*
X155767942Y-59324095D01*
X155768015Y-59324077D01*
X155764888Y-59308357D01*
X155753545Y-59214937D01*
X155753545Y-59185058D01*
X155764887Y-59091640D01*
X155768019Y-59075911D01*
X155767945Y-59075894D01*
X155768514Y-59073426D01*
X155768546Y-59073266D01*
X155768576Y-59073160D01*
X155776634Y-59029190D01*
X155780000Y-58992147D01*
X155780000Y-58729085D01*
X155799685Y-58662046D01*
X155800287Y-58661117D01*
X155801038Y-58659971D01*
X155803430Y-58656248D01*
X155828717Y-58599535D01*
X155839099Y-58561693D01*
X155875818Y-58502251D01*
X155938846Y-58472096D01*
X155958680Y-58470500D01*
X157244750Y-58470500D01*
X157244751Y-58470499D01*
X157259568Y-58467552D01*
X157303229Y-58458868D01*
X157303229Y-58458867D01*
X157303231Y-58458867D01*
X157369552Y-58414552D01*
X157413867Y-58348231D01*
X157413867Y-58348229D01*
X157413868Y-58348229D01*
X157425499Y-58289752D01*
X157425500Y-58289750D01*
X157425500Y-57400249D01*
X157425499Y-57400247D01*
X157413868Y-57341770D01*
X157413867Y-57341769D01*
X157369552Y-57275447D01*
X157303230Y-57231132D01*
X157303229Y-57231131D01*
X157244752Y-57219500D01*
X157244748Y-57219500D01*
X156029492Y-57219500D01*
X155962453Y-57199815D01*
X155916698Y-57147011D01*
X155908516Y-57109400D01*
X155907019Y-57109638D01*
X155885647Y-56974699D01*
X155885647Y-56974698D01*
X155885646Y-56974696D01*
X155828050Y-56861658D01*
X155828046Y-56861654D01*
X155828045Y-56861652D01*
X155795217Y-56828824D01*
X155761732Y-56767501D01*
X155764946Y-56702889D01*
X155785968Y-56638078D01*
X155792195Y-56568487D01*
X155789064Y-56510080D01*
X155782383Y-56476492D01*
X155780000Y-56452301D01*
X155780000Y-56307854D01*
X155776634Y-56270818D01*
X155776633Y-56270817D01*
X155776633Y-56270808D01*
X155768574Y-56226835D01*
X155768540Y-56226715D01*
X155768507Y-56226546D01*
X155767942Y-56224095D01*
X155768015Y-56224077D01*
X155764888Y-56208357D01*
X155753545Y-56114937D01*
X155753545Y-56085058D01*
X155764887Y-55991640D01*
X155768019Y-55975911D01*
X155767945Y-55975894D01*
X155768514Y-55973426D01*
X155768546Y-55973266D01*
X155768576Y-55973160D01*
X155776634Y-55929190D01*
X155780000Y-55892147D01*
X155780000Y-55645965D01*
X155793480Y-55592987D01*
X155792186Y-55592368D01*
X155793455Y-55589714D01*
X155793464Y-55589698D01*
X155811671Y-55546499D01*
X155813754Y-55541363D01*
X155827196Y-55450901D01*
X155821829Y-55381238D01*
X155809081Y-55324150D01*
X155809079Y-55324146D01*
X155809078Y-55324140D01*
X155770095Y-55221355D01*
X155762941Y-55192335D01*
X155753545Y-55114939D01*
X155753545Y-55085059D01*
X155764887Y-54991643D01*
X155768019Y-54975911D01*
X155767945Y-54975894D01*
X155768514Y-54973426D01*
X155768546Y-54973266D01*
X155768576Y-54973160D01*
X155776634Y-54929190D01*
X155780000Y-54892147D01*
X155780000Y-54331572D01*
X155782288Y-54323778D01*
X155781082Y-54314704D01*
X155780000Y-54298362D01*
X155780000Y-54298167D01*
X155779080Y-54296483D01*
X155777327Y-54286463D01*
X155771444Y-54242208D01*
X155771439Y-54242175D01*
X155771035Y-54239142D01*
X155771034Y-54239134D01*
X155768314Y-54228366D01*
X155765446Y-54212957D01*
X155753545Y-54114938D01*
X155753545Y-54085058D01*
X155764887Y-53991640D01*
X155768019Y-53975911D01*
X155767945Y-53975894D01*
X155768514Y-53973426D01*
X155768546Y-53973266D01*
X155768576Y-53973160D01*
X155776634Y-53929190D01*
X155780000Y-53892147D01*
X155780000Y-53114085D01*
X155799685Y-53047046D01*
X155800287Y-53046117D01*
X155801038Y-53044971D01*
X155803430Y-53041248D01*
X155828717Y-52984535D01*
X155828722Y-52984515D01*
X155829538Y-52982238D01*
X155830061Y-52981518D01*
X155830632Y-52980239D01*
X155830904Y-52980360D01*
X155870651Y-52925745D01*
X155935780Y-52900447D01*
X155946294Y-52900000D01*
X158675500Y-52900000D01*
X158742539Y-52919685D01*
G37*
%TD.AperFunction*%
%TD*%
%TA.AperFunction,Conductor*%
%TO.N,VDC*%
G36*
X146185866Y-51712892D02*
G01*
X146237004Y-51760501D01*
X146240820Y-51767425D01*
X146252619Y-51790553D01*
X146252624Y-51790560D01*
X146285167Y-51829500D01*
X146297423Y-51844165D01*
X146328861Y-51872405D01*
X146365581Y-51931847D01*
X146370000Y-51964654D01*
X146370000Y-56587628D01*
X146367930Y-56610192D01*
X146367661Y-56611642D01*
X146366545Y-56618158D01*
X146366545Y-56618166D01*
X146365687Y-56682097D01*
X146375196Y-56748226D01*
X146365252Y-56817384D01*
X146333661Y-56859585D01*
X146285117Y-56901648D01*
X146285110Y-56901655D01*
X146267160Y-56919242D01*
X146267154Y-56919249D01*
X146222511Y-56999059D01*
X146222509Y-56999064D01*
X146202826Y-57066096D01*
X146202825Y-57066101D01*
X146202825Y-57066102D01*
X146201912Y-57072456D01*
X146194500Y-57124003D01*
X146194500Y-57142695D01*
X146198813Y-57184576D01*
X146198813Y-57184578D01*
X146209122Y-57234095D01*
X146211055Y-57242491D01*
X146211057Y-57242495D01*
X146211058Y-57242499D01*
X146252620Y-57323966D01*
X146291147Y-57370067D01*
X146319033Y-57434128D01*
X146320000Y-57449583D01*
X146320000Y-62047781D01*
X146300315Y-62114820D01*
X146284462Y-62134674D01*
X146273098Y-62146243D01*
X146267157Y-62152550D01*
X146267154Y-62152554D01*
X146222512Y-62232364D01*
X146222509Y-62232369D01*
X146202826Y-62299401D01*
X146194500Y-62357308D01*
X146194500Y-62476007D01*
X146199197Y-62519686D01*
X146210397Y-62571174D01*
X146212890Y-62581372D01*
X146212891Y-62581375D01*
X146255899Y-62662083D01*
X146255901Y-62662086D01*
X146301660Y-62714895D01*
X146319242Y-62732839D01*
X146319246Y-62732843D01*
X146319250Y-62732845D01*
X146326292Y-62738230D01*
X146325406Y-62739388D01*
X146367584Y-62782440D01*
X146381735Y-62850862D01*
X146378757Y-62867152D01*
X146379268Y-62867263D01*
X146378328Y-62871584D01*
X146378325Y-62871599D01*
X146378325Y-62871602D01*
X146371075Y-62922030D01*
X146370000Y-62929503D01*
X146370000Y-67471000D01*
X146350315Y-67538039D01*
X146297511Y-67583794D01*
X146246000Y-67595000D01*
X143524562Y-67595000D01*
X143480427Y-67599795D01*
X143480423Y-67599795D01*
X143480421Y-67599796D01*
X143428416Y-67611232D01*
X143417788Y-67613867D01*
X143337267Y-67657242D01*
X143284686Y-67703220D01*
X143284684Y-67703222D01*
X143266800Y-67720903D01*
X143222512Y-67800918D01*
X143203129Y-67868045D01*
X143195064Y-67925981D01*
X143197572Y-68482734D01*
X143197692Y-68488854D01*
X143197951Y-68496314D01*
X143197952Y-68496321D01*
X143210301Y-68559703D01*
X143210302Y-68559704D01*
X143234270Y-68625326D01*
X143234271Y-68625329D01*
X143261951Y-68676852D01*
X143261954Y-68676856D01*
X143307956Y-68739187D01*
X143325224Y-68771858D01*
X143326355Y-68775091D01*
X143338041Y-68808484D01*
X143345000Y-68849441D01*
X143345000Y-69840557D01*
X143338041Y-69881513D01*
X143332811Y-69896459D01*
X143332701Y-69896773D01*
X143332695Y-69896790D01*
X143325229Y-69918128D01*
X143307959Y-69950806D01*
X143269660Y-70002701D01*
X143265550Y-70008476D01*
X143260715Y-70015526D01*
X143232754Y-70074745D01*
X143213372Y-70141869D01*
X143213372Y-70141870D01*
X143205306Y-70199810D01*
X143205306Y-70199811D01*
X143206885Y-70550364D01*
X143207007Y-70556551D01*
X143207264Y-70563949D01*
X143207265Y-70563952D01*
X143219613Y-70627322D01*
X143243579Y-70692938D01*
X143243581Y-70692943D01*
X143243583Y-70692947D01*
X143271265Y-70744472D01*
X143307958Y-70794190D01*
X143325228Y-70826866D01*
X143338041Y-70863481D01*
X143345000Y-70904438D01*
X143345000Y-71895558D01*
X143338040Y-71936516D01*
X143325225Y-71973136D01*
X143307958Y-72005807D01*
X143278879Y-72045210D01*
X143278857Y-72045240D01*
X143274742Y-72051021D01*
X143269913Y-72058062D01*
X143241955Y-72117278D01*
X143222573Y-72184399D01*
X143214507Y-72242339D01*
X143216403Y-72663240D01*
X143216526Y-72669457D01*
X143216782Y-72676832D01*
X143216782Y-72676833D01*
X143229132Y-72740217D01*
X143253101Y-72805841D01*
X143253102Y-72805844D01*
X143280783Y-72857368D01*
X143280786Y-72857372D01*
X143307957Y-72894189D01*
X143325226Y-72926863D01*
X143338040Y-72963480D01*
X143345000Y-73004438D01*
X143345000Y-73995559D01*
X143338041Y-74036514D01*
X143325228Y-74073131D01*
X143307958Y-74105808D01*
X143288279Y-74132471D01*
X143284169Y-74138246D01*
X143279315Y-74145324D01*
X143279312Y-74145329D01*
X143251356Y-74204539D01*
X143231974Y-74271664D01*
X143223909Y-74329599D01*
X143225173Y-74610072D01*
X143225588Y-74702206D01*
X143228562Y-74733645D01*
X143229062Y-74738921D01*
X143237174Y-74782468D01*
X143237821Y-74785791D01*
X143237822Y-74785793D01*
X143275531Y-74869112D01*
X143275534Y-74869116D01*
X143343921Y-74959184D01*
X143347295Y-74962807D01*
X143370456Y-74994189D01*
X143387726Y-75026864D01*
X143400540Y-75063480D01*
X143407500Y-75104439D01*
X143407500Y-76095557D01*
X143400542Y-76136509D01*
X143393752Y-76155914D01*
X143393750Y-76155920D01*
X143393749Y-76155923D01*
X143387726Y-76173134D01*
X143370456Y-76205810D01*
X143324824Y-76267639D01*
X143315713Y-76278603D01*
X143308362Y-76286480D01*
X143305810Y-76289271D01*
X143305399Y-76289722D01*
X143283255Y-76329730D01*
X143261110Y-76369740D01*
X143241728Y-76436863D01*
X143241728Y-76436864D01*
X143233662Y-76494804D01*
X143234876Y-76764072D01*
X143238353Y-76800790D01*
X143246479Y-76844389D01*
X143247124Y-76847700D01*
X143247125Y-76847705D01*
X143284845Y-76931010D01*
X143284848Y-76931016D01*
X143288095Y-76935291D01*
X143289906Y-76940046D01*
X143370456Y-77049188D01*
X143387726Y-77081863D01*
X143400540Y-77118480D01*
X143407500Y-77159438D01*
X143407500Y-78150558D01*
X143400540Y-78191516D01*
X143387725Y-78228136D01*
X143370456Y-78260811D01*
X143323146Y-78324915D01*
X143320103Y-78328868D01*
X143307470Y-78344617D01*
X143307466Y-78344623D01*
X143270328Y-78416203D01*
X143262958Y-78441727D01*
X143252106Y-78479310D01*
X143250946Y-78483326D01*
X143242880Y-78541266D01*
X143244377Y-78873227D01*
X143245600Y-78894685D01*
X143248430Y-78920473D01*
X143248431Y-78920481D01*
X143272329Y-78996522D01*
X143272330Y-78996524D01*
X143311273Y-79067858D01*
X143311901Y-79069141D01*
X143312485Y-79070152D01*
X143313931Y-79072727D01*
X143314642Y-79074029D01*
X143318706Y-79079107D01*
X143318710Y-79079105D01*
X143318765Y-79079177D01*
X143318818Y-79079248D01*
X143319060Y-79079550D01*
X143319873Y-79080652D01*
X143319997Y-79080817D01*
X143370458Y-79149190D01*
X143387726Y-79181863D01*
X143400541Y-79218486D01*
X143407500Y-79259438D01*
X143407500Y-80250557D01*
X143400542Y-80291509D01*
X143393752Y-80310914D01*
X143393750Y-80310920D01*
X143393749Y-80310923D01*
X143387726Y-80328134D01*
X143370458Y-80360808D01*
X143339639Y-80402568D01*
X143316818Y-80433491D01*
X143316664Y-80433699D01*
X143312567Y-80439455D01*
X143307718Y-80446523D01*
X143307712Y-80446534D01*
X143279744Y-80505760D01*
X143279740Y-80505768D01*
X143260358Y-80572893D01*
X143252293Y-80630828D01*
X143253755Y-80955097D01*
X143254012Y-81012184D01*
X143254075Y-81026147D01*
X143257757Y-81843624D01*
X143266394Y-83761007D01*
X143269282Y-84401983D01*
X143269282Y-84401988D01*
X143274075Y-84445191D01*
X143285281Y-84496151D01*
X143287668Y-84505871D01*
X143330678Y-84586583D01*
X143330680Y-84586586D01*
X143376439Y-84639395D01*
X143391696Y-84654966D01*
X143394025Y-84657343D01*
X143394026Y-84657344D01*
X143394028Y-84657345D01*
X143413003Y-84667959D01*
X143461901Y-84717866D01*
X143476466Y-84775620D01*
X143478262Y-85174448D01*
X143458879Y-85241575D01*
X143421225Y-85276605D01*
X143422383Y-85278274D01*
X143416659Y-85282242D01*
X143364078Y-85328220D01*
X143364076Y-85328222D01*
X143346192Y-85345903D01*
X143301903Y-85425924D01*
X143282522Y-85493044D01*
X143274456Y-85550983D01*
X143285336Y-87966205D01*
X143285610Y-88026982D01*
X143285610Y-88026988D01*
X143290403Y-88070191D01*
X143301609Y-88121151D01*
X143303996Y-88130871D01*
X143347006Y-88211583D01*
X143347008Y-88211586D01*
X143392767Y-88264395D01*
X143410349Y-88282339D01*
X143410353Y-88282343D01*
X143410354Y-88282344D01*
X143410356Y-88282345D01*
X143429331Y-88292959D01*
X143478229Y-88342866D01*
X143492794Y-88400619D01*
X143498536Y-89674941D01*
X143479153Y-89742069D01*
X143426556Y-89788061D01*
X143374537Y-89799500D01*
X140324500Y-89799500D01*
X140257461Y-89779815D01*
X140211706Y-89727011D01*
X140200500Y-89675500D01*
X140200500Y-51829500D01*
X140220185Y-51762461D01*
X140272989Y-51716706D01*
X140324500Y-51705500D01*
X146070491Y-51705500D01*
X146070500Y-51705500D01*
X146114184Y-51700803D01*
X146114191Y-51700801D01*
X146117106Y-51700488D01*
X146185866Y-51712892D01*
G37*
%TD.AperFunction*%
%TD*%
%TA.AperFunction,Conductor*%
%TO.N,PHASE_A*%
G36*
X146137539Y-48220185D02*
G01*
X146183294Y-48272989D01*
X146194500Y-48324500D01*
X146194500Y-51376000D01*
X146174815Y-51443039D01*
X146122011Y-51488794D01*
X146070500Y-51500000D01*
X140324500Y-51500000D01*
X140257461Y-51480315D01*
X140211706Y-51427511D01*
X140200500Y-51376000D01*
X140200500Y-48324500D01*
X140220185Y-48257461D01*
X140272989Y-48211706D01*
X140324500Y-48200500D01*
X146070500Y-48200500D01*
X146137539Y-48220185D01*
G37*
%TD.AperFunction*%
%TD*%
%TA.AperFunction,Conductor*%
%TO.N,PHASE_B*%
G36*
X152543039Y-48220185D02*
G01*
X152588794Y-48272989D01*
X152600000Y-48324500D01*
X152600000Y-51500000D01*
X146400000Y-51500000D01*
X146400000Y-48324500D01*
X146419685Y-48257461D01*
X146472489Y-48211706D01*
X146524000Y-48200500D01*
X152476000Y-48200500D01*
X152543039Y-48220185D01*
G37*
%TD.AperFunction*%
%TD*%
%TA.AperFunction,Conductor*%
%TO.N,PHASE_C*%
G36*
X155056315Y-62799721D02*
G01*
X155118223Y-62802479D01*
X155165710Y-62832103D01*
X155261652Y-62928045D01*
X155261654Y-62928046D01*
X155261658Y-62928050D01*
X155374696Y-62985646D01*
X155469900Y-63000724D01*
X155533032Y-63030652D01*
X155569963Y-63089963D01*
X155574500Y-63123197D01*
X155574500Y-63789752D01*
X155586131Y-63848229D01*
X155628147Y-63911110D01*
X155649024Y-63977787D01*
X155630539Y-64045167D01*
X155628147Y-64048890D01*
X155586132Y-64111770D01*
X155586131Y-64111770D01*
X155574500Y-64170247D01*
X155574500Y-64992147D01*
X155566442Y-65036117D01*
X155563764Y-65043176D01*
X155563762Y-65043185D01*
X155544722Y-65199999D01*
X155544722Y-65200000D01*
X155563763Y-65356819D01*
X155563763Y-65356821D01*
X155569076Y-65370830D01*
X155574348Y-65434116D01*
X155575097Y-65434190D01*
X155574694Y-65438274D01*
X155574753Y-65438974D01*
X155574501Y-65440241D01*
X155574500Y-65440252D01*
X155574500Y-65992147D01*
X155566442Y-66036117D01*
X155563764Y-66043176D01*
X155563762Y-66043185D01*
X155544722Y-66199999D01*
X155544722Y-66200000D01*
X155563762Y-66356818D01*
X155620565Y-66506592D01*
X155625932Y-66576255D01*
X155607725Y-66619454D01*
X155586132Y-66651769D01*
X155586131Y-66651770D01*
X155574500Y-66710247D01*
X155574500Y-66992147D01*
X155566442Y-67036117D01*
X155563764Y-67043176D01*
X155563762Y-67043185D01*
X155544722Y-67199999D01*
X155544722Y-67200000D01*
X155563763Y-67356819D01*
X155566441Y-67363880D01*
X155574500Y-67407853D01*
X155574500Y-67470500D01*
X155554815Y-67537539D01*
X155502011Y-67583294D01*
X155450500Y-67594500D01*
X155105898Y-67594500D01*
X155095841Y-67594747D01*
X155093731Y-67594851D01*
X155087657Y-67595000D01*
X151312343Y-67595000D01*
X151306269Y-67594851D01*
X151304158Y-67594747D01*
X151294102Y-67594500D01*
X151294084Y-67594500D01*
X150916356Y-67594500D01*
X150916339Y-67594500D01*
X150916339Y-67594501D01*
X150891589Y-67595997D01*
X150866062Y-67599096D01*
X150851119Y-67600000D01*
X150748877Y-67600000D01*
X150733938Y-67599097D01*
X150708408Y-67595998D01*
X150708400Y-67595997D01*
X150683653Y-67594500D01*
X150683644Y-67594500D01*
X149863608Y-67594500D01*
X149863596Y-67594500D01*
X149847843Y-67595105D01*
X149828833Y-67596570D01*
X149757210Y-67615479D01*
X149693981Y-67645195D01*
X149693968Y-67645203D01*
X149676041Y-67657003D01*
X149665493Y-67663222D01*
X149572288Y-67712141D01*
X149544337Y-67722742D01*
X149536994Y-67724552D01*
X149468650Y-67741397D01*
X149438976Y-67745000D01*
X149338808Y-67745000D01*
X149338802Y-67745000D01*
X149338785Y-67745001D01*
X149332943Y-67745489D01*
X149265004Y-67731715D01*
X149152418Y-67672625D01*
X149135198Y-67661693D01*
X149127477Y-67655847D01*
X149061329Y-67622510D01*
X149061328Y-67622509D01*
X149061325Y-67622508D01*
X148994297Y-67602826D01*
X148993648Y-67602732D01*
X148936392Y-67594500D01*
X147916356Y-67594500D01*
X147916339Y-67594500D01*
X147916339Y-67594501D01*
X147891589Y-67595997D01*
X147866062Y-67599096D01*
X147851119Y-67600000D01*
X147748877Y-67600000D01*
X147733938Y-67599097D01*
X147708408Y-67595998D01*
X147708400Y-67595997D01*
X147683653Y-67594500D01*
X147683644Y-67594500D01*
X146699500Y-67594500D01*
X146632461Y-67574815D01*
X146586706Y-67522011D01*
X146575500Y-67470500D01*
X146575500Y-62929500D01*
X146595185Y-62862461D01*
X146647989Y-62816706D01*
X146699500Y-62805500D01*
X146750500Y-62805500D01*
X146817539Y-62825185D01*
X146863294Y-62877989D01*
X146874500Y-62929500D01*
X146874500Y-63789752D01*
X146886131Y-63848229D01*
X146886132Y-63848230D01*
X146930447Y-63914552D01*
X146996769Y-63958867D01*
X146996770Y-63958868D01*
X147055247Y-63970499D01*
X147055250Y-63970500D01*
X147055252Y-63970500D01*
X148544750Y-63970500D01*
X148544751Y-63970499D01*
X148559568Y-63967552D01*
X148603229Y-63958868D01*
X148603229Y-63958867D01*
X148603231Y-63958867D01*
X148669552Y-63914552D01*
X148713867Y-63848231D01*
X148713867Y-63848229D01*
X148713868Y-63848229D01*
X148725499Y-63789752D01*
X148725500Y-63789748D01*
X148725500Y-63789741D01*
X148726097Y-63783688D01*
X148728389Y-63783913D01*
X148745185Y-63726716D01*
X148797989Y-63680961D01*
X148867147Y-63671017D01*
X148930703Y-63700042D01*
X148937181Y-63706074D01*
X148959152Y-63728045D01*
X148959154Y-63728046D01*
X148959158Y-63728050D01*
X149072196Y-63785646D01*
X149072197Y-63785646D01*
X149072199Y-63785647D01*
X149197497Y-63805492D01*
X149197500Y-63805492D01*
X149197503Y-63805492D01*
X149322800Y-63785647D01*
X149322801Y-63785647D01*
X149322802Y-63785646D01*
X149322804Y-63785646D01*
X149435842Y-63728050D01*
X149525550Y-63638342D01*
X149583146Y-63525304D01*
X149583146Y-63525302D01*
X149583147Y-63525301D01*
X149583147Y-63525300D01*
X149602992Y-63400003D01*
X149602992Y-63399996D01*
X149583147Y-63274699D01*
X149583147Y-63274698D01*
X149583146Y-63274696D01*
X149525550Y-63161658D01*
X149525546Y-63161654D01*
X149525545Y-63161652D01*
X149435847Y-63071954D01*
X149435844Y-63071952D01*
X149435842Y-63071950D01*
X149373104Y-63039983D01*
X149322310Y-62992010D01*
X149305515Y-62924189D01*
X149328052Y-62858054D01*
X149382768Y-62814603D01*
X149429401Y-62805500D01*
X154988594Y-62805500D01*
X154988602Y-62805500D01*
X155016398Y-62803611D01*
X155049632Y-62799074D01*
X155049633Y-62799073D01*
X155056106Y-62798190D01*
X155056315Y-62799721D01*
G37*
%TD.AperFunction*%
%TD*%
%TA.AperFunction,Conductor*%
%TO.N,PHASE_B*%
G36*
X154955641Y-51519685D02*
G01*
X155001396Y-51572489D01*
X155011074Y-51604600D01*
X155014354Y-51625304D01*
X155071950Y-51738342D01*
X155071952Y-51738344D01*
X155071954Y-51738347D01*
X155161652Y-51828045D01*
X155161654Y-51828046D01*
X155161658Y-51828050D01*
X155274696Y-51885646D01*
X155274697Y-51885646D01*
X155274699Y-51885647D01*
X155399997Y-51905492D01*
X155400000Y-51905492D01*
X155400001Y-51905492D01*
X155416725Y-51902842D01*
X155431101Y-51900566D01*
X155500395Y-51909520D01*
X155553847Y-51954516D01*
X155574487Y-52021268D01*
X155574500Y-52023039D01*
X155574500Y-52674752D01*
X155586131Y-52733229D01*
X155628147Y-52796110D01*
X155649024Y-52862787D01*
X155630539Y-52930167D01*
X155628147Y-52933890D01*
X155586132Y-52996770D01*
X155586131Y-52996770D01*
X155574500Y-53055247D01*
X155574500Y-53892147D01*
X155566442Y-53936117D01*
X155563764Y-53943176D01*
X155563762Y-53943185D01*
X155544722Y-54099999D01*
X155544722Y-54100000D01*
X155563763Y-54256819D01*
X155563763Y-54256820D01*
X155567327Y-54266218D01*
X155574366Y-54319160D01*
X155574500Y-54319160D01*
X155574500Y-54320165D01*
X155574787Y-54322324D01*
X155574500Y-54325241D01*
X155574500Y-54892147D01*
X155566442Y-54936117D01*
X155563764Y-54943176D01*
X155563762Y-54943185D01*
X155544722Y-55099999D01*
X155544722Y-55100000D01*
X155563762Y-55256818D01*
X155616936Y-55397023D01*
X155622303Y-55466686D01*
X155604096Y-55509885D01*
X155586132Y-55536769D01*
X155586131Y-55536770D01*
X155574500Y-55595247D01*
X155574500Y-55892147D01*
X155566442Y-55936117D01*
X155563764Y-55943176D01*
X155563762Y-55943185D01*
X155544722Y-56099999D01*
X155544722Y-56100000D01*
X155563763Y-56256819D01*
X155566441Y-56263880D01*
X155574500Y-56307853D01*
X155574500Y-56484752D01*
X155587513Y-56550172D01*
X155581286Y-56619763D01*
X155538423Y-56674941D01*
X155485294Y-56696836D01*
X155374699Y-56714352D01*
X155374698Y-56714352D01*
X155315429Y-56744552D01*
X155261658Y-56771950D01*
X155261657Y-56771951D01*
X155261655Y-56771952D01*
X155236455Y-56797152D01*
X155175131Y-56830636D01*
X155105440Y-56825650D01*
X155100741Y-56823788D01*
X155097701Y-56822510D01*
X155030666Y-56802826D01*
X155030662Y-56802825D01*
X155030661Y-56802825D01*
X154972763Y-56794500D01*
X148616090Y-56794500D01*
X148588668Y-56796338D01*
X148569386Y-56798934D01*
X148555857Y-56800757D01*
X148475287Y-56829585D01*
X148475286Y-56829585D01*
X148475282Y-56829587D01*
X148415854Y-56866297D01*
X148415844Y-56866303D01*
X148415844Y-56866304D01*
X148395307Y-56880797D01*
X148338467Y-56952445D01*
X148338464Y-56952450D01*
X148337976Y-56953066D01*
X148280890Y-56993352D01*
X148240832Y-57000000D01*
X147259523Y-57000000D01*
X147192484Y-56980315D01*
X147157633Y-56942496D01*
X147155950Y-56943653D01*
X147152012Y-56937919D01*
X147152010Y-56937915D01*
X147106255Y-56885111D01*
X147106249Y-56885104D01*
X147088667Y-56867160D01*
X147088666Y-56867159D01*
X147088664Y-56867157D01*
X147088662Y-56867156D01*
X147088660Y-56867154D01*
X147008850Y-56822511D01*
X147008845Y-56822509D01*
X146941813Y-56802826D01*
X146941809Y-56802825D01*
X146941808Y-56802825D01*
X146883910Y-56794500D01*
X146691834Y-56794500D01*
X146624795Y-56774815D01*
X146579040Y-56722011D01*
X146569096Y-56652853D01*
X146570217Y-56646307D01*
X146575500Y-56619749D01*
X146575500Y-51900247D01*
X146874500Y-51900247D01*
X146874500Y-52789752D01*
X146886131Y-52848229D01*
X146886132Y-52848230D01*
X146930447Y-52914552D01*
X146996769Y-52958867D01*
X146996770Y-52958868D01*
X147055247Y-52970499D01*
X147055250Y-52970500D01*
X147055252Y-52970500D01*
X148544750Y-52970500D01*
X148544751Y-52970499D01*
X148559568Y-52967552D01*
X148603229Y-52958868D01*
X148603229Y-52958867D01*
X148603231Y-52958867D01*
X148669552Y-52914552D01*
X148713867Y-52848231D01*
X148713867Y-52848229D01*
X148713868Y-52848229D01*
X148723550Y-52799552D01*
X148725500Y-52789748D01*
X148725500Y-52399996D01*
X148994508Y-52399996D01*
X148994508Y-52400003D01*
X149014352Y-52525300D01*
X149014352Y-52525301D01*
X149014354Y-52525304D01*
X149071950Y-52638342D01*
X149071952Y-52638344D01*
X149071954Y-52638347D01*
X149161652Y-52728045D01*
X149161654Y-52728046D01*
X149161658Y-52728050D01*
X149274696Y-52785646D01*
X149274697Y-52785646D01*
X149274699Y-52785647D01*
X149399997Y-52805492D01*
X149400000Y-52805492D01*
X149400003Y-52805492D01*
X149525300Y-52785647D01*
X149525301Y-52785647D01*
X149525302Y-52785646D01*
X149525304Y-52785646D01*
X149638342Y-52728050D01*
X149728050Y-52638342D01*
X149785646Y-52525304D01*
X149785646Y-52525302D01*
X149785647Y-52525301D01*
X149785647Y-52525300D01*
X149805492Y-52400003D01*
X149805492Y-52399996D01*
X149785647Y-52274699D01*
X149785647Y-52274698D01*
X149785646Y-52274696D01*
X149728050Y-52161658D01*
X149728046Y-52161654D01*
X149728045Y-52161652D01*
X149638347Y-52071954D01*
X149638344Y-52071952D01*
X149638342Y-52071950D01*
X149525304Y-52014354D01*
X149525303Y-52014353D01*
X149525300Y-52014352D01*
X149400003Y-51994508D01*
X149399997Y-51994508D01*
X149274699Y-52014352D01*
X149274698Y-52014352D01*
X149199337Y-52052751D01*
X149161658Y-52071950D01*
X149161657Y-52071951D01*
X149161652Y-52071954D01*
X149071954Y-52161652D01*
X149071951Y-52161657D01*
X149014352Y-52274698D01*
X149014352Y-52274699D01*
X148994508Y-52399996D01*
X148725500Y-52399996D01*
X148725500Y-51900252D01*
X148725500Y-51900249D01*
X148725499Y-51900247D01*
X148713868Y-51841770D01*
X148713867Y-51841769D01*
X148669552Y-51775447D01*
X148603230Y-51731132D01*
X148603229Y-51731131D01*
X148544752Y-51719500D01*
X148544748Y-51719500D01*
X147055252Y-51719500D01*
X147055247Y-51719500D01*
X146996770Y-51731131D01*
X146996769Y-51731132D01*
X146930447Y-51775447D01*
X146886132Y-51841769D01*
X146886131Y-51841770D01*
X146874500Y-51900247D01*
X146575500Y-51900247D01*
X146575500Y-51880249D01*
X146575499Y-51880247D01*
X146563868Y-51821770D01*
X146563867Y-51821769D01*
X146519551Y-51755446D01*
X146455108Y-51712386D01*
X146410304Y-51658774D01*
X146400000Y-51609285D01*
X146400000Y-51500000D01*
X152600000Y-51500000D01*
X154888602Y-51500000D01*
X154955641Y-51519685D01*
G37*
%TD.AperFunction*%
%TD*%
%TA.AperFunction,Conductor*%
%TO.N,PHASE_A*%
G36*
X146950949Y-57019685D02*
G01*
X146996704Y-57072489D01*
X147006648Y-57141647D01*
X146977623Y-57205203D01*
X146952802Y-57227102D01*
X146880446Y-57275448D01*
X146836132Y-57341769D01*
X146836131Y-57341770D01*
X146824500Y-57400247D01*
X146824500Y-58289752D01*
X146836131Y-58348229D01*
X146836132Y-58348230D01*
X146880447Y-58414552D01*
X146946769Y-58458867D01*
X146946770Y-58458868D01*
X147005247Y-58470499D01*
X147005250Y-58470500D01*
X147005252Y-58470500D01*
X148494750Y-58470500D01*
X148494751Y-58470499D01*
X148509568Y-58467552D01*
X148553229Y-58458868D01*
X148553229Y-58458867D01*
X148553231Y-58458867D01*
X148619552Y-58414552D01*
X148663867Y-58348231D01*
X148663867Y-58348229D01*
X148663868Y-58348229D01*
X148675499Y-58289752D01*
X148675500Y-58289750D01*
X148675500Y-58241255D01*
X148695185Y-58174216D01*
X148747989Y-58128461D01*
X148817147Y-58118517D01*
X148880703Y-58147542D01*
X148887181Y-58153574D01*
X148961652Y-58228045D01*
X148961654Y-58228046D01*
X148961658Y-58228050D01*
X149074696Y-58285646D01*
X149074697Y-58285646D01*
X149074699Y-58285647D01*
X149199997Y-58305492D01*
X149200000Y-58305492D01*
X149200003Y-58305492D01*
X149325300Y-58285647D01*
X149325301Y-58285647D01*
X149325302Y-58285646D01*
X149325304Y-58285646D01*
X149438342Y-58228050D01*
X149528050Y-58138342D01*
X149585646Y-58025304D01*
X149585646Y-58025302D01*
X149585647Y-58025301D01*
X149585647Y-58025300D01*
X149605492Y-57900003D01*
X149605492Y-57899996D01*
X149585647Y-57774699D01*
X149585647Y-57774698D01*
X149585646Y-57774696D01*
X149528050Y-57661658D01*
X149528046Y-57661654D01*
X149528045Y-57661652D01*
X149438347Y-57571954D01*
X149438344Y-57571952D01*
X149438342Y-57571950D01*
X149325304Y-57514354D01*
X149325303Y-57514353D01*
X149325300Y-57514352D01*
X149200003Y-57494508D01*
X149199997Y-57494508D01*
X149074699Y-57514352D01*
X149074698Y-57514352D01*
X148999337Y-57552751D01*
X148961658Y-57571950D01*
X148961657Y-57571951D01*
X148961652Y-57571954D01*
X148887181Y-57646426D01*
X148825858Y-57679911D01*
X148756166Y-57674927D01*
X148700233Y-57633055D01*
X148675816Y-57567591D01*
X148675500Y-57558745D01*
X148675500Y-57400249D01*
X148675499Y-57400247D01*
X148663868Y-57341770D01*
X148663867Y-57341769D01*
X148619553Y-57275448D01*
X148547198Y-57227102D01*
X148502394Y-57173489D01*
X148493687Y-57104164D01*
X148523842Y-57041137D01*
X148583285Y-57004418D01*
X148616090Y-57000000D01*
X154972763Y-57000000D01*
X155039802Y-57019685D01*
X155085557Y-57072489D01*
X155095236Y-57104602D01*
X155114352Y-57225301D01*
X155114354Y-57225304D01*
X155171950Y-57338342D01*
X155171952Y-57338344D01*
X155171954Y-57338347D01*
X155261652Y-57428045D01*
X155261654Y-57428046D01*
X155261658Y-57428050D01*
X155374696Y-57485646D01*
X155469900Y-57500724D01*
X155533032Y-57530652D01*
X155569963Y-57589963D01*
X155574500Y-57623197D01*
X155574500Y-58289752D01*
X155586131Y-58348229D01*
X155628147Y-58411110D01*
X155649024Y-58477787D01*
X155630539Y-58545167D01*
X155628147Y-58548890D01*
X155586132Y-58611770D01*
X155586131Y-58611770D01*
X155574500Y-58670247D01*
X155574500Y-58992147D01*
X155566442Y-59036117D01*
X155563764Y-59043176D01*
X155563762Y-59043185D01*
X155544722Y-59199999D01*
X155544722Y-59200000D01*
X155563763Y-59356819D01*
X155566441Y-59363880D01*
X155574500Y-59407853D01*
X155574500Y-59559752D01*
X155586131Y-59618229D01*
X155628147Y-59681110D01*
X155649024Y-59747787D01*
X155630539Y-59815167D01*
X155628147Y-59818890D01*
X155586132Y-59881770D01*
X155586131Y-59881770D01*
X155574500Y-59940247D01*
X155574500Y-59992147D01*
X155566442Y-60036117D01*
X155563764Y-60043176D01*
X155563762Y-60043185D01*
X155544722Y-60199999D01*
X155544722Y-60200000D01*
X155563763Y-60356819D01*
X155566441Y-60363880D01*
X155574500Y-60407853D01*
X155574500Y-60829752D01*
X155586131Y-60888228D01*
X155586310Y-60888659D01*
X155586418Y-60889672D01*
X155588515Y-60900210D01*
X155587572Y-60900397D01*
X155593780Y-60958128D01*
X155587692Y-60980084D01*
X155563764Y-61043176D01*
X155563762Y-61043185D01*
X155544722Y-61199999D01*
X155544722Y-61200000D01*
X155563763Y-61356819D01*
X155566441Y-61363880D01*
X155574500Y-61407853D01*
X155574500Y-61992147D01*
X155566442Y-62036117D01*
X155563764Y-62043176D01*
X155563762Y-62043184D01*
X155557557Y-62094290D01*
X155529934Y-62158467D01*
X155472000Y-62197523D01*
X155453859Y-62201815D01*
X155374698Y-62214352D01*
X155315429Y-62244552D01*
X155261658Y-62271950D01*
X155261657Y-62271951D01*
X155261652Y-62271954D01*
X155171954Y-62361652D01*
X155171951Y-62361657D01*
X155171950Y-62361658D01*
X155114354Y-62474696D01*
X155111075Y-62495397D01*
X155081147Y-62558531D01*
X155021836Y-62595463D01*
X154988602Y-62600000D01*
X146524000Y-62600000D01*
X146456961Y-62580315D01*
X146411206Y-62527511D01*
X146400000Y-62476000D01*
X146400000Y-62357305D01*
X146419685Y-62290266D01*
X146455109Y-62254203D01*
X146469552Y-62244552D01*
X146500976Y-62197523D01*
X146513867Y-62178231D01*
X146513867Y-62178229D01*
X146513868Y-62178229D01*
X146525499Y-62119752D01*
X146525500Y-62119750D01*
X146525500Y-57380249D01*
X146525499Y-57380247D01*
X146513868Y-57321770D01*
X146513867Y-57321769D01*
X146469552Y-57255447D01*
X146455109Y-57245797D01*
X146410304Y-57192185D01*
X146400000Y-57142695D01*
X146400000Y-57124000D01*
X146419685Y-57056961D01*
X146472489Y-57011206D01*
X146524000Y-57000000D01*
X146883910Y-57000000D01*
X146950949Y-57019685D01*
G37*
%TD.AperFunction*%
%TD*%
%TA.AperFunction,Conductor*%
%TO.N,GND*%
G36*
X147713317Y-67803602D02*
G01*
X147721015Y-67805500D01*
X147878985Y-67805500D01*
X147886682Y-67803602D01*
X147916356Y-67800000D01*
X148936392Y-67800000D01*
X149003431Y-67819685D01*
X149018616Y-67831182D01*
X149027760Y-67839283D01*
X149027765Y-67839285D01*
X149027767Y-67839287D01*
X149173367Y-67915705D01*
X149223580Y-67964290D01*
X149235112Y-68013397D01*
X149241338Y-67997848D01*
X149298252Y-67957320D01*
X149338808Y-67950500D01*
X149478985Y-67950500D01*
X149632365Y-67912696D01*
X149772240Y-67839283D01*
X149781383Y-67831182D01*
X149844617Y-67801463D01*
X149863608Y-67800000D01*
X150683644Y-67800000D01*
X150713317Y-67803602D01*
X150721015Y-67805500D01*
X150878985Y-67805500D01*
X150886682Y-67803602D01*
X150916356Y-67800000D01*
X151294084Y-67800000D01*
X151304262Y-67800500D01*
X151305252Y-67800500D01*
X155095738Y-67800500D01*
X155105916Y-67800000D01*
X155700000Y-67800000D01*
X155700000Y-74065320D01*
X155685647Y-73974698D01*
X155678988Y-73961629D01*
X155628050Y-73861658D01*
X155628046Y-73861654D01*
X155628045Y-73861652D01*
X155538347Y-73771954D01*
X155538344Y-73771952D01*
X155538342Y-73771950D01*
X155425304Y-73714354D01*
X155425303Y-73714353D01*
X155425300Y-73714352D01*
X155300003Y-73694508D01*
X155299997Y-73694508D01*
X155174699Y-73714352D01*
X155174698Y-73714352D01*
X155108951Y-73747853D01*
X155061658Y-73771950D01*
X155061657Y-73771951D01*
X155061652Y-73771954D01*
X154971954Y-73861652D01*
X154971948Y-73861660D01*
X154954201Y-73896490D01*
X154906226Y-73947284D01*
X154838404Y-73964078D01*
X154789257Y-73951592D01*
X154682842Y-73899567D01*
X154661720Y-73896490D01*
X154613742Y-73889500D01*
X154121258Y-73889500D01*
X154075192Y-73896211D01*
X154052157Y-73899567D01*
X153945569Y-73951676D01*
X153945568Y-73951678D01*
X153887681Y-74009565D01*
X153826358Y-74043050D01*
X153756666Y-74038066D01*
X153712319Y-74009565D01*
X153654430Y-73951676D01*
X153547842Y-73899567D01*
X153526720Y-73896490D01*
X153478742Y-73889500D01*
X153076255Y-73889500D01*
X153009216Y-73869815D01*
X152963461Y-73817011D01*
X152953517Y-73747853D01*
X152982542Y-73684297D01*
X152988574Y-73677819D01*
X153028045Y-73638347D01*
X153028050Y-73638342D01*
X153085646Y-73525304D01*
X153085646Y-73525302D01*
X153085647Y-73525301D01*
X153085647Y-73525300D01*
X153105492Y-73400003D01*
X153105492Y-73399996D01*
X153085647Y-73274699D01*
X153085647Y-73274698D01*
X153060479Y-73225304D01*
X153028050Y-73161658D01*
X153028046Y-73161654D01*
X153028045Y-73161652D01*
X152966389Y-73099996D01*
X154294508Y-73099996D01*
X154294508Y-73100003D01*
X154314352Y-73225300D01*
X154314352Y-73225301D01*
X154314354Y-73225304D01*
X154371950Y-73338342D01*
X154371952Y-73338344D01*
X154371954Y-73338347D01*
X154461652Y-73428045D01*
X154461654Y-73428046D01*
X154461658Y-73428050D01*
X154574696Y-73485646D01*
X154574697Y-73485646D01*
X154574699Y-73485647D01*
X154699997Y-73505492D01*
X154700000Y-73505492D01*
X154700003Y-73505492D01*
X154825300Y-73485647D01*
X154825301Y-73485647D01*
X154825302Y-73485646D01*
X154825304Y-73485646D01*
X154938342Y-73428050D01*
X155028050Y-73338342D01*
X155085646Y-73225304D01*
X155085646Y-73225302D01*
X155085647Y-73225301D01*
X155085647Y-73225300D01*
X155105492Y-73100003D01*
X155105492Y-73099996D01*
X155085647Y-72974699D01*
X155085647Y-72974698D01*
X155083625Y-72970730D01*
X155028050Y-72861658D01*
X155028046Y-72861654D01*
X155028045Y-72861652D01*
X154938347Y-72771954D01*
X154938344Y-72771952D01*
X154938342Y-72771950D01*
X154825304Y-72714354D01*
X154825303Y-72714353D01*
X154825300Y-72714352D01*
X154700003Y-72694508D01*
X154699997Y-72694508D01*
X154574699Y-72714352D01*
X154574698Y-72714352D01*
X154518120Y-72743181D01*
X154461658Y-72771950D01*
X154461657Y-72771951D01*
X154461652Y-72771954D01*
X154371954Y-72861652D01*
X154371951Y-72861657D01*
X154314352Y-72974698D01*
X154314352Y-72974699D01*
X154294508Y-73099996D01*
X152966389Y-73099996D01*
X152938347Y-73071954D01*
X152938344Y-73071952D01*
X152938342Y-73071950D01*
X152825304Y-73014354D01*
X152825303Y-73014353D01*
X152825300Y-73014352D01*
X152700003Y-72994508D01*
X152699997Y-72994508D01*
X152574699Y-73014352D01*
X152574698Y-73014352D01*
X152499337Y-73052751D01*
X152461658Y-73071950D01*
X152461657Y-73071951D01*
X152461652Y-73071954D01*
X152371954Y-73161652D01*
X152371951Y-73161657D01*
X152314352Y-73274698D01*
X152314352Y-73274699D01*
X152294508Y-73399996D01*
X152294508Y-73400003D01*
X152314352Y-73525300D01*
X152314352Y-73525301D01*
X152327192Y-73550500D01*
X152371950Y-73638342D01*
X152371952Y-73638344D01*
X152371954Y-73638347D01*
X152461652Y-73728045D01*
X152461654Y-73728046D01*
X152461658Y-73728050D01*
X152574696Y-73785646D01*
X152681283Y-73802527D01*
X152744415Y-73832455D01*
X152781347Y-73891767D01*
X152780349Y-73961629D01*
X152749566Y-74012680D01*
X152726676Y-74035570D01*
X152674567Y-74142157D01*
X152674567Y-74142160D01*
X152664500Y-74211258D01*
X152664500Y-74588742D01*
X152667942Y-74612364D01*
X152674567Y-74657842D01*
X152726676Y-74764430D01*
X152810569Y-74848323D01*
X152810570Y-74848323D01*
X152810571Y-74848324D01*
X152912462Y-74898136D01*
X152964043Y-74945263D01*
X152982000Y-75009535D01*
X152982000Y-75065697D01*
X152962315Y-75132736D01*
X152912460Y-75177097D01*
X152843517Y-75210800D01*
X152760803Y-75293514D01*
X152718543Y-75379960D01*
X152671415Y-75431543D01*
X152607142Y-75449500D01*
X152511161Y-75449500D01*
X152444122Y-75429815D01*
X152398367Y-75377011D01*
X152388423Y-75307853D01*
X152388688Y-75306103D01*
X152405492Y-75200003D01*
X152405492Y-75199996D01*
X152385647Y-75074699D01*
X152385647Y-75074698D01*
X152381061Y-75065697D01*
X152328050Y-74961658D01*
X152328046Y-74961654D01*
X152328045Y-74961652D01*
X152238347Y-74871954D01*
X152238344Y-74871952D01*
X152238342Y-74871950D01*
X152125304Y-74814354D01*
X152125303Y-74814353D01*
X152125300Y-74814352D01*
X152000003Y-74794508D01*
X151999997Y-74794508D01*
X151874699Y-74814352D01*
X151874698Y-74814352D01*
X151808030Y-74848322D01*
X151761658Y-74871950D01*
X151761657Y-74871951D01*
X151761652Y-74871954D01*
X151671954Y-74961652D01*
X151671951Y-74961657D01*
X151614352Y-75074698D01*
X151614352Y-75074699D01*
X151594508Y-75199996D01*
X151594508Y-75200003D01*
X151611312Y-75306103D01*
X151602357Y-75375396D01*
X151557361Y-75428848D01*
X151490609Y-75449487D01*
X151488839Y-75449500D01*
X150721552Y-75449500D01*
X150665258Y-75435985D01*
X150622800Y-75414352D01*
X150622801Y-75414352D01*
X150497503Y-75394508D01*
X150497501Y-75394508D01*
X150497500Y-75394508D01*
X150453007Y-75401554D01*
X150418897Y-75406957D01*
X150349603Y-75398001D01*
X150296152Y-75353004D01*
X150275513Y-75286252D01*
X150275500Y-75284483D01*
X150275500Y-70245201D01*
X150275500Y-70245200D01*
X150236274Y-70150501D01*
X150234690Y-70146677D01*
X150233557Y-70143940D01*
X149751796Y-69662181D01*
X149718311Y-69600858D01*
X149723295Y-69531167D01*
X149765166Y-69475233D01*
X149830631Y-69450816D01*
X149839477Y-69450500D01*
X151053456Y-69450500D01*
X151120495Y-69470185D01*
X151141137Y-69486819D01*
X151143514Y-69489196D01*
X151143515Y-69489196D01*
X151143517Y-69489198D01*
X151229367Y-69531167D01*
X151242403Y-69537540D01*
X151293986Y-69584668D01*
X151311900Y-69652202D01*
X151290459Y-69718701D01*
X151275623Y-69736624D01*
X151244860Y-69767386D01*
X151183536Y-69800870D01*
X151176578Y-69802176D01*
X151099699Y-69814352D01*
X151099698Y-69814352D01*
X151052607Y-69838347D01*
X150986658Y-69871950D01*
X150986657Y-69871951D01*
X150986652Y-69871954D01*
X150896954Y-69961652D01*
X150896951Y-69961657D01*
X150896950Y-69961658D01*
X150884727Y-69985647D01*
X150839352Y-70074698D01*
X150839352Y-70074699D01*
X150819508Y-70199996D01*
X150819508Y-70200003D01*
X150839352Y-70325300D01*
X150839352Y-70325301D01*
X150839354Y-70325304D01*
X150896950Y-70438342D01*
X150896952Y-70438344D01*
X150896954Y-70438347D01*
X150986652Y-70528045D01*
X150986654Y-70528046D01*
X150986658Y-70528050D01*
X151099696Y-70585646D01*
X151212225Y-70603468D01*
X151266043Y-70628980D01*
X151267206Y-70627352D01*
X151275569Y-70633323D01*
X151382157Y-70685432D01*
X151382158Y-70685432D01*
X151382160Y-70685433D01*
X151451258Y-70695500D01*
X151451264Y-70695500D01*
X151943736Y-70695500D01*
X151943742Y-70695500D01*
X152012840Y-70685433D01*
X152119429Y-70633324D01*
X152119430Y-70633323D01*
X152119432Y-70633322D01*
X152177319Y-70575435D01*
X152238642Y-70541950D01*
X152308334Y-70546934D01*
X152352681Y-70575435D01*
X152410567Y-70633321D01*
X152410568Y-70633321D01*
X152410571Y-70633324D01*
X152449131Y-70652175D01*
X152500713Y-70699304D01*
X152518626Y-70766838D01*
X152497184Y-70833337D01*
X152482353Y-70851254D01*
X152471952Y-70861654D01*
X152471951Y-70861657D01*
X152414352Y-70974698D01*
X152414352Y-70974699D01*
X152394508Y-71099996D01*
X152394508Y-71100003D01*
X152414352Y-71225300D01*
X152414352Y-71225301D01*
X152432805Y-71261517D01*
X152471950Y-71338342D01*
X152471952Y-71338344D01*
X152471954Y-71338347D01*
X152561652Y-71428045D01*
X152561655Y-71428047D01*
X152561658Y-71428050D01*
X152580574Y-71437688D01*
X152584161Y-71439516D01*
X152634956Y-71487490D01*
X152651751Y-71555312D01*
X152629213Y-71621446D01*
X152584161Y-71660484D01*
X152561659Y-71671949D01*
X152561652Y-71671954D01*
X152471954Y-71761652D01*
X152471951Y-71761657D01*
X152414352Y-71874698D01*
X152414352Y-71874699D01*
X152394508Y-71999996D01*
X152394508Y-72000003D01*
X152414352Y-72125300D01*
X152414352Y-72125301D01*
X152414354Y-72125304D01*
X152471950Y-72238342D01*
X152471952Y-72238344D01*
X152471954Y-72238347D01*
X152561652Y-72328045D01*
X152561654Y-72328046D01*
X152561658Y-72328050D01*
X152674696Y-72385646D01*
X152674697Y-72385646D01*
X152674699Y-72385647D01*
X152799997Y-72405492D01*
X152800000Y-72405492D01*
X152800003Y-72405492D01*
X152925300Y-72385647D01*
X152925301Y-72385647D01*
X152925302Y-72385646D01*
X152925304Y-72385646D01*
X153038342Y-72328050D01*
X153079572Y-72286820D01*
X153140895Y-72253334D01*
X153167254Y-72250500D01*
X153186223Y-72250500D01*
X153186225Y-72250500D01*
X153278294Y-72212364D01*
X153374453Y-72116202D01*
X153374457Y-72116200D01*
X153391896Y-72098761D01*
X153391897Y-72098761D01*
X153462364Y-72028294D01*
X153500500Y-71936225D01*
X153500500Y-70635172D01*
X153495646Y-70623455D01*
X153488178Y-70553987D01*
X153519453Y-70491507D01*
X153579542Y-70455855D01*
X153649367Y-70458348D01*
X153666495Y-70465514D01*
X153774696Y-70520646D01*
X153774697Y-70520646D01*
X153774699Y-70520647D01*
X153899997Y-70540492D01*
X153900000Y-70540492D01*
X153900003Y-70540492D01*
X154025300Y-70520647D01*
X154025301Y-70520647D01*
X154025302Y-70520646D01*
X154025304Y-70520646D01*
X154138342Y-70463050D01*
X154228050Y-70373342D01*
X154285646Y-70260304D01*
X154285646Y-70260302D01*
X154285647Y-70260301D01*
X154285647Y-70260300D01*
X154305492Y-70135003D01*
X154305492Y-70134996D01*
X154285647Y-70009699D01*
X154285647Y-70009698D01*
X154261169Y-69961658D01*
X154228050Y-69896658D01*
X154228046Y-69896654D01*
X154228045Y-69896652D01*
X154138347Y-69806954D01*
X154138343Y-69806951D01*
X154138342Y-69806950D01*
X154128973Y-69802176D01*
X154118204Y-69796689D01*
X154067409Y-69748714D01*
X154050500Y-69686205D01*
X154050500Y-69599996D01*
X154694508Y-69599996D01*
X154694508Y-69600003D01*
X154714352Y-69725300D01*
X154714352Y-69725301D01*
X154714354Y-69725304D01*
X154771950Y-69838342D01*
X154771952Y-69838344D01*
X154771954Y-69838347D01*
X154861652Y-69928045D01*
X154861654Y-69928046D01*
X154861658Y-69928050D01*
X154974696Y-69985646D01*
X154974697Y-69985646D01*
X154974699Y-69985647D01*
X155099997Y-70005492D01*
X155100000Y-70005492D01*
X155100003Y-70005492D01*
X155225300Y-69985647D01*
X155225301Y-69985647D01*
X155225302Y-69985646D01*
X155225304Y-69985646D01*
X155338342Y-69928050D01*
X155428050Y-69838342D01*
X155485646Y-69725304D01*
X155485646Y-69725302D01*
X155485647Y-69725301D01*
X155485647Y-69725300D01*
X155505492Y-69600003D01*
X155505492Y-69599996D01*
X155485647Y-69474699D01*
X155485647Y-69474698D01*
X155485646Y-69474696D01*
X155428050Y-69361658D01*
X155428046Y-69361654D01*
X155428045Y-69361652D01*
X155338347Y-69271954D01*
X155338344Y-69271952D01*
X155338342Y-69271950D01*
X155225304Y-69214354D01*
X155225303Y-69214353D01*
X155225300Y-69214352D01*
X155100003Y-69194508D01*
X155099997Y-69194508D01*
X154974699Y-69214352D01*
X154974698Y-69214352D01*
X154899337Y-69252751D01*
X154861658Y-69271950D01*
X154861657Y-69271951D01*
X154861652Y-69271954D01*
X154828080Y-69305526D01*
X154766757Y-69339011D01*
X154709641Y-69334924D01*
X154733283Y-69398307D01*
X154720085Y-69463448D01*
X154714353Y-69474697D01*
X154714352Y-69474699D01*
X154694508Y-69599996D01*
X154050500Y-69599996D01*
X154050500Y-69544079D01*
X154070185Y-69477040D01*
X154122989Y-69431285D01*
X154192147Y-69421341D01*
X154193819Y-69421593D01*
X154250000Y-69430492D01*
X154250003Y-69430492D01*
X154375300Y-69410647D01*
X154375301Y-69410647D01*
X154375302Y-69410646D01*
X154375304Y-69410646D01*
X154488342Y-69353050D01*
X154521917Y-69319475D01*
X154583239Y-69285989D01*
X154640356Y-69290073D01*
X154616716Y-69226689D01*
X154629918Y-69161545D01*
X154635646Y-69150304D01*
X154649269Y-69064291D01*
X154655492Y-69025003D01*
X154655492Y-69024996D01*
X154635647Y-68899699D01*
X154635646Y-68899697D01*
X154635646Y-68899696D01*
X154629915Y-68888449D01*
X154617019Y-68819783D01*
X154621571Y-68808565D01*
X154571918Y-68780525D01*
X154488347Y-68696954D01*
X154488344Y-68696952D01*
X154488342Y-68696950D01*
X154375304Y-68639354D01*
X154375303Y-68639353D01*
X154375300Y-68639352D01*
X154250003Y-68619508D01*
X154249997Y-68619508D01*
X154124699Y-68639352D01*
X154124697Y-68639353D01*
X154098726Y-68652586D01*
X154030057Y-68665481D01*
X153965317Y-68639203D01*
X153954752Y-68629781D01*
X153824967Y-68499996D01*
X154744508Y-68499996D01*
X154744508Y-68500003D01*
X154764352Y-68625300D01*
X154764352Y-68625301D01*
X154770084Y-68636549D01*
X154782980Y-68705218D01*
X154778427Y-68716433D01*
X154828081Y-68744474D01*
X154911652Y-68828045D01*
X154911654Y-68828046D01*
X154911658Y-68828050D01*
X155024696Y-68885646D01*
X155024697Y-68885646D01*
X155024699Y-68885647D01*
X155149997Y-68905492D01*
X155150000Y-68905492D01*
X155150003Y-68905492D01*
X155275300Y-68885647D01*
X155275301Y-68885647D01*
X155275302Y-68885646D01*
X155275304Y-68885646D01*
X155388342Y-68828050D01*
X155478050Y-68738342D01*
X155535646Y-68625304D01*
X155535646Y-68625302D01*
X155535647Y-68625301D01*
X155535647Y-68625300D01*
X155555492Y-68500003D01*
X155555492Y-68499996D01*
X155535647Y-68374699D01*
X155535647Y-68374698D01*
X155535646Y-68374696D01*
X155478050Y-68261658D01*
X155478046Y-68261654D01*
X155478045Y-68261652D01*
X155388347Y-68171954D01*
X155388344Y-68171952D01*
X155388342Y-68171950D01*
X155275304Y-68114354D01*
X155275303Y-68114353D01*
X155275300Y-68114352D01*
X155150003Y-68094508D01*
X155149997Y-68094508D01*
X155024699Y-68114352D01*
X155024698Y-68114352D01*
X154955716Y-68149501D01*
X154911658Y-68171950D01*
X154911657Y-68171951D01*
X154911652Y-68171954D01*
X154821954Y-68261652D01*
X154821951Y-68261657D01*
X154821950Y-68261658D01*
X154807657Y-68289709D01*
X154764352Y-68374698D01*
X154764352Y-68374699D01*
X154744508Y-68499996D01*
X153824967Y-68499996D01*
X153434512Y-68109541D01*
X153434504Y-68109535D01*
X153365995Y-68069982D01*
X153365990Y-68069979D01*
X153340513Y-68063152D01*
X153289562Y-68049500D01*
X152110438Y-68049500D01*
X152072224Y-68059739D01*
X152034009Y-68069979D01*
X152034004Y-68069982D01*
X151965495Y-68109535D01*
X151965487Y-68109541D01*
X151661848Y-68413181D01*
X151600525Y-68446666D01*
X151574167Y-68449500D01*
X151316739Y-68449500D01*
X151248608Y-68459426D01*
X151143514Y-68510803D01*
X151141137Y-68513181D01*
X151137085Y-68515393D01*
X151135153Y-68516773D01*
X151134986Y-68516539D01*
X151079814Y-68546666D01*
X151053456Y-68549500D01*
X149737965Y-68549500D01*
X149670926Y-68529815D01*
X149650284Y-68513181D01*
X149376616Y-68239513D01*
X149376614Y-68239511D01*
X149276806Y-68181886D01*
X149228592Y-68131319D01*
X149220094Y-68087227D01*
X149216219Y-68098166D01*
X149160982Y-68140953D01*
X149115741Y-68149501D01*
X149040689Y-68149501D01*
X148926114Y-68180199D01*
X148823386Y-68239511D01*
X148823383Y-68239513D01*
X148739513Y-68323383D01*
X148739511Y-68323386D01*
X148680199Y-68426114D01*
X148649501Y-68540689D01*
X148649501Y-68659310D01*
X148680199Y-68773885D01*
X148706699Y-68819783D01*
X148739511Y-68876614D01*
X149223386Y-69360489D01*
X149273997Y-69389709D01*
X149279893Y-69393113D01*
X149328108Y-69443679D01*
X149341332Y-69512286D01*
X149315364Y-69577151D01*
X149258450Y-69617680D01*
X149217893Y-69624500D01*
X148217213Y-69624500D01*
X148150174Y-69604815D01*
X148105813Y-69554962D01*
X148103632Y-69550500D01*
X148092449Y-69527625D01*
X148092446Y-69527622D01*
X148092446Y-69527621D01*
X148001256Y-69436431D01*
X147967771Y-69375108D01*
X147972755Y-69305416D01*
X148001256Y-69261069D01*
X148089949Y-69172375D01*
X148089951Y-69172372D01*
X148116370Y-69118330D01*
X148142791Y-69064286D01*
X148153000Y-68994215D01*
X148152999Y-68605786D01*
X148142791Y-68535714D01*
X148142789Y-68535709D01*
X148142789Y-68535708D01*
X148089951Y-68427627D01*
X148089949Y-68427624D01*
X148004875Y-68342550D01*
X148004872Y-68342548D01*
X147896789Y-68289710D01*
X147896787Y-68289709D01*
X147896786Y-68289709D01*
X147826715Y-68279500D01*
X147826709Y-68279500D01*
X147363286Y-68279500D01*
X147313842Y-68286703D01*
X147293214Y-68289709D01*
X147293212Y-68289709D01*
X147293210Y-68289710D01*
X147293208Y-68289710D01*
X147185127Y-68342548D01*
X147185124Y-68342550D01*
X147100049Y-68427625D01*
X147098414Y-68429916D01*
X147095377Y-68432297D01*
X147092785Y-68434890D01*
X147092471Y-68434576D01*
X147043436Y-68473035D01*
X146973875Y-68479587D01*
X146911814Y-68447490D01*
X146896586Y-68429916D01*
X146894950Y-68427625D01*
X146809875Y-68342550D01*
X146809872Y-68342548D01*
X146701789Y-68289710D01*
X146701787Y-68289709D01*
X146701786Y-68289709D01*
X146631715Y-68279500D01*
X146631709Y-68279500D01*
X146168286Y-68279500D01*
X146118842Y-68286703D01*
X146098214Y-68289709D01*
X146098212Y-68289709D01*
X146098210Y-68289710D01*
X146098208Y-68289710D01*
X145990127Y-68342548D01*
X145990124Y-68342550D01*
X145905050Y-68427624D01*
X145905048Y-68427627D01*
X145852210Y-68535710D01*
X145852209Y-68535712D01*
X145852209Y-68535714D01*
X145842000Y-68605785D01*
X145842000Y-68605789D01*
X145842000Y-68605790D01*
X145842000Y-68994213D01*
X145846485Y-69024996D01*
X145852209Y-69064286D01*
X145852209Y-69064287D01*
X145852210Y-69064289D01*
X145852210Y-69064291D01*
X145905048Y-69172372D01*
X145905050Y-69172375D01*
X145996244Y-69263569D01*
X146029729Y-69324892D01*
X146024745Y-69394584D01*
X145996244Y-69438931D01*
X145907550Y-69527624D01*
X145907548Y-69527627D01*
X145854710Y-69635710D01*
X145854709Y-69635712D01*
X145854709Y-69635714D01*
X145844500Y-69705785D01*
X145844500Y-69705789D01*
X145844500Y-69705790D01*
X145844500Y-70094213D01*
X145848941Y-70124692D01*
X145854709Y-70164286D01*
X145854709Y-70164287D01*
X145854710Y-70164289D01*
X145854710Y-70164291D01*
X145907548Y-70272372D01*
X145907550Y-70272375D01*
X145993969Y-70358794D01*
X146027454Y-70420117D01*
X146022470Y-70489809D01*
X145990123Y-70533018D01*
X145992390Y-70535285D01*
X145900050Y-70627624D01*
X145900048Y-70627627D01*
X145847210Y-70735710D01*
X145847209Y-70735712D01*
X145847209Y-70735714D01*
X145837000Y-70805785D01*
X145837000Y-70805789D01*
X145837000Y-70805790D01*
X145837000Y-71152375D01*
X145817315Y-71219414D01*
X145800681Y-71240056D01*
X145590670Y-71450066D01*
X145590661Y-71450078D01*
X145537636Y-71503103D01*
X145499500Y-71595170D01*
X145499500Y-79624829D01*
X145537636Y-79716897D01*
X145983189Y-80162450D01*
X146016674Y-80223773D01*
X146019465Y-80249733D01*
X146039352Y-80375300D01*
X146039352Y-80375301D01*
X146039354Y-80375304D01*
X146096950Y-80488342D01*
X146096952Y-80488344D01*
X146096954Y-80488347D01*
X146186652Y-80578045D01*
X146186654Y-80578046D01*
X146186658Y-80578050D01*
X146299696Y-80635646D01*
X146299697Y-80635646D01*
X146299699Y-80635647D01*
X146424997Y-80655492D01*
X146425000Y-80655492D01*
X146425003Y-80655492D01*
X146550300Y-80635647D01*
X146550301Y-80635647D01*
X146550302Y-80635646D01*
X146550304Y-80635646D01*
X146663342Y-80578050D01*
X146753050Y-80488342D01*
X146810646Y-80375304D01*
X146810646Y-80375302D01*
X146810647Y-80375301D01*
X146810647Y-80375300D01*
X146830492Y-80250003D01*
X146830492Y-80249996D01*
X146810647Y-80124699D01*
X146810647Y-80124698D01*
X146792323Y-80088736D01*
X146753050Y-80011658D01*
X146753046Y-80011654D01*
X146753045Y-80011652D01*
X146663343Y-79921950D01*
X146658538Y-79918459D01*
X146615872Y-79863130D01*
X146609893Y-79793516D01*
X146642498Y-79731721D01*
X146703337Y-79697364D01*
X146712000Y-79695672D01*
X146775304Y-79685646D01*
X146888342Y-79628050D01*
X146978050Y-79538342D01*
X147035646Y-79425304D01*
X147035646Y-79425302D01*
X147035647Y-79425301D01*
X147035647Y-79425300D01*
X147055492Y-79300003D01*
X147055492Y-79299996D01*
X147035647Y-79174699D01*
X147035647Y-79174698D01*
X147023424Y-79150710D01*
X146978050Y-79061658D01*
X146978046Y-79061654D01*
X146978045Y-79061652D01*
X146888347Y-78971954D01*
X146888344Y-78971952D01*
X146888342Y-78971950D01*
X146775304Y-78914354D01*
X146775303Y-78914353D01*
X146775300Y-78914352D01*
X146650003Y-78894508D01*
X146649997Y-78894508D01*
X146524699Y-78914352D01*
X146524698Y-78914352D01*
X146469947Y-78942250D01*
X146411658Y-78971950D01*
X146411657Y-78971951D01*
X146411652Y-78971954D01*
X146321954Y-79061652D01*
X146321951Y-79061657D01*
X146321950Y-79061658D01*
X146314762Y-79075765D01*
X146264352Y-79174698D01*
X146246973Y-79284433D01*
X146217044Y-79347567D01*
X146157733Y-79384499D01*
X146087870Y-79383501D01*
X146029637Y-79344892D01*
X146001523Y-79280928D01*
X146000500Y-79265035D01*
X146000500Y-73603855D01*
X146020185Y-73536816D01*
X146072989Y-73491061D01*
X146142147Y-73481117D01*
X146182121Y-73494056D01*
X146217635Y-73512696D01*
X146217637Y-73512696D01*
X146217638Y-73512697D01*
X146371014Y-73550500D01*
X146371015Y-73550500D01*
X146528985Y-73550500D01*
X146682365Y-73512696D01*
X146717874Y-73494059D01*
X146822240Y-73439283D01*
X146940483Y-73334530D01*
X147030220Y-73204523D01*
X147086237Y-73056818D01*
X147105278Y-72900000D01*
X147100623Y-72861658D01*
X147086237Y-72743181D01*
X147064992Y-72687164D01*
X147030220Y-72595477D01*
X146940483Y-72465470D01*
X146822240Y-72360717D01*
X146822238Y-72360716D01*
X146822237Y-72360715D01*
X146682365Y-72287303D01*
X146528986Y-72249500D01*
X146528985Y-72249500D01*
X146371015Y-72249500D01*
X146371014Y-72249500D01*
X146217637Y-72287303D01*
X146217635Y-72287303D01*
X146217635Y-72287304D01*
X146204548Y-72294173D01*
X146182126Y-72305941D01*
X146113617Y-72319666D01*
X146048564Y-72294173D01*
X146007620Y-72237557D01*
X146000500Y-72196144D01*
X146000500Y-71800121D01*
X146020185Y-71733082D01*
X146036815Y-71712444D01*
X146192441Y-71556817D01*
X146253764Y-71523333D01*
X146280122Y-71520499D01*
X146626714Y-71520499D01*
X146696786Y-71510291D01*
X146696790Y-71510289D01*
X146696791Y-71510289D01*
X146804872Y-71457451D01*
X146804875Y-71457449D01*
X146889949Y-71372375D01*
X146889951Y-71372372D01*
X146916370Y-71318330D01*
X146942791Y-71264286D01*
X146953000Y-71194215D01*
X146952999Y-70805786D01*
X146942791Y-70735714D01*
X146942789Y-70735709D01*
X146942789Y-70735708D01*
X146889951Y-70627627D01*
X146889949Y-70627624D01*
X146803530Y-70541205D01*
X146770045Y-70479882D01*
X146775029Y-70410190D01*
X146807375Y-70366980D01*
X146805110Y-70364715D01*
X146897447Y-70272377D01*
X146897449Y-70272375D01*
X146897450Y-70272372D01*
X146899083Y-70270087D01*
X146902120Y-70267704D01*
X146904715Y-70265110D01*
X146905028Y-70265423D01*
X146954058Y-70226966D01*
X147023620Y-70220411D01*
X147085682Y-70252505D01*
X147100917Y-70270087D01*
X147102552Y-70272377D01*
X147187624Y-70357449D01*
X147187627Y-70357451D01*
X147291201Y-70408084D01*
X147295714Y-70410291D01*
X147365785Y-70420500D01*
X147829214Y-70420499D01*
X147899286Y-70410291D01*
X147899290Y-70410289D01*
X147899291Y-70410289D01*
X148007372Y-70357451D01*
X148007375Y-70357449D01*
X148092446Y-70272378D01*
X148092449Y-70272375D01*
X148105813Y-70245036D01*
X148152942Y-70193457D01*
X148217213Y-70175500D01*
X149434523Y-70175500D01*
X149501562Y-70195185D01*
X149522204Y-70211819D01*
X149688181Y-70377796D01*
X149721666Y-70439119D01*
X149724500Y-70465477D01*
X149724500Y-76654800D01*
X149759104Y-76738339D01*
X149759104Y-76738341D01*
X149766440Y-76756053D01*
X149766442Y-76756056D01*
X149766443Y-76756058D01*
X149766445Y-76756060D01*
X151048203Y-78037819D01*
X151081688Y-78099142D01*
X151076704Y-78168834D01*
X151034832Y-78224767D01*
X150969368Y-78249184D01*
X150960522Y-78249500D01*
X150799982Y-78249500D01*
X150732943Y-78229815D01*
X150687188Y-78177011D01*
X150682941Y-78166456D01*
X150679115Y-78155523D01*
X150600711Y-78049289D01*
X150600710Y-78049288D01*
X150494476Y-77970884D01*
X150369848Y-77927274D01*
X150369849Y-77927274D01*
X150340260Y-77924500D01*
X150340256Y-77924500D01*
X149659744Y-77924500D01*
X149659740Y-77924500D01*
X149630150Y-77927274D01*
X149505523Y-77970884D01*
X149399289Y-78049288D01*
X149399288Y-78049289D01*
X149320884Y-78155523D01*
X149277274Y-78280150D01*
X149274500Y-78309739D01*
X149274500Y-78829456D01*
X149254815Y-78896495D01*
X149202011Y-78942250D01*
X149132853Y-78952194D01*
X149069297Y-78923169D01*
X149062819Y-78917137D01*
X149011819Y-78866137D01*
X148978334Y-78804814D01*
X148975500Y-78778456D01*
X148975500Y-78309739D01*
X148972725Y-78280150D01*
X148929115Y-78155523D01*
X148850711Y-78049289D01*
X148850710Y-78049288D01*
X148744476Y-77970884D01*
X148619848Y-77927274D01*
X148619849Y-77927274D01*
X148590260Y-77924500D01*
X148590256Y-77924500D01*
X147909744Y-77924500D01*
X147909740Y-77924500D01*
X147880150Y-77927274D01*
X147755523Y-77970884D01*
X147649289Y-78049288D01*
X147649288Y-78049289D01*
X147570884Y-78155523D01*
X147527274Y-78280150D01*
X147524500Y-78309739D01*
X147524500Y-78890260D01*
X147527274Y-78919849D01*
X147570884Y-79044476D01*
X147649288Y-79150710D01*
X147649289Y-79150711D01*
X147755523Y-79229115D01*
X147755524Y-79229115D01*
X147755525Y-79229116D01*
X147880151Y-79272725D01*
X147880150Y-79272725D01*
X147909740Y-79275500D01*
X147909744Y-79275500D01*
X148378456Y-79275500D01*
X148445495Y-79295185D01*
X148466137Y-79311819D01*
X148520601Y-79366283D01*
X148554086Y-79427606D01*
X148549102Y-79497298D01*
X148530751Y-79525863D01*
X148532643Y-79527214D01*
X148526674Y-79535573D01*
X148474567Y-79642157D01*
X148474567Y-79642160D01*
X148464500Y-79711258D01*
X148464500Y-80088742D01*
X148469739Y-80124699D01*
X148474567Y-80157842D01*
X148526676Y-80264430D01*
X148526677Y-80264431D01*
X148563180Y-80300933D01*
X148596666Y-80362256D01*
X148599500Y-80388615D01*
X148599500Y-80637947D01*
X148586901Y-80692406D01*
X148559428Y-80748604D01*
X148559425Y-80748612D01*
X148551082Y-80805878D01*
X148521938Y-80869379D01*
X148463088Y-80907043D01*
X148428378Y-80912000D01*
X148248214Y-80912000D01*
X148157848Y-80936213D01*
X148157847Y-80936212D01*
X148133639Y-80942699D01*
X148133636Y-80942700D01*
X148030909Y-81002011D01*
X148030906Y-81002013D01*
X147978729Y-81054191D01*
X147917406Y-81087676D01*
X147891048Y-81090510D01*
X147850027Y-81090510D01*
X147696647Y-81128313D01*
X147556775Y-81201725D01*
X147438529Y-81306481D01*
X147348794Y-81436485D01*
X147348793Y-81436486D01*
X147292775Y-81584191D01*
X147273735Y-81741009D01*
X147273735Y-81741010D01*
X147292775Y-81897828D01*
X147333093Y-82004135D01*
X147348793Y-82045533D01*
X147438530Y-82175540D01*
X147556773Y-82280293D01*
X147556775Y-82280294D01*
X147696647Y-82353706D01*
X147850027Y-82391510D01*
X147850028Y-82391510D01*
X148007998Y-82391510D01*
X148161378Y-82353706D01*
X148301253Y-82280293D01*
X148419496Y-82175540D01*
X148451508Y-82129161D01*
X148505790Y-82085172D01*
X148575239Y-82077512D01*
X148637804Y-82108615D01*
X148641239Y-82111921D01*
X148693514Y-82164196D01*
X148693515Y-82164196D01*
X148693517Y-82164198D01*
X148798607Y-82215573D01*
X148832673Y-82220536D01*
X148866739Y-82225500D01*
X148866740Y-82225500D01*
X149233261Y-82225500D01*
X149255971Y-82222191D01*
X149301393Y-82215573D01*
X149406483Y-82164198D01*
X149489198Y-82081483D01*
X149540573Y-81976393D01*
X149550500Y-81908260D01*
X149550500Y-80816740D01*
X149550500Y-80816739D01*
X150449500Y-80816739D01*
X150449500Y-81908260D01*
X150459426Y-81976391D01*
X150510803Y-82081485D01*
X150593514Y-82164196D01*
X150593515Y-82164196D01*
X150593517Y-82164198D01*
X150698607Y-82215573D01*
X150732673Y-82220536D01*
X150766739Y-82225500D01*
X150766740Y-82225500D01*
X151133261Y-82225500D01*
X151155971Y-82222191D01*
X151201393Y-82215573D01*
X151306483Y-82164198D01*
X151389198Y-82081483D01*
X151440573Y-81976393D01*
X151450500Y-81908260D01*
X151450500Y-81524996D01*
X152144508Y-81524996D01*
X152144508Y-81525003D01*
X152164352Y-81650300D01*
X152164352Y-81650301D01*
X152164354Y-81650304D01*
X152221950Y-81763342D01*
X152221952Y-81763344D01*
X152221954Y-81763347D01*
X152311652Y-81853045D01*
X152311654Y-81853046D01*
X152311658Y-81853050D01*
X152424696Y-81910646D01*
X152424697Y-81910646D01*
X152424699Y-81910647D01*
X152549997Y-81930492D01*
X152550000Y-81930492D01*
X152550003Y-81930492D01*
X152675300Y-81910647D01*
X152675301Y-81910647D01*
X152675302Y-81910646D01*
X152675304Y-81910646D01*
X152788342Y-81853050D01*
X152878050Y-81763342D01*
X152935646Y-81650304D01*
X152935646Y-81650302D01*
X152935647Y-81650301D01*
X152935647Y-81650300D01*
X152955492Y-81525003D01*
X152955492Y-81524996D01*
X152935647Y-81399699D01*
X152935647Y-81399698D01*
X152935646Y-81399696D01*
X152878050Y-81286658D01*
X152878046Y-81286654D01*
X152878045Y-81286652D01*
X152788347Y-81196954D01*
X152788344Y-81196952D01*
X152788342Y-81196950D01*
X152675304Y-81139354D01*
X152675303Y-81139353D01*
X152675300Y-81139352D01*
X152550003Y-81119508D01*
X152549997Y-81119508D01*
X152424699Y-81139352D01*
X152424698Y-81139352D01*
X152374037Y-81165166D01*
X152311658Y-81196950D01*
X152311657Y-81196951D01*
X152311652Y-81196954D01*
X152221954Y-81286652D01*
X152221951Y-81286657D01*
X152164352Y-81399698D01*
X152164352Y-81399699D01*
X152144508Y-81524996D01*
X151450500Y-81524996D01*
X151450500Y-80816740D01*
X151448917Y-80805878D01*
X151445536Y-80782673D01*
X151440573Y-80748607D01*
X151389198Y-80643517D01*
X151389196Y-80643515D01*
X151389196Y-80643514D01*
X151306485Y-80560803D01*
X151201391Y-80509426D01*
X151133261Y-80499500D01*
X151133260Y-80499500D01*
X150766740Y-80499500D01*
X150766739Y-80499500D01*
X150698608Y-80509426D01*
X150593514Y-80560803D01*
X150510803Y-80643514D01*
X150459426Y-80748608D01*
X150449500Y-80816739D01*
X149550500Y-80816739D01*
X149540574Y-80748611D01*
X149540573Y-80748608D01*
X149540573Y-80748607D01*
X149526869Y-80720575D01*
X149513099Y-80692406D01*
X149500500Y-80637947D01*
X149500500Y-80353615D01*
X149520185Y-80286576D01*
X149536824Y-80265929D01*
X149538324Y-80264429D01*
X149590433Y-80157840D01*
X149600500Y-80088742D01*
X149600500Y-79711258D01*
X149590433Y-79642160D01*
X149583532Y-79628045D01*
X149538323Y-79535569D01*
X149468728Y-79465974D01*
X149435243Y-79404651D01*
X149440227Y-79334959D01*
X149482099Y-79279026D01*
X149547563Y-79254609D01*
X149597365Y-79261252D01*
X149611245Y-79266109D01*
X149630150Y-79272725D01*
X149659740Y-79275500D01*
X149659744Y-79275500D01*
X150340260Y-79275500D01*
X150369849Y-79272725D01*
X150494475Y-79229116D01*
X150600711Y-79150711D01*
X150656024Y-79075763D01*
X150711670Y-79033514D01*
X150781326Y-79028055D01*
X150842875Y-79061122D01*
X150867193Y-79094938D01*
X150905048Y-79172372D01*
X150905050Y-79172375D01*
X150990124Y-79257449D01*
X150990127Y-79257451D01*
X151093701Y-79308084D01*
X151098214Y-79310291D01*
X151168285Y-79320500D01*
X151631714Y-79320499D01*
X151701786Y-79310291D01*
X151701790Y-79310289D01*
X151701791Y-79310289D01*
X151809872Y-79257451D01*
X151809875Y-79257449D01*
X151894949Y-79172375D01*
X151894951Y-79172372D01*
X151946406Y-79067119D01*
X151947791Y-79064286D01*
X151958000Y-78994215D01*
X151957999Y-78605786D01*
X151947791Y-78535714D01*
X151947789Y-78535711D01*
X151946402Y-78526185D01*
X151947768Y-78525985D01*
X151946931Y-78466237D01*
X151983877Y-78406935D01*
X152047019Y-78377022D01*
X152066386Y-78375500D01*
X154834523Y-78375500D01*
X154901562Y-78395185D01*
X154922204Y-78411819D01*
X155088181Y-78577796D01*
X155121666Y-78639119D01*
X155124500Y-78665477D01*
X155124500Y-79734522D01*
X155104815Y-79801561D01*
X155088181Y-79822203D01*
X154622204Y-80288181D01*
X154560881Y-80321666D01*
X154534523Y-80324500D01*
X153542255Y-80324500D01*
X153475216Y-80304815D01*
X153454574Y-80288181D01*
X153438347Y-80271954D01*
X153438344Y-80271952D01*
X153438342Y-80271950D01*
X153325304Y-80214354D01*
X153325303Y-80214353D01*
X153325300Y-80214352D01*
X153200003Y-80194508D01*
X153199997Y-80194508D01*
X153074699Y-80214352D01*
X153074698Y-80214352D01*
X153005261Y-80249733D01*
X152961658Y-80271950D01*
X152961657Y-80271951D01*
X152961652Y-80271954D01*
X152871954Y-80361652D01*
X152871951Y-80361657D01*
X152871950Y-80361658D01*
X152864999Y-80375300D01*
X152814352Y-80474698D01*
X152814352Y-80474699D01*
X152794508Y-80599996D01*
X152794508Y-80600003D01*
X152814352Y-80725300D01*
X152814352Y-80725301D01*
X152826230Y-80748612D01*
X152871950Y-80838342D01*
X152871952Y-80838344D01*
X152871954Y-80838347D01*
X152961652Y-80928045D01*
X152961654Y-80928046D01*
X152961658Y-80928050D01*
X153074696Y-80985646D01*
X153074697Y-80985646D01*
X153074699Y-80985647D01*
X153199997Y-81005492D01*
X153200000Y-81005492D01*
X153200003Y-81005492D01*
X153325300Y-80985647D01*
X153325301Y-80985647D01*
X153325302Y-80985646D01*
X153325304Y-80985646D01*
X153438342Y-80928050D01*
X153438347Y-80928045D01*
X153454574Y-80911819D01*
X153515897Y-80878334D01*
X153542255Y-80875500D01*
X154754799Y-80875500D01*
X154754800Y-80875500D01*
X154856058Y-80833557D01*
X154933557Y-80756058D01*
X154933556Y-80756058D01*
X154992125Y-80697489D01*
X155633557Y-80056059D01*
X155666383Y-79976809D01*
X155675500Y-79954800D01*
X155675500Y-78445200D01*
X155633557Y-78343942D01*
X155633557Y-78343941D01*
X155156058Y-77866443D01*
X155156056Y-77866442D01*
X155140389Y-77859952D01*
X155054800Y-77824500D01*
X153549307Y-77824500D01*
X153482268Y-77804815D01*
X153436513Y-77752011D01*
X153426569Y-77682853D01*
X153436513Y-77648988D01*
X153485165Y-77542456D01*
X153505647Y-77400000D01*
X153500657Y-77365293D01*
X153510601Y-77296135D01*
X153535711Y-77259969D01*
X154508863Y-76286819D01*
X154570186Y-76253334D01*
X154596544Y-76250500D01*
X154783261Y-76250500D01*
X154805971Y-76247191D01*
X154851393Y-76240573D01*
X154956483Y-76189198D01*
X155039198Y-76106483D01*
X155090573Y-76001393D01*
X155100500Y-75933260D01*
X155100500Y-75466740D01*
X155090573Y-75398607D01*
X155039198Y-75293517D01*
X155039196Y-75293515D01*
X155039196Y-75293514D01*
X154956485Y-75210803D01*
X154851391Y-75159426D01*
X154783261Y-75149500D01*
X154783260Y-75149500D01*
X154684500Y-75149500D01*
X154617461Y-75129815D01*
X154571706Y-75077011D01*
X154561762Y-75007853D01*
X154590787Y-74944297D01*
X154649565Y-74906523D01*
X154666616Y-74902796D01*
X154682840Y-74900433D01*
X154789429Y-74848324D01*
X154789430Y-74848323D01*
X154789432Y-74848322D01*
X154873322Y-74764432D01*
X154873322Y-74764430D01*
X154873324Y-74764429D01*
X154885832Y-74738842D01*
X154895027Y-74720037D01*
X154942156Y-74668456D01*
X155006426Y-74650500D01*
X155049826Y-74650500D01*
X155049828Y-74650500D01*
X155141897Y-74612364D01*
X155212449Y-74541810D01*
X155273772Y-74508326D01*
X155299733Y-74505534D01*
X155299999Y-74505491D01*
X155300000Y-74505492D01*
X155355011Y-74496779D01*
X155425300Y-74485647D01*
X155425301Y-74485647D01*
X155425302Y-74485646D01*
X155425304Y-74485646D01*
X155538342Y-74428050D01*
X155628050Y-74338342D01*
X155685646Y-74225304D01*
X155685646Y-74225302D01*
X155685647Y-74225301D01*
X155685647Y-74225300D01*
X155700000Y-74134678D01*
X155700000Y-89799500D01*
X144770936Y-89799500D01*
X144703897Y-89779815D01*
X144658142Y-89727011D01*
X144648198Y-89657853D01*
X144659534Y-89621042D01*
X144690433Y-89557840D01*
X144700500Y-89488742D01*
X144700500Y-89174500D01*
X144720185Y-89107461D01*
X144772989Y-89061706D01*
X144824500Y-89050500D01*
X147247389Y-89050500D01*
X147314428Y-89070185D01*
X147335070Y-89086819D01*
X147421774Y-89173523D01*
X147421778Y-89173526D01*
X147421780Y-89173528D01*
X147541874Y-89234719D01*
X147541876Y-89234719D01*
X147541878Y-89234720D01*
X147641507Y-89250500D01*
X147641512Y-89250500D01*
X148558493Y-89250500D01*
X148658121Y-89234720D01*
X148658121Y-89234719D01*
X148658126Y-89234719D01*
X148778220Y-89173528D01*
X148873528Y-89078220D01*
X148934719Y-88958126D01*
X148934720Y-88958121D01*
X148950500Y-88858493D01*
X148950500Y-88341506D01*
X148934720Y-88241878D01*
X148934719Y-88241876D01*
X148934719Y-88241874D01*
X148873528Y-88121780D01*
X148873526Y-88121778D01*
X148873523Y-88121774D01*
X148778225Y-88026476D01*
X148778221Y-88026473D01*
X148778220Y-88026472D01*
X148658126Y-87965281D01*
X148658124Y-87965280D01*
X148658121Y-87965279D01*
X148558493Y-87949500D01*
X148558488Y-87949500D01*
X147641512Y-87949500D01*
X147641507Y-87949500D01*
X147541878Y-87965279D01*
X147421778Y-88026473D01*
X147421774Y-88026476D01*
X147335070Y-88113181D01*
X147273747Y-88146666D01*
X147247389Y-88149500D01*
X143615107Y-88149500D01*
X143548068Y-88129815D01*
X143502313Y-88077011D01*
X143491108Y-88026059D01*
X143490834Y-87965279D01*
X143479955Y-85550058D01*
X143499338Y-85482931D01*
X143551935Y-85436939D01*
X143603954Y-85425500D01*
X143878378Y-85425500D01*
X143945417Y-85445185D01*
X143991172Y-85497989D01*
X144001082Y-85531622D01*
X144009426Y-85588891D01*
X144036901Y-85645092D01*
X144049500Y-85699552D01*
X144049500Y-86159309D01*
X144069706Y-86234719D01*
X144074953Y-86254303D01*
X144080201Y-86273888D01*
X144080204Y-86273893D01*
X144139511Y-86376614D01*
X144139512Y-86376615D01*
X144139513Y-86376616D01*
X144353181Y-86590284D01*
X144386666Y-86651607D01*
X144389102Y-86674266D01*
X144389175Y-86674261D01*
X144389326Y-86676353D01*
X144389500Y-86677965D01*
X144389500Y-86678742D01*
X144395482Y-86719798D01*
X144399567Y-86747842D01*
X144451676Y-86854430D01*
X144535569Y-86938323D01*
X144642157Y-86990432D01*
X144642158Y-86990432D01*
X144642160Y-86990433D01*
X144711258Y-87000500D01*
X144711264Y-87000500D01*
X145088736Y-87000500D01*
X145088742Y-87000500D01*
X145157840Y-86990433D01*
X145264429Y-86938324D01*
X145264430Y-86938323D01*
X145264432Y-86938322D01*
X145348322Y-86854432D01*
X145348325Y-86854427D01*
X145365138Y-86820038D01*
X145412266Y-86768456D01*
X145476537Y-86750500D01*
X146259308Y-86750500D01*
X146259309Y-86750500D01*
X146349673Y-86726286D01*
X146373887Y-86719799D01*
X146476614Y-86660489D01*
X146760490Y-86376614D01*
X146819799Y-86273887D01*
X146830294Y-86234719D01*
X146850500Y-86159309D01*
X146850500Y-85699552D01*
X146863099Y-85645092D01*
X146890573Y-85588893D01*
X146900500Y-85520760D01*
X146900500Y-85341506D01*
X147249500Y-85341506D01*
X147249500Y-85858493D01*
X147265279Y-85958121D01*
X147265280Y-85958124D01*
X147265281Y-85958126D01*
X147272720Y-85972725D01*
X147326473Y-86078221D01*
X147326476Y-86078225D01*
X147421774Y-86173523D01*
X147421778Y-86173526D01*
X147421780Y-86173528D01*
X147541874Y-86234719D01*
X147541876Y-86234719D01*
X147541878Y-86234720D01*
X147641507Y-86250500D01*
X147641512Y-86250500D01*
X148558493Y-86250500D01*
X148658121Y-86234720D01*
X148658121Y-86234719D01*
X148658126Y-86234719D01*
X148778220Y-86173528D01*
X148873528Y-86078220D01*
X148934719Y-85958126D01*
X148934720Y-85958121D01*
X148950500Y-85858493D01*
X148950500Y-85437965D01*
X148970185Y-85370926D01*
X148986819Y-85350284D01*
X149100284Y-85236819D01*
X149161607Y-85203334D01*
X149187965Y-85200500D01*
X150559307Y-85200500D01*
X150559308Y-85200500D01*
X150649672Y-85176286D01*
X150673886Y-85169799D01*
X150776613Y-85110489D01*
X150862319Y-85024783D01*
X150923642Y-84991298D01*
X150993334Y-84996282D01*
X151037681Y-85024783D01*
X151673387Y-85660489D01*
X151776114Y-85719799D01*
X151800322Y-85726284D01*
X151800325Y-85726286D01*
X151800326Y-85726286D01*
X151830448Y-85734357D01*
X151890692Y-85750500D01*
X152387732Y-85750500D01*
X152454771Y-85770185D01*
X152487502Y-85800866D01*
X152524288Y-85850710D01*
X152524290Y-85850712D01*
X152630523Y-85929115D01*
X152630524Y-85929115D01*
X152630525Y-85929116D01*
X152755151Y-85972725D01*
X152755150Y-85972725D01*
X152784740Y-85975500D01*
X152784744Y-85975500D01*
X153490260Y-85975500D01*
X153519849Y-85972725D01*
X153644475Y-85929116D01*
X153750711Y-85850711D01*
X153829116Y-85744475D01*
X153872725Y-85619849D01*
X153875500Y-85590256D01*
X153875500Y-85009744D01*
X153874586Y-85000000D01*
X153872725Y-84980150D01*
X153829115Y-84855523D01*
X153750711Y-84749289D01*
X153750710Y-84749288D01*
X153644476Y-84670884D01*
X153519848Y-84627274D01*
X153519849Y-84627274D01*
X153490260Y-84624500D01*
X153490256Y-84624500D01*
X152784744Y-84624500D01*
X152784740Y-84624500D01*
X152755150Y-84627274D01*
X152630523Y-84670884D01*
X152524290Y-84749287D01*
X152487502Y-84799134D01*
X152431854Y-84841385D01*
X152387732Y-84849500D01*
X152187966Y-84849500D01*
X152120927Y-84829815D01*
X152100285Y-84813181D01*
X151486819Y-84199715D01*
X151453334Y-84138392D01*
X151450500Y-84112034D01*
X151450500Y-83699996D01*
X152144508Y-83699996D01*
X152144508Y-83700003D01*
X152164352Y-83825300D01*
X152164352Y-83825301D01*
X152164354Y-83825304D01*
X152221950Y-83938342D01*
X152221952Y-83938344D01*
X152221954Y-83938347D01*
X152311652Y-84028045D01*
X152311654Y-84028046D01*
X152311658Y-84028050D01*
X152424696Y-84085646D01*
X152424697Y-84085646D01*
X152424699Y-84085647D01*
X152549997Y-84105492D01*
X152550000Y-84105492D01*
X152550003Y-84105492D01*
X152675300Y-84085647D01*
X152675301Y-84085647D01*
X152675302Y-84085646D01*
X152675304Y-84085646D01*
X152788342Y-84028050D01*
X152878050Y-83938342D01*
X152935646Y-83825304D01*
X152935646Y-83825302D01*
X152935647Y-83825301D01*
X152935647Y-83825300D01*
X152955492Y-83700003D01*
X152955492Y-83699996D01*
X152935647Y-83574699D01*
X152935647Y-83574698D01*
X152935646Y-83574696D01*
X152878050Y-83461658D01*
X152878046Y-83461654D01*
X152878045Y-83461652D01*
X152788347Y-83371954D01*
X152788344Y-83371952D01*
X152788342Y-83371950D01*
X152675304Y-83314354D01*
X152675303Y-83314353D01*
X152675300Y-83314352D01*
X152550003Y-83294508D01*
X152549997Y-83294508D01*
X152424699Y-83314352D01*
X152424698Y-83314352D01*
X152368118Y-83343182D01*
X152311658Y-83371950D01*
X152311657Y-83371951D01*
X152311652Y-83371954D01*
X152221954Y-83461652D01*
X152221951Y-83461657D01*
X152164352Y-83574698D01*
X152164352Y-83574699D01*
X152144508Y-83699996D01*
X151450500Y-83699996D01*
X151450500Y-83091739D01*
X151440573Y-83023608D01*
X151440573Y-83023607D01*
X151389198Y-82918517D01*
X151389196Y-82918515D01*
X151389196Y-82918514D01*
X151306485Y-82835803D01*
X151201391Y-82784426D01*
X151133261Y-82774500D01*
X151133260Y-82774500D01*
X150766740Y-82774500D01*
X150766739Y-82774500D01*
X150698608Y-82784426D01*
X150593514Y-82835803D01*
X150510803Y-82918514D01*
X150459426Y-83023608D01*
X150449500Y-83091739D01*
X150449500Y-84112034D01*
X150429815Y-84179073D01*
X150413181Y-84199715D01*
X150349715Y-84263181D01*
X150288392Y-84296666D01*
X150262034Y-84299500D01*
X149674500Y-84299500D01*
X149607461Y-84279815D01*
X149561706Y-84227011D01*
X149550500Y-84175500D01*
X149550500Y-83091739D01*
X149540573Y-83023608D01*
X149540573Y-83023607D01*
X149489198Y-82918517D01*
X149489196Y-82918515D01*
X149489196Y-82918514D01*
X149406485Y-82835803D01*
X149301391Y-82784426D01*
X149233261Y-82774500D01*
X149233260Y-82774500D01*
X148866740Y-82774500D01*
X148866739Y-82774500D01*
X148798608Y-82784426D01*
X148693514Y-82835803D01*
X148610803Y-82918514D01*
X148559426Y-83023608D01*
X148549500Y-83091739D01*
X148549500Y-83468694D01*
X148529815Y-83535733D01*
X148477011Y-83581488D01*
X148407853Y-83591432D01*
X148369206Y-83579179D01*
X148309924Y-83548973D01*
X148309920Y-83548972D01*
X148184623Y-83529128D01*
X148184617Y-83529128D01*
X148059319Y-83548972D01*
X148059318Y-83548972D01*
X147995504Y-83581488D01*
X147946278Y-83606570D01*
X147946277Y-83606571D01*
X147946272Y-83606574D01*
X147856574Y-83696272D01*
X147856571Y-83696277D01*
X147798972Y-83809318D01*
X147798972Y-83809319D01*
X147779128Y-83934616D01*
X147779128Y-83934623D01*
X147798972Y-84059920D01*
X147798972Y-84059921D01*
X147817425Y-84096137D01*
X147856570Y-84172962D01*
X147856572Y-84172964D01*
X147856574Y-84172967D01*
X147946272Y-84262665D01*
X147946274Y-84262666D01*
X147946278Y-84262670D01*
X148059316Y-84320266D01*
X148059317Y-84320266D01*
X148059319Y-84320267D01*
X148184617Y-84340112D01*
X148184620Y-84340112D01*
X148184623Y-84340112D01*
X148309920Y-84320267D01*
X148309922Y-84320266D01*
X148309924Y-84320266D01*
X148419206Y-84264583D01*
X148487873Y-84251687D01*
X148552614Y-84277963D01*
X148592871Y-84335069D01*
X148599500Y-84375068D01*
X148599500Y-84412035D01*
X148579815Y-84479074D01*
X148563181Y-84499716D01*
X148149716Y-84913181D01*
X148088393Y-84946666D01*
X148062035Y-84949500D01*
X147641507Y-84949500D01*
X147541878Y-84965279D01*
X147421778Y-85026473D01*
X147421774Y-85026476D01*
X147326476Y-85121774D01*
X147326473Y-85121778D01*
X147265279Y-85241878D01*
X147249500Y-85341506D01*
X146900500Y-85341506D01*
X146900500Y-84429240D01*
X146898917Y-84418378D01*
X146890573Y-84361108D01*
X146880309Y-84340112D01*
X146839198Y-84256017D01*
X146839196Y-84256015D01*
X146839196Y-84256014D01*
X146756485Y-84173303D01*
X146755787Y-84172962D01*
X146651393Y-84121927D01*
X146651391Y-84121926D01*
X146583261Y-84112000D01*
X146583260Y-84112000D01*
X146216740Y-84112000D01*
X146216739Y-84112000D01*
X146148608Y-84121926D01*
X146043514Y-84173303D01*
X145960803Y-84256014D01*
X145909426Y-84361108D01*
X145899500Y-84429239D01*
X145899500Y-85520760D01*
X145909426Y-85588891D01*
X145936901Y-85645092D01*
X145949500Y-85699552D01*
X145949500Y-85725500D01*
X145929815Y-85792539D01*
X145877011Y-85838294D01*
X145825500Y-85849500D01*
X145074500Y-85849500D01*
X145007461Y-85829815D01*
X144961706Y-85777011D01*
X144950500Y-85725500D01*
X144950500Y-85699552D01*
X144963099Y-85645092D01*
X144990573Y-85588893D01*
X145000500Y-85520760D01*
X145000500Y-84429240D01*
X144998917Y-84418378D01*
X144990573Y-84361108D01*
X144980309Y-84340112D01*
X144939198Y-84256017D01*
X144939196Y-84256015D01*
X144939196Y-84256014D01*
X144856485Y-84173303D01*
X144855787Y-84172962D01*
X144751393Y-84121927D01*
X144751391Y-84121926D01*
X144683261Y-84112000D01*
X144683260Y-84112000D01*
X144316740Y-84112000D01*
X144316739Y-84112000D01*
X144248608Y-84121926D01*
X144143514Y-84173303D01*
X144060803Y-84256014D01*
X144009426Y-84361108D01*
X144001082Y-84418378D01*
X143971938Y-84481879D01*
X143913088Y-84519543D01*
X143878378Y-84524500D01*
X143598779Y-84524500D01*
X143531740Y-84504815D01*
X143485985Y-84452011D01*
X143474780Y-84401059D01*
X143463255Y-81842698D01*
X143459510Y-81011258D01*
X143732000Y-81011258D01*
X143732000Y-81388742D01*
X143738956Y-81436485D01*
X143742067Y-81457842D01*
X143794176Y-81564430D01*
X143878069Y-81648323D01*
X143878070Y-81648323D01*
X143878071Y-81648324D01*
X143979962Y-81698136D01*
X144031543Y-81745263D01*
X144049500Y-81809535D01*
X144049500Y-81975447D01*
X144036901Y-82029906D01*
X144009428Y-82086104D01*
X144009425Y-82086111D01*
X143998926Y-82158173D01*
X143978273Y-82210733D01*
X143919780Y-82295476D01*
X143863762Y-82443181D01*
X143844722Y-82599999D01*
X143844722Y-82600000D01*
X143863762Y-82756818D01*
X143919780Y-82904523D01*
X143919780Y-82904524D01*
X143977550Y-82988217D01*
X143999433Y-83054571D01*
X143999500Y-83058657D01*
X143999500Y-83245760D01*
X144009426Y-83313891D01*
X144060803Y-83418985D01*
X144143514Y-83501696D01*
X144143515Y-83501696D01*
X144143517Y-83501698D01*
X144248607Y-83553073D01*
X144282673Y-83558036D01*
X144316739Y-83563000D01*
X144316740Y-83563000D01*
X144683261Y-83563000D01*
X144705971Y-83559691D01*
X144751393Y-83553073D01*
X144856483Y-83501698D01*
X144939198Y-83418983D01*
X144990573Y-83313893D01*
X145000500Y-83245760D01*
X145000500Y-83058657D01*
X145020185Y-82991618D01*
X145022450Y-82988217D01*
X145080220Y-82904523D01*
X145136237Y-82756818D01*
X145155278Y-82600000D01*
X145136237Y-82443182D01*
X145080220Y-82295477D01*
X145080218Y-82295474D01*
X145080216Y-82295470D01*
X145021727Y-82210733D01*
X145001073Y-82158172D01*
X145000500Y-82154239D01*
X145899500Y-82154239D01*
X145899500Y-83245760D01*
X145909426Y-83313891D01*
X145960803Y-83418985D01*
X146043514Y-83501696D01*
X146043515Y-83501696D01*
X146043517Y-83501698D01*
X146148607Y-83553073D01*
X146182673Y-83558036D01*
X146216739Y-83563000D01*
X146216740Y-83563000D01*
X146583261Y-83563000D01*
X146605971Y-83559691D01*
X146651393Y-83553073D01*
X146756483Y-83501698D01*
X146839198Y-83418983D01*
X146890573Y-83313893D01*
X146900500Y-83245760D01*
X146900500Y-82154240D01*
X146890573Y-82086107D01*
X146839198Y-81981017D01*
X146839196Y-81981015D01*
X146839196Y-81981014D01*
X146756485Y-81898303D01*
X146755513Y-81897828D01*
X146734686Y-81887646D01*
X146683105Y-81840519D01*
X146665190Y-81772985D01*
X146686631Y-81706486D01*
X146706987Y-81685496D01*
X146706442Y-81684951D01*
X146803045Y-81588347D01*
X146803050Y-81588342D01*
X146860646Y-81475304D01*
X146860646Y-81475302D01*
X146860647Y-81475301D01*
X146860647Y-81475300D01*
X146880492Y-81350003D01*
X146880492Y-81349996D01*
X146860647Y-81224699D01*
X146860647Y-81224698D01*
X146860646Y-81224696D01*
X146803050Y-81111658D01*
X146803046Y-81111654D01*
X146803045Y-81111652D01*
X146713347Y-81021954D01*
X146713344Y-81021952D01*
X146713342Y-81021950D01*
X146600304Y-80964354D01*
X146600303Y-80964353D01*
X146600300Y-80964352D01*
X146475003Y-80944508D01*
X146474997Y-80944508D01*
X146349699Y-80964352D01*
X146349698Y-80964352D01*
X146279737Y-81000000D01*
X146236658Y-81021950D01*
X146236657Y-81021951D01*
X146236652Y-81021954D01*
X146146954Y-81111652D01*
X146146951Y-81111657D01*
X146146950Y-81111658D01*
X146134347Y-81136393D01*
X146089352Y-81224698D01*
X146089352Y-81224699D01*
X146069508Y-81349996D01*
X146069508Y-81350003D01*
X146089352Y-81475300D01*
X146089352Y-81475301D01*
X146089354Y-81475304D01*
X146146950Y-81588342D01*
X146146952Y-81588344D01*
X146146954Y-81588347D01*
X146199450Y-81640843D01*
X146232935Y-81702166D01*
X146227951Y-81771858D01*
X146186079Y-81827791D01*
X146157170Y-81842519D01*
X146157258Y-81842698D01*
X146043514Y-81898303D01*
X145960803Y-81981014D01*
X145909426Y-82086108D01*
X145899500Y-82154239D01*
X145000500Y-82154239D01*
X144990574Y-82086111D01*
X144990573Y-82086108D01*
X144990573Y-82086107D01*
X144976869Y-82058075D01*
X144963099Y-82029906D01*
X144950500Y-81975447D01*
X144950500Y-81340693D01*
X144950500Y-81340691D01*
X144923611Y-81240339D01*
X144923611Y-81240338D01*
X144923611Y-81240337D01*
X144919800Y-81226117D01*
X144919799Y-81226113D01*
X144884612Y-81165166D01*
X144868000Y-81103167D01*
X144868000Y-81011263D01*
X144868000Y-81011258D01*
X144857933Y-80942160D01*
X144855025Y-80936212D01*
X144805823Y-80835569D01*
X144721930Y-80751676D01*
X144615342Y-80699567D01*
X144598065Y-80697050D01*
X144546242Y-80689500D01*
X144053758Y-80689500D01*
X144007692Y-80696211D01*
X143984657Y-80699567D01*
X143878069Y-80751676D01*
X143878068Y-80751678D01*
X143794178Y-80835568D01*
X143794176Y-80835569D01*
X143742067Y-80942157D01*
X143738291Y-80968071D01*
X143732000Y-81011258D01*
X143459510Y-81011258D01*
X143457792Y-80629903D01*
X143477175Y-80562777D01*
X143482021Y-80555713D01*
X143565290Y-80442886D01*
X143565289Y-80442886D01*
X143565293Y-80442882D01*
X143587719Y-80378790D01*
X143610146Y-80314701D01*
X143610146Y-80314699D01*
X143613000Y-80284269D01*
X143613000Y-79225730D01*
X143610146Y-79195300D01*
X143610146Y-79195298D01*
X143575028Y-79094938D01*
X143565293Y-79067118D01*
X143484650Y-78957850D01*
X143484648Y-78957849D01*
X143479132Y-78950374D01*
X143480652Y-78949251D01*
X143452704Y-78898056D01*
X143449875Y-78872278D01*
X143448379Y-78540337D01*
X143467762Y-78473214D01*
X143484531Y-78452310D01*
X143484647Y-78452151D01*
X143484650Y-78452150D01*
X143565293Y-78342882D01*
X143597969Y-78249500D01*
X143610146Y-78214701D01*
X143610146Y-78214699D01*
X143613000Y-78184269D01*
X143613000Y-77125730D01*
X143610146Y-77095300D01*
X143610146Y-77095298D01*
X143565293Y-76967119D01*
X143565292Y-76967117D01*
X143484650Y-76857850D01*
X143484648Y-76857849D01*
X143484648Y-76857848D01*
X143478079Y-76851279D01*
X143480501Y-76848856D01*
X143448496Y-76806718D01*
X143440374Y-76763140D01*
X143439161Y-76493875D01*
X143458544Y-76426751D01*
X143479093Y-76404735D01*
X143478079Y-76403721D01*
X143484646Y-76397152D01*
X143484650Y-76397150D01*
X143565293Y-76287882D01*
X143587719Y-76223790D01*
X143610146Y-76159701D01*
X143610146Y-76159699D01*
X143613000Y-76129269D01*
X143613000Y-75070730D01*
X143610146Y-75040300D01*
X143610146Y-75040298D01*
X143565293Y-74912119D01*
X143565292Y-74912117D01*
X143564099Y-74910500D01*
X143484650Y-74802850D01*
X143484645Y-74802846D01*
X143481453Y-74800490D01*
X143478813Y-74797013D01*
X143478076Y-74796276D01*
X143478176Y-74796175D01*
X143439201Y-74744843D01*
X143431086Y-74701281D01*
X143429408Y-74328675D01*
X143448791Y-74261550D01*
X143453623Y-74254504D01*
X143502793Y-74187882D01*
X143539120Y-74084065D01*
X143547646Y-74059701D01*
X143547646Y-74059699D01*
X143550500Y-74029269D01*
X143550500Y-72970730D01*
X143547646Y-72940300D01*
X143547646Y-72940298D01*
X143502793Y-72812119D01*
X143502790Y-72812113D01*
X143446130Y-72735341D01*
X143422159Y-72669712D01*
X143421902Y-72662303D01*
X143420006Y-72241414D01*
X143439388Y-72174291D01*
X143444223Y-72167241D01*
X143502793Y-72087882D01*
X143533546Y-71999996D01*
X143547646Y-71959701D01*
X143547646Y-71959699D01*
X143550500Y-71929269D01*
X143550500Y-70870730D01*
X143547646Y-70840300D01*
X143547646Y-70840298D01*
X143514006Y-70744163D01*
X143502793Y-70712118D01*
X143436611Y-70622444D01*
X143412641Y-70556817D01*
X143412384Y-70549421D01*
X143410805Y-70198881D01*
X143430188Y-70131757D01*
X143435027Y-70124701D01*
X143502793Y-70032882D01*
X143527717Y-69961652D01*
X143547646Y-69904701D01*
X143547646Y-69904699D01*
X143550500Y-69874269D01*
X143550500Y-68815730D01*
X143547646Y-68785300D01*
X143547646Y-68785298D01*
X143503560Y-68659310D01*
X143502793Y-68657118D01*
X143502791Y-68657115D01*
X143502790Y-68657113D01*
X143427299Y-68554826D01*
X143403328Y-68489197D01*
X143403071Y-68481782D01*
X143400563Y-67925056D01*
X143419946Y-67857931D01*
X143472543Y-67811939D01*
X143524562Y-67800500D01*
X146395738Y-67800500D01*
X146405916Y-67800000D01*
X147683644Y-67800000D01*
X147713317Y-67803602D01*
G37*
%TD.AperFunction*%
%TD*%
M02*
