%TF.GenerationSoftware,KiCad,Pcbnew,8.0.8*%
%TF.CreationDate,2025-07-27T02:47:14+02:00*%
%TF.ProjectId,ESC_PCB,4553435f-5043-4422-9e6b-696361645f70,rev?*%
%TF.SameCoordinates,Original*%
%TF.FileFunction,Soldermask,Top*%
%TF.FilePolarity,Negative*%
%FSLAX46Y46*%
G04 Gerber Fmt 4.6, Leading zero omitted, Abs format (unit mm)*
G04 Created by KiCad (PCBNEW 8.0.8) date 2025-07-27 02:47:14*
%MOMM*%
%LPD*%
G01*
G04 APERTURE LIST*
G04 Aperture macros list*
%AMRoundRect*
0 Rectangle with rounded corners*
0 $1 Rounding radius*
0 $2 $3 $4 $5 $6 $7 $8 $9 X,Y pos of 4 corners*
0 Add a 4 corners polygon primitive as box body*
4,1,4,$2,$3,$4,$5,$6,$7,$8,$9,$2,$3,0*
0 Add four circle primitives for the rounded corners*
1,1,$1+$1,$2,$3*
1,1,$1+$1,$4,$5*
1,1,$1+$1,$6,$7*
1,1,$1+$1,$8,$9*
0 Add four rect primitives between the rounded corners*
20,1,$1+$1,$2,$3,$4,$5,0*
20,1,$1+$1,$4,$5,$6,$7,0*
20,1,$1+$1,$6,$7,$8,$9,0*
20,1,$1+$1,$8,$9,$2,$3,0*%
%AMFreePoly0*
4,1,9,3.862500,-0.866500,0.737500,-0.866500,0.737500,-0.450000,-0.737500,-0.450000,-0.737500,0.450000,0.737500,0.450000,0.737500,0.866500,3.862500,0.866500,3.862500,-0.866500,3.862500,-0.866500,$1*%
G04 Aperture macros list end*
%ADD10RoundRect,0.102000X1.875000X2.350000X-1.875000X2.350000X-1.875000X-2.350000X1.875000X-2.350000X0*%
%ADD11RoundRect,0.102000X0.525000X0.425000X-0.525000X0.425000X-0.525000X-0.425000X0.525000X-0.425000X0*%
%ADD12RoundRect,0.102000X0.725000X0.425000X-0.725000X0.425000X-0.725000X-0.425000X0.725000X-0.425000X0*%
%ADD13RoundRect,0.625000X-0.625000X-1.125000X0.625000X-1.125000X0.625000X1.125000X-0.625000X1.125000X0*%
%ADD14RoundRect,0.155000X0.212500X0.155000X-0.212500X0.155000X-0.212500X-0.155000X0.212500X-0.155000X0*%
%ADD15RoundRect,0.625000X-1.375000X-0.625000X1.375000X-0.625000X1.375000X0.625000X-1.375000X0.625000X0*%
%ADD16RoundRect,0.155000X-0.212500X-0.155000X0.212500X-0.155000X0.212500X0.155000X-0.212500X0.155000X0*%
%ADD17RoundRect,0.250000X-0.337500X-0.475000X0.337500X-0.475000X0.337500X0.475000X-0.337500X0.475000X0*%
%ADD18RoundRect,0.160000X0.197500X0.160000X-0.197500X0.160000X-0.197500X-0.160000X0.197500X-0.160000X0*%
%ADD19RoundRect,0.160000X-0.197500X-0.160000X0.197500X-0.160000X0.197500X0.160000X-0.197500X0.160000X0*%
%ADD20RoundRect,0.155000X-0.155000X0.212500X-0.155000X-0.212500X0.155000X-0.212500X0.155000X0.212500X0*%
%ADD21RoundRect,0.237500X0.287500X0.237500X-0.287500X0.237500X-0.287500X-0.237500X0.287500X-0.237500X0*%
%ADD22RoundRect,0.225000X-0.425000X-0.225000X0.425000X-0.225000X0.425000X0.225000X-0.425000X0.225000X0*%
%ADD23FreePoly0,0.000000*%
%ADD24RoundRect,0.150000X0.150000X-0.512500X0.150000X0.512500X-0.150000X0.512500X-0.150000X-0.512500X0*%
%ADD25RoundRect,0.237500X-0.300000X-0.237500X0.300000X-0.237500X0.300000X0.237500X-0.300000X0.237500X0*%
%ADD26RoundRect,0.150000X-0.150000X-0.200000X0.150000X-0.200000X0.150000X0.200000X-0.150000X0.200000X0*%
%ADD27RoundRect,0.150000X0.150000X0.200000X-0.150000X0.200000X-0.150000X-0.200000X0.150000X-0.200000X0*%
G04 APERTURE END LIST*
D10*
%TO.C,Q6*%
X153200000Y-65250000D03*
D11*
X150800000Y-67155000D03*
X150800000Y-65885000D03*
X150800000Y-64615000D03*
X150800000Y-63345000D03*
D12*
X156500000Y-63345000D03*
X156500000Y-67155000D03*
X156500000Y-65885000D03*
X156500000Y-64615000D03*
%TD*%
D10*
%TO.C,Q4*%
X153200000Y-59750000D03*
D11*
X150800000Y-61655000D03*
X150800000Y-60385000D03*
X150800000Y-59115000D03*
X150800000Y-57845000D03*
D12*
X156500000Y-57845000D03*
X156500000Y-61655000D03*
X156500000Y-60385000D03*
X156500000Y-59115000D03*
%TD*%
D13*
%TO.C,J3*%
X157550000Y-88050000D03*
%TD*%
D14*
%TO.C,C11*%
X152832500Y-70185000D03*
X151697500Y-70185000D03*
%TD*%
D15*
%TO.C,TP9*%
X156350000Y-49450000D03*
%TD*%
D16*
%TO.C,C4*%
X149032500Y-79900000D03*
X150167500Y-79900000D03*
%TD*%
D17*
%TO.C,C25*%
X142762500Y-71400000D03*
X144837500Y-71400000D03*
%TD*%
D18*
%TO.C,R1*%
X147595000Y-68800000D03*
X146400000Y-68800000D03*
%TD*%
D19*
%TO.C,R3*%
X146402500Y-69900000D03*
X147597500Y-69900000D03*
%TD*%
D13*
%TO.C,J2*%
X141550000Y-88000000D03*
%TD*%
D17*
%TO.C,C24*%
X142762500Y-69345000D03*
X144837500Y-69345000D03*
%TD*%
%TO.C,C24*%
X142825000Y-75600000D03*
X144900000Y-75600000D03*
%TD*%
D10*
%TO.C,Q5*%
X153200000Y-54135000D03*
D11*
X150800000Y-56040000D03*
X150800000Y-54770000D03*
X150800000Y-53500000D03*
X150800000Y-52230000D03*
D12*
X156500000Y-52230000D03*
X156500000Y-56040000D03*
X156500000Y-54770000D03*
X156500000Y-53500000D03*
%TD*%
D19*
%TO.C,R4*%
X146395000Y-71000000D03*
X147590000Y-71000000D03*
%TD*%
D16*
%TO.C,C3*%
X144300000Y-81200000D03*
X145435000Y-81200000D03*
%TD*%
D20*
%TO.C,C2*%
X144900000Y-86432500D03*
X144900000Y-87567500D03*
%TD*%
D21*
%TO.C,D4*%
X150000000Y-78600000D03*
X148250000Y-78600000D03*
%TD*%
D16*
%TO.C,C1*%
X144132500Y-89300000D03*
X145267500Y-89300000D03*
%TD*%
D22*
%TO.C,U4*%
X148100000Y-85600000D03*
D23*
X148187500Y-87100000D03*
D22*
X148100000Y-88600000D03*
%TD*%
D24*
%TO.C,U2*%
X144500000Y-84975000D03*
X145450000Y-84975000D03*
X146400000Y-84975000D03*
X146400000Y-82700000D03*
X144500000Y-82700000D03*
%TD*%
D15*
%TO.C,TP10*%
X149700000Y-49450000D03*
%TD*%
D10*
%TO.C,Q3*%
X144500000Y-54250000D03*
D11*
X142100000Y-56155000D03*
X142100000Y-54885000D03*
X142100000Y-53615000D03*
X142100000Y-52345000D03*
D12*
X147800000Y-52345000D03*
X147800000Y-56155000D03*
X147800000Y-54885000D03*
X147800000Y-53615000D03*
%TD*%
D17*
%TO.C,C25*%
X142825000Y-77655000D03*
X144900000Y-77655000D03*
%TD*%
D15*
%TO.C,TP11*%
X142700000Y-49450000D03*
%TD*%
D17*
%TO.C,C26*%
X142762500Y-73500000D03*
X144837500Y-73500000D03*
%TD*%
D25*
%TO.C,C23*%
X153137500Y-85300000D03*
X154862500Y-85300000D03*
%TD*%
D10*
%TO.C,Q2*%
X144500000Y-65250000D03*
D11*
X142100000Y-67155000D03*
X142100000Y-65885000D03*
X142100000Y-64615000D03*
X142100000Y-63345000D03*
D12*
X147800000Y-63345000D03*
X147800000Y-67155000D03*
X147800000Y-65885000D03*
X147800000Y-64615000D03*
%TD*%
D26*
%TO.C,D3*%
X152900000Y-69000000D03*
X151500000Y-69000000D03*
%TD*%
D10*
%TO.C,Q1*%
X144450000Y-59750000D03*
D11*
X142050000Y-61655000D03*
X142050000Y-60385000D03*
X142050000Y-59115000D03*
X142050000Y-57845000D03*
D12*
X147750000Y-57845000D03*
X147750000Y-61655000D03*
X147750000Y-60385000D03*
X147750000Y-59115000D03*
%TD*%
D17*
%TO.C,C26*%
X142825000Y-79755000D03*
X144900000Y-79755000D03*
%TD*%
D24*
%TO.C,U3*%
X149050000Y-83637500D03*
X150000000Y-83637500D03*
X150950000Y-83637500D03*
X150950000Y-81362500D03*
X149050000Y-81362500D03*
%TD*%
D19*
%TO.C,R11*%
X151400000Y-78800000D03*
X152595000Y-78800000D03*
%TD*%
D27*
%TO.C,D1*%
X153200000Y-75700000D03*
X154600000Y-75700000D03*
%TD*%
D16*
%TO.C,C9*%
X153232500Y-74400000D03*
X154367500Y-74400000D03*
%TD*%
G36*
X158943039Y-52919685D02*
G01*
X158988794Y-52972489D01*
X159000000Y-53024000D01*
X159000000Y-89876000D01*
X158980315Y-89943039D01*
X158927511Y-89988794D01*
X158876000Y-90000000D01*
X155824000Y-90000000D01*
X155756961Y-89980315D01*
X155711206Y-89927511D01*
X155700000Y-89876000D01*
X155700000Y-53024000D01*
X155719685Y-52956961D01*
X155772489Y-52911206D01*
X155824000Y-52900000D01*
X158876000Y-52900000D01*
X158943039Y-52919685D01*
G37*
G36*
X146343039Y-51919685D02*
G01*
X146388794Y-51972489D01*
X146400000Y-52024000D01*
X146400000Y-67676000D01*
X146380315Y-67743039D01*
X146327511Y-67788794D01*
X146276000Y-67800000D01*
X143400000Y-67800000D01*
X143499439Y-89875441D01*
X143480056Y-89942569D01*
X143427459Y-89988561D01*
X143375440Y-90000000D01*
X140124000Y-90000000D01*
X140056961Y-89980315D01*
X140011206Y-89927511D01*
X140000000Y-89876000D01*
X140000000Y-52024000D01*
X140019685Y-51956961D01*
X140072489Y-51911206D01*
X140124000Y-51900000D01*
X146276000Y-51900000D01*
X146343039Y-51919685D01*
G37*
G36*
X158943039Y-48019685D02*
G01*
X158988794Y-48072489D01*
X159000000Y-48124000D01*
X159000000Y-51376000D01*
X158980315Y-51443039D01*
X158927511Y-51488794D01*
X158876000Y-51500000D01*
X140124000Y-51500000D01*
X140056961Y-51480315D01*
X140011206Y-51427511D01*
X140000000Y-51376000D01*
X140000000Y-48124000D01*
X140019685Y-48056961D01*
X140072489Y-48011206D01*
X140124000Y-48000000D01*
X158876000Y-48000000D01*
X158943039Y-48019685D01*
G37*
M02*
