%TF.GenerationSoftware,KiCad,Pcbnew,8.0.8*%
%TF.CreationDate,2025-07-27T02:47:14+02:00*%
%TF.ProjectId,ESC_PCB,4553435f-5043-4422-9e6b-696361645f70,rev?*%
%TF.SameCoordinates,Original*%
%TF.FileFunction,Legend,Top*%
%TF.FilePolarity,Positive*%
%FSLAX46Y46*%
G04 Gerber Fmt 4.6, Leading zero omitted, Abs format (unit mm)*
G04 Created by KiCad (PCBNEW 8.0.8) date 2025-07-27 02:47:14*
%MOMM*%
%LPD*%
G01*
G04 APERTURE LIST*
%ADD10C,0.500000*%
%ADD11C,0.100000*%
%ADD12C,0.250000*%
%ADD13C,0.127000*%
%ADD14C,0.200000*%
%ADD15C,0.120000*%
G04 APERTURE END LIST*
D10*
X153755137Y-88592333D02*
X155278947Y-88592333D01*
D11*
X149856228Y-76688972D02*
X149832419Y-76665163D01*
X149832419Y-76665163D02*
X149808609Y-76617544D01*
X149808609Y-76617544D02*
X149808609Y-76498496D01*
X149808609Y-76498496D02*
X149832419Y-76450877D01*
X149832419Y-76450877D02*
X149856228Y-76427068D01*
X149856228Y-76427068D02*
X149903847Y-76403258D01*
X149903847Y-76403258D02*
X149951466Y-76403258D01*
X149951466Y-76403258D02*
X150022895Y-76427068D01*
X150022895Y-76427068D02*
X150308609Y-76712782D01*
X150308609Y-76712782D02*
X150308609Y-76403258D01*
X149808609Y-76236592D02*
X149808609Y-75903259D01*
X149808609Y-75903259D02*
X150308609Y-76117544D01*
X150260990Y-75712783D02*
X150284800Y-75688973D01*
X150284800Y-75688973D02*
X150308609Y-75712783D01*
X150308609Y-75712783D02*
X150284800Y-75736592D01*
X150284800Y-75736592D02*
X150260990Y-75712783D01*
X150260990Y-75712783D02*
X150308609Y-75712783D01*
X149808609Y-75379450D02*
X149808609Y-75331831D01*
X149808609Y-75331831D02*
X149832419Y-75284212D01*
X149832419Y-75284212D02*
X149856228Y-75260402D01*
X149856228Y-75260402D02*
X149903847Y-75236593D01*
X149903847Y-75236593D02*
X149999085Y-75212783D01*
X149999085Y-75212783D02*
X150118133Y-75212783D01*
X150118133Y-75212783D02*
X150213371Y-75236593D01*
X150213371Y-75236593D02*
X150260990Y-75260402D01*
X150260990Y-75260402D02*
X150284800Y-75284212D01*
X150284800Y-75284212D02*
X150308609Y-75331831D01*
X150308609Y-75331831D02*
X150308609Y-75379450D01*
X150308609Y-75379450D02*
X150284800Y-75427069D01*
X150284800Y-75427069D02*
X150260990Y-75450878D01*
X150260990Y-75450878D02*
X150213371Y-75474688D01*
X150213371Y-75474688D02*
X150118133Y-75498497D01*
X150118133Y-75498497D02*
X149999085Y-75498497D01*
X149999085Y-75498497D02*
X149903847Y-75474688D01*
X149903847Y-75474688D02*
X149856228Y-75450878D01*
X149856228Y-75450878D02*
X149832419Y-75427069D01*
X149832419Y-75427069D02*
X149808609Y-75379450D01*
X149808609Y-75046117D02*
X149808609Y-74712784D01*
X149808609Y-74712784D02*
X150308609Y-74927069D01*
X150260990Y-74522308D02*
X150284800Y-74498498D01*
X150284800Y-74498498D02*
X150308609Y-74522308D01*
X150308609Y-74522308D02*
X150284800Y-74546117D01*
X150284800Y-74546117D02*
X150260990Y-74522308D01*
X150260990Y-74522308D02*
X150308609Y-74522308D01*
X149856228Y-74308022D02*
X149832419Y-74284213D01*
X149832419Y-74284213D02*
X149808609Y-74236594D01*
X149808609Y-74236594D02*
X149808609Y-74117546D01*
X149808609Y-74117546D02*
X149832419Y-74069927D01*
X149832419Y-74069927D02*
X149856228Y-74046118D01*
X149856228Y-74046118D02*
X149903847Y-74022308D01*
X149903847Y-74022308D02*
X149951466Y-74022308D01*
X149951466Y-74022308D02*
X150022895Y-74046118D01*
X150022895Y-74046118D02*
X150308609Y-74331832D01*
X150308609Y-74331832D02*
X150308609Y-74022308D01*
X149808609Y-73712785D02*
X149808609Y-73665166D01*
X149808609Y-73665166D02*
X149832419Y-73617547D01*
X149832419Y-73617547D02*
X149856228Y-73593737D01*
X149856228Y-73593737D02*
X149903847Y-73569928D01*
X149903847Y-73569928D02*
X149999085Y-73546118D01*
X149999085Y-73546118D02*
X150118133Y-73546118D01*
X150118133Y-73546118D02*
X150213371Y-73569928D01*
X150213371Y-73569928D02*
X150260990Y-73593737D01*
X150260990Y-73593737D02*
X150284800Y-73617547D01*
X150284800Y-73617547D02*
X150308609Y-73665166D01*
X150308609Y-73665166D02*
X150308609Y-73712785D01*
X150308609Y-73712785D02*
X150284800Y-73760404D01*
X150284800Y-73760404D02*
X150260990Y-73784213D01*
X150260990Y-73784213D02*
X150213371Y-73808023D01*
X150213371Y-73808023D02*
X150118133Y-73831832D01*
X150118133Y-73831832D02*
X149999085Y-73831832D01*
X149999085Y-73831832D02*
X149903847Y-73808023D01*
X149903847Y-73808023D02*
X149856228Y-73784213D01*
X149856228Y-73784213D02*
X149832419Y-73760404D01*
X149832419Y-73760404D02*
X149808609Y-73712785D01*
X149856228Y-73355642D02*
X149832419Y-73331833D01*
X149832419Y-73331833D02*
X149808609Y-73284214D01*
X149808609Y-73284214D02*
X149808609Y-73165166D01*
X149808609Y-73165166D02*
X149832419Y-73117547D01*
X149832419Y-73117547D02*
X149856228Y-73093738D01*
X149856228Y-73093738D02*
X149903847Y-73069928D01*
X149903847Y-73069928D02*
X149951466Y-73069928D01*
X149951466Y-73069928D02*
X150022895Y-73093738D01*
X150022895Y-73093738D02*
X150308609Y-73379452D01*
X150308609Y-73379452D02*
X150308609Y-73069928D01*
X149808609Y-72617548D02*
X149808609Y-72855643D01*
X149808609Y-72855643D02*
X150046704Y-72879452D01*
X150046704Y-72879452D02*
X150022895Y-72855643D01*
X150022895Y-72855643D02*
X149999085Y-72808024D01*
X149999085Y-72808024D02*
X149999085Y-72688976D01*
X149999085Y-72688976D02*
X150022895Y-72641357D01*
X150022895Y-72641357D02*
X150046704Y-72617548D01*
X150046704Y-72617548D02*
X150094323Y-72593738D01*
X150094323Y-72593738D02*
X150213371Y-72593738D01*
X150213371Y-72593738D02*
X150260990Y-72617548D01*
X150260990Y-72617548D02*
X150284800Y-72641357D01*
X150284800Y-72641357D02*
X150308609Y-72688976D01*
X150308609Y-72688976D02*
X150308609Y-72808024D01*
X150308609Y-72808024D02*
X150284800Y-72855643D01*
X150284800Y-72855643D02*
X150260990Y-72879452D01*
D10*
X145389302Y-88627333D02*
X146913112Y-88627333D01*
X146151207Y-89389238D02*
X146151207Y-87865428D01*
D12*
G36*
X153054842Y-87600889D02*
G01*
X152708506Y-87417463D01*
X153054842Y-87375209D01*
X153054842Y-87600889D01*
G37*
G36*
X153570631Y-89671658D02*
G01*
X152382739Y-89671658D01*
X152382739Y-88985258D01*
X152507739Y-88985258D01*
X152508498Y-89016983D01*
X152513482Y-89071197D01*
X152523117Y-89123752D01*
X152537404Y-89174647D01*
X152556343Y-89223883D01*
X152572939Y-89257673D01*
X152600902Y-89302594D01*
X152634381Y-89344734D01*
X152673377Y-89384092D01*
X152711193Y-89415614D01*
X152738594Y-89435153D01*
X152783073Y-89461714D01*
X152831605Y-89484979D01*
X152884189Y-89504945D01*
X152931106Y-89519066D01*
X152980837Y-89530896D01*
X152994108Y-89533554D01*
X153045469Y-89541782D01*
X153105797Y-89546658D01*
X153161819Y-89545522D01*
X153213535Y-89538376D01*
X153269913Y-89521867D01*
X153320090Y-89496702D01*
X153335292Y-89486302D01*
X153375014Y-89448266D01*
X153405909Y-89399977D01*
X153424912Y-89351905D01*
X153437785Y-89296713D01*
X153443669Y-89247433D01*
X153445631Y-89193597D01*
X153445554Y-89183122D01*
X153442849Y-89130662D01*
X153436280Y-89078059D01*
X153425847Y-89025314D01*
X153415811Y-88987416D01*
X153399164Y-88936287D01*
X153380830Y-88888568D01*
X153359169Y-88838712D01*
X152914159Y-88746144D01*
X152914159Y-89109577D01*
X153075847Y-89165265D01*
X153075847Y-88975244D01*
X153254145Y-89012124D01*
X153263441Y-89043830D01*
X153272406Y-89093507D01*
X153275394Y-89145725D01*
X153273563Y-89183293D01*
X153263019Y-89234893D01*
X153239953Y-89280426D01*
X153200411Y-89315474D01*
X153175077Y-89327083D01*
X153126629Y-89338066D01*
X153076248Y-89340013D01*
X153027130Y-89335989D01*
X152972533Y-89326709D01*
X152928982Y-89316117D01*
X152881034Y-89300226D01*
X152831042Y-89277302D01*
X152787454Y-89249656D01*
X152750272Y-89217288D01*
X152740837Y-89207147D01*
X152709184Y-89162801D01*
X152687271Y-89112411D01*
X152676086Y-89063361D01*
X152672358Y-89009682D01*
X152676312Y-88956422D01*
X152688173Y-88905329D01*
X152707941Y-88856404D01*
X152735617Y-88809647D01*
X152593468Y-88700226D01*
X152569191Y-88736805D01*
X152547060Y-88780789D01*
X152529720Y-88828698D01*
X152528368Y-88833243D01*
X152516325Y-88884717D01*
X152509885Y-88933867D01*
X152507739Y-88985258D01*
X152382739Y-88985258D01*
X152382739Y-87955530D01*
X152523370Y-87955530D01*
X152873126Y-88237386D01*
X152523370Y-88365614D01*
X152523370Y-88585921D01*
X152534605Y-88588363D01*
X153057773Y-88374895D01*
X153430000Y-88452320D01*
X153430000Y-88256926D01*
X153052156Y-88178279D01*
X152534605Y-87746214D01*
X152523370Y-87743771D01*
X152523370Y-87955530D01*
X152382739Y-87955530D01*
X152382739Y-87253576D01*
X152523370Y-87253576D01*
X152523370Y-87417463D01*
X152523370Y-87497330D01*
X153418764Y-88004134D01*
X153430000Y-88006577D01*
X153430000Y-87801413D01*
X153215310Y-87686618D01*
X153215310Y-87356158D01*
X153430000Y-87329291D01*
X153430000Y-87121441D01*
X153418764Y-87118998D01*
X152523370Y-87253576D01*
X152382739Y-87253576D01*
X152382739Y-87009577D01*
X152523370Y-87009577D01*
X152693607Y-87044993D01*
X152693607Y-86760205D01*
X153430000Y-86913346D01*
X153430000Y-86717951D01*
X152693607Y-86564811D01*
X152693607Y-86286618D01*
X152523370Y-86251203D01*
X152523370Y-87009577D01*
X152382739Y-87009577D01*
X152382739Y-86126203D01*
X153570631Y-86126203D01*
X153570631Y-89671658D01*
G37*
D11*
X148629828Y-76888972D02*
X148653637Y-76817544D01*
X148653637Y-76817544D02*
X148653637Y-76698496D01*
X148653637Y-76698496D02*
X148629828Y-76650877D01*
X148629828Y-76650877D02*
X148606018Y-76627068D01*
X148606018Y-76627068D02*
X148558399Y-76603258D01*
X148558399Y-76603258D02*
X148510780Y-76603258D01*
X148510780Y-76603258D02*
X148463161Y-76627068D01*
X148463161Y-76627068D02*
X148439351Y-76650877D01*
X148439351Y-76650877D02*
X148415542Y-76698496D01*
X148415542Y-76698496D02*
X148391732Y-76793734D01*
X148391732Y-76793734D02*
X148367923Y-76841353D01*
X148367923Y-76841353D02*
X148344113Y-76865163D01*
X148344113Y-76865163D02*
X148296494Y-76888972D01*
X148296494Y-76888972D02*
X148248875Y-76888972D01*
X148248875Y-76888972D02*
X148201256Y-76865163D01*
X148201256Y-76865163D02*
X148177447Y-76841353D01*
X148177447Y-76841353D02*
X148153637Y-76793734D01*
X148153637Y-76793734D02*
X148153637Y-76674687D01*
X148153637Y-76674687D02*
X148177447Y-76603258D01*
X148320304Y-76436592D02*
X148320304Y-76174687D01*
X148320304Y-76174687D02*
X148653637Y-76436592D01*
X148653637Y-76436592D02*
X148653637Y-76174687D01*
X148320304Y-76031830D02*
X148653637Y-75912782D01*
X148320304Y-75793735D02*
X148653637Y-75912782D01*
X148653637Y-75912782D02*
X148772685Y-75960401D01*
X148772685Y-75960401D02*
X148796494Y-75984211D01*
X148796494Y-75984211D02*
X148820304Y-76031830D01*
X148653637Y-75603259D02*
X148320304Y-75603259D01*
X148367923Y-75603259D02*
X148344113Y-75579449D01*
X148344113Y-75579449D02*
X148320304Y-75531830D01*
X148320304Y-75531830D02*
X148320304Y-75460402D01*
X148320304Y-75460402D02*
X148344113Y-75412783D01*
X148344113Y-75412783D02*
X148391732Y-75388973D01*
X148391732Y-75388973D02*
X148653637Y-75388973D01*
X148391732Y-75388973D02*
X148344113Y-75365164D01*
X148344113Y-75365164D02*
X148320304Y-75317545D01*
X148320304Y-75317545D02*
X148320304Y-75246116D01*
X148320304Y-75246116D02*
X148344113Y-75198497D01*
X148344113Y-75198497D02*
X148391732Y-75174687D01*
X148391732Y-75174687D02*
X148653637Y-75174687D01*
X148653637Y-74865163D02*
X148629828Y-74912782D01*
X148629828Y-74912782D02*
X148606018Y-74936592D01*
X148606018Y-74936592D02*
X148558399Y-74960401D01*
X148558399Y-74960401D02*
X148415542Y-74960401D01*
X148415542Y-74960401D02*
X148367923Y-74936592D01*
X148367923Y-74936592D02*
X148344113Y-74912782D01*
X148344113Y-74912782D02*
X148320304Y-74865163D01*
X148320304Y-74865163D02*
X148320304Y-74793735D01*
X148320304Y-74793735D02*
X148344113Y-74746116D01*
X148344113Y-74746116D02*
X148367923Y-74722306D01*
X148367923Y-74722306D02*
X148415542Y-74698497D01*
X148415542Y-74698497D02*
X148558399Y-74698497D01*
X148558399Y-74698497D02*
X148606018Y-74722306D01*
X148606018Y-74722306D02*
X148629828Y-74746116D01*
X148629828Y-74746116D02*
X148653637Y-74793735D01*
X148653637Y-74793735D02*
X148653637Y-74865163D01*
X148320304Y-74484211D02*
X148653637Y-74484211D01*
X148367923Y-74484211D02*
X148344113Y-74460401D01*
X148344113Y-74460401D02*
X148320304Y-74412782D01*
X148320304Y-74412782D02*
X148320304Y-74341354D01*
X148320304Y-74341354D02*
X148344113Y-74293735D01*
X148344113Y-74293735D02*
X148391732Y-74269925D01*
X148391732Y-74269925D02*
X148653637Y-74269925D01*
X148653637Y-73650878D02*
X148153637Y-73650878D01*
X148153637Y-73650878D02*
X148653637Y-73365164D01*
X148653637Y-73365164D02*
X148153637Y-73365164D01*
X148320304Y-73174687D02*
X148653637Y-73055639D01*
X148320304Y-72936592D02*
X148653637Y-73055639D01*
X148653637Y-73055639D02*
X148772685Y-73103258D01*
X148772685Y-73103258D02*
X148796494Y-73127068D01*
X148796494Y-73127068D02*
X148820304Y-73174687D01*
X148653637Y-72531830D02*
X148153637Y-72531830D01*
X148629828Y-72531830D02*
X148653637Y-72579449D01*
X148653637Y-72579449D02*
X148653637Y-72674687D01*
X148653637Y-72674687D02*
X148629828Y-72722306D01*
X148629828Y-72722306D02*
X148606018Y-72746116D01*
X148606018Y-72746116D02*
X148558399Y-72769925D01*
X148558399Y-72769925D02*
X148415542Y-72769925D01*
X148415542Y-72769925D02*
X148367923Y-72746116D01*
X148367923Y-72746116D02*
X148344113Y-72722306D01*
X148344113Y-72722306D02*
X148320304Y-72674687D01*
X148320304Y-72674687D02*
X148320304Y-72579449D01*
X148320304Y-72579449D02*
X148344113Y-72531830D01*
X148629828Y-72103259D02*
X148653637Y-72150878D01*
X148653637Y-72150878D02*
X148653637Y-72246116D01*
X148653637Y-72246116D02*
X148629828Y-72293735D01*
X148629828Y-72293735D02*
X148582208Y-72317544D01*
X148582208Y-72317544D02*
X148391732Y-72317544D01*
X148391732Y-72317544D02*
X148344113Y-72293735D01*
X148344113Y-72293735D02*
X148320304Y-72246116D01*
X148320304Y-72246116D02*
X148320304Y-72150878D01*
X148320304Y-72150878D02*
X148344113Y-72103259D01*
X148344113Y-72103259D02*
X148391732Y-72079449D01*
X148391732Y-72079449D02*
X148439351Y-72079449D01*
X148439351Y-72079449D02*
X148486970Y-72317544D01*
X148653637Y-71865164D02*
X148320304Y-71865164D01*
X148415542Y-71865164D02*
X148367923Y-71841354D01*
X148367923Y-71841354D02*
X148344113Y-71817545D01*
X148344113Y-71817545D02*
X148320304Y-71769926D01*
X148320304Y-71769926D02*
X148320304Y-71722307D01*
X148629828Y-71365164D02*
X148653637Y-71412783D01*
X148653637Y-71412783D02*
X148653637Y-71508021D01*
X148653637Y-71508021D02*
X148629828Y-71555640D01*
X148629828Y-71555640D02*
X148582208Y-71579449D01*
X148582208Y-71579449D02*
X148391732Y-71579449D01*
X148391732Y-71579449D02*
X148344113Y-71555640D01*
X148344113Y-71555640D02*
X148320304Y-71508021D01*
X148320304Y-71508021D02*
X148320304Y-71412783D01*
X148320304Y-71412783D02*
X148344113Y-71365164D01*
X148344113Y-71365164D02*
X148391732Y-71341354D01*
X148391732Y-71341354D02*
X148439351Y-71341354D01*
X148439351Y-71341354D02*
X148486970Y-71579449D01*
X148653637Y-71127069D02*
X148153637Y-71127069D01*
X148463161Y-71079450D02*
X148653637Y-70936593D01*
X148320304Y-70936593D02*
X148510780Y-71127069D01*
X149458609Y-76865163D02*
X148958609Y-76865163D01*
X148958609Y-76865163D02*
X148958609Y-76674687D01*
X148958609Y-76674687D02*
X148982419Y-76627068D01*
X148982419Y-76627068D02*
X149006228Y-76603258D01*
X149006228Y-76603258D02*
X149053847Y-76579449D01*
X149053847Y-76579449D02*
X149125276Y-76579449D01*
X149125276Y-76579449D02*
X149172895Y-76603258D01*
X149172895Y-76603258D02*
X149196704Y-76627068D01*
X149196704Y-76627068D02*
X149220514Y-76674687D01*
X149220514Y-76674687D02*
X149220514Y-76865163D01*
X149458609Y-76365163D02*
X149125276Y-76365163D01*
X148958609Y-76365163D02*
X148982419Y-76388972D01*
X148982419Y-76388972D02*
X149006228Y-76365163D01*
X149006228Y-76365163D02*
X148982419Y-76341353D01*
X148982419Y-76341353D02*
X148958609Y-76365163D01*
X148958609Y-76365163D02*
X149006228Y-76365163D01*
X149458609Y-76055639D02*
X149434800Y-76103258D01*
X149434800Y-76103258D02*
X149410990Y-76127068D01*
X149410990Y-76127068D02*
X149363371Y-76150877D01*
X149363371Y-76150877D02*
X149220514Y-76150877D01*
X149220514Y-76150877D02*
X149172895Y-76127068D01*
X149172895Y-76127068D02*
X149149085Y-76103258D01*
X149149085Y-76103258D02*
X149125276Y-76055639D01*
X149125276Y-76055639D02*
X149125276Y-75984211D01*
X149125276Y-75984211D02*
X149149085Y-75936592D01*
X149149085Y-75936592D02*
X149172895Y-75912782D01*
X149172895Y-75912782D02*
X149220514Y-75888973D01*
X149220514Y-75888973D02*
X149363371Y-75888973D01*
X149363371Y-75888973D02*
X149410990Y-75912782D01*
X149410990Y-75912782D02*
X149434800Y-75936592D01*
X149434800Y-75936592D02*
X149458609Y-75984211D01*
X149458609Y-75984211D02*
X149458609Y-76055639D01*
X149125276Y-75746115D02*
X149125276Y-75555639D01*
X148958609Y-75674687D02*
X149387180Y-75674687D01*
X149387180Y-75674687D02*
X149434800Y-75650877D01*
X149434800Y-75650877D02*
X149458609Y-75603258D01*
X149458609Y-75603258D02*
X149458609Y-75555639D01*
X149458609Y-75388973D02*
X149125276Y-75388973D01*
X149220514Y-75388973D02*
X149172895Y-75365163D01*
X149172895Y-75365163D02*
X149149085Y-75341354D01*
X149149085Y-75341354D02*
X149125276Y-75293735D01*
X149125276Y-75293735D02*
X149125276Y-75246116D01*
X149458609Y-74698497D02*
X148958609Y-74698497D01*
X149196704Y-74698497D02*
X149196704Y-74412783D01*
X149458609Y-74412783D02*
X148958609Y-74412783D01*
X149434800Y-73984211D02*
X149458609Y-74031830D01*
X149458609Y-74031830D02*
X149458609Y-74127068D01*
X149458609Y-74127068D02*
X149434800Y-74174687D01*
X149434800Y-74174687D02*
X149387180Y-74198496D01*
X149387180Y-74198496D02*
X149196704Y-74198496D01*
X149196704Y-74198496D02*
X149149085Y-74174687D01*
X149149085Y-74174687D02*
X149125276Y-74127068D01*
X149125276Y-74127068D02*
X149125276Y-74031830D01*
X149125276Y-74031830D02*
X149149085Y-73984211D01*
X149149085Y-73984211D02*
X149196704Y-73960401D01*
X149196704Y-73960401D02*
X149244323Y-73960401D01*
X149244323Y-73960401D02*
X149291942Y-74198496D01*
X149458609Y-73674687D02*
X149434800Y-73722306D01*
X149434800Y-73722306D02*
X149387180Y-73746116D01*
X149387180Y-73746116D02*
X148958609Y-73746116D01*
X149458609Y-73484211D02*
X149125276Y-73484211D01*
X148958609Y-73484211D02*
X148982419Y-73508020D01*
X148982419Y-73508020D02*
X149006228Y-73484211D01*
X149006228Y-73484211D02*
X148982419Y-73460401D01*
X148982419Y-73460401D02*
X148958609Y-73484211D01*
X148958609Y-73484211D02*
X149006228Y-73484211D01*
X149458609Y-73174687D02*
X149434800Y-73222306D01*
X149434800Y-73222306D02*
X149410990Y-73246116D01*
X149410990Y-73246116D02*
X149363371Y-73269925D01*
X149363371Y-73269925D02*
X149220514Y-73269925D01*
X149220514Y-73269925D02*
X149172895Y-73246116D01*
X149172895Y-73246116D02*
X149149085Y-73222306D01*
X149149085Y-73222306D02*
X149125276Y-73174687D01*
X149125276Y-73174687D02*
X149125276Y-73103259D01*
X149125276Y-73103259D02*
X149149085Y-73055640D01*
X149149085Y-73055640D02*
X149172895Y-73031830D01*
X149172895Y-73031830D02*
X149220514Y-73008021D01*
X149220514Y-73008021D02*
X149363371Y-73008021D01*
X149363371Y-73008021D02*
X149410990Y-73031830D01*
X149410990Y-73031830D02*
X149434800Y-73055640D01*
X149434800Y-73055640D02*
X149458609Y-73103259D01*
X149458609Y-73103259D02*
X149458609Y-73174687D01*
X149434800Y-72817544D02*
X149458609Y-72769925D01*
X149458609Y-72769925D02*
X149458609Y-72674687D01*
X149458609Y-72674687D02*
X149434800Y-72627068D01*
X149434800Y-72627068D02*
X149387180Y-72603259D01*
X149387180Y-72603259D02*
X149363371Y-72603259D01*
X149363371Y-72603259D02*
X149315752Y-72627068D01*
X149315752Y-72627068D02*
X149291942Y-72674687D01*
X149291942Y-72674687D02*
X149291942Y-72746116D01*
X149291942Y-72746116D02*
X149268133Y-72793735D01*
X149268133Y-72793735D02*
X149220514Y-72817544D01*
X149220514Y-72817544D02*
X149196704Y-72817544D01*
X149196704Y-72817544D02*
X149149085Y-72793735D01*
X149149085Y-72793735D02*
X149125276Y-72746116D01*
X149125276Y-72746116D02*
X149125276Y-72674687D01*
X149125276Y-72674687D02*
X149149085Y-72627068D01*
D13*
%TO.C,Q6*%
X156250000Y-62700000D02*
X151250000Y-62700000D01*
X156250000Y-67800000D02*
X151250000Y-67800000D01*
D14*
X156650000Y-67950000D02*
G75*
G02*
X156450000Y-67950000I-100000J0D01*
G01*
X156450000Y-67950000D02*
G75*
G02*
X156650000Y-67950000I100000J0D01*
G01*
D13*
%TO.C,Q4*%
X156250000Y-57200000D02*
X151250000Y-57200000D01*
X156250000Y-62300000D02*
X151250000Y-62300000D01*
D14*
X156650000Y-62450000D02*
G75*
G02*
X156450000Y-62450000I-100000J0D01*
G01*
X156450000Y-62450000D02*
G75*
G02*
X156650000Y-62450000I100000J0D01*
G01*
D15*
%TO.C,C11*%
X152380835Y-69825000D02*
X152149165Y-69825000D01*
X152380835Y-70545000D02*
X152149165Y-70545000D01*
%TO.C,C4*%
X149484165Y-79540000D02*
X149715835Y-79540000D01*
X149484165Y-80260000D02*
X149715835Y-80260000D01*
%TO.C,C25*%
X143538748Y-70665000D02*
X144061252Y-70665000D01*
X143538748Y-72135000D02*
X144061252Y-72135000D01*
%TO.C,R1*%
X147165121Y-68420000D02*
X146829879Y-68420000D01*
X147165121Y-69180000D02*
X146829879Y-69180000D01*
%TO.C,R3*%
X146832379Y-69520000D02*
X147167621Y-69520000D01*
X146832379Y-70280000D02*
X147167621Y-70280000D01*
%TO.C,C24*%
X143538748Y-68610000D02*
X144061252Y-68610000D01*
X143538748Y-70080000D02*
X144061252Y-70080000D01*
X143601248Y-74865000D02*
X144123752Y-74865000D01*
X143601248Y-76335000D02*
X144123752Y-76335000D01*
D13*
%TO.C,Q5*%
X156250000Y-51585000D02*
X151250000Y-51585000D01*
X156250000Y-56685000D02*
X151250000Y-56685000D01*
D14*
X156650000Y-56835000D02*
G75*
G02*
X156450000Y-56835000I-100000J0D01*
G01*
X156450000Y-56835000D02*
G75*
G02*
X156650000Y-56835000I100000J0D01*
G01*
D15*
%TO.C,R4*%
X146824879Y-70620000D02*
X147160121Y-70620000D01*
X146824879Y-71380000D02*
X147160121Y-71380000D01*
%TO.C,C3*%
X144751665Y-80840000D02*
X144983335Y-80840000D01*
X144751665Y-81560000D02*
X144983335Y-81560000D01*
%TO.C,C2*%
X144540000Y-86884165D02*
X144540000Y-87115835D01*
X145260000Y-86884165D02*
X145260000Y-87115835D01*
%TO.C,D4*%
X148325000Y-79335000D02*
X150785000Y-79335000D01*
X150785000Y-77865000D02*
X148325000Y-77865000D01*
X150785000Y-79335000D02*
X150785000Y-77865000D01*
%TO.C,C1*%
X144584165Y-88940000D02*
X144815835Y-88940000D01*
X144584165Y-89660000D02*
X144815835Y-89660000D01*
%TO.C,U4*%
X148830000Y-84740000D02*
X151410000Y-84740000D01*
X151410000Y-85720000D02*
X151410000Y-84740000D01*
X151410000Y-88480000D02*
X151410000Y-89460000D01*
X151410000Y-89460000D02*
X148690000Y-89460000D01*
X148280000Y-84890000D02*
X148040000Y-84560000D01*
X148520000Y-84560000D01*
X148280000Y-84890000D01*
G36*
X148280000Y-84890000D02*
G01*
X148040000Y-84560000D01*
X148520000Y-84560000D01*
X148280000Y-84890000D01*
G37*
%TO.C,U2*%
X143890000Y-83837500D02*
X143890000Y-83037500D01*
X143890000Y-83837500D02*
X143890000Y-84637500D01*
X147010000Y-83837500D02*
X147010000Y-83037500D01*
X147010000Y-83837500D02*
X147010000Y-84637500D01*
X143940000Y-85137500D02*
X143610000Y-85377500D01*
X143610000Y-84897500D01*
X143940000Y-85137500D01*
G36*
X143940000Y-85137500D02*
G01*
X143610000Y-85377500D01*
X143610000Y-84897500D01*
X143940000Y-85137500D01*
G37*
D13*
%TO.C,Q3*%
X147550000Y-51700000D02*
X142550000Y-51700000D01*
X147550000Y-56800000D02*
X142550000Y-56800000D01*
D14*
X147950000Y-56950000D02*
G75*
G02*
X147750000Y-56950000I-100000J0D01*
G01*
X147750000Y-56950000D02*
G75*
G02*
X147950000Y-56950000I100000J0D01*
G01*
D15*
%TO.C,C25*%
X143601248Y-76920000D02*
X144123752Y-76920000D01*
X143601248Y-78390000D02*
X144123752Y-78390000D01*
%TO.C,C26*%
X143538748Y-72765000D02*
X144061252Y-72765000D01*
X143538748Y-74235000D02*
X144061252Y-74235000D01*
%TO.C,C23*%
X153853733Y-84790000D02*
X154146267Y-84790000D01*
X153853733Y-85810000D02*
X154146267Y-85810000D01*
D13*
%TO.C,Q2*%
X147550000Y-62700000D02*
X142550000Y-62700000D01*
X147550000Y-67800000D02*
X142550000Y-67800000D01*
D14*
X147950000Y-67950000D02*
G75*
G02*
X147750000Y-67950000I-100000J0D01*
G01*
X147750000Y-67950000D02*
G75*
G02*
X147950000Y-67950000I100000J0D01*
G01*
D15*
%TO.C,D3*%
X151500000Y-68400000D02*
X153460000Y-68400000D01*
X151500000Y-69600000D02*
X153460000Y-69600000D01*
X153460000Y-69600000D02*
X153460000Y-68400000D01*
D13*
%TO.C,Q1*%
X147500000Y-57200000D02*
X142500000Y-57200000D01*
X147500000Y-62300000D02*
X142500000Y-62300000D01*
D14*
X147900000Y-62450000D02*
G75*
G02*
X147700000Y-62450000I-100000J0D01*
G01*
X147700000Y-62450000D02*
G75*
G02*
X147900000Y-62450000I100000J0D01*
G01*
D15*
%TO.C,C26*%
X143601248Y-79020000D02*
X144123752Y-79020000D01*
X143601248Y-80490000D02*
X144123752Y-80490000D01*
%TO.C,U3*%
X148440000Y-82500000D02*
X148440000Y-81700000D01*
X148440000Y-82500000D02*
X148440000Y-83300000D01*
X151560000Y-82500000D02*
X151560000Y-81700000D01*
X151560000Y-82500000D02*
X151560000Y-83300000D01*
X148490000Y-83800000D02*
X148160000Y-84040000D01*
X148160000Y-83560000D01*
X148490000Y-83800000D01*
G36*
X148490000Y-83800000D02*
G01*
X148160000Y-84040000D01*
X148160000Y-83560000D01*
X148490000Y-83800000D01*
G37*
%TO.C,R11*%
X151829879Y-78420000D02*
X152165121Y-78420000D01*
X151829879Y-79180000D02*
X152165121Y-79180000D01*
%TO.C,D1*%
X152640000Y-75100000D02*
X152640000Y-76300000D01*
X154600000Y-75100000D02*
X152640000Y-75100000D01*
X154600000Y-76300000D02*
X152640000Y-76300000D01*
%TO.C,C9*%
X153684165Y-74040000D02*
X153915835Y-74040000D01*
X153684165Y-74760000D02*
X153915835Y-74760000D01*
%TD*%
M02*
