%TF.GenerationSoftware,KiCad,Pcbnew,8.0.8*%
%TF.CreationDate,2025-07-27T02:47:14+02:00*%
%TF.ProjectId,ESC_PCB,4553435f-5043-4422-9e6b-696361645f70,rev?*%
%TF.SameCoordinates,Original*%
%TF.FileFunction,Copper,L3,Inr*%
%TF.FilePolarity,Positive*%
%FSLAX46Y46*%
G04 Gerber Fmt 4.6, Leading zero omitted, Abs format (unit mm)*
G04 Created by KiCad (PCBNEW 8.0.8) date 2025-07-27 02:47:14*
%MOMM*%
%LPD*%
G01*
G04 APERTURE LIST*
%TA.AperFunction,ViaPad*%
%ADD10C,0.900000*%
%TD*%
%TA.AperFunction,ViaPad*%
%ADD11C,0.400000*%
%TD*%
%TA.AperFunction,ViaPad*%
%ADD12C,0.600000*%
%TD*%
%TA.AperFunction,Conductor*%
%ADD13C,0.150000*%
%TD*%
%TA.AperFunction,Conductor*%
%ADD14C,0.100000*%
%TD*%
G04 APERTURE END LIST*
D10*
%TO.N,VDC*%
X142700000Y-69500000D03*
X142700000Y-88500000D03*
X140700000Y-79500000D03*
X142700000Y-56400000D03*
X142700000Y-58400000D03*
X142700000Y-59500000D03*
X140700000Y-63500000D03*
X141700000Y-66500000D03*
X141700000Y-68500000D03*
X140700000Y-66500000D03*
X142700000Y-82500000D03*
X141700000Y-75500000D03*
X141700000Y-53400000D03*
X141700000Y-69500000D03*
X141700000Y-64500000D03*
X141700000Y-55400000D03*
X140700000Y-71500000D03*
X140700000Y-58400000D03*
X141700000Y-79500000D03*
X141700000Y-85500000D03*
X140700000Y-82500000D03*
X140700000Y-57400000D03*
X140700000Y-84500000D03*
X142700000Y-63500000D03*
X142700000Y-84500000D03*
X140700000Y-86500000D03*
X142700000Y-85500000D03*
X142700000Y-71500000D03*
X142700000Y-86500000D03*
X141700000Y-54400000D03*
X141700000Y-58400000D03*
X141700000Y-88500000D03*
X142700000Y-60500000D03*
X141700000Y-80500000D03*
X141700000Y-56400000D03*
X141700000Y-72500000D03*
X142700000Y-57400000D03*
X142700000Y-68500000D03*
X140700000Y-54400000D03*
X140700000Y-83500000D03*
X140700000Y-87500000D03*
X141700000Y-81500000D03*
X142700000Y-77500000D03*
X140700000Y-73500000D03*
X140700000Y-61500000D03*
X142700000Y-73500000D03*
X140700000Y-60500000D03*
X140700000Y-72500000D03*
X141700000Y-74500000D03*
X142700000Y-72500000D03*
X142700000Y-65500000D03*
X142700000Y-75500000D03*
X141700000Y-82500000D03*
X141700000Y-63500000D03*
X141700000Y-61500000D03*
X142700000Y-54400000D03*
X142700000Y-74500000D03*
X141700000Y-60500000D03*
X141700000Y-62500000D03*
X141700000Y-78500000D03*
X140700000Y-65500000D03*
X142700000Y-83500000D03*
X140700000Y-53400000D03*
X140700000Y-68500000D03*
X141700000Y-86500000D03*
X142700000Y-70500000D03*
X141700000Y-59500000D03*
X142700000Y-52400000D03*
X141700000Y-70500000D03*
X140700000Y-70500000D03*
X141700000Y-76500000D03*
X142700000Y-53400000D03*
X140700000Y-74500000D03*
X141700000Y-73500000D03*
X142700000Y-76500000D03*
X142700000Y-78500000D03*
X140700000Y-64500000D03*
X142700000Y-64500000D03*
X140700000Y-75500000D03*
X140700000Y-67500000D03*
X140700000Y-76500000D03*
X142700000Y-80500000D03*
X141700000Y-77500000D03*
X140700000Y-80500000D03*
X141700000Y-65500000D03*
X142700000Y-87500000D03*
X140700000Y-85500000D03*
X140700000Y-88500000D03*
X141700000Y-71500000D03*
X140700000Y-55400000D03*
X141700000Y-83500000D03*
X142700000Y-67500000D03*
X141700000Y-57400000D03*
X142700000Y-66500000D03*
X142700000Y-55400000D03*
X140700000Y-81500000D03*
X140700000Y-77500000D03*
X141700000Y-52400000D03*
X142700000Y-81500000D03*
X140700000Y-62500000D03*
X140700000Y-69500000D03*
X141700000Y-84500000D03*
X142700000Y-62500000D03*
X141700000Y-87500000D03*
X142700000Y-79500000D03*
X140700000Y-52400000D03*
X140700000Y-59500000D03*
X140700000Y-56400000D03*
X142700000Y-61500000D03*
X140700000Y-78500000D03*
X141700000Y-67500000D03*
%TO.N,GND*%
X158200000Y-76200000D03*
X157200000Y-86200000D03*
X156200000Y-67200000D03*
D11*
X154700000Y-79100000D03*
D10*
X158200000Y-88200000D03*
X156200000Y-79200000D03*
X156200000Y-81200000D03*
X157200000Y-73200000D03*
X158200000Y-83200000D03*
X158200000Y-56100000D03*
X158200000Y-53100000D03*
X158200000Y-82200000D03*
X158200000Y-74200000D03*
X158200000Y-68200000D03*
X156200000Y-65200000D03*
X156200000Y-71200000D03*
X157200000Y-78200000D03*
X158200000Y-77200000D03*
D11*
X147590000Y-71000000D03*
D10*
X158200000Y-81200000D03*
X156200000Y-55100000D03*
X157200000Y-74200000D03*
X158200000Y-87200000D03*
X158200000Y-80200000D03*
X157200000Y-69200000D03*
D11*
X145435000Y-81200000D03*
D10*
X156200000Y-80200000D03*
X158200000Y-84200000D03*
X157200000Y-81200000D03*
X157200000Y-65200000D03*
X146100000Y-87700000D03*
X157200000Y-60200000D03*
X156200000Y-87200000D03*
X144837500Y-69345000D03*
X156200000Y-60200000D03*
X158200000Y-69200000D03*
X157200000Y-88200000D03*
D11*
X145575000Y-83575000D03*
D10*
X156200000Y-62200000D03*
X158200000Y-86200000D03*
X157200000Y-70200000D03*
X158200000Y-64200000D03*
X156200000Y-82200000D03*
X157200000Y-72200000D03*
X157200000Y-55100000D03*
D11*
X151950000Y-82925000D03*
D10*
X157200000Y-83200000D03*
X144537500Y-72900000D03*
X156200000Y-61200000D03*
X158200000Y-66200000D03*
X156200000Y-68200000D03*
X158200000Y-55100000D03*
X158200000Y-60200000D03*
X157200000Y-68200000D03*
X158200000Y-71200000D03*
X157200000Y-59200000D03*
X158200000Y-57100000D03*
X156200000Y-69200000D03*
X158200000Y-65200000D03*
X156200000Y-54100000D03*
X156200000Y-83200000D03*
X157200000Y-84200000D03*
X157200000Y-76200000D03*
X157200000Y-75200000D03*
X156200000Y-86200000D03*
X158200000Y-78200000D03*
X151250000Y-88500000D03*
X158200000Y-79200000D03*
X156200000Y-73200000D03*
D11*
X144000000Y-76300000D03*
D10*
X144900000Y-79700000D03*
X156200000Y-72200000D03*
X156200000Y-76200000D03*
X158200000Y-58100000D03*
X157200000Y-62200000D03*
X144900000Y-75600000D03*
D11*
X146500000Y-89300000D03*
D10*
X156200000Y-85200000D03*
X156200000Y-88200000D03*
X158200000Y-67200000D03*
X157200000Y-56100000D03*
X157200000Y-71200000D03*
X157200000Y-87200000D03*
X158200000Y-72200000D03*
X158200000Y-54100000D03*
X157200000Y-67200000D03*
X156200000Y-66200000D03*
X158200000Y-52100000D03*
X158200000Y-70200000D03*
X156200000Y-77200000D03*
X156200000Y-84200000D03*
X158200000Y-62200000D03*
X156200000Y-70200000D03*
X155100000Y-82525000D03*
X144837500Y-71400000D03*
X156200000Y-75200000D03*
X157200000Y-82200000D03*
X158200000Y-61200000D03*
X157200000Y-66200000D03*
X158200000Y-73200000D03*
X158200000Y-85200000D03*
X158200000Y-75200000D03*
X156200000Y-56100000D03*
X157200000Y-80200000D03*
X158200000Y-63200000D03*
X156200000Y-59200000D03*
X157200000Y-61200000D03*
X157200000Y-77200000D03*
X158200000Y-59200000D03*
X156200000Y-78200000D03*
X156200000Y-74200000D03*
X157200000Y-79200000D03*
X157200000Y-54100000D03*
X157200000Y-85200000D03*
%TO.N,+5V*%
X144500000Y-82600000D03*
D11*
%TO.N,+3.3V*%
X154700000Y-73100000D03*
D10*
X147929013Y-81741010D03*
D11*
X152550000Y-81525000D03*
%TO.N,+6V*%
X149100000Y-68600000D03*
D12*
X148150000Y-85600000D03*
D10*
X146450000Y-72900000D03*
D12*
X153000000Y-77400000D03*
D11*
X153900000Y-70135000D03*
%TO.N,Net-(D1-K)*%
X150497500Y-75800000D03*
%TO.N,Net-(U6-VS1)*%
X155300000Y-74100000D03*
%TO.N,Net-(D3-K)*%
X152800000Y-72000000D03*
%TO.N,Net-(U6-VS3)*%
X151225000Y-70200000D03*
%TO.N,Net-(Q1-G)*%
X148005000Y-57900000D03*
D10*
%TO.N,PHASE_A*%
X145400000Y-49675000D03*
X142400000Y-49675000D03*
X142400000Y-50675000D03*
X150800000Y-57845000D03*
X147750000Y-61655000D03*
X144400000Y-48675000D03*
X143400000Y-48675000D03*
X141400000Y-49675000D03*
X150800000Y-61655000D03*
X145400000Y-50675000D03*
X143400000Y-49675000D03*
X144400000Y-49675000D03*
X149300000Y-61900000D03*
X150800000Y-59115000D03*
X142400000Y-48675000D03*
X141400000Y-50675000D03*
X149300000Y-60900000D03*
X150800000Y-60385000D03*
D11*
X147595000Y-68800000D03*
D10*
X147750000Y-59115000D03*
X141400000Y-48675000D03*
X149300000Y-59900000D03*
X144400000Y-50675000D03*
X145400000Y-48675000D03*
X147750000Y-60385000D03*
X149300000Y-58900000D03*
X143400000Y-50675000D03*
%TO.N,PHASE_C*%
X153400000Y-49675000D03*
X155500000Y-50675000D03*
X149400000Y-67300000D03*
D11*
X152550000Y-83700000D03*
D10*
X157600000Y-49675000D03*
X149400000Y-66400000D03*
X154500000Y-49675000D03*
X157600000Y-50675000D03*
X154500000Y-48675000D03*
X153200000Y-63300000D03*
X156600000Y-49675000D03*
X147800000Y-65885000D03*
X153400000Y-50675000D03*
X149400000Y-65500000D03*
X157600000Y-48675000D03*
X147800000Y-67155000D03*
X156600000Y-50675000D03*
X155500000Y-49675000D03*
X156600000Y-48675000D03*
X149400000Y-64600000D03*
X153400000Y-48675000D03*
X150800000Y-65885000D03*
X150800000Y-67155000D03*
X155500000Y-48675000D03*
X154500000Y-50675000D03*
X147800000Y-64615000D03*
X153200000Y-64300000D03*
D11*
%TO.N,Net-(Q2-G)*%
X148002500Y-63400000D03*
%TO.N,Net-(Q3-G)*%
X148205000Y-52400000D03*
D10*
%TO.N,PHASE_B*%
X147800000Y-56155000D03*
X147800000Y-54885000D03*
X149100000Y-50675000D03*
X151100000Y-48675000D03*
X148100000Y-50675000D03*
X149400000Y-54300000D03*
X149400000Y-56100000D03*
X149400000Y-55200000D03*
X152100000Y-48675000D03*
X152100000Y-49675000D03*
X151100000Y-49675000D03*
X150100000Y-48675000D03*
X147100000Y-48675000D03*
X149400000Y-53400000D03*
X150100000Y-50675000D03*
X148100000Y-49675000D03*
X149100000Y-49675000D03*
X150800000Y-56040000D03*
X150800000Y-54770000D03*
D11*
X146475000Y-81350000D03*
D10*
X152100000Y-52900000D03*
X152100000Y-53900000D03*
X150800000Y-52230000D03*
X152100000Y-55900000D03*
X152100000Y-50675000D03*
X150800000Y-53500000D03*
X148100000Y-48675000D03*
X150100000Y-49675000D03*
X147100000Y-50675000D03*
X149100000Y-48675000D03*
X151100000Y-50675000D03*
X147800000Y-53615000D03*
X147100000Y-49675000D03*
X152100000Y-54900000D03*
D11*
%TO.N,Net-(Q4-G)*%
X156500000Y-57900000D03*
%TO.N,Net-(Q5-G)*%
X156397500Y-52300000D03*
%TO.N,Net-(Q6-G)*%
X156500000Y-63400000D03*
%TO.N,BEMF_A*%
X146425000Y-80250000D03*
%TO.N,BEMF_REF*%
X153200000Y-80600000D03*
%TO.N,BEMF_B*%
X148184620Y-83934620D03*
X146650000Y-79300000D03*
%TO.N,GHB*%
X152700000Y-73400000D03*
X149400000Y-52400000D03*
%TO.N,GLB*%
X154250000Y-69025000D03*
X155400000Y-51500000D03*
%TO.N,GHC*%
X152800000Y-71100000D03*
X149197500Y-63400000D03*
%TO.N,GLC*%
X155150000Y-68500000D03*
X155500000Y-62600000D03*
%TO.N,GHA*%
X149200000Y-57900000D03*
X152000000Y-75200000D03*
%TO.N,GLA*%
X155500000Y-57100000D03*
X155100000Y-69600000D03*
%TD*%
D13*
%TO.N,PHASE_A*%
X145800000Y-51075000D02*
X145400000Y-50675000D01*
X145800000Y-67005000D02*
X145800000Y-51000000D01*
X147595000Y-68800000D02*
X145800000Y-67005000D01*
D14*
%TO.N,PHASE_C*%
X154350000Y-69948603D02*
X153800000Y-69398603D01*
X153800000Y-64900000D02*
X153200000Y-64300000D01*
X153800000Y-69398603D02*
X153800000Y-64900000D01*
X154350000Y-70550000D02*
X154350000Y-69948603D01*
X154086397Y-70813603D02*
X154350000Y-70550000D01*
X152550000Y-83700000D02*
X154086397Y-82163603D01*
X154086397Y-82163603D02*
X154086397Y-70813603D01*
%TO.N,PHASE_B*%
X146475000Y-81350000D02*
X146313603Y-81350000D01*
X146313603Y-81350000D02*
X145950000Y-80986397D01*
X145950000Y-79150000D02*
X146450000Y-78650000D01*
X149600000Y-78650000D02*
X149650000Y-78600000D01*
X145950000Y-80986397D02*
X145950000Y-79150000D01*
X149650000Y-78600000D02*
X150050000Y-78200000D01*
X152100000Y-55900000D02*
X152100000Y-64975736D01*
X150050000Y-78200000D02*
X150000000Y-78150000D01*
X146450000Y-78650000D02*
X149600000Y-78650000D01*
X153450000Y-74800000D02*
X149650000Y-78600000D01*
X153450000Y-66325736D02*
X153450000Y-74800000D01*
X152100000Y-64975736D02*
X153450000Y-66325736D01*
%TO.N,BEMF_B*%
X148184620Y-83934620D02*
X147229013Y-82979013D01*
X147229013Y-82979013D02*
X147229013Y-79879013D01*
X147229013Y-79879013D02*
X146650000Y-79300000D01*
%TO.N,GHB*%
X146800000Y-53200000D02*
X147150000Y-52850000D01*
X151700000Y-68600000D02*
X151100000Y-68000000D01*
X152700000Y-73200000D02*
X151700000Y-72200000D01*
X147500000Y-68000000D02*
X146800000Y-67300000D01*
X146800000Y-67300000D02*
X146800000Y-53200000D01*
X151700000Y-72200000D02*
X151700000Y-68600000D01*
X148950000Y-52850000D02*
X149400000Y-52400000D01*
X147150000Y-52850000D02*
X148950000Y-52850000D01*
X152700000Y-73400000D02*
X152700000Y-73200000D01*
X151100000Y-68000000D02*
X147500000Y-68000000D01*
%TO.N,GLB*%
X154250000Y-57450000D02*
X155400000Y-56300000D01*
X154250000Y-69025000D02*
X154250000Y-57450000D01*
X155400000Y-56300000D02*
X155400000Y-51500000D01*
%TO.N,GHC*%
X150100000Y-63400000D02*
X149197500Y-63400000D01*
X152800000Y-66100000D02*
X150100000Y-63400000D01*
X152800000Y-71100000D02*
X152800000Y-66100000D01*
%TO.N,GLC*%
X155500000Y-62600000D02*
X155500000Y-68150000D01*
X155500000Y-68150000D02*
X155150000Y-68500000D01*
%TO.N,GHA*%
X149850000Y-63850000D02*
X149011103Y-63850000D01*
X148600000Y-58500000D02*
X149200000Y-57900000D01*
X153150000Y-73950000D02*
X153150000Y-73050000D01*
X152200000Y-74200000D02*
X152900000Y-74200000D01*
X148600000Y-63438897D02*
X148600000Y-58500000D01*
X149011103Y-63850000D02*
X148600000Y-63438897D01*
X152900000Y-74200000D02*
X153150000Y-73950000D01*
X153150000Y-73050000D02*
X152200000Y-72100000D01*
X152000000Y-74400000D02*
X152200000Y-74200000D01*
X152200000Y-72100000D02*
X152200000Y-66200000D01*
X152000000Y-75200000D02*
X152000000Y-74400000D01*
X152200000Y-66200000D02*
X149850000Y-63850000D01*
%TO.N,GLA*%
X154700000Y-69200000D02*
X154700000Y-57900000D01*
X155100000Y-69600000D02*
X154700000Y-69200000D01*
X154700000Y-57900000D02*
X155500000Y-57100000D01*
%TD*%
%TA.AperFunction,Conductor*%
%TO.N,PHASE_C*%
G36*
X153979815Y-67743039D02*
G01*
X153927011Y-67788794D01*
X153875500Y-67800000D01*
X153824500Y-67800000D01*
X153757461Y-67780315D01*
X153728540Y-67746939D01*
X153980430Y-67740942D01*
X153979815Y-67743039D01*
G37*
%TD.AperFunction*%
%TD*%
%TA.AperFunction,Conductor*%
%TO.N,PHASE_B*%
G36*
X152430813Y-56904697D02*
G01*
X152379325Y-56915897D01*
X152369127Y-56918390D01*
X152288413Y-56961400D01*
X152278822Y-56969712D01*
X152215267Y-56998738D01*
X152197619Y-57000000D01*
X152007988Y-57000000D01*
X151940949Y-56980315D01*
X151932667Y-56974502D01*
X151930254Y-56972657D01*
X151850440Y-56928011D01*
X151850435Y-56928009D01*
X151783403Y-56908326D01*
X151783399Y-56908325D01*
X151783398Y-56908325D01*
X151725500Y-56900000D01*
X152474492Y-56900000D01*
X152430813Y-56904697D01*
G37*
%TD.AperFunction*%
%TA.AperFunction,Conductor*%
G36*
X151580313Y-56904697D02*
G01*
X151528825Y-56915897D01*
X151518627Y-56918390D01*
X151518623Y-56918391D01*
X151455271Y-56952150D01*
X151386850Y-56966304D01*
X151336426Y-56950937D01*
X151295437Y-56928010D01*
X151295435Y-56928009D01*
X151228403Y-56908326D01*
X151228399Y-56908325D01*
X151228398Y-56908325D01*
X151170500Y-56900000D01*
X151623992Y-56900000D01*
X151580313Y-56904697D01*
G37*
%TD.AperFunction*%
%TD*%
%TA.AperFunction,Conductor*%
%TO.N,PHASE_A*%
G36*
X146037539Y-48220185D02*
G01*
X146083294Y-48272989D01*
X146094500Y-48324500D01*
X146094500Y-56776007D01*
X146099197Y-56819686D01*
X146110397Y-56871174D01*
X146112890Y-56881372D01*
X146112891Y-56881375D01*
X146155899Y-56962083D01*
X146155901Y-56962086D01*
X146201660Y-57014895D01*
X146219242Y-57032839D01*
X146219246Y-57032843D01*
X146219247Y-57032844D01*
X146219249Y-57032845D01*
X146298516Y-57077184D01*
X146299063Y-57077490D01*
X146366102Y-57097175D01*
X146424000Y-57105500D01*
X146424004Y-57105500D01*
X146425500Y-57105500D01*
X146425982Y-57105641D01*
X146428419Y-57105816D01*
X146428381Y-57106345D01*
X146492539Y-57125185D01*
X146538294Y-57177989D01*
X146549500Y-57229500D01*
X146549500Y-62170500D01*
X146529815Y-62237539D01*
X146477011Y-62283294D01*
X146425500Y-62294500D01*
X146199492Y-62294500D01*
X146155813Y-62299197D01*
X146104325Y-62310397D01*
X146094127Y-62312890D01*
X146094124Y-62312891D01*
X146013416Y-62355899D01*
X146013413Y-62355901D01*
X145960604Y-62401660D01*
X145942660Y-62419242D01*
X145942656Y-62419247D01*
X145932985Y-62436537D01*
X145883077Y-62485434D01*
X145824766Y-62500000D01*
X145776113Y-62500000D01*
X145709074Y-62480315D01*
X145674223Y-62442496D01*
X145672540Y-62443653D01*
X145668602Y-62437919D01*
X145668600Y-62437915D01*
X145622845Y-62385111D01*
X145622839Y-62385104D01*
X145605257Y-62367160D01*
X145605256Y-62367159D01*
X145605254Y-62367157D01*
X145605252Y-62367156D01*
X145605250Y-62367154D01*
X145525440Y-62322511D01*
X145525435Y-62322509D01*
X145458403Y-62302826D01*
X145458399Y-62302825D01*
X145458398Y-62302825D01*
X145400500Y-62294500D01*
X143729500Y-62294500D01*
X143662461Y-62274815D01*
X143616706Y-62222011D01*
X143605500Y-62170500D01*
X143605500Y-51824008D01*
X143605499Y-51823992D01*
X143600803Y-51780316D01*
X143592556Y-51742407D01*
X143589602Y-51728825D01*
X143589348Y-51727789D01*
X143587110Y-51718627D01*
X143544100Y-51637915D01*
X143498345Y-51585111D01*
X143498339Y-51585104D01*
X143480757Y-51567160D01*
X143480756Y-51567159D01*
X143480754Y-51567157D01*
X143463462Y-51557484D01*
X143414566Y-51507577D01*
X143400000Y-51449266D01*
X143400000Y-48324500D01*
X143419685Y-48257461D01*
X143472489Y-48211706D01*
X143524000Y-48200500D01*
X145970500Y-48200500D01*
X146037539Y-48220185D01*
G37*
%TD.AperFunction*%
%TA.AperFunction,Conductor*%
G36*
X151237539Y-57125185D02*
G01*
X151283294Y-57177989D01*
X151294500Y-57229500D01*
X151294500Y-62170500D01*
X151274815Y-62237539D01*
X151222011Y-62283294D01*
X151170500Y-62294500D01*
X149587114Y-62294500D01*
X149537955Y-62300468D01*
X149537928Y-62300473D01*
X149533975Y-62301447D01*
X149531228Y-62301325D01*
X149368650Y-62341397D01*
X149338976Y-62345000D01*
X149261024Y-62345000D01*
X149231350Y-62341397D01*
X149073327Y-62302449D01*
X149066092Y-62301464D01*
X149062056Y-62300470D01*
X149062052Y-62300469D01*
X149062050Y-62300469D01*
X149062044Y-62300468D01*
X149012885Y-62294500D01*
X149012882Y-62294500D01*
X148974500Y-62294500D01*
X148907461Y-62274815D01*
X148861706Y-62222011D01*
X148850500Y-62170500D01*
X148850500Y-58655122D01*
X148870185Y-58588083D01*
X148886815Y-58567445D01*
X149112449Y-58341810D01*
X149173772Y-58308326D01*
X149199735Y-58305534D01*
X149325300Y-58285647D01*
X149325301Y-58285647D01*
X149325302Y-58285646D01*
X149325304Y-58285646D01*
X149438342Y-58228050D01*
X149528050Y-58138342D01*
X149585646Y-58025304D01*
X149585646Y-58025302D01*
X149585647Y-58025301D01*
X149585647Y-58025300D01*
X149605492Y-57900003D01*
X149605492Y-57899996D01*
X149585647Y-57774699D01*
X149585647Y-57774698D01*
X149585646Y-57774696D01*
X149528050Y-57661658D01*
X149528046Y-57661654D01*
X149528045Y-57661652D01*
X149438347Y-57571954D01*
X149438344Y-57571952D01*
X149438342Y-57571950D01*
X149325304Y-57514354D01*
X149325303Y-57514353D01*
X149325300Y-57514352D01*
X149200003Y-57494508D01*
X149199997Y-57494508D01*
X149074699Y-57514352D01*
X149074698Y-57514352D01*
X149002266Y-57551259D01*
X148961658Y-57571950D01*
X148961657Y-57571951D01*
X148961652Y-57571954D01*
X148871954Y-57661652D01*
X148871951Y-57661657D01*
X148814352Y-57774698D01*
X148814352Y-57774699D01*
X148792981Y-57909638D01*
X148791698Y-57909434D01*
X148774823Y-57966907D01*
X148758189Y-57987549D01*
X148597135Y-58148603D01*
X148535812Y-58182088D01*
X148466120Y-58177104D01*
X148410187Y-58135232D01*
X148385770Y-58069768D01*
X148390002Y-58035083D01*
X148389120Y-58034944D01*
X148410492Y-57900003D01*
X148410492Y-57899996D01*
X148390647Y-57774699D01*
X148390647Y-57774698D01*
X148390646Y-57774696D01*
X148333050Y-57661658D01*
X148333046Y-57661654D01*
X148333045Y-57661652D01*
X148243347Y-57571954D01*
X148243344Y-57571952D01*
X148243342Y-57571950D01*
X148130304Y-57514354D01*
X148130303Y-57514353D01*
X148130300Y-57514352D01*
X148005003Y-57494508D01*
X148004997Y-57494508D01*
X147879699Y-57514352D01*
X147879698Y-57514352D01*
X147807266Y-57551259D01*
X147766658Y-57571950D01*
X147766657Y-57571951D01*
X147766652Y-57571954D01*
X147676954Y-57661652D01*
X147676951Y-57661657D01*
X147619352Y-57774698D01*
X147619352Y-57774699D01*
X147599508Y-57899996D01*
X147599508Y-57900003D01*
X147619352Y-58025300D01*
X147619352Y-58025301D01*
X147634547Y-58055122D01*
X147676950Y-58138342D01*
X147676952Y-58138344D01*
X147676954Y-58138347D01*
X147766652Y-58228045D01*
X147766654Y-58228046D01*
X147766658Y-58228050D01*
X147879696Y-58285646D01*
X147879697Y-58285646D01*
X147879699Y-58285647D01*
X148004997Y-58305492D01*
X148005000Y-58305492D01*
X148005003Y-58305492D01*
X148130300Y-58285647D01*
X148130302Y-58285646D01*
X148130304Y-58285646D01*
X148195035Y-58252663D01*
X148263702Y-58239767D01*
X148328443Y-58266042D01*
X148368700Y-58323148D01*
X148371693Y-58392954D01*
X148365891Y-58410599D01*
X148349500Y-58450170D01*
X148349500Y-62170500D01*
X148329815Y-62237539D01*
X148277011Y-62283294D01*
X148225500Y-62294500D01*
X147174500Y-62294500D01*
X147107461Y-62274815D01*
X147061706Y-62222011D01*
X147050500Y-62170500D01*
X147050500Y-57229500D01*
X147070185Y-57162461D01*
X147122989Y-57116706D01*
X147174500Y-57105500D01*
X151170500Y-57105500D01*
X151237539Y-57125185D01*
G37*
%TD.AperFunction*%
%TD*%
%TA.AperFunction,Conductor*%
%TO.N,VDC*%
G36*
X143343039Y-51719685D02*
G01*
X143388794Y-51772489D01*
X143400000Y-51824000D01*
X143400000Y-67548898D01*
X143380315Y-67615937D01*
X143342025Y-67651384D01*
X143342989Y-67652774D01*
X143337265Y-67656742D01*
X143284684Y-67702720D01*
X143284682Y-67702722D01*
X143266797Y-67720404D01*
X143258141Y-67736046D01*
X143208455Y-67785169D01*
X143149649Y-67800000D01*
X140324500Y-67800000D01*
X140257461Y-67780315D01*
X140211706Y-67727511D01*
X140200500Y-67676000D01*
X140200500Y-51824000D01*
X140220185Y-51756961D01*
X140272989Y-51711206D01*
X140324500Y-51700000D01*
X143276000Y-51700000D01*
X143343039Y-51719685D01*
G37*
%TD.AperFunction*%
%TD*%
%TA.AperFunction,Conductor*%
%TO.N,PHASE_B*%
G36*
X152743039Y-48220185D02*
G01*
X152788794Y-48272989D01*
X152800000Y-48324500D01*
X152800000Y-48399908D01*
X152791942Y-48443879D01*
X152763763Y-48518181D01*
X152744722Y-48674999D01*
X152744722Y-48675000D01*
X152763762Y-48831817D01*
X152776196Y-48864603D01*
X152791942Y-48906122D01*
X152800000Y-48950090D01*
X152800000Y-49399908D01*
X152791942Y-49443879D01*
X152763763Y-49518181D01*
X152744722Y-49674999D01*
X152744722Y-49675000D01*
X152763762Y-49831817D01*
X152776196Y-49864603D01*
X152791942Y-49906122D01*
X152800000Y-49950090D01*
X152800000Y-50399908D01*
X152791942Y-50443879D01*
X152763763Y-50518181D01*
X152744722Y-50674999D01*
X152744722Y-50675000D01*
X152763762Y-50831817D01*
X152767833Y-50842551D01*
X152791942Y-50906122D01*
X152800000Y-50950090D01*
X152800000Y-56900000D01*
X147055721Y-56900000D01*
X147050500Y-56876000D01*
X147050500Y-53355122D01*
X147070185Y-53288083D01*
X147086819Y-53267441D01*
X147217441Y-53136819D01*
X147278764Y-53103334D01*
X147305122Y-53100500D01*
X148999826Y-53100500D01*
X148999828Y-53100500D01*
X149091897Y-53062364D01*
X149312449Y-52841810D01*
X149373772Y-52808326D01*
X149399735Y-52805534D01*
X149525300Y-52785647D01*
X149525301Y-52785647D01*
X149525302Y-52785646D01*
X149525304Y-52785646D01*
X149638342Y-52728050D01*
X149728050Y-52638342D01*
X149785646Y-52525304D01*
X149785646Y-52525302D01*
X149785647Y-52525301D01*
X149785647Y-52525300D01*
X149805492Y-52400003D01*
X149805492Y-52399996D01*
X149785647Y-52274699D01*
X149785647Y-52274698D01*
X149785646Y-52274696D01*
X149728050Y-52161658D01*
X149728046Y-52161654D01*
X149728045Y-52161652D01*
X149638347Y-52071954D01*
X149638344Y-52071952D01*
X149638342Y-52071950D01*
X149525304Y-52014354D01*
X149525303Y-52014353D01*
X149525300Y-52014352D01*
X149400003Y-51994508D01*
X149399997Y-51994508D01*
X149274699Y-52014352D01*
X149274698Y-52014352D01*
X149199337Y-52052751D01*
X149161658Y-52071950D01*
X149161657Y-52071951D01*
X149161652Y-52071954D01*
X149071954Y-52161652D01*
X149071951Y-52161657D01*
X149014352Y-52274698D01*
X149014352Y-52274699D01*
X148992981Y-52409638D01*
X148991698Y-52409434D01*
X148974823Y-52466906D01*
X148958190Y-52487548D01*
X148882558Y-52563181D01*
X148821235Y-52596666D01*
X148794876Y-52599500D01*
X148724080Y-52599500D01*
X148657041Y-52579815D01*
X148611286Y-52527011D01*
X148601342Y-52457853D01*
X148601607Y-52456103D01*
X148610492Y-52400003D01*
X148610492Y-52399996D01*
X148590647Y-52274699D01*
X148590647Y-52274698D01*
X148590646Y-52274696D01*
X148533050Y-52161658D01*
X148533046Y-52161654D01*
X148533045Y-52161652D01*
X148443347Y-52071954D01*
X148443344Y-52071952D01*
X148443342Y-52071950D01*
X148330304Y-52014354D01*
X148330303Y-52014353D01*
X148330300Y-52014352D01*
X148205003Y-51994508D01*
X148204997Y-51994508D01*
X148079699Y-52014352D01*
X148079698Y-52014352D01*
X148004337Y-52052751D01*
X147966658Y-52071950D01*
X147966657Y-52071951D01*
X147966652Y-52071954D01*
X147876954Y-52161652D01*
X147876951Y-52161657D01*
X147819352Y-52274698D01*
X147819352Y-52274699D01*
X147799508Y-52399996D01*
X147799508Y-52400003D01*
X147808393Y-52456103D01*
X147799438Y-52525396D01*
X147754442Y-52578848D01*
X147687690Y-52599487D01*
X147685920Y-52599500D01*
X147214270Y-52599500D01*
X147214262Y-52599499D01*
X147199828Y-52599499D01*
X147100172Y-52599499D01*
X147100170Y-52599499D01*
X147100168Y-52599500D01*
X147035072Y-52626463D01*
X147035069Y-52626465D01*
X147008103Y-52637636D01*
X147008099Y-52637639D01*
X146937636Y-52708103D01*
X146937635Y-52708104D01*
X146860093Y-52785646D01*
X146640665Y-53005072D01*
X146640661Y-53005078D01*
X146587636Y-53058103D01*
X146549500Y-53150170D01*
X146549500Y-56776000D01*
X146529815Y-56843039D01*
X146477011Y-56888794D01*
X146425500Y-56900000D01*
X146424000Y-56900000D01*
X146356961Y-56880315D01*
X146311206Y-56827511D01*
X146300000Y-56776000D01*
X146300000Y-48324500D01*
X146319685Y-48257461D01*
X146372489Y-48211706D01*
X146424000Y-48200500D01*
X152676000Y-48200500D01*
X152743039Y-48220185D01*
G37*
%TD.AperFunction*%
%TD*%
%TA.AperFunction,Conductor*%
%TO.N,PHASE_C*%
G36*
X155741390Y-48220185D02*
G01*
X155787145Y-48272989D01*
X155798349Y-48325129D01*
X155784543Y-51044724D01*
X155764519Y-51111663D01*
X155711483Y-51157149D01*
X155642275Y-51166742D01*
X155604250Y-51154579D01*
X155572482Y-51138392D01*
X155525303Y-51114353D01*
X155525300Y-51114352D01*
X155400003Y-51094508D01*
X155399997Y-51094508D01*
X155274699Y-51114352D01*
X155274698Y-51114352D01*
X155199337Y-51152751D01*
X155161658Y-51171950D01*
X155161657Y-51171951D01*
X155161652Y-51171954D01*
X155071954Y-51261652D01*
X155071951Y-51261657D01*
X155014352Y-51374698D01*
X155014352Y-51374699D01*
X154994508Y-51499996D01*
X154994508Y-51500003D01*
X155014352Y-51625300D01*
X155014352Y-51625301D01*
X155014354Y-51625304D01*
X155071950Y-51738342D01*
X155071952Y-51738344D01*
X155071953Y-51738346D01*
X155113180Y-51779572D01*
X155146666Y-51840895D01*
X155149500Y-51867254D01*
X155149500Y-56144876D01*
X155129815Y-56211915D01*
X155113181Y-56232557D01*
X154090661Y-57255076D01*
X154090662Y-57255077D01*
X154037636Y-57308103D01*
X153999500Y-57400170D01*
X153999500Y-67676000D01*
X153980430Y-67740942D01*
X153728540Y-67746939D01*
X153711706Y-67727511D01*
X153700500Y-67676000D01*
X153700500Y-66275909D01*
X153700499Y-66275906D01*
X153670615Y-66203760D01*
X153662364Y-66183839D01*
X153591897Y-66113372D01*
X152386819Y-64908294D01*
X152353334Y-64846971D01*
X152350500Y-64820613D01*
X152350500Y-57229500D01*
X152370185Y-57162461D01*
X152422989Y-57116706D01*
X152474500Y-57105500D01*
X152800003Y-57105500D01*
X152800003Y-57105499D01*
X152845728Y-57100348D01*
X152928127Y-57060666D01*
X152985149Y-56989163D01*
X153005500Y-56900000D01*
X153005500Y-50950090D01*
X153002133Y-50913045D01*
X152994075Y-50869077D01*
X152984088Y-50833251D01*
X152970094Y-50796354D01*
X152962941Y-50767330D01*
X152953545Y-50689940D01*
X152953545Y-50660060D01*
X152962942Y-50582659D01*
X152970093Y-50553649D01*
X152984088Y-50516750D01*
X152994076Y-50480921D01*
X153002134Y-50436950D01*
X153005500Y-50399908D01*
X153005500Y-49950090D01*
X153002133Y-49913045D01*
X152994075Y-49869077D01*
X152984088Y-49833251D01*
X152984081Y-49833232D01*
X152970095Y-49796352D01*
X152962941Y-49767329D01*
X152953545Y-49689940D01*
X152953545Y-49660060D01*
X152962942Y-49582659D01*
X152970093Y-49553649D01*
X152984088Y-49516750D01*
X152994076Y-49480921D01*
X153002134Y-49436950D01*
X153005500Y-49399908D01*
X153005500Y-48950090D01*
X153002133Y-48913045D01*
X152994075Y-48869077D01*
X152984088Y-48833251D01*
X152984081Y-48833232D01*
X152970095Y-48796352D01*
X152962941Y-48767329D01*
X152953545Y-48689940D01*
X152953545Y-48660060D01*
X152962942Y-48582659D01*
X152970093Y-48553649D01*
X152984088Y-48516750D01*
X152994076Y-48480921D01*
X153002134Y-48436950D01*
X153005500Y-48399908D01*
X153005500Y-48324500D01*
X153025185Y-48257461D01*
X153077989Y-48211706D01*
X153129500Y-48200500D01*
X155674351Y-48200500D01*
X155741390Y-48220185D01*
G37*
%TD.AperFunction*%
%TA.AperFunction,Conductor*%
G36*
X151913181Y-66267441D02*
G01*
X151946666Y-66328764D01*
X151949500Y-66355122D01*
X151949500Y-67470500D01*
X151929815Y-67537539D01*
X151877011Y-67583294D01*
X151825500Y-67594500D01*
X151553619Y-67594500D01*
X151549955Y-67594565D01*
X151546287Y-67594631D01*
X151537441Y-67594947D01*
X151537436Y-67594947D01*
X151500000Y-67602393D01*
X151500000Y-65854260D01*
X151913181Y-66267441D01*
G37*
%TD.AperFunction*%
%TD*%
%TA.AperFunction,Conductor*%
%TO.N,GND*%
G36*
X158742539Y-51519685D02*
G01*
X158788294Y-51572489D01*
X158799500Y-51624000D01*
X158799500Y-67576000D01*
X158779815Y-67643039D01*
X158727011Y-67688794D01*
X158675500Y-67700000D01*
X155874500Y-67700000D01*
X155807461Y-67680315D01*
X155761706Y-67627511D01*
X155750500Y-67576000D01*
X155750500Y-63399996D01*
X156094508Y-63399996D01*
X156094508Y-63400003D01*
X156114352Y-63525300D01*
X156114352Y-63525301D01*
X156114354Y-63525304D01*
X156171950Y-63638342D01*
X156171952Y-63638344D01*
X156171954Y-63638347D01*
X156261652Y-63728045D01*
X156261654Y-63728046D01*
X156261658Y-63728050D01*
X156374696Y-63785646D01*
X156374697Y-63785646D01*
X156374699Y-63785647D01*
X156499997Y-63805492D01*
X156500000Y-63805492D01*
X156500003Y-63805492D01*
X156625300Y-63785647D01*
X156625301Y-63785647D01*
X156625302Y-63785646D01*
X156625304Y-63785646D01*
X156738342Y-63728050D01*
X156828050Y-63638342D01*
X156885646Y-63525304D01*
X156885646Y-63525302D01*
X156885647Y-63525301D01*
X156885647Y-63525300D01*
X156905492Y-63400003D01*
X156905492Y-63399996D01*
X156885647Y-63274699D01*
X156885647Y-63274698D01*
X156885646Y-63274696D01*
X156828050Y-63161658D01*
X156828046Y-63161654D01*
X156828045Y-63161652D01*
X156738347Y-63071954D01*
X156738344Y-63071952D01*
X156738342Y-63071950D01*
X156625304Y-63014354D01*
X156625303Y-63014353D01*
X156625300Y-63014352D01*
X156500003Y-62994508D01*
X156499997Y-62994508D01*
X156374699Y-63014352D01*
X156374698Y-63014352D01*
X156299337Y-63052751D01*
X156261658Y-63071950D01*
X156261657Y-63071951D01*
X156261652Y-63071954D01*
X156171954Y-63161652D01*
X156171951Y-63161657D01*
X156114352Y-63274698D01*
X156114352Y-63274699D01*
X156094508Y-63399996D01*
X155750500Y-63399996D01*
X155750500Y-62967254D01*
X155770185Y-62900215D01*
X155786820Y-62879572D01*
X155828046Y-62838346D01*
X155828050Y-62838342D01*
X155885646Y-62725304D01*
X155885646Y-62725302D01*
X155885647Y-62725301D01*
X155885647Y-62725300D01*
X155905492Y-62600003D01*
X155905492Y-62599996D01*
X155885647Y-62474699D01*
X155885647Y-62474698D01*
X155885646Y-62474696D01*
X155828050Y-62361658D01*
X155828046Y-62361654D01*
X155828045Y-62361652D01*
X155770172Y-62303779D01*
X155736687Y-62242456D01*
X155733855Y-62215341D01*
X155760493Y-57899996D01*
X156094508Y-57899996D01*
X156094508Y-57900003D01*
X156114352Y-58025300D01*
X156114352Y-58025301D01*
X156132805Y-58061517D01*
X156171950Y-58138342D01*
X156171952Y-58138344D01*
X156171954Y-58138347D01*
X156261652Y-58228045D01*
X156261654Y-58228046D01*
X156261658Y-58228050D01*
X156374696Y-58285646D01*
X156374697Y-58285646D01*
X156374699Y-58285647D01*
X156499997Y-58305492D01*
X156500000Y-58305492D01*
X156500003Y-58305492D01*
X156625300Y-58285647D01*
X156625301Y-58285647D01*
X156625302Y-58285646D01*
X156625304Y-58285646D01*
X156738342Y-58228050D01*
X156828050Y-58138342D01*
X156885646Y-58025304D01*
X156885646Y-58025302D01*
X156885647Y-58025301D01*
X156885647Y-58025300D01*
X156905492Y-57900003D01*
X156905492Y-57899996D01*
X156885647Y-57774699D01*
X156885647Y-57774698D01*
X156877191Y-57758103D01*
X156828050Y-57661658D01*
X156828046Y-57661654D01*
X156828045Y-57661652D01*
X156738347Y-57571954D01*
X156738344Y-57571952D01*
X156738342Y-57571950D01*
X156625304Y-57514354D01*
X156625303Y-57514353D01*
X156625300Y-57514352D01*
X156500003Y-57494508D01*
X156499997Y-57494508D01*
X156374699Y-57514352D01*
X156374698Y-57514352D01*
X156299337Y-57552751D01*
X156261658Y-57571950D01*
X156261657Y-57571951D01*
X156261652Y-57571954D01*
X156171954Y-57661652D01*
X156171951Y-57661657D01*
X156171950Y-57661658D01*
X156152751Y-57699337D01*
X156114352Y-57774698D01*
X156114352Y-57774699D01*
X156094508Y-57899996D01*
X155760493Y-57899996D01*
X155763248Y-57453737D01*
X155783345Y-57386826D01*
X155799560Y-57366831D01*
X155828050Y-57338342D01*
X155885646Y-57225304D01*
X155885646Y-57225302D01*
X155885647Y-57225301D01*
X155885647Y-57225300D01*
X155905492Y-57100003D01*
X155905492Y-57099996D01*
X155885647Y-56974699D01*
X155885647Y-56974698D01*
X155885646Y-56974696D01*
X155828050Y-56861658D01*
X155803913Y-56837521D01*
X155770429Y-56776201D01*
X155767598Y-56749087D01*
X155793747Y-52512968D01*
X155813844Y-52446055D01*
X155866930Y-52400627D01*
X155936148Y-52391110D01*
X155999524Y-52420527D01*
X156028228Y-52457441D01*
X156069449Y-52538340D01*
X156069454Y-52538347D01*
X156159152Y-52628045D01*
X156159154Y-52628046D01*
X156159158Y-52628050D01*
X156272196Y-52685646D01*
X156272197Y-52685646D01*
X156272199Y-52685647D01*
X156397497Y-52705492D01*
X156397500Y-52705492D01*
X156397503Y-52705492D01*
X156522800Y-52685647D01*
X156522801Y-52685647D01*
X156522802Y-52685646D01*
X156522804Y-52685646D01*
X156635842Y-52628050D01*
X156725550Y-52538342D01*
X156783146Y-52425304D01*
X156783146Y-52425302D01*
X156783147Y-52425301D01*
X156783147Y-52425300D01*
X156802992Y-52300003D01*
X156802992Y-52299996D01*
X156783147Y-52174699D01*
X156783147Y-52174698D01*
X156783146Y-52174696D01*
X156725550Y-52061658D01*
X156725546Y-52061654D01*
X156725545Y-52061652D01*
X156635847Y-51971954D01*
X156635844Y-51971952D01*
X156635842Y-51971950D01*
X156522804Y-51914354D01*
X156522803Y-51914353D01*
X156522800Y-51914352D01*
X156397503Y-51894508D01*
X156397497Y-51894508D01*
X156272199Y-51914352D01*
X156272198Y-51914352D01*
X156196837Y-51952751D01*
X156159158Y-51971950D01*
X156159157Y-51971951D01*
X156159152Y-51971954D01*
X156069454Y-52061652D01*
X156069449Y-52061659D01*
X156030899Y-52137316D01*
X155982924Y-52188112D01*
X155915103Y-52204906D01*
X155848968Y-52182368D01*
X155805517Y-52127652D01*
X155796418Y-52080259D01*
X155799239Y-51623232D01*
X155819337Y-51556318D01*
X155872423Y-51510890D01*
X155923237Y-51500000D01*
X158675500Y-51500000D01*
X158742539Y-51519685D01*
G37*
%TD.AperFunction*%
%TD*%
%TA.AperFunction,Conductor*%
%TO.N,PHASE_C*%
G36*
X148292539Y-62519685D02*
G01*
X148338294Y-62572489D01*
X148349500Y-62624000D01*
X148349500Y-62924964D01*
X148329815Y-62992003D01*
X148277011Y-63037758D01*
X148207853Y-63047702D01*
X148169206Y-63035449D01*
X148127804Y-63014353D01*
X148127800Y-63014352D01*
X148002503Y-62994508D01*
X148002497Y-62994508D01*
X147877199Y-63014352D01*
X147877198Y-63014352D01*
X147831263Y-63037758D01*
X147764158Y-63071950D01*
X147764157Y-63071951D01*
X147764152Y-63071954D01*
X147674454Y-63161652D01*
X147674451Y-63161657D01*
X147674450Y-63161658D01*
X147655500Y-63198849D01*
X147616852Y-63274698D01*
X147616852Y-63274699D01*
X147597008Y-63399996D01*
X147597008Y-63400003D01*
X147616852Y-63525300D01*
X147616852Y-63525301D01*
X147616854Y-63525304D01*
X147674450Y-63638342D01*
X147674452Y-63638344D01*
X147674454Y-63638347D01*
X147764152Y-63728045D01*
X147764154Y-63728046D01*
X147764158Y-63728050D01*
X147877196Y-63785646D01*
X147877197Y-63785646D01*
X147877199Y-63785647D01*
X148002497Y-63805492D01*
X148002500Y-63805492D01*
X148002503Y-63805492D01*
X148127800Y-63785647D01*
X148127801Y-63785647D01*
X148127802Y-63785646D01*
X148127804Y-63785646D01*
X148240842Y-63728050D01*
X148300187Y-63668704D01*
X148361506Y-63635221D01*
X148431198Y-63640205D01*
X148475547Y-63668706D01*
X148869204Y-64062362D01*
X148869206Y-64062364D01*
X148961275Y-64100500D01*
X149060930Y-64100500D01*
X149694877Y-64100500D01*
X149761916Y-64120185D01*
X149782558Y-64136819D01*
X151500000Y-65854260D01*
X151500000Y-67602393D01*
X151472964Y-67607772D01*
X151407502Y-67632188D01*
X151384530Y-67642395D01*
X151384527Y-67642397D01*
X151314807Y-67701575D01*
X151314799Y-67701583D01*
X151306097Y-67713208D01*
X151250162Y-67755078D01*
X151180471Y-67760060D01*
X151159380Y-67753456D01*
X151149831Y-67749501D01*
X151149829Y-67749500D01*
X151149828Y-67749500D01*
X151149826Y-67749500D01*
X147655123Y-67749500D01*
X147588084Y-67729815D01*
X147567442Y-67713181D01*
X147086819Y-67232558D01*
X147053334Y-67171235D01*
X147050500Y-67144877D01*
X147050500Y-62624000D01*
X147070185Y-62556961D01*
X147122989Y-62511206D01*
X147174500Y-62500000D01*
X148225500Y-62500000D01*
X148292539Y-62519685D01*
G37*
%TD.AperFunction*%
%TD*%
%TA.AperFunction,Conductor*%
%TO.N,+6V*%
G36*
X146221062Y-67819685D02*
G01*
X146241701Y-67836317D01*
X146714055Y-68308671D01*
X147158030Y-68752646D01*
X147191515Y-68813969D01*
X147192822Y-68820929D01*
X147209352Y-68925301D01*
X147209354Y-68925304D01*
X147266950Y-69038342D01*
X147266952Y-69038344D01*
X147266954Y-69038347D01*
X147356652Y-69128045D01*
X147356654Y-69128046D01*
X147356658Y-69128050D01*
X147469696Y-69185646D01*
X147469697Y-69185646D01*
X147469699Y-69185647D01*
X147594997Y-69205492D01*
X147595000Y-69205492D01*
X147595003Y-69205492D01*
X147720300Y-69185647D01*
X147720301Y-69185647D01*
X147720302Y-69185646D01*
X147720304Y-69185646D01*
X147833342Y-69128050D01*
X147923050Y-69038342D01*
X147980646Y-68925304D01*
X147980646Y-68925302D01*
X147980647Y-68925301D01*
X147980647Y-68925300D01*
X148000492Y-68800003D01*
X148000492Y-68799996D01*
X147980647Y-68674699D01*
X147980647Y-68674698D01*
X147976950Y-68667442D01*
X147923050Y-68561658D01*
X147923046Y-68561654D01*
X147923045Y-68561652D01*
X147826442Y-68465049D01*
X147828314Y-68463176D01*
X147794627Y-68419496D01*
X147788643Y-68349883D01*
X147821245Y-68288085D01*
X147882082Y-68253724D01*
X147910175Y-68250500D01*
X150944877Y-68250500D01*
X151011916Y-68270185D01*
X151032558Y-68286819D01*
X151413181Y-68667442D01*
X151446666Y-68728765D01*
X151449500Y-68755123D01*
X151449500Y-69684879D01*
X151429815Y-69751918D01*
X151377011Y-69797673D01*
X151307853Y-69807617D01*
X151306103Y-69807353D01*
X151273384Y-69802171D01*
X151225000Y-69794508D01*
X151224998Y-69794508D01*
X151224997Y-69794508D01*
X151099699Y-69814352D01*
X151099698Y-69814352D01*
X151024337Y-69852751D01*
X150986658Y-69871950D01*
X150986657Y-69871951D01*
X150986652Y-69871954D01*
X150896954Y-69961652D01*
X150896951Y-69961657D01*
X150896950Y-69961658D01*
X150884727Y-69985647D01*
X150839352Y-70074698D01*
X150839352Y-70074699D01*
X150819508Y-70199996D01*
X150819508Y-70200003D01*
X150839352Y-70325300D01*
X150839352Y-70325301D01*
X150839354Y-70325304D01*
X150896950Y-70438342D01*
X150896952Y-70438344D01*
X150896954Y-70438347D01*
X150986652Y-70528045D01*
X150986654Y-70528046D01*
X150986658Y-70528050D01*
X151099696Y-70585646D01*
X151099697Y-70585646D01*
X151099699Y-70585647D01*
X151224997Y-70605492D01*
X151225000Y-70605492D01*
X151225002Y-70605492D01*
X151306102Y-70592647D01*
X151375396Y-70601602D01*
X151428847Y-70646598D01*
X151449487Y-70713349D01*
X151449500Y-70715120D01*
X151449500Y-72249829D01*
X151487636Y-72341897D01*
X152286637Y-73140898D01*
X152320122Y-73202221D01*
X152316889Y-73266891D01*
X152314353Y-73274695D01*
X152294508Y-73399997D01*
X152294508Y-73400003D01*
X152314352Y-73525300D01*
X152314352Y-73525301D01*
X152314354Y-73525304D01*
X152371950Y-73638342D01*
X152371952Y-73638344D01*
X152371954Y-73638347D01*
X152468558Y-73734951D01*
X152466685Y-73736823D01*
X152500373Y-73780504D01*
X152506357Y-73850117D01*
X152473755Y-73911915D01*
X152412918Y-73946276D01*
X152384825Y-73949500D01*
X152264270Y-73949500D01*
X152264262Y-73949499D01*
X152249828Y-73949499D01*
X152150173Y-73949499D01*
X152150172Y-73949499D01*
X152123206Y-73960669D01*
X152096240Y-73971839D01*
X152058103Y-73987636D01*
X152058101Y-73987637D01*
X151987636Y-74058103D01*
X151987634Y-74058103D01*
X151987635Y-74058104D01*
X151840665Y-74205072D01*
X151840661Y-74205078D01*
X151787636Y-74258103D01*
X151749500Y-74350170D01*
X151749500Y-74832745D01*
X151729815Y-74899784D01*
X151713181Y-74920426D01*
X151671954Y-74961652D01*
X151671951Y-74961657D01*
X151671950Y-74961658D01*
X151658883Y-74987303D01*
X151614352Y-75074698D01*
X151614352Y-75074699D01*
X151594508Y-75199996D01*
X151594508Y-75200003D01*
X151614352Y-75325300D01*
X151614352Y-75325301D01*
X151614354Y-75325304D01*
X151671950Y-75438342D01*
X151671952Y-75438344D01*
X151671954Y-75438347D01*
X151761652Y-75528045D01*
X151761654Y-75528046D01*
X151761658Y-75528050D01*
X151874696Y-75585646D01*
X151874697Y-75585646D01*
X151874699Y-75585647D01*
X152009638Y-75607019D01*
X152009035Y-75610821D01*
X152057924Y-75625177D01*
X152103679Y-75677981D01*
X152113623Y-75747139D01*
X152084598Y-75810695D01*
X152078566Y-75817173D01*
X150032558Y-77863181D01*
X149971235Y-77896666D01*
X149956405Y-77898260D01*
X149950170Y-77899500D01*
X149858102Y-77937636D01*
X149787636Y-78008102D01*
X149749500Y-78100170D01*
X149747118Y-78112149D01*
X149744576Y-78111643D01*
X149729815Y-78161916D01*
X149713181Y-78182558D01*
X149532558Y-78363181D01*
X149471235Y-78396666D01*
X149444877Y-78399500D01*
X146514270Y-78399500D01*
X146514262Y-78399499D01*
X146499828Y-78399499D01*
X146400172Y-78399499D01*
X146400170Y-78399499D01*
X146400168Y-78399500D01*
X146335072Y-78426463D01*
X146335069Y-78426465D01*
X146308103Y-78437636D01*
X146308099Y-78437639D01*
X146245739Y-78500000D01*
X146237636Y-78508103D01*
X146237635Y-78508104D01*
X146015465Y-78730274D01*
X145790662Y-78955076D01*
X145790661Y-78955076D01*
X145790662Y-78955077D01*
X145737636Y-79008103D01*
X145699500Y-79100170D01*
X145699500Y-79315228D01*
X145679815Y-79382267D01*
X145627011Y-79428022D01*
X145557853Y-79437966D01*
X145494297Y-79408941D01*
X145473450Y-79385668D01*
X145393296Y-79269546D01*
X145390483Y-79265470D01*
X145272240Y-79160717D01*
X145272238Y-79160716D01*
X145272237Y-79160715D01*
X145132365Y-79087303D01*
X144978986Y-79049500D01*
X144978985Y-79049500D01*
X144821015Y-79049500D01*
X144821014Y-79049500D01*
X144667634Y-79087303D01*
X144527762Y-79160715D01*
X144409516Y-79265471D01*
X144319781Y-79395475D01*
X144319780Y-79395476D01*
X144263762Y-79543181D01*
X144244722Y-79699999D01*
X144244722Y-79700000D01*
X144263762Y-79856818D01*
X144311532Y-79982774D01*
X144319780Y-80004523D01*
X144409517Y-80134530D01*
X144527760Y-80239283D01*
X144527762Y-80239284D01*
X144667634Y-80312696D01*
X144821014Y-80350500D01*
X144821015Y-80350500D01*
X144978985Y-80350500D01*
X145132365Y-80312696D01*
X145209997Y-80271951D01*
X145272240Y-80239283D01*
X145390483Y-80134530D01*
X145473450Y-80014330D01*
X145527733Y-79970341D01*
X145597181Y-79962681D01*
X145659746Y-79993784D01*
X145695564Y-80053775D01*
X145699500Y-80084771D01*
X145699500Y-80691214D01*
X145679815Y-80758253D01*
X145627011Y-80804008D01*
X145557853Y-80813952D01*
X145556103Y-80813688D01*
X145486886Y-80802725D01*
X145435000Y-80794508D01*
X145434998Y-80794508D01*
X145434997Y-80794508D01*
X145309699Y-80814352D01*
X145309698Y-80814352D01*
X145262607Y-80838347D01*
X145196658Y-80871950D01*
X145196657Y-80871951D01*
X145196652Y-80871954D01*
X145106954Y-80961652D01*
X145106951Y-80961657D01*
X145106950Y-80961658D01*
X145094727Y-80985647D01*
X145049352Y-81074698D01*
X145049352Y-81074699D01*
X145029508Y-81199996D01*
X145029508Y-81200003D01*
X145049352Y-81325300D01*
X145049352Y-81325301D01*
X145049354Y-81325304D01*
X145106950Y-81438342D01*
X145106952Y-81438344D01*
X145106954Y-81438347D01*
X145196652Y-81528045D01*
X145196654Y-81528046D01*
X145196658Y-81528050D01*
X145309696Y-81585646D01*
X145309697Y-81585646D01*
X145309699Y-81585647D01*
X145434997Y-81605492D01*
X145435000Y-81605492D01*
X145435003Y-81605492D01*
X145560300Y-81585647D01*
X145560301Y-81585647D01*
X145560302Y-81585646D01*
X145560304Y-81585646D01*
X145673342Y-81528050D01*
X145763050Y-81438342D01*
X145781643Y-81401850D01*
X145829613Y-81351057D01*
X145897433Y-81334260D01*
X145963569Y-81356796D01*
X145979807Y-81370465D01*
X146080355Y-81471013D01*
X146103158Y-81502398D01*
X146146950Y-81588343D01*
X146236652Y-81678045D01*
X146236654Y-81678046D01*
X146236658Y-81678050D01*
X146349696Y-81735646D01*
X146349697Y-81735646D01*
X146349699Y-81735647D01*
X146474997Y-81755492D01*
X146475000Y-81755492D01*
X146475003Y-81755492D01*
X146600300Y-81735647D01*
X146600301Y-81735647D01*
X146600302Y-81735646D01*
X146600304Y-81735646D01*
X146713342Y-81678050D01*
X146736097Y-81655295D01*
X146766832Y-81624561D01*
X146828155Y-81591076D01*
X146897847Y-81596060D01*
X146953780Y-81637932D01*
X146978197Y-81703396D01*
X146978513Y-81712242D01*
X146978513Y-83028842D01*
X147016649Y-83120910D01*
X147742809Y-83847070D01*
X147776294Y-83908393D01*
X147779085Y-83934353D01*
X147798972Y-84059920D01*
X147798972Y-84059921D01*
X147817425Y-84096137D01*
X147856570Y-84172962D01*
X147856572Y-84172964D01*
X147856574Y-84172967D01*
X147946272Y-84262665D01*
X147946274Y-84262666D01*
X147946278Y-84262670D01*
X148059316Y-84320266D01*
X148059317Y-84320266D01*
X148059319Y-84320267D01*
X148184617Y-84340112D01*
X148184620Y-84340112D01*
X148184623Y-84340112D01*
X148309920Y-84320267D01*
X148309921Y-84320267D01*
X148309922Y-84320266D01*
X148309924Y-84320266D01*
X148422962Y-84262670D01*
X148512670Y-84172962D01*
X148570266Y-84059924D01*
X148570266Y-84059922D01*
X148570267Y-84059921D01*
X148570267Y-84059920D01*
X148590112Y-83934623D01*
X148590112Y-83934616D01*
X148570267Y-83809319D01*
X148570267Y-83809318D01*
X148547925Y-83765470D01*
X148512670Y-83696278D01*
X148512666Y-83696274D01*
X148512665Y-83696272D01*
X148422967Y-83606574D01*
X148422964Y-83606572D01*
X148422962Y-83606570D01*
X148309924Y-83548974D01*
X148309923Y-83548973D01*
X148309920Y-83548972D01*
X148174982Y-83527601D01*
X148175185Y-83526319D01*
X148117712Y-83509443D01*
X148097070Y-83492809D01*
X147515832Y-82911571D01*
X147482347Y-82850248D01*
X147479513Y-82823890D01*
X147479513Y-82444865D01*
X147499198Y-82377826D01*
X147552002Y-82332071D01*
X147621160Y-82322127D01*
X147661134Y-82335066D01*
X147696648Y-82353706D01*
X147696650Y-82353706D01*
X147696651Y-82353707D01*
X147850027Y-82391510D01*
X147850028Y-82391510D01*
X148007998Y-82391510D01*
X148161378Y-82353706D01*
X148301253Y-82280293D01*
X148419496Y-82175540D01*
X148509233Y-82045533D01*
X148565250Y-81897828D01*
X148584291Y-81741010D01*
X148573884Y-81655295D01*
X148565250Y-81584191D01*
X148542800Y-81524996D01*
X152144508Y-81524996D01*
X152144508Y-81525003D01*
X152164352Y-81650300D01*
X152164352Y-81650301D01*
X152164354Y-81650304D01*
X152221950Y-81763342D01*
X152221952Y-81763344D01*
X152221954Y-81763347D01*
X152311652Y-81853045D01*
X152311654Y-81853046D01*
X152311658Y-81853050D01*
X152424696Y-81910646D01*
X152424697Y-81910646D01*
X152424699Y-81910647D01*
X152549997Y-81930492D01*
X152550000Y-81930492D01*
X152550003Y-81930492D01*
X152675300Y-81910647D01*
X152675301Y-81910647D01*
X152675302Y-81910646D01*
X152675304Y-81910646D01*
X152788342Y-81853050D01*
X152878050Y-81763342D01*
X152935646Y-81650304D01*
X152935646Y-81650302D01*
X152935647Y-81650301D01*
X152935647Y-81650300D01*
X152955492Y-81525003D01*
X152955492Y-81524996D01*
X152935647Y-81399699D01*
X152935647Y-81399698D01*
X152913787Y-81356796D01*
X152878050Y-81286658D01*
X152878046Y-81286654D01*
X152878045Y-81286652D01*
X152788347Y-81196954D01*
X152788344Y-81196952D01*
X152788342Y-81196950D01*
X152675304Y-81139354D01*
X152675303Y-81139353D01*
X152675300Y-81139352D01*
X152550003Y-81119508D01*
X152549997Y-81119508D01*
X152424699Y-81139352D01*
X152424698Y-81139352D01*
X152382849Y-81160676D01*
X152311658Y-81196950D01*
X152311657Y-81196951D01*
X152311652Y-81196954D01*
X152221954Y-81286652D01*
X152221951Y-81286657D01*
X152164352Y-81399698D01*
X152164352Y-81399699D01*
X152144508Y-81524996D01*
X148542800Y-81524996D01*
X148535036Y-81504524D01*
X148509233Y-81436487D01*
X148419496Y-81306480D01*
X148301253Y-81201727D01*
X148301251Y-81201726D01*
X148301250Y-81201725D01*
X148161378Y-81128313D01*
X148007999Y-81090510D01*
X148007998Y-81090510D01*
X147850028Y-81090510D01*
X147850027Y-81090510D01*
X147696650Y-81128313D01*
X147696648Y-81128313D01*
X147696648Y-81128314D01*
X147675614Y-81139354D01*
X147661139Y-81146951D01*
X147592630Y-81160676D01*
X147527577Y-81135183D01*
X147486633Y-81078567D01*
X147479513Y-81037154D01*
X147479513Y-80599996D01*
X152794508Y-80599996D01*
X152794508Y-80600003D01*
X152814352Y-80725300D01*
X152814352Y-80725301D01*
X152814354Y-80725304D01*
X152871950Y-80838342D01*
X152871952Y-80838344D01*
X152871954Y-80838347D01*
X152961652Y-80928045D01*
X152961654Y-80928046D01*
X152961658Y-80928050D01*
X153074696Y-80985646D01*
X153074697Y-80985646D01*
X153074699Y-80985647D01*
X153199997Y-81005492D01*
X153200000Y-81005492D01*
X153200003Y-81005492D01*
X153325300Y-80985647D01*
X153325301Y-80985647D01*
X153325302Y-80985646D01*
X153325304Y-80985646D01*
X153438342Y-80928050D01*
X153528050Y-80838342D01*
X153585646Y-80725304D01*
X153585646Y-80725302D01*
X153585647Y-80725301D01*
X153585647Y-80725300D01*
X153589424Y-80701455D01*
X153619353Y-80638320D01*
X153678664Y-80601388D01*
X153693629Y-80601601D01*
X153630694Y-80572860D01*
X153592920Y-80514082D01*
X153589424Y-80498545D01*
X153585647Y-80474698D01*
X153583621Y-80470722D01*
X153528050Y-80361658D01*
X153528046Y-80361654D01*
X153528045Y-80361652D01*
X153438347Y-80271954D01*
X153438344Y-80271952D01*
X153438342Y-80271950D01*
X153325304Y-80214354D01*
X153325303Y-80214353D01*
X153325300Y-80214352D01*
X153200003Y-80194508D01*
X153199997Y-80194508D01*
X153074699Y-80214352D01*
X153074698Y-80214352D01*
X153025770Y-80239283D01*
X152961658Y-80271950D01*
X152961657Y-80271951D01*
X152961652Y-80271954D01*
X152871954Y-80361652D01*
X152871951Y-80361657D01*
X152814352Y-80474698D01*
X152814352Y-80474699D01*
X152794508Y-80599996D01*
X147479513Y-80599996D01*
X147479513Y-79829186D01*
X147479512Y-79829183D01*
X147470595Y-79807656D01*
X147441377Y-79737116D01*
X147370910Y-79666649D01*
X147091811Y-79387550D01*
X147058326Y-79326227D01*
X147055534Y-79300266D01*
X147035647Y-79174699D01*
X147035645Y-79174693D01*
X146987801Y-79080795D01*
X146974904Y-79012126D01*
X147001180Y-78947386D01*
X147058286Y-78907128D01*
X147098285Y-78900500D01*
X149649826Y-78900500D01*
X149649828Y-78900500D01*
X149741897Y-78862364D01*
X149799738Y-78804523D01*
X149812364Y-78791897D01*
X149812364Y-78791896D01*
X153574455Y-75029803D01*
X153574458Y-75029802D01*
X153591896Y-75012364D01*
X153591897Y-75012364D01*
X153624216Y-74980045D01*
X153685539Y-74946560D01*
X153755231Y-74951544D01*
X153811164Y-74993416D01*
X153835581Y-75058880D01*
X153835897Y-75067726D01*
X153835897Y-80479147D01*
X153816212Y-80546186D01*
X153763408Y-80591941D01*
X153695985Y-80601635D01*
X153748527Y-80602386D01*
X153806760Y-80640995D01*
X153834874Y-80704959D01*
X153835897Y-80720852D01*
X153835897Y-82008479D01*
X153816212Y-82075518D01*
X153799578Y-82096160D01*
X152637549Y-83258189D01*
X152576226Y-83291674D01*
X152550287Y-83294462D01*
X152421844Y-83314805D01*
X152352550Y-83305849D01*
X152299099Y-83260852D01*
X152278460Y-83194100D01*
X152291962Y-83136037D01*
X152335646Y-83050304D01*
X152335646Y-83050302D01*
X152335647Y-83050300D01*
X152355492Y-82925003D01*
X152355492Y-82924996D01*
X152335647Y-82799699D01*
X152335647Y-82799698D01*
X152335646Y-82799696D01*
X152278050Y-82686658D01*
X152278046Y-82686654D01*
X152278045Y-82686652D01*
X152188347Y-82596954D01*
X152188344Y-82596952D01*
X152188342Y-82596950D01*
X152075304Y-82539354D01*
X152075303Y-82539353D01*
X152075300Y-82539352D01*
X151950003Y-82519508D01*
X151949997Y-82519508D01*
X151824699Y-82539352D01*
X151824698Y-82539352D01*
X151749337Y-82577751D01*
X151711658Y-82596950D01*
X151711657Y-82596951D01*
X151711652Y-82596954D01*
X151621954Y-82686652D01*
X151621951Y-82686657D01*
X151564352Y-82799698D01*
X151564352Y-82799699D01*
X151544508Y-82924996D01*
X151544508Y-82925003D01*
X151564352Y-83050300D01*
X151564352Y-83050301D01*
X151571477Y-83064284D01*
X151621950Y-83163342D01*
X151621952Y-83163344D01*
X151621954Y-83163347D01*
X151711652Y-83253045D01*
X151711654Y-83253046D01*
X151711658Y-83253050D01*
X151824696Y-83310646D01*
X151824697Y-83310646D01*
X151824699Y-83310647D01*
X151949997Y-83330492D01*
X151950000Y-83330492D01*
X151950002Y-83330492D01*
X152078154Y-83310195D01*
X152147448Y-83319150D01*
X152200900Y-83364146D01*
X152221539Y-83430898D01*
X152208037Y-83488962D01*
X152164353Y-83574695D01*
X152164352Y-83574699D01*
X152144508Y-83699996D01*
X152144508Y-83700003D01*
X152164352Y-83825300D01*
X152164352Y-83825301D01*
X152164354Y-83825304D01*
X152221950Y-83938342D01*
X152221952Y-83938344D01*
X152221954Y-83938347D01*
X152311652Y-84028045D01*
X152311654Y-84028046D01*
X152311658Y-84028050D01*
X152424696Y-84085646D01*
X152424697Y-84085646D01*
X152424699Y-84085647D01*
X152549997Y-84105492D01*
X152550000Y-84105492D01*
X152550003Y-84105492D01*
X152675300Y-84085647D01*
X152675301Y-84085647D01*
X152675302Y-84085646D01*
X152675304Y-84085646D01*
X152788342Y-84028050D01*
X152878050Y-83938342D01*
X152935646Y-83825304D01*
X152935646Y-83825302D01*
X152935647Y-83825301D01*
X152935647Y-83825300D01*
X152957019Y-83690362D01*
X152958300Y-83690564D01*
X152975177Y-83633091D01*
X152991811Y-83612449D01*
X153604260Y-83000000D01*
X154241141Y-82363119D01*
X154302462Y-82329636D01*
X154372154Y-82334620D01*
X154428087Y-82376492D01*
X154452504Y-82441956D01*
X154451916Y-82465748D01*
X154444722Y-82524999D01*
X154444722Y-82525000D01*
X154463762Y-82681818D01*
X154495488Y-82765470D01*
X154519780Y-82829523D01*
X154609517Y-82959530D01*
X154727760Y-83064283D01*
X154727762Y-83064284D01*
X154867634Y-83137696D01*
X155021014Y-83175500D01*
X155021015Y-83175500D01*
X155178985Y-83175500D01*
X155332365Y-83137696D01*
X155365820Y-83120137D01*
X155434324Y-83106411D01*
X155499378Y-83131901D01*
X155540324Y-83188516D01*
X155546541Y-83214986D01*
X155563763Y-83356819D01*
X155619780Y-83504523D01*
X155619780Y-83504524D01*
X155641598Y-83536132D01*
X155678050Y-83588942D01*
X155699933Y-83655295D01*
X155700000Y-83659381D01*
X155700000Y-83740617D01*
X155680315Y-83807656D01*
X155678050Y-83811056D01*
X155619783Y-83895470D01*
X155619780Y-83895476D01*
X155563762Y-84043181D01*
X155544722Y-84199999D01*
X155544722Y-84200000D01*
X155563762Y-84356818D01*
X155619780Y-84504523D01*
X155619780Y-84504524D01*
X155648900Y-84546712D01*
X155678050Y-84588942D01*
X155699933Y-84655295D01*
X155700000Y-84659381D01*
X155700000Y-84740617D01*
X155680315Y-84807656D01*
X155678050Y-84811056D01*
X155619783Y-84895470D01*
X155619780Y-84895476D01*
X155563762Y-85043181D01*
X155544722Y-85199999D01*
X155544722Y-85200000D01*
X155563762Y-85356818D01*
X155619780Y-85504523D01*
X155619780Y-85504524D01*
X155648900Y-85546712D01*
X155678050Y-85588942D01*
X155699933Y-85655295D01*
X155700000Y-85659381D01*
X155700000Y-85740617D01*
X155680315Y-85807656D01*
X155678050Y-85811056D01*
X155619783Y-85895470D01*
X155619780Y-85895476D01*
X155563762Y-86043181D01*
X155544722Y-86199999D01*
X155544722Y-86200000D01*
X155563762Y-86356818D01*
X155619780Y-86504523D01*
X155619780Y-86504524D01*
X155648900Y-86546712D01*
X155678050Y-86588942D01*
X155699933Y-86655295D01*
X155700000Y-86659381D01*
X155700000Y-86740617D01*
X155680315Y-86807656D01*
X155678050Y-86811056D01*
X155619783Y-86895470D01*
X155619780Y-86895476D01*
X155563762Y-87043181D01*
X155544722Y-87199999D01*
X155544722Y-87200000D01*
X155563762Y-87356818D01*
X155619780Y-87504523D01*
X155619780Y-87504524D01*
X155646464Y-87543181D01*
X155678050Y-87588942D01*
X155699933Y-87655295D01*
X155700000Y-87659381D01*
X155700000Y-87740617D01*
X155680315Y-87807656D01*
X155678050Y-87811056D01*
X155619783Y-87895470D01*
X155619780Y-87895476D01*
X155563762Y-88043181D01*
X155544722Y-88199999D01*
X155544722Y-88200000D01*
X155563762Y-88356818D01*
X155619780Y-88504523D01*
X155619780Y-88504524D01*
X155648900Y-88546712D01*
X155678050Y-88588942D01*
X155699933Y-88655295D01*
X155700000Y-88659381D01*
X155700000Y-89675500D01*
X155680315Y-89742539D01*
X155627511Y-89788294D01*
X155576000Y-89799500D01*
X146866255Y-89799500D01*
X146799216Y-89779815D01*
X146753461Y-89727011D01*
X146743517Y-89657853D01*
X146772542Y-89594297D01*
X146778574Y-89587819D01*
X146828045Y-89538347D01*
X146828050Y-89538342D01*
X146885646Y-89425304D01*
X146885646Y-89425302D01*
X146885647Y-89425301D01*
X146885647Y-89425300D01*
X146905492Y-89300003D01*
X146905492Y-89299996D01*
X146885647Y-89174699D01*
X146885647Y-89174698D01*
X146873317Y-89150500D01*
X146828050Y-89061658D01*
X146828046Y-89061654D01*
X146828045Y-89061652D01*
X146738347Y-88971954D01*
X146738344Y-88971952D01*
X146738342Y-88971950D01*
X146625304Y-88914354D01*
X146625303Y-88914353D01*
X146625300Y-88914352D01*
X146500003Y-88894508D01*
X146499997Y-88894508D01*
X146374699Y-88914352D01*
X146374698Y-88914352D01*
X146299337Y-88952751D01*
X146261658Y-88971950D01*
X146261657Y-88971951D01*
X146261652Y-88971954D01*
X146171954Y-89061652D01*
X146171951Y-89061657D01*
X146114352Y-89174698D01*
X146114352Y-89174699D01*
X146094508Y-89299996D01*
X146094508Y-89300003D01*
X146114352Y-89425300D01*
X146114352Y-89425301D01*
X146114354Y-89425304D01*
X146171950Y-89538342D01*
X146171952Y-89538344D01*
X146171954Y-89538347D01*
X146221426Y-89587819D01*
X146254911Y-89649142D01*
X146249927Y-89718834D01*
X146208055Y-89774767D01*
X146142591Y-89799184D01*
X146133745Y-89799500D01*
X143622540Y-89799500D01*
X143555501Y-89779815D01*
X143509746Y-89727011D01*
X143498541Y-89676059D01*
X143493244Y-88499999D01*
X150594722Y-88499999D01*
X150594722Y-88500000D01*
X150613762Y-88656818D01*
X150669780Y-88804523D01*
X150759517Y-88934530D01*
X150877760Y-89039283D01*
X150877762Y-89039284D01*
X151017634Y-89112696D01*
X151171014Y-89150500D01*
X151171015Y-89150500D01*
X151328985Y-89150500D01*
X151482365Y-89112696D01*
X151622240Y-89039283D01*
X151740483Y-88934530D01*
X151830220Y-88804523D01*
X151886237Y-88656818D01*
X151905278Y-88500000D01*
X151886237Y-88343182D01*
X151830220Y-88195477D01*
X151740483Y-88065470D01*
X151622240Y-87960717D01*
X151622238Y-87960716D01*
X151622237Y-87960715D01*
X151482365Y-87887303D01*
X151328986Y-87849500D01*
X151328985Y-87849500D01*
X151171015Y-87849500D01*
X151171014Y-87849500D01*
X151017634Y-87887303D01*
X150877762Y-87960715D01*
X150759516Y-88065471D01*
X150669781Y-88195475D01*
X150669780Y-88195476D01*
X150613762Y-88343181D01*
X150594722Y-88499999D01*
X143493244Y-88499999D01*
X143489640Y-87699999D01*
X145444722Y-87699999D01*
X145444722Y-87700000D01*
X145463762Y-87856818D01*
X145518065Y-88000000D01*
X145519780Y-88004523D01*
X145609517Y-88134530D01*
X145727760Y-88239283D01*
X145727762Y-88239284D01*
X145867634Y-88312696D01*
X146021014Y-88350500D01*
X146021015Y-88350500D01*
X146178985Y-88350500D01*
X146332365Y-88312696D01*
X146472240Y-88239283D01*
X146590483Y-88134530D01*
X146680220Y-88004523D01*
X146736237Y-87856818D01*
X146755278Y-87700000D01*
X146736237Y-87543182D01*
X146680220Y-87395477D01*
X146590483Y-87265470D01*
X146472240Y-87160717D01*
X146472238Y-87160716D01*
X146472237Y-87160715D01*
X146332365Y-87087303D01*
X146178986Y-87049500D01*
X146178985Y-87049500D01*
X146021015Y-87049500D01*
X146021014Y-87049500D01*
X145867634Y-87087303D01*
X145727762Y-87160715D01*
X145609516Y-87265471D01*
X145519781Y-87395475D01*
X145519780Y-87395476D01*
X145463762Y-87543181D01*
X145444722Y-87699999D01*
X143489640Y-87699999D01*
X143471059Y-83574996D01*
X145169508Y-83574996D01*
X145169508Y-83575003D01*
X145189352Y-83700300D01*
X145189352Y-83700301D01*
X145189354Y-83700304D01*
X145246950Y-83813342D01*
X145246952Y-83813344D01*
X145246954Y-83813347D01*
X145336652Y-83903045D01*
X145336654Y-83903046D01*
X145336658Y-83903050D01*
X145449696Y-83960646D01*
X145449697Y-83960646D01*
X145449699Y-83960647D01*
X145574997Y-83980492D01*
X145575000Y-83980492D01*
X145575003Y-83980492D01*
X145700300Y-83960647D01*
X145700301Y-83960647D01*
X145700302Y-83960646D01*
X145700304Y-83960646D01*
X145813342Y-83903050D01*
X145903050Y-83813342D01*
X145960646Y-83700304D01*
X145960646Y-83700302D01*
X145960647Y-83700301D01*
X145960647Y-83700300D01*
X145980492Y-83575003D01*
X145980492Y-83574996D01*
X145960647Y-83449699D01*
X145960647Y-83449698D01*
X145951068Y-83430898D01*
X145903050Y-83336658D01*
X145903046Y-83336654D01*
X145903045Y-83336652D01*
X145813347Y-83246954D01*
X145813344Y-83246952D01*
X145813342Y-83246950D01*
X145700304Y-83189354D01*
X145700303Y-83189353D01*
X145700300Y-83189352D01*
X145575003Y-83169508D01*
X145574997Y-83169508D01*
X145449699Y-83189352D01*
X145449698Y-83189352D01*
X145374337Y-83227751D01*
X145336658Y-83246950D01*
X145336657Y-83246951D01*
X145336652Y-83246954D01*
X145246954Y-83336652D01*
X145246951Y-83336657D01*
X145246950Y-83336658D01*
X145232944Y-83364146D01*
X145189352Y-83449698D01*
X145189352Y-83449699D01*
X145169508Y-83574996D01*
X143471059Y-83574996D01*
X143466667Y-82599999D01*
X143844722Y-82599999D01*
X143844722Y-82600000D01*
X143863762Y-82756818D01*
X143899196Y-82850248D01*
X143919780Y-82904523D01*
X144009517Y-83034530D01*
X144127760Y-83139283D01*
X144127762Y-83139284D01*
X144267634Y-83212696D01*
X144421014Y-83250500D01*
X144421015Y-83250500D01*
X144578985Y-83250500D01*
X144732365Y-83212696D01*
X144756555Y-83200000D01*
X144872240Y-83139283D01*
X144990483Y-83034530D01*
X145080220Y-82904523D01*
X145136237Y-82756818D01*
X145155278Y-82600000D01*
X145146172Y-82525000D01*
X145136237Y-82443181D01*
X145105874Y-82363121D01*
X145080220Y-82295477D01*
X144990483Y-82165470D01*
X144872240Y-82060717D01*
X144872238Y-82060716D01*
X144872237Y-82060715D01*
X144732365Y-81987303D01*
X144578986Y-81949500D01*
X144578985Y-81949500D01*
X144421015Y-81949500D01*
X144421014Y-81949500D01*
X144267634Y-81987303D01*
X144127762Y-82060715D01*
X144009516Y-82165471D01*
X143919781Y-82295475D01*
X143919780Y-82295476D01*
X143863762Y-82443181D01*
X143844722Y-82599999D01*
X143466667Y-82599999D01*
X143462110Y-81588343D01*
X143439637Y-76599455D01*
X143459020Y-76532328D01*
X143511617Y-76486336D01*
X143580730Y-76476081D01*
X143644416Y-76504819D01*
X143665167Y-76531212D01*
X143666217Y-76530450D01*
X143671954Y-76538347D01*
X143761652Y-76628045D01*
X143761654Y-76628046D01*
X143761658Y-76628050D01*
X143874696Y-76685646D01*
X143874697Y-76685646D01*
X143874699Y-76685647D01*
X143999997Y-76705492D01*
X144000000Y-76705492D01*
X144000003Y-76705492D01*
X144125300Y-76685647D01*
X144125301Y-76685647D01*
X144125302Y-76685646D01*
X144125304Y-76685646D01*
X144238342Y-76628050D01*
X144328050Y-76538342D01*
X144385646Y-76425304D01*
X144385646Y-76425302D01*
X144385647Y-76425301D01*
X144385647Y-76425300D01*
X144405492Y-76300003D01*
X144405492Y-76300001D01*
X144405290Y-76298726D01*
X144405492Y-76297162D01*
X144405492Y-76290241D01*
X144406386Y-76290241D01*
X144414244Y-76229433D01*
X144459239Y-76175980D01*
X144525990Y-76155339D01*
X144585389Y-76169530D01*
X144667634Y-76212696D01*
X144821014Y-76250500D01*
X144821015Y-76250500D01*
X144978985Y-76250500D01*
X145132365Y-76212696D01*
X145156557Y-76199999D01*
X145272240Y-76139283D01*
X145390483Y-76034530D01*
X145480220Y-75904523D01*
X145519862Y-75799996D01*
X150092008Y-75799996D01*
X150092008Y-75800003D01*
X150111852Y-75925300D01*
X150111852Y-75925301D01*
X150111854Y-75925304D01*
X150169450Y-76038342D01*
X150169452Y-76038344D01*
X150169454Y-76038347D01*
X150259152Y-76128045D01*
X150259154Y-76128046D01*
X150259158Y-76128050D01*
X150372196Y-76185646D01*
X150372197Y-76185646D01*
X150372199Y-76185647D01*
X150497497Y-76205492D01*
X150497500Y-76205492D01*
X150497503Y-76205492D01*
X150622800Y-76185647D01*
X150622801Y-76185647D01*
X150622802Y-76185646D01*
X150622804Y-76185646D01*
X150735842Y-76128050D01*
X150825550Y-76038342D01*
X150883146Y-75925304D01*
X150883146Y-75925302D01*
X150883147Y-75925301D01*
X150883147Y-75925300D01*
X150902992Y-75800003D01*
X150902992Y-75799996D01*
X150883147Y-75674699D01*
X150883147Y-75674698D01*
X150883146Y-75674696D01*
X150825550Y-75561658D01*
X150825546Y-75561654D01*
X150825545Y-75561652D01*
X150735847Y-75471954D01*
X150735844Y-75471952D01*
X150735842Y-75471950D01*
X150622804Y-75414354D01*
X150622803Y-75414353D01*
X150622800Y-75414352D01*
X150497503Y-75394508D01*
X150497497Y-75394508D01*
X150372199Y-75414352D01*
X150372198Y-75414352D01*
X150325107Y-75438347D01*
X150259158Y-75471950D01*
X150259157Y-75471951D01*
X150259152Y-75471954D01*
X150169454Y-75561652D01*
X150169451Y-75561657D01*
X150169450Y-75561658D01*
X150157227Y-75585647D01*
X150111852Y-75674698D01*
X150111852Y-75674699D01*
X150092008Y-75799996D01*
X145519862Y-75799996D01*
X145536237Y-75756818D01*
X145555278Y-75600000D01*
X145550623Y-75561658D01*
X145536237Y-75443181D01*
X145514992Y-75387164D01*
X145480220Y-75295477D01*
X145390483Y-75165470D01*
X145272240Y-75060717D01*
X145272238Y-75060716D01*
X145272237Y-75060715D01*
X145132365Y-74987303D01*
X144978986Y-74949500D01*
X144978985Y-74949500D01*
X144821015Y-74949500D01*
X144821014Y-74949500D01*
X144667634Y-74987303D01*
X144527762Y-75060715D01*
X144409516Y-75165471D01*
X144319781Y-75295475D01*
X144319780Y-75295476D01*
X144263762Y-75443181D01*
X144244722Y-75599999D01*
X144244722Y-75600000D01*
X144263763Y-75756821D01*
X144265091Y-75762209D01*
X144262019Y-75832012D01*
X144221697Y-75889072D01*
X144156926Y-75915274D01*
X144125296Y-75914352D01*
X144000003Y-75894508D01*
X143999997Y-75894508D01*
X143874699Y-75914352D01*
X143874698Y-75914352D01*
X143799337Y-75952751D01*
X143761658Y-75971950D01*
X143761657Y-75971951D01*
X143761652Y-75971954D01*
X143671954Y-76061652D01*
X143671948Y-76061660D01*
X143671450Y-76062639D01*
X143670530Y-76063612D01*
X143666217Y-76069550D01*
X143665449Y-76068992D01*
X143623474Y-76113434D01*
X143555653Y-76130227D01*
X143489519Y-76107688D01*
X143446069Y-76052971D01*
X143436968Y-76006900D01*
X143432769Y-75074698D01*
X143422973Y-72899999D01*
X143882222Y-72899999D01*
X143882222Y-72900000D01*
X143901262Y-73056818D01*
X143933150Y-73140898D01*
X143957280Y-73204523D01*
X144047017Y-73334530D01*
X144165260Y-73439283D01*
X144165262Y-73439284D01*
X144305134Y-73512696D01*
X144458514Y-73550500D01*
X144458515Y-73550500D01*
X144616485Y-73550500D01*
X144769865Y-73512696D01*
X144821402Y-73485647D01*
X144909740Y-73439283D01*
X145027983Y-73334530D01*
X145117720Y-73204523D01*
X145173737Y-73056818D01*
X145192778Y-72900000D01*
X145188123Y-72861658D01*
X145173737Y-72743181D01*
X145147184Y-72673167D01*
X145117720Y-72595477D01*
X145027983Y-72465470D01*
X144909740Y-72360717D01*
X144909737Y-72360714D01*
X144764135Y-72284296D01*
X144713922Y-72235711D01*
X144697948Y-72167692D01*
X144721283Y-72101835D01*
X144776520Y-72059048D01*
X144821761Y-72050500D01*
X144916485Y-72050500D01*
X145069865Y-72012696D01*
X145094055Y-72000000D01*
X145209740Y-71939283D01*
X145327983Y-71834530D01*
X145417720Y-71704523D01*
X145473737Y-71556818D01*
X145492778Y-71400000D01*
X145485292Y-71338342D01*
X145473737Y-71243181D01*
X145433783Y-71137832D01*
X145417720Y-71095477D01*
X145351814Y-70999996D01*
X147184508Y-70999996D01*
X147184508Y-71000003D01*
X147204352Y-71125300D01*
X147204352Y-71125301D01*
X147204354Y-71125304D01*
X147261950Y-71238342D01*
X147261952Y-71238344D01*
X147261954Y-71238347D01*
X147351652Y-71328045D01*
X147351654Y-71328046D01*
X147351658Y-71328050D01*
X147464696Y-71385646D01*
X147464697Y-71385646D01*
X147464699Y-71385647D01*
X147589997Y-71405492D01*
X147590000Y-71405492D01*
X147590003Y-71405492D01*
X147715300Y-71385647D01*
X147715301Y-71385647D01*
X147715302Y-71385646D01*
X147715304Y-71385646D01*
X147828342Y-71328050D01*
X147918050Y-71238342D01*
X147975646Y-71125304D01*
X147975646Y-71125302D01*
X147975647Y-71125301D01*
X147975647Y-71125300D01*
X147995492Y-71000003D01*
X147995492Y-70999996D01*
X147975647Y-70874699D01*
X147975647Y-70874698D01*
X147968522Y-70860715D01*
X147918050Y-70761658D01*
X147918046Y-70761654D01*
X147918045Y-70761652D01*
X147828347Y-70671954D01*
X147828344Y-70671952D01*
X147828342Y-70671950D01*
X147715304Y-70614354D01*
X147715303Y-70614353D01*
X147715300Y-70614352D01*
X147590003Y-70594508D01*
X147589997Y-70594508D01*
X147464699Y-70614352D01*
X147464698Y-70614352D01*
X147401414Y-70646598D01*
X147351658Y-70671950D01*
X147351657Y-70671951D01*
X147351652Y-70671954D01*
X147261954Y-70761652D01*
X147261951Y-70761657D01*
X147261950Y-70761658D01*
X147260008Y-70765470D01*
X147204352Y-70874698D01*
X147204352Y-70874699D01*
X147184508Y-70999996D01*
X145351814Y-70999996D01*
X145327983Y-70965470D01*
X145209740Y-70860717D01*
X145209738Y-70860716D01*
X145209737Y-70860715D01*
X145069865Y-70787303D01*
X144916486Y-70749500D01*
X144916485Y-70749500D01*
X144758515Y-70749500D01*
X144758514Y-70749500D01*
X144605134Y-70787303D01*
X144465262Y-70860715D01*
X144347016Y-70965471D01*
X144257281Y-71095475D01*
X144257280Y-71095476D01*
X144201262Y-71243181D01*
X144182222Y-71399999D01*
X144182222Y-71400000D01*
X144201262Y-71556818D01*
X144255565Y-71700000D01*
X144257280Y-71704523D01*
X144347017Y-71834530D01*
X144392356Y-71874696D01*
X144465262Y-71939285D01*
X144610865Y-72015704D01*
X144661078Y-72064289D01*
X144677052Y-72132308D01*
X144653717Y-72198165D01*
X144598480Y-72240952D01*
X144553239Y-72249500D01*
X144458514Y-72249500D01*
X144305134Y-72287303D01*
X144165262Y-72360715D01*
X144047016Y-72465471D01*
X143957281Y-72595475D01*
X143957280Y-72595476D01*
X143901262Y-72743181D01*
X143882222Y-72899999D01*
X143422973Y-72899999D01*
X143406959Y-69344999D01*
X144182222Y-69344999D01*
X144182222Y-69345000D01*
X144201262Y-69501818D01*
X144221725Y-69555773D01*
X144257280Y-69649523D01*
X144347017Y-69779530D01*
X144465260Y-69884283D01*
X144465262Y-69884284D01*
X144605134Y-69957696D01*
X144758514Y-69995500D01*
X144758515Y-69995500D01*
X144916485Y-69995500D01*
X145069865Y-69957696D01*
X145079334Y-69952726D01*
X145209740Y-69884283D01*
X145327983Y-69779530D01*
X145417720Y-69649523D01*
X145473737Y-69501818D01*
X145492778Y-69345000D01*
X145473737Y-69188182D01*
X145472775Y-69185646D01*
X145450930Y-69128045D01*
X145417720Y-69040477D01*
X145327983Y-68910470D01*
X145209740Y-68805717D01*
X145209738Y-68805716D01*
X145209737Y-68805715D01*
X145069865Y-68732303D01*
X144916486Y-68694500D01*
X144916485Y-68694500D01*
X144758515Y-68694500D01*
X144758514Y-68694500D01*
X144605134Y-68732303D01*
X144465262Y-68805715D01*
X144465260Y-68805717D01*
X144357356Y-68901311D01*
X144347016Y-68910471D01*
X144257281Y-69040475D01*
X144257280Y-69040476D01*
X144201262Y-69188181D01*
X144182222Y-69344999D01*
X143406959Y-69344999D01*
X143400561Y-67924558D01*
X143419944Y-67857431D01*
X143472541Y-67811439D01*
X143524560Y-67800000D01*
X146154023Y-67800000D01*
X146221062Y-67819685D01*
G37*
%TD.AperFunction*%
%TA.AperFunction,Conductor*%
G36*
X153905703Y-69859013D02*
G01*
X153912181Y-69865045D01*
X154063181Y-70016045D01*
X154096666Y-70077368D01*
X154099500Y-70103726D01*
X154099500Y-70394875D01*
X154079815Y-70461914D01*
X154063181Y-70482556D01*
X153927064Y-70618672D01*
X153927060Y-70618678D01*
X153912184Y-70633555D01*
X153850862Y-70667042D01*
X153781170Y-70662060D01*
X153725235Y-70620191D01*
X153700816Y-70554727D01*
X153700500Y-70545877D01*
X153700500Y-69952726D01*
X153720185Y-69885687D01*
X153772989Y-69839932D01*
X153842147Y-69829988D01*
X153905703Y-69859013D01*
G37*
%TD.AperFunction*%
%TD*%
M02*
