%TF.GenerationSoftware,KiCad,Pcbnew,8.0.8*%
%TF.CreationDate,2025-07-27T02:47:18+02:00*%
%TF.ProjectId,ESC_PCB,4553435f-5043-4422-9e6b-696361645f70,rev?*%
%TF.SameCoordinates,Original*%
%TF.FileFunction,Drillmap*%
%TF.FilePolarity,Positive*%
%FSLAX45Y45*%
G04 Gerber Fmt 4.5, Leading zero omitted, Abs format (unit mm)*
G04 Created by KiCad (PCBNEW 8.0.8) date 2025-07-27 02:47:18*
%MOMM*%
%LPD*%
G01*
G04 APERTURE LIST*
%ADD10C,0.050000*%
%ADD11C,0.200000*%
G04 APERTURE END LIST*
D10*
X14000000Y-4800000D02*
X15900000Y-4800000D01*
X15900000Y-9000000D01*
X14000000Y-9000000D01*
X14000000Y-4800000D01*
D11*
X14258277Y-9313984D02*
X14258277Y-9113984D01*
X14258277Y-9113984D02*
X14305896Y-9113984D01*
X14305896Y-9113984D02*
X14334467Y-9123508D01*
X14334467Y-9123508D02*
X14353515Y-9142555D01*
X14353515Y-9142555D02*
X14363039Y-9161603D01*
X14363039Y-9161603D02*
X14372562Y-9199698D01*
X14372562Y-9199698D02*
X14372562Y-9228270D01*
X14372562Y-9228270D02*
X14363039Y-9266365D01*
X14363039Y-9266365D02*
X14353515Y-9285412D01*
X14353515Y-9285412D02*
X14334467Y-9304460D01*
X14334467Y-9304460D02*
X14305896Y-9313984D01*
X14305896Y-9313984D02*
X14258277Y-9313984D01*
X14458277Y-9313984D02*
X14458277Y-9180650D01*
X14458277Y-9218746D02*
X14467801Y-9199698D01*
X14467801Y-9199698D02*
X14477324Y-9190174D01*
X14477324Y-9190174D02*
X14496372Y-9180650D01*
X14496372Y-9180650D02*
X14515420Y-9180650D01*
X14582086Y-9313984D02*
X14582086Y-9180650D01*
X14582086Y-9113984D02*
X14572562Y-9123508D01*
X14572562Y-9123508D02*
X14582086Y-9133031D01*
X14582086Y-9133031D02*
X14591610Y-9123508D01*
X14591610Y-9123508D02*
X14582086Y-9113984D01*
X14582086Y-9113984D02*
X14582086Y-9133031D01*
X14705896Y-9313984D02*
X14686848Y-9304460D01*
X14686848Y-9304460D02*
X14677324Y-9285412D01*
X14677324Y-9285412D02*
X14677324Y-9113984D01*
X14810658Y-9313984D02*
X14791610Y-9304460D01*
X14791610Y-9304460D02*
X14782086Y-9285412D01*
X14782086Y-9285412D02*
X14782086Y-9113984D01*
X15039229Y-9313984D02*
X15039229Y-9113984D01*
X15039229Y-9113984D02*
X15105896Y-9256841D01*
X15105896Y-9256841D02*
X15172562Y-9113984D01*
X15172562Y-9113984D02*
X15172562Y-9313984D01*
X15353515Y-9313984D02*
X15353515Y-9209222D01*
X15353515Y-9209222D02*
X15343991Y-9190174D01*
X15343991Y-9190174D02*
X15324943Y-9180650D01*
X15324943Y-9180650D02*
X15286848Y-9180650D01*
X15286848Y-9180650D02*
X15267801Y-9190174D01*
X15353515Y-9304460D02*
X15334467Y-9313984D01*
X15334467Y-9313984D02*
X15286848Y-9313984D01*
X15286848Y-9313984D02*
X15267801Y-9304460D01*
X15267801Y-9304460D02*
X15258277Y-9285412D01*
X15258277Y-9285412D02*
X15258277Y-9266365D01*
X15258277Y-9266365D02*
X15267801Y-9247317D01*
X15267801Y-9247317D02*
X15286848Y-9237793D01*
X15286848Y-9237793D02*
X15334467Y-9237793D01*
X15334467Y-9237793D02*
X15353515Y-9228270D01*
X15448753Y-9180650D02*
X15448753Y-9380650D01*
X15448753Y-9190174D02*
X15467801Y-9180650D01*
X15467801Y-9180650D02*
X15505896Y-9180650D01*
X15505896Y-9180650D02*
X15524943Y-9190174D01*
X15524943Y-9190174D02*
X15534467Y-9199698D01*
X15534467Y-9199698D02*
X15543991Y-9218746D01*
X15543991Y-9218746D02*
X15543991Y-9275889D01*
X15543991Y-9275889D02*
X15534467Y-9294936D01*
X15534467Y-9294936D02*
X15524943Y-9304460D01*
X15524943Y-9304460D02*
X15505896Y-9313984D01*
X15505896Y-9313984D02*
X15467801Y-9313984D01*
X15467801Y-9313984D02*
X15448753Y-9304460D01*
X15629705Y-9294936D02*
X15639229Y-9304460D01*
X15639229Y-9304460D02*
X15629705Y-9313984D01*
X15629705Y-9313984D02*
X15620182Y-9304460D01*
X15620182Y-9304460D02*
X15629705Y-9294936D01*
X15629705Y-9294936D02*
X15629705Y-9313984D01*
X15629705Y-9190174D02*
X15639229Y-9199698D01*
X15639229Y-9199698D02*
X15629705Y-9209222D01*
X15629705Y-9209222D02*
X15620182Y-9199698D01*
X15620182Y-9199698D02*
X15629705Y-9190174D01*
X15629705Y-9190174D02*
X15629705Y-9209222D01*
M02*
