%TF.GenerationSoftware,KiCad,Pcbnew,8.0.8*%
%TF.CreationDate,2025-07-27T02:47:14+02:00*%
%TF.ProjectId,ESC_PCB,4553435f-5043-4422-9e6b-696361645f70,rev?*%
%TF.SameCoordinates,Original*%
%TF.FileFunction,Copper,L6,Bot*%
%TF.FilePolarity,Positive*%
%FSLAX46Y46*%
G04 Gerber Fmt 4.6, Leading zero omitted, Abs format (unit mm)*
G04 Created by KiCad (PCBNEW 8.0.8) date 2025-07-27 02:47:14*
%MOMM*%
%LPD*%
G01*
G04 APERTURE LIST*
G04 Aperture macros list*
%AMRoundRect*
0 Rectangle with rounded corners*
0 $1 Rounding radius*
0 $2 $3 $4 $5 $6 $7 $8 $9 X,Y pos of 4 corners*
0 Add a 4 corners polygon primitive as box body*
4,1,4,$2,$3,$4,$5,$6,$7,$8,$9,$2,$3,0*
0 Add four circle primitives for the rounded corners*
1,1,$1+$1,$2,$3*
1,1,$1+$1,$4,$5*
1,1,$1+$1,$6,$7*
1,1,$1+$1,$8,$9*
0 Add four rect primitives between the rounded corners*
20,1,$1+$1,$2,$3,$4,$5,0*
20,1,$1+$1,$4,$5,$6,$7,0*
20,1,$1+$1,$6,$7,$8,$9,0*
20,1,$1+$1,$8,$9,$2,$3,0*%
%AMFreePoly0*
4,1,14,0.364320,0.111820,0.377500,0.080000,0.377500,0.053640,0.364320,0.021820,0.230680,-0.111820,0.198860,-0.125000,-0.332500,-0.125000,-0.364320,-0.111820,-0.377500,-0.080000,-0.377500,0.080000,-0.364320,0.111820,-0.332500,0.125000,0.332500,0.125000,0.364320,0.111820,0.364320,0.111820,$1*%
%AMFreePoly1*
4,1,14,0.230680,0.111820,0.364320,-0.021820,0.377500,-0.053640,0.377500,-0.080000,0.364320,-0.111820,0.332500,-0.125000,-0.332500,-0.125000,-0.364320,-0.111820,-0.377500,-0.080000,-0.377500,0.080000,-0.364320,0.111820,-0.332500,0.125000,0.198860,0.125000,0.230680,0.111820,0.230680,0.111820,$1*%
%AMFreePoly2*
4,1,14,0.111820,0.364320,0.125000,0.332500,0.125000,-0.332500,0.111820,-0.364320,0.080000,-0.377500,0.053640,-0.377500,0.021820,-0.364320,-0.111820,-0.230680,-0.125000,-0.198860,-0.125000,0.332500,-0.111820,0.364320,-0.080000,0.377500,0.080000,0.377500,0.111820,0.364320,0.111820,0.364320,$1*%
%AMFreePoly3*
4,1,14,0.111820,0.364320,0.125000,0.332500,0.125000,-0.198860,0.111820,-0.230680,-0.021820,-0.364320,-0.053640,-0.377500,-0.080000,-0.377500,-0.111820,-0.364320,-0.125000,-0.332500,-0.125000,0.332500,-0.111820,0.364320,-0.080000,0.377500,0.080000,0.377500,0.111820,0.364320,0.111820,0.364320,$1*%
%AMFreePoly4*
4,1,14,0.364320,0.111820,0.377500,0.080000,0.377500,-0.080000,0.364320,-0.111820,0.332500,-0.125000,-0.332500,-0.125000,-0.364320,-0.111820,-0.377500,-0.080000,-0.377500,-0.053640,-0.364320,-0.021820,-0.230680,0.111820,-0.198860,0.125000,0.332500,0.125000,0.364320,0.111820,0.364320,0.111820,$1*%
%AMFreePoly5*
4,1,14,0.364320,0.111820,0.377500,0.080000,0.377500,-0.080000,0.364320,-0.111820,0.332500,-0.125000,-0.198860,-0.125000,-0.230680,-0.111820,-0.364320,0.021820,-0.377500,0.053640,-0.377500,0.080000,-0.364320,0.111820,-0.332500,0.125000,0.332500,0.125000,0.364320,0.111820,0.364320,0.111820,$1*%
%AMFreePoly6*
4,1,14,-0.021820,0.364320,0.111820,0.230680,0.125000,0.198860,0.125000,-0.332500,0.111820,-0.364320,0.080000,-0.377500,-0.080000,-0.377500,-0.111820,-0.364320,-0.125000,-0.332500,-0.125000,0.332500,-0.111820,0.364320,-0.080000,0.377500,-0.053640,0.377500,-0.021820,0.364320,-0.021820,0.364320,$1*%
%AMFreePoly7*
4,1,14,0.111820,0.364320,0.125000,0.332500,0.125000,-0.332500,0.111820,-0.364320,0.080000,-0.377500,-0.080000,-0.377500,-0.111820,-0.364320,-0.125000,-0.332500,-0.125000,0.198860,-0.111820,0.230680,0.021820,0.364320,0.053640,0.377500,0.080000,0.377500,0.111820,0.364320,0.111820,0.364320,$1*%
G04 Aperture macros list end*
%TA.AperFunction,SMDPad,CuDef*%
%ADD10RoundRect,0.150000X-0.200000X0.150000X-0.200000X-0.150000X0.200000X-0.150000X0.200000X0.150000X0*%
%TD*%
%TA.AperFunction,SMDPad,CuDef*%
%ADD11RoundRect,0.160000X-0.197500X-0.160000X0.197500X-0.160000X0.197500X0.160000X-0.197500X0.160000X0*%
%TD*%
%TA.AperFunction,SMDPad,CuDef*%
%ADD12RoundRect,0.067500X-0.347500X-0.067500X0.347500X-0.067500X0.347500X0.067500X-0.347500X0.067500X0*%
%TD*%
%TA.AperFunction,SMDPad,CuDef*%
%ADD13RoundRect,0.067500X-0.067500X-0.347500X0.067500X-0.347500X0.067500X0.347500X-0.067500X0.347500X0*%
%TD*%
%TA.AperFunction,SMDPad,CuDef*%
%ADD14R,2.700000X2.700000*%
%TD*%
%TA.AperFunction,SMDPad,CuDef*%
%ADD15RoundRect,0.160000X0.197500X0.160000X-0.197500X0.160000X-0.197500X-0.160000X0.197500X-0.160000X0*%
%TD*%
%TA.AperFunction,SMDPad,CuDef*%
%ADD16RoundRect,0.250000X0.250000X0.750000X-0.250000X0.750000X-0.250000X-0.750000X0.250000X-0.750000X0*%
%TD*%
%TA.AperFunction,SMDPad,CuDef*%
%ADD17RoundRect,0.160000X0.160000X-0.197500X0.160000X0.197500X-0.160000X0.197500X-0.160000X-0.197500X0*%
%TD*%
%TA.AperFunction,SMDPad,CuDef*%
%ADD18RoundRect,0.160000X-0.160000X0.197500X-0.160000X-0.197500X0.160000X-0.197500X0.160000X0.197500X0*%
%TD*%
%TA.AperFunction,SMDPad,CuDef*%
%ADD19C,1.000000*%
%TD*%
%TA.AperFunction,SMDPad,CuDef*%
%ADD20FreePoly0,90.000000*%
%TD*%
%TA.AperFunction,SMDPad,CuDef*%
%ADD21RoundRect,0.062500X0.062500X-0.375000X0.062500X0.375000X-0.062500X0.375000X-0.062500X-0.375000X0*%
%TD*%
%TA.AperFunction,SMDPad,CuDef*%
%ADD22FreePoly1,90.000000*%
%TD*%
%TA.AperFunction,SMDPad,CuDef*%
%ADD23FreePoly2,90.000000*%
%TD*%
%TA.AperFunction,SMDPad,CuDef*%
%ADD24RoundRect,0.062500X0.375000X-0.062500X0.375000X0.062500X-0.375000X0.062500X-0.375000X-0.062500X0*%
%TD*%
%TA.AperFunction,SMDPad,CuDef*%
%ADD25FreePoly3,90.000000*%
%TD*%
%TA.AperFunction,SMDPad,CuDef*%
%ADD26FreePoly4,90.000000*%
%TD*%
%TA.AperFunction,SMDPad,CuDef*%
%ADD27FreePoly5,90.000000*%
%TD*%
%TA.AperFunction,SMDPad,CuDef*%
%ADD28FreePoly6,90.000000*%
%TD*%
%TA.AperFunction,SMDPad,CuDef*%
%ADD29FreePoly7,90.000000*%
%TD*%
%TA.AperFunction,SMDPad,CuDef*%
%ADD30RoundRect,0.237500X0.300000X0.237500X-0.300000X0.237500X-0.300000X-0.237500X0.300000X-0.237500X0*%
%TD*%
%TA.AperFunction,SMDPad,CuDef*%
%ADD31RoundRect,0.155000X0.155000X-0.212500X0.155000X0.212500X-0.155000X0.212500X-0.155000X-0.212500X0*%
%TD*%
%TA.AperFunction,SMDPad,CuDef*%
%ADD32RoundRect,0.155000X0.212500X0.155000X-0.212500X0.155000X-0.212500X-0.155000X0.212500X-0.155000X0*%
%TD*%
%TA.AperFunction,ViaPad*%
%ADD33C,0.900000*%
%TD*%
%TA.AperFunction,ViaPad*%
%ADD34C,0.400000*%
%TD*%
%TA.AperFunction,ViaPad*%
%ADD35C,0.600000*%
%TD*%
%TA.AperFunction,Conductor*%
%ADD36C,0.100000*%
%TD*%
%TA.AperFunction,Conductor*%
%ADD37C,0.300000*%
%TD*%
%TA.AperFunction,Conductor*%
%ADD38C,0.500000*%
%TD*%
%TA.AperFunction,Conductor*%
%ADD39C,0.150000*%
%TD*%
%TA.AperFunction,Conductor*%
%ADD40C,0.200000*%
%TD*%
G04 APERTURE END LIST*
D10*
%TO.P,D2,1,K*%
%TO.N,Net-(D2-K)*%
X153900000Y-71535000D03*
%TO.P,D2,2,A*%
%TO.N,+6V*%
X153900000Y-70135000D03*
%TD*%
D11*
%TO.P,R17,1*%
%TO.N,GLA*%
X155305000Y-57900000D03*
%TO.P,R17,2*%
%TO.N,Net-(Q4-G)*%
X156500000Y-57900000D03*
%TD*%
D12*
%TO.P,U6,1,LIN1*%
%TO.N,LA*%
X147807500Y-74422500D03*
%TO.P,U6,2,LIN2*%
%TO.N,LB*%
X147807500Y-73922500D03*
%TO.P,U6,3,LIN3*%
%TO.N,LC*%
X147807500Y-73422500D03*
%TO.P,U6,4,VCC*%
%TO.N,+6V*%
X147807500Y-72922500D03*
%TO.P,U6,5,NC*%
%TO.N,unconnected-(U6-NC-Pad5)*%
X147807500Y-72422500D03*
%TO.P,U6,6,COM*%
%TO.N,GND*%
X147807500Y-71922500D03*
D13*
%TO.P,U6,7,NC*%
%TO.N,unconnected-(U6-NC-Pad7)*%
X148497500Y-71232500D03*
%TO.P,U6,8,NC*%
%TO.N,unconnected-(U6-NC-Pad8)*%
X148997500Y-71232500D03*
%TO.P,U6,9,LO3*%
%TO.N,GLC*%
X149497500Y-71232500D03*
%TO.P,U6,10,LO2*%
%TO.N,GLB*%
X149997500Y-71232500D03*
%TO.P,U6,11,LO1*%
%TO.N,GLA*%
X150497500Y-71232500D03*
%TO.P,U6,12,VS3*%
%TO.N,Net-(U6-VS3)*%
X150997500Y-71232500D03*
D12*
%TO.P,U6,13,HO3*%
%TO.N,GHC*%
X151687500Y-71922500D03*
%TO.P,U6,14,VB3*%
%TO.N,Net-(D3-K)*%
X151687500Y-72422500D03*
%TO.P,U6,15,VS2*%
%TO.N,Net-(U6-VS2)*%
X151687500Y-72922500D03*
%TO.P,U6,16,HO2*%
%TO.N,GHB*%
X151687500Y-73422500D03*
%TO.P,U6,17,VB2*%
%TO.N,Net-(D2-K)*%
X151687500Y-73922500D03*
%TO.P,U6,18,VS1*%
%TO.N,Net-(U6-VS1)*%
X151687500Y-74422500D03*
D13*
%TO.P,U6,19,HO1*%
%TO.N,GHA*%
X150997500Y-75112500D03*
%TO.P,U6,20,VB1*%
%TO.N,Net-(D1-K)*%
X150497500Y-75112500D03*
%TO.P,U6,21*%
%TO.N,N/C*%
X149997500Y-75112500D03*
%TO.P,U6,22,HIN1*%
%TO.N,HA*%
X149497500Y-75112500D03*
%TO.P,U6,23,HIN2*%
%TO.N,HB*%
X148997500Y-75112500D03*
%TO.P,U6,24,HIN3*%
%TO.N,HC*%
X148497500Y-75112500D03*
D14*
%TO.P,U6,25*%
%TO.N,N/C*%
X149747500Y-73172500D03*
%TD*%
D15*
%TO.P,R6,1*%
%TO.N,BEMF_B*%
X146745000Y-83550000D03*
%TO.P,R6,2*%
%TO.N,GND*%
X145550000Y-83550000D03*
%TD*%
D16*
%TO.P,TP6,1,1*%
%TO.N,+5V*%
X149500000Y-88500000D03*
%TD*%
D17*
%TO.P,R10,1*%
%TO.N,BEMF_C*%
X150550000Y-86447500D03*
%TO.P,R10,2*%
%TO.N,BEMF_REF*%
X150550000Y-85252500D03*
%TD*%
D15*
%TO.P,R14,1*%
%TO.N,GHC*%
X149197500Y-63400000D03*
%TO.P,R14,2*%
%TO.N,Net-(Q2-G)*%
X148002500Y-63400000D03*
%TD*%
D17*
%TO.P,R9,1*%
%TO.N,BEMF_C*%
X151550000Y-86445000D03*
%TO.P,R9,2*%
%TO.N,GND*%
X151550000Y-85250000D03*
%TD*%
D18*
%TO.P,R8,1*%
%TO.N,PHASE_C*%
X152550000Y-85252500D03*
%TO.P,R8,2*%
%TO.N,BEMF_C*%
X152550000Y-86447500D03*
%TD*%
D15*
%TO.P,R12,1*%
%TO.N,GHB*%
X149400000Y-52400000D03*
%TO.P,R12,2*%
%TO.N,Net-(Q3-G)*%
X148205000Y-52400000D03*
%TD*%
D19*
%TO.P,TP2,1,1*%
%TO.N,SWDIO*%
X154700000Y-75150000D03*
%TD*%
D11*
%TO.P,R18,1*%
%TO.N,VDC*%
X144005000Y-78000000D03*
%TO.P,R18,2*%
%TO.N,ADC_VOLT*%
X145200000Y-78000000D03*
%TD*%
D15*
%TO.P,R16,1*%
%TO.N,GHA*%
X149200000Y-57900000D03*
%TO.P,R16,2*%
%TO.N,Net-(Q1-G)*%
X148005000Y-57900000D03*
%TD*%
D20*
%TO.P,U1,1,PC14*%
%TO.N,unconnected-(U1-PC14-Pad1)*%
X151245000Y-80747500D03*
D21*
%TO.P,U1,2,PC15*%
%TO.N,unconnected-(U1-PC15-Pad2)*%
X150745000Y-80687500D03*
%TO.P,U1,3,VDD*%
%TO.N,+3.3V*%
X150245000Y-80687500D03*
%TO.P,U1,4,VSS*%
%TO.N,GND*%
X149745000Y-80687500D03*
%TO.P,U1,5,PF2*%
%TO.N,unconnected-(U1-PF2-Pad5)*%
X149245000Y-80687500D03*
%TO.P,U1,6,PA0*%
%TO.N,BEMF_REF*%
X148745000Y-80687500D03*
D22*
%TO.P,U1,7,PA1*%
%TO.N,BEMF_A*%
X148245000Y-80747500D03*
D23*
%TO.P,U1,8,PA2*%
%TO.N,INPUT*%
X147747500Y-80250000D03*
D24*
%TO.P,U1,9,PA3*%
%TO.N,BEMF_B*%
X147807500Y-79750000D03*
%TO.P,U1,10,PA4*%
%TO.N,unconnected-(U1-PA4-Pad10)*%
X147807500Y-79250000D03*
%TO.P,U1,11,PA5*%
%TO.N,unconnected-(U1-PA5-Pad11)*%
X147807500Y-78750000D03*
%TO.P,U1,12,PA6*%
%TO.N,ADC_VOLT*%
X147807500Y-78250000D03*
%TO.P,U1,13,PA7*%
%TO.N,LC*%
X147807500Y-77750000D03*
D25*
%TO.P,U1,14,PB0*%
%TO.N,LB*%
X147747500Y-77250000D03*
D26*
%TO.P,U1,15,PB1*%
%TO.N,LA*%
X148245000Y-76752500D03*
D21*
%TO.P,U1,16,PA8*%
%TO.N,HC*%
X148745000Y-76812500D03*
%TO.P,U1,17,PC6*%
%TO.N,unconnected-(U1-PC6-Pad17)*%
X149245000Y-76812500D03*
%TO.P,U1,18,PA11/PA9*%
%TO.N,HB*%
X149745000Y-76812500D03*
%TO.P,U1,19,PA12/PA10*%
%TO.N,HA*%
X150245000Y-76812500D03*
%TO.P,U1,20,PA13*%
%TO.N,SWDIO*%
X150745000Y-76812500D03*
D27*
%TO.P,U1,21,PA14*%
%TO.N,SWCLK*%
X151245000Y-76752500D03*
D28*
%TO.P,U1,22,PA15*%
%TO.N,unconnected-(U1-PA15-Pad22)*%
X151742500Y-77250000D03*
D24*
%TO.P,U1,23,PB3*%
%TO.N,unconnected-(U1-PB3-Pad23)*%
X151682500Y-77750000D03*
%TO.P,U1,24,PB4*%
%TO.N,BEMF_C*%
X151682500Y-78250000D03*
%TO.P,U1,25,PB5*%
%TO.N,unconnected-(U1-PB5-Pad25)*%
X151682500Y-78750000D03*
%TO.P,U1,26,PB6*%
%TO.N,PB6*%
X151682500Y-79250000D03*
%TO.P,U1,27,PB7*%
%TO.N,BEMF_REF*%
X151682500Y-79750000D03*
D29*
%TO.P,U1,28,PB8*%
%TO.N,PB8*%
X151742500Y-80250000D03*
%TD*%
D15*
%TO.P,R19,1*%
%TO.N,ADC_VOLT*%
X145200000Y-77000000D03*
%TO.P,R19,2*%
%TO.N,GND*%
X144005000Y-77000000D03*
%TD*%
D30*
%TO.P,C8,1*%
%TO.N,+6V*%
X146262500Y-72900000D03*
%TO.P,C8,2*%
%TO.N,GND*%
X144537500Y-72900000D03*
%TD*%
D19*
%TO.P,TP4,1,1*%
%TO.N,GND*%
X154700000Y-79250000D03*
%TD*%
D11*
%TO.P,R15,1*%
%TO.N,GLC*%
X155305000Y-63400000D03*
%TO.P,R15,2*%
%TO.N,Net-(Q6-G)*%
X156500000Y-63400000D03*
%TD*%
%TO.P,R5,1*%
%TO.N,PHASE_B*%
X145602500Y-82500000D03*
%TO.P,R5,2*%
%TO.N,BEMF_B*%
X146797500Y-82500000D03*
%TD*%
D31*
%TO.P,C10,1*%
%TO.N,Net-(D2-K)*%
X155100000Y-71535000D03*
%TO.P,C10,2*%
%TO.N,Net-(U6-VS2)*%
X155100000Y-70400000D03*
%TD*%
D19*
%TO.P,TP1,1,1*%
%TO.N,+3.3V*%
X154700000Y-73125000D03*
%TD*%
D32*
%TO.P,C7,1*%
%TO.N,+3.3V*%
X150467500Y-82000000D03*
%TO.P,C7,2*%
%TO.N,GND*%
X149332500Y-82000000D03*
%TD*%
D15*
%TO.P,R7,1*%
%TO.N,BEMF_B*%
X146745000Y-84600000D03*
%TO.P,R7,2*%
%TO.N,BEMF_REF*%
X145550000Y-84600000D03*
%TD*%
D32*
%TO.P,C6,1*%
%TO.N,+3.3V*%
X150567500Y-83300000D03*
%TO.P,C6,2*%
%TO.N,GND*%
X149432500Y-83300000D03*
%TD*%
D16*
%TO.P,TP5,1,1*%
%TO.N,INPUT*%
X147750000Y-88500000D03*
%TD*%
D32*
%TO.P,C12,1*%
%TO.N,+6V*%
X146167500Y-74150000D03*
%TO.P,C12,2*%
%TO.N,GND*%
X145032500Y-74150000D03*
%TD*%
D11*
%TO.P,R13,1*%
%TO.N,GLB*%
X155202500Y-52300000D03*
%TO.P,R13,2*%
%TO.N,Net-(Q5-G)*%
X156397500Y-52300000D03*
%TD*%
D16*
%TO.P,TP7,1,1*%
%TO.N,GND*%
X151250000Y-88500000D03*
%TD*%
D19*
%TO.P,TP3,1,1*%
%TO.N,SWCLK*%
X154700000Y-77200000D03*
%TD*%
D33*
%TO.N,VDC*%
X142700000Y-69500000D03*
X142700000Y-88500000D03*
X140700000Y-79500000D03*
X142700000Y-56400000D03*
X142700000Y-58400000D03*
X142700000Y-59500000D03*
X140700000Y-63500000D03*
X141700000Y-66500000D03*
X141700000Y-68500000D03*
X140700000Y-66500000D03*
X142700000Y-82500000D03*
X141700000Y-75500000D03*
X141700000Y-53400000D03*
X141700000Y-69500000D03*
X141700000Y-64500000D03*
X141700000Y-55400000D03*
X140700000Y-71500000D03*
X140700000Y-58400000D03*
X141700000Y-79500000D03*
X141700000Y-85500000D03*
X140700000Y-82500000D03*
X140700000Y-57400000D03*
X140700000Y-84500000D03*
X142700000Y-63500000D03*
X142700000Y-84500000D03*
X140700000Y-86500000D03*
X142700000Y-85500000D03*
X142700000Y-71500000D03*
X142700000Y-86500000D03*
X141700000Y-54400000D03*
X141700000Y-58400000D03*
X141700000Y-88500000D03*
X142700000Y-60500000D03*
X141700000Y-80500000D03*
X141700000Y-56400000D03*
X141700000Y-72500000D03*
X142700000Y-57400000D03*
X142700000Y-68500000D03*
X140700000Y-54400000D03*
X140700000Y-83500000D03*
X140700000Y-87500000D03*
X141700000Y-81500000D03*
X142700000Y-77500000D03*
X140700000Y-73500000D03*
X140700000Y-61500000D03*
X142700000Y-73500000D03*
X140700000Y-60500000D03*
X140700000Y-72500000D03*
X141700000Y-74500000D03*
X142700000Y-72500000D03*
X142700000Y-65500000D03*
X142700000Y-75500000D03*
X141700000Y-82500000D03*
X141700000Y-63500000D03*
X141700000Y-61500000D03*
X142700000Y-54400000D03*
X142700000Y-74500000D03*
X141700000Y-60500000D03*
X141700000Y-62500000D03*
X141700000Y-78500000D03*
X140700000Y-65500000D03*
X142700000Y-83500000D03*
X140700000Y-53400000D03*
X140700000Y-68500000D03*
X141700000Y-86500000D03*
X142700000Y-70500000D03*
X141700000Y-59500000D03*
X142700000Y-52400000D03*
X141700000Y-70500000D03*
X140700000Y-70500000D03*
X141700000Y-76500000D03*
X142700000Y-53400000D03*
X140700000Y-74500000D03*
X141700000Y-73500000D03*
X142700000Y-76500000D03*
X142700000Y-78500000D03*
X140700000Y-64500000D03*
X142700000Y-64500000D03*
X140700000Y-75500000D03*
X140700000Y-67500000D03*
X140700000Y-76500000D03*
X142700000Y-80500000D03*
X141700000Y-77500000D03*
X140700000Y-80500000D03*
X141700000Y-65500000D03*
X142700000Y-87500000D03*
X140700000Y-85500000D03*
X140700000Y-88500000D03*
X141700000Y-71500000D03*
X140700000Y-55400000D03*
X141700000Y-83500000D03*
X142700000Y-67500000D03*
X141700000Y-57400000D03*
X142700000Y-66500000D03*
X142700000Y-55400000D03*
X140700000Y-81500000D03*
X140700000Y-77500000D03*
X141700000Y-52400000D03*
X142700000Y-81500000D03*
X140700000Y-62500000D03*
X140700000Y-69500000D03*
X141700000Y-84500000D03*
X142700000Y-62500000D03*
X141700000Y-87500000D03*
X142700000Y-79500000D03*
X140700000Y-52400000D03*
X140700000Y-59500000D03*
X140700000Y-56400000D03*
X142700000Y-61500000D03*
X140700000Y-78500000D03*
X141700000Y-67500000D03*
%TO.N,GND*%
X158200000Y-76200000D03*
X157200000Y-86200000D03*
X156200000Y-67200000D03*
D34*
X154700000Y-79100000D03*
D33*
X158200000Y-88200000D03*
X156200000Y-79200000D03*
X156200000Y-81200000D03*
X157200000Y-73200000D03*
X158200000Y-83200000D03*
X158200000Y-56100000D03*
X158200000Y-53100000D03*
X158200000Y-82200000D03*
X158200000Y-74200000D03*
X158200000Y-68200000D03*
X156200000Y-65200000D03*
X156200000Y-71200000D03*
X157200000Y-78200000D03*
X158200000Y-77200000D03*
D34*
X147590000Y-71000000D03*
D33*
X158200000Y-81200000D03*
X156200000Y-55100000D03*
X157200000Y-74200000D03*
X158200000Y-87200000D03*
X158200000Y-80200000D03*
X157200000Y-69200000D03*
D34*
X145435000Y-81200000D03*
D33*
X156200000Y-80200000D03*
X158200000Y-84200000D03*
X157200000Y-81200000D03*
X157200000Y-65200000D03*
X146100000Y-87700000D03*
X157200000Y-60200000D03*
X156200000Y-87200000D03*
X144837500Y-69345000D03*
X156200000Y-60200000D03*
X158200000Y-69200000D03*
X157200000Y-88200000D03*
D34*
X145575000Y-83575000D03*
D33*
X156200000Y-62200000D03*
X158200000Y-86200000D03*
X157200000Y-70200000D03*
X158200000Y-64200000D03*
X156200000Y-82200000D03*
X157200000Y-72200000D03*
X157200000Y-55100000D03*
D34*
X151950000Y-82925000D03*
D33*
X157200000Y-83200000D03*
X144537500Y-72900000D03*
X156200000Y-61200000D03*
X158200000Y-66200000D03*
X156200000Y-68200000D03*
X158200000Y-55100000D03*
X158200000Y-60200000D03*
X157200000Y-68200000D03*
X158200000Y-71200000D03*
X157200000Y-59200000D03*
X158200000Y-57100000D03*
X156200000Y-69200000D03*
X158200000Y-65200000D03*
X156200000Y-54100000D03*
X156200000Y-83200000D03*
X157200000Y-84200000D03*
X157200000Y-76200000D03*
X157200000Y-75200000D03*
X156200000Y-86200000D03*
X158200000Y-78200000D03*
X151250000Y-88500000D03*
X158200000Y-79200000D03*
X156200000Y-73200000D03*
D34*
X144000000Y-76300000D03*
D33*
X144900000Y-79700000D03*
X156200000Y-72200000D03*
X156200000Y-76200000D03*
X158200000Y-58100000D03*
X157200000Y-62200000D03*
X144900000Y-75600000D03*
D34*
X146500000Y-89300000D03*
D33*
X156200000Y-85200000D03*
X156200000Y-88200000D03*
X158200000Y-67200000D03*
X157200000Y-56100000D03*
X157200000Y-71200000D03*
X157200000Y-87200000D03*
X158200000Y-72200000D03*
X158200000Y-54100000D03*
X157200000Y-67200000D03*
X156200000Y-66200000D03*
X158200000Y-52100000D03*
X158200000Y-70200000D03*
X156200000Y-77200000D03*
X156200000Y-84200000D03*
X158200000Y-62200000D03*
X156200000Y-70200000D03*
X155100000Y-82525000D03*
X144837500Y-71400000D03*
X156200000Y-75200000D03*
X157200000Y-82200000D03*
X158200000Y-61200000D03*
X157200000Y-66200000D03*
X158200000Y-73200000D03*
X158200000Y-85200000D03*
X158200000Y-75200000D03*
X156200000Y-56100000D03*
X157200000Y-80200000D03*
X158200000Y-63200000D03*
X156200000Y-59200000D03*
X157200000Y-61200000D03*
X157200000Y-77200000D03*
X158200000Y-59200000D03*
X156200000Y-78200000D03*
X156200000Y-74200000D03*
X157200000Y-79200000D03*
X157200000Y-54100000D03*
X157200000Y-85200000D03*
%TO.N,+5V*%
X144500000Y-82600000D03*
D34*
%TO.N,+3.3V*%
X154700000Y-73100000D03*
D33*
X147929013Y-81741010D03*
D34*
X152550000Y-81525000D03*
%TO.N,+6V*%
X149100000Y-68600000D03*
D35*
X148150000Y-85600000D03*
D33*
X146450000Y-72900000D03*
D35*
X153000000Y-77400000D03*
D34*
X153900000Y-70135000D03*
%TO.N,Net-(D1-K)*%
X150497500Y-75800000D03*
%TO.N,Net-(U6-VS1)*%
X155300000Y-74100000D03*
%TO.N,Net-(D3-K)*%
X152800000Y-72000000D03*
%TO.N,Net-(U6-VS3)*%
X151225000Y-70200000D03*
%TO.N,Net-(Q1-G)*%
X148005000Y-57900000D03*
D33*
%TO.N,PHASE_A*%
X145400000Y-49675000D03*
X142400000Y-49675000D03*
X142400000Y-50675000D03*
X150800000Y-57845000D03*
X147750000Y-61655000D03*
X144400000Y-48675000D03*
X143400000Y-48675000D03*
X141400000Y-49675000D03*
X150800000Y-61655000D03*
X145400000Y-50675000D03*
X143400000Y-49675000D03*
X144400000Y-49675000D03*
X149300000Y-61900000D03*
X150800000Y-59115000D03*
X142400000Y-48675000D03*
X141400000Y-50675000D03*
X149300000Y-60900000D03*
X150800000Y-60385000D03*
D34*
X147595000Y-68800000D03*
D33*
X147750000Y-59115000D03*
X141400000Y-48675000D03*
X149300000Y-59900000D03*
X144400000Y-50675000D03*
X145400000Y-48675000D03*
X147750000Y-60385000D03*
X149300000Y-58900000D03*
X143400000Y-50675000D03*
%TO.N,PHASE_C*%
X153400000Y-49675000D03*
X155500000Y-50675000D03*
X149400000Y-67300000D03*
D34*
X152550000Y-83700000D03*
D33*
X157600000Y-49675000D03*
X149400000Y-66400000D03*
X154500000Y-49675000D03*
X157600000Y-50675000D03*
X154500000Y-48675000D03*
X153200000Y-63300000D03*
X156600000Y-49675000D03*
X147800000Y-65885000D03*
X153400000Y-50675000D03*
X149400000Y-65500000D03*
X157600000Y-48675000D03*
X147800000Y-67155000D03*
X156600000Y-50675000D03*
X155500000Y-49675000D03*
X156600000Y-48675000D03*
X149400000Y-64600000D03*
X153400000Y-48675000D03*
X150800000Y-65885000D03*
X150800000Y-67155000D03*
X155500000Y-48675000D03*
X154500000Y-50675000D03*
X147800000Y-64615000D03*
X153200000Y-64300000D03*
D34*
%TO.N,Net-(Q2-G)*%
X148002500Y-63400000D03*
%TO.N,Net-(Q3-G)*%
X148205000Y-52400000D03*
D33*
%TO.N,PHASE_B*%
X147800000Y-56155000D03*
X147800000Y-54885000D03*
X149100000Y-50675000D03*
X151100000Y-48675000D03*
X148100000Y-50675000D03*
X149400000Y-54300000D03*
X149400000Y-56100000D03*
X149400000Y-55200000D03*
X152100000Y-48675000D03*
X152100000Y-49675000D03*
X151100000Y-49675000D03*
X150100000Y-48675000D03*
X147100000Y-48675000D03*
X149400000Y-53400000D03*
X150100000Y-50675000D03*
X148100000Y-49675000D03*
X149100000Y-49675000D03*
X150800000Y-56040000D03*
X150800000Y-54770000D03*
D34*
X146475000Y-81350000D03*
D33*
X152100000Y-52900000D03*
X152100000Y-53900000D03*
X150800000Y-52230000D03*
X152100000Y-55900000D03*
X152100000Y-50675000D03*
X150800000Y-53500000D03*
X148100000Y-48675000D03*
X150100000Y-49675000D03*
X147100000Y-50675000D03*
X149100000Y-48675000D03*
X151100000Y-50675000D03*
X147800000Y-53615000D03*
X147100000Y-49675000D03*
X152100000Y-54900000D03*
D34*
%TO.N,Net-(Q4-G)*%
X156500000Y-57900000D03*
%TO.N,Net-(Q5-G)*%
X156397500Y-52300000D03*
%TO.N,Net-(Q6-G)*%
X156500000Y-63400000D03*
%TO.N,BEMF_A*%
X146425000Y-80250000D03*
%TO.N,BEMF_REF*%
X153200000Y-80600000D03*
%TO.N,BEMF_B*%
X148184620Y-83934620D03*
X146650000Y-79300000D03*
%TO.N,GHB*%
X152700000Y-73400000D03*
X149400000Y-52400000D03*
%TO.N,GLB*%
X154250000Y-69025000D03*
X155400000Y-51500000D03*
%TO.N,GHC*%
X152800000Y-71100000D03*
X149197500Y-63400000D03*
%TO.N,GLC*%
X155150000Y-68500000D03*
X155500000Y-62600000D03*
%TO.N,GHA*%
X149200000Y-57900000D03*
X152000000Y-75200000D03*
%TO.N,GLA*%
X155500000Y-57100000D03*
X155100000Y-69600000D03*
%TD*%
D36*
%TO.N,VDC*%
X143992500Y-77900000D02*
X143100000Y-77900000D01*
X143100000Y-77900000D02*
X142700000Y-77500000D01*
D37*
%TO.N,GND*%
X149745000Y-81587500D02*
X149332500Y-82000000D01*
X149745000Y-80687500D02*
X149745000Y-81587500D01*
X149332500Y-82000000D02*
X149600000Y-82267500D01*
X149600000Y-82267500D02*
X149600000Y-83292500D01*
X147807500Y-71217500D02*
X147590000Y-71000000D01*
X149600000Y-83292500D02*
X149592500Y-83300000D01*
X147807500Y-71922500D02*
X147807500Y-71217500D01*
D36*
X144005000Y-76305000D02*
X144005000Y-77195000D01*
X144000000Y-76300000D02*
X144005000Y-76305000D01*
X144005000Y-77195000D02*
X144000000Y-77200000D01*
D38*
%TO.N,+5V*%
X149500000Y-88500000D02*
X149500000Y-88253122D01*
X149500000Y-88253122D02*
X148296878Y-87050000D01*
X148296878Y-87050000D02*
X146750000Y-87050000D01*
X144500000Y-84800000D02*
X144500000Y-82600000D01*
X146750000Y-87050000D02*
X144500000Y-84800000D01*
D37*
%TO.N,+3.3V*%
X150467500Y-82000000D02*
X152075000Y-82000000D01*
X150245000Y-81777500D02*
X150467500Y-82000000D01*
X150245000Y-80687500D02*
X150245000Y-81777500D01*
X152212500Y-81862500D02*
X152550000Y-81525000D01*
X152075000Y-82000000D02*
X152212500Y-81862500D01*
X150407500Y-83300000D02*
X150407500Y-82060000D01*
X150407500Y-82060000D02*
X150467500Y-82000000D01*
%TO.N,+6V*%
X146167500Y-74150000D02*
X146262500Y-74055000D01*
X146262500Y-74055000D02*
X146262500Y-72900000D01*
X146450000Y-72900000D02*
X146472500Y-72922500D01*
X146472500Y-72922500D02*
X147807500Y-72922500D01*
X146157500Y-74150000D02*
X146167500Y-74150000D01*
X146450000Y-72900000D02*
X146262500Y-72900000D01*
D36*
%TO.N,Net-(D1-K)*%
X150497500Y-75112500D02*
X150497500Y-75800000D01*
X150497500Y-75800000D02*
X150497500Y-75802500D01*
%TO.N,Net-(U6-VS1)*%
X155300000Y-74100000D02*
X154639339Y-74100000D01*
X154639339Y-74100000D02*
X154316839Y-74422500D01*
X154316839Y-74422500D02*
X151687500Y-74422500D01*
%TO.N,Net-(D2-K)*%
X153900000Y-71535000D02*
X153700000Y-71735000D01*
X153700000Y-71735000D02*
X153700000Y-73136397D01*
X155100000Y-71535000D02*
X153900000Y-71535000D01*
X152913897Y-73922500D02*
X151687500Y-73922500D01*
X153700000Y-73136397D02*
X152913897Y-73922500D01*
%TO.N,Net-(U6-VS2)*%
X151687500Y-72922500D02*
X153077500Y-72922500D01*
X153300000Y-72700000D02*
X153300000Y-71100000D01*
X153700000Y-70700000D02*
X154800000Y-70700000D01*
X154800000Y-70700000D02*
X155100000Y-70400000D01*
X153077500Y-72922500D02*
X153300000Y-72700000D01*
X153300000Y-71100000D02*
X153700000Y-70700000D01*
%TO.N,Net-(D3-K)*%
X152377500Y-72422500D02*
X151687500Y-72422500D01*
X152800000Y-72000000D02*
X152377500Y-72422500D01*
%TO.N,Net-(U6-VS3)*%
X150997500Y-70427500D02*
X150997500Y-71232500D01*
X151225000Y-70200000D02*
X151100000Y-70200000D01*
X151225000Y-70200000D02*
X150997500Y-70427500D01*
%TO.N,PHASE_C*%
X152550000Y-85252500D02*
X152550000Y-83700000D01*
X152550000Y-83700000D02*
X152550000Y-83600000D01*
%TO.N,PHASE_B*%
X146475000Y-81627500D02*
X145602500Y-82500000D01*
X146475000Y-81350000D02*
X146475000Y-81627500D01*
%TO.N,BEMF_A*%
X146700000Y-80250000D02*
X147197500Y-80747500D01*
X147197500Y-80747500D02*
X148245000Y-80747500D01*
X146425000Y-80250000D02*
X146700000Y-80250000D01*
%TO.N,BEMF_REF*%
X148700000Y-84055637D02*
X148700000Y-84000000D01*
D39*
X153200000Y-80600000D02*
X152350000Y-79750000D01*
X151682500Y-79750000D02*
X149265970Y-79750000D01*
D36*
X149952500Y-85252500D02*
X150550000Y-85252500D01*
X148700000Y-84000000D02*
X149952500Y-85252500D01*
X146120000Y-85170000D02*
X147116762Y-85170000D01*
D39*
X152350000Y-79750000D02*
X151682500Y-79750000D01*
D36*
X147336762Y-84950000D02*
X147805637Y-84950000D01*
X148700000Y-80732500D02*
X148745000Y-80687500D01*
D39*
X149265970Y-79750000D02*
X148745000Y-80270970D01*
D36*
X147116762Y-85170000D02*
X147336762Y-84950000D01*
X145550000Y-84600000D02*
X146120000Y-85170000D01*
X147805637Y-84950000D02*
X148700000Y-84055637D01*
D39*
X148745000Y-80270970D02*
X148745000Y-80687500D01*
D36*
X148700000Y-84000000D02*
X148700000Y-80732500D01*
D40*
%TO.N,BEMF_B*%
X148184620Y-83934620D02*
X147519240Y-84600000D01*
X147519240Y-84600000D02*
X146745000Y-84600000D01*
D36*
X147807500Y-79750000D02*
X147450000Y-79750000D01*
D40*
X146745000Y-83550000D02*
X146745000Y-82552500D01*
X146745000Y-84600000D02*
X146745000Y-83550000D01*
X146745000Y-82552500D02*
X146797500Y-82500000D01*
D36*
X147370001Y-79750000D02*
X146920001Y-79300000D01*
X147450000Y-79750000D02*
X147350000Y-79650000D01*
X147807500Y-79750000D02*
X147370001Y-79750000D01*
X146650000Y-79300000D02*
X146600000Y-79300000D01*
X146920001Y-79300000D02*
X146650000Y-79300000D01*
%TO.N,BEMF_C*%
X151747500Y-86447500D02*
X152550000Y-86447500D01*
X151550000Y-86445000D02*
X151745000Y-86445000D01*
X151807500Y-78375000D02*
X152188674Y-78375000D01*
X153650000Y-79836326D02*
X153650000Y-85347500D01*
X153650000Y-85347500D02*
X152550000Y-86447500D01*
X150550000Y-86447500D02*
X151547500Y-86447500D01*
X151682500Y-78250000D02*
X151807500Y-78375000D01*
X151547500Y-86447500D02*
X151550000Y-86445000D01*
X151745000Y-86445000D02*
X151747500Y-86447500D01*
X152188674Y-78375000D02*
X153650000Y-79836326D01*
%TO.N,GHB*%
X152677500Y-73422500D02*
X151687500Y-73422500D01*
X152700000Y-73400000D02*
X152677500Y-73422500D01*
D40*
%TO.N,GLB*%
X155400000Y-51500000D02*
X155400000Y-52102500D01*
D36*
X154250000Y-69025000D02*
X154225000Y-69000000D01*
X154225000Y-69000000D02*
X150300000Y-69000000D01*
D40*
X155400000Y-52102500D02*
X155202500Y-52300000D01*
D36*
X149997500Y-69302500D02*
X149997500Y-71232500D01*
X150300000Y-69000000D02*
X149997500Y-69302500D01*
%TO.N,GHC*%
X151977500Y-71922500D02*
X151687500Y-71922500D01*
X152800000Y-71100000D02*
X151977500Y-71922500D01*
%TO.N,GLC*%
X149497500Y-69102500D02*
X149497500Y-71232500D01*
X150100000Y-68500000D02*
X149497500Y-69102500D01*
D40*
X155500000Y-63205000D02*
X155305000Y-63400000D01*
D36*
X155150000Y-68500000D02*
X150100000Y-68500000D01*
D40*
X155500000Y-62600000D02*
X155500000Y-63205000D01*
D36*
%TO.N,GHA*%
X151912500Y-75112500D02*
X152000000Y-75200000D01*
X150997500Y-75112500D02*
X151912500Y-75112500D01*
%TO.N,GLA*%
X150497500Y-71232500D02*
X150497500Y-69702500D01*
X150600000Y-69600000D02*
X155100000Y-69600000D01*
D40*
X155500000Y-57100000D02*
X155500000Y-57705000D01*
X155500000Y-57705000D02*
X155305000Y-57900000D01*
D36*
X150497500Y-69702500D02*
X150600000Y-69600000D01*
%TO.N,ADC_VOLT*%
X147807500Y-78250000D02*
X145157500Y-78250000D01*
X145200000Y-77000000D02*
X145200000Y-78000000D01*
X145157500Y-78250000D02*
X145200000Y-78207500D01*
%TO.N,SWDIO*%
X154022500Y-75777500D02*
X154700000Y-75100000D01*
X151277500Y-75777500D02*
X154022500Y-75777500D01*
X150745000Y-76310000D02*
X151277500Y-75777500D01*
X150745000Y-76812500D02*
X150745000Y-76310000D01*
%TO.N,SWCLK*%
X154352500Y-76752500D02*
X154700000Y-77100000D01*
X151245000Y-76752500D02*
X154352500Y-76752500D01*
%TO.N,INPUT*%
X143800000Y-82150000D02*
X146150000Y-79800000D01*
X146150000Y-79800000D02*
X146800000Y-79800000D01*
X147750000Y-88500000D02*
X145910050Y-88500000D01*
X143800000Y-86389950D02*
X143800000Y-82150000D01*
X147250000Y-80250000D02*
X147747500Y-80250000D01*
X146800000Y-79800000D02*
X147250000Y-80250000D01*
X145910050Y-88500000D02*
X143800000Y-86389950D01*
%TO.N,LC*%
X146700000Y-73800000D02*
X146700000Y-77500000D01*
X146950000Y-77750000D02*
X147807500Y-77750000D01*
X146700000Y-77500000D02*
X146950000Y-77750000D01*
X147807500Y-73422500D02*
X147077500Y-73422500D01*
X147077500Y-73422500D02*
X146700000Y-73800000D01*
%TO.N,HA*%
X149497500Y-75112500D02*
X149497500Y-75554120D01*
X149497500Y-75554120D02*
X150245000Y-76301620D01*
X150245000Y-76301620D02*
X150245000Y-76812500D01*
%TO.N,HC*%
X148745000Y-76045000D02*
X148745000Y-76812500D01*
X148497500Y-75797500D02*
X148745000Y-76045000D01*
X148497500Y-75112500D02*
X148497500Y-75797500D01*
%TO.N,HB*%
X149745000Y-76345000D02*
X149745000Y-76812500D01*
X148997500Y-75112500D02*
X148997500Y-75597500D01*
X148997500Y-75597500D02*
X149745000Y-76345000D01*
%TO.N,LB*%
X147747500Y-77250000D02*
X147150000Y-77250000D01*
X147000000Y-74100000D02*
X147177500Y-73922500D01*
X147150000Y-77250000D02*
X147000000Y-77100000D01*
X147000000Y-77100000D02*
X147000000Y-74100000D01*
X147177500Y-73922500D02*
X147807500Y-73922500D01*
%TO.N,LA*%
X147807500Y-76607500D02*
X147807500Y-74422500D01*
X147952500Y-76752500D02*
X147807500Y-76607500D01*
X148245000Y-76752500D02*
X147952500Y-76752500D01*
%TD*%
%TA.AperFunction,Conductor*%
%TO.N,GND*%
G36*
X143690046Y-86634761D02*
G01*
X143696947Y-86641158D01*
X145768153Y-88712364D01*
X145860222Y-88750500D01*
X145959877Y-88750500D01*
X146925500Y-88750500D01*
X146992539Y-88770185D01*
X147038294Y-88822989D01*
X147049500Y-88874500D01*
X147049500Y-89304269D01*
X147052353Y-89334699D01*
X147052353Y-89334701D01*
X147097206Y-89462880D01*
X147097207Y-89462882D01*
X147177850Y-89572150D01*
X147182702Y-89575731D01*
X147224952Y-89631379D01*
X147230409Y-89701035D01*
X147197341Y-89762584D01*
X147136247Y-89796485D01*
X147109067Y-89799500D01*
X143622540Y-89799500D01*
X143555501Y-89779815D01*
X143509746Y-89727011D01*
X143498541Y-89676059D01*
X143489483Y-87665298D01*
X143485267Y-86729396D01*
X143504650Y-86662270D01*
X143557247Y-86616278D01*
X143626360Y-86606023D01*
X143690046Y-86634761D01*
G37*
%TD.AperFunction*%
%TA.AperFunction,Conductor*%
G36*
X155700000Y-89799500D02*
G01*
X150140933Y-89799500D01*
X150073894Y-89779815D01*
X150028139Y-89727011D01*
X150018195Y-89657853D01*
X150047220Y-89594297D01*
X150067298Y-89575731D01*
X150067778Y-89575376D01*
X150072150Y-89572150D01*
X150152793Y-89462882D01*
X150175219Y-89398790D01*
X150197646Y-89334701D01*
X150197646Y-89334699D01*
X150200500Y-89304269D01*
X150200500Y-87695730D01*
X150197646Y-87665300D01*
X150197646Y-87665298D01*
X150152793Y-87537119D01*
X150152792Y-87537117D01*
X150140296Y-87520185D01*
X150072150Y-87427850D01*
X149962882Y-87347207D01*
X149962880Y-87347206D01*
X149834700Y-87302353D01*
X149804270Y-87299500D01*
X149804266Y-87299500D01*
X149234843Y-87299500D01*
X149167804Y-87279815D01*
X149147162Y-87263181D01*
X148573494Y-86689513D01*
X148573492Y-86689511D01*
X148516867Y-86656818D01*
X148470766Y-86630201D01*
X148458658Y-86626957D01*
X148446551Y-86623713D01*
X148446548Y-86623712D01*
X148380531Y-86606023D01*
X148356187Y-86599500D01*
X148356186Y-86599500D01*
X146987965Y-86599500D01*
X146920926Y-86579815D01*
X146900284Y-86563181D01*
X145969038Y-85631935D01*
X145935553Y-85570612D01*
X145940537Y-85500920D01*
X145982409Y-85444987D01*
X146047873Y-85420570D01*
X146057959Y-85421202D01*
X146057959Y-85420501D01*
X146184262Y-85420501D01*
X146184270Y-85420500D01*
X147166588Y-85420500D01*
X147166590Y-85420500D01*
X147258659Y-85382364D01*
X147404204Y-85236819D01*
X147465527Y-85203334D01*
X147491885Y-85200500D01*
X147589275Y-85200500D01*
X147656314Y-85220185D01*
X147702069Y-85272989D01*
X147712013Y-85342147D01*
X147702069Y-85376011D01*
X147664835Y-85457541D01*
X147664834Y-85457542D01*
X147644353Y-85600000D01*
X147664834Y-85742456D01*
X147703162Y-85826380D01*
X147724623Y-85873373D01*
X147818872Y-85982143D01*
X147939947Y-86059953D01*
X147939950Y-86059954D01*
X147939949Y-86059954D01*
X148078036Y-86100499D01*
X148078038Y-86100500D01*
X148078039Y-86100500D01*
X148221962Y-86100500D01*
X148221962Y-86100499D01*
X148360053Y-86059953D01*
X148481128Y-85982143D01*
X148575377Y-85873373D01*
X148635165Y-85742457D01*
X148655647Y-85600000D01*
X148635165Y-85457543D01*
X148575377Y-85326627D01*
X148481128Y-85217857D01*
X148441480Y-85192377D01*
X148360051Y-85140045D01*
X148258942Y-85110358D01*
X148200164Y-85072584D01*
X148171139Y-85009028D01*
X148181082Y-84939870D01*
X148206193Y-84903703D01*
X148640137Y-84469760D01*
X148701460Y-84436275D01*
X148771152Y-84441259D01*
X148815499Y-84469760D01*
X149810603Y-85464864D01*
X149902672Y-85503000D01*
X149937232Y-85503000D01*
X150004271Y-85522685D01*
X150048632Y-85572540D01*
X150092548Y-85662372D01*
X150092550Y-85662375D01*
X150177625Y-85747450D01*
X150179916Y-85749086D01*
X150182297Y-85752122D01*
X150184890Y-85754715D01*
X150184576Y-85755028D01*
X150223035Y-85804064D01*
X150229587Y-85873625D01*
X150197490Y-85935686D01*
X150179916Y-85950914D01*
X150177625Y-85952549D01*
X150092550Y-86037624D01*
X150092548Y-86037627D01*
X150039710Y-86145710D01*
X150039709Y-86145712D01*
X150039709Y-86145714D01*
X150029500Y-86215785D01*
X150029500Y-86215789D01*
X150029500Y-86215790D01*
X150029500Y-86679213D01*
X150031001Y-86689513D01*
X150039709Y-86749286D01*
X150039709Y-86749287D01*
X150039710Y-86749289D01*
X150039710Y-86749291D01*
X150092548Y-86857372D01*
X150092550Y-86857375D01*
X150177624Y-86942449D01*
X150177627Y-86942451D01*
X150280596Y-86992789D01*
X150285714Y-86995291D01*
X150355785Y-87005500D01*
X150744214Y-87005499D01*
X150814286Y-86995291D01*
X150814290Y-86995289D01*
X150814291Y-86995289D01*
X150922372Y-86942451D01*
X150922375Y-86942449D01*
X150963569Y-86901256D01*
X151024892Y-86867771D01*
X151094584Y-86872755D01*
X151138931Y-86901256D01*
X151177624Y-86939949D01*
X151177627Y-86939951D01*
X151281201Y-86990584D01*
X151285714Y-86992791D01*
X151355785Y-87003000D01*
X151744214Y-87002999D01*
X151814286Y-86992791D01*
X151814290Y-86992789D01*
X151814291Y-86992789D01*
X151922372Y-86939951D01*
X151922375Y-86939949D01*
X151961068Y-86901256D01*
X152022391Y-86867770D01*
X152092082Y-86872754D01*
X152136432Y-86901256D01*
X152177624Y-86942449D01*
X152177627Y-86942451D01*
X152280596Y-86992789D01*
X152285714Y-86995291D01*
X152355785Y-87005500D01*
X152744214Y-87005499D01*
X152814286Y-86995291D01*
X152814290Y-86995289D01*
X152814291Y-86995289D01*
X152922372Y-86942451D01*
X152922375Y-86942449D01*
X153007449Y-86857375D01*
X153007451Y-86857372D01*
X153050611Y-86769086D01*
X153060291Y-86749286D01*
X153070500Y-86679215D01*
X153070499Y-86332621D01*
X153090183Y-86265583D01*
X153106814Y-86244945D01*
X153774455Y-85577303D01*
X153774458Y-85577302D01*
X153791896Y-85559864D01*
X153791897Y-85559864D01*
X153862364Y-85489397D01*
X153900500Y-85397328D01*
X153900500Y-79786498D01*
X153862364Y-79694429D01*
X153791897Y-79623962D01*
X152344854Y-78176919D01*
X152311369Y-78115596D01*
X152310928Y-78113483D01*
X152305240Y-78084883D01*
X152305239Y-78084881D01*
X152305238Y-78084878D01*
X152294555Y-78068891D01*
X152273676Y-78002214D01*
X152292160Y-77934833D01*
X152294517Y-77931164D01*
X152305240Y-77915117D01*
X152320500Y-77838401D01*
X152320499Y-77686938D01*
X152340183Y-77619899D01*
X152392987Y-77574144D01*
X152462145Y-77564200D01*
X152525701Y-77593225D01*
X152557293Y-77635426D01*
X152567062Y-77656818D01*
X152574623Y-77673373D01*
X152668872Y-77782143D01*
X152789947Y-77859953D01*
X152789950Y-77859954D01*
X152789949Y-77859954D01*
X152928036Y-77900499D01*
X152928038Y-77900500D01*
X152928039Y-77900500D01*
X153071962Y-77900500D01*
X153071962Y-77900499D01*
X153210053Y-77859953D01*
X153331128Y-77782143D01*
X153425377Y-77673373D01*
X153485165Y-77542457D01*
X153505647Y-77400000D01*
X153485165Y-77257543D01*
X153449071Y-77178510D01*
X153439128Y-77109354D01*
X153468153Y-77045798D01*
X153526930Y-77008023D01*
X153561866Y-77003000D01*
X153878308Y-77003000D01*
X153945347Y-77022685D01*
X153991102Y-77075489D01*
X154001404Y-77141947D01*
X153994355Y-77199999D01*
X154014859Y-77368869D01*
X154014860Y-77368874D01*
X154075182Y-77527931D01*
X154107081Y-77574144D01*
X154171817Y-77667929D01*
X154248331Y-77735714D01*
X154299150Y-77780736D01*
X154429487Y-77849142D01*
X154449775Y-77859790D01*
X154614944Y-77900500D01*
X154785056Y-77900500D01*
X154950225Y-77859790D01*
X155053122Y-77805785D01*
X155100849Y-77780736D01*
X155100850Y-77780734D01*
X155100852Y-77780734D01*
X155228183Y-77667929D01*
X155324818Y-77527930D01*
X155385140Y-77368872D01*
X155405645Y-77200000D01*
X155385140Y-77031128D01*
X155324818Y-76872070D01*
X155228183Y-76732071D01*
X155110290Y-76627627D01*
X155100849Y-76619263D01*
X154950226Y-76540210D01*
X154785056Y-76499500D01*
X154614944Y-76499500D01*
X154614943Y-76499500D01*
X154517382Y-76523546D01*
X154447580Y-76520477D01*
X154440261Y-76517712D01*
X154426856Y-76512159D01*
X154402329Y-76502000D01*
X154402328Y-76502000D01*
X151698575Y-76502000D01*
X151631536Y-76482315D01*
X151585781Y-76429511D01*
X151576958Y-76402192D01*
X151564857Y-76341360D01*
X151564856Y-76341358D01*
X151564856Y-76341356D01*
X151550211Y-76306001D01*
X151513586Y-76247713D01*
X151505196Y-76238839D01*
X151507913Y-76236269D01*
X151477933Y-76198275D01*
X151471177Y-76128733D01*
X151503091Y-76066578D01*
X151563543Y-76031544D01*
X151592975Y-76028000D01*
X154072326Y-76028000D01*
X154072328Y-76028000D01*
X154164397Y-75989864D01*
X154316736Y-75837523D01*
X154378057Y-75804039D01*
X154442334Y-75808635D01*
X154442492Y-75807995D01*
X154446219Y-75808913D01*
X154447748Y-75809023D01*
X154448398Y-75809267D01*
X154449768Y-75809786D01*
X154449775Y-75809790D01*
X154614944Y-75850500D01*
X154785056Y-75850500D01*
X154950225Y-75809790D01*
X155068580Y-75747672D01*
X155100849Y-75730736D01*
X155100850Y-75730734D01*
X155100852Y-75730734D01*
X155228183Y-75617929D01*
X155324818Y-75477930D01*
X155385140Y-75318872D01*
X155405645Y-75150000D01*
X155385140Y-74981128D01*
X155324818Y-74822070D01*
X155237276Y-74695245D01*
X155215395Y-74628894D01*
X155232860Y-74561243D01*
X155284128Y-74513772D01*
X155319923Y-74502336D01*
X155425304Y-74485646D01*
X155538342Y-74428050D01*
X155628050Y-74338342D01*
X155685646Y-74225304D01*
X155685646Y-74225302D01*
X155685647Y-74225301D01*
X155685647Y-74225300D01*
X155700000Y-74134678D01*
X155700000Y-89799500D01*
G37*
%TD.AperFunction*%
%TA.AperFunction,Conductor*%
G36*
X144255703Y-85193252D02*
G01*
X144262181Y-85199284D01*
X146473387Y-87410490D01*
X146473389Y-87410491D01*
X146473393Y-87410494D01*
X146576107Y-87469795D01*
X146576114Y-87469799D01*
X146690691Y-87500500D01*
X146935258Y-87500500D01*
X147002297Y-87520185D01*
X147048052Y-87572989D01*
X147057996Y-87642147D01*
X147052486Y-87664692D01*
X147052353Y-87665300D01*
X147049500Y-87695730D01*
X147049500Y-88125500D01*
X147029815Y-88192539D01*
X146977011Y-88238294D01*
X146925500Y-88249500D01*
X146065173Y-88249500D01*
X145998134Y-88229815D01*
X145977492Y-88213181D01*
X144086819Y-86322508D01*
X144053334Y-86261185D01*
X144050500Y-86234827D01*
X144050500Y-85286965D01*
X144070185Y-85219926D01*
X144122989Y-85174171D01*
X144192147Y-85164227D01*
X144255703Y-85193252D01*
G37*
%TD.AperFunction*%
%TA.AperFunction,Conductor*%
G36*
X149893012Y-80045185D02*
G01*
X149938767Y-80097989D01*
X149948711Y-80167147D01*
X149937040Y-80197611D01*
X149939433Y-80198603D01*
X149934758Y-80209887D01*
X149919500Y-80286594D01*
X149919500Y-80531729D01*
X149915275Y-80563822D01*
X149894500Y-80641356D01*
X149894500Y-81823643D01*
X149895275Y-81826535D01*
X149899500Y-81858628D01*
X149899500Y-82188742D01*
X149907050Y-82240565D01*
X149909567Y-82257842D01*
X149943189Y-82326614D01*
X149961676Y-82364429D01*
X150020682Y-82423435D01*
X150054166Y-82484756D01*
X150057000Y-82511115D01*
X150057000Y-82916447D01*
X150044400Y-82970908D01*
X150009567Y-83042157D01*
X150009567Y-83042160D01*
X149999500Y-83111258D01*
X149999500Y-83488742D01*
X150005384Y-83529128D01*
X150009567Y-83557842D01*
X150061676Y-83664430D01*
X150145569Y-83748323D01*
X150252157Y-83800432D01*
X150252158Y-83800432D01*
X150252160Y-83800433D01*
X150321258Y-83810500D01*
X150321264Y-83810500D01*
X150813736Y-83810500D01*
X150813742Y-83810500D01*
X150882840Y-83800433D01*
X150989429Y-83748324D01*
X150989430Y-83748323D01*
X150989432Y-83748322D01*
X151073322Y-83664432D01*
X151073323Y-83664430D01*
X151073324Y-83664429D01*
X151125433Y-83557840D01*
X151135500Y-83488742D01*
X151135500Y-83111258D01*
X151125433Y-83042160D01*
X151124594Y-83040444D01*
X151073323Y-82935569D01*
X150989430Y-82851676D01*
X150882839Y-82799566D01*
X150882840Y-82799566D01*
X150864120Y-82796839D01*
X150800620Y-82767694D01*
X150762957Y-82708844D01*
X150758000Y-82674135D01*
X150758000Y-82589980D01*
X150777685Y-82522941D01*
X150827540Y-82478580D01*
X150889429Y-82448324D01*
X150950935Y-82386817D01*
X151012256Y-82353334D01*
X151038615Y-82350500D01*
X152121142Y-82350500D01*
X152121144Y-82350500D01*
X152210288Y-82326614D01*
X152229557Y-82315489D01*
X152290212Y-82280470D01*
X152410269Y-82160410D01*
X152410273Y-82160408D01*
X152427711Y-82142970D01*
X152427712Y-82142970D01*
X152631638Y-81939042D01*
X152667593Y-81917014D01*
X152666607Y-81915078D01*
X152713430Y-81891219D01*
X152788342Y-81853050D01*
X152878050Y-81763342D01*
X152935646Y-81650304D01*
X152935646Y-81650302D01*
X152935647Y-81650301D01*
X152935647Y-81650300D01*
X152955492Y-81525003D01*
X152955492Y-81524996D01*
X152935647Y-81399699D01*
X152935647Y-81399698D01*
X152935646Y-81399696D01*
X152878050Y-81286658D01*
X152878046Y-81286654D01*
X152878045Y-81286652D01*
X152788347Y-81196954D01*
X152788344Y-81196952D01*
X152788342Y-81196950D01*
X152675304Y-81139354D01*
X152675303Y-81139353D01*
X152675300Y-81139352D01*
X152550003Y-81119508D01*
X152549997Y-81119508D01*
X152424699Y-81139352D01*
X152424698Y-81139352D01*
X152374143Y-81165112D01*
X152311658Y-81196950D01*
X152311657Y-81196951D01*
X152311652Y-81196954D01*
X152221954Y-81286652D01*
X152221949Y-81286659D01*
X152159923Y-81408391D01*
X152157992Y-81407407D01*
X152135954Y-81443362D01*
X151966135Y-81613182D01*
X151904815Y-81646666D01*
X151878456Y-81649500D01*
X151038615Y-81649500D01*
X150971576Y-81629815D01*
X150950938Y-81613185D01*
X150889429Y-81551676D01*
X150874414Y-81544335D01*
X150822835Y-81497208D01*
X150804921Y-81429674D01*
X150826363Y-81363176D01*
X150880352Y-81318826D01*
X150904688Y-81311319D01*
X150910117Y-81310240D01*
X150915320Y-81306763D01*
X150981992Y-81285884D01*
X151044280Y-81302968D01*
X151044903Y-81301841D01*
X151050998Y-81305209D01*
X151051001Y-81305211D01*
X151086356Y-81319856D01*
X151086358Y-81319856D01*
X151086360Y-81319857D01*
X151164997Y-81335500D01*
X151165000Y-81335500D01*
X151325002Y-81335500D01*
X151403639Y-81319857D01*
X151403639Y-81319856D01*
X151403644Y-81319856D01*
X151438999Y-81305211D01*
X151497287Y-81268586D01*
X151550211Y-81193999D01*
X151564856Y-81158644D01*
X151572641Y-81119508D01*
X151580500Y-81080002D01*
X151580500Y-80709500D01*
X151600185Y-80642461D01*
X151652989Y-80596706D01*
X151704500Y-80585500D01*
X152075002Y-80585500D01*
X152153639Y-80569857D01*
X152153639Y-80569856D01*
X152153644Y-80569856D01*
X152188999Y-80555211D01*
X152247287Y-80518586D01*
X152300211Y-80443999D01*
X152303433Y-80436222D01*
X152308971Y-80422851D01*
X152314856Y-80408644D01*
X152320063Y-80382466D01*
X152352446Y-80320557D01*
X152413161Y-80285982D01*
X152482931Y-80289721D01*
X152529361Y-80318977D01*
X152763030Y-80552646D01*
X152796515Y-80613969D01*
X152797822Y-80620929D01*
X152814352Y-80725301D01*
X152814354Y-80725304D01*
X152871950Y-80838342D01*
X152871952Y-80838344D01*
X152871954Y-80838347D01*
X152961652Y-80928045D01*
X152961654Y-80928046D01*
X152961658Y-80928050D01*
X153074696Y-80985646D01*
X153074697Y-80985646D01*
X153074699Y-80985647D01*
X153199997Y-81005492D01*
X153200000Y-81005492D01*
X153256102Y-80996606D01*
X153325394Y-81005560D01*
X153378847Y-81050556D01*
X153399487Y-81117307D01*
X153399500Y-81119079D01*
X153399500Y-85192377D01*
X153379815Y-85259416D01*
X153363185Y-85280053D01*
X153316613Y-85326626D01*
X153282180Y-85361059D01*
X153220856Y-85394543D01*
X153151165Y-85389558D01*
X153095231Y-85347687D01*
X153070815Y-85282222D01*
X153070499Y-85273392D01*
X153070499Y-85020786D01*
X153060291Y-84950714D01*
X153060289Y-84950709D01*
X153060289Y-84950708D01*
X153007451Y-84842627D01*
X153007449Y-84842624D01*
X152922374Y-84757549D01*
X152870039Y-84731964D01*
X152818457Y-84684836D01*
X152800500Y-84620564D01*
X152800500Y-84067254D01*
X152820185Y-84000215D01*
X152836820Y-83979572D01*
X152878046Y-83938346D01*
X152878050Y-83938342D01*
X152935646Y-83825304D01*
X152935646Y-83825302D01*
X152935647Y-83825301D01*
X152935647Y-83825300D01*
X152955492Y-83700003D01*
X152955492Y-83699996D01*
X152935647Y-83574699D01*
X152935647Y-83574698D01*
X152917299Y-83538689D01*
X152878050Y-83461658D01*
X152878046Y-83461654D01*
X152878045Y-83461652D01*
X152788347Y-83371954D01*
X152788344Y-83371952D01*
X152788342Y-83371950D01*
X152675304Y-83314354D01*
X152675303Y-83314353D01*
X152675300Y-83314352D01*
X152550003Y-83294508D01*
X152549997Y-83294508D01*
X152424699Y-83314352D01*
X152424698Y-83314352D01*
X152368118Y-83343182D01*
X152311658Y-83371950D01*
X152311657Y-83371951D01*
X152311652Y-83371954D01*
X152221954Y-83461652D01*
X152221951Y-83461657D01*
X152164352Y-83574698D01*
X152164352Y-83574699D01*
X152144508Y-83699996D01*
X152144508Y-83700003D01*
X152164352Y-83825300D01*
X152164352Y-83825301D01*
X152164354Y-83825304D01*
X152221950Y-83938342D01*
X152221952Y-83938344D01*
X152221953Y-83938346D01*
X152263180Y-83979572D01*
X152296666Y-84040895D01*
X152299500Y-84067254D01*
X152299500Y-84620564D01*
X152279815Y-84687603D01*
X152229961Y-84731964D01*
X152177625Y-84757549D01*
X152092550Y-84842624D01*
X152092548Y-84842627D01*
X152039710Y-84950710D01*
X152039709Y-84950712D01*
X152039709Y-84950714D01*
X152029500Y-85020785D01*
X152029500Y-85020789D01*
X152029500Y-85020790D01*
X152029500Y-85484213D01*
X152035105Y-85522685D01*
X152039709Y-85554286D01*
X152039709Y-85554287D01*
X152039710Y-85554289D01*
X152039710Y-85554291D01*
X152092548Y-85662372D01*
X152092550Y-85662375D01*
X152177625Y-85747450D01*
X152179916Y-85749086D01*
X152182297Y-85752122D01*
X152184890Y-85754715D01*
X152184576Y-85755028D01*
X152223035Y-85804064D01*
X152229587Y-85873625D01*
X152197490Y-85935686D01*
X152179916Y-85950914D01*
X152177625Y-85952549D01*
X152138931Y-85991244D01*
X152077608Y-86024729D01*
X152007916Y-86019745D01*
X151963569Y-85991244D01*
X151922375Y-85950050D01*
X151922372Y-85950048D01*
X151814289Y-85897210D01*
X151814287Y-85897209D01*
X151814286Y-85897209D01*
X151744215Y-85887000D01*
X151744209Y-85887000D01*
X151355786Y-85887000D01*
X151306342Y-85894203D01*
X151285714Y-85897209D01*
X151285712Y-85897209D01*
X151285710Y-85897210D01*
X151285708Y-85897210D01*
X151177627Y-85950048D01*
X151177624Y-85950050D01*
X151136431Y-85991244D01*
X151075108Y-86024729D01*
X151005416Y-86019745D01*
X150961069Y-85991244D01*
X150922377Y-85952552D01*
X150920087Y-85950917D01*
X150917704Y-85947879D01*
X150915110Y-85945285D01*
X150915423Y-85944971D01*
X150876966Y-85895942D01*
X150870411Y-85826380D01*
X150902505Y-85764318D01*
X150920087Y-85749083D01*
X150922372Y-85747450D01*
X150922375Y-85747449D01*
X151007449Y-85662375D01*
X151007451Y-85662372D01*
X151033870Y-85608330D01*
X151060291Y-85554286D01*
X151070500Y-85484215D01*
X151070499Y-85020786D01*
X151060291Y-84950714D01*
X151060289Y-84950709D01*
X151060289Y-84950708D01*
X151007451Y-84842627D01*
X151007449Y-84842624D01*
X150922375Y-84757550D01*
X150922372Y-84757548D01*
X150814289Y-84704710D01*
X150814287Y-84704709D01*
X150814286Y-84704709D01*
X150744215Y-84694500D01*
X150744209Y-84694500D01*
X150355786Y-84694500D01*
X150306342Y-84701703D01*
X150285714Y-84704709D01*
X150285712Y-84704709D01*
X150285710Y-84704710D01*
X150285708Y-84704710D01*
X150177627Y-84757548D01*
X150177624Y-84757550D01*
X150085285Y-84849890D01*
X150083178Y-84847783D01*
X150041118Y-84880760D01*
X149971555Y-84887301D01*
X149909499Y-84855195D01*
X149907518Y-84853257D01*
X148986819Y-83932558D01*
X148953334Y-83871235D01*
X148950500Y-83844877D01*
X148950500Y-81435598D01*
X148970185Y-81368559D01*
X149022989Y-81322804D01*
X149092147Y-81312860D01*
X149098671Y-81313977D01*
X149156599Y-81325500D01*
X149333400Y-81325499D01*
X149410117Y-81310240D01*
X149497112Y-81252112D01*
X149555240Y-81165117D01*
X149570500Y-81088401D01*
X149570499Y-80286600D01*
X149555240Y-80209883D01*
X149555239Y-80209881D01*
X149550565Y-80198596D01*
X149554251Y-80197069D01*
X149540047Y-80151740D01*
X149558518Y-80084356D01*
X149610487Y-80037654D01*
X149664027Y-80025500D01*
X149825973Y-80025500D01*
X149893012Y-80045185D01*
G37*
%TD.AperFunction*%
%TA.AperFunction,Conductor*%
G36*
X146285682Y-82852505D02*
G01*
X146300917Y-82870087D01*
X146302552Y-82872377D01*
X146341244Y-82911069D01*
X146374729Y-82972392D01*
X146369745Y-83042084D01*
X146341244Y-83086431D01*
X146250050Y-83177624D01*
X146250048Y-83177627D01*
X146197210Y-83285710D01*
X146197209Y-83285712D01*
X146197209Y-83285714D01*
X146187000Y-83355785D01*
X146187000Y-83355789D01*
X146187000Y-83355790D01*
X146187000Y-83744213D01*
X146193154Y-83786453D01*
X146197209Y-83814286D01*
X146197209Y-83814287D01*
X146197210Y-83814289D01*
X146197210Y-83814291D01*
X146250048Y-83922372D01*
X146250050Y-83922375D01*
X146314994Y-83987319D01*
X146348479Y-84048642D01*
X146343495Y-84118334D01*
X146314994Y-84162681D01*
X146250049Y-84227625D01*
X146248414Y-84229916D01*
X146245377Y-84232297D01*
X146242785Y-84234890D01*
X146242471Y-84234576D01*
X146193436Y-84273035D01*
X146123875Y-84279587D01*
X146061814Y-84247490D01*
X146046586Y-84229916D01*
X146044950Y-84227625D01*
X145959875Y-84142550D01*
X145959872Y-84142548D01*
X145851789Y-84089710D01*
X145851787Y-84089709D01*
X145851786Y-84089709D01*
X145781715Y-84079500D01*
X145781709Y-84079500D01*
X145318286Y-84079500D01*
X145268842Y-84086703D01*
X145248214Y-84089709D01*
X145248212Y-84089709D01*
X145248210Y-84089710D01*
X145248208Y-84089710D01*
X145130893Y-84147063D01*
X145129363Y-84143934D01*
X145080550Y-84160895D01*
X145012630Y-84144505D01*
X144964353Y-84093996D01*
X144950500Y-84037043D01*
X144950500Y-83125759D01*
X144970185Y-83058720D01*
X144985846Y-83040444D01*
X144985509Y-83040145D01*
X144990479Y-83034534D01*
X144990479Y-83034532D01*
X144990483Y-83034530D01*
X145021289Y-82989899D01*
X145075568Y-82945911D01*
X145145017Y-82938251D01*
X145182806Y-82954135D01*
X145183393Y-82952937D01*
X145295856Y-83007916D01*
X145300714Y-83010291D01*
X145370785Y-83020500D01*
X145834214Y-83020499D01*
X145904286Y-83010291D01*
X145904290Y-83010289D01*
X145904291Y-83010289D01*
X146012372Y-82957451D01*
X146012375Y-82957449D01*
X146097447Y-82872377D01*
X146097449Y-82872375D01*
X146097450Y-82872372D01*
X146099083Y-82870087D01*
X146102120Y-82867704D01*
X146104715Y-82865110D01*
X146105028Y-82865423D01*
X146154058Y-82826966D01*
X146223620Y-82820411D01*
X146285682Y-82852505D01*
G37*
%TD.AperFunction*%
%TA.AperFunction,Conductor*%
G36*
X146012422Y-80394350D02*
G01*
X146068355Y-80436222D01*
X146079572Y-80454237D01*
X146096947Y-80488338D01*
X146096954Y-80488347D01*
X146186652Y-80578045D01*
X146186654Y-80578046D01*
X146186658Y-80578050D01*
X146299696Y-80635646D01*
X146299697Y-80635646D01*
X146299699Y-80635647D01*
X146424997Y-80655492D01*
X146425000Y-80655492D01*
X146425003Y-80655492D01*
X146550300Y-80635647D01*
X146550301Y-80635647D01*
X146550302Y-80635646D01*
X146550304Y-80635646D01*
X146589992Y-80615423D01*
X146658660Y-80602528D01*
X146723401Y-80628804D01*
X146733967Y-80638228D01*
X146985136Y-80889397D01*
X147055603Y-80959864D01*
X147147672Y-80998000D01*
X147459772Y-80998000D01*
X147526811Y-81017685D01*
X147572566Y-81070489D01*
X147582510Y-81139647D01*
X147553485Y-81203203D01*
X147542003Y-81214811D01*
X147438530Y-81306480D01*
X147438529Y-81306481D01*
X147348794Y-81436485D01*
X147348793Y-81436486D01*
X147292775Y-81584191D01*
X147273735Y-81741009D01*
X147273735Y-81741010D01*
X147289332Y-81869468D01*
X147277871Y-81938391D01*
X147230967Y-81990177D01*
X147163511Y-82008384D01*
X147111776Y-81995815D01*
X147099287Y-81989709D01*
X147089275Y-81988250D01*
X147029215Y-81979500D01*
X147029209Y-81979500D01*
X146776622Y-81979500D01*
X146709583Y-81959815D01*
X146663828Y-81907011D01*
X146653884Y-81837853D01*
X146682909Y-81774297D01*
X146687088Y-81769808D01*
X146687361Y-81769399D01*
X146687364Y-81769397D01*
X146724148Y-81680590D01*
X146751023Y-81640368D01*
X146803050Y-81588342D01*
X146860646Y-81475304D01*
X146860646Y-81475302D01*
X146860647Y-81475301D01*
X146860647Y-81475300D01*
X146880492Y-81350003D01*
X146880492Y-81349996D01*
X146860647Y-81224699D01*
X146860647Y-81224698D01*
X146855612Y-81214816D01*
X146803050Y-81111658D01*
X146803046Y-81111654D01*
X146803045Y-81111652D01*
X146713347Y-81021954D01*
X146713344Y-81021952D01*
X146713342Y-81021950D01*
X146600304Y-80964354D01*
X146600303Y-80964353D01*
X146600300Y-80964352D01*
X146475003Y-80944508D01*
X146474997Y-80944508D01*
X146349699Y-80964352D01*
X146349698Y-80964352D01*
X146286398Y-80996606D01*
X146236658Y-81021950D01*
X146236657Y-81021951D01*
X146236652Y-81021954D01*
X146146954Y-81111652D01*
X146146951Y-81111657D01*
X146146950Y-81111658D01*
X146132839Y-81139352D01*
X146089352Y-81224698D01*
X146089352Y-81224699D01*
X146069508Y-81349996D01*
X146069508Y-81350003D01*
X146089352Y-81475300D01*
X146089352Y-81475301D01*
X146110419Y-81516646D01*
X146123315Y-81585316D01*
X146097038Y-81650056D01*
X146087615Y-81660622D01*
X145805056Y-81943181D01*
X145743733Y-81976666D01*
X145717375Y-81979500D01*
X145370786Y-81979500D01*
X145321342Y-81986703D01*
X145300714Y-81989709D01*
X145300712Y-81989709D01*
X145300710Y-81989710D01*
X145300708Y-81989710D01*
X145192627Y-82042548D01*
X145115027Y-82120148D01*
X145053703Y-82153632D01*
X144984012Y-82148648D01*
X144945120Y-82125283D01*
X144872240Y-82060717D01*
X144872237Y-82060714D01*
X144732365Y-81987303D01*
X144732366Y-81987303D01*
X144612567Y-81957777D01*
X144552186Y-81922621D01*
X144520397Y-81860402D01*
X144527293Y-81790873D01*
X144554558Y-81749701D01*
X145881409Y-80422849D01*
X145942730Y-80389366D01*
X146012422Y-80394350D01*
G37*
%TD.AperFunction*%
%TA.AperFunction,Conductor*%
G36*
X144688182Y-78352505D02*
G01*
X144703417Y-78370087D01*
X144705052Y-78372377D01*
X144790124Y-78457449D01*
X144790127Y-78457451D01*
X144878186Y-78500500D01*
X144898214Y-78510291D01*
X144968285Y-78520500D01*
X145431714Y-78520499D01*
X145501786Y-78510291D01*
X145501795Y-78510286D01*
X145510989Y-78507447D01*
X145511621Y-78509493D01*
X145550501Y-78500500D01*
X147050450Y-78500500D01*
X147117489Y-78520185D01*
X147163244Y-78572989D01*
X147173188Y-78642147D01*
X147172067Y-78648692D01*
X147169500Y-78661596D01*
X147169500Y-78838398D01*
X147178505Y-78883672D01*
X147184759Y-78915114D01*
X147187143Y-78927095D01*
X147184001Y-78927719D01*
X147189371Y-78977701D01*
X147158091Y-79040178D01*
X147098000Y-79075826D01*
X147028175Y-79073326D01*
X147019888Y-79070235D01*
X146985893Y-79056153D01*
X146945667Y-79029274D01*
X146888347Y-78971954D01*
X146888344Y-78971952D01*
X146888342Y-78971950D01*
X146775304Y-78914354D01*
X146775303Y-78914353D01*
X146775300Y-78914352D01*
X146650003Y-78894508D01*
X146649997Y-78894508D01*
X146524699Y-78914352D01*
X146524698Y-78914352D01*
X146449337Y-78952751D01*
X146411658Y-78971950D01*
X146411657Y-78971951D01*
X146411652Y-78971954D01*
X146321954Y-79061652D01*
X146321951Y-79061657D01*
X146321950Y-79061658D01*
X146305772Y-79093409D01*
X146264352Y-79174698D01*
X146264352Y-79174699D01*
X146244508Y-79299996D01*
X146244508Y-79300003D01*
X146261312Y-79406103D01*
X146252357Y-79475396D01*
X146207361Y-79528848D01*
X146140609Y-79549487D01*
X146138839Y-79549500D01*
X146100170Y-79549500D01*
X146008102Y-79587636D01*
X146008101Y-79587637D01*
X145937635Y-79658104D01*
X143674895Y-81920842D01*
X143613572Y-81954327D01*
X143543880Y-81949343D01*
X143487947Y-81907471D01*
X143463530Y-81842007D01*
X143463215Y-81833720D01*
X143455850Y-80198603D01*
X143448581Y-78585010D01*
X143467964Y-78517883D01*
X143520561Y-78471891D01*
X143589674Y-78461636D01*
X143627041Y-78473052D01*
X143703211Y-78510290D01*
X143703212Y-78510290D01*
X143703214Y-78510291D01*
X143773285Y-78520500D01*
X144236714Y-78520499D01*
X144306786Y-78510291D01*
X144306790Y-78510289D01*
X144306791Y-78510289D01*
X144414872Y-78457451D01*
X144414875Y-78457449D01*
X144499947Y-78372377D01*
X144499949Y-78372375D01*
X144499950Y-78372372D01*
X144501583Y-78370087D01*
X144504620Y-78367704D01*
X144507215Y-78365110D01*
X144507528Y-78365423D01*
X144556558Y-78326966D01*
X144626120Y-78320411D01*
X144688182Y-78352505D01*
G37*
%TD.AperFunction*%
%TA.AperFunction,Conductor*%
G36*
X147713317Y-67803602D02*
G01*
X147721015Y-67805500D01*
X147878985Y-67805500D01*
X147886682Y-67803602D01*
X147916356Y-67800000D01*
X148936392Y-67800000D01*
X149003431Y-67819685D01*
X149018616Y-67831182D01*
X149027760Y-67839283D01*
X149027765Y-67839285D01*
X149027767Y-67839287D01*
X149167634Y-67912696D01*
X149321014Y-67950500D01*
X149321015Y-67950500D01*
X149478985Y-67950500D01*
X149632365Y-67912696D01*
X149772232Y-67839287D01*
X149772231Y-67839287D01*
X149772240Y-67839283D01*
X149781383Y-67831182D01*
X149844617Y-67801463D01*
X149863608Y-67800000D01*
X150683644Y-67800000D01*
X150713317Y-67803602D01*
X150721015Y-67805500D01*
X150878985Y-67805500D01*
X150886682Y-67803602D01*
X150916356Y-67800000D01*
X155700000Y-67800000D01*
X155700000Y-74065320D01*
X155685647Y-73974698D01*
X155681621Y-73966797D01*
X155628050Y-73861658D01*
X155628046Y-73861654D01*
X155628045Y-73861652D01*
X155538347Y-73771954D01*
X155538344Y-73771952D01*
X155538342Y-73771950D01*
X155425304Y-73714354D01*
X155425303Y-73714353D01*
X155425300Y-73714352D01*
X155366598Y-73705055D01*
X155303463Y-73675126D01*
X155266532Y-73615814D01*
X155267530Y-73545951D01*
X155283947Y-73512141D01*
X155324818Y-73452930D01*
X155385140Y-73293872D01*
X155405645Y-73125000D01*
X155385140Y-72956128D01*
X155324818Y-72797070D01*
X155228183Y-72657071D01*
X155100852Y-72544266D01*
X155100849Y-72544263D01*
X154950226Y-72465210D01*
X154785056Y-72424500D01*
X154614944Y-72424500D01*
X154449773Y-72465210D01*
X154299150Y-72544263D01*
X154171816Y-72657071D01*
X154167315Y-72662153D01*
X154108125Y-72699279D01*
X154038259Y-72698511D01*
X153979900Y-72660093D01*
X153951576Y-72596222D01*
X153950500Y-72579925D01*
X153950500Y-72159500D01*
X153970185Y-72092461D01*
X154022989Y-72046706D01*
X154074500Y-72035500D01*
X154133261Y-72035500D01*
X154155971Y-72032191D01*
X154201393Y-72025573D01*
X154306483Y-71974198D01*
X154389198Y-71891483D01*
X154393038Y-71883627D01*
X154440162Y-71832046D01*
X154507696Y-71814129D01*
X154574195Y-71835567D01*
X154615838Y-71883623D01*
X154651676Y-71956929D01*
X154651677Y-71956930D01*
X154651678Y-71956932D01*
X154735569Y-72040823D01*
X154842157Y-72092932D01*
X154842158Y-72092932D01*
X154842160Y-72092933D01*
X154911258Y-72103000D01*
X154911264Y-72103000D01*
X155288736Y-72103000D01*
X155288742Y-72103000D01*
X155357840Y-72092933D01*
X155464429Y-72040824D01*
X155464430Y-72040823D01*
X155464432Y-72040822D01*
X155548322Y-71956932D01*
X155548323Y-71956930D01*
X155548324Y-71956929D01*
X155600433Y-71850340D01*
X155610500Y-71781242D01*
X155610500Y-71288758D01*
X155600433Y-71219660D01*
X155588610Y-71195477D01*
X155548323Y-71113069D01*
X155490435Y-71055181D01*
X155456950Y-70993858D01*
X155461934Y-70924166D01*
X155490435Y-70879819D01*
X155548322Y-70821932D01*
X155548323Y-70821930D01*
X155548324Y-70821929D01*
X155600433Y-70715340D01*
X155610500Y-70646242D01*
X155610500Y-70153758D01*
X155600433Y-70084660D01*
X155595563Y-70074699D01*
X155574100Y-70030795D01*
X155548324Y-69978071D01*
X155485185Y-69914932D01*
X155451702Y-69853612D01*
X155456686Y-69783920D01*
X155462380Y-69770964D01*
X155485646Y-69725304D01*
X155496493Y-69656818D01*
X155505492Y-69600003D01*
X155505492Y-69599996D01*
X155485647Y-69474699D01*
X155485647Y-69474698D01*
X155477191Y-69458103D01*
X155428050Y-69361658D01*
X155428046Y-69361654D01*
X155428045Y-69361652D01*
X155338347Y-69271954D01*
X155338344Y-69271952D01*
X155338342Y-69271950D01*
X155225304Y-69214354D01*
X155225303Y-69214353D01*
X155225300Y-69214352D01*
X155100003Y-69194508D01*
X155099997Y-69194508D01*
X154974699Y-69214352D01*
X154974698Y-69214352D01*
X154904233Y-69250257D01*
X154861658Y-69271950D01*
X154861657Y-69271951D01*
X154861652Y-69271954D01*
X154828081Y-69305526D01*
X154766758Y-69339011D01*
X154697066Y-69334027D01*
X154641133Y-69292155D01*
X154616716Y-69226691D01*
X154629915Y-69161550D01*
X154635646Y-69150304D01*
X154639171Y-69128048D01*
X154655492Y-69025003D01*
X154655492Y-69024997D01*
X154634728Y-68893898D01*
X154643683Y-68824604D01*
X154688679Y-68771152D01*
X154755431Y-68750513D01*
X154757201Y-68750500D01*
X154782746Y-68750500D01*
X154849785Y-68770185D01*
X154870428Y-68786820D01*
X154911653Y-68828046D01*
X154911655Y-68828047D01*
X154911658Y-68828050D01*
X155024696Y-68885646D01*
X155024697Y-68885646D01*
X155024699Y-68885647D01*
X155149997Y-68905492D01*
X155150000Y-68905492D01*
X155150003Y-68905492D01*
X155275300Y-68885647D01*
X155275301Y-68885647D01*
X155275302Y-68885646D01*
X155275304Y-68885646D01*
X155388342Y-68828050D01*
X155478050Y-68738342D01*
X155535646Y-68625304D01*
X155535646Y-68625302D01*
X155535647Y-68625301D01*
X155535647Y-68625300D01*
X155555492Y-68500003D01*
X155555492Y-68499996D01*
X155535647Y-68374699D01*
X155535647Y-68374698D01*
X155527191Y-68358103D01*
X155478050Y-68261658D01*
X155478046Y-68261654D01*
X155478045Y-68261652D01*
X155388347Y-68171954D01*
X155388344Y-68171952D01*
X155388342Y-68171950D01*
X155275304Y-68114354D01*
X155275303Y-68114353D01*
X155275300Y-68114352D01*
X155150003Y-68094508D01*
X155149997Y-68094508D01*
X155024699Y-68114352D01*
X155024698Y-68114352D01*
X154949337Y-68152751D01*
X154911658Y-68171950D01*
X154911657Y-68171951D01*
X154911653Y-68171953D01*
X154870428Y-68213180D01*
X154809105Y-68246666D01*
X154782746Y-68249500D01*
X150164270Y-68249500D01*
X150164262Y-68249499D01*
X150149828Y-68249499D01*
X150050173Y-68249499D01*
X150050172Y-68249499D01*
X150023206Y-68260669D01*
X149996240Y-68271839D01*
X149958103Y-68287636D01*
X149958101Y-68287637D01*
X149887635Y-68358104D01*
X149696752Y-68548986D01*
X149635429Y-68582471D01*
X149565737Y-68577487D01*
X149509804Y-68535615D01*
X149486598Y-68480702D01*
X149485647Y-68474699D01*
X149485647Y-68474698D01*
X149484247Y-68471950D01*
X149428050Y-68361658D01*
X149428046Y-68361654D01*
X149428045Y-68361652D01*
X149338347Y-68271954D01*
X149338344Y-68271952D01*
X149338342Y-68271950D01*
X149225304Y-68214354D01*
X149225303Y-68214353D01*
X149225300Y-68214352D01*
X149100003Y-68194508D01*
X149099997Y-68194508D01*
X148974699Y-68214352D01*
X148974698Y-68214352D01*
X148911280Y-68246666D01*
X148861658Y-68271950D01*
X148861657Y-68271951D01*
X148861652Y-68271954D01*
X148771954Y-68361652D01*
X148771951Y-68361657D01*
X148771950Y-68361658D01*
X148755212Y-68394508D01*
X148714352Y-68474698D01*
X148714352Y-68474699D01*
X148694508Y-68599996D01*
X148694508Y-68600003D01*
X148714352Y-68725300D01*
X148714352Y-68725301D01*
X148727192Y-68750500D01*
X148771950Y-68838342D01*
X148771952Y-68838344D01*
X148771954Y-68838347D01*
X148861652Y-68928045D01*
X148861654Y-68928046D01*
X148861658Y-68928050D01*
X148974696Y-68985646D01*
X148974697Y-68985646D01*
X148974699Y-68985647D01*
X149099997Y-69005492D01*
X149099998Y-69005492D01*
X149099998Y-69005491D01*
X149100000Y-69005492D01*
X149103597Y-69004922D01*
X149108008Y-69005492D01*
X149109759Y-69005492D01*
X149109759Y-69005718D01*
X149172889Y-69013873D01*
X149226343Y-69058865D01*
X149246987Y-69125616D01*
X149247000Y-69127394D01*
X149247000Y-70496857D01*
X149227315Y-70563896D01*
X149174511Y-70609651D01*
X149105353Y-70619595D01*
X149098814Y-70618475D01*
X149091397Y-70617000D01*
X148903610Y-70617000D01*
X148825430Y-70632550D01*
X148816387Y-70638593D01*
X148749709Y-70659468D01*
X148682329Y-70640981D01*
X148678611Y-70638591D01*
X148669570Y-70632550D01*
X148669567Y-70632549D01*
X148591395Y-70617000D01*
X148403610Y-70617000D01*
X148325430Y-70632550D01*
X148236782Y-70691783D01*
X148177550Y-70780430D01*
X148177548Y-70780434D01*
X148162000Y-70858602D01*
X148162000Y-71606389D01*
X148177550Y-71684570D01*
X148182119Y-71691407D01*
X148202995Y-71758085D01*
X148200633Y-71784483D01*
X148197000Y-71802749D01*
X148197000Y-71963000D01*
X148177315Y-72030039D01*
X148124511Y-72075794D01*
X148073000Y-72087000D01*
X147433610Y-72087000D01*
X147355430Y-72102550D01*
X147266782Y-72161783D01*
X147207550Y-72250430D01*
X147207548Y-72250434D01*
X147192000Y-72328603D01*
X147192000Y-72405633D01*
X147172315Y-72472672D01*
X147119511Y-72518427D01*
X147050353Y-72528371D01*
X146986797Y-72499346D01*
X146958369Y-72463573D01*
X146954117Y-72455529D01*
X146954116Y-72455525D01*
X146875711Y-72349289D01*
X146875710Y-72349288D01*
X146769476Y-72270884D01*
X146644848Y-72227274D01*
X146644849Y-72227274D01*
X146615260Y-72224500D01*
X146615256Y-72224500D01*
X145909744Y-72224500D01*
X145909740Y-72224500D01*
X145880150Y-72227274D01*
X145755523Y-72270884D01*
X145649289Y-72349288D01*
X145649288Y-72349289D01*
X145570884Y-72455523D01*
X145527274Y-72580150D01*
X145524500Y-72609739D01*
X145524500Y-73190260D01*
X145527274Y-73219849D01*
X145570884Y-73344476D01*
X145649288Y-73450710D01*
X145649289Y-73450711D01*
X145733146Y-73512600D01*
X145775397Y-73568247D01*
X145780856Y-73637903D01*
X145747789Y-73699453D01*
X145747195Y-73700051D01*
X145661676Y-73785570D01*
X145609567Y-73892157D01*
X145609567Y-73892160D01*
X145599500Y-73961258D01*
X145599500Y-74338742D01*
X145607050Y-74390565D01*
X145609567Y-74407842D01*
X145661676Y-74514430D01*
X145745569Y-74598323D01*
X145852157Y-74650432D01*
X145852158Y-74650432D01*
X145852160Y-74650433D01*
X145921258Y-74660500D01*
X145921264Y-74660500D01*
X146325500Y-74660500D01*
X146392539Y-74680185D01*
X146438294Y-74732989D01*
X146449500Y-74784500D01*
X146449500Y-77549829D01*
X146487636Y-77641897D01*
X146633558Y-77787819D01*
X146667043Y-77849142D01*
X146662059Y-77918834D01*
X146620187Y-77974767D01*
X146554723Y-77999184D01*
X146545877Y-77999500D01*
X145881999Y-77999500D01*
X145814960Y-77979815D01*
X145769205Y-77927011D01*
X145757999Y-77875500D01*
X145757999Y-77805786D01*
X145757815Y-77804523D01*
X145747791Y-77735714D01*
X145747789Y-77735709D01*
X145747789Y-77735708D01*
X145694951Y-77627627D01*
X145694949Y-77627624D01*
X145655006Y-77587681D01*
X145621521Y-77526358D01*
X145626505Y-77456666D01*
X145655006Y-77412319D01*
X145694949Y-77372375D01*
X145694951Y-77372372D01*
X145727502Y-77305788D01*
X145747791Y-77264286D01*
X145758000Y-77194215D01*
X145757999Y-76805786D01*
X145747791Y-76735714D01*
X145747789Y-76735709D01*
X145747789Y-76735708D01*
X145694951Y-76627627D01*
X145694949Y-76627624D01*
X145609875Y-76542550D01*
X145609872Y-76542548D01*
X145501789Y-76489710D01*
X145501787Y-76489709D01*
X145501786Y-76489709D01*
X145431715Y-76479500D01*
X145431709Y-76479500D01*
X144968286Y-76479500D01*
X144918842Y-76486703D01*
X144898214Y-76489709D01*
X144898212Y-76489709D01*
X144898210Y-76489710D01*
X144898208Y-76489710D01*
X144790127Y-76542548D01*
X144790124Y-76542550D01*
X144705050Y-76627624D01*
X144705048Y-76627627D01*
X144652210Y-76735710D01*
X144652209Y-76735712D01*
X144652209Y-76735714D01*
X144642000Y-76805785D01*
X144642000Y-76805789D01*
X144642000Y-76805790D01*
X144642000Y-77194213D01*
X144648154Y-77236453D01*
X144652209Y-77264286D01*
X144652209Y-77264287D01*
X144652210Y-77264289D01*
X144652210Y-77264291D01*
X144705048Y-77372372D01*
X144705050Y-77372375D01*
X144744994Y-77412319D01*
X144778479Y-77473642D01*
X144773495Y-77543334D01*
X144744994Y-77587681D01*
X144705049Y-77627625D01*
X144703414Y-77629916D01*
X144700377Y-77632297D01*
X144697785Y-77634890D01*
X144697471Y-77634576D01*
X144648436Y-77673035D01*
X144578875Y-77679587D01*
X144516814Y-77647490D01*
X144501586Y-77629916D01*
X144499950Y-77627625D01*
X144414875Y-77542550D01*
X144414872Y-77542548D01*
X144306789Y-77489710D01*
X144306787Y-77489709D01*
X144306786Y-77489709D01*
X144236715Y-77479500D01*
X144236709Y-77479500D01*
X143773286Y-77479500D01*
X143723842Y-77486703D01*
X143703214Y-77489709D01*
X143703212Y-77489709D01*
X143703210Y-77489710D01*
X143621785Y-77529516D01*
X143552912Y-77541274D01*
X143488615Y-77513931D01*
X143449309Y-77456166D01*
X143443327Y-77418674D01*
X143443298Y-77412319D01*
X143404504Y-68799996D01*
X147189508Y-68799996D01*
X147189508Y-68800003D01*
X147209352Y-68925300D01*
X147209352Y-68925301D01*
X147210752Y-68928048D01*
X147266950Y-69038342D01*
X147266952Y-69038344D01*
X147266954Y-69038347D01*
X147356652Y-69128045D01*
X147356654Y-69128046D01*
X147356658Y-69128050D01*
X147469696Y-69185646D01*
X147469697Y-69185646D01*
X147469699Y-69185647D01*
X147594997Y-69205492D01*
X147595000Y-69205492D01*
X147595003Y-69205492D01*
X147720300Y-69185647D01*
X147720301Y-69185647D01*
X147720302Y-69185646D01*
X147720304Y-69185646D01*
X147833342Y-69128050D01*
X147923050Y-69038342D01*
X147980646Y-68925304D01*
X147980646Y-68925302D01*
X147980647Y-68925301D01*
X147980647Y-68925300D01*
X148000492Y-68800003D01*
X148000492Y-68799996D01*
X147980647Y-68674699D01*
X147980647Y-68674698D01*
X147980646Y-68674696D01*
X147923050Y-68561658D01*
X147923046Y-68561654D01*
X147923045Y-68561652D01*
X147833347Y-68471954D01*
X147833344Y-68471952D01*
X147833342Y-68471950D01*
X147720304Y-68414354D01*
X147720303Y-68414353D01*
X147720300Y-68414352D01*
X147595003Y-68394508D01*
X147594997Y-68394508D01*
X147469699Y-68414352D01*
X147469698Y-68414352D01*
X147394337Y-68452751D01*
X147356658Y-68471950D01*
X147356657Y-68471951D01*
X147356652Y-68471954D01*
X147266954Y-68561652D01*
X147266951Y-68561657D01*
X147209352Y-68674698D01*
X147209352Y-68674699D01*
X147189508Y-68799996D01*
X143404504Y-68799996D01*
X143400561Y-67924558D01*
X143419944Y-67857431D01*
X143472541Y-67811439D01*
X143524560Y-67800000D01*
X147683644Y-67800000D01*
X147713317Y-67803602D01*
G37*
%TD.AperFunction*%
%TD*%
%TA.AperFunction,Conductor*%
%TO.N,PHASE_A*%
G36*
X146037539Y-48220185D02*
G01*
X146083294Y-48272989D01*
X146094500Y-48324500D01*
X146094500Y-56776007D01*
X146099197Y-56819686D01*
X146110397Y-56871174D01*
X146112890Y-56881372D01*
X146112891Y-56881375D01*
X146155899Y-56962083D01*
X146155901Y-56962086D01*
X146201660Y-57014895D01*
X146219242Y-57032839D01*
X146219246Y-57032843D01*
X146219247Y-57032844D01*
X146219249Y-57032845D01*
X146299059Y-57077488D01*
X146299063Y-57077490D01*
X146366102Y-57097175D01*
X146424000Y-57105500D01*
X151170500Y-57105500D01*
X151237539Y-57125185D01*
X151283294Y-57177989D01*
X151294500Y-57229500D01*
X151294500Y-62170500D01*
X151274815Y-62237539D01*
X151222011Y-62283294D01*
X151170500Y-62294500D01*
X149587114Y-62294500D01*
X149537955Y-62300468D01*
X149537928Y-62300473D01*
X149533975Y-62301447D01*
X149531228Y-62301325D01*
X149368650Y-62341397D01*
X149338976Y-62345000D01*
X149261024Y-62345000D01*
X149231350Y-62341397D01*
X149073327Y-62302449D01*
X149066092Y-62301464D01*
X149062056Y-62300470D01*
X149062052Y-62300469D01*
X149062050Y-62300469D01*
X149062044Y-62300468D01*
X149012885Y-62294500D01*
X149012882Y-62294500D01*
X143729500Y-62294500D01*
X143662461Y-62274815D01*
X143616706Y-62222011D01*
X143605500Y-62170500D01*
X143605500Y-57705785D01*
X147447000Y-57705785D01*
X147447000Y-57705789D01*
X147447000Y-57705790D01*
X147447000Y-58094213D01*
X147448264Y-58102885D01*
X147457209Y-58164286D01*
X147457209Y-58164287D01*
X147457210Y-58164289D01*
X147457210Y-58164291D01*
X147510048Y-58272372D01*
X147510050Y-58272375D01*
X147595124Y-58357449D01*
X147595127Y-58357451D01*
X147698701Y-58408084D01*
X147703214Y-58410291D01*
X147773285Y-58420500D01*
X148236714Y-58420499D01*
X148306786Y-58410291D01*
X148306790Y-58410289D01*
X148306791Y-58410289D01*
X148414872Y-58357451D01*
X148414875Y-58357449D01*
X148499947Y-58272377D01*
X148499949Y-58272375D01*
X148499950Y-58272372D01*
X148501583Y-58270087D01*
X148504620Y-58267704D01*
X148507215Y-58265110D01*
X148507528Y-58265423D01*
X148556558Y-58226966D01*
X148626120Y-58220411D01*
X148688182Y-58252505D01*
X148703417Y-58270087D01*
X148705052Y-58272377D01*
X148790124Y-58357449D01*
X148790127Y-58357451D01*
X148893701Y-58408084D01*
X148898214Y-58410291D01*
X148968285Y-58420500D01*
X149431714Y-58420499D01*
X149501786Y-58410291D01*
X149501790Y-58410289D01*
X149501791Y-58410289D01*
X149609872Y-58357451D01*
X149609875Y-58357449D01*
X149694949Y-58272375D01*
X149694951Y-58272372D01*
X149722999Y-58214999D01*
X149747791Y-58164286D01*
X149758000Y-58094215D01*
X149757999Y-57705786D01*
X149747791Y-57635714D01*
X149747789Y-57635709D01*
X149747789Y-57635708D01*
X149694951Y-57527627D01*
X149694949Y-57527624D01*
X149609875Y-57442550D01*
X149609872Y-57442548D01*
X149501789Y-57389710D01*
X149501787Y-57389709D01*
X149501786Y-57389709D01*
X149431715Y-57379500D01*
X149431709Y-57379500D01*
X148968286Y-57379500D01*
X148918842Y-57386703D01*
X148898214Y-57389709D01*
X148898212Y-57389709D01*
X148898210Y-57389710D01*
X148898208Y-57389710D01*
X148790127Y-57442548D01*
X148790124Y-57442550D01*
X148705049Y-57527625D01*
X148703414Y-57529916D01*
X148700377Y-57532297D01*
X148697785Y-57534890D01*
X148697471Y-57534576D01*
X148648436Y-57573035D01*
X148578875Y-57579587D01*
X148516814Y-57547490D01*
X148501586Y-57529916D01*
X148499950Y-57527625D01*
X148414875Y-57442550D01*
X148414872Y-57442548D01*
X148306789Y-57389710D01*
X148306787Y-57389709D01*
X148306786Y-57389709D01*
X148236715Y-57379500D01*
X148236709Y-57379500D01*
X147773286Y-57379500D01*
X147723842Y-57386703D01*
X147703214Y-57389709D01*
X147703212Y-57389709D01*
X147703210Y-57389710D01*
X147703208Y-57389710D01*
X147595127Y-57442548D01*
X147595124Y-57442550D01*
X147510050Y-57527624D01*
X147510048Y-57527627D01*
X147457210Y-57635710D01*
X147457209Y-57635712D01*
X147457209Y-57635714D01*
X147447000Y-57705785D01*
X143605500Y-57705785D01*
X143605500Y-51824008D01*
X143605499Y-51823992D01*
X143603198Y-51802595D01*
X143600803Y-51780316D01*
X143596897Y-51762364D01*
X143589602Y-51728825D01*
X143589348Y-51727789D01*
X143587110Y-51718627D01*
X143544100Y-51637915D01*
X143498345Y-51585111D01*
X143498339Y-51585104D01*
X143480757Y-51567160D01*
X143480756Y-51567159D01*
X143480754Y-51567157D01*
X143480752Y-51567156D01*
X143480750Y-51567154D01*
X143400940Y-51522511D01*
X143400935Y-51522509D01*
X143400000Y-51522234D01*
X143400000Y-48200500D01*
X145970500Y-48200500D01*
X146037539Y-48220185D01*
G37*
%TD.AperFunction*%
%TD*%
%TA.AperFunction,Conductor*%
%TO.N,VDC*%
G36*
X143343039Y-51719685D02*
G01*
X143388794Y-51772489D01*
X143400000Y-51824000D01*
X143400000Y-67548898D01*
X143380315Y-67615937D01*
X143342025Y-67651384D01*
X143342989Y-67652774D01*
X143337265Y-67656742D01*
X143284684Y-67702720D01*
X143284682Y-67702722D01*
X143266798Y-67720403D01*
X143222744Y-67800000D01*
X140200500Y-67800000D01*
X140200500Y-51824000D01*
X140220185Y-51756961D01*
X140272989Y-51711206D01*
X140324500Y-51700000D01*
X143276000Y-51700000D01*
X143343039Y-51719685D01*
G37*
%TD.AperFunction*%
%TD*%
%TA.AperFunction,Conductor*%
%TO.N,PHASE_B*%
G36*
X152743039Y-48220185D02*
G01*
X152788794Y-48272989D01*
X152800000Y-48324500D01*
X152800000Y-48399908D01*
X152791942Y-48443879D01*
X152763763Y-48518181D01*
X152744722Y-48674999D01*
X152744722Y-48675000D01*
X152763762Y-48831817D01*
X152776196Y-48864603D01*
X152791942Y-48906122D01*
X152800000Y-48950090D01*
X152800000Y-49399908D01*
X152791942Y-49443879D01*
X152763763Y-49518181D01*
X152744722Y-49674999D01*
X152744722Y-49675000D01*
X152763762Y-49831817D01*
X152776196Y-49864603D01*
X152791942Y-49906122D01*
X152800000Y-49950090D01*
X152800000Y-50399908D01*
X152791942Y-50443879D01*
X152763763Y-50518181D01*
X152744722Y-50674999D01*
X152744722Y-50675000D01*
X152763762Y-50831817D01*
X152776196Y-50864603D01*
X152791942Y-50906122D01*
X152800000Y-50950090D01*
X152800000Y-56776000D01*
X152780315Y-56843039D01*
X152727511Y-56888794D01*
X152676000Y-56900000D01*
X146424000Y-56900000D01*
X146356961Y-56880315D01*
X146311206Y-56827511D01*
X146300000Y-56776000D01*
X146300000Y-52205785D01*
X147647000Y-52205785D01*
X147647000Y-52205789D01*
X147647000Y-52205790D01*
X147647000Y-52594213D01*
X147653154Y-52636453D01*
X147657209Y-52664286D01*
X147657209Y-52664287D01*
X147657210Y-52664289D01*
X147657210Y-52664291D01*
X147710048Y-52772372D01*
X147710050Y-52772375D01*
X147795124Y-52857449D01*
X147795127Y-52857451D01*
X147898701Y-52908084D01*
X147903214Y-52910291D01*
X147973285Y-52920500D01*
X148436714Y-52920499D01*
X148506786Y-52910291D01*
X148506790Y-52910289D01*
X148506791Y-52910289D01*
X148614872Y-52857451D01*
X148614875Y-52857449D01*
X148699947Y-52772377D01*
X148699949Y-52772375D01*
X148699950Y-52772372D01*
X148701583Y-52770087D01*
X148704620Y-52767704D01*
X148707215Y-52765110D01*
X148707528Y-52765423D01*
X148756558Y-52726966D01*
X148826120Y-52720411D01*
X148888182Y-52752505D01*
X148903417Y-52770087D01*
X148905052Y-52772377D01*
X148990124Y-52857449D01*
X148990127Y-52857451D01*
X149093701Y-52908084D01*
X149098214Y-52910291D01*
X149168285Y-52920500D01*
X149631714Y-52920499D01*
X149701786Y-52910291D01*
X149701790Y-52910289D01*
X149701791Y-52910289D01*
X149809872Y-52857451D01*
X149809875Y-52857449D01*
X149894949Y-52772375D01*
X149894951Y-52772372D01*
X149921370Y-52718330D01*
X149947791Y-52664286D01*
X149958000Y-52594215D01*
X149957999Y-52205786D01*
X149947791Y-52135714D01*
X149947789Y-52135709D01*
X149947789Y-52135708D01*
X149894951Y-52027627D01*
X149894949Y-52027624D01*
X149809875Y-51942550D01*
X149809872Y-51942548D01*
X149701789Y-51889710D01*
X149701787Y-51889709D01*
X149701786Y-51889709D01*
X149631715Y-51879500D01*
X149631709Y-51879500D01*
X149168286Y-51879500D01*
X149118842Y-51886703D01*
X149098214Y-51889709D01*
X149098212Y-51889709D01*
X149098210Y-51889710D01*
X149098208Y-51889710D01*
X148990127Y-51942548D01*
X148990124Y-51942550D01*
X148905049Y-52027625D01*
X148903414Y-52029916D01*
X148900377Y-52032297D01*
X148897785Y-52034890D01*
X148897471Y-52034576D01*
X148848436Y-52073035D01*
X148778875Y-52079587D01*
X148716814Y-52047490D01*
X148701586Y-52029916D01*
X148699950Y-52027625D01*
X148614875Y-51942550D01*
X148614872Y-51942548D01*
X148506789Y-51889710D01*
X148506787Y-51889709D01*
X148506786Y-51889709D01*
X148436715Y-51879500D01*
X148436709Y-51879500D01*
X147973286Y-51879500D01*
X147923842Y-51886703D01*
X147903214Y-51889709D01*
X147903212Y-51889709D01*
X147903210Y-51889710D01*
X147903208Y-51889710D01*
X147795127Y-51942548D01*
X147795124Y-51942550D01*
X147710050Y-52027624D01*
X147710048Y-52027627D01*
X147657210Y-52135710D01*
X147657209Y-52135712D01*
X147657209Y-52135714D01*
X147647000Y-52205785D01*
X146300000Y-52205785D01*
X146300000Y-48324500D01*
X146319685Y-48257461D01*
X146372489Y-48211706D01*
X146424000Y-48200500D01*
X152676000Y-48200500D01*
X152743039Y-48220185D01*
G37*
%TD.AperFunction*%
%TD*%
%TA.AperFunction,Conductor*%
%TO.N,PHASE_C*%
G36*
X155741390Y-48220185D02*
G01*
X155787145Y-48272989D01*
X155798349Y-48325129D01*
X155784543Y-51044724D01*
X155764519Y-51111663D01*
X155711483Y-51157149D01*
X155642275Y-51166742D01*
X155604250Y-51154579D01*
X155572482Y-51138392D01*
X155525303Y-51114353D01*
X155525300Y-51114352D01*
X155400003Y-51094508D01*
X155399997Y-51094508D01*
X155274699Y-51114352D01*
X155274698Y-51114352D01*
X155199337Y-51152751D01*
X155161658Y-51171950D01*
X155161657Y-51171951D01*
X155161652Y-51171954D01*
X155071954Y-51261652D01*
X155071951Y-51261657D01*
X155014352Y-51374698D01*
X155014352Y-51374699D01*
X154994508Y-51499996D01*
X154994508Y-51500003D01*
X155014352Y-51625298D01*
X155014788Y-51626639D01*
X155014837Y-51628359D01*
X155015880Y-51634944D01*
X155015029Y-51635078D01*
X155016785Y-51696480D01*
X154980706Y-51756314D01*
X154918006Y-51787144D01*
X154914740Y-51787665D01*
X154900715Y-51789708D01*
X154900708Y-51789710D01*
X154792627Y-51842548D01*
X154792624Y-51842550D01*
X154707550Y-51927624D01*
X154707548Y-51927627D01*
X154654710Y-52035710D01*
X154654709Y-52035712D01*
X154654709Y-52035714D01*
X154644500Y-52105785D01*
X154644500Y-52105789D01*
X154644500Y-52105790D01*
X154644500Y-52494213D01*
X154647648Y-52515817D01*
X154654709Y-52564286D01*
X154654709Y-52564287D01*
X154654710Y-52564289D01*
X154654710Y-52564291D01*
X154707548Y-52672372D01*
X154707550Y-52672375D01*
X154792624Y-52757449D01*
X154792627Y-52757451D01*
X154876634Y-52798519D01*
X154900714Y-52810291D01*
X154970785Y-52820500D01*
X155434214Y-52820499D01*
X155443712Y-52819115D01*
X155512888Y-52828926D01*
X155565780Y-52874580D01*
X155585593Y-52941581D01*
X155585591Y-52942585D01*
X155579810Y-53878902D01*
X155571756Y-53922101D01*
X155563765Y-53943174D01*
X155563762Y-53943185D01*
X155544722Y-54099999D01*
X155544722Y-54100000D01*
X155563762Y-54256817D01*
X155569060Y-54270786D01*
X155577115Y-54315519D01*
X155573535Y-54895449D01*
X155565483Y-54938644D01*
X155563763Y-54943180D01*
X155544722Y-55099999D01*
X155544722Y-55100000D01*
X155563763Y-55256819D01*
X155565557Y-55264097D01*
X155564704Y-55264307D01*
X155571041Y-55299502D01*
X155567243Y-55914760D01*
X155564631Y-55935732D01*
X155564667Y-55935737D01*
X155544722Y-56099999D01*
X155544722Y-56100000D01*
X155564115Y-56259720D01*
X155565017Y-56275431D01*
X155563141Y-56579365D01*
X155543043Y-56646282D01*
X155489957Y-56691710D01*
X155458542Y-56701073D01*
X155374698Y-56714353D01*
X155374696Y-56714353D01*
X155374696Y-56714354D01*
X155261658Y-56771950D01*
X155261657Y-56771951D01*
X155261652Y-56771954D01*
X155171954Y-56861652D01*
X155171951Y-56861657D01*
X155114352Y-56974698D01*
X155114352Y-56974699D01*
X155094508Y-57099996D01*
X155094508Y-57100003D01*
X155114352Y-57225300D01*
X155114901Y-57226988D01*
X155114962Y-57229153D01*
X155115880Y-57234944D01*
X155115131Y-57235062D01*
X155116898Y-57296829D01*
X155080819Y-57356663D01*
X155018119Y-57387492D01*
X155014852Y-57388013D01*
X155003215Y-57389708D01*
X155003208Y-57389710D01*
X154895127Y-57442548D01*
X154895124Y-57442550D01*
X154810050Y-57527624D01*
X154810048Y-57527627D01*
X154757210Y-57635710D01*
X154757209Y-57635712D01*
X154757209Y-57635714D01*
X154747000Y-57705785D01*
X154747000Y-57705789D01*
X154747000Y-57705790D01*
X154747000Y-58094213D01*
X154753154Y-58136453D01*
X154757209Y-58164286D01*
X154757209Y-58164287D01*
X154757210Y-58164289D01*
X154757210Y-58164291D01*
X154810048Y-58272372D01*
X154810050Y-58272375D01*
X154895124Y-58357449D01*
X154895127Y-58357451D01*
X154998701Y-58408084D01*
X155003214Y-58410291D01*
X155073285Y-58420500D01*
X155427007Y-58420499D01*
X155494046Y-58440183D01*
X155539801Y-58492987D01*
X155551005Y-58545265D01*
X155547127Y-59173433D01*
X155546226Y-59187604D01*
X155544722Y-59199998D01*
X155544722Y-59200003D01*
X155545905Y-59209748D01*
X155546807Y-59225457D01*
X155529156Y-62084748D01*
X155509058Y-62151665D01*
X155455972Y-62197093D01*
X155424556Y-62206456D01*
X155374699Y-62214352D01*
X155374698Y-62214352D01*
X155299337Y-62252751D01*
X155261658Y-62271950D01*
X155261657Y-62271951D01*
X155261652Y-62271954D01*
X155171954Y-62361652D01*
X155171951Y-62361657D01*
X155114352Y-62474698D01*
X155114352Y-62474699D01*
X155094508Y-62599996D01*
X155094508Y-62600003D01*
X155114352Y-62725300D01*
X155114901Y-62726988D01*
X155114962Y-62729153D01*
X155115880Y-62734944D01*
X155115131Y-62735062D01*
X155116898Y-62796829D01*
X155080819Y-62856663D01*
X155018119Y-62887492D01*
X155014852Y-62888013D01*
X155003215Y-62889708D01*
X155003208Y-62889710D01*
X154895127Y-62942548D01*
X154895124Y-62942550D01*
X154810050Y-63027624D01*
X154810048Y-63027627D01*
X154757210Y-63135710D01*
X154757209Y-63135712D01*
X154757209Y-63135714D01*
X154747000Y-63205785D01*
X154747000Y-63205789D01*
X154747000Y-63205790D01*
X154747000Y-63594213D01*
X154753154Y-63636453D01*
X154757209Y-63664286D01*
X154757209Y-63664287D01*
X154757210Y-63664289D01*
X154757210Y-63664291D01*
X154810048Y-63772372D01*
X154810050Y-63772375D01*
X154895124Y-63857449D01*
X154895127Y-63857451D01*
X154998701Y-63908084D01*
X155003214Y-63910291D01*
X155073285Y-63920500D01*
X155393057Y-63920499D01*
X155460096Y-63940183D01*
X155505851Y-63992987D01*
X155517055Y-64045264D01*
X155495908Y-67471265D01*
X155475810Y-67538182D01*
X155422724Y-67583610D01*
X155371910Y-67594500D01*
X151500000Y-67594500D01*
X151500000Y-57229500D01*
X151519685Y-57162461D01*
X151572489Y-57116706D01*
X151624000Y-57105500D01*
X152675991Y-57105500D01*
X152676000Y-57105500D01*
X152719684Y-57100803D01*
X152748875Y-57094452D01*
X152771174Y-57089602D01*
X152771190Y-57089598D01*
X152771195Y-57089597D01*
X152781373Y-57087110D01*
X152862085Y-57044100D01*
X152914889Y-56998345D01*
X152932843Y-56980754D01*
X152977490Y-56900937D01*
X152997175Y-56833898D01*
X153005500Y-56776000D01*
X153005500Y-50950090D01*
X153002133Y-50913045D01*
X152994075Y-50869077D01*
X152984088Y-50833251D01*
X152984081Y-50833232D01*
X152970095Y-50796352D01*
X152962941Y-50767329D01*
X152953545Y-50689940D01*
X152953545Y-50660060D01*
X152962942Y-50582659D01*
X152970093Y-50553649D01*
X152984088Y-50516750D01*
X152994076Y-50480921D01*
X153002134Y-50436950D01*
X153005500Y-50399908D01*
X153005500Y-49950090D01*
X153002133Y-49913045D01*
X152994075Y-49869077D01*
X152984088Y-49833251D01*
X152984081Y-49833232D01*
X152970095Y-49796352D01*
X152962941Y-49767329D01*
X152953545Y-49689940D01*
X152953545Y-49660060D01*
X152962942Y-49582659D01*
X152970093Y-49553649D01*
X152984088Y-49516750D01*
X152994076Y-49480921D01*
X153002134Y-49436950D01*
X153005500Y-49399908D01*
X153005500Y-48950090D01*
X153002133Y-48913045D01*
X152994075Y-48869077D01*
X152984088Y-48833251D01*
X152984081Y-48833232D01*
X152970095Y-48796352D01*
X152962941Y-48767329D01*
X152953545Y-48689940D01*
X152953545Y-48660060D01*
X152962942Y-48582659D01*
X152970093Y-48553649D01*
X152984088Y-48516750D01*
X152994076Y-48480921D01*
X153002134Y-48436950D01*
X153005500Y-48399908D01*
X153005500Y-48324500D01*
X153025185Y-48257461D01*
X153077989Y-48211706D01*
X153129500Y-48200500D01*
X155674351Y-48200500D01*
X155741390Y-48220185D01*
G37*
%TD.AperFunction*%
%TD*%
%TA.AperFunction,Conductor*%
%TO.N,GND*%
G36*
X158742539Y-51519685D02*
G01*
X158788294Y-51572489D01*
X158799500Y-51624000D01*
X158799500Y-67700000D01*
X155700001Y-67700000D01*
X155700002Y-67699675D01*
X155723460Y-63899459D01*
X155743557Y-63832546D01*
X155759772Y-63812551D01*
X155799949Y-63772375D01*
X155799951Y-63772369D01*
X155801579Y-63770091D01*
X155804612Y-63767710D01*
X155807215Y-63765109D01*
X155807529Y-63765423D01*
X155856552Y-63726967D01*
X155926114Y-63720409D01*
X155988177Y-63752501D01*
X156003415Y-63770084D01*
X156005052Y-63772377D01*
X156090124Y-63857449D01*
X156090127Y-63857451D01*
X156176057Y-63899459D01*
X156198214Y-63910291D01*
X156268285Y-63920500D01*
X156731714Y-63920499D01*
X156801786Y-63910291D01*
X156801790Y-63910289D01*
X156801791Y-63910289D01*
X156909872Y-63857451D01*
X156909875Y-63857449D01*
X156994949Y-63772375D01*
X156994951Y-63772372D01*
X157021370Y-63718330D01*
X157047791Y-63664286D01*
X157058000Y-63594215D01*
X157057999Y-63205786D01*
X157047791Y-63135714D01*
X157047789Y-63135709D01*
X157047789Y-63135708D01*
X156994951Y-63027627D01*
X156994949Y-63027624D01*
X156909875Y-62942550D01*
X156909872Y-62942548D01*
X156801789Y-62889710D01*
X156801787Y-62889709D01*
X156801786Y-62889709D01*
X156731715Y-62879500D01*
X156731709Y-62879500D01*
X156268286Y-62879500D01*
X156218842Y-62886703D01*
X156198214Y-62889709D01*
X156198212Y-62889709D01*
X156198210Y-62889710D01*
X156198208Y-62889710D01*
X156090127Y-62942548D01*
X156090124Y-62942550D01*
X156012181Y-63020494D01*
X155950858Y-63053979D01*
X155881166Y-63048995D01*
X155825233Y-63007123D01*
X155800816Y-62941659D01*
X155800500Y-62932813D01*
X155800500Y-62916551D01*
X155820185Y-62849512D01*
X155824181Y-62843666D01*
X155828044Y-62838347D01*
X155828050Y-62838342D01*
X155885646Y-62725304D01*
X155885646Y-62725302D01*
X155885647Y-62725301D01*
X155885647Y-62725300D01*
X155905492Y-62600003D01*
X155905492Y-62599996D01*
X155885647Y-62474699D01*
X155885647Y-62474698D01*
X155885646Y-62474696D01*
X155828050Y-62361658D01*
X155828046Y-62361654D01*
X155828045Y-62361652D01*
X155770172Y-62303779D01*
X155736687Y-62242456D01*
X155733855Y-62215341D01*
X155757621Y-58365296D01*
X155777718Y-58298385D01*
X155793934Y-58278389D01*
X155799949Y-58272375D01*
X155799952Y-58272368D01*
X155801576Y-58270095D01*
X155804604Y-58267718D01*
X155807220Y-58265104D01*
X155807535Y-58265419D01*
X155856547Y-58226969D01*
X155926108Y-58220408D01*
X155988173Y-58252497D01*
X156003415Y-58270084D01*
X156005052Y-58272377D01*
X156090124Y-58357449D01*
X156090127Y-58357451D01*
X156193701Y-58408084D01*
X156198214Y-58410291D01*
X156268285Y-58420500D01*
X156731714Y-58420499D01*
X156801786Y-58410291D01*
X156801790Y-58410289D01*
X156801791Y-58410289D01*
X156909872Y-58357451D01*
X156909875Y-58357449D01*
X156994949Y-58272375D01*
X156994951Y-58272372D01*
X157021370Y-58218330D01*
X157047791Y-58164286D01*
X157058000Y-58094215D01*
X157057999Y-57705786D01*
X157047791Y-57635714D01*
X157047789Y-57635709D01*
X157047789Y-57635708D01*
X156994951Y-57527627D01*
X156994949Y-57527624D01*
X156909875Y-57442550D01*
X156909872Y-57442548D01*
X156801789Y-57389710D01*
X156801787Y-57389709D01*
X156801786Y-57389709D01*
X156731715Y-57379500D01*
X156731709Y-57379500D01*
X156268286Y-57379500D01*
X156218842Y-57386703D01*
X156198214Y-57389709D01*
X156198212Y-57389709D01*
X156198210Y-57389710D01*
X156198208Y-57389710D01*
X156090127Y-57442548D01*
X156090124Y-57442550D01*
X156012181Y-57520494D01*
X155950858Y-57553979D01*
X155881166Y-57548995D01*
X155825233Y-57507123D01*
X155800816Y-57441659D01*
X155800500Y-57432813D01*
X155800500Y-57416551D01*
X155820185Y-57349512D01*
X155824181Y-57343666D01*
X155828044Y-57338347D01*
X155828050Y-57338342D01*
X155885646Y-57225304D01*
X155885646Y-57225302D01*
X155885647Y-57225301D01*
X155885647Y-57225300D01*
X155905492Y-57100003D01*
X155905492Y-57099996D01*
X155885647Y-56974699D01*
X155885647Y-56974698D01*
X155885646Y-56974696D01*
X155828050Y-56861658D01*
X155803913Y-56837521D01*
X155770429Y-56776201D01*
X155767598Y-56749087D01*
X155791619Y-52857632D01*
X155811717Y-52790717D01*
X155864803Y-52745289D01*
X155934021Y-52735772D01*
X155978069Y-52753598D01*
X155978393Y-52752937D01*
X156091807Y-52808381D01*
X156095714Y-52810291D01*
X156165785Y-52820500D01*
X156629214Y-52820499D01*
X156699286Y-52810291D01*
X156699290Y-52810289D01*
X156699291Y-52810289D01*
X156807372Y-52757451D01*
X156807375Y-52757449D01*
X156892449Y-52672375D01*
X156892451Y-52672372D01*
X156918870Y-52618330D01*
X156945291Y-52564286D01*
X156955500Y-52494215D01*
X156955499Y-52105786D01*
X156945291Y-52035714D01*
X156945289Y-52035709D01*
X156945289Y-52035708D01*
X156892451Y-51927627D01*
X156892449Y-51927624D01*
X156807375Y-51842550D01*
X156807372Y-51842548D01*
X156699289Y-51789710D01*
X156699287Y-51789709D01*
X156699286Y-51789709D01*
X156629215Y-51779500D01*
X156629209Y-51779500D01*
X156165786Y-51779500D01*
X156116342Y-51786703D01*
X156095714Y-51789709D01*
X156095712Y-51789709D01*
X156095710Y-51789710D01*
X156095708Y-51789710D01*
X155978393Y-51847063D01*
X155976783Y-51843770D01*
X155928545Y-51860511D01*
X155860631Y-51844095D01*
X155812373Y-51793569D01*
X155798543Y-51735893D01*
X155799239Y-51623232D01*
X155819338Y-51556317D01*
X155872423Y-51510890D01*
X155923237Y-51500000D01*
X158675500Y-51500000D01*
X158742539Y-51519685D01*
G37*
%TD.AperFunction*%
%TD*%
%TA.AperFunction,Conductor*%
%TO.N,PHASE_C*%
G36*
X149060024Y-62511618D02*
G01*
X149060624Y-62510037D01*
X149067633Y-62512695D01*
X149067635Y-62512696D01*
X149221015Y-62550500D01*
X149378985Y-62550500D01*
X149532365Y-62512696D01*
X149532369Y-62512693D01*
X149539376Y-62510037D01*
X149539975Y-62511618D01*
X149587118Y-62500000D01*
X151500000Y-62500000D01*
X151500000Y-67594500D01*
X150916356Y-67594500D01*
X150916339Y-67594500D01*
X150916339Y-67594501D01*
X150891589Y-67595997D01*
X150866062Y-67599096D01*
X150851119Y-67600000D01*
X150748877Y-67600000D01*
X150733938Y-67599097D01*
X150708408Y-67595998D01*
X150708400Y-67595997D01*
X150683653Y-67594500D01*
X150683644Y-67594500D01*
X149863608Y-67594500D01*
X149863596Y-67594500D01*
X149847843Y-67595105D01*
X149828833Y-67596570D01*
X149757209Y-67615479D01*
X149693980Y-67645196D01*
X149693967Y-67645203D01*
X149676037Y-67657005D01*
X149665489Y-67663224D01*
X149572288Y-67712141D01*
X149544337Y-67722742D01*
X149506494Y-67732069D01*
X149468650Y-67741397D01*
X149438976Y-67745000D01*
X149361023Y-67745000D01*
X149331348Y-67741397D01*
X149308516Y-67735769D01*
X149255658Y-67722741D01*
X149227709Y-67712141D01*
X149207959Y-67701775D01*
X149152413Y-67672622D01*
X149135198Y-67661693D01*
X149127477Y-67655847D01*
X149061329Y-67622510D01*
X149061328Y-67622509D01*
X149061325Y-67622508D01*
X148994297Y-67602826D01*
X148993648Y-67602732D01*
X148936392Y-67594500D01*
X147916356Y-67594500D01*
X147916339Y-67594500D01*
X147916339Y-67594501D01*
X147891589Y-67595997D01*
X147866062Y-67599096D01*
X147851119Y-67600000D01*
X147748877Y-67600000D01*
X147733938Y-67599097D01*
X147708408Y-67595998D01*
X147708400Y-67595997D01*
X147683653Y-67594500D01*
X147683644Y-67594500D01*
X143729500Y-67594500D01*
X143662461Y-67574815D01*
X143616706Y-67522011D01*
X143605500Y-67470500D01*
X143605500Y-63205785D01*
X147444500Y-63205785D01*
X147444500Y-63205789D01*
X147444500Y-63205790D01*
X147444500Y-63594213D01*
X147450654Y-63636453D01*
X147454709Y-63664286D01*
X147454709Y-63664287D01*
X147454710Y-63664289D01*
X147454710Y-63664291D01*
X147507548Y-63772372D01*
X147507550Y-63772375D01*
X147592624Y-63857449D01*
X147592627Y-63857451D01*
X147696201Y-63908084D01*
X147700714Y-63910291D01*
X147770785Y-63920500D01*
X148234214Y-63920499D01*
X148304286Y-63910291D01*
X148304290Y-63910289D01*
X148304291Y-63910289D01*
X148412372Y-63857451D01*
X148412375Y-63857449D01*
X148497447Y-63772377D01*
X148497449Y-63772375D01*
X148497450Y-63772372D01*
X148499083Y-63770087D01*
X148502120Y-63767704D01*
X148504715Y-63765110D01*
X148505028Y-63765423D01*
X148554058Y-63726966D01*
X148623620Y-63720411D01*
X148685682Y-63752505D01*
X148700917Y-63770087D01*
X148702552Y-63772377D01*
X148787624Y-63857449D01*
X148787627Y-63857451D01*
X148891201Y-63908084D01*
X148895714Y-63910291D01*
X148965785Y-63920500D01*
X149429214Y-63920499D01*
X149499286Y-63910291D01*
X149499290Y-63910289D01*
X149499291Y-63910289D01*
X149607372Y-63857451D01*
X149607375Y-63857449D01*
X149692449Y-63772375D01*
X149692451Y-63772372D01*
X149718870Y-63718330D01*
X149745291Y-63664286D01*
X149755500Y-63594215D01*
X149755499Y-63205786D01*
X149745291Y-63135714D01*
X149745289Y-63135709D01*
X149745289Y-63135708D01*
X149692451Y-63027627D01*
X149692449Y-63027624D01*
X149607375Y-62942550D01*
X149607372Y-62942548D01*
X149499289Y-62889710D01*
X149499287Y-62889709D01*
X149499286Y-62889709D01*
X149429215Y-62879500D01*
X149429209Y-62879500D01*
X148965786Y-62879500D01*
X148916342Y-62886703D01*
X148895714Y-62889709D01*
X148895712Y-62889709D01*
X148895710Y-62889710D01*
X148895708Y-62889710D01*
X148787627Y-62942548D01*
X148787624Y-62942550D01*
X148702549Y-63027625D01*
X148700914Y-63029916D01*
X148697877Y-63032297D01*
X148695285Y-63034890D01*
X148694971Y-63034576D01*
X148645936Y-63073035D01*
X148576375Y-63079587D01*
X148514314Y-63047490D01*
X148499086Y-63029916D01*
X148497450Y-63027625D01*
X148412375Y-62942550D01*
X148412372Y-62942548D01*
X148304289Y-62889710D01*
X148304287Y-62889709D01*
X148304286Y-62889709D01*
X148234215Y-62879500D01*
X148234209Y-62879500D01*
X147770786Y-62879500D01*
X147721342Y-62886703D01*
X147700714Y-62889709D01*
X147700712Y-62889709D01*
X147700710Y-62889710D01*
X147700708Y-62889710D01*
X147592627Y-62942548D01*
X147592624Y-62942550D01*
X147507550Y-63027624D01*
X147507548Y-63027627D01*
X147454710Y-63135710D01*
X147454709Y-63135712D01*
X147454709Y-63135714D01*
X147444500Y-63205785D01*
X143605500Y-63205785D01*
X143605500Y-62624000D01*
X143625185Y-62556961D01*
X143677989Y-62511206D01*
X143729500Y-62500000D01*
X149012882Y-62500000D01*
X149060024Y-62511618D01*
G37*
%TD.AperFunction*%
%TD*%
%TA.AperFunction,Conductor*%
%TO.N,VDC*%
G36*
X143222510Y-67800421D02*
G01*
X143203128Y-67867544D01*
X143195062Y-67925483D01*
X143198288Y-68641511D01*
X143199002Y-68799999D01*
X143199006Y-68800922D01*
X143237800Y-77413245D01*
X143237800Y-77413257D01*
X143237829Y-77419612D01*
X143238818Y-77431730D01*
X143240394Y-77451055D01*
X143246376Y-77488544D01*
X143279409Y-77571770D01*
X143279410Y-77571772D01*
X143279411Y-77571773D01*
X143315790Y-77625237D01*
X143318724Y-77629548D01*
X143326243Y-77639261D01*
X143334106Y-77649420D01*
X143348699Y-77659982D01*
X143391467Y-77715230D01*
X143400000Y-77760434D01*
X143400000Y-78248036D01*
X143380315Y-78315075D01*
X143357625Y-78341382D01*
X143332695Y-78363181D01*
X143314818Y-78380855D01*
X143270529Y-78460876D01*
X143251148Y-78527996D01*
X143243082Y-78585935D01*
X143250352Y-80199529D01*
X143257717Y-81834668D01*
X143257862Y-81841502D01*
X143258177Y-81849809D01*
X143270987Y-81913821D01*
X143295402Y-81979281D01*
X143305609Y-82002253D01*
X143305611Y-82002256D01*
X143369299Y-82077290D01*
X143367218Y-82079056D01*
X143396297Y-82128619D01*
X143400000Y-82158696D01*
X143400000Y-86425519D01*
X143380315Y-86492558D01*
X143363180Y-86513699D01*
X143351503Y-86525243D01*
X143307217Y-86605257D01*
X143307213Y-86605267D01*
X143287833Y-86672384D01*
X143279768Y-86730321D01*
X143283433Y-87543742D01*
X143283985Y-87666224D01*
X143291991Y-89443537D01*
X143293034Y-89674941D01*
X143273651Y-89742069D01*
X143221054Y-89788061D01*
X143169035Y-89799500D01*
X140324500Y-89799500D01*
X140257461Y-89779815D01*
X140211706Y-89727011D01*
X140200500Y-89675500D01*
X140200500Y-67800000D01*
X143222743Y-67800000D01*
X143222510Y-67800421D01*
G37*
%TD.AperFunction*%
%TD*%
%TA.AperFunction,Conductor*%
%TO.N,PHASE_C*%
G36*
X158742539Y-48220185D02*
G01*
X158788294Y-48272989D01*
X158799500Y-48324500D01*
X158799500Y-51170500D01*
X158779815Y-51237539D01*
X158727011Y-51283294D01*
X158675500Y-51294500D01*
X155924000Y-51294500D01*
X155856961Y-51274815D01*
X155811206Y-51222011D01*
X155800000Y-51170500D01*
X155800000Y-48324500D01*
X155819685Y-48257461D01*
X155872489Y-48211706D01*
X155924000Y-48200500D01*
X158675500Y-48200500D01*
X158742539Y-48220185D01*
G37*
%TD.AperFunction*%
%TD*%
%TA.AperFunction,Conductor*%
%TO.N,PHASE_A*%
G36*
X143400000Y-51522234D02*
G01*
X143333903Y-51502826D01*
X143333899Y-51502825D01*
X143333898Y-51502825D01*
X143276000Y-51494500D01*
X140324500Y-51494500D01*
X140257461Y-51474815D01*
X140211706Y-51422011D01*
X140200500Y-51370500D01*
X140200500Y-48324500D01*
X140220185Y-48257461D01*
X140272989Y-48211706D01*
X140324500Y-48200500D01*
X143400000Y-48200500D01*
X143400000Y-51522234D01*
G37*
%TD.AperFunction*%
%TD*%
%TA.AperFunction,Conductor*%
%TO.N,GND*%
G36*
X158799500Y-89675500D02*
G01*
X158779815Y-89742539D01*
X158727011Y-89788294D01*
X158675500Y-89799500D01*
X155700000Y-89799500D01*
X155700000Y-74134678D01*
X155705492Y-74100003D01*
X155705492Y-74099996D01*
X155700000Y-74065320D01*
X155700000Y-67700440D01*
X155700001Y-67700000D01*
X158799500Y-67700000D01*
X158799500Y-89675500D01*
G37*
%TD.AperFunction*%
%TD*%
M02*
