%TF.GenerationSoftware,KiCad,Pcbnew,8.0.8*%
%TF.CreationDate,2025-07-27T02:47:18+02:00*%
%TF.ProjectId,ESC_PCB,4553435f-5043-4422-9e6b-696361645f70,rev?*%
%TF.SameCoordinates,Original*%
%TF.FileFunction,Drillmap*%
%TF.FilePolarity,Positive*%
%FSLAX45Y45*%
G04 Gerber Fmt 4.5, Leading zero omitted, Abs format (unit mm)*
G04 Created by KiCad (PCBNEW 8.0.8) date 2025-07-27 02:47:18*
%MOMM*%
%LPD*%
G01*
G04 APERTURE LIST*
%ADD10C,0.050000*%
%ADD11C,0.200000*%
%ADD12C,0.100000*%
G04 APERTURE END LIST*
D10*
X14000000Y-4800000D02*
X15900000Y-4800000D01*
X15900000Y-9000000D01*
X14000000Y-9000000D01*
X14000000Y-4800000D01*
D11*
D12*
X15287000Y-7727000D02*
X15313000Y-7753000D01*
X15313000Y-7727000D02*
X15287000Y-7753000D01*
X14415000Y-7630000D02*
G75*
G02*
X14385000Y-7630000I-15000J0D01*
G01*
X14385000Y-7630000D02*
G75*
G02*
X14415000Y-7630000I15000J0D01*
G01*
X14558500Y-8120000D02*
G75*
G02*
X14528500Y-8120000I-15000J0D01*
G01*
X14528500Y-8120000D02*
G75*
G02*
X14558500Y-8120000I15000J0D01*
G01*
X14572500Y-8357500D02*
G75*
G02*
X14542500Y-8357500I-15000J0D01*
G01*
X14542500Y-8357500D02*
G75*
G02*
X14572500Y-8357500I15000J0D01*
G01*
X14657500Y-8025000D02*
G75*
G02*
X14627500Y-8025000I-15000J0D01*
G01*
X14627500Y-8025000D02*
G75*
G02*
X14657500Y-8025000I15000J0D01*
G01*
X14662500Y-8135000D02*
G75*
G02*
X14632500Y-8135000I-15000J0D01*
G01*
X14632500Y-8135000D02*
G75*
G02*
X14662500Y-8135000I15000J0D01*
G01*
X14665000Y-8930000D02*
G75*
G02*
X14635000Y-8930000I-15000J0D01*
G01*
X14635000Y-8930000D02*
G75*
G02*
X14665000Y-8930000I15000J0D01*
G01*
X14680000Y-7930000D02*
G75*
G02*
X14650000Y-7930000I-15000J0D01*
G01*
X14650000Y-7930000D02*
G75*
G02*
X14680000Y-7930000I15000J0D01*
G01*
X14774000Y-7100000D02*
G75*
G02*
X14744000Y-7100000I-15000J0D01*
G01*
X14744000Y-7100000D02*
G75*
G02*
X14774000Y-7100000I15000J0D01*
G01*
X14774500Y-6880000D02*
G75*
G02*
X14744500Y-6880000I-15000J0D01*
G01*
X14744500Y-6880000D02*
G75*
G02*
X14774500Y-6880000I15000J0D01*
G01*
X14815250Y-6340000D02*
G75*
G02*
X14785250Y-6340000I-15000J0D01*
G01*
X14785250Y-6340000D02*
G75*
G02*
X14815250Y-6340000I15000J0D01*
G01*
X14815500Y-5790000D02*
G75*
G02*
X14785500Y-5790000I-15000J0D01*
G01*
X14785500Y-5790000D02*
G75*
G02*
X14815500Y-5790000I15000J0D01*
G01*
X14833462Y-8393462D02*
G75*
G02*
X14803462Y-8393462I-15000J0D01*
G01*
X14803462Y-8393462D02*
G75*
G02*
X14833462Y-8393462I15000J0D01*
G01*
X14835500Y-5240000D02*
G75*
G02*
X14805500Y-5240000I-15000J0D01*
G01*
X14805500Y-5240000D02*
G75*
G02*
X14835500Y-5240000I15000J0D01*
G01*
X14925000Y-6860000D02*
G75*
G02*
X14895000Y-6860000I-15000J0D01*
G01*
X14895000Y-6860000D02*
G75*
G02*
X14925000Y-6860000I15000J0D01*
G01*
X14934750Y-6340000D02*
G75*
G02*
X14904750Y-6340000I-15000J0D01*
G01*
X14904750Y-6340000D02*
G75*
G02*
X14934750Y-6340000I15000J0D01*
G01*
X14935000Y-5790000D02*
G75*
G02*
X14905000Y-5790000I-15000J0D01*
G01*
X14905000Y-5790000D02*
G75*
G02*
X14935000Y-5790000I15000J0D01*
G01*
X14955000Y-5240000D02*
G75*
G02*
X14925000Y-5240000I-15000J0D01*
G01*
X14925000Y-5240000D02*
G75*
G02*
X14955000Y-5240000I15000J0D01*
G01*
X15064750Y-7580000D02*
G75*
G02*
X15034750Y-7580000I-15000J0D01*
G01*
X15034750Y-7580000D02*
G75*
G02*
X15064750Y-7580000I15000J0D01*
G01*
X15137500Y-7020000D02*
G75*
G02*
X15107500Y-7020000I-15000J0D01*
G01*
X15107500Y-7020000D02*
G75*
G02*
X15137500Y-7020000I15000J0D01*
G01*
X15210000Y-8292500D02*
G75*
G02*
X15180000Y-8292500I-15000J0D01*
G01*
X15180000Y-8292500D02*
G75*
G02*
X15210000Y-8292500I15000J0D01*
G01*
X15215000Y-7520000D02*
G75*
G02*
X15185000Y-7520000I-15000J0D01*
G01*
X15185000Y-7520000D02*
G75*
G02*
X15215000Y-7520000I15000J0D01*
G01*
X15270000Y-8152500D02*
G75*
G02*
X15240000Y-8152500I-15000J0D01*
G01*
X15240000Y-8152500D02*
G75*
G02*
X15270000Y-8152500I15000J0D01*
G01*
X15270000Y-8370000D02*
G75*
G02*
X15240000Y-8370000I-15000J0D01*
G01*
X15240000Y-8370000D02*
G75*
G02*
X15270000Y-8370000I15000J0D01*
G01*
X15285000Y-7340000D02*
G75*
G02*
X15255000Y-7340000I-15000J0D01*
G01*
X15255000Y-7340000D02*
G75*
G02*
X15285000Y-7340000I15000J0D01*
G01*
X15295000Y-7110000D02*
G75*
G02*
X15265000Y-7110000I-15000J0D01*
G01*
X15265000Y-7110000D02*
G75*
G02*
X15295000Y-7110000I15000J0D01*
G01*
X15295000Y-7200000D02*
G75*
G02*
X15265000Y-7200000I-15000J0D01*
G01*
X15265000Y-7200000D02*
G75*
G02*
X15295000Y-7200000I15000J0D01*
G01*
X15335000Y-8060000D02*
G75*
G02*
X15305000Y-8060000I-15000J0D01*
G01*
X15305000Y-8060000D02*
G75*
G02*
X15335000Y-8060000I15000J0D01*
G01*
X15405000Y-7013500D02*
G75*
G02*
X15375000Y-7013500I-15000J0D01*
G01*
X15375000Y-7013500D02*
G75*
G02*
X15405000Y-7013500I15000J0D01*
G01*
X15440000Y-6902500D02*
G75*
G02*
X15410000Y-6902500I-15000J0D01*
G01*
X15410000Y-6902500D02*
G75*
G02*
X15440000Y-6902500I15000J0D01*
G01*
X15485000Y-7310000D02*
G75*
G02*
X15455000Y-7310000I-15000J0D01*
G01*
X15455000Y-7310000D02*
G75*
G02*
X15485000Y-7310000I15000J0D01*
G01*
X15485000Y-7910000D02*
G75*
G02*
X15455000Y-7910000I-15000J0D01*
G01*
X15455000Y-7910000D02*
G75*
G02*
X15485000Y-7910000I15000J0D01*
G01*
X15525000Y-6960000D02*
G75*
G02*
X15495000Y-6960000I-15000J0D01*
G01*
X15495000Y-6960000D02*
G75*
G02*
X15525000Y-6960000I15000J0D01*
G01*
X15530000Y-6850000D02*
G75*
G02*
X15500000Y-6850000I-15000J0D01*
G01*
X15500000Y-6850000D02*
G75*
G02*
X15530000Y-6850000I15000J0D01*
G01*
X15545000Y-7410000D02*
G75*
G02*
X15515000Y-7410000I-15000J0D01*
G01*
X15515000Y-7410000D02*
G75*
G02*
X15545000Y-7410000I15000J0D01*
G01*
X15555000Y-5150000D02*
G75*
G02*
X15525000Y-5150000I-15000J0D01*
G01*
X15525000Y-5150000D02*
G75*
G02*
X15555000Y-5150000I15000J0D01*
G01*
X15565000Y-5710000D02*
G75*
G02*
X15535000Y-5710000I-15000J0D01*
G01*
X15535000Y-5710000D02*
G75*
G02*
X15565000Y-5710000I15000J0D01*
G01*
X15565000Y-6260000D02*
G75*
G02*
X15535000Y-6260000I-15000J0D01*
G01*
X15535000Y-6260000D02*
G75*
G02*
X15565000Y-6260000I15000J0D01*
G01*
X15654750Y-5230000D02*
G75*
G02*
X15624750Y-5230000I-15000J0D01*
G01*
X15624750Y-5230000D02*
G75*
G02*
X15654750Y-5230000I15000J0D01*
G01*
X15665000Y-5790000D02*
G75*
G02*
X15635000Y-5790000I-15000J0D01*
G01*
X15635000Y-5790000D02*
G75*
G02*
X15665000Y-5790000I15000J0D01*
G01*
X15665000Y-6340000D02*
G75*
G02*
X15635000Y-6340000I-15000J0D01*
G01*
X15635000Y-6340000D02*
G75*
G02*
X15665000Y-6340000I15000J0D01*
G01*
X14815000Y-8542500D02*
X14815000Y-8577500D01*
X14797500Y-8560000D02*
X14832500Y-8560000D01*
X14084142Y-5254142D02*
X14084142Y-5225858D01*
X14055858Y-5225858D01*
X14055858Y-5254142D01*
X14084142Y-5254142D01*
X14084142Y-5354142D02*
X14084142Y-5325858D01*
X14055858Y-5325858D01*
X14055858Y-5354142D01*
X14084142Y-5354142D01*
X14084142Y-5454142D02*
X14084142Y-5425858D01*
X14055858Y-5425858D01*
X14055858Y-5454142D01*
X14084142Y-5454142D01*
X14084142Y-5554142D02*
X14084142Y-5525858D01*
X14055858Y-5525858D01*
X14055858Y-5554142D01*
X14084142Y-5554142D01*
X14084142Y-5654142D02*
X14084142Y-5625858D01*
X14055858Y-5625858D01*
X14055858Y-5654142D01*
X14084142Y-5654142D01*
X14084142Y-5754142D02*
X14084142Y-5725858D01*
X14055858Y-5725858D01*
X14055858Y-5754142D01*
X14084142Y-5754142D01*
X14084142Y-5854142D02*
X14084142Y-5825858D01*
X14055858Y-5825858D01*
X14055858Y-5854142D01*
X14084142Y-5854142D01*
X14084142Y-5964142D02*
X14084142Y-5935858D01*
X14055858Y-5935858D01*
X14055858Y-5964142D01*
X14084142Y-5964142D01*
X14084142Y-6064142D02*
X14084142Y-6035858D01*
X14055858Y-6035858D01*
X14055858Y-6064142D01*
X14084142Y-6064142D01*
X14084142Y-6164142D02*
X14084142Y-6135858D01*
X14055858Y-6135858D01*
X14055858Y-6164142D01*
X14084142Y-6164142D01*
X14084142Y-6264142D02*
X14084142Y-6235858D01*
X14055858Y-6235858D01*
X14055858Y-6264142D01*
X14084142Y-6264142D01*
X14084142Y-6364142D02*
X14084142Y-6335858D01*
X14055858Y-6335858D01*
X14055858Y-6364142D01*
X14084142Y-6364142D01*
X14084142Y-6464142D02*
X14084142Y-6435858D01*
X14055858Y-6435858D01*
X14055858Y-6464142D01*
X14084142Y-6464142D01*
X14084142Y-6564142D02*
X14084142Y-6535858D01*
X14055858Y-6535858D01*
X14055858Y-6564142D01*
X14084142Y-6564142D01*
X14084142Y-6664142D02*
X14084142Y-6635858D01*
X14055858Y-6635858D01*
X14055858Y-6664142D01*
X14084142Y-6664142D01*
X14084142Y-6764142D02*
X14084142Y-6735858D01*
X14055858Y-6735858D01*
X14055858Y-6764142D01*
X14084142Y-6764142D01*
X14084142Y-6864142D02*
X14084142Y-6835858D01*
X14055858Y-6835858D01*
X14055858Y-6864142D01*
X14084142Y-6864142D01*
X14084142Y-6964142D02*
X14084142Y-6935858D01*
X14055858Y-6935858D01*
X14055858Y-6964142D01*
X14084142Y-6964142D01*
X14084142Y-7064142D02*
X14084142Y-7035858D01*
X14055858Y-7035858D01*
X14055858Y-7064142D01*
X14084142Y-7064142D01*
X14084142Y-7164142D02*
X14084142Y-7135858D01*
X14055858Y-7135858D01*
X14055858Y-7164142D01*
X14084142Y-7164142D01*
X14084142Y-7264142D02*
X14084142Y-7235858D01*
X14055858Y-7235858D01*
X14055858Y-7264142D01*
X14084142Y-7264142D01*
X14084142Y-7364142D02*
X14084142Y-7335858D01*
X14055858Y-7335858D01*
X14055858Y-7364142D01*
X14084142Y-7364142D01*
X14084142Y-7464142D02*
X14084142Y-7435858D01*
X14055858Y-7435858D01*
X14055858Y-7464142D01*
X14084142Y-7464142D01*
X14084142Y-7564142D02*
X14084142Y-7535858D01*
X14055858Y-7535858D01*
X14055858Y-7564142D01*
X14084142Y-7564142D01*
X14084142Y-7664142D02*
X14084142Y-7635858D01*
X14055858Y-7635858D01*
X14055858Y-7664142D01*
X14084142Y-7664142D01*
X14084142Y-7764142D02*
X14084142Y-7735858D01*
X14055858Y-7735858D01*
X14055858Y-7764142D01*
X14084142Y-7764142D01*
X14084142Y-7864142D02*
X14084142Y-7835858D01*
X14055858Y-7835858D01*
X14055858Y-7864142D01*
X14084142Y-7864142D01*
X14084142Y-7964142D02*
X14084142Y-7935858D01*
X14055858Y-7935858D01*
X14055858Y-7964142D01*
X14084142Y-7964142D01*
X14084142Y-8064142D02*
X14084142Y-8035858D01*
X14055858Y-8035858D01*
X14055858Y-8064142D01*
X14084142Y-8064142D01*
X14084142Y-8164142D02*
X14084142Y-8135858D01*
X14055858Y-8135858D01*
X14055858Y-8164142D01*
X14084142Y-8164142D01*
X14084142Y-8264142D02*
X14084142Y-8235858D01*
X14055858Y-8235858D01*
X14055858Y-8264142D01*
X14084142Y-8264142D01*
X14084142Y-8364142D02*
X14084142Y-8335858D01*
X14055858Y-8335858D01*
X14055858Y-8364142D01*
X14084142Y-8364142D01*
X14084142Y-8464142D02*
X14084142Y-8435858D01*
X14055858Y-8435858D01*
X14055858Y-8464142D01*
X14084142Y-8464142D01*
X14084142Y-8564142D02*
X14084142Y-8535858D01*
X14055858Y-8535858D01*
X14055858Y-8564142D01*
X14084142Y-8564142D01*
X14084142Y-8664142D02*
X14084142Y-8635858D01*
X14055858Y-8635858D01*
X14055858Y-8664142D01*
X14084142Y-8664142D01*
X14084142Y-8764142D02*
X14084142Y-8735858D01*
X14055858Y-8735858D01*
X14055858Y-8764142D01*
X14084142Y-8764142D01*
X14084142Y-8864142D02*
X14084142Y-8835858D01*
X14055858Y-8835858D01*
X14055858Y-8864142D01*
X14084142Y-8864142D01*
X14154142Y-4881642D02*
X14154142Y-4853358D01*
X14125858Y-4853358D01*
X14125858Y-4881642D01*
X14154142Y-4881642D01*
X14154142Y-4981642D02*
X14154142Y-4953358D01*
X14125858Y-4953358D01*
X14125858Y-4981642D01*
X14154142Y-4981642D01*
X14154142Y-5081642D02*
X14154142Y-5053358D01*
X14125858Y-5053358D01*
X14125858Y-5081642D01*
X14154142Y-5081642D01*
X14184142Y-5254142D02*
X14184142Y-5225858D01*
X14155858Y-5225858D01*
X14155858Y-5254142D01*
X14184142Y-5254142D01*
X14184142Y-5354142D02*
X14184142Y-5325858D01*
X14155858Y-5325858D01*
X14155858Y-5354142D01*
X14184142Y-5354142D01*
X14184142Y-5454142D02*
X14184142Y-5425858D01*
X14155858Y-5425858D01*
X14155858Y-5454142D01*
X14184142Y-5454142D01*
X14184142Y-5554142D02*
X14184142Y-5525858D01*
X14155858Y-5525858D01*
X14155858Y-5554142D01*
X14184142Y-5554142D01*
X14184142Y-5654142D02*
X14184142Y-5625858D01*
X14155858Y-5625858D01*
X14155858Y-5654142D01*
X14184142Y-5654142D01*
X14184142Y-5754142D02*
X14184142Y-5725858D01*
X14155858Y-5725858D01*
X14155858Y-5754142D01*
X14184142Y-5754142D01*
X14184142Y-5854142D02*
X14184142Y-5825858D01*
X14155858Y-5825858D01*
X14155858Y-5854142D01*
X14184142Y-5854142D01*
X14184142Y-5964142D02*
X14184142Y-5935858D01*
X14155858Y-5935858D01*
X14155858Y-5964142D01*
X14184142Y-5964142D01*
X14184142Y-6064142D02*
X14184142Y-6035858D01*
X14155858Y-6035858D01*
X14155858Y-6064142D01*
X14184142Y-6064142D01*
X14184142Y-6164142D02*
X14184142Y-6135858D01*
X14155858Y-6135858D01*
X14155858Y-6164142D01*
X14184142Y-6164142D01*
X14184142Y-6264142D02*
X14184142Y-6235858D01*
X14155858Y-6235858D01*
X14155858Y-6264142D01*
X14184142Y-6264142D01*
X14184142Y-6364142D02*
X14184142Y-6335858D01*
X14155858Y-6335858D01*
X14155858Y-6364142D01*
X14184142Y-6364142D01*
X14184142Y-6464142D02*
X14184142Y-6435858D01*
X14155858Y-6435858D01*
X14155858Y-6464142D01*
X14184142Y-6464142D01*
X14184142Y-6564142D02*
X14184142Y-6535858D01*
X14155858Y-6535858D01*
X14155858Y-6564142D01*
X14184142Y-6564142D01*
X14184142Y-6664142D02*
X14184142Y-6635858D01*
X14155858Y-6635858D01*
X14155858Y-6664142D01*
X14184142Y-6664142D01*
X14184142Y-6764142D02*
X14184142Y-6735858D01*
X14155858Y-6735858D01*
X14155858Y-6764142D01*
X14184142Y-6764142D01*
X14184142Y-6864142D02*
X14184142Y-6835858D01*
X14155858Y-6835858D01*
X14155858Y-6864142D01*
X14184142Y-6864142D01*
X14184142Y-6964142D02*
X14184142Y-6935858D01*
X14155858Y-6935858D01*
X14155858Y-6964142D01*
X14184142Y-6964142D01*
X14184142Y-7064142D02*
X14184142Y-7035858D01*
X14155858Y-7035858D01*
X14155858Y-7064142D01*
X14184142Y-7064142D01*
X14184142Y-7164142D02*
X14184142Y-7135858D01*
X14155858Y-7135858D01*
X14155858Y-7164142D01*
X14184142Y-7164142D01*
X14184142Y-7264142D02*
X14184142Y-7235858D01*
X14155858Y-7235858D01*
X14155858Y-7264142D01*
X14184142Y-7264142D01*
X14184142Y-7364142D02*
X14184142Y-7335858D01*
X14155858Y-7335858D01*
X14155858Y-7364142D01*
X14184142Y-7364142D01*
X14184142Y-7464142D02*
X14184142Y-7435858D01*
X14155858Y-7435858D01*
X14155858Y-7464142D01*
X14184142Y-7464142D01*
X14184142Y-7564142D02*
X14184142Y-7535858D01*
X14155858Y-7535858D01*
X14155858Y-7564142D01*
X14184142Y-7564142D01*
X14184142Y-7664142D02*
X14184142Y-7635858D01*
X14155858Y-7635858D01*
X14155858Y-7664142D01*
X14184142Y-7664142D01*
X14184142Y-7764142D02*
X14184142Y-7735858D01*
X14155858Y-7735858D01*
X14155858Y-7764142D01*
X14184142Y-7764142D01*
X14184142Y-7864142D02*
X14184142Y-7835858D01*
X14155858Y-7835858D01*
X14155858Y-7864142D01*
X14184142Y-7864142D01*
X14184142Y-7964142D02*
X14184142Y-7935858D01*
X14155858Y-7935858D01*
X14155858Y-7964142D01*
X14184142Y-7964142D01*
X14184142Y-8064142D02*
X14184142Y-8035858D01*
X14155858Y-8035858D01*
X14155858Y-8064142D01*
X14184142Y-8064142D01*
X14184142Y-8164142D02*
X14184142Y-8135858D01*
X14155858Y-8135858D01*
X14155858Y-8164142D01*
X14184142Y-8164142D01*
X14184142Y-8264142D02*
X14184142Y-8235858D01*
X14155858Y-8235858D01*
X14155858Y-8264142D01*
X14184142Y-8264142D01*
X14184142Y-8364142D02*
X14184142Y-8335858D01*
X14155858Y-8335858D01*
X14155858Y-8364142D01*
X14184142Y-8364142D01*
X14184142Y-8464142D02*
X14184142Y-8435858D01*
X14155858Y-8435858D01*
X14155858Y-8464142D01*
X14184142Y-8464142D01*
X14184142Y-8564142D02*
X14184142Y-8535858D01*
X14155858Y-8535858D01*
X14155858Y-8564142D01*
X14184142Y-8564142D01*
X14184142Y-8664142D02*
X14184142Y-8635858D01*
X14155858Y-8635858D01*
X14155858Y-8664142D01*
X14184142Y-8664142D01*
X14184142Y-8764142D02*
X14184142Y-8735858D01*
X14155858Y-8735858D01*
X14155858Y-8764142D01*
X14184142Y-8764142D01*
X14184142Y-8864142D02*
X14184142Y-8835858D01*
X14155858Y-8835858D01*
X14155858Y-8864142D01*
X14184142Y-8864142D01*
X14254142Y-4881642D02*
X14254142Y-4853358D01*
X14225858Y-4853358D01*
X14225858Y-4881642D01*
X14254142Y-4881642D01*
X14254142Y-4981642D02*
X14254142Y-4953358D01*
X14225858Y-4953358D01*
X14225858Y-4981642D01*
X14254142Y-4981642D01*
X14254142Y-5081642D02*
X14254142Y-5053358D01*
X14225858Y-5053358D01*
X14225858Y-5081642D01*
X14254142Y-5081642D01*
X14284142Y-5254142D02*
X14284142Y-5225858D01*
X14255858Y-5225858D01*
X14255858Y-5254142D01*
X14284142Y-5254142D01*
X14284142Y-5354142D02*
X14284142Y-5325858D01*
X14255858Y-5325858D01*
X14255858Y-5354142D01*
X14284142Y-5354142D01*
X14284142Y-5454142D02*
X14284142Y-5425858D01*
X14255858Y-5425858D01*
X14255858Y-5454142D01*
X14284142Y-5454142D01*
X14284142Y-5554142D02*
X14284142Y-5525858D01*
X14255858Y-5525858D01*
X14255858Y-5554142D01*
X14284142Y-5554142D01*
X14284142Y-5654142D02*
X14284142Y-5625858D01*
X14255858Y-5625858D01*
X14255858Y-5654142D01*
X14284142Y-5654142D01*
X14284142Y-5754142D02*
X14284142Y-5725858D01*
X14255858Y-5725858D01*
X14255858Y-5754142D01*
X14284142Y-5754142D01*
X14284142Y-5854142D02*
X14284142Y-5825858D01*
X14255858Y-5825858D01*
X14255858Y-5854142D01*
X14284142Y-5854142D01*
X14284142Y-5964142D02*
X14284142Y-5935858D01*
X14255858Y-5935858D01*
X14255858Y-5964142D01*
X14284142Y-5964142D01*
X14284142Y-6064142D02*
X14284142Y-6035858D01*
X14255858Y-6035858D01*
X14255858Y-6064142D01*
X14284142Y-6064142D01*
X14284142Y-6164142D02*
X14284142Y-6135858D01*
X14255858Y-6135858D01*
X14255858Y-6164142D01*
X14284142Y-6164142D01*
X14284142Y-6264142D02*
X14284142Y-6235858D01*
X14255858Y-6235858D01*
X14255858Y-6264142D01*
X14284142Y-6264142D01*
X14284142Y-6364142D02*
X14284142Y-6335858D01*
X14255858Y-6335858D01*
X14255858Y-6364142D01*
X14284142Y-6364142D01*
X14284142Y-6464142D02*
X14284142Y-6435858D01*
X14255858Y-6435858D01*
X14255858Y-6464142D01*
X14284142Y-6464142D01*
X14284142Y-6564142D02*
X14284142Y-6535858D01*
X14255858Y-6535858D01*
X14255858Y-6564142D01*
X14284142Y-6564142D01*
X14284142Y-6664142D02*
X14284142Y-6635858D01*
X14255858Y-6635858D01*
X14255858Y-6664142D01*
X14284142Y-6664142D01*
X14284142Y-6764142D02*
X14284142Y-6735858D01*
X14255858Y-6735858D01*
X14255858Y-6764142D01*
X14284142Y-6764142D01*
X14284142Y-6864142D02*
X14284142Y-6835858D01*
X14255858Y-6835858D01*
X14255858Y-6864142D01*
X14284142Y-6864142D01*
X14284142Y-6964142D02*
X14284142Y-6935858D01*
X14255858Y-6935858D01*
X14255858Y-6964142D01*
X14284142Y-6964142D01*
X14284142Y-7064142D02*
X14284142Y-7035858D01*
X14255858Y-7035858D01*
X14255858Y-7064142D01*
X14284142Y-7064142D01*
X14284142Y-7164142D02*
X14284142Y-7135858D01*
X14255858Y-7135858D01*
X14255858Y-7164142D01*
X14284142Y-7164142D01*
X14284142Y-7264142D02*
X14284142Y-7235858D01*
X14255858Y-7235858D01*
X14255858Y-7264142D01*
X14284142Y-7264142D01*
X14284142Y-7364142D02*
X14284142Y-7335858D01*
X14255858Y-7335858D01*
X14255858Y-7364142D01*
X14284142Y-7364142D01*
X14284142Y-7464142D02*
X14284142Y-7435858D01*
X14255858Y-7435858D01*
X14255858Y-7464142D01*
X14284142Y-7464142D01*
X14284142Y-7564142D02*
X14284142Y-7535858D01*
X14255858Y-7535858D01*
X14255858Y-7564142D01*
X14284142Y-7564142D01*
X14284142Y-7664142D02*
X14284142Y-7635858D01*
X14255858Y-7635858D01*
X14255858Y-7664142D01*
X14284142Y-7664142D01*
X14284142Y-7764142D02*
X14284142Y-7735858D01*
X14255858Y-7735858D01*
X14255858Y-7764142D01*
X14284142Y-7764142D01*
X14284142Y-7864142D02*
X14284142Y-7835858D01*
X14255858Y-7835858D01*
X14255858Y-7864142D01*
X14284142Y-7864142D01*
X14284142Y-7964142D02*
X14284142Y-7935858D01*
X14255858Y-7935858D01*
X14255858Y-7964142D01*
X14284142Y-7964142D01*
X14284142Y-8064142D02*
X14284142Y-8035858D01*
X14255858Y-8035858D01*
X14255858Y-8064142D01*
X14284142Y-8064142D01*
X14284142Y-8164142D02*
X14284142Y-8135858D01*
X14255858Y-8135858D01*
X14255858Y-8164142D01*
X14284142Y-8164142D01*
X14284142Y-8264142D02*
X14284142Y-8235858D01*
X14255858Y-8235858D01*
X14255858Y-8264142D01*
X14284142Y-8264142D01*
X14284142Y-8364142D02*
X14284142Y-8335858D01*
X14255858Y-8335858D01*
X14255858Y-8364142D01*
X14284142Y-8364142D01*
X14284142Y-8464142D02*
X14284142Y-8435858D01*
X14255858Y-8435858D01*
X14255858Y-8464142D01*
X14284142Y-8464142D01*
X14284142Y-8564142D02*
X14284142Y-8535858D01*
X14255858Y-8535858D01*
X14255858Y-8564142D01*
X14284142Y-8564142D01*
X14284142Y-8664142D02*
X14284142Y-8635858D01*
X14255858Y-8635858D01*
X14255858Y-8664142D01*
X14284142Y-8664142D01*
X14284142Y-8764142D02*
X14284142Y-8735858D01*
X14255858Y-8735858D01*
X14255858Y-8764142D01*
X14284142Y-8764142D01*
X14284142Y-8864142D02*
X14284142Y-8835858D01*
X14255858Y-8835858D01*
X14255858Y-8864142D01*
X14284142Y-8864142D01*
X14354142Y-4881642D02*
X14354142Y-4853358D01*
X14325858Y-4853358D01*
X14325858Y-4881642D01*
X14354142Y-4881642D01*
X14354142Y-4981642D02*
X14354142Y-4953358D01*
X14325858Y-4953358D01*
X14325858Y-4981642D01*
X14354142Y-4981642D01*
X14354142Y-5081642D02*
X14354142Y-5053358D01*
X14325858Y-5053358D01*
X14325858Y-5081642D01*
X14354142Y-5081642D01*
X14454142Y-4881642D02*
X14454142Y-4853358D01*
X14425858Y-4853358D01*
X14425858Y-4881642D01*
X14454142Y-4881642D01*
X14454142Y-4981642D02*
X14454142Y-4953358D01*
X14425858Y-4953358D01*
X14425858Y-4981642D01*
X14454142Y-4981642D01*
X14454142Y-5081642D02*
X14454142Y-5053358D01*
X14425858Y-5053358D01*
X14425858Y-5081642D01*
X14454142Y-5081642D01*
X14464142Y-8274142D02*
X14464142Y-8245858D01*
X14435858Y-8245858D01*
X14435858Y-8274142D01*
X14464142Y-8274142D01*
X14467892Y-7304142D02*
X14467892Y-7275858D01*
X14439608Y-7275858D01*
X14439608Y-7304142D01*
X14467892Y-7304142D01*
X14497892Y-6948642D02*
X14497892Y-6920358D01*
X14469608Y-6920358D01*
X14469608Y-6948642D01*
X14497892Y-6948642D01*
X14497892Y-7154142D02*
X14497892Y-7125858D01*
X14469608Y-7125858D01*
X14469608Y-7154142D01*
X14497892Y-7154142D01*
X14504142Y-7574142D02*
X14504142Y-7545858D01*
X14475858Y-7545858D01*
X14475858Y-7574142D01*
X14504142Y-7574142D01*
X14504142Y-7984142D02*
X14504142Y-7955858D01*
X14475858Y-7955858D01*
X14475858Y-7984142D01*
X14504142Y-7984142D01*
X14554142Y-4881642D02*
X14554142Y-4853358D01*
X14525858Y-4853358D01*
X14525858Y-4881642D01*
X14554142Y-4881642D01*
X14554142Y-4981642D02*
X14554142Y-4953358D01*
X14525858Y-4953358D01*
X14525858Y-4981642D01*
X14554142Y-4981642D01*
X14554142Y-5081642D02*
X14554142Y-5053358D01*
X14525858Y-5053358D01*
X14525858Y-5081642D01*
X14554142Y-5081642D01*
X14624142Y-8784142D02*
X14624142Y-8755858D01*
X14595858Y-8755858D01*
X14595858Y-8784142D01*
X14624142Y-8784142D01*
X14659142Y-7304142D02*
X14659142Y-7275858D01*
X14630858Y-7275858D01*
X14630858Y-7304142D01*
X14659142Y-7304142D01*
X14724142Y-4881642D02*
X14724142Y-4853358D01*
X14695858Y-4853358D01*
X14695858Y-4881642D01*
X14724142Y-4881642D01*
X14724142Y-4981642D02*
X14724142Y-4953358D01*
X14695858Y-4953358D01*
X14695858Y-4981642D01*
X14724142Y-4981642D01*
X14724142Y-5081642D02*
X14724142Y-5053358D01*
X14695858Y-5053358D01*
X14695858Y-5081642D01*
X14724142Y-5081642D01*
X14789142Y-5925642D02*
X14789142Y-5897358D01*
X14760858Y-5897358D01*
X14760858Y-5925642D01*
X14789142Y-5925642D01*
X14789142Y-6052642D02*
X14789142Y-6024358D01*
X14760858Y-6024358D01*
X14760858Y-6052642D01*
X14789142Y-6052642D01*
X14789142Y-6179642D02*
X14789142Y-6151358D01*
X14760858Y-6151358D01*
X14760858Y-6179642D01*
X14789142Y-6179642D01*
X14794142Y-5375642D02*
X14794142Y-5347358D01*
X14765858Y-5347358D01*
X14765858Y-5375642D01*
X14794142Y-5375642D01*
X14794142Y-5502642D02*
X14794142Y-5474358D01*
X14765858Y-5474358D01*
X14765858Y-5502642D01*
X14794142Y-5502642D01*
X14794142Y-5629642D02*
X14794142Y-5601358D01*
X14765858Y-5601358D01*
X14765858Y-5629642D01*
X14794142Y-5629642D01*
X14794142Y-6475642D02*
X14794142Y-6447358D01*
X14765858Y-6447358D01*
X14765858Y-6475642D01*
X14794142Y-6475642D01*
X14794142Y-6602642D02*
X14794142Y-6574358D01*
X14765858Y-6574358D01*
X14765858Y-6602642D01*
X14794142Y-6602642D01*
X14794142Y-6729642D02*
X14794142Y-6701358D01*
X14765858Y-6701358D01*
X14765858Y-6729642D01*
X14794142Y-6729642D01*
X14807044Y-8188243D02*
X14807044Y-8159959D01*
X14778759Y-8159959D01*
X14778759Y-8188243D01*
X14807044Y-8188243D01*
X14824142Y-4881642D02*
X14824142Y-4853358D01*
X14795858Y-4853358D01*
X14795858Y-4881642D01*
X14824142Y-4881642D01*
X14824142Y-4981642D02*
X14824142Y-4953358D01*
X14795858Y-4953358D01*
X14795858Y-4981642D01*
X14824142Y-4981642D01*
X14824142Y-5081642D02*
X14824142Y-5053358D01*
X14795858Y-5053358D01*
X14795858Y-5081642D01*
X14824142Y-5081642D01*
X14924142Y-4881642D02*
X14924142Y-4853358D01*
X14895858Y-4853358D01*
X14895858Y-4881642D01*
X14924142Y-4881642D01*
X14924142Y-4981642D02*
X14924142Y-4953358D01*
X14895858Y-4953358D01*
X14895858Y-4981642D01*
X14924142Y-4981642D01*
X14924142Y-5081642D02*
X14924142Y-5053358D01*
X14895858Y-5053358D01*
X14895858Y-5081642D01*
X14924142Y-5081642D01*
X14944142Y-5904142D02*
X14944142Y-5875858D01*
X14915858Y-5875858D01*
X14915858Y-5904142D01*
X14944142Y-5904142D01*
X14944142Y-6004142D02*
X14944142Y-5975858D01*
X14915858Y-5975858D01*
X14915858Y-6004142D01*
X14944142Y-6004142D01*
X14944142Y-6104142D02*
X14944142Y-6075858D01*
X14915858Y-6075858D01*
X14915858Y-6104142D01*
X14944142Y-6104142D01*
X14944142Y-6204142D02*
X14944142Y-6175858D01*
X14915858Y-6175858D01*
X14915858Y-6204142D01*
X14944142Y-6204142D01*
X14954142Y-5354142D02*
X14954142Y-5325858D01*
X14925858Y-5325858D01*
X14925858Y-5354142D01*
X14954142Y-5354142D01*
X14954142Y-5444142D02*
X14954142Y-5415858D01*
X14925858Y-5415858D01*
X14925858Y-5444142D01*
X14954142Y-5444142D01*
X14954142Y-5534142D02*
X14954142Y-5505858D01*
X14925858Y-5505858D01*
X14925858Y-5534142D01*
X14954142Y-5534142D01*
X14954142Y-5624142D02*
X14954142Y-5595858D01*
X14925858Y-5595858D01*
X14925858Y-5624142D01*
X14954142Y-5624142D01*
X14954142Y-6474142D02*
X14954142Y-6445858D01*
X14925858Y-6445858D01*
X14925858Y-6474142D01*
X14954142Y-6474142D01*
X14954142Y-6564142D02*
X14954142Y-6535858D01*
X14925858Y-6535858D01*
X14925858Y-6564142D01*
X14954142Y-6564142D01*
X14954142Y-6654142D02*
X14954142Y-6625858D01*
X14925858Y-6625858D01*
X14925858Y-6654142D01*
X14954142Y-6654142D01*
X14954142Y-6744142D02*
X14954142Y-6715858D01*
X14925858Y-6715858D01*
X14925858Y-6744142D01*
X14954142Y-6744142D01*
X15024142Y-4881642D02*
X15024142Y-4853358D01*
X14995858Y-4853358D01*
X14995858Y-4881642D01*
X15024142Y-4881642D01*
X15024142Y-4981642D02*
X15024142Y-4953358D01*
X14995858Y-4953358D01*
X14995858Y-4981642D01*
X15024142Y-4981642D01*
X15024142Y-5081642D02*
X15024142Y-5053358D01*
X14995858Y-5053358D01*
X14995858Y-5081642D01*
X15024142Y-5081642D01*
X15094142Y-5237142D02*
X15094142Y-5208858D01*
X15065858Y-5208858D01*
X15065858Y-5237142D01*
X15094142Y-5237142D01*
X15094142Y-5364142D02*
X15094142Y-5335858D01*
X15065858Y-5335858D01*
X15065858Y-5364142D01*
X15094142Y-5364142D01*
X15094142Y-5491142D02*
X15094142Y-5462858D01*
X15065858Y-5462858D01*
X15065858Y-5491142D01*
X15094142Y-5491142D01*
X15094142Y-5618142D02*
X15094142Y-5589858D01*
X15065858Y-5589858D01*
X15065858Y-5618142D01*
X15094142Y-5618142D01*
X15094142Y-5798642D02*
X15094142Y-5770358D01*
X15065858Y-5770358D01*
X15065858Y-5798642D01*
X15094142Y-5798642D01*
X15094142Y-5925642D02*
X15094142Y-5897358D01*
X15065858Y-5897358D01*
X15065858Y-5925642D01*
X15094142Y-5925642D01*
X15094142Y-6052642D02*
X15094142Y-6024358D01*
X15065858Y-6024358D01*
X15065858Y-6052642D01*
X15094142Y-6052642D01*
X15094142Y-6179642D02*
X15094142Y-6151358D01*
X15065858Y-6151358D01*
X15065858Y-6179642D01*
X15094142Y-6179642D01*
X15094142Y-6602642D02*
X15094142Y-6574358D01*
X15065858Y-6574358D01*
X15065858Y-6602642D01*
X15094142Y-6602642D01*
X15094142Y-6729642D02*
X15094142Y-6701358D01*
X15065858Y-6701358D01*
X15065858Y-6729642D01*
X15094142Y-6729642D01*
X15124142Y-4881642D02*
X15124142Y-4853358D01*
X15095858Y-4853358D01*
X15095858Y-4881642D01*
X15124142Y-4881642D01*
X15124142Y-4981642D02*
X15124142Y-4953358D01*
X15095858Y-4953358D01*
X15095858Y-4981642D01*
X15124142Y-4981642D01*
X15124142Y-5081642D02*
X15124142Y-5053358D01*
X15095858Y-5053358D01*
X15095858Y-5081642D01*
X15124142Y-5081642D01*
X15139142Y-8864142D02*
X15139142Y-8835858D01*
X15110858Y-8835858D01*
X15110858Y-8864142D01*
X15139142Y-8864142D01*
X15224142Y-4881642D02*
X15224142Y-4853358D01*
X15195858Y-4853358D01*
X15195858Y-4881642D01*
X15224142Y-4881642D01*
X15224142Y-4981642D02*
X15224142Y-4953358D01*
X15195858Y-4953358D01*
X15195858Y-4981642D01*
X15224142Y-4981642D01*
X15224142Y-5081642D02*
X15224142Y-5053358D01*
X15195858Y-5053358D01*
X15195858Y-5081642D01*
X15224142Y-5081642D01*
X15224142Y-5304142D02*
X15224142Y-5275858D01*
X15195858Y-5275858D01*
X15195858Y-5304142D01*
X15224142Y-5304142D01*
X15224142Y-5404142D02*
X15224142Y-5375858D01*
X15195858Y-5375858D01*
X15195858Y-5404142D01*
X15224142Y-5404142D01*
X15224142Y-5504142D02*
X15224142Y-5475858D01*
X15195858Y-5475858D01*
X15195858Y-5504142D01*
X15224142Y-5504142D01*
X15224142Y-5604142D02*
X15224142Y-5575858D01*
X15195858Y-5575858D01*
X15195858Y-5604142D01*
X15224142Y-5604142D01*
X15334142Y-6344142D02*
X15334142Y-6315858D01*
X15305858Y-6315858D01*
X15305858Y-6344142D01*
X15334142Y-6344142D01*
X15334142Y-6444142D02*
X15334142Y-6415858D01*
X15305858Y-6415858D01*
X15305858Y-6444142D01*
X15334142Y-6444142D01*
X15354142Y-4881642D02*
X15354142Y-4853358D01*
X15325858Y-4853358D01*
X15325858Y-4881642D01*
X15354142Y-4881642D01*
X15354142Y-4981642D02*
X15354142Y-4953358D01*
X15325858Y-4953358D01*
X15325858Y-4981642D01*
X15354142Y-4981642D01*
X15354142Y-5081642D02*
X15354142Y-5053358D01*
X15325858Y-5053358D01*
X15325858Y-5081642D01*
X15354142Y-5081642D01*
X15464142Y-4881642D02*
X15464142Y-4853358D01*
X15435858Y-4853358D01*
X15435858Y-4881642D01*
X15464142Y-4881642D01*
X15464142Y-4981642D02*
X15464142Y-4953358D01*
X15435858Y-4953358D01*
X15435858Y-4981642D01*
X15464142Y-4981642D01*
X15464142Y-5081642D02*
X15464142Y-5053358D01*
X15435858Y-5053358D01*
X15435858Y-5081642D01*
X15464142Y-5081642D01*
X15524142Y-8266642D02*
X15524142Y-8238358D01*
X15495858Y-8238358D01*
X15495858Y-8266642D01*
X15524142Y-8266642D01*
X15564142Y-4881642D02*
X15564142Y-4853358D01*
X15535858Y-4853358D01*
X15535858Y-4881642D01*
X15564142Y-4881642D01*
X15564142Y-4981642D02*
X15564142Y-4953358D01*
X15535858Y-4953358D01*
X15535858Y-4981642D01*
X15564142Y-4981642D01*
X15564142Y-5081642D02*
X15564142Y-5053358D01*
X15535858Y-5053358D01*
X15535858Y-5081642D01*
X15564142Y-5081642D01*
X15634142Y-5424142D02*
X15634142Y-5395858D01*
X15605858Y-5395858D01*
X15605858Y-5424142D01*
X15634142Y-5424142D01*
X15634142Y-5524142D02*
X15634142Y-5495858D01*
X15605858Y-5495858D01*
X15605858Y-5524142D01*
X15634142Y-5524142D01*
X15634142Y-5624142D02*
X15634142Y-5595858D01*
X15605858Y-5595858D01*
X15605858Y-5624142D01*
X15634142Y-5624142D01*
X15634142Y-5934142D02*
X15634142Y-5905858D01*
X15605858Y-5905858D01*
X15605858Y-5934142D01*
X15634142Y-5934142D01*
X15634142Y-6034142D02*
X15634142Y-6005858D01*
X15605858Y-6005858D01*
X15605858Y-6034142D01*
X15634142Y-6034142D01*
X15634142Y-6134142D02*
X15634142Y-6105858D01*
X15605858Y-6105858D01*
X15605858Y-6134142D01*
X15634142Y-6134142D01*
X15634142Y-6234142D02*
X15634142Y-6205858D01*
X15605858Y-6205858D01*
X15605858Y-6234142D01*
X15634142Y-6234142D01*
X15634142Y-6534142D02*
X15634142Y-6505858D01*
X15605858Y-6505858D01*
X15605858Y-6534142D01*
X15634142Y-6534142D01*
X15634142Y-6634142D02*
X15634142Y-6605858D01*
X15605858Y-6605858D01*
X15605858Y-6634142D01*
X15634142Y-6634142D01*
X15634142Y-6734142D02*
X15634142Y-6705858D01*
X15605858Y-6705858D01*
X15605858Y-6734142D01*
X15634142Y-6734142D01*
X15634142Y-6834142D02*
X15634142Y-6805858D01*
X15605858Y-6805858D01*
X15605858Y-6834142D01*
X15634142Y-6834142D01*
X15634142Y-6934142D02*
X15634142Y-6905858D01*
X15605858Y-6905858D01*
X15605858Y-6934142D01*
X15634142Y-6934142D01*
X15634142Y-7034142D02*
X15634142Y-7005858D01*
X15605858Y-7005858D01*
X15605858Y-7034142D01*
X15634142Y-7034142D01*
X15634142Y-7134142D02*
X15634142Y-7105858D01*
X15605858Y-7105858D01*
X15605858Y-7134142D01*
X15634142Y-7134142D01*
X15634142Y-7234142D02*
X15634142Y-7205858D01*
X15605858Y-7205858D01*
X15605858Y-7234142D01*
X15634142Y-7234142D01*
X15634142Y-7334142D02*
X15634142Y-7305858D01*
X15605858Y-7305858D01*
X15605858Y-7334142D01*
X15634142Y-7334142D01*
X15634142Y-7434142D02*
X15634142Y-7405858D01*
X15605858Y-7405858D01*
X15605858Y-7434142D01*
X15634142Y-7434142D01*
X15634142Y-7534142D02*
X15634142Y-7505858D01*
X15605858Y-7505858D01*
X15605858Y-7534142D01*
X15634142Y-7534142D01*
X15634142Y-7634142D02*
X15634142Y-7605858D01*
X15605858Y-7605858D01*
X15605858Y-7634142D01*
X15634142Y-7634142D01*
X15634142Y-7734142D02*
X15634142Y-7705858D01*
X15605858Y-7705858D01*
X15605858Y-7734142D01*
X15634142Y-7734142D01*
X15634142Y-7834142D02*
X15634142Y-7805858D01*
X15605858Y-7805858D01*
X15605858Y-7834142D01*
X15634142Y-7834142D01*
X15634142Y-7934142D02*
X15634142Y-7905858D01*
X15605858Y-7905858D01*
X15605858Y-7934142D01*
X15634142Y-7934142D01*
X15634142Y-8034142D02*
X15634142Y-8005858D01*
X15605858Y-8005858D01*
X15605858Y-8034142D01*
X15634142Y-8034142D01*
X15634142Y-8134142D02*
X15634142Y-8105858D01*
X15605858Y-8105858D01*
X15605858Y-8134142D01*
X15634142Y-8134142D01*
X15634142Y-8234142D02*
X15634142Y-8205858D01*
X15605858Y-8205858D01*
X15605858Y-8234142D01*
X15634142Y-8234142D01*
X15634142Y-8334142D02*
X15634142Y-8305858D01*
X15605858Y-8305858D01*
X15605858Y-8334142D01*
X15634142Y-8334142D01*
X15634142Y-8434142D02*
X15634142Y-8405858D01*
X15605858Y-8405858D01*
X15605858Y-8434142D01*
X15634142Y-8434142D01*
X15634142Y-8534142D02*
X15634142Y-8505858D01*
X15605858Y-8505858D01*
X15605858Y-8534142D01*
X15634142Y-8534142D01*
X15634142Y-8634142D02*
X15634142Y-8605858D01*
X15605858Y-8605858D01*
X15605858Y-8634142D01*
X15634142Y-8634142D01*
X15634142Y-8734142D02*
X15634142Y-8705858D01*
X15605858Y-8705858D01*
X15605858Y-8734142D01*
X15634142Y-8734142D01*
X15634142Y-8834142D02*
X15634142Y-8805858D01*
X15605858Y-8805858D01*
X15605858Y-8834142D01*
X15634142Y-8834142D01*
X15674142Y-4881642D02*
X15674142Y-4853358D01*
X15645858Y-4853358D01*
X15645858Y-4881642D01*
X15674142Y-4881642D01*
X15674142Y-4981642D02*
X15674142Y-4953358D01*
X15645858Y-4953358D01*
X15645858Y-4981642D01*
X15674142Y-4981642D01*
X15674142Y-5081642D02*
X15674142Y-5053358D01*
X15645858Y-5053358D01*
X15645858Y-5081642D01*
X15674142Y-5081642D01*
X15734142Y-5424142D02*
X15734142Y-5395858D01*
X15705858Y-5395858D01*
X15705858Y-5424142D01*
X15734142Y-5424142D01*
X15734142Y-5524142D02*
X15734142Y-5495858D01*
X15705858Y-5495858D01*
X15705858Y-5524142D01*
X15734142Y-5524142D01*
X15734142Y-5624142D02*
X15734142Y-5595858D01*
X15705858Y-5595858D01*
X15705858Y-5624142D01*
X15734142Y-5624142D01*
X15734142Y-5934142D02*
X15734142Y-5905858D01*
X15705858Y-5905858D01*
X15705858Y-5934142D01*
X15734142Y-5934142D01*
X15734142Y-6034142D02*
X15734142Y-6005858D01*
X15705858Y-6005858D01*
X15705858Y-6034142D01*
X15734142Y-6034142D01*
X15734142Y-6134142D02*
X15734142Y-6105858D01*
X15705858Y-6105858D01*
X15705858Y-6134142D01*
X15734142Y-6134142D01*
X15734142Y-6234142D02*
X15734142Y-6205858D01*
X15705858Y-6205858D01*
X15705858Y-6234142D01*
X15734142Y-6234142D01*
X15734142Y-6534142D02*
X15734142Y-6505858D01*
X15705858Y-6505858D01*
X15705858Y-6534142D01*
X15734142Y-6534142D01*
X15734142Y-6634142D02*
X15734142Y-6605858D01*
X15705858Y-6605858D01*
X15705858Y-6634142D01*
X15734142Y-6634142D01*
X15734142Y-6734142D02*
X15734142Y-6705858D01*
X15705858Y-6705858D01*
X15705858Y-6734142D01*
X15734142Y-6734142D01*
X15734142Y-6834142D02*
X15734142Y-6805858D01*
X15705858Y-6805858D01*
X15705858Y-6834142D01*
X15734142Y-6834142D01*
X15734142Y-6934142D02*
X15734142Y-6905858D01*
X15705858Y-6905858D01*
X15705858Y-6934142D01*
X15734142Y-6934142D01*
X15734142Y-7034142D02*
X15734142Y-7005858D01*
X15705858Y-7005858D01*
X15705858Y-7034142D01*
X15734142Y-7034142D01*
X15734142Y-7134142D02*
X15734142Y-7105858D01*
X15705858Y-7105858D01*
X15705858Y-7134142D01*
X15734142Y-7134142D01*
X15734142Y-7234142D02*
X15734142Y-7205858D01*
X15705858Y-7205858D01*
X15705858Y-7234142D01*
X15734142Y-7234142D01*
X15734142Y-7334142D02*
X15734142Y-7305858D01*
X15705858Y-7305858D01*
X15705858Y-7334142D01*
X15734142Y-7334142D01*
X15734142Y-7434142D02*
X15734142Y-7405858D01*
X15705858Y-7405858D01*
X15705858Y-7434142D01*
X15734142Y-7434142D01*
X15734142Y-7534142D02*
X15734142Y-7505858D01*
X15705858Y-7505858D01*
X15705858Y-7534142D01*
X15734142Y-7534142D01*
X15734142Y-7634142D02*
X15734142Y-7605858D01*
X15705858Y-7605858D01*
X15705858Y-7634142D01*
X15734142Y-7634142D01*
X15734142Y-7734142D02*
X15734142Y-7705858D01*
X15705858Y-7705858D01*
X15705858Y-7734142D01*
X15734142Y-7734142D01*
X15734142Y-7834142D02*
X15734142Y-7805858D01*
X15705858Y-7805858D01*
X15705858Y-7834142D01*
X15734142Y-7834142D01*
X15734142Y-7934142D02*
X15734142Y-7905858D01*
X15705858Y-7905858D01*
X15705858Y-7934142D01*
X15734142Y-7934142D01*
X15734142Y-8034142D02*
X15734142Y-8005858D01*
X15705858Y-8005858D01*
X15705858Y-8034142D01*
X15734142Y-8034142D01*
X15734142Y-8134142D02*
X15734142Y-8105858D01*
X15705858Y-8105858D01*
X15705858Y-8134142D01*
X15734142Y-8134142D01*
X15734142Y-8234142D02*
X15734142Y-8205858D01*
X15705858Y-8205858D01*
X15705858Y-8234142D01*
X15734142Y-8234142D01*
X15734142Y-8334142D02*
X15734142Y-8305858D01*
X15705858Y-8305858D01*
X15705858Y-8334142D01*
X15734142Y-8334142D01*
X15734142Y-8434142D02*
X15734142Y-8405858D01*
X15705858Y-8405858D01*
X15705858Y-8434142D01*
X15734142Y-8434142D01*
X15734142Y-8534142D02*
X15734142Y-8505858D01*
X15705858Y-8505858D01*
X15705858Y-8534142D01*
X15734142Y-8534142D01*
X15734142Y-8634142D02*
X15734142Y-8605858D01*
X15705858Y-8605858D01*
X15705858Y-8634142D01*
X15734142Y-8634142D01*
X15734142Y-8734142D02*
X15734142Y-8705858D01*
X15705858Y-8705858D01*
X15705858Y-8734142D01*
X15734142Y-8734142D01*
X15734142Y-8834142D02*
X15734142Y-8805858D01*
X15705858Y-8805858D01*
X15705858Y-8834142D01*
X15734142Y-8834142D01*
X15774142Y-4881642D02*
X15774142Y-4853358D01*
X15745858Y-4853358D01*
X15745858Y-4881642D01*
X15774142Y-4881642D01*
X15774142Y-4981642D02*
X15774142Y-4953358D01*
X15745858Y-4953358D01*
X15745858Y-4981642D01*
X15774142Y-4981642D01*
X15774142Y-5081642D02*
X15774142Y-5053358D01*
X15745858Y-5053358D01*
X15745858Y-5081642D01*
X15774142Y-5081642D01*
X15834142Y-5224142D02*
X15834142Y-5195858D01*
X15805858Y-5195858D01*
X15805858Y-5224142D01*
X15834142Y-5224142D01*
X15834142Y-5324142D02*
X15834142Y-5295858D01*
X15805858Y-5295858D01*
X15805858Y-5324142D01*
X15834142Y-5324142D01*
X15834142Y-5424142D02*
X15834142Y-5395858D01*
X15805858Y-5395858D01*
X15805858Y-5424142D01*
X15834142Y-5424142D01*
X15834142Y-5524142D02*
X15834142Y-5495858D01*
X15805858Y-5495858D01*
X15805858Y-5524142D01*
X15834142Y-5524142D01*
X15834142Y-5624142D02*
X15834142Y-5595858D01*
X15805858Y-5595858D01*
X15805858Y-5624142D01*
X15834142Y-5624142D01*
X15834142Y-5724142D02*
X15834142Y-5695858D01*
X15805858Y-5695858D01*
X15805858Y-5724142D01*
X15834142Y-5724142D01*
X15834142Y-5824142D02*
X15834142Y-5795858D01*
X15805858Y-5795858D01*
X15805858Y-5824142D01*
X15834142Y-5824142D01*
X15834142Y-5934142D02*
X15834142Y-5905858D01*
X15805858Y-5905858D01*
X15805858Y-5934142D01*
X15834142Y-5934142D01*
X15834142Y-6034142D02*
X15834142Y-6005858D01*
X15805858Y-6005858D01*
X15805858Y-6034142D01*
X15834142Y-6034142D01*
X15834142Y-6134142D02*
X15834142Y-6105858D01*
X15805858Y-6105858D01*
X15805858Y-6134142D01*
X15834142Y-6134142D01*
X15834142Y-6234142D02*
X15834142Y-6205858D01*
X15805858Y-6205858D01*
X15805858Y-6234142D01*
X15834142Y-6234142D01*
X15834142Y-6334142D02*
X15834142Y-6305858D01*
X15805858Y-6305858D01*
X15805858Y-6334142D01*
X15834142Y-6334142D01*
X15834142Y-6434142D02*
X15834142Y-6405858D01*
X15805858Y-6405858D01*
X15805858Y-6434142D01*
X15834142Y-6434142D01*
X15834142Y-6534142D02*
X15834142Y-6505858D01*
X15805858Y-6505858D01*
X15805858Y-6534142D01*
X15834142Y-6534142D01*
X15834142Y-6634142D02*
X15834142Y-6605858D01*
X15805858Y-6605858D01*
X15805858Y-6634142D01*
X15834142Y-6634142D01*
X15834142Y-6734142D02*
X15834142Y-6705858D01*
X15805858Y-6705858D01*
X15805858Y-6734142D01*
X15834142Y-6734142D01*
X15834142Y-6834142D02*
X15834142Y-6805858D01*
X15805858Y-6805858D01*
X15805858Y-6834142D01*
X15834142Y-6834142D01*
X15834142Y-6934142D02*
X15834142Y-6905858D01*
X15805858Y-6905858D01*
X15805858Y-6934142D01*
X15834142Y-6934142D01*
X15834142Y-7034142D02*
X15834142Y-7005858D01*
X15805858Y-7005858D01*
X15805858Y-7034142D01*
X15834142Y-7034142D01*
X15834142Y-7134142D02*
X15834142Y-7105858D01*
X15805858Y-7105858D01*
X15805858Y-7134142D01*
X15834142Y-7134142D01*
X15834142Y-7234142D02*
X15834142Y-7205858D01*
X15805858Y-7205858D01*
X15805858Y-7234142D01*
X15834142Y-7234142D01*
X15834142Y-7334142D02*
X15834142Y-7305858D01*
X15805858Y-7305858D01*
X15805858Y-7334142D01*
X15834142Y-7334142D01*
X15834142Y-7434142D02*
X15834142Y-7405858D01*
X15805858Y-7405858D01*
X15805858Y-7434142D01*
X15834142Y-7434142D01*
X15834142Y-7534142D02*
X15834142Y-7505858D01*
X15805858Y-7505858D01*
X15805858Y-7534142D01*
X15834142Y-7534142D01*
X15834142Y-7634142D02*
X15834142Y-7605858D01*
X15805858Y-7605858D01*
X15805858Y-7634142D01*
X15834142Y-7634142D01*
X15834142Y-7734142D02*
X15834142Y-7705858D01*
X15805858Y-7705858D01*
X15805858Y-7734142D01*
X15834142Y-7734142D01*
X15834142Y-7834142D02*
X15834142Y-7805858D01*
X15805858Y-7805858D01*
X15805858Y-7834142D01*
X15834142Y-7834142D01*
X15834142Y-7934142D02*
X15834142Y-7905858D01*
X15805858Y-7905858D01*
X15805858Y-7934142D01*
X15834142Y-7934142D01*
X15834142Y-8034142D02*
X15834142Y-8005858D01*
X15805858Y-8005858D01*
X15805858Y-8034142D01*
X15834142Y-8034142D01*
X15834142Y-8134142D02*
X15834142Y-8105858D01*
X15805858Y-8105858D01*
X15805858Y-8134142D01*
X15834142Y-8134142D01*
X15834142Y-8234142D02*
X15834142Y-8205858D01*
X15805858Y-8205858D01*
X15805858Y-8234142D01*
X15834142Y-8234142D01*
X15834142Y-8334142D02*
X15834142Y-8305858D01*
X15805858Y-8305858D01*
X15805858Y-8334142D01*
X15834142Y-8334142D01*
X15834142Y-8434142D02*
X15834142Y-8405858D01*
X15805858Y-8405858D01*
X15805858Y-8434142D01*
X15834142Y-8434142D01*
X15834142Y-8534142D02*
X15834142Y-8505858D01*
X15805858Y-8505858D01*
X15805858Y-8534142D01*
X15834142Y-8534142D01*
X15834142Y-8634142D02*
X15834142Y-8605858D01*
X15805858Y-8605858D01*
X15805858Y-8634142D01*
X15834142Y-8634142D01*
X15834142Y-8734142D02*
X15834142Y-8705858D01*
X15805858Y-8705858D01*
X15805858Y-8734142D01*
X15834142Y-8734142D01*
X15834142Y-8834142D02*
X15834142Y-8805858D01*
X15805858Y-8805858D01*
X15805858Y-8834142D01*
X15834142Y-8834142D01*
D11*
X14258277Y-9313984D02*
X14258277Y-9113984D01*
X14258277Y-9113984D02*
X14305896Y-9113984D01*
X14305896Y-9113984D02*
X14334467Y-9123508D01*
X14334467Y-9123508D02*
X14353515Y-9142555D01*
X14353515Y-9142555D02*
X14363039Y-9161603D01*
X14363039Y-9161603D02*
X14372562Y-9199698D01*
X14372562Y-9199698D02*
X14372562Y-9228270D01*
X14372562Y-9228270D02*
X14363039Y-9266365D01*
X14363039Y-9266365D02*
X14353515Y-9285412D01*
X14353515Y-9285412D02*
X14334467Y-9304460D01*
X14334467Y-9304460D02*
X14305896Y-9313984D01*
X14305896Y-9313984D02*
X14258277Y-9313984D01*
X14458277Y-9313984D02*
X14458277Y-9180650D01*
X14458277Y-9218746D02*
X14467801Y-9199698D01*
X14467801Y-9199698D02*
X14477324Y-9190174D01*
X14477324Y-9190174D02*
X14496372Y-9180650D01*
X14496372Y-9180650D02*
X14515420Y-9180650D01*
X14582086Y-9313984D02*
X14582086Y-9180650D01*
X14582086Y-9113984D02*
X14572562Y-9123508D01*
X14572562Y-9123508D02*
X14582086Y-9133031D01*
X14582086Y-9133031D02*
X14591610Y-9123508D01*
X14591610Y-9123508D02*
X14582086Y-9113984D01*
X14582086Y-9113984D02*
X14582086Y-9133031D01*
X14705896Y-9313984D02*
X14686848Y-9304460D01*
X14686848Y-9304460D02*
X14677324Y-9285412D01*
X14677324Y-9285412D02*
X14677324Y-9113984D01*
X14810658Y-9313984D02*
X14791610Y-9304460D01*
X14791610Y-9304460D02*
X14782086Y-9285412D01*
X14782086Y-9285412D02*
X14782086Y-9113984D01*
X15039229Y-9313984D02*
X15039229Y-9113984D01*
X15039229Y-9113984D02*
X15105896Y-9256841D01*
X15105896Y-9256841D02*
X15172562Y-9113984D01*
X15172562Y-9113984D02*
X15172562Y-9313984D01*
X15353515Y-9313984D02*
X15353515Y-9209222D01*
X15353515Y-9209222D02*
X15343991Y-9190174D01*
X15343991Y-9190174D02*
X15324943Y-9180650D01*
X15324943Y-9180650D02*
X15286848Y-9180650D01*
X15286848Y-9180650D02*
X15267801Y-9190174D01*
X15353515Y-9304460D02*
X15334467Y-9313984D01*
X15334467Y-9313984D02*
X15286848Y-9313984D01*
X15286848Y-9313984D02*
X15267801Y-9304460D01*
X15267801Y-9304460D02*
X15258277Y-9285412D01*
X15258277Y-9285412D02*
X15258277Y-9266365D01*
X15258277Y-9266365D02*
X15267801Y-9247317D01*
X15267801Y-9247317D02*
X15286848Y-9237793D01*
X15286848Y-9237793D02*
X15334467Y-9237793D01*
X15334467Y-9237793D02*
X15353515Y-9228270D01*
X15448753Y-9180650D02*
X15448753Y-9380650D01*
X15448753Y-9190174D02*
X15467801Y-9180650D01*
X15467801Y-9180650D02*
X15505896Y-9180650D01*
X15505896Y-9180650D02*
X15524943Y-9190174D01*
X15524943Y-9190174D02*
X15534467Y-9199698D01*
X15534467Y-9199698D02*
X15543991Y-9218746D01*
X15543991Y-9218746D02*
X15543991Y-9275889D01*
X15543991Y-9275889D02*
X15534467Y-9294936D01*
X15534467Y-9294936D02*
X15524943Y-9304460D01*
X15524943Y-9304460D02*
X15505896Y-9313984D01*
X15505896Y-9313984D02*
X15467801Y-9313984D01*
X15467801Y-9313984D02*
X15448753Y-9304460D01*
X15629705Y-9294936D02*
X15639229Y-9304460D01*
X15639229Y-9304460D02*
X15629705Y-9313984D01*
X15629705Y-9313984D02*
X15620182Y-9304460D01*
X15620182Y-9304460D02*
X15629705Y-9294936D01*
X15629705Y-9294936D02*
X15629705Y-9313984D01*
X15629705Y-9190174D02*
X15639229Y-9199698D01*
X15639229Y-9199698D02*
X15629705Y-9209222D01*
X15629705Y-9209222D02*
X15620182Y-9199698D01*
X15620182Y-9199698D02*
X15629705Y-9190174D01*
X15629705Y-9190174D02*
X15629705Y-9209222D01*
D12*
X13971500Y-9629500D02*
X13997500Y-9655500D01*
X13997500Y-9629500D02*
X13971500Y-9655500D01*
D11*
X14296372Y-9533984D02*
X14315420Y-9533984D01*
X14315420Y-9533984D02*
X14334467Y-9543508D01*
X14334467Y-9543508D02*
X14343991Y-9553031D01*
X14343991Y-9553031D02*
X14353515Y-9572079D01*
X14353515Y-9572079D02*
X14363039Y-9610174D01*
X14363039Y-9610174D02*
X14363039Y-9657793D01*
X14363039Y-9657793D02*
X14353515Y-9695889D01*
X14353515Y-9695889D02*
X14343991Y-9714936D01*
X14343991Y-9714936D02*
X14334467Y-9724460D01*
X14334467Y-9724460D02*
X14315420Y-9733984D01*
X14315420Y-9733984D02*
X14296372Y-9733984D01*
X14296372Y-9733984D02*
X14277324Y-9724460D01*
X14277324Y-9724460D02*
X14267801Y-9714936D01*
X14267801Y-9714936D02*
X14258277Y-9695889D01*
X14258277Y-9695889D02*
X14248753Y-9657793D01*
X14248753Y-9657793D02*
X14248753Y-9610174D01*
X14248753Y-9610174D02*
X14258277Y-9572079D01*
X14258277Y-9572079D02*
X14267801Y-9553031D01*
X14267801Y-9553031D02*
X14277324Y-9543508D01*
X14277324Y-9543508D02*
X14296372Y-9533984D01*
X14448753Y-9714936D02*
X14458277Y-9724460D01*
X14458277Y-9724460D02*
X14448753Y-9733984D01*
X14448753Y-9733984D02*
X14439229Y-9724460D01*
X14439229Y-9724460D02*
X14448753Y-9714936D01*
X14448753Y-9714936D02*
X14448753Y-9733984D01*
X14534467Y-9553031D02*
X14543991Y-9543508D01*
X14543991Y-9543508D02*
X14563039Y-9533984D01*
X14563039Y-9533984D02*
X14610658Y-9533984D01*
X14610658Y-9533984D02*
X14629705Y-9543508D01*
X14629705Y-9543508D02*
X14639229Y-9553031D01*
X14639229Y-9553031D02*
X14648753Y-9572079D01*
X14648753Y-9572079D02*
X14648753Y-9591127D01*
X14648753Y-9591127D02*
X14639229Y-9619698D01*
X14639229Y-9619698D02*
X14524943Y-9733984D01*
X14524943Y-9733984D02*
X14648753Y-9733984D01*
X14820182Y-9533984D02*
X14782086Y-9533984D01*
X14782086Y-9533984D02*
X14763039Y-9543508D01*
X14763039Y-9543508D02*
X14753515Y-9553031D01*
X14753515Y-9553031D02*
X14734467Y-9581603D01*
X14734467Y-9581603D02*
X14724943Y-9619698D01*
X14724943Y-9619698D02*
X14724943Y-9695889D01*
X14724943Y-9695889D02*
X14734467Y-9714936D01*
X14734467Y-9714936D02*
X14743991Y-9724460D01*
X14743991Y-9724460D02*
X14763039Y-9733984D01*
X14763039Y-9733984D02*
X14801134Y-9733984D01*
X14801134Y-9733984D02*
X14820182Y-9724460D01*
X14820182Y-9724460D02*
X14829705Y-9714936D01*
X14829705Y-9714936D02*
X14839229Y-9695889D01*
X14839229Y-9695889D02*
X14839229Y-9648270D01*
X14839229Y-9648270D02*
X14829705Y-9629222D01*
X14829705Y-9629222D02*
X14820182Y-9619698D01*
X14820182Y-9619698D02*
X14801134Y-9610174D01*
X14801134Y-9610174D02*
X14763039Y-9610174D01*
X14763039Y-9610174D02*
X14743991Y-9619698D01*
X14743991Y-9619698D02*
X14734467Y-9629222D01*
X14734467Y-9629222D02*
X14724943Y-9648270D01*
X14963039Y-9533984D02*
X14982086Y-9533984D01*
X14982086Y-9533984D02*
X15001134Y-9543508D01*
X15001134Y-9543508D02*
X15010658Y-9553031D01*
X15010658Y-9553031D02*
X15020182Y-9572079D01*
X15020182Y-9572079D02*
X15029705Y-9610174D01*
X15029705Y-9610174D02*
X15029705Y-9657793D01*
X15029705Y-9657793D02*
X15020182Y-9695889D01*
X15020182Y-9695889D02*
X15010658Y-9714936D01*
X15010658Y-9714936D02*
X15001134Y-9724460D01*
X15001134Y-9724460D02*
X14982086Y-9733984D01*
X14982086Y-9733984D02*
X14963039Y-9733984D01*
X14963039Y-9733984D02*
X14943991Y-9724460D01*
X14943991Y-9724460D02*
X14934467Y-9714936D01*
X14934467Y-9714936D02*
X14924943Y-9695889D01*
X14924943Y-9695889D02*
X14915420Y-9657793D01*
X14915420Y-9657793D02*
X14915420Y-9610174D01*
X14915420Y-9610174D02*
X14924943Y-9572079D01*
X14924943Y-9572079D02*
X14934467Y-9553031D01*
X14934467Y-9553031D02*
X14943991Y-9543508D01*
X14943991Y-9543508D02*
X14963039Y-9533984D01*
X15115420Y-9733984D02*
X15115420Y-9600650D01*
X15115420Y-9619698D02*
X15124943Y-9610174D01*
X15124943Y-9610174D02*
X15143991Y-9600650D01*
X15143991Y-9600650D02*
X15172563Y-9600650D01*
X15172563Y-9600650D02*
X15191610Y-9610174D01*
X15191610Y-9610174D02*
X15201134Y-9629222D01*
X15201134Y-9629222D02*
X15201134Y-9733984D01*
X15201134Y-9629222D02*
X15210658Y-9610174D01*
X15210658Y-9610174D02*
X15229705Y-9600650D01*
X15229705Y-9600650D02*
X15258277Y-9600650D01*
X15258277Y-9600650D02*
X15277324Y-9610174D01*
X15277324Y-9610174D02*
X15286848Y-9629222D01*
X15286848Y-9629222D02*
X15286848Y-9733984D01*
X15382086Y-9733984D02*
X15382086Y-9600650D01*
X15382086Y-9619698D02*
X15391610Y-9610174D01*
X15391610Y-9610174D02*
X15410658Y-9600650D01*
X15410658Y-9600650D02*
X15439229Y-9600650D01*
X15439229Y-9600650D02*
X15458277Y-9610174D01*
X15458277Y-9610174D02*
X15467801Y-9629222D01*
X15467801Y-9629222D02*
X15467801Y-9733984D01*
X15467801Y-9629222D02*
X15477324Y-9610174D01*
X15477324Y-9610174D02*
X15496372Y-9600650D01*
X15496372Y-9600650D02*
X15524943Y-9600650D01*
X15524943Y-9600650D02*
X15543991Y-9610174D01*
X15543991Y-9610174D02*
X15553515Y-9629222D01*
X15553515Y-9629222D02*
X15553515Y-9733984D01*
X15943991Y-9524460D02*
X15772563Y-9781603D01*
X16201134Y-9533984D02*
X16220182Y-9533984D01*
X16220182Y-9533984D02*
X16239229Y-9543508D01*
X16239229Y-9543508D02*
X16248753Y-9553031D01*
X16248753Y-9553031D02*
X16258277Y-9572079D01*
X16258277Y-9572079D02*
X16267801Y-9610174D01*
X16267801Y-9610174D02*
X16267801Y-9657793D01*
X16267801Y-9657793D02*
X16258277Y-9695889D01*
X16258277Y-9695889D02*
X16248753Y-9714936D01*
X16248753Y-9714936D02*
X16239229Y-9724460D01*
X16239229Y-9724460D02*
X16220182Y-9733984D01*
X16220182Y-9733984D02*
X16201134Y-9733984D01*
X16201134Y-9733984D02*
X16182086Y-9724460D01*
X16182086Y-9724460D02*
X16172563Y-9714936D01*
X16172563Y-9714936D02*
X16163039Y-9695889D01*
X16163039Y-9695889D02*
X16153515Y-9657793D01*
X16153515Y-9657793D02*
X16153515Y-9610174D01*
X16153515Y-9610174D02*
X16163039Y-9572079D01*
X16163039Y-9572079D02*
X16172563Y-9553031D01*
X16172563Y-9553031D02*
X16182086Y-9543508D01*
X16182086Y-9543508D02*
X16201134Y-9533984D01*
X16353515Y-9714936D02*
X16363039Y-9724460D01*
X16363039Y-9724460D02*
X16353515Y-9733984D01*
X16353515Y-9733984D02*
X16343991Y-9724460D01*
X16343991Y-9724460D02*
X16353515Y-9714936D01*
X16353515Y-9714936D02*
X16353515Y-9733984D01*
X16486848Y-9533984D02*
X16505896Y-9533984D01*
X16505896Y-9533984D02*
X16524944Y-9543508D01*
X16524944Y-9543508D02*
X16534467Y-9553031D01*
X16534467Y-9553031D02*
X16543991Y-9572079D01*
X16543991Y-9572079D02*
X16553515Y-9610174D01*
X16553515Y-9610174D02*
X16553515Y-9657793D01*
X16553515Y-9657793D02*
X16543991Y-9695889D01*
X16543991Y-9695889D02*
X16534467Y-9714936D01*
X16534467Y-9714936D02*
X16524944Y-9724460D01*
X16524944Y-9724460D02*
X16505896Y-9733984D01*
X16505896Y-9733984D02*
X16486848Y-9733984D01*
X16486848Y-9733984D02*
X16467801Y-9724460D01*
X16467801Y-9724460D02*
X16458277Y-9714936D01*
X16458277Y-9714936D02*
X16448753Y-9695889D01*
X16448753Y-9695889D02*
X16439229Y-9657793D01*
X16439229Y-9657793D02*
X16439229Y-9610174D01*
X16439229Y-9610174D02*
X16448753Y-9572079D01*
X16448753Y-9572079D02*
X16458277Y-9553031D01*
X16458277Y-9553031D02*
X16467801Y-9543508D01*
X16467801Y-9543508D02*
X16486848Y-9533984D01*
X16743991Y-9733984D02*
X16629706Y-9733984D01*
X16686848Y-9733984D02*
X16686848Y-9533984D01*
X16686848Y-9533984D02*
X16667801Y-9562555D01*
X16667801Y-9562555D02*
X16648753Y-9581603D01*
X16648753Y-9581603D02*
X16629706Y-9591127D01*
X16867801Y-9533984D02*
X16886849Y-9533984D01*
X16886849Y-9533984D02*
X16905896Y-9543508D01*
X16905896Y-9543508D02*
X16915420Y-9553031D01*
X16915420Y-9553031D02*
X16924944Y-9572079D01*
X16924944Y-9572079D02*
X16934468Y-9610174D01*
X16934468Y-9610174D02*
X16934468Y-9657793D01*
X16934468Y-9657793D02*
X16924944Y-9695889D01*
X16924944Y-9695889D02*
X16915420Y-9714936D01*
X16915420Y-9714936D02*
X16905896Y-9724460D01*
X16905896Y-9724460D02*
X16886849Y-9733984D01*
X16886849Y-9733984D02*
X16867801Y-9733984D01*
X16867801Y-9733984D02*
X16848753Y-9724460D01*
X16848753Y-9724460D02*
X16839229Y-9714936D01*
X16839229Y-9714936D02*
X16829706Y-9695889D01*
X16829706Y-9695889D02*
X16820182Y-9657793D01*
X16820182Y-9657793D02*
X16820182Y-9610174D01*
X16820182Y-9610174D02*
X16829706Y-9572079D01*
X16829706Y-9572079D02*
X16839229Y-9553031D01*
X16839229Y-9553031D02*
X16848753Y-9543508D01*
X16848753Y-9543508D02*
X16867801Y-9533984D01*
X17010658Y-9553031D02*
X17020182Y-9543508D01*
X17020182Y-9543508D02*
X17039229Y-9533984D01*
X17039229Y-9533984D02*
X17086849Y-9533984D01*
X17086849Y-9533984D02*
X17105896Y-9543508D01*
X17105896Y-9543508D02*
X17115420Y-9553031D01*
X17115420Y-9553031D02*
X17124944Y-9572079D01*
X17124944Y-9572079D02*
X17124944Y-9591127D01*
X17124944Y-9591127D02*
X17115420Y-9619698D01*
X17115420Y-9619698D02*
X17001134Y-9733984D01*
X17001134Y-9733984D02*
X17124944Y-9733984D01*
X17201134Y-9533984D02*
X17201134Y-9572079D01*
X17277325Y-9533984D02*
X17277325Y-9572079D01*
X17572563Y-9810174D02*
X17563039Y-9800650D01*
X17563039Y-9800650D02*
X17543991Y-9772079D01*
X17543991Y-9772079D02*
X17534468Y-9753031D01*
X17534468Y-9753031D02*
X17524944Y-9724460D01*
X17524944Y-9724460D02*
X17515420Y-9676841D01*
X17515420Y-9676841D02*
X17515420Y-9638746D01*
X17515420Y-9638746D02*
X17524944Y-9591127D01*
X17524944Y-9591127D02*
X17534468Y-9562555D01*
X17534468Y-9562555D02*
X17543991Y-9543508D01*
X17543991Y-9543508D02*
X17563039Y-9514936D01*
X17563039Y-9514936D02*
X17572563Y-9505412D01*
X17753515Y-9733984D02*
X17639230Y-9733984D01*
X17696372Y-9733984D02*
X17696372Y-9533984D01*
X17696372Y-9533984D02*
X17677325Y-9562555D01*
X17677325Y-9562555D02*
X17658277Y-9581603D01*
X17658277Y-9581603D02*
X17639230Y-9591127D01*
X17991611Y-9733984D02*
X17991611Y-9533984D01*
X18077325Y-9733984D02*
X18077325Y-9629222D01*
X18077325Y-9629222D02*
X18067801Y-9610174D01*
X18067801Y-9610174D02*
X18048753Y-9600650D01*
X18048753Y-9600650D02*
X18020182Y-9600650D01*
X18020182Y-9600650D02*
X18001134Y-9610174D01*
X18001134Y-9610174D02*
X17991611Y-9619698D01*
X18201134Y-9733984D02*
X18182087Y-9724460D01*
X18182087Y-9724460D02*
X18172563Y-9714936D01*
X18172563Y-9714936D02*
X18163039Y-9695889D01*
X18163039Y-9695889D02*
X18163039Y-9638746D01*
X18163039Y-9638746D02*
X18172563Y-9619698D01*
X18172563Y-9619698D02*
X18182087Y-9610174D01*
X18182087Y-9610174D02*
X18201134Y-9600650D01*
X18201134Y-9600650D02*
X18229706Y-9600650D01*
X18229706Y-9600650D02*
X18248753Y-9610174D01*
X18248753Y-9610174D02*
X18258277Y-9619698D01*
X18258277Y-9619698D02*
X18267801Y-9638746D01*
X18267801Y-9638746D02*
X18267801Y-9695889D01*
X18267801Y-9695889D02*
X18258277Y-9714936D01*
X18258277Y-9714936D02*
X18248753Y-9724460D01*
X18248753Y-9724460D02*
X18229706Y-9733984D01*
X18229706Y-9733984D02*
X18201134Y-9733984D01*
X18382087Y-9733984D02*
X18363039Y-9724460D01*
X18363039Y-9724460D02*
X18353515Y-9705412D01*
X18353515Y-9705412D02*
X18353515Y-9533984D01*
X18534468Y-9724460D02*
X18515420Y-9733984D01*
X18515420Y-9733984D02*
X18477325Y-9733984D01*
X18477325Y-9733984D02*
X18458277Y-9724460D01*
X18458277Y-9724460D02*
X18448753Y-9705412D01*
X18448753Y-9705412D02*
X18448753Y-9629222D01*
X18448753Y-9629222D02*
X18458277Y-9610174D01*
X18458277Y-9610174D02*
X18477325Y-9600650D01*
X18477325Y-9600650D02*
X18515420Y-9600650D01*
X18515420Y-9600650D02*
X18534468Y-9610174D01*
X18534468Y-9610174D02*
X18543992Y-9629222D01*
X18543992Y-9629222D02*
X18543992Y-9648270D01*
X18543992Y-9648270D02*
X18448753Y-9667317D01*
X18610658Y-9810174D02*
X18620182Y-9800650D01*
X18620182Y-9800650D02*
X18639230Y-9772079D01*
X18639230Y-9772079D02*
X18648753Y-9753031D01*
X18648753Y-9753031D02*
X18658277Y-9724460D01*
X18658277Y-9724460D02*
X18667801Y-9676841D01*
X18667801Y-9676841D02*
X18667801Y-9638746D01*
X18667801Y-9638746D02*
X18658277Y-9591127D01*
X18658277Y-9591127D02*
X18648753Y-9562555D01*
X18648753Y-9562555D02*
X18639230Y-9543508D01*
X18639230Y-9543508D02*
X18620182Y-9514936D01*
X18620182Y-9514936D02*
X18610658Y-9505412D01*
D12*
X13997500Y-9906500D02*
G75*
G02*
X13967500Y-9906500I-15000J0D01*
G01*
X13967500Y-9906500D02*
G75*
G02*
X13997500Y-9906500I15000J0D01*
G01*
D11*
X14296372Y-9797984D02*
X14315420Y-9797984D01*
X14315420Y-9797984D02*
X14334467Y-9807508D01*
X14334467Y-9807508D02*
X14343991Y-9817031D01*
X14343991Y-9817031D02*
X14353515Y-9836079D01*
X14353515Y-9836079D02*
X14363039Y-9874174D01*
X14363039Y-9874174D02*
X14363039Y-9921793D01*
X14363039Y-9921793D02*
X14353515Y-9959889D01*
X14353515Y-9959889D02*
X14343991Y-9978936D01*
X14343991Y-9978936D02*
X14334467Y-9988460D01*
X14334467Y-9988460D02*
X14315420Y-9997984D01*
X14315420Y-9997984D02*
X14296372Y-9997984D01*
X14296372Y-9997984D02*
X14277324Y-9988460D01*
X14277324Y-9988460D02*
X14267801Y-9978936D01*
X14267801Y-9978936D02*
X14258277Y-9959889D01*
X14258277Y-9959889D02*
X14248753Y-9921793D01*
X14248753Y-9921793D02*
X14248753Y-9874174D01*
X14248753Y-9874174D02*
X14258277Y-9836079D01*
X14258277Y-9836079D02*
X14267801Y-9817031D01*
X14267801Y-9817031D02*
X14277324Y-9807508D01*
X14277324Y-9807508D02*
X14296372Y-9797984D01*
X14448753Y-9978936D02*
X14458277Y-9988460D01*
X14458277Y-9988460D02*
X14448753Y-9997984D01*
X14448753Y-9997984D02*
X14439229Y-9988460D01*
X14439229Y-9988460D02*
X14448753Y-9978936D01*
X14448753Y-9978936D02*
X14448753Y-9997984D01*
X14524943Y-9797984D02*
X14648753Y-9797984D01*
X14648753Y-9797984D02*
X14582086Y-9874174D01*
X14582086Y-9874174D02*
X14610658Y-9874174D01*
X14610658Y-9874174D02*
X14629705Y-9883698D01*
X14629705Y-9883698D02*
X14639229Y-9893222D01*
X14639229Y-9893222D02*
X14648753Y-9912270D01*
X14648753Y-9912270D02*
X14648753Y-9959889D01*
X14648753Y-9959889D02*
X14639229Y-9978936D01*
X14639229Y-9978936D02*
X14629705Y-9988460D01*
X14629705Y-9988460D02*
X14610658Y-9997984D01*
X14610658Y-9997984D02*
X14553515Y-9997984D01*
X14553515Y-9997984D02*
X14534467Y-9988460D01*
X14534467Y-9988460D02*
X14524943Y-9978936D01*
X14772562Y-9797984D02*
X14791610Y-9797984D01*
X14791610Y-9797984D02*
X14810658Y-9807508D01*
X14810658Y-9807508D02*
X14820182Y-9817031D01*
X14820182Y-9817031D02*
X14829705Y-9836079D01*
X14829705Y-9836079D02*
X14839229Y-9874174D01*
X14839229Y-9874174D02*
X14839229Y-9921793D01*
X14839229Y-9921793D02*
X14829705Y-9959889D01*
X14829705Y-9959889D02*
X14820182Y-9978936D01*
X14820182Y-9978936D02*
X14810658Y-9988460D01*
X14810658Y-9988460D02*
X14791610Y-9997984D01*
X14791610Y-9997984D02*
X14772562Y-9997984D01*
X14772562Y-9997984D02*
X14753515Y-9988460D01*
X14753515Y-9988460D02*
X14743991Y-9978936D01*
X14743991Y-9978936D02*
X14734467Y-9959889D01*
X14734467Y-9959889D02*
X14724943Y-9921793D01*
X14724943Y-9921793D02*
X14724943Y-9874174D01*
X14724943Y-9874174D02*
X14734467Y-9836079D01*
X14734467Y-9836079D02*
X14743991Y-9817031D01*
X14743991Y-9817031D02*
X14753515Y-9807508D01*
X14753515Y-9807508D02*
X14772562Y-9797984D01*
X14963039Y-9797984D02*
X14982086Y-9797984D01*
X14982086Y-9797984D02*
X15001134Y-9807508D01*
X15001134Y-9807508D02*
X15010658Y-9817031D01*
X15010658Y-9817031D02*
X15020182Y-9836079D01*
X15020182Y-9836079D02*
X15029705Y-9874174D01*
X15029705Y-9874174D02*
X15029705Y-9921793D01*
X15029705Y-9921793D02*
X15020182Y-9959889D01*
X15020182Y-9959889D02*
X15010658Y-9978936D01*
X15010658Y-9978936D02*
X15001134Y-9988460D01*
X15001134Y-9988460D02*
X14982086Y-9997984D01*
X14982086Y-9997984D02*
X14963039Y-9997984D01*
X14963039Y-9997984D02*
X14943991Y-9988460D01*
X14943991Y-9988460D02*
X14934467Y-9978936D01*
X14934467Y-9978936D02*
X14924943Y-9959889D01*
X14924943Y-9959889D02*
X14915420Y-9921793D01*
X14915420Y-9921793D02*
X14915420Y-9874174D01*
X14915420Y-9874174D02*
X14924943Y-9836079D01*
X14924943Y-9836079D02*
X14934467Y-9817031D01*
X14934467Y-9817031D02*
X14943991Y-9807508D01*
X14943991Y-9807508D02*
X14963039Y-9797984D01*
X15115420Y-9997984D02*
X15115420Y-9864650D01*
X15115420Y-9883698D02*
X15124943Y-9874174D01*
X15124943Y-9874174D02*
X15143991Y-9864650D01*
X15143991Y-9864650D02*
X15172563Y-9864650D01*
X15172563Y-9864650D02*
X15191610Y-9874174D01*
X15191610Y-9874174D02*
X15201134Y-9893222D01*
X15201134Y-9893222D02*
X15201134Y-9997984D01*
X15201134Y-9893222D02*
X15210658Y-9874174D01*
X15210658Y-9874174D02*
X15229705Y-9864650D01*
X15229705Y-9864650D02*
X15258277Y-9864650D01*
X15258277Y-9864650D02*
X15277324Y-9874174D01*
X15277324Y-9874174D02*
X15286848Y-9893222D01*
X15286848Y-9893222D02*
X15286848Y-9997984D01*
X15382086Y-9997984D02*
X15382086Y-9864650D01*
X15382086Y-9883698D02*
X15391610Y-9874174D01*
X15391610Y-9874174D02*
X15410658Y-9864650D01*
X15410658Y-9864650D02*
X15439229Y-9864650D01*
X15439229Y-9864650D02*
X15458277Y-9874174D01*
X15458277Y-9874174D02*
X15467801Y-9893222D01*
X15467801Y-9893222D02*
X15467801Y-9997984D01*
X15467801Y-9893222D02*
X15477324Y-9874174D01*
X15477324Y-9874174D02*
X15496372Y-9864650D01*
X15496372Y-9864650D02*
X15524943Y-9864650D01*
X15524943Y-9864650D02*
X15543991Y-9874174D01*
X15543991Y-9874174D02*
X15553515Y-9893222D01*
X15553515Y-9893222D02*
X15553515Y-9997984D01*
X15943991Y-9788460D02*
X15772563Y-10045603D01*
X16201134Y-9797984D02*
X16220182Y-9797984D01*
X16220182Y-9797984D02*
X16239229Y-9807508D01*
X16239229Y-9807508D02*
X16248753Y-9817031D01*
X16248753Y-9817031D02*
X16258277Y-9836079D01*
X16258277Y-9836079D02*
X16267801Y-9874174D01*
X16267801Y-9874174D02*
X16267801Y-9921793D01*
X16267801Y-9921793D02*
X16258277Y-9959889D01*
X16258277Y-9959889D02*
X16248753Y-9978936D01*
X16248753Y-9978936D02*
X16239229Y-9988460D01*
X16239229Y-9988460D02*
X16220182Y-9997984D01*
X16220182Y-9997984D02*
X16201134Y-9997984D01*
X16201134Y-9997984D02*
X16182086Y-9988460D01*
X16182086Y-9988460D02*
X16172563Y-9978936D01*
X16172563Y-9978936D02*
X16163039Y-9959889D01*
X16163039Y-9959889D02*
X16153515Y-9921793D01*
X16153515Y-9921793D02*
X16153515Y-9874174D01*
X16153515Y-9874174D02*
X16163039Y-9836079D01*
X16163039Y-9836079D02*
X16172563Y-9817031D01*
X16172563Y-9817031D02*
X16182086Y-9807508D01*
X16182086Y-9807508D02*
X16201134Y-9797984D01*
X16353515Y-9978936D02*
X16363039Y-9988460D01*
X16363039Y-9988460D02*
X16353515Y-9997984D01*
X16353515Y-9997984D02*
X16343991Y-9988460D01*
X16343991Y-9988460D02*
X16353515Y-9978936D01*
X16353515Y-9978936D02*
X16353515Y-9997984D01*
X16486848Y-9797984D02*
X16505896Y-9797984D01*
X16505896Y-9797984D02*
X16524944Y-9807508D01*
X16524944Y-9807508D02*
X16534467Y-9817031D01*
X16534467Y-9817031D02*
X16543991Y-9836079D01*
X16543991Y-9836079D02*
X16553515Y-9874174D01*
X16553515Y-9874174D02*
X16553515Y-9921793D01*
X16553515Y-9921793D02*
X16543991Y-9959889D01*
X16543991Y-9959889D02*
X16534467Y-9978936D01*
X16534467Y-9978936D02*
X16524944Y-9988460D01*
X16524944Y-9988460D02*
X16505896Y-9997984D01*
X16505896Y-9997984D02*
X16486848Y-9997984D01*
X16486848Y-9997984D02*
X16467801Y-9988460D01*
X16467801Y-9988460D02*
X16458277Y-9978936D01*
X16458277Y-9978936D02*
X16448753Y-9959889D01*
X16448753Y-9959889D02*
X16439229Y-9921793D01*
X16439229Y-9921793D02*
X16439229Y-9874174D01*
X16439229Y-9874174D02*
X16448753Y-9836079D01*
X16448753Y-9836079D02*
X16458277Y-9817031D01*
X16458277Y-9817031D02*
X16467801Y-9807508D01*
X16467801Y-9807508D02*
X16486848Y-9797984D01*
X16743991Y-9997984D02*
X16629706Y-9997984D01*
X16686848Y-9997984D02*
X16686848Y-9797984D01*
X16686848Y-9797984D02*
X16667801Y-9826555D01*
X16667801Y-9826555D02*
X16648753Y-9845603D01*
X16648753Y-9845603D02*
X16629706Y-9855127D01*
X16934468Y-9997984D02*
X16820182Y-9997984D01*
X16877325Y-9997984D02*
X16877325Y-9797984D01*
X16877325Y-9797984D02*
X16858277Y-9826555D01*
X16858277Y-9826555D02*
X16839229Y-9845603D01*
X16839229Y-9845603D02*
X16820182Y-9855127D01*
X17048753Y-9883698D02*
X17029706Y-9874174D01*
X17029706Y-9874174D02*
X17020182Y-9864650D01*
X17020182Y-9864650D02*
X17010658Y-9845603D01*
X17010658Y-9845603D02*
X17010658Y-9836079D01*
X17010658Y-9836079D02*
X17020182Y-9817031D01*
X17020182Y-9817031D02*
X17029706Y-9807508D01*
X17029706Y-9807508D02*
X17048753Y-9797984D01*
X17048753Y-9797984D02*
X17086849Y-9797984D01*
X17086849Y-9797984D02*
X17105896Y-9807508D01*
X17105896Y-9807508D02*
X17115420Y-9817031D01*
X17115420Y-9817031D02*
X17124944Y-9836079D01*
X17124944Y-9836079D02*
X17124944Y-9845603D01*
X17124944Y-9845603D02*
X17115420Y-9864650D01*
X17115420Y-9864650D02*
X17105896Y-9874174D01*
X17105896Y-9874174D02*
X17086849Y-9883698D01*
X17086849Y-9883698D02*
X17048753Y-9883698D01*
X17048753Y-9883698D02*
X17029706Y-9893222D01*
X17029706Y-9893222D02*
X17020182Y-9902746D01*
X17020182Y-9902746D02*
X17010658Y-9921793D01*
X17010658Y-9921793D02*
X17010658Y-9959889D01*
X17010658Y-9959889D02*
X17020182Y-9978936D01*
X17020182Y-9978936D02*
X17029706Y-9988460D01*
X17029706Y-9988460D02*
X17048753Y-9997984D01*
X17048753Y-9997984D02*
X17086849Y-9997984D01*
X17086849Y-9997984D02*
X17105896Y-9988460D01*
X17105896Y-9988460D02*
X17115420Y-9978936D01*
X17115420Y-9978936D02*
X17124944Y-9959889D01*
X17124944Y-9959889D02*
X17124944Y-9921793D01*
X17124944Y-9921793D02*
X17115420Y-9902746D01*
X17115420Y-9902746D02*
X17105896Y-9893222D01*
X17105896Y-9893222D02*
X17086849Y-9883698D01*
X17201134Y-9797984D02*
X17201134Y-9836079D01*
X17277325Y-9797984D02*
X17277325Y-9836079D01*
X17572563Y-10074174D02*
X17563039Y-10064650D01*
X17563039Y-10064650D02*
X17543991Y-10036079D01*
X17543991Y-10036079D02*
X17534468Y-10017031D01*
X17534468Y-10017031D02*
X17524944Y-9988460D01*
X17524944Y-9988460D02*
X17515420Y-9940841D01*
X17515420Y-9940841D02*
X17515420Y-9902746D01*
X17515420Y-9902746D02*
X17524944Y-9855127D01*
X17524944Y-9855127D02*
X17534468Y-9826555D01*
X17534468Y-9826555D02*
X17543991Y-9807508D01*
X17543991Y-9807508D02*
X17563039Y-9778936D01*
X17563039Y-9778936D02*
X17572563Y-9769412D01*
X17734468Y-9864650D02*
X17734468Y-9997984D01*
X17686849Y-9788460D02*
X17639230Y-9931317D01*
X17639230Y-9931317D02*
X17763039Y-9931317D01*
X17877325Y-9797984D02*
X17896372Y-9797984D01*
X17896372Y-9797984D02*
X17915420Y-9807508D01*
X17915420Y-9807508D02*
X17924944Y-9817031D01*
X17924944Y-9817031D02*
X17934468Y-9836079D01*
X17934468Y-9836079D02*
X17943991Y-9874174D01*
X17943991Y-9874174D02*
X17943991Y-9921793D01*
X17943991Y-9921793D02*
X17934468Y-9959889D01*
X17934468Y-9959889D02*
X17924944Y-9978936D01*
X17924944Y-9978936D02*
X17915420Y-9988460D01*
X17915420Y-9988460D02*
X17896372Y-9997984D01*
X17896372Y-9997984D02*
X17877325Y-9997984D01*
X17877325Y-9997984D02*
X17858277Y-9988460D01*
X17858277Y-9988460D02*
X17848753Y-9978936D01*
X17848753Y-9978936D02*
X17839230Y-9959889D01*
X17839230Y-9959889D02*
X17829706Y-9921793D01*
X17829706Y-9921793D02*
X17829706Y-9874174D01*
X17829706Y-9874174D02*
X17839230Y-9836079D01*
X17839230Y-9836079D02*
X17848753Y-9817031D01*
X17848753Y-9817031D02*
X17858277Y-9807508D01*
X17858277Y-9807508D02*
X17877325Y-9797984D01*
X18182087Y-9997984D02*
X18182087Y-9797984D01*
X18267801Y-9997984D02*
X18267801Y-9893222D01*
X18267801Y-9893222D02*
X18258277Y-9874174D01*
X18258277Y-9874174D02*
X18239230Y-9864650D01*
X18239230Y-9864650D02*
X18210658Y-9864650D01*
X18210658Y-9864650D02*
X18191611Y-9874174D01*
X18191611Y-9874174D02*
X18182087Y-9883698D01*
X18391611Y-9997984D02*
X18372563Y-9988460D01*
X18372563Y-9988460D02*
X18363039Y-9978936D01*
X18363039Y-9978936D02*
X18353515Y-9959889D01*
X18353515Y-9959889D02*
X18353515Y-9902746D01*
X18353515Y-9902746D02*
X18363039Y-9883698D01*
X18363039Y-9883698D02*
X18372563Y-9874174D01*
X18372563Y-9874174D02*
X18391611Y-9864650D01*
X18391611Y-9864650D02*
X18420182Y-9864650D01*
X18420182Y-9864650D02*
X18439230Y-9874174D01*
X18439230Y-9874174D02*
X18448753Y-9883698D01*
X18448753Y-9883698D02*
X18458277Y-9902746D01*
X18458277Y-9902746D02*
X18458277Y-9959889D01*
X18458277Y-9959889D02*
X18448753Y-9978936D01*
X18448753Y-9978936D02*
X18439230Y-9988460D01*
X18439230Y-9988460D02*
X18420182Y-9997984D01*
X18420182Y-9997984D02*
X18391611Y-9997984D01*
X18572563Y-9997984D02*
X18553515Y-9988460D01*
X18553515Y-9988460D02*
X18543992Y-9969412D01*
X18543992Y-9969412D02*
X18543992Y-9797984D01*
X18724944Y-9988460D02*
X18705896Y-9997984D01*
X18705896Y-9997984D02*
X18667801Y-9997984D01*
X18667801Y-9997984D02*
X18648753Y-9988460D01*
X18648753Y-9988460D02*
X18639230Y-9969412D01*
X18639230Y-9969412D02*
X18639230Y-9893222D01*
X18639230Y-9893222D02*
X18648753Y-9874174D01*
X18648753Y-9874174D02*
X18667801Y-9864650D01*
X18667801Y-9864650D02*
X18705896Y-9864650D01*
X18705896Y-9864650D02*
X18724944Y-9874174D01*
X18724944Y-9874174D02*
X18734468Y-9893222D01*
X18734468Y-9893222D02*
X18734468Y-9912270D01*
X18734468Y-9912270D02*
X18639230Y-9931317D01*
X18810658Y-9988460D02*
X18829706Y-9997984D01*
X18829706Y-9997984D02*
X18867801Y-9997984D01*
X18867801Y-9997984D02*
X18886849Y-9988460D01*
X18886849Y-9988460D02*
X18896373Y-9969412D01*
X18896373Y-9969412D02*
X18896373Y-9959889D01*
X18896373Y-9959889D02*
X18886849Y-9940841D01*
X18886849Y-9940841D02*
X18867801Y-9931317D01*
X18867801Y-9931317D02*
X18839230Y-9931317D01*
X18839230Y-9931317D02*
X18820182Y-9921793D01*
X18820182Y-9921793D02*
X18810658Y-9902746D01*
X18810658Y-9902746D02*
X18810658Y-9893222D01*
X18810658Y-9893222D02*
X18820182Y-9874174D01*
X18820182Y-9874174D02*
X18839230Y-9864650D01*
X18839230Y-9864650D02*
X18867801Y-9864650D01*
X18867801Y-9864650D02*
X18886849Y-9874174D01*
X18963039Y-10074174D02*
X18972563Y-10064650D01*
X18972563Y-10064650D02*
X18991611Y-10036079D01*
X18991611Y-10036079D02*
X19001134Y-10017031D01*
X19001134Y-10017031D02*
X19010658Y-9988460D01*
X19010658Y-9988460D02*
X19020182Y-9940841D01*
X19020182Y-9940841D02*
X19020182Y-9902746D01*
X19020182Y-9902746D02*
X19010658Y-9855127D01*
X19010658Y-9855127D02*
X19001134Y-9826555D01*
X19001134Y-9826555D02*
X18991611Y-9807508D01*
X18991611Y-9807508D02*
X18972563Y-9778936D01*
X18972563Y-9778936D02*
X18963039Y-9769412D01*
D12*
X13980000Y-10153000D02*
X13980000Y-10188000D01*
X13962500Y-10170500D02*
X13997500Y-10170500D01*
D11*
X14296372Y-10061984D02*
X14315420Y-10061984D01*
X14315420Y-10061984D02*
X14334467Y-10071508D01*
X14334467Y-10071508D02*
X14343991Y-10081031D01*
X14343991Y-10081031D02*
X14353515Y-10100079D01*
X14353515Y-10100079D02*
X14363039Y-10138174D01*
X14363039Y-10138174D02*
X14363039Y-10185793D01*
X14363039Y-10185793D02*
X14353515Y-10223889D01*
X14353515Y-10223889D02*
X14343991Y-10242936D01*
X14343991Y-10242936D02*
X14334467Y-10252460D01*
X14334467Y-10252460D02*
X14315420Y-10261984D01*
X14315420Y-10261984D02*
X14296372Y-10261984D01*
X14296372Y-10261984D02*
X14277324Y-10252460D01*
X14277324Y-10252460D02*
X14267801Y-10242936D01*
X14267801Y-10242936D02*
X14258277Y-10223889D01*
X14258277Y-10223889D02*
X14248753Y-10185793D01*
X14248753Y-10185793D02*
X14248753Y-10138174D01*
X14248753Y-10138174D02*
X14258277Y-10100079D01*
X14258277Y-10100079D02*
X14267801Y-10081031D01*
X14267801Y-10081031D02*
X14277324Y-10071508D01*
X14277324Y-10071508D02*
X14296372Y-10061984D01*
X14448753Y-10242936D02*
X14458277Y-10252460D01*
X14458277Y-10252460D02*
X14448753Y-10261984D01*
X14448753Y-10261984D02*
X14439229Y-10252460D01*
X14439229Y-10252460D02*
X14448753Y-10242936D01*
X14448753Y-10242936D02*
X14448753Y-10261984D01*
X14524943Y-10061984D02*
X14648753Y-10061984D01*
X14648753Y-10061984D02*
X14582086Y-10138174D01*
X14582086Y-10138174D02*
X14610658Y-10138174D01*
X14610658Y-10138174D02*
X14629705Y-10147698D01*
X14629705Y-10147698D02*
X14639229Y-10157222D01*
X14639229Y-10157222D02*
X14648753Y-10176270D01*
X14648753Y-10176270D02*
X14648753Y-10223889D01*
X14648753Y-10223889D02*
X14639229Y-10242936D01*
X14639229Y-10242936D02*
X14629705Y-10252460D01*
X14629705Y-10252460D02*
X14610658Y-10261984D01*
X14610658Y-10261984D02*
X14553515Y-10261984D01*
X14553515Y-10261984D02*
X14534467Y-10252460D01*
X14534467Y-10252460D02*
X14524943Y-10242936D01*
X14829705Y-10061984D02*
X14734467Y-10061984D01*
X14734467Y-10061984D02*
X14724943Y-10157222D01*
X14724943Y-10157222D02*
X14734467Y-10147698D01*
X14734467Y-10147698D02*
X14753515Y-10138174D01*
X14753515Y-10138174D02*
X14801134Y-10138174D01*
X14801134Y-10138174D02*
X14820182Y-10147698D01*
X14820182Y-10147698D02*
X14829705Y-10157222D01*
X14829705Y-10157222D02*
X14839229Y-10176270D01*
X14839229Y-10176270D02*
X14839229Y-10223889D01*
X14839229Y-10223889D02*
X14829705Y-10242936D01*
X14829705Y-10242936D02*
X14820182Y-10252460D01*
X14820182Y-10252460D02*
X14801134Y-10261984D01*
X14801134Y-10261984D02*
X14753515Y-10261984D01*
X14753515Y-10261984D02*
X14734467Y-10252460D01*
X14734467Y-10252460D02*
X14724943Y-10242936D01*
X14963039Y-10061984D02*
X14982086Y-10061984D01*
X14982086Y-10061984D02*
X15001134Y-10071508D01*
X15001134Y-10071508D02*
X15010658Y-10081031D01*
X15010658Y-10081031D02*
X15020182Y-10100079D01*
X15020182Y-10100079D02*
X15029705Y-10138174D01*
X15029705Y-10138174D02*
X15029705Y-10185793D01*
X15029705Y-10185793D02*
X15020182Y-10223889D01*
X15020182Y-10223889D02*
X15010658Y-10242936D01*
X15010658Y-10242936D02*
X15001134Y-10252460D01*
X15001134Y-10252460D02*
X14982086Y-10261984D01*
X14982086Y-10261984D02*
X14963039Y-10261984D01*
X14963039Y-10261984D02*
X14943991Y-10252460D01*
X14943991Y-10252460D02*
X14934467Y-10242936D01*
X14934467Y-10242936D02*
X14924943Y-10223889D01*
X14924943Y-10223889D02*
X14915420Y-10185793D01*
X14915420Y-10185793D02*
X14915420Y-10138174D01*
X14915420Y-10138174D02*
X14924943Y-10100079D01*
X14924943Y-10100079D02*
X14934467Y-10081031D01*
X14934467Y-10081031D02*
X14943991Y-10071508D01*
X14943991Y-10071508D02*
X14963039Y-10061984D01*
X15115420Y-10261984D02*
X15115420Y-10128650D01*
X15115420Y-10147698D02*
X15124943Y-10138174D01*
X15124943Y-10138174D02*
X15143991Y-10128650D01*
X15143991Y-10128650D02*
X15172563Y-10128650D01*
X15172563Y-10128650D02*
X15191610Y-10138174D01*
X15191610Y-10138174D02*
X15201134Y-10157222D01*
X15201134Y-10157222D02*
X15201134Y-10261984D01*
X15201134Y-10157222D02*
X15210658Y-10138174D01*
X15210658Y-10138174D02*
X15229705Y-10128650D01*
X15229705Y-10128650D02*
X15258277Y-10128650D01*
X15258277Y-10128650D02*
X15277324Y-10138174D01*
X15277324Y-10138174D02*
X15286848Y-10157222D01*
X15286848Y-10157222D02*
X15286848Y-10261984D01*
X15382086Y-10261984D02*
X15382086Y-10128650D01*
X15382086Y-10147698D02*
X15391610Y-10138174D01*
X15391610Y-10138174D02*
X15410658Y-10128650D01*
X15410658Y-10128650D02*
X15439229Y-10128650D01*
X15439229Y-10128650D02*
X15458277Y-10138174D01*
X15458277Y-10138174D02*
X15467801Y-10157222D01*
X15467801Y-10157222D02*
X15467801Y-10261984D01*
X15467801Y-10157222D02*
X15477324Y-10138174D01*
X15477324Y-10138174D02*
X15496372Y-10128650D01*
X15496372Y-10128650D02*
X15524943Y-10128650D01*
X15524943Y-10128650D02*
X15543991Y-10138174D01*
X15543991Y-10138174D02*
X15553515Y-10157222D01*
X15553515Y-10157222D02*
X15553515Y-10261984D01*
X15943991Y-10052460D02*
X15772563Y-10309603D01*
X16201134Y-10061984D02*
X16220182Y-10061984D01*
X16220182Y-10061984D02*
X16239229Y-10071508D01*
X16239229Y-10071508D02*
X16248753Y-10081031D01*
X16248753Y-10081031D02*
X16258277Y-10100079D01*
X16258277Y-10100079D02*
X16267801Y-10138174D01*
X16267801Y-10138174D02*
X16267801Y-10185793D01*
X16267801Y-10185793D02*
X16258277Y-10223889D01*
X16258277Y-10223889D02*
X16248753Y-10242936D01*
X16248753Y-10242936D02*
X16239229Y-10252460D01*
X16239229Y-10252460D02*
X16220182Y-10261984D01*
X16220182Y-10261984D02*
X16201134Y-10261984D01*
X16201134Y-10261984D02*
X16182086Y-10252460D01*
X16182086Y-10252460D02*
X16172563Y-10242936D01*
X16172563Y-10242936D02*
X16163039Y-10223889D01*
X16163039Y-10223889D02*
X16153515Y-10185793D01*
X16153515Y-10185793D02*
X16153515Y-10138174D01*
X16153515Y-10138174D02*
X16163039Y-10100079D01*
X16163039Y-10100079D02*
X16172563Y-10081031D01*
X16172563Y-10081031D02*
X16182086Y-10071508D01*
X16182086Y-10071508D02*
X16201134Y-10061984D01*
X16353515Y-10242936D02*
X16363039Y-10252460D01*
X16363039Y-10252460D02*
X16353515Y-10261984D01*
X16353515Y-10261984D02*
X16343991Y-10252460D01*
X16343991Y-10252460D02*
X16353515Y-10242936D01*
X16353515Y-10242936D02*
X16353515Y-10261984D01*
X16486848Y-10061984D02*
X16505896Y-10061984D01*
X16505896Y-10061984D02*
X16524944Y-10071508D01*
X16524944Y-10071508D02*
X16534467Y-10081031D01*
X16534467Y-10081031D02*
X16543991Y-10100079D01*
X16543991Y-10100079D02*
X16553515Y-10138174D01*
X16553515Y-10138174D02*
X16553515Y-10185793D01*
X16553515Y-10185793D02*
X16543991Y-10223889D01*
X16543991Y-10223889D02*
X16534467Y-10242936D01*
X16534467Y-10242936D02*
X16524944Y-10252460D01*
X16524944Y-10252460D02*
X16505896Y-10261984D01*
X16505896Y-10261984D02*
X16486848Y-10261984D01*
X16486848Y-10261984D02*
X16467801Y-10252460D01*
X16467801Y-10252460D02*
X16458277Y-10242936D01*
X16458277Y-10242936D02*
X16448753Y-10223889D01*
X16448753Y-10223889D02*
X16439229Y-10185793D01*
X16439229Y-10185793D02*
X16439229Y-10138174D01*
X16439229Y-10138174D02*
X16448753Y-10100079D01*
X16448753Y-10100079D02*
X16458277Y-10081031D01*
X16458277Y-10081031D02*
X16467801Y-10071508D01*
X16467801Y-10071508D02*
X16486848Y-10061984D01*
X16743991Y-10261984D02*
X16629706Y-10261984D01*
X16686848Y-10261984D02*
X16686848Y-10061984D01*
X16686848Y-10061984D02*
X16667801Y-10090555D01*
X16667801Y-10090555D02*
X16648753Y-10109603D01*
X16648753Y-10109603D02*
X16629706Y-10119127D01*
X16810658Y-10061984D02*
X16934468Y-10061984D01*
X16934468Y-10061984D02*
X16867801Y-10138174D01*
X16867801Y-10138174D02*
X16896372Y-10138174D01*
X16896372Y-10138174D02*
X16915420Y-10147698D01*
X16915420Y-10147698D02*
X16924944Y-10157222D01*
X16924944Y-10157222D02*
X16934468Y-10176270D01*
X16934468Y-10176270D02*
X16934468Y-10223889D01*
X16934468Y-10223889D02*
X16924944Y-10242936D01*
X16924944Y-10242936D02*
X16915420Y-10252460D01*
X16915420Y-10252460D02*
X16896372Y-10261984D01*
X16896372Y-10261984D02*
X16839229Y-10261984D01*
X16839229Y-10261984D02*
X16820182Y-10252460D01*
X16820182Y-10252460D02*
X16810658Y-10242936D01*
X17048753Y-10147698D02*
X17029706Y-10138174D01*
X17029706Y-10138174D02*
X17020182Y-10128650D01*
X17020182Y-10128650D02*
X17010658Y-10109603D01*
X17010658Y-10109603D02*
X17010658Y-10100079D01*
X17010658Y-10100079D02*
X17020182Y-10081031D01*
X17020182Y-10081031D02*
X17029706Y-10071508D01*
X17029706Y-10071508D02*
X17048753Y-10061984D01*
X17048753Y-10061984D02*
X17086849Y-10061984D01*
X17086849Y-10061984D02*
X17105896Y-10071508D01*
X17105896Y-10071508D02*
X17115420Y-10081031D01*
X17115420Y-10081031D02*
X17124944Y-10100079D01*
X17124944Y-10100079D02*
X17124944Y-10109603D01*
X17124944Y-10109603D02*
X17115420Y-10128650D01*
X17115420Y-10128650D02*
X17105896Y-10138174D01*
X17105896Y-10138174D02*
X17086849Y-10147698D01*
X17086849Y-10147698D02*
X17048753Y-10147698D01*
X17048753Y-10147698D02*
X17029706Y-10157222D01*
X17029706Y-10157222D02*
X17020182Y-10166746D01*
X17020182Y-10166746D02*
X17010658Y-10185793D01*
X17010658Y-10185793D02*
X17010658Y-10223889D01*
X17010658Y-10223889D02*
X17020182Y-10242936D01*
X17020182Y-10242936D02*
X17029706Y-10252460D01*
X17029706Y-10252460D02*
X17048753Y-10261984D01*
X17048753Y-10261984D02*
X17086849Y-10261984D01*
X17086849Y-10261984D02*
X17105896Y-10252460D01*
X17105896Y-10252460D02*
X17115420Y-10242936D01*
X17115420Y-10242936D02*
X17124944Y-10223889D01*
X17124944Y-10223889D02*
X17124944Y-10185793D01*
X17124944Y-10185793D02*
X17115420Y-10166746D01*
X17115420Y-10166746D02*
X17105896Y-10157222D01*
X17105896Y-10157222D02*
X17086849Y-10147698D01*
X17201134Y-10061984D02*
X17201134Y-10100079D01*
X17277325Y-10061984D02*
X17277325Y-10100079D01*
X17572563Y-10338174D02*
X17563039Y-10328650D01*
X17563039Y-10328650D02*
X17543991Y-10300079D01*
X17543991Y-10300079D02*
X17534468Y-10281031D01*
X17534468Y-10281031D02*
X17524944Y-10252460D01*
X17524944Y-10252460D02*
X17515420Y-10204841D01*
X17515420Y-10204841D02*
X17515420Y-10166746D01*
X17515420Y-10166746D02*
X17524944Y-10119127D01*
X17524944Y-10119127D02*
X17534468Y-10090555D01*
X17534468Y-10090555D02*
X17543991Y-10071508D01*
X17543991Y-10071508D02*
X17563039Y-10042936D01*
X17563039Y-10042936D02*
X17572563Y-10033412D01*
X17753515Y-10261984D02*
X17639230Y-10261984D01*
X17696372Y-10261984D02*
X17696372Y-10061984D01*
X17696372Y-10061984D02*
X17677325Y-10090555D01*
X17677325Y-10090555D02*
X17658277Y-10109603D01*
X17658277Y-10109603D02*
X17639230Y-10119127D01*
X17991611Y-10261984D02*
X17991611Y-10061984D01*
X18077325Y-10261984D02*
X18077325Y-10157222D01*
X18077325Y-10157222D02*
X18067801Y-10138174D01*
X18067801Y-10138174D02*
X18048753Y-10128650D01*
X18048753Y-10128650D02*
X18020182Y-10128650D01*
X18020182Y-10128650D02*
X18001134Y-10138174D01*
X18001134Y-10138174D02*
X17991611Y-10147698D01*
X18201134Y-10261984D02*
X18182087Y-10252460D01*
X18182087Y-10252460D02*
X18172563Y-10242936D01*
X18172563Y-10242936D02*
X18163039Y-10223889D01*
X18163039Y-10223889D02*
X18163039Y-10166746D01*
X18163039Y-10166746D02*
X18172563Y-10147698D01*
X18172563Y-10147698D02*
X18182087Y-10138174D01*
X18182087Y-10138174D02*
X18201134Y-10128650D01*
X18201134Y-10128650D02*
X18229706Y-10128650D01*
X18229706Y-10128650D02*
X18248753Y-10138174D01*
X18248753Y-10138174D02*
X18258277Y-10147698D01*
X18258277Y-10147698D02*
X18267801Y-10166746D01*
X18267801Y-10166746D02*
X18267801Y-10223889D01*
X18267801Y-10223889D02*
X18258277Y-10242936D01*
X18258277Y-10242936D02*
X18248753Y-10252460D01*
X18248753Y-10252460D02*
X18229706Y-10261984D01*
X18229706Y-10261984D02*
X18201134Y-10261984D01*
X18382087Y-10261984D02*
X18363039Y-10252460D01*
X18363039Y-10252460D02*
X18353515Y-10233412D01*
X18353515Y-10233412D02*
X18353515Y-10061984D01*
X18534468Y-10252460D02*
X18515420Y-10261984D01*
X18515420Y-10261984D02*
X18477325Y-10261984D01*
X18477325Y-10261984D02*
X18458277Y-10252460D01*
X18458277Y-10252460D02*
X18448753Y-10233412D01*
X18448753Y-10233412D02*
X18448753Y-10157222D01*
X18448753Y-10157222D02*
X18458277Y-10138174D01*
X18458277Y-10138174D02*
X18477325Y-10128650D01*
X18477325Y-10128650D02*
X18515420Y-10128650D01*
X18515420Y-10128650D02*
X18534468Y-10138174D01*
X18534468Y-10138174D02*
X18543992Y-10157222D01*
X18543992Y-10157222D02*
X18543992Y-10176270D01*
X18543992Y-10176270D02*
X18448753Y-10195317D01*
X18610658Y-10338174D02*
X18620182Y-10328650D01*
X18620182Y-10328650D02*
X18639230Y-10300079D01*
X18639230Y-10300079D02*
X18648753Y-10281031D01*
X18648753Y-10281031D02*
X18658277Y-10252460D01*
X18658277Y-10252460D02*
X18667801Y-10204841D01*
X18667801Y-10204841D02*
X18667801Y-10166746D01*
X18667801Y-10166746D02*
X18658277Y-10119127D01*
X18658277Y-10119127D02*
X18648753Y-10090555D01*
X18648753Y-10090555D02*
X18639230Y-10071508D01*
X18639230Y-10071508D02*
X18620182Y-10042936D01*
X18620182Y-10042936D02*
X18610658Y-10033412D01*
D12*
X13991642Y-10448642D02*
X13991642Y-10420358D01*
X13963358Y-10420358D01*
X13963358Y-10448642D01*
X13991642Y-10448642D01*
D11*
X14296372Y-10325984D02*
X14315420Y-10325984D01*
X14315420Y-10325984D02*
X14334467Y-10335508D01*
X14334467Y-10335508D02*
X14343991Y-10345031D01*
X14343991Y-10345031D02*
X14353515Y-10364079D01*
X14353515Y-10364079D02*
X14363039Y-10402174D01*
X14363039Y-10402174D02*
X14363039Y-10449793D01*
X14363039Y-10449793D02*
X14353515Y-10487889D01*
X14353515Y-10487889D02*
X14343991Y-10506936D01*
X14343991Y-10506936D02*
X14334467Y-10516460D01*
X14334467Y-10516460D02*
X14315420Y-10525984D01*
X14315420Y-10525984D02*
X14296372Y-10525984D01*
X14296372Y-10525984D02*
X14277324Y-10516460D01*
X14277324Y-10516460D02*
X14267801Y-10506936D01*
X14267801Y-10506936D02*
X14258277Y-10487889D01*
X14258277Y-10487889D02*
X14248753Y-10449793D01*
X14248753Y-10449793D02*
X14248753Y-10402174D01*
X14248753Y-10402174D02*
X14258277Y-10364079D01*
X14258277Y-10364079D02*
X14267801Y-10345031D01*
X14267801Y-10345031D02*
X14277324Y-10335508D01*
X14277324Y-10335508D02*
X14296372Y-10325984D01*
X14448753Y-10506936D02*
X14458277Y-10516460D01*
X14458277Y-10516460D02*
X14448753Y-10525984D01*
X14448753Y-10525984D02*
X14439229Y-10516460D01*
X14439229Y-10516460D02*
X14448753Y-10506936D01*
X14448753Y-10506936D02*
X14448753Y-10525984D01*
X14629705Y-10392650D02*
X14629705Y-10525984D01*
X14582086Y-10316460D02*
X14534467Y-10459317D01*
X14534467Y-10459317D02*
X14658277Y-10459317D01*
X14772562Y-10325984D02*
X14791610Y-10325984D01*
X14791610Y-10325984D02*
X14810658Y-10335508D01*
X14810658Y-10335508D02*
X14820182Y-10345031D01*
X14820182Y-10345031D02*
X14829705Y-10364079D01*
X14829705Y-10364079D02*
X14839229Y-10402174D01*
X14839229Y-10402174D02*
X14839229Y-10449793D01*
X14839229Y-10449793D02*
X14829705Y-10487889D01*
X14829705Y-10487889D02*
X14820182Y-10506936D01*
X14820182Y-10506936D02*
X14810658Y-10516460D01*
X14810658Y-10516460D02*
X14791610Y-10525984D01*
X14791610Y-10525984D02*
X14772562Y-10525984D01*
X14772562Y-10525984D02*
X14753515Y-10516460D01*
X14753515Y-10516460D02*
X14743991Y-10506936D01*
X14743991Y-10506936D02*
X14734467Y-10487889D01*
X14734467Y-10487889D02*
X14724943Y-10449793D01*
X14724943Y-10449793D02*
X14724943Y-10402174D01*
X14724943Y-10402174D02*
X14734467Y-10364079D01*
X14734467Y-10364079D02*
X14743991Y-10345031D01*
X14743991Y-10345031D02*
X14753515Y-10335508D01*
X14753515Y-10335508D02*
X14772562Y-10325984D01*
X14963039Y-10325984D02*
X14982086Y-10325984D01*
X14982086Y-10325984D02*
X15001134Y-10335508D01*
X15001134Y-10335508D02*
X15010658Y-10345031D01*
X15010658Y-10345031D02*
X15020182Y-10364079D01*
X15020182Y-10364079D02*
X15029705Y-10402174D01*
X15029705Y-10402174D02*
X15029705Y-10449793D01*
X15029705Y-10449793D02*
X15020182Y-10487889D01*
X15020182Y-10487889D02*
X15010658Y-10506936D01*
X15010658Y-10506936D02*
X15001134Y-10516460D01*
X15001134Y-10516460D02*
X14982086Y-10525984D01*
X14982086Y-10525984D02*
X14963039Y-10525984D01*
X14963039Y-10525984D02*
X14943991Y-10516460D01*
X14943991Y-10516460D02*
X14934467Y-10506936D01*
X14934467Y-10506936D02*
X14924943Y-10487889D01*
X14924943Y-10487889D02*
X14915420Y-10449793D01*
X14915420Y-10449793D02*
X14915420Y-10402174D01*
X14915420Y-10402174D02*
X14924943Y-10364079D01*
X14924943Y-10364079D02*
X14934467Y-10345031D01*
X14934467Y-10345031D02*
X14943991Y-10335508D01*
X14943991Y-10335508D02*
X14963039Y-10325984D01*
X15115420Y-10525984D02*
X15115420Y-10392650D01*
X15115420Y-10411698D02*
X15124943Y-10402174D01*
X15124943Y-10402174D02*
X15143991Y-10392650D01*
X15143991Y-10392650D02*
X15172563Y-10392650D01*
X15172563Y-10392650D02*
X15191610Y-10402174D01*
X15191610Y-10402174D02*
X15201134Y-10421222D01*
X15201134Y-10421222D02*
X15201134Y-10525984D01*
X15201134Y-10421222D02*
X15210658Y-10402174D01*
X15210658Y-10402174D02*
X15229705Y-10392650D01*
X15229705Y-10392650D02*
X15258277Y-10392650D01*
X15258277Y-10392650D02*
X15277324Y-10402174D01*
X15277324Y-10402174D02*
X15286848Y-10421222D01*
X15286848Y-10421222D02*
X15286848Y-10525984D01*
X15382086Y-10525984D02*
X15382086Y-10392650D01*
X15382086Y-10411698D02*
X15391610Y-10402174D01*
X15391610Y-10402174D02*
X15410658Y-10392650D01*
X15410658Y-10392650D02*
X15439229Y-10392650D01*
X15439229Y-10392650D02*
X15458277Y-10402174D01*
X15458277Y-10402174D02*
X15467801Y-10421222D01*
X15467801Y-10421222D02*
X15467801Y-10525984D01*
X15467801Y-10421222D02*
X15477324Y-10402174D01*
X15477324Y-10402174D02*
X15496372Y-10392650D01*
X15496372Y-10392650D02*
X15524943Y-10392650D01*
X15524943Y-10392650D02*
X15543991Y-10402174D01*
X15543991Y-10402174D02*
X15553515Y-10421222D01*
X15553515Y-10421222D02*
X15553515Y-10525984D01*
X15943991Y-10316460D02*
X15772563Y-10573603D01*
X16201134Y-10325984D02*
X16220182Y-10325984D01*
X16220182Y-10325984D02*
X16239229Y-10335508D01*
X16239229Y-10335508D02*
X16248753Y-10345031D01*
X16248753Y-10345031D02*
X16258277Y-10364079D01*
X16258277Y-10364079D02*
X16267801Y-10402174D01*
X16267801Y-10402174D02*
X16267801Y-10449793D01*
X16267801Y-10449793D02*
X16258277Y-10487889D01*
X16258277Y-10487889D02*
X16248753Y-10506936D01*
X16248753Y-10506936D02*
X16239229Y-10516460D01*
X16239229Y-10516460D02*
X16220182Y-10525984D01*
X16220182Y-10525984D02*
X16201134Y-10525984D01*
X16201134Y-10525984D02*
X16182086Y-10516460D01*
X16182086Y-10516460D02*
X16172563Y-10506936D01*
X16172563Y-10506936D02*
X16163039Y-10487889D01*
X16163039Y-10487889D02*
X16153515Y-10449793D01*
X16153515Y-10449793D02*
X16153515Y-10402174D01*
X16153515Y-10402174D02*
X16163039Y-10364079D01*
X16163039Y-10364079D02*
X16172563Y-10345031D01*
X16172563Y-10345031D02*
X16182086Y-10335508D01*
X16182086Y-10335508D02*
X16201134Y-10325984D01*
X16353515Y-10506936D02*
X16363039Y-10516460D01*
X16363039Y-10516460D02*
X16353515Y-10525984D01*
X16353515Y-10525984D02*
X16343991Y-10516460D01*
X16343991Y-10516460D02*
X16353515Y-10506936D01*
X16353515Y-10506936D02*
X16353515Y-10525984D01*
X16486848Y-10325984D02*
X16505896Y-10325984D01*
X16505896Y-10325984D02*
X16524944Y-10335508D01*
X16524944Y-10335508D02*
X16534467Y-10345031D01*
X16534467Y-10345031D02*
X16543991Y-10364079D01*
X16543991Y-10364079D02*
X16553515Y-10402174D01*
X16553515Y-10402174D02*
X16553515Y-10449793D01*
X16553515Y-10449793D02*
X16543991Y-10487889D01*
X16543991Y-10487889D02*
X16534467Y-10506936D01*
X16534467Y-10506936D02*
X16524944Y-10516460D01*
X16524944Y-10516460D02*
X16505896Y-10525984D01*
X16505896Y-10525984D02*
X16486848Y-10525984D01*
X16486848Y-10525984D02*
X16467801Y-10516460D01*
X16467801Y-10516460D02*
X16458277Y-10506936D01*
X16458277Y-10506936D02*
X16448753Y-10487889D01*
X16448753Y-10487889D02*
X16439229Y-10449793D01*
X16439229Y-10449793D02*
X16439229Y-10402174D01*
X16439229Y-10402174D02*
X16448753Y-10364079D01*
X16448753Y-10364079D02*
X16458277Y-10345031D01*
X16458277Y-10345031D02*
X16467801Y-10335508D01*
X16467801Y-10335508D02*
X16486848Y-10325984D01*
X16743991Y-10525984D02*
X16629706Y-10525984D01*
X16686848Y-10525984D02*
X16686848Y-10325984D01*
X16686848Y-10325984D02*
X16667801Y-10354555D01*
X16667801Y-10354555D02*
X16648753Y-10373603D01*
X16648753Y-10373603D02*
X16629706Y-10383127D01*
X16924944Y-10325984D02*
X16829706Y-10325984D01*
X16829706Y-10325984D02*
X16820182Y-10421222D01*
X16820182Y-10421222D02*
X16829706Y-10411698D01*
X16829706Y-10411698D02*
X16848753Y-10402174D01*
X16848753Y-10402174D02*
X16896372Y-10402174D01*
X16896372Y-10402174D02*
X16915420Y-10411698D01*
X16915420Y-10411698D02*
X16924944Y-10421222D01*
X16924944Y-10421222D02*
X16934468Y-10440270D01*
X16934468Y-10440270D02*
X16934468Y-10487889D01*
X16934468Y-10487889D02*
X16924944Y-10506936D01*
X16924944Y-10506936D02*
X16915420Y-10516460D01*
X16915420Y-10516460D02*
X16896372Y-10525984D01*
X16896372Y-10525984D02*
X16848753Y-10525984D01*
X16848753Y-10525984D02*
X16829706Y-10516460D01*
X16829706Y-10516460D02*
X16820182Y-10506936D01*
X17001134Y-10325984D02*
X17134468Y-10325984D01*
X17134468Y-10325984D02*
X17048753Y-10525984D01*
X17201134Y-10325984D02*
X17201134Y-10364079D01*
X17277325Y-10325984D02*
X17277325Y-10364079D01*
X17572563Y-10602174D02*
X17563039Y-10592650D01*
X17563039Y-10592650D02*
X17543991Y-10564079D01*
X17543991Y-10564079D02*
X17534468Y-10545031D01*
X17534468Y-10545031D02*
X17524944Y-10516460D01*
X17524944Y-10516460D02*
X17515420Y-10468841D01*
X17515420Y-10468841D02*
X17515420Y-10430746D01*
X17515420Y-10430746D02*
X17524944Y-10383127D01*
X17524944Y-10383127D02*
X17534468Y-10354555D01*
X17534468Y-10354555D02*
X17543991Y-10335508D01*
X17543991Y-10335508D02*
X17563039Y-10306936D01*
X17563039Y-10306936D02*
X17572563Y-10297412D01*
X17629706Y-10325984D02*
X17753515Y-10325984D01*
X17753515Y-10325984D02*
X17686849Y-10402174D01*
X17686849Y-10402174D02*
X17715420Y-10402174D01*
X17715420Y-10402174D02*
X17734468Y-10411698D01*
X17734468Y-10411698D02*
X17743991Y-10421222D01*
X17743991Y-10421222D02*
X17753515Y-10440270D01*
X17753515Y-10440270D02*
X17753515Y-10487889D01*
X17753515Y-10487889D02*
X17743991Y-10506936D01*
X17743991Y-10506936D02*
X17734468Y-10516460D01*
X17734468Y-10516460D02*
X17715420Y-10525984D01*
X17715420Y-10525984D02*
X17658277Y-10525984D01*
X17658277Y-10525984D02*
X17639230Y-10516460D01*
X17639230Y-10516460D02*
X17629706Y-10506936D01*
X17877325Y-10325984D02*
X17896372Y-10325984D01*
X17896372Y-10325984D02*
X17915420Y-10335508D01*
X17915420Y-10335508D02*
X17924944Y-10345031D01*
X17924944Y-10345031D02*
X17934468Y-10364079D01*
X17934468Y-10364079D02*
X17943991Y-10402174D01*
X17943991Y-10402174D02*
X17943991Y-10449793D01*
X17943991Y-10449793D02*
X17934468Y-10487889D01*
X17934468Y-10487889D02*
X17924944Y-10506936D01*
X17924944Y-10506936D02*
X17915420Y-10516460D01*
X17915420Y-10516460D02*
X17896372Y-10525984D01*
X17896372Y-10525984D02*
X17877325Y-10525984D01*
X17877325Y-10525984D02*
X17858277Y-10516460D01*
X17858277Y-10516460D02*
X17848753Y-10506936D01*
X17848753Y-10506936D02*
X17839230Y-10487889D01*
X17839230Y-10487889D02*
X17829706Y-10449793D01*
X17829706Y-10449793D02*
X17829706Y-10402174D01*
X17829706Y-10402174D02*
X17839230Y-10364079D01*
X17839230Y-10364079D02*
X17848753Y-10345031D01*
X17848753Y-10345031D02*
X17858277Y-10335508D01*
X17858277Y-10335508D02*
X17877325Y-10325984D01*
X18115420Y-10325984D02*
X18077325Y-10325984D01*
X18077325Y-10325984D02*
X18058277Y-10335508D01*
X18058277Y-10335508D02*
X18048753Y-10345031D01*
X18048753Y-10345031D02*
X18029706Y-10373603D01*
X18029706Y-10373603D02*
X18020182Y-10411698D01*
X18020182Y-10411698D02*
X18020182Y-10487889D01*
X18020182Y-10487889D02*
X18029706Y-10506936D01*
X18029706Y-10506936D02*
X18039230Y-10516460D01*
X18039230Y-10516460D02*
X18058277Y-10525984D01*
X18058277Y-10525984D02*
X18096372Y-10525984D01*
X18096372Y-10525984D02*
X18115420Y-10516460D01*
X18115420Y-10516460D02*
X18124944Y-10506936D01*
X18124944Y-10506936D02*
X18134468Y-10487889D01*
X18134468Y-10487889D02*
X18134468Y-10440270D01*
X18134468Y-10440270D02*
X18124944Y-10421222D01*
X18124944Y-10421222D02*
X18115420Y-10411698D01*
X18115420Y-10411698D02*
X18096372Y-10402174D01*
X18096372Y-10402174D02*
X18058277Y-10402174D01*
X18058277Y-10402174D02*
X18039230Y-10411698D01*
X18039230Y-10411698D02*
X18029706Y-10421222D01*
X18029706Y-10421222D02*
X18020182Y-10440270D01*
X18372563Y-10525984D02*
X18372563Y-10325984D01*
X18458277Y-10525984D02*
X18458277Y-10421222D01*
X18458277Y-10421222D02*
X18448753Y-10402174D01*
X18448753Y-10402174D02*
X18429706Y-10392650D01*
X18429706Y-10392650D02*
X18401134Y-10392650D01*
X18401134Y-10392650D02*
X18382087Y-10402174D01*
X18382087Y-10402174D02*
X18372563Y-10411698D01*
X18582087Y-10525984D02*
X18563039Y-10516460D01*
X18563039Y-10516460D02*
X18553515Y-10506936D01*
X18553515Y-10506936D02*
X18543992Y-10487889D01*
X18543992Y-10487889D02*
X18543992Y-10430746D01*
X18543992Y-10430746D02*
X18553515Y-10411698D01*
X18553515Y-10411698D02*
X18563039Y-10402174D01*
X18563039Y-10402174D02*
X18582087Y-10392650D01*
X18582087Y-10392650D02*
X18610658Y-10392650D01*
X18610658Y-10392650D02*
X18629706Y-10402174D01*
X18629706Y-10402174D02*
X18639230Y-10411698D01*
X18639230Y-10411698D02*
X18648753Y-10430746D01*
X18648753Y-10430746D02*
X18648753Y-10487889D01*
X18648753Y-10487889D02*
X18639230Y-10506936D01*
X18639230Y-10506936D02*
X18629706Y-10516460D01*
X18629706Y-10516460D02*
X18610658Y-10525984D01*
X18610658Y-10525984D02*
X18582087Y-10525984D01*
X18763039Y-10525984D02*
X18743992Y-10516460D01*
X18743992Y-10516460D02*
X18734468Y-10497412D01*
X18734468Y-10497412D02*
X18734468Y-10325984D01*
X18915420Y-10516460D02*
X18896373Y-10525984D01*
X18896373Y-10525984D02*
X18858277Y-10525984D01*
X18858277Y-10525984D02*
X18839230Y-10516460D01*
X18839230Y-10516460D02*
X18829706Y-10497412D01*
X18829706Y-10497412D02*
X18829706Y-10421222D01*
X18829706Y-10421222D02*
X18839230Y-10402174D01*
X18839230Y-10402174D02*
X18858277Y-10392650D01*
X18858277Y-10392650D02*
X18896373Y-10392650D01*
X18896373Y-10392650D02*
X18915420Y-10402174D01*
X18915420Y-10402174D02*
X18924944Y-10421222D01*
X18924944Y-10421222D02*
X18924944Y-10440270D01*
X18924944Y-10440270D02*
X18829706Y-10459317D01*
X19001134Y-10516460D02*
X19020182Y-10525984D01*
X19020182Y-10525984D02*
X19058277Y-10525984D01*
X19058277Y-10525984D02*
X19077325Y-10516460D01*
X19077325Y-10516460D02*
X19086849Y-10497412D01*
X19086849Y-10497412D02*
X19086849Y-10487889D01*
X19086849Y-10487889D02*
X19077325Y-10468841D01*
X19077325Y-10468841D02*
X19058277Y-10459317D01*
X19058277Y-10459317D02*
X19029706Y-10459317D01*
X19029706Y-10459317D02*
X19010658Y-10449793D01*
X19010658Y-10449793D02*
X19001134Y-10430746D01*
X19001134Y-10430746D02*
X19001134Y-10421222D01*
X19001134Y-10421222D02*
X19010658Y-10402174D01*
X19010658Y-10402174D02*
X19029706Y-10392650D01*
X19029706Y-10392650D02*
X19058277Y-10392650D01*
X19058277Y-10392650D02*
X19077325Y-10402174D01*
X19153515Y-10602174D02*
X19163039Y-10592650D01*
X19163039Y-10592650D02*
X19182087Y-10564079D01*
X19182087Y-10564079D02*
X19191611Y-10545031D01*
X19191611Y-10545031D02*
X19201134Y-10516460D01*
X19201134Y-10516460D02*
X19210658Y-10468841D01*
X19210658Y-10468841D02*
X19210658Y-10430746D01*
X19210658Y-10430746D02*
X19201134Y-10383127D01*
X19201134Y-10383127D02*
X19191611Y-10354555D01*
X19191611Y-10354555D02*
X19182087Y-10335508D01*
X19182087Y-10335508D02*
X19163039Y-10306936D01*
X19163039Y-10306936D02*
X19153515Y-10297412D01*
M02*
