%TF.GenerationSoftware,KiCad,Pcbnew,8.0.8*%
%TF.CreationDate,2025-07-27T02:47:14+02:00*%
%TF.ProjectId,ESC_PCB,4553435f-5043-4422-9e6b-696361645f70,rev?*%
%TF.SameCoordinates,Original*%
%TF.FileFunction,Soldermask,Bot*%
%TF.FilePolarity,Negative*%
%FSLAX46Y46*%
G04 Gerber Fmt 4.6, Leading zero omitted, Abs format (unit mm)*
G04 Created by KiCad (PCBNEW 8.0.8) date 2025-07-27 02:47:14*
%MOMM*%
%LPD*%
G01*
G04 APERTURE LIST*
G04 Aperture macros list*
%AMRoundRect*
0 Rectangle with rounded corners*
0 $1 Rounding radius*
0 $2 $3 $4 $5 $6 $7 $8 $9 X,Y pos of 4 corners*
0 Add a 4 corners polygon primitive as box body*
4,1,4,$2,$3,$4,$5,$6,$7,$8,$9,$2,$3,0*
0 Add four circle primitives for the rounded corners*
1,1,$1+$1,$2,$3*
1,1,$1+$1,$4,$5*
1,1,$1+$1,$6,$7*
1,1,$1+$1,$8,$9*
0 Add four rect primitives between the rounded corners*
20,1,$1+$1,$2,$3,$4,$5,0*
20,1,$1+$1,$4,$5,$6,$7,0*
20,1,$1+$1,$6,$7,$8,$9,0*
20,1,$1+$1,$8,$9,$2,$3,0*%
%AMFreePoly0*
4,1,14,0.364320,0.111820,0.377500,0.080000,0.377500,0.053640,0.364320,0.021820,0.230680,-0.111820,0.198860,-0.125000,-0.332500,-0.125000,-0.364320,-0.111820,-0.377500,-0.080000,-0.377500,0.080000,-0.364320,0.111820,-0.332500,0.125000,0.332500,0.125000,0.364320,0.111820,0.364320,0.111820,$1*%
%AMFreePoly1*
4,1,14,0.230680,0.111820,0.364320,-0.021820,0.377500,-0.053640,0.377500,-0.080000,0.364320,-0.111820,0.332500,-0.125000,-0.332500,-0.125000,-0.364320,-0.111820,-0.377500,-0.080000,-0.377500,0.080000,-0.364320,0.111820,-0.332500,0.125000,0.198860,0.125000,0.230680,0.111820,0.230680,0.111820,$1*%
%AMFreePoly2*
4,1,14,0.111820,0.364320,0.125000,0.332500,0.125000,-0.332500,0.111820,-0.364320,0.080000,-0.377500,0.053640,-0.377500,0.021820,-0.364320,-0.111820,-0.230680,-0.125000,-0.198860,-0.125000,0.332500,-0.111820,0.364320,-0.080000,0.377500,0.080000,0.377500,0.111820,0.364320,0.111820,0.364320,$1*%
%AMFreePoly3*
4,1,14,0.111820,0.364320,0.125000,0.332500,0.125000,-0.198860,0.111820,-0.230680,-0.021820,-0.364320,-0.053640,-0.377500,-0.080000,-0.377500,-0.111820,-0.364320,-0.125000,-0.332500,-0.125000,0.332500,-0.111820,0.364320,-0.080000,0.377500,0.080000,0.377500,0.111820,0.364320,0.111820,0.364320,$1*%
%AMFreePoly4*
4,1,14,0.364320,0.111820,0.377500,0.080000,0.377500,-0.080000,0.364320,-0.111820,0.332500,-0.125000,-0.332500,-0.125000,-0.364320,-0.111820,-0.377500,-0.080000,-0.377500,-0.053640,-0.364320,-0.021820,-0.230680,0.111820,-0.198860,0.125000,0.332500,0.125000,0.364320,0.111820,0.364320,0.111820,$1*%
%AMFreePoly5*
4,1,14,0.364320,0.111820,0.377500,0.080000,0.377500,-0.080000,0.364320,-0.111820,0.332500,-0.125000,-0.198860,-0.125000,-0.230680,-0.111820,-0.364320,0.021820,-0.377500,0.053640,-0.377500,0.080000,-0.364320,0.111820,-0.332500,0.125000,0.332500,0.125000,0.364320,0.111820,0.364320,0.111820,$1*%
%AMFreePoly6*
4,1,14,-0.021820,0.364320,0.111820,0.230680,0.125000,0.198860,0.125000,-0.332500,0.111820,-0.364320,0.080000,-0.377500,-0.080000,-0.377500,-0.111820,-0.364320,-0.125000,-0.332500,-0.125000,0.332500,-0.111820,0.364320,-0.080000,0.377500,-0.053640,0.377500,-0.021820,0.364320,-0.021820,0.364320,$1*%
%AMFreePoly7*
4,1,14,0.111820,0.364320,0.125000,0.332500,0.125000,-0.332500,0.111820,-0.364320,0.080000,-0.377500,-0.080000,-0.377500,-0.111820,-0.364320,-0.125000,-0.332500,-0.125000,0.198860,-0.111820,0.230680,0.021820,0.364320,0.053640,0.377500,0.080000,0.377500,0.111820,0.364320,0.111820,0.364320,$1*%
G04 Aperture macros list end*
%ADD10RoundRect,0.150000X-0.200000X0.150000X-0.200000X-0.150000X0.200000X-0.150000X0.200000X0.150000X0*%
%ADD11RoundRect,0.160000X-0.197500X-0.160000X0.197500X-0.160000X0.197500X0.160000X-0.197500X0.160000X0*%
%ADD12RoundRect,0.118500X-0.398500X-0.118500X0.398500X-0.118500X0.398500X0.118500X-0.398500X0.118500X0*%
%ADD13RoundRect,0.118500X-0.118500X-0.398500X0.118500X-0.398500X0.118500X0.398500X-0.118500X0.398500X0*%
%ADD14RoundRect,0.102000X-1.350000X-1.350000X1.350000X-1.350000X1.350000X1.350000X-1.350000X1.350000X0*%
%ADD15RoundRect,0.160000X0.197500X0.160000X-0.197500X0.160000X-0.197500X-0.160000X0.197500X-0.160000X0*%
%ADD16RoundRect,0.250000X0.250000X0.750000X-0.250000X0.750000X-0.250000X-0.750000X0.250000X-0.750000X0*%
%ADD17RoundRect,0.160000X0.160000X-0.197500X0.160000X0.197500X-0.160000X0.197500X-0.160000X-0.197500X0*%
%ADD18RoundRect,0.160000X-0.160000X0.197500X-0.160000X-0.197500X0.160000X-0.197500X0.160000X0.197500X0*%
%ADD19C,1.000000*%
%ADD20FreePoly0,90.000000*%
%ADD21RoundRect,0.062500X0.062500X-0.375000X0.062500X0.375000X-0.062500X0.375000X-0.062500X-0.375000X0*%
%ADD22FreePoly1,90.000000*%
%ADD23FreePoly2,90.000000*%
%ADD24RoundRect,0.062500X0.375000X-0.062500X0.375000X0.062500X-0.375000X0.062500X-0.375000X-0.062500X0*%
%ADD25FreePoly3,90.000000*%
%ADD26FreePoly4,90.000000*%
%ADD27FreePoly5,90.000000*%
%ADD28FreePoly6,90.000000*%
%ADD29FreePoly7,90.000000*%
%ADD30RoundRect,0.237500X0.300000X0.237500X-0.300000X0.237500X-0.300000X-0.237500X0.300000X-0.237500X0*%
%ADD31RoundRect,0.155000X0.155000X-0.212500X0.155000X0.212500X-0.155000X0.212500X-0.155000X-0.212500X0*%
%ADD32RoundRect,0.155000X0.212500X0.155000X-0.212500X0.155000X-0.212500X-0.155000X0.212500X-0.155000X0*%
G04 APERTURE END LIST*
D10*
%TO.C,D2*%
X153900000Y-71535000D03*
X153900000Y-70135000D03*
%TD*%
D11*
%TO.C,R17*%
X155305000Y-57900000D03*
X156500000Y-57900000D03*
%TD*%
D12*
%TO.C,U6*%
X147807500Y-74422500D03*
X147807500Y-73922500D03*
X147807500Y-73422500D03*
X147807500Y-72922500D03*
X147807500Y-72422500D03*
X147807500Y-71922500D03*
D13*
X148497500Y-71232500D03*
X148997500Y-71232500D03*
X149497500Y-71232500D03*
X149997500Y-71232500D03*
X150497500Y-71232500D03*
X150997500Y-71232500D03*
D12*
X151687500Y-71922500D03*
X151687500Y-72422500D03*
X151687500Y-72922500D03*
X151687500Y-73422500D03*
X151687500Y-73922500D03*
X151687500Y-74422500D03*
D13*
X150997500Y-75112500D03*
X150497500Y-75112500D03*
X149997500Y-75112500D03*
X149497500Y-75112500D03*
X148997500Y-75112500D03*
X148497500Y-75112500D03*
D14*
X149747500Y-73172500D03*
%TD*%
D15*
%TO.C,R6*%
X146745000Y-83550000D03*
X145550000Y-83550000D03*
%TD*%
D16*
%TO.C,TP6*%
X149500000Y-88500000D03*
%TD*%
D17*
%TO.C,R10*%
X150550000Y-86447500D03*
X150550000Y-85252500D03*
%TD*%
D15*
%TO.C,R14*%
X149197500Y-63400000D03*
X148002500Y-63400000D03*
%TD*%
D17*
%TO.C,R9*%
X151550000Y-86445000D03*
X151550000Y-85250000D03*
%TD*%
D18*
%TO.C,R8*%
X152550000Y-85252500D03*
X152550000Y-86447500D03*
%TD*%
D15*
%TO.C,R12*%
X149400000Y-52400000D03*
X148205000Y-52400000D03*
%TD*%
D19*
%TO.C,TP2*%
X154700000Y-75150000D03*
%TD*%
D11*
%TO.C,R18*%
X144005000Y-78000000D03*
X145200000Y-78000000D03*
%TD*%
D15*
%TO.C,R16*%
X149200000Y-57900000D03*
X148005000Y-57900000D03*
%TD*%
D20*
%TO.C,U1*%
X151245000Y-80747500D03*
D21*
X150745000Y-80687500D03*
X150245000Y-80687500D03*
X149745000Y-80687500D03*
X149245000Y-80687500D03*
X148745000Y-80687500D03*
D22*
X148245000Y-80747500D03*
D23*
X147747500Y-80250000D03*
D24*
X147807500Y-79750000D03*
X147807500Y-79250000D03*
X147807500Y-78750000D03*
X147807500Y-78250000D03*
X147807500Y-77750000D03*
D25*
X147747500Y-77250000D03*
D26*
X148245000Y-76752500D03*
D21*
X148745000Y-76812500D03*
X149245000Y-76812500D03*
X149745000Y-76812500D03*
X150245000Y-76812500D03*
X150745000Y-76812500D03*
D27*
X151245000Y-76752500D03*
D28*
X151742500Y-77250000D03*
D24*
X151682500Y-77750000D03*
X151682500Y-78250000D03*
X151682500Y-78750000D03*
X151682500Y-79250000D03*
X151682500Y-79750000D03*
D29*
X151742500Y-80250000D03*
%TD*%
D15*
%TO.C,R19*%
X145200000Y-77000000D03*
X144005000Y-77000000D03*
%TD*%
D30*
%TO.C,C8*%
X146262500Y-72900000D03*
X144537500Y-72900000D03*
%TD*%
D19*
%TO.C,TP4*%
X154700000Y-79250000D03*
%TD*%
D11*
%TO.C,R15*%
X155305000Y-63400000D03*
X156500000Y-63400000D03*
%TD*%
%TO.C,R5*%
X145602500Y-82500000D03*
X146797500Y-82500000D03*
%TD*%
D31*
%TO.C,C10*%
X155100000Y-71535000D03*
X155100000Y-70400000D03*
%TD*%
D19*
%TO.C,TP1*%
X154700000Y-73125000D03*
%TD*%
D32*
%TO.C,C7*%
X150467500Y-82000000D03*
X149332500Y-82000000D03*
%TD*%
D15*
%TO.C,R7*%
X146745000Y-84600000D03*
X145550000Y-84600000D03*
%TD*%
D32*
%TO.C,C6*%
X150567500Y-83300000D03*
X149432500Y-83300000D03*
%TD*%
D16*
%TO.C,TP5*%
X147750000Y-88500000D03*
%TD*%
D32*
%TO.C,C12*%
X146167500Y-74150000D03*
X145032500Y-74150000D03*
%TD*%
D11*
%TO.C,R13*%
X155202500Y-52300000D03*
X156397500Y-52300000D03*
%TD*%
D16*
%TO.C,TP7*%
X151250000Y-88500000D03*
%TD*%
D19*
%TO.C,TP3*%
X154700000Y-77200000D03*
%TD*%
G36*
X158943039Y-48019685D02*
G01*
X158988794Y-48072489D01*
X159000000Y-48124000D01*
X159000000Y-67826000D01*
X158980315Y-67893039D01*
X158927511Y-67938794D01*
X158876000Y-67950000D01*
X155824000Y-67950000D01*
X155756961Y-67930315D01*
X155711206Y-67877511D01*
X155700000Y-67826000D01*
X155700000Y-67700000D01*
X143400000Y-67700000D01*
X143400563Y-67825444D01*
X143381179Y-67892571D01*
X143328581Y-67938562D01*
X143276564Y-67950000D01*
X140124000Y-67950000D01*
X140056961Y-67930315D01*
X140011206Y-67877511D01*
X140000000Y-67826000D01*
X140000000Y-48124000D01*
X140019685Y-48056961D01*
X140072489Y-48011206D01*
X140124000Y-48000000D01*
X158876000Y-48000000D01*
X158943039Y-48019685D01*
G37*
G36*
X143411979Y-67452382D02*
G01*
X143422034Y-67454382D01*
X143483946Y-67486767D01*
X143518520Y-67547483D01*
X143514781Y-67617252D01*
X143473915Y-67673924D01*
X143408897Y-67699506D01*
X143400100Y-67699899D01*
X143400000Y-67699999D01*
X143499441Y-89875444D01*
X143480057Y-89942571D01*
X143427459Y-89988562D01*
X143375442Y-90000000D01*
X140124000Y-90000000D01*
X140056961Y-89980315D01*
X140011206Y-89927511D01*
X140000000Y-89876000D01*
X140000000Y-67574000D01*
X140019685Y-67506961D01*
X140072489Y-67461206D01*
X140124000Y-67450000D01*
X143387789Y-67450000D01*
X143411979Y-67452382D01*
G37*
G36*
X158943039Y-67469685D02*
G01*
X158988794Y-67522489D01*
X159000000Y-67574000D01*
X159000000Y-89876000D01*
X158980315Y-89943039D01*
X158927511Y-89988794D01*
X158876000Y-90000000D01*
X155824000Y-90000000D01*
X155756961Y-89980315D01*
X155711206Y-89927511D01*
X155700000Y-89876000D01*
X155700000Y-67700000D01*
X155699103Y-67699103D01*
X155635117Y-67680315D01*
X155589362Y-67627511D01*
X155579418Y-67558353D01*
X155608443Y-67494797D01*
X155667221Y-67457023D01*
X155677966Y-67454382D01*
X155688021Y-67452382D01*
X155712211Y-67450000D01*
X158876000Y-67450000D01*
X158943039Y-67469685D01*
G37*
M02*
