%TF.GenerationSoftware,KiCad,Pcbnew,8.0.8*%
%TF.CreationDate,2025-04-24T20:57:55+02:00*%
%TF.ProjectId,ESC_PCB,4553435f-5043-4422-9e6b-696361645f70,rev?*%
%TF.SameCoordinates,Original*%
%TF.FileFunction,Copper,L3,Inr*%
%TF.FilePolarity,Positive*%
%FSLAX46Y46*%
G04 Gerber Fmt 4.6, Leading zero omitted, Abs format (unit mm)*
G04 Created by KiCad (PCBNEW 8.0.8) date 2025-04-24 20:57:55*
%MOMM*%
%LPD*%
G01*
G04 APERTURE LIST*
%TA.AperFunction,ViaPad*%
%ADD10C,0.900000*%
%TD*%
%TA.AperFunction,ViaPad*%
%ADD11C,0.600000*%
%TD*%
%TA.AperFunction,ViaPad*%
%ADD12C,0.400000*%
%TD*%
%TA.AperFunction,Conductor*%
%ADD13C,1.000000*%
%TD*%
%TA.AperFunction,Conductor*%
%ADD14C,0.150000*%
%TD*%
G04 APERTURE END LIST*
D10*
%TO.N,GND*%
X91750000Y-48000000D03*
D11*
X105000000Y-57000000D03*
X103000000Y-58000000D03*
X104000000Y-59000000D03*
X102000000Y-59000000D03*
X102000000Y-58000000D03*
X103000000Y-59000000D03*
X86900000Y-48300000D03*
D12*
X93300000Y-54750000D03*
D11*
X102000000Y-57000000D03*
D12*
X91800000Y-58700000D03*
D10*
X93000000Y-48500000D03*
D11*
X106000000Y-59000000D03*
D10*
X99530000Y-53330000D03*
D11*
X90000000Y-55300000D03*
X105000000Y-59000000D03*
X104000000Y-58000000D03*
X106000000Y-58000000D03*
X104000000Y-57000000D03*
D10*
X90750000Y-48000000D03*
D11*
X106000000Y-57000000D03*
X89200000Y-58767500D03*
X105000000Y-58000000D03*
X103000000Y-57000000D03*
X82635000Y-49750000D03*
D10*
X89750000Y-48000000D03*
D11*
%TO.N,VDC*%
X106000000Y-46000000D03*
X105000000Y-47000000D03*
X104000000Y-46000000D03*
X102000000Y-46000000D03*
D12*
X79700000Y-54530000D03*
D11*
X103000000Y-47000000D03*
X106000000Y-47000000D03*
X105000000Y-45000000D03*
X103000000Y-46000000D03*
D12*
X79670000Y-56340000D03*
D11*
X106000000Y-45000000D03*
X104000000Y-47000000D03*
X102000000Y-47000000D03*
X103000000Y-45000000D03*
D12*
X82260000Y-44860000D03*
X82290000Y-45660000D03*
D11*
X102000000Y-45000000D03*
D12*
X79260000Y-49790000D03*
D11*
X105000000Y-46000000D03*
D12*
X79500000Y-53780000D03*
X79230000Y-49220000D03*
X80630000Y-49470000D03*
X80200000Y-48210000D03*
X79400000Y-47790000D03*
D11*
X104000000Y-45000000D03*
D10*
%TO.N,+5V*%
X95550000Y-50690000D03*
X103950000Y-52000000D03*
D12*
%TO.N,+3.3V*%
X85750000Y-58500000D03*
D10*
X96250000Y-57600000D03*
D12*
X91000000Y-57750000D03*
D11*
%TO.N,+6V*%
X90100000Y-56450000D03*
D12*
X88250000Y-48000000D03*
D11*
X85400000Y-57200000D03*
D10*
X101950000Y-54450000D03*
D12*
%TO.N,GHA*%
X87200000Y-53900000D03*
X78800000Y-55500000D03*
D11*
%TO.N,PHASE_A*%
X75000000Y-59000000D03*
X75000000Y-57000000D03*
X72000000Y-58000000D03*
X74000000Y-57000000D03*
X73000000Y-58000000D03*
D12*
X87800000Y-57700000D03*
D11*
X73000000Y-57000000D03*
X76000000Y-59000000D03*
X76000000Y-57000000D03*
X74000000Y-59000000D03*
X73000000Y-59000000D03*
X72000000Y-59000000D03*
X76000000Y-58000000D03*
X72000000Y-57000000D03*
X74000000Y-58000000D03*
X75000000Y-58000000D03*
D12*
X81500000Y-59500000D03*
%TO.N,GHC*%
X79000000Y-48500000D03*
X82800000Y-54300000D03*
D11*
%TO.N,PHASE_C*%
X73000000Y-46000000D03*
X75000000Y-46000000D03*
X74000000Y-47000000D03*
X74000000Y-45000000D03*
X75000000Y-47000000D03*
X74000000Y-46000000D03*
X72000000Y-46000000D03*
D12*
X76345000Y-48399050D03*
D11*
X76000000Y-47000000D03*
X73000000Y-45000000D03*
D12*
X94375000Y-50625000D03*
D11*
X75000000Y-45000000D03*
X76000000Y-45000000D03*
X73000000Y-47000000D03*
X72000000Y-47000000D03*
X72000000Y-45000000D03*
X76000000Y-46000000D03*
%TO.N,PHASE_B*%
X76000000Y-52000000D03*
X76000000Y-51000000D03*
X73000000Y-52000000D03*
X75000000Y-52000000D03*
X74000000Y-53000000D03*
X73000000Y-51000000D03*
X72000000Y-53000000D03*
X74000000Y-52000000D03*
X74000000Y-51000000D03*
D12*
X84000000Y-57750000D03*
D11*
X75000000Y-51000000D03*
X73000000Y-53000000D03*
X72000000Y-51000000D03*
X75000000Y-53000000D03*
X76000000Y-53000000D03*
X72000000Y-52000000D03*
D12*
X77750000Y-49500000D03*
%TO.N,GHB*%
X85000000Y-55325000D03*
X78900000Y-54500000D03*
%TO.N,GLC*%
X81951250Y-46648750D03*
X82060000Y-50500000D03*
%TO.N,BEMF_REF*%
X86800000Y-54500000D03*
X89485485Y-53285485D03*
%TO.N,SWDIO*%
X95800000Y-58700000D03*
X90700000Y-49400000D03*
%TO.N,SWCLK*%
X91700000Y-49300000D03*
X93800000Y-58700000D03*
%TO.N,INPUT*%
X103800000Y-55500000D03*
X94360000Y-57420000D03*
%TO.N,LA*%
X87600000Y-50100000D03*
%TO.N,LB*%
X85415000Y-48985000D03*
%TO.N,LC*%
X84940000Y-49540000D03*
%TO.N,HC*%
X89100000Y-51175000D03*
%TO.N,HB*%
X89800000Y-51300000D03*
%TO.N,HA*%
X90400000Y-51700000D03*
%TD*%
D13*
%TO.N,+5V*%
X98800000Y-49200000D02*
X97310000Y-50690000D01*
X101150000Y-49200000D02*
X98800000Y-49200000D01*
X97310000Y-50690000D02*
X95550000Y-50690000D01*
X103950000Y-52000000D02*
X101150000Y-49200000D01*
D14*
%TO.N,+3.3V*%
X90750000Y-58000000D02*
X91000000Y-57750000D01*
X89000000Y-58000000D02*
X90750000Y-58000000D01*
X89000000Y-58000000D02*
X88225000Y-57225000D01*
X87025000Y-57225000D02*
X85750000Y-58500000D01*
X88225000Y-57225000D02*
X87025000Y-57225000D01*
%TO.N,GHA*%
X85196752Y-55800000D02*
X79100000Y-55800000D01*
X85475000Y-55521752D02*
X85196752Y-55800000D01*
X87200000Y-53900000D02*
X86700000Y-53900000D01*
X86700000Y-53900000D02*
X85475000Y-55125000D01*
X85475000Y-55125000D02*
X85475000Y-55521752D01*
X79100000Y-55800000D02*
X78800000Y-55500000D01*
%TO.N,PHASE_A*%
X87800000Y-58950000D02*
X87800000Y-57700000D01*
X81500000Y-59500000D02*
X87250000Y-59500000D01*
X87250000Y-59500000D02*
X87800000Y-58950000D01*
%TO.N,GHC*%
X79000000Y-48500000D02*
X79700000Y-48500000D01*
X79700000Y-48500000D02*
X80100000Y-48900000D01*
X82400000Y-54700000D02*
X82800000Y-54300000D01*
X80100000Y-54200000D02*
X80600000Y-54700000D01*
X80600000Y-54700000D02*
X82400000Y-54700000D01*
X80100000Y-48900000D02*
X80100000Y-54200000D01*
%TO.N,PHASE_C*%
X94375000Y-46875000D02*
X94375000Y-50625000D01*
X93673750Y-46173750D02*
X94375000Y-46875000D01*
X76345000Y-48399050D02*
X76345000Y-47655000D01*
X76345000Y-47655000D02*
X77826250Y-46173750D01*
X77826250Y-46173750D02*
X93673750Y-46173750D01*
%TO.N,PHASE_B*%
X78325000Y-56825000D02*
X79250000Y-57750000D01*
X77750000Y-49500000D02*
X78325000Y-50075000D01*
X79250000Y-57750000D02*
X84000000Y-57750000D01*
X78325000Y-50075000D02*
X78325000Y-56825000D01*
%TO.N,GHB*%
X85000000Y-55325000D02*
X84925000Y-55400000D01*
X81800000Y-55100000D02*
X79500000Y-55100000D01*
X84925000Y-55400000D02*
X82100000Y-55400000D01*
X82100000Y-55400000D02*
X81800000Y-55100000D01*
X79500000Y-55100000D02*
X78900000Y-54500000D01*
%TO.N,GLC*%
X82060000Y-50500000D02*
X82060000Y-46757500D01*
X82060000Y-46757500D02*
X81951250Y-46648750D01*
%TO.N,BEMF_REF*%
X88270970Y-54500000D02*
X86800000Y-54500000D01*
X89485485Y-53285485D02*
X88270970Y-54500000D01*
%TO.N,SWDIO*%
X95800000Y-58700000D02*
X95200000Y-59300000D01*
X95200000Y-59300000D02*
X93500000Y-59300000D01*
X93500000Y-59300000D02*
X91200000Y-57000000D01*
X91200000Y-49900000D02*
X90700000Y-49400000D01*
X91200000Y-57000000D02*
X91200000Y-49900000D01*
%TO.N,SWCLK*%
X91700000Y-49300000D02*
X91700000Y-56600000D01*
X91700000Y-56600000D02*
X93800000Y-58700000D01*
%TO.N,INPUT*%
X103100000Y-56200000D02*
X103800000Y-55500000D01*
X95580000Y-56200000D02*
X103100000Y-56200000D01*
X94360000Y-57420000D02*
X95580000Y-56200000D01*
%TD*%
%TA.AperFunction,Conductor*%
%TO.N,+6V*%
G36*
X106002396Y-44300736D02*
G01*
X106131672Y-44313468D01*
X106141075Y-44315339D01*
X106263072Y-44352346D01*
X106271939Y-44356018D01*
X106323235Y-44383437D01*
X106384364Y-44416112D01*
X106392350Y-44421449D01*
X106490889Y-44502318D01*
X106497681Y-44509110D01*
X106578550Y-44607649D01*
X106583887Y-44615635D01*
X106643979Y-44728057D01*
X106647655Y-44736932D01*
X106684658Y-44858915D01*
X106686531Y-44868335D01*
X106695631Y-44960723D01*
X106699264Y-44997603D01*
X106699500Y-45002406D01*
X106699500Y-58997593D01*
X106699264Y-59002396D01*
X106686532Y-59131663D01*
X106684658Y-59141084D01*
X106647655Y-59263067D01*
X106643979Y-59271942D01*
X106583887Y-59384364D01*
X106578550Y-59392350D01*
X106497681Y-59490889D01*
X106490889Y-59497681D01*
X106392350Y-59578550D01*
X106384364Y-59583887D01*
X106271942Y-59643979D01*
X106263067Y-59647655D01*
X106141084Y-59684658D01*
X106131663Y-59686532D01*
X106002396Y-59699264D01*
X105997593Y-59699500D01*
X87558410Y-59699500D01*
X87523762Y-59685148D01*
X87509410Y-59650500D01*
X87523762Y-59615852D01*
X87639115Y-59500500D01*
X88033557Y-59106059D01*
X88053407Y-59058136D01*
X88075500Y-59004800D01*
X88075500Y-58011188D01*
X88089852Y-57976540D01*
X88105669Y-57960723D01*
X88128050Y-57938342D01*
X88128054Y-57938335D01*
X88185644Y-57825309D01*
X88185644Y-57825307D01*
X88185646Y-57825304D01*
X88204790Y-57704429D01*
X88224384Y-57672455D01*
X88260851Y-57663700D01*
X88287834Y-57677449D01*
X88843939Y-58233556D01*
X88843940Y-58233556D01*
X88843942Y-58233558D01*
X88911780Y-58261657D01*
X88916188Y-58263483D01*
X88942706Y-58290002D01*
X88942706Y-58327505D01*
X88923927Y-58349974D01*
X88868874Y-58385353D01*
X88868872Y-58385355D01*
X88774625Y-58494123D01*
X88774624Y-58494125D01*
X88714833Y-58625045D01*
X88694353Y-58767497D01*
X88694353Y-58767502D01*
X88714833Y-58909954D01*
X88738019Y-58960723D01*
X88774623Y-59040873D01*
X88774624Y-59040874D01*
X88774625Y-59040876D01*
X88862643Y-59142454D01*
X88868872Y-59149643D01*
X88989947Y-59227453D01*
X89066785Y-59250014D01*
X89128034Y-59267999D01*
X89128037Y-59267999D01*
X89128039Y-59268000D01*
X89128040Y-59268000D01*
X89271960Y-59268000D01*
X89271961Y-59268000D01*
X89271963Y-59267999D01*
X89271965Y-59267999D01*
X89294795Y-59261295D01*
X89410053Y-59227453D01*
X89531128Y-59149643D01*
X89625377Y-59040873D01*
X89685165Y-58909957D01*
X89685165Y-58909955D01*
X89685166Y-58909954D01*
X89705647Y-58767502D01*
X89705647Y-58767497D01*
X89695943Y-58700000D01*
X91394508Y-58700000D01*
X91414354Y-58825304D01*
X91414354Y-58825305D01*
X91414355Y-58825307D01*
X91414355Y-58825309D01*
X91471945Y-58938335D01*
X91471950Y-58938342D01*
X91561657Y-59028049D01*
X91561664Y-59028054D01*
X91674691Y-59085644D01*
X91674692Y-59085644D01*
X91674696Y-59085646D01*
X91800000Y-59105492D01*
X91925304Y-59085646D01*
X91925308Y-59085644D01*
X91925309Y-59085644D01*
X92038335Y-59028054D01*
X92038337Y-59028052D01*
X92038342Y-59028050D01*
X92128050Y-58938342D01*
X92142513Y-58909957D01*
X92185644Y-58825309D01*
X92185644Y-58825307D01*
X92185646Y-58825304D01*
X92205492Y-58700000D01*
X92185646Y-58574696D01*
X92185644Y-58574692D01*
X92185644Y-58574690D01*
X92128054Y-58461664D01*
X92128049Y-58461657D01*
X92038342Y-58371950D01*
X92038335Y-58371945D01*
X91925308Y-58314355D01*
X91925305Y-58314354D01*
X91925304Y-58314354D01*
X91800000Y-58294508D01*
X91674696Y-58314354D01*
X91674694Y-58314354D01*
X91674692Y-58314355D01*
X91674690Y-58314355D01*
X91561664Y-58371945D01*
X91561657Y-58371950D01*
X91471950Y-58461657D01*
X91471945Y-58461664D01*
X91414355Y-58574690D01*
X91414355Y-58574692D01*
X91414354Y-58574694D01*
X91414354Y-58574696D01*
X91394508Y-58700000D01*
X89695943Y-58700000D01*
X89685166Y-58625045D01*
X89662169Y-58574690D01*
X89625377Y-58494127D01*
X89621440Y-58489584D01*
X89531128Y-58385357D01*
X89500575Y-58365722D01*
X89479186Y-58334916D01*
X89485844Y-58298009D01*
X89516650Y-58276620D01*
X89527066Y-58275500D01*
X90804798Y-58275500D01*
X90804800Y-58275500D01*
X90906058Y-58233557D01*
X90969880Y-58169734D01*
X90996860Y-58155988D01*
X90999995Y-58155491D01*
X91000000Y-58155492D01*
X91125304Y-58135646D01*
X91125308Y-58135644D01*
X91125309Y-58135644D01*
X91238335Y-58078054D01*
X91238337Y-58078052D01*
X91238342Y-58078050D01*
X91328050Y-57988342D01*
X91330488Y-57983558D01*
X91385644Y-57875309D01*
X91385644Y-57875307D01*
X91385646Y-57875304D01*
X91405492Y-57750000D01*
X91399933Y-57714904D01*
X91408688Y-57678440D01*
X91440664Y-57658844D01*
X91477131Y-57667599D01*
X91482977Y-57672592D01*
X92428241Y-58617857D01*
X93343941Y-59533557D01*
X93343942Y-59533558D01*
X93356874Y-59538913D01*
X93373597Y-59545840D01*
X93373598Y-59545841D01*
X93373599Y-59545841D01*
X93445200Y-59575500D01*
X93445202Y-59575500D01*
X95254798Y-59575500D01*
X95254800Y-59575500D01*
X95356058Y-59533557D01*
X95433557Y-59456058D01*
X95433556Y-59456058D01*
X95769877Y-59119737D01*
X95796859Y-59105989D01*
X95799998Y-59105491D01*
X95800000Y-59105492D01*
X95925304Y-59085646D01*
X95925308Y-59085644D01*
X95925309Y-59085644D01*
X96038335Y-59028054D01*
X96038337Y-59028052D01*
X96038342Y-59028050D01*
X96128050Y-58938342D01*
X96142513Y-58909957D01*
X96185644Y-58825309D01*
X96185644Y-58825307D01*
X96185646Y-58825304D01*
X96205492Y-58700000D01*
X96185646Y-58574696D01*
X96185644Y-58574692D01*
X96185644Y-58574690D01*
X96128054Y-58461664D01*
X96128049Y-58461657D01*
X96038342Y-58371950D01*
X96038335Y-58371945D01*
X95925308Y-58314355D01*
X95925305Y-58314354D01*
X95925304Y-58314354D01*
X95800000Y-58294508D01*
X95674696Y-58314354D01*
X95674694Y-58314354D01*
X95674692Y-58314355D01*
X95674690Y-58314355D01*
X95561664Y-58371945D01*
X95561657Y-58371950D01*
X95471950Y-58461657D01*
X95471945Y-58461664D01*
X95414355Y-58574690D01*
X95414355Y-58574692D01*
X95394011Y-58703138D01*
X95380262Y-58730120D01*
X95100237Y-59010148D01*
X95065589Y-59024500D01*
X94160188Y-59024500D01*
X94125540Y-59010148D01*
X94111188Y-58975500D01*
X94125540Y-58940852D01*
X94128050Y-58938342D01*
X94142513Y-58909957D01*
X94185644Y-58825309D01*
X94185644Y-58825307D01*
X94185646Y-58825304D01*
X94205492Y-58700000D01*
X94185646Y-58574696D01*
X94185644Y-58574692D01*
X94185644Y-58574690D01*
X94128054Y-58461664D01*
X94128049Y-58461657D01*
X94038342Y-58371950D01*
X94038335Y-58371945D01*
X93925308Y-58314355D01*
X93925305Y-58314354D01*
X93925304Y-58314354D01*
X93872181Y-58305940D01*
X93796859Y-58294010D01*
X93769877Y-58280261D01*
X92909616Y-57420000D01*
X93954508Y-57420000D01*
X93974354Y-57545304D01*
X93974354Y-57545305D01*
X93974355Y-57545307D01*
X93974355Y-57545309D01*
X94031945Y-57658335D01*
X94031950Y-57658342D01*
X94121657Y-57748049D01*
X94121664Y-57748054D01*
X94234691Y-57805644D01*
X94234692Y-57805644D01*
X94234696Y-57805646D01*
X94360000Y-57825492D01*
X94485304Y-57805646D01*
X94485308Y-57805644D01*
X94485309Y-57805644D01*
X94598335Y-57748054D01*
X94598337Y-57748052D01*
X94598342Y-57748050D01*
X94688050Y-57658342D01*
X94705194Y-57624696D01*
X94717777Y-57600000D01*
X95594722Y-57600000D01*
X95613763Y-57756819D01*
X95669780Y-57904524D01*
X95724332Y-57983556D01*
X95759517Y-58034530D01*
X95877760Y-58139283D01*
X96017635Y-58212696D01*
X96171015Y-58250500D01*
X96171016Y-58250500D01*
X96328983Y-58250500D01*
X96328985Y-58250500D01*
X96482365Y-58212696D01*
X96622240Y-58139283D01*
X96740483Y-58034530D01*
X96830220Y-57904523D01*
X96886237Y-57756818D01*
X96905278Y-57600000D01*
X96886237Y-57443182D01*
X96830220Y-57295477D01*
X96829678Y-57294692D01*
X96751903Y-57182015D01*
X96740483Y-57165470D01*
X96740480Y-57165467D01*
X96740479Y-57165466D01*
X96622239Y-57060716D01*
X96482364Y-56987303D01*
X96366788Y-56958817D01*
X96328985Y-56949500D01*
X96171015Y-56949500D01*
X96140687Y-56956975D01*
X96017635Y-56987303D01*
X95877760Y-57060716D01*
X95759520Y-57165466D01*
X95759516Y-57165471D01*
X95669780Y-57295475D01*
X95613763Y-57443180D01*
X95594722Y-57600000D01*
X94717777Y-57600000D01*
X94745644Y-57545309D01*
X94745644Y-57545307D01*
X94745646Y-57545304D01*
X94765492Y-57420000D01*
X94765491Y-57419997D01*
X94765989Y-57416858D01*
X94779736Y-57389877D01*
X95679764Y-56489852D01*
X95714412Y-56475500D01*
X101723505Y-56475500D01*
X101758153Y-56489852D01*
X101772505Y-56524500D01*
X101758153Y-56559148D01*
X101749996Y-56565722D01*
X101668871Y-56617857D01*
X101574625Y-56726623D01*
X101574624Y-56726625D01*
X101514833Y-56857545D01*
X101494353Y-56999997D01*
X101494353Y-57000002D01*
X101514833Y-57142454D01*
X101533512Y-57183354D01*
X101574623Y-57273373D01*
X101574624Y-57273374D01*
X101574625Y-57273376D01*
X101593099Y-57294696D01*
X101668872Y-57382143D01*
X101730813Y-57421950D01*
X101788119Y-57458778D01*
X101809508Y-57489584D01*
X101802850Y-57526491D01*
X101788119Y-57541221D01*
X101781759Y-57545309D01*
X101668871Y-57617857D01*
X101574625Y-57726623D01*
X101574624Y-57726625D01*
X101514833Y-57857545D01*
X101494353Y-57999997D01*
X101494353Y-58000002D01*
X101514833Y-58142454D01*
X101533512Y-58183354D01*
X101574623Y-58273373D01*
X101574624Y-58273374D01*
X101574625Y-58273376D01*
X101654643Y-58365722D01*
X101668872Y-58382143D01*
X101788119Y-58458778D01*
X101809508Y-58489584D01*
X101802850Y-58526491D01*
X101788119Y-58541222D01*
X101668871Y-58617857D01*
X101574625Y-58726623D01*
X101574624Y-58726625D01*
X101514833Y-58857545D01*
X101494353Y-58999997D01*
X101494353Y-59000002D01*
X101514833Y-59142454D01*
X101533512Y-59183354D01*
X101574623Y-59273373D01*
X101574624Y-59273374D01*
X101574625Y-59273376D01*
X101662414Y-59374690D01*
X101668872Y-59382143D01*
X101789947Y-59459953D01*
X101866785Y-59482514D01*
X101928034Y-59500499D01*
X101928037Y-59500499D01*
X101928039Y-59500500D01*
X101928040Y-59500500D01*
X102071960Y-59500500D01*
X102071961Y-59500500D01*
X102071963Y-59500499D01*
X102071965Y-59500499D01*
X102104693Y-59490889D01*
X102210053Y-59459953D01*
X102331128Y-59382143D01*
X102425377Y-59273373D01*
X102455428Y-59207569D01*
X102482876Y-59182015D01*
X102520356Y-59183354D01*
X102544570Y-59207568D01*
X102574623Y-59273373D01*
X102574624Y-59273374D01*
X102574625Y-59273376D01*
X102662414Y-59374690D01*
X102668872Y-59382143D01*
X102789947Y-59459953D01*
X102866785Y-59482514D01*
X102928034Y-59500499D01*
X102928037Y-59500499D01*
X102928039Y-59500500D01*
X102928040Y-59500500D01*
X103071960Y-59500500D01*
X103071961Y-59500500D01*
X103071963Y-59500499D01*
X103071965Y-59500499D01*
X103104693Y-59490889D01*
X103210053Y-59459953D01*
X103331128Y-59382143D01*
X103425377Y-59273373D01*
X103455428Y-59207569D01*
X103482876Y-59182015D01*
X103520356Y-59183354D01*
X103544570Y-59207568D01*
X103574623Y-59273373D01*
X103574624Y-59273374D01*
X103574625Y-59273376D01*
X103662414Y-59374690D01*
X103668872Y-59382143D01*
X103789947Y-59459953D01*
X103866785Y-59482514D01*
X103928034Y-59500499D01*
X103928037Y-59500499D01*
X103928039Y-59500500D01*
X103928040Y-59500500D01*
X104071960Y-59500500D01*
X104071961Y-59500500D01*
X104071963Y-59500499D01*
X104071965Y-59500499D01*
X104104693Y-59490889D01*
X104210053Y-59459953D01*
X104331128Y-59382143D01*
X104425377Y-59273373D01*
X104455428Y-59207569D01*
X104482876Y-59182015D01*
X104520356Y-59183354D01*
X104544570Y-59207568D01*
X104574623Y-59273373D01*
X104574624Y-59273374D01*
X104574625Y-59273376D01*
X104662414Y-59374690D01*
X104668872Y-59382143D01*
X104789947Y-59459953D01*
X104866785Y-59482514D01*
X104928034Y-59500499D01*
X104928037Y-59500499D01*
X104928039Y-59500500D01*
X104928040Y-59500500D01*
X105071960Y-59500500D01*
X105071961Y-59500500D01*
X105071963Y-59500499D01*
X105071965Y-59500499D01*
X105104693Y-59490889D01*
X105210053Y-59459953D01*
X105331128Y-59382143D01*
X105425377Y-59273373D01*
X105455428Y-59207569D01*
X105482876Y-59182015D01*
X105520356Y-59183354D01*
X105544570Y-59207568D01*
X105574623Y-59273373D01*
X105574624Y-59273374D01*
X105574625Y-59273376D01*
X105662414Y-59374690D01*
X105668872Y-59382143D01*
X105789947Y-59459953D01*
X105866785Y-59482514D01*
X105928034Y-59500499D01*
X105928037Y-59500499D01*
X105928039Y-59500500D01*
X105928040Y-59500500D01*
X106071960Y-59500500D01*
X106071961Y-59500500D01*
X106071963Y-59500499D01*
X106071965Y-59500499D01*
X106104693Y-59490889D01*
X106210053Y-59459953D01*
X106331128Y-59382143D01*
X106425377Y-59273373D01*
X106485165Y-59142457D01*
X106485165Y-59142455D01*
X106485166Y-59142454D01*
X106505647Y-59000002D01*
X106505647Y-58999997D01*
X106485166Y-58857545D01*
X106480751Y-58847879D01*
X106425377Y-58726627D01*
X106414180Y-58713705D01*
X106331128Y-58617857D01*
X106211878Y-58541220D01*
X106190491Y-58510416D01*
X106197149Y-58473509D01*
X106211877Y-58458780D01*
X106331128Y-58382143D01*
X106425377Y-58273373D01*
X106485165Y-58142457D01*
X106485165Y-58142455D01*
X106485166Y-58142454D01*
X106505647Y-58000002D01*
X106505647Y-57999997D01*
X106485166Y-57857545D01*
X106480751Y-57847879D01*
X106425377Y-57726627D01*
X106415425Y-57715142D01*
X106331128Y-57617857D01*
X106303342Y-57600000D01*
X106211878Y-57541220D01*
X106190491Y-57510416D01*
X106197149Y-57473509D01*
X106211877Y-57458780D01*
X106331128Y-57382143D01*
X106425377Y-57273373D01*
X106485165Y-57142457D01*
X106485165Y-57142455D01*
X106485166Y-57142454D01*
X106505647Y-57000002D01*
X106505647Y-56999997D01*
X106485166Y-56857545D01*
X106455428Y-56792429D01*
X106425377Y-56726627D01*
X106424525Y-56725644D01*
X106331128Y-56617857D01*
X106269630Y-56578335D01*
X106210053Y-56540047D01*
X106198559Y-56536672D01*
X106071965Y-56499500D01*
X106071961Y-56499500D01*
X105928039Y-56499500D01*
X105928034Y-56499500D01*
X105789949Y-56540046D01*
X105668871Y-56617857D01*
X105574625Y-56726623D01*
X105574624Y-56726625D01*
X105544572Y-56792429D01*
X105517123Y-56817984D01*
X105479644Y-56816645D01*
X105455428Y-56792429D01*
X105433992Y-56745492D01*
X105425377Y-56726627D01*
X105424525Y-56725644D01*
X105331128Y-56617857D01*
X105269630Y-56578335D01*
X105210053Y-56540047D01*
X105198559Y-56536672D01*
X105071965Y-56499500D01*
X105071961Y-56499500D01*
X104928039Y-56499500D01*
X104928034Y-56499500D01*
X104789949Y-56540046D01*
X104668871Y-56617857D01*
X104574625Y-56726623D01*
X104574624Y-56726625D01*
X104544572Y-56792429D01*
X104517123Y-56817984D01*
X104479644Y-56816645D01*
X104455428Y-56792429D01*
X104433992Y-56745492D01*
X104425377Y-56726627D01*
X104424525Y-56725644D01*
X104331128Y-56617857D01*
X104269630Y-56578335D01*
X104210053Y-56540047D01*
X104198559Y-56536672D01*
X104071965Y-56499500D01*
X104071961Y-56499500D01*
X103928039Y-56499500D01*
X103928034Y-56499500D01*
X103789949Y-56540046D01*
X103668871Y-56617857D01*
X103574625Y-56726623D01*
X103574624Y-56726625D01*
X103544572Y-56792429D01*
X103517123Y-56817984D01*
X103479644Y-56816645D01*
X103455428Y-56792429D01*
X103433992Y-56745492D01*
X103425377Y-56726627D01*
X103424525Y-56725644D01*
X103331128Y-56617857D01*
X103250004Y-56565722D01*
X103210053Y-56540047D01*
X103210051Y-56540046D01*
X103207105Y-56538153D01*
X103208056Y-56536672D01*
X103186495Y-56513501D01*
X103187843Y-56476022D01*
X103213658Y-56451119D01*
X103256058Y-56433557D01*
X103333557Y-56356058D01*
X103333556Y-56356058D01*
X103769877Y-55919736D01*
X103796859Y-55905989D01*
X103799998Y-55905491D01*
X103800000Y-55905492D01*
X103925304Y-55885646D01*
X103925308Y-55885644D01*
X103925309Y-55885644D01*
X104038335Y-55828054D01*
X104038337Y-55828052D01*
X104038342Y-55828050D01*
X104128050Y-55738342D01*
X104156685Y-55682143D01*
X104185644Y-55625309D01*
X104185644Y-55625307D01*
X104185646Y-55625304D01*
X104205492Y-55500000D01*
X104185646Y-55374696D01*
X104185644Y-55374692D01*
X104185644Y-55374690D01*
X104128054Y-55261664D01*
X104128049Y-55261657D01*
X104038342Y-55171950D01*
X104038335Y-55171945D01*
X103925308Y-55114355D01*
X103925305Y-55114354D01*
X103925304Y-55114354D01*
X103800000Y-55094508D01*
X103674696Y-55114354D01*
X103674694Y-55114354D01*
X103674692Y-55114355D01*
X103674690Y-55114355D01*
X103561664Y-55171945D01*
X103561657Y-55171950D01*
X103471950Y-55261657D01*
X103471945Y-55261664D01*
X103414355Y-55374690D01*
X103414355Y-55374692D01*
X103394011Y-55503138D01*
X103380262Y-55530120D01*
X103000237Y-55910148D01*
X102965589Y-55924500D01*
X95634800Y-55924500D01*
X95525200Y-55924500D01*
X95525198Y-55924500D01*
X95525196Y-55924501D01*
X95423941Y-55966442D01*
X94390122Y-57000261D01*
X94363140Y-57014010D01*
X94279761Y-57027216D01*
X94234696Y-57034354D01*
X94234694Y-57034354D01*
X94234692Y-57034355D01*
X94234690Y-57034355D01*
X94121664Y-57091945D01*
X94121657Y-57091950D01*
X94031950Y-57181657D01*
X94031945Y-57181664D01*
X93974355Y-57294690D01*
X93974355Y-57294692D01*
X93974354Y-57294694D01*
X93974354Y-57294696D01*
X93954508Y-57420000D01*
X92909616Y-57420000D01*
X91989852Y-56500236D01*
X91975500Y-56465588D01*
X91975500Y-54750000D01*
X92894508Y-54750000D01*
X92914354Y-54875304D01*
X92914354Y-54875305D01*
X92914355Y-54875307D01*
X92914355Y-54875309D01*
X92971945Y-54988335D01*
X92971950Y-54988342D01*
X93061657Y-55078049D01*
X93061664Y-55078054D01*
X93174691Y-55135644D01*
X93174692Y-55135644D01*
X93174696Y-55135646D01*
X93300000Y-55155492D01*
X93425304Y-55135646D01*
X93425308Y-55135644D01*
X93425309Y-55135644D01*
X93538335Y-55078054D01*
X93538337Y-55078052D01*
X93538342Y-55078050D01*
X93628050Y-54988342D01*
X93633462Y-54977721D01*
X93685644Y-54875309D01*
X93685644Y-54875307D01*
X93685646Y-54875304D01*
X93705492Y-54750000D01*
X93685646Y-54624696D01*
X93685644Y-54624692D01*
X93685644Y-54624690D01*
X93628054Y-54511664D01*
X93628049Y-54511657D01*
X93538342Y-54421950D01*
X93538335Y-54421945D01*
X93425308Y-54364355D01*
X93425305Y-54364354D01*
X93425304Y-54364354D01*
X93300000Y-54344508D01*
X93174696Y-54364354D01*
X93174694Y-54364354D01*
X93174692Y-54364355D01*
X93174690Y-54364355D01*
X93061664Y-54421945D01*
X93061657Y-54421950D01*
X92971950Y-54511657D01*
X92971945Y-54511664D01*
X92914355Y-54624690D01*
X92914355Y-54624692D01*
X92914354Y-54624694D01*
X92914354Y-54624696D01*
X92894508Y-54750000D01*
X91975500Y-54750000D01*
X91975500Y-53330000D01*
X98874722Y-53330000D01*
X98893763Y-53486819D01*
X98949780Y-53634524D01*
X98988747Y-53690977D01*
X99039517Y-53764530D01*
X99039519Y-53764531D01*
X99039520Y-53764533D01*
X99050992Y-53774696D01*
X99157760Y-53869283D01*
X99297635Y-53942696D01*
X99451015Y-53980500D01*
X99451016Y-53980500D01*
X99608983Y-53980500D01*
X99608985Y-53980500D01*
X99762365Y-53942696D01*
X99902240Y-53869283D01*
X100020483Y-53764530D01*
X100110220Y-53634523D01*
X100166237Y-53486818D01*
X100185278Y-53330000D01*
X100166237Y-53173182D01*
X100110220Y-53025477D01*
X100092632Y-52999997D01*
X100023499Y-52899840D01*
X100020483Y-52895470D01*
X100020480Y-52895467D01*
X100020479Y-52895466D01*
X99902239Y-52790716D01*
X99762364Y-52717303D01*
X99646788Y-52688817D01*
X99608985Y-52679500D01*
X99451015Y-52679500D01*
X99420687Y-52686975D01*
X99297635Y-52717303D01*
X99157760Y-52790716D01*
X99039520Y-52895466D01*
X99039516Y-52895471D01*
X98949780Y-53025475D01*
X98893763Y-53173180D01*
X98874722Y-53330000D01*
X91975500Y-53330000D01*
X91975500Y-49611188D01*
X91989852Y-49576540D01*
X92028050Y-49538342D01*
X92034692Y-49525307D01*
X92085644Y-49425309D01*
X92085644Y-49425307D01*
X92085646Y-49425304D01*
X92105492Y-49300000D01*
X92085646Y-49174696D01*
X92085644Y-49174692D01*
X92085644Y-49174690D01*
X92028054Y-49061664D01*
X92028049Y-49061657D01*
X91938342Y-48971950D01*
X91938335Y-48971945D01*
X91825308Y-48914355D01*
X91825305Y-48914354D01*
X91825304Y-48914354D01*
X91700000Y-48894508D01*
X91574696Y-48914354D01*
X91574694Y-48914354D01*
X91574692Y-48914355D01*
X91574690Y-48914355D01*
X91461664Y-48971945D01*
X91461657Y-48971950D01*
X91371950Y-49061657D01*
X91371945Y-49061664D01*
X91314355Y-49174690D01*
X91314355Y-49174692D01*
X91314354Y-49174694D01*
X91314354Y-49174696D01*
X91294508Y-49300000D01*
X91314354Y-49425304D01*
X91314354Y-49425305D01*
X91314355Y-49425307D01*
X91314355Y-49425309D01*
X91371945Y-49538335D01*
X91371950Y-49538342D01*
X91410148Y-49576540D01*
X91424500Y-49611188D01*
X91424500Y-49616588D01*
X91410148Y-49651236D01*
X91375500Y-49665588D01*
X91340852Y-49651236D01*
X91119737Y-49430121D01*
X91105988Y-49403138D01*
X91105491Y-49400003D01*
X91105492Y-49400000D01*
X91085646Y-49274696D01*
X91085644Y-49274692D01*
X91085644Y-49274690D01*
X91028054Y-49161664D01*
X91028049Y-49161657D01*
X90938342Y-49071950D01*
X90938335Y-49071945D01*
X90825308Y-49014355D01*
X90825305Y-49014354D01*
X90825304Y-49014354D01*
X90700000Y-48994508D01*
X90574696Y-49014354D01*
X90574694Y-49014354D01*
X90574692Y-49014355D01*
X90574690Y-49014355D01*
X90461664Y-49071945D01*
X90461657Y-49071950D01*
X90371950Y-49161657D01*
X90371945Y-49161664D01*
X90314355Y-49274690D01*
X90314355Y-49274692D01*
X90314354Y-49274694D01*
X90314354Y-49274696D01*
X90294508Y-49400000D01*
X90314354Y-49525304D01*
X90314354Y-49525305D01*
X90314355Y-49525307D01*
X90314355Y-49525309D01*
X90371945Y-49638335D01*
X90371950Y-49638342D01*
X90461657Y-49728049D01*
X90461664Y-49728054D01*
X90574691Y-49785644D01*
X90574692Y-49785644D01*
X90574696Y-49785646D01*
X90700000Y-49805492D01*
X90700003Y-49805491D01*
X90703138Y-49805988D01*
X90730121Y-49819737D01*
X90910148Y-49999763D01*
X90924500Y-50034411D01*
X90924500Y-57054801D01*
X90951300Y-57119500D01*
X90966443Y-57156059D01*
X91077405Y-57267021D01*
X91091757Y-57301669D01*
X91077405Y-57336317D01*
X91042757Y-57350669D01*
X91035092Y-57350066D01*
X91000000Y-57344508D01*
X90874696Y-57364354D01*
X90874694Y-57364354D01*
X90874692Y-57364355D01*
X90874690Y-57364355D01*
X90761664Y-57421945D01*
X90761657Y-57421950D01*
X90671950Y-57511657D01*
X90671945Y-57511664D01*
X90614355Y-57624693D01*
X90614354Y-57624694D01*
X90614354Y-57624696D01*
X90608946Y-57658844D01*
X90605094Y-57683165D01*
X90585498Y-57715142D01*
X90556697Y-57724500D01*
X89134412Y-57724500D01*
X89099764Y-57710148D01*
X88381061Y-56991445D01*
X88381059Y-56991444D01*
X88381058Y-56991443D01*
X88321744Y-56966874D01*
X88279801Y-56949500D01*
X88279800Y-56949500D01*
X86970200Y-56949500D01*
X86970198Y-56949500D01*
X86970196Y-56949501D01*
X86898598Y-56979157D01*
X86898599Y-56979158D01*
X86868939Y-56991443D01*
X86868938Y-56991445D01*
X85780122Y-58080261D01*
X85753140Y-58094010D01*
X85669761Y-58107216D01*
X85624696Y-58114354D01*
X85624694Y-58114354D01*
X85624692Y-58114355D01*
X85624690Y-58114355D01*
X85511664Y-58171945D01*
X85511657Y-58171950D01*
X85421950Y-58261657D01*
X85421945Y-58261664D01*
X85364355Y-58374690D01*
X85364355Y-58374692D01*
X85364354Y-58374694D01*
X85364354Y-58374696D01*
X85344508Y-58500000D01*
X85364354Y-58625304D01*
X85364354Y-58625305D01*
X85364355Y-58625307D01*
X85364355Y-58625309D01*
X85421945Y-58738335D01*
X85421950Y-58738342D01*
X85511657Y-58828049D01*
X85511664Y-58828054D01*
X85624691Y-58885644D01*
X85624692Y-58885644D01*
X85624696Y-58885646D01*
X85750000Y-58905492D01*
X85875304Y-58885646D01*
X85875308Y-58885644D01*
X85875309Y-58885644D01*
X85988335Y-58828054D01*
X85988337Y-58828052D01*
X85988342Y-58828050D01*
X86078050Y-58738342D01*
X86078054Y-58738335D01*
X86135644Y-58625309D01*
X86135644Y-58625307D01*
X86135646Y-58625304D01*
X86155492Y-58500000D01*
X86155491Y-58499997D01*
X86155989Y-58496858D01*
X86169736Y-58469877D01*
X87124764Y-57514852D01*
X87159412Y-57500500D01*
X87372198Y-57500500D01*
X87406846Y-57514852D01*
X87421198Y-57549500D01*
X87415857Y-57571746D01*
X87414355Y-57574693D01*
X87414354Y-57574694D01*
X87414354Y-57574696D01*
X87394508Y-57700000D01*
X87414354Y-57825304D01*
X87414354Y-57825305D01*
X87414355Y-57825307D01*
X87414355Y-57825309D01*
X87471945Y-57938335D01*
X87471950Y-57938342D01*
X87510148Y-57976540D01*
X87524500Y-58011188D01*
X87524500Y-58815588D01*
X87510148Y-58850236D01*
X87150237Y-59210148D01*
X87115589Y-59224500D01*
X81811188Y-59224500D01*
X81776540Y-59210148D01*
X81738342Y-59171950D01*
X81738335Y-59171945D01*
X81625308Y-59114355D01*
X81625305Y-59114354D01*
X81625304Y-59114354D01*
X81500000Y-59094508D01*
X81374696Y-59114354D01*
X81374694Y-59114354D01*
X81374692Y-59114355D01*
X81374690Y-59114355D01*
X81261664Y-59171945D01*
X81261657Y-59171950D01*
X81171950Y-59261657D01*
X81171945Y-59261664D01*
X81114355Y-59374690D01*
X81114355Y-59374692D01*
X81114354Y-59374694D01*
X81114354Y-59374696D01*
X81094508Y-59500000D01*
X81114354Y-59625304D01*
X81114354Y-59625305D01*
X81114355Y-59625306D01*
X81115857Y-59628254D01*
X81118800Y-59665641D01*
X81094444Y-59694159D01*
X81072198Y-59699500D01*
X72002407Y-59699500D01*
X71997604Y-59699264D01*
X71868336Y-59686532D01*
X71858915Y-59684658D01*
X71736932Y-59647655D01*
X71728057Y-59643979D01*
X71615635Y-59583887D01*
X71607649Y-59578550D01*
X71509110Y-59497681D01*
X71502318Y-59490889D01*
X71421449Y-59392350D01*
X71416112Y-59384364D01*
X71356787Y-59273376D01*
X71356018Y-59271939D01*
X71352346Y-59263072D01*
X71315339Y-59141075D01*
X71313468Y-59131672D01*
X71300736Y-59002396D01*
X71300500Y-58997593D01*
X71300500Y-56999997D01*
X71494353Y-56999997D01*
X71494353Y-57000002D01*
X71514833Y-57142454D01*
X71533512Y-57183354D01*
X71574623Y-57273373D01*
X71574624Y-57273374D01*
X71574625Y-57273376D01*
X71593099Y-57294696D01*
X71668872Y-57382143D01*
X71730813Y-57421950D01*
X71788119Y-57458778D01*
X71809508Y-57489584D01*
X71802850Y-57526491D01*
X71788119Y-57541221D01*
X71781759Y-57545309D01*
X71668871Y-57617857D01*
X71574625Y-57726623D01*
X71574624Y-57726625D01*
X71514833Y-57857545D01*
X71494353Y-57999997D01*
X71494353Y-58000002D01*
X71514833Y-58142454D01*
X71533512Y-58183354D01*
X71574623Y-58273373D01*
X71574624Y-58273374D01*
X71574625Y-58273376D01*
X71654643Y-58365722D01*
X71668872Y-58382143D01*
X71788119Y-58458778D01*
X71809508Y-58489584D01*
X71802850Y-58526491D01*
X71788119Y-58541222D01*
X71668871Y-58617857D01*
X71574625Y-58726623D01*
X71574624Y-58726625D01*
X71514833Y-58857545D01*
X71494353Y-58999997D01*
X71494353Y-59000002D01*
X71514833Y-59142454D01*
X71533512Y-59183354D01*
X71574623Y-59273373D01*
X71574624Y-59273374D01*
X71574625Y-59273376D01*
X71662414Y-59374690D01*
X71668872Y-59382143D01*
X71789947Y-59459953D01*
X71866785Y-59482514D01*
X71928034Y-59500499D01*
X71928037Y-59500499D01*
X71928039Y-59500500D01*
X71928040Y-59500500D01*
X72071960Y-59500500D01*
X72071961Y-59500500D01*
X72071963Y-59500499D01*
X72071965Y-59500499D01*
X72104693Y-59490889D01*
X72210053Y-59459953D01*
X72331128Y-59382143D01*
X72425377Y-59273373D01*
X72455428Y-59207569D01*
X72482876Y-59182015D01*
X72520356Y-59183354D01*
X72544570Y-59207568D01*
X72574623Y-59273373D01*
X72574624Y-59273374D01*
X72574625Y-59273376D01*
X72662414Y-59374690D01*
X72668872Y-59382143D01*
X72789947Y-59459953D01*
X72866785Y-59482514D01*
X72928034Y-59500499D01*
X72928037Y-59500499D01*
X72928039Y-59500500D01*
X72928040Y-59500500D01*
X73071960Y-59500500D01*
X73071961Y-59500500D01*
X73071963Y-59500499D01*
X73071965Y-59500499D01*
X73104693Y-59490889D01*
X73210053Y-59459953D01*
X73331128Y-59382143D01*
X73425377Y-59273373D01*
X73455428Y-59207569D01*
X73482876Y-59182015D01*
X73520356Y-59183354D01*
X73544570Y-59207568D01*
X73574623Y-59273373D01*
X73574624Y-59273374D01*
X73574625Y-59273376D01*
X73662414Y-59374690D01*
X73668872Y-59382143D01*
X73789947Y-59459953D01*
X73866785Y-59482514D01*
X73928034Y-59500499D01*
X73928037Y-59500499D01*
X73928039Y-59500500D01*
X73928040Y-59500500D01*
X74071960Y-59500500D01*
X74071961Y-59500500D01*
X74071963Y-59500499D01*
X74071965Y-59500499D01*
X74104693Y-59490889D01*
X74210053Y-59459953D01*
X74331128Y-59382143D01*
X74425377Y-59273373D01*
X74455428Y-59207569D01*
X74482876Y-59182015D01*
X74520356Y-59183354D01*
X74544570Y-59207568D01*
X74574623Y-59273373D01*
X74574624Y-59273374D01*
X74574625Y-59273376D01*
X74662414Y-59374690D01*
X74668872Y-59382143D01*
X74789947Y-59459953D01*
X74866785Y-59482514D01*
X74928034Y-59500499D01*
X74928037Y-59500499D01*
X74928039Y-59500500D01*
X74928040Y-59500500D01*
X75071960Y-59500500D01*
X75071961Y-59500500D01*
X75071963Y-59500499D01*
X75071965Y-59500499D01*
X75104693Y-59490889D01*
X75210053Y-59459953D01*
X75331128Y-59382143D01*
X75425377Y-59273373D01*
X75455428Y-59207569D01*
X75482876Y-59182015D01*
X75520356Y-59183354D01*
X75544570Y-59207568D01*
X75574623Y-59273373D01*
X75574624Y-59273374D01*
X75574625Y-59273376D01*
X75662414Y-59374690D01*
X75668872Y-59382143D01*
X75789947Y-59459953D01*
X75866785Y-59482514D01*
X75928034Y-59500499D01*
X75928037Y-59500499D01*
X75928039Y-59500500D01*
X75928040Y-59500500D01*
X76071960Y-59500500D01*
X76071961Y-59500500D01*
X76071963Y-59500499D01*
X76071965Y-59500499D01*
X76104693Y-59490889D01*
X76210053Y-59459953D01*
X76331128Y-59382143D01*
X76425377Y-59273373D01*
X76485165Y-59142457D01*
X76485165Y-59142455D01*
X76485166Y-59142454D01*
X76505647Y-59000002D01*
X76505647Y-58999997D01*
X76485166Y-58857545D01*
X76480751Y-58847879D01*
X76425377Y-58726627D01*
X76414180Y-58713705D01*
X76331128Y-58617857D01*
X76211878Y-58541220D01*
X76190491Y-58510416D01*
X76197149Y-58473509D01*
X76211877Y-58458780D01*
X76331128Y-58382143D01*
X76425377Y-58273373D01*
X76485165Y-58142457D01*
X76485165Y-58142455D01*
X76485166Y-58142454D01*
X76505647Y-58000002D01*
X76505647Y-57999997D01*
X76485166Y-57857545D01*
X76480751Y-57847879D01*
X76425377Y-57726627D01*
X76415425Y-57715142D01*
X76331128Y-57617857D01*
X76303342Y-57600000D01*
X76211878Y-57541220D01*
X76190491Y-57510416D01*
X76197149Y-57473509D01*
X76211877Y-57458780D01*
X76331128Y-57382143D01*
X76425377Y-57273373D01*
X76485165Y-57142457D01*
X76485165Y-57142455D01*
X76485166Y-57142454D01*
X76505647Y-57000002D01*
X76505647Y-56999997D01*
X76485166Y-56857545D01*
X76455428Y-56792429D01*
X76425377Y-56726627D01*
X76424525Y-56725644D01*
X76331128Y-56617857D01*
X76269630Y-56578335D01*
X76210053Y-56540047D01*
X76198559Y-56536672D01*
X76071965Y-56499500D01*
X76071961Y-56499500D01*
X75928039Y-56499500D01*
X75928034Y-56499500D01*
X75789949Y-56540046D01*
X75668871Y-56617857D01*
X75574625Y-56726623D01*
X75574624Y-56726625D01*
X75544572Y-56792429D01*
X75517123Y-56817984D01*
X75479644Y-56816645D01*
X75455428Y-56792429D01*
X75433992Y-56745492D01*
X75425377Y-56726627D01*
X75424525Y-56725644D01*
X75331128Y-56617857D01*
X75269630Y-56578335D01*
X75210053Y-56540047D01*
X75198559Y-56536672D01*
X75071965Y-56499500D01*
X75071961Y-56499500D01*
X74928039Y-56499500D01*
X74928034Y-56499500D01*
X74789949Y-56540046D01*
X74668871Y-56617857D01*
X74574625Y-56726623D01*
X74574624Y-56726625D01*
X74544572Y-56792429D01*
X74517123Y-56817984D01*
X74479644Y-56816645D01*
X74455428Y-56792429D01*
X74433992Y-56745492D01*
X74425377Y-56726627D01*
X74424525Y-56725644D01*
X74331128Y-56617857D01*
X74269630Y-56578335D01*
X74210053Y-56540047D01*
X74198559Y-56536672D01*
X74071965Y-56499500D01*
X74071961Y-56499500D01*
X73928039Y-56499500D01*
X73928034Y-56499500D01*
X73789949Y-56540046D01*
X73668871Y-56617857D01*
X73574625Y-56726623D01*
X73574624Y-56726625D01*
X73544572Y-56792429D01*
X73517123Y-56817984D01*
X73479644Y-56816645D01*
X73455428Y-56792429D01*
X73433992Y-56745492D01*
X73425377Y-56726627D01*
X73424525Y-56725644D01*
X73331128Y-56617857D01*
X73269630Y-56578335D01*
X73210053Y-56540047D01*
X73198559Y-56536672D01*
X73071965Y-56499500D01*
X73071961Y-56499500D01*
X72928039Y-56499500D01*
X72928034Y-56499500D01*
X72789949Y-56540046D01*
X72668871Y-56617857D01*
X72574625Y-56726623D01*
X72574624Y-56726625D01*
X72544572Y-56792429D01*
X72517123Y-56817984D01*
X72479644Y-56816645D01*
X72455428Y-56792429D01*
X72433992Y-56745492D01*
X72425377Y-56726627D01*
X72424525Y-56725644D01*
X72331128Y-56617857D01*
X72269630Y-56578335D01*
X72210053Y-56540047D01*
X72198559Y-56536672D01*
X72071965Y-56499500D01*
X72071961Y-56499500D01*
X71928039Y-56499500D01*
X71928034Y-56499500D01*
X71789949Y-56540046D01*
X71668871Y-56617857D01*
X71574625Y-56726623D01*
X71574624Y-56726625D01*
X71514833Y-56857545D01*
X71494353Y-56999997D01*
X71300500Y-56999997D01*
X71300500Y-50999997D01*
X71494353Y-50999997D01*
X71494353Y-51000002D01*
X71514833Y-51142454D01*
X71533512Y-51183354D01*
X71574623Y-51273373D01*
X71574624Y-51273374D01*
X71574625Y-51273376D01*
X71613492Y-51318231D01*
X71668872Y-51382143D01*
X71788119Y-51458778D01*
X71809508Y-51489584D01*
X71802850Y-51526491D01*
X71788119Y-51541222D01*
X71668871Y-51617857D01*
X71574625Y-51726623D01*
X71574624Y-51726625D01*
X71514833Y-51857545D01*
X71494353Y-51999997D01*
X71494353Y-52000002D01*
X71514833Y-52142454D01*
X71533512Y-52183354D01*
X71574623Y-52273373D01*
X71574624Y-52273374D01*
X71574625Y-52273376D01*
X71625256Y-52331807D01*
X71668872Y-52382143D01*
X71769079Y-52446542D01*
X71788119Y-52458778D01*
X71809508Y-52489584D01*
X71802850Y-52526491D01*
X71788119Y-52541222D01*
X71668871Y-52617857D01*
X71574625Y-52726623D01*
X71574624Y-52726625D01*
X71514833Y-52857545D01*
X71494353Y-52999997D01*
X71494353Y-53000002D01*
X71514833Y-53142454D01*
X71533512Y-53183354D01*
X71574623Y-53273373D01*
X71574624Y-53273374D01*
X71574625Y-53273376D01*
X71587837Y-53288623D01*
X71668872Y-53382143D01*
X71789947Y-53459953D01*
X71866785Y-53482514D01*
X71928034Y-53500499D01*
X71928037Y-53500499D01*
X71928039Y-53500500D01*
X71928040Y-53500500D01*
X72071960Y-53500500D01*
X72071961Y-53500500D01*
X72071963Y-53500499D01*
X72071965Y-53500499D01*
X72094795Y-53493795D01*
X72210053Y-53459953D01*
X72331128Y-53382143D01*
X72425377Y-53273373D01*
X72455428Y-53207569D01*
X72482876Y-53182015D01*
X72520356Y-53183354D01*
X72544570Y-53207568D01*
X72574623Y-53273373D01*
X72574624Y-53273374D01*
X72574625Y-53273376D01*
X72587837Y-53288623D01*
X72668872Y-53382143D01*
X72789947Y-53459953D01*
X72866785Y-53482514D01*
X72928034Y-53500499D01*
X72928037Y-53500499D01*
X72928039Y-53500500D01*
X72928040Y-53500500D01*
X73071960Y-53500500D01*
X73071961Y-53500500D01*
X73071963Y-53500499D01*
X73071965Y-53500499D01*
X73094795Y-53493795D01*
X73210053Y-53459953D01*
X73331128Y-53382143D01*
X73425377Y-53273373D01*
X73455428Y-53207569D01*
X73482876Y-53182015D01*
X73520356Y-53183354D01*
X73544570Y-53207568D01*
X73574623Y-53273373D01*
X73574624Y-53273374D01*
X73574625Y-53273376D01*
X73587837Y-53288623D01*
X73668872Y-53382143D01*
X73789947Y-53459953D01*
X73866785Y-53482514D01*
X73928034Y-53500499D01*
X73928037Y-53500499D01*
X73928039Y-53500500D01*
X73928040Y-53500500D01*
X74071960Y-53500500D01*
X74071961Y-53500500D01*
X74071963Y-53500499D01*
X74071965Y-53500499D01*
X74094795Y-53493795D01*
X74210053Y-53459953D01*
X74331128Y-53382143D01*
X74425377Y-53273373D01*
X74455428Y-53207569D01*
X74482876Y-53182015D01*
X74520356Y-53183354D01*
X74544570Y-53207568D01*
X74574623Y-53273373D01*
X74574624Y-53273374D01*
X74574625Y-53273376D01*
X74587837Y-53288623D01*
X74668872Y-53382143D01*
X74789947Y-53459953D01*
X74866785Y-53482514D01*
X74928034Y-53500499D01*
X74928037Y-53500499D01*
X74928039Y-53500500D01*
X74928040Y-53500500D01*
X75071960Y-53500500D01*
X75071961Y-53500500D01*
X75071963Y-53500499D01*
X75071965Y-53500499D01*
X75094795Y-53493795D01*
X75210053Y-53459953D01*
X75331128Y-53382143D01*
X75425377Y-53273373D01*
X75455428Y-53207569D01*
X75482876Y-53182015D01*
X75520356Y-53183354D01*
X75544570Y-53207568D01*
X75574623Y-53273373D01*
X75574624Y-53273374D01*
X75574625Y-53273376D01*
X75587837Y-53288623D01*
X75668872Y-53382143D01*
X75789947Y-53459953D01*
X75866785Y-53482514D01*
X75928034Y-53500499D01*
X75928037Y-53500499D01*
X75928039Y-53500500D01*
X75928040Y-53500500D01*
X76071960Y-53500500D01*
X76071961Y-53500500D01*
X76071963Y-53500499D01*
X76071965Y-53500499D01*
X76094795Y-53493795D01*
X76210053Y-53459953D01*
X76331128Y-53382143D01*
X76425377Y-53273373D01*
X76485165Y-53142457D01*
X76485165Y-53142455D01*
X76485166Y-53142454D01*
X76505647Y-53000002D01*
X76505647Y-52999997D01*
X76485166Y-52857545D01*
X76454646Y-52790717D01*
X76425377Y-52726627D01*
X76331128Y-52617857D01*
X76211878Y-52541220D01*
X76190491Y-52510416D01*
X76197149Y-52473509D01*
X76211877Y-52458780D01*
X76331128Y-52382143D01*
X76425377Y-52273373D01*
X76485165Y-52142457D01*
X76485165Y-52142455D01*
X76485166Y-52142454D01*
X76505647Y-52000002D01*
X76505647Y-51999997D01*
X76485166Y-51857545D01*
X76455428Y-51792429D01*
X76425377Y-51726627D01*
X76407605Y-51706117D01*
X76331128Y-51617857D01*
X76211878Y-51541220D01*
X76190491Y-51510416D01*
X76197149Y-51473509D01*
X76211877Y-51458780D01*
X76331128Y-51382143D01*
X76425377Y-51273373D01*
X76485165Y-51142457D01*
X76485165Y-51142455D01*
X76485166Y-51142454D01*
X76505647Y-51000002D01*
X76505647Y-50999997D01*
X76485166Y-50857545D01*
X76480325Y-50846945D01*
X76425377Y-50726627D01*
X76331128Y-50617857D01*
X76210053Y-50540047D01*
X76210050Y-50540046D01*
X76071965Y-50499500D01*
X76071961Y-50499500D01*
X75928039Y-50499500D01*
X75928034Y-50499500D01*
X75789949Y-50540046D01*
X75789947Y-50540046D01*
X75789947Y-50540047D01*
X75752722Y-50563969D01*
X75668871Y-50617857D01*
X75574625Y-50726623D01*
X75574624Y-50726625D01*
X75574623Y-50726626D01*
X75574623Y-50726627D01*
X75562477Y-50753224D01*
X75544572Y-50792429D01*
X75517123Y-50817984D01*
X75479644Y-50816645D01*
X75455428Y-50792429D01*
X75444960Y-50769508D01*
X75425377Y-50726627D01*
X75331128Y-50617857D01*
X75210053Y-50540047D01*
X75210050Y-50540046D01*
X75071965Y-50499500D01*
X75071961Y-50499500D01*
X74928039Y-50499500D01*
X74928034Y-50499500D01*
X74789949Y-50540046D01*
X74789947Y-50540046D01*
X74789947Y-50540047D01*
X74752722Y-50563969D01*
X74668871Y-50617857D01*
X74574625Y-50726623D01*
X74574624Y-50726625D01*
X74574623Y-50726626D01*
X74574623Y-50726627D01*
X74562477Y-50753224D01*
X74544572Y-50792429D01*
X74517123Y-50817984D01*
X74479644Y-50816645D01*
X74455428Y-50792429D01*
X74444960Y-50769508D01*
X74425377Y-50726627D01*
X74331128Y-50617857D01*
X74210053Y-50540047D01*
X74210050Y-50540046D01*
X74071965Y-50499500D01*
X74071961Y-50499500D01*
X73928039Y-50499500D01*
X73928034Y-50499500D01*
X73789949Y-50540046D01*
X73789947Y-50540046D01*
X73789947Y-50540047D01*
X73752722Y-50563969D01*
X73668871Y-50617857D01*
X73574625Y-50726623D01*
X73574624Y-50726625D01*
X73574623Y-50726626D01*
X73574623Y-50726627D01*
X73562477Y-50753224D01*
X73544572Y-50792429D01*
X73517123Y-50817984D01*
X73479644Y-50816645D01*
X73455428Y-50792429D01*
X73444960Y-50769508D01*
X73425377Y-50726627D01*
X73331128Y-50617857D01*
X73210053Y-50540047D01*
X73210050Y-50540046D01*
X73071965Y-50499500D01*
X73071961Y-50499500D01*
X72928039Y-50499500D01*
X72928034Y-50499500D01*
X72789949Y-50540046D01*
X72789947Y-50540046D01*
X72789947Y-50540047D01*
X72752722Y-50563969D01*
X72668871Y-50617857D01*
X72574625Y-50726623D01*
X72574624Y-50726625D01*
X72574623Y-50726626D01*
X72574623Y-50726627D01*
X72562477Y-50753224D01*
X72544572Y-50792429D01*
X72517123Y-50817984D01*
X72479644Y-50816645D01*
X72455428Y-50792429D01*
X72444960Y-50769508D01*
X72425377Y-50726627D01*
X72331128Y-50617857D01*
X72210053Y-50540047D01*
X72210050Y-50540046D01*
X72071965Y-50499500D01*
X72071961Y-50499500D01*
X71928039Y-50499500D01*
X71928034Y-50499500D01*
X71789949Y-50540046D01*
X71789947Y-50540046D01*
X71789947Y-50540047D01*
X71752722Y-50563969D01*
X71668871Y-50617857D01*
X71574625Y-50726623D01*
X71574624Y-50726625D01*
X71514833Y-50857545D01*
X71494353Y-50999997D01*
X71300500Y-50999997D01*
X71300500Y-49500000D01*
X77344508Y-49500000D01*
X77364354Y-49625304D01*
X77364354Y-49625305D01*
X77364355Y-49625307D01*
X77364355Y-49625309D01*
X77421945Y-49738335D01*
X77421950Y-49738342D01*
X77511657Y-49828049D01*
X77511664Y-49828054D01*
X77624691Y-49885644D01*
X77624692Y-49885644D01*
X77624696Y-49885646D01*
X77750000Y-49905492D01*
X77750003Y-49905491D01*
X77753138Y-49905988D01*
X77780121Y-49919737D01*
X78035148Y-50174763D01*
X78049500Y-50209411D01*
X78049500Y-56879800D01*
X78091443Y-56981058D01*
X78091444Y-56981059D01*
X78091445Y-56981061D01*
X79093939Y-57983556D01*
X79093941Y-57983557D01*
X79093942Y-57983558D01*
X79195200Y-58025500D01*
X83688812Y-58025500D01*
X83723460Y-58039852D01*
X83761657Y-58078049D01*
X83761664Y-58078054D01*
X83874691Y-58135644D01*
X83874692Y-58135644D01*
X83874696Y-58135646D01*
X84000000Y-58155492D01*
X84125304Y-58135646D01*
X84125308Y-58135644D01*
X84125309Y-58135644D01*
X84238335Y-58078054D01*
X84238337Y-58078052D01*
X84238342Y-58078050D01*
X84328050Y-57988342D01*
X84330488Y-57983558D01*
X84385644Y-57875309D01*
X84385644Y-57875307D01*
X84385646Y-57875304D01*
X84405492Y-57750000D01*
X84385646Y-57624696D01*
X84385644Y-57624692D01*
X84385644Y-57624690D01*
X84328054Y-57511664D01*
X84328049Y-57511657D01*
X84238342Y-57421950D01*
X84238335Y-57421945D01*
X84125308Y-57364355D01*
X84125305Y-57364354D01*
X84125304Y-57364354D01*
X84000000Y-57344508D01*
X83874696Y-57364354D01*
X83874694Y-57364354D01*
X83874692Y-57364355D01*
X83874690Y-57364355D01*
X83761664Y-57421945D01*
X83761657Y-57421950D01*
X83723460Y-57460148D01*
X83688812Y-57474500D01*
X79384412Y-57474500D01*
X79349764Y-57460148D01*
X78614852Y-56725236D01*
X78600500Y-56690588D01*
X78600500Y-55927802D01*
X78614852Y-55893154D01*
X78649500Y-55878802D01*
X78671746Y-55884143D01*
X78674696Y-55885646D01*
X78800000Y-55905492D01*
X78800003Y-55905491D01*
X78803138Y-55905988D01*
X78830121Y-55919737D01*
X78943941Y-56033557D01*
X78958289Y-56039500D01*
X79045200Y-56075500D01*
X79275317Y-56075500D01*
X79309965Y-56089852D01*
X79324317Y-56124500D01*
X79318976Y-56146746D01*
X79284355Y-56214693D01*
X79284354Y-56214694D01*
X79284354Y-56214696D01*
X79264508Y-56340000D01*
X79284354Y-56465304D01*
X79284354Y-56465305D01*
X79284355Y-56465307D01*
X79284355Y-56465309D01*
X79341945Y-56578335D01*
X79341950Y-56578342D01*
X79431657Y-56668049D01*
X79431664Y-56668054D01*
X79544691Y-56725644D01*
X79544692Y-56725644D01*
X79544696Y-56725646D01*
X79670000Y-56745492D01*
X79795304Y-56725646D01*
X79795308Y-56725644D01*
X79795309Y-56725644D01*
X79908335Y-56668054D01*
X79908337Y-56668052D01*
X79908342Y-56668050D01*
X79998050Y-56578342D01*
X79998054Y-56578335D01*
X80055644Y-56465309D01*
X80055644Y-56465307D01*
X80055646Y-56465304D01*
X80075492Y-56340000D01*
X80055646Y-56214696D01*
X80021024Y-56146746D01*
X80018081Y-56109358D01*
X80042437Y-56080841D01*
X80064683Y-56075500D01*
X85251550Y-56075500D01*
X85251552Y-56075500D01*
X85352810Y-56033557D01*
X85430309Y-55956058D01*
X85430308Y-55956058D01*
X85708557Y-55677811D01*
X85726887Y-55633557D01*
X85750500Y-55576552D01*
X85750500Y-55299997D01*
X89494353Y-55299997D01*
X89494353Y-55300002D01*
X89514833Y-55442454D01*
X89529925Y-55475500D01*
X89574623Y-55573373D01*
X89574624Y-55573374D01*
X89574625Y-55573376D01*
X89619625Y-55625309D01*
X89668872Y-55682143D01*
X89789947Y-55759953D01*
X89866785Y-55782514D01*
X89928034Y-55800499D01*
X89928037Y-55800499D01*
X89928039Y-55800500D01*
X89928040Y-55800500D01*
X90071960Y-55800500D01*
X90071961Y-55800500D01*
X90071963Y-55800499D01*
X90071965Y-55800499D01*
X90094795Y-55793795D01*
X90210053Y-55759953D01*
X90331128Y-55682143D01*
X90425377Y-55573373D01*
X90485165Y-55442457D01*
X90485165Y-55442455D01*
X90485166Y-55442454D01*
X90505647Y-55300002D01*
X90505647Y-55299997D01*
X90485166Y-55157545D01*
X90475164Y-55135644D01*
X90425377Y-55026627D01*
X90396562Y-54993373D01*
X90331128Y-54917857D01*
X90312659Y-54905988D01*
X90210053Y-54840047D01*
X90210050Y-54840046D01*
X90071965Y-54799500D01*
X90071961Y-54799500D01*
X89928039Y-54799500D01*
X89928034Y-54799500D01*
X89789949Y-54840046D01*
X89789947Y-54840046D01*
X89789947Y-54840047D01*
X89765033Y-54856058D01*
X89668871Y-54917857D01*
X89574625Y-55026623D01*
X89574624Y-55026625D01*
X89514833Y-55157545D01*
X89494353Y-55299997D01*
X85750500Y-55299997D01*
X85750500Y-55259410D01*
X85764851Y-55224763D01*
X86349773Y-54639840D01*
X86384420Y-54625489D01*
X86419068Y-54639841D01*
X86428079Y-54652243D01*
X86471946Y-54738337D01*
X86471950Y-54738342D01*
X86561657Y-54828049D01*
X86561664Y-54828054D01*
X86674691Y-54885644D01*
X86674692Y-54885644D01*
X86674696Y-54885646D01*
X86800000Y-54905492D01*
X86925304Y-54885646D01*
X86925308Y-54885644D01*
X86925309Y-54885644D01*
X87038335Y-54828054D01*
X87038337Y-54828052D01*
X87038342Y-54828050D01*
X87076540Y-54789852D01*
X87111188Y-54775500D01*
X88325768Y-54775500D01*
X88325770Y-54775500D01*
X88427028Y-54733557D01*
X88504527Y-54656058D01*
X88504526Y-54656058D01*
X89455363Y-53705221D01*
X89482344Y-53691474D01*
X89485483Y-53690976D01*
X89485485Y-53690977D01*
X89610789Y-53671131D01*
X89610793Y-53671129D01*
X89610794Y-53671129D01*
X89723820Y-53613539D01*
X89723822Y-53613537D01*
X89723827Y-53613535D01*
X89813535Y-53523827D01*
X89813539Y-53523820D01*
X89871129Y-53410794D01*
X89871129Y-53410792D01*
X89871131Y-53410789D01*
X89890977Y-53285485D01*
X89871131Y-53160181D01*
X89871129Y-53160177D01*
X89871129Y-53160175D01*
X89813539Y-53047149D01*
X89813534Y-53047142D01*
X89723827Y-52957435D01*
X89723820Y-52957430D01*
X89610793Y-52899840D01*
X89610790Y-52899839D01*
X89610789Y-52899839D01*
X89485485Y-52879993D01*
X89360181Y-52899839D01*
X89360179Y-52899839D01*
X89360177Y-52899840D01*
X89360175Y-52899840D01*
X89247149Y-52957430D01*
X89247142Y-52957435D01*
X89157435Y-53047142D01*
X89157430Y-53047149D01*
X89099840Y-53160175D01*
X89099840Y-53160177D01*
X89099839Y-53160179D01*
X89099839Y-53160181D01*
X89081911Y-53273373D01*
X89079496Y-53288623D01*
X89065747Y-53315605D01*
X88171207Y-54210148D01*
X88136559Y-54224500D01*
X87560188Y-54224500D01*
X87525540Y-54210148D01*
X87511188Y-54175500D01*
X87525540Y-54140852D01*
X87528050Y-54138342D01*
X87528054Y-54138335D01*
X87585644Y-54025309D01*
X87585644Y-54025307D01*
X87585646Y-54025304D01*
X87605492Y-53900000D01*
X87585646Y-53774696D01*
X87585644Y-53774692D01*
X87585644Y-53774690D01*
X87528054Y-53661664D01*
X87528049Y-53661657D01*
X87438342Y-53571950D01*
X87438335Y-53571945D01*
X87325308Y-53514355D01*
X87325305Y-53514354D01*
X87325304Y-53514354D01*
X87200000Y-53494508D01*
X87074696Y-53514354D01*
X87074694Y-53514354D01*
X87074692Y-53514355D01*
X87074690Y-53514355D01*
X86961664Y-53571945D01*
X86961657Y-53571950D01*
X86923460Y-53610148D01*
X86888812Y-53624500D01*
X86754800Y-53624500D01*
X86645200Y-53624500D01*
X86645198Y-53624500D01*
X86645196Y-53624501D01*
X86543941Y-53666442D01*
X86543939Y-53666443D01*
X85318942Y-54891443D01*
X85247015Y-54963369D01*
X85212367Y-54977721D01*
X85190122Y-54972380D01*
X85125306Y-54939355D01*
X85125305Y-54939354D01*
X85125304Y-54939354D01*
X85000000Y-54919508D01*
X84874696Y-54939354D01*
X84874694Y-54939354D01*
X84874692Y-54939355D01*
X84874690Y-54939355D01*
X84761664Y-54996945D01*
X84761657Y-54996950D01*
X84671953Y-55086654D01*
X84671951Y-55086656D01*
X84671950Y-55086658D01*
X84667984Y-55094442D01*
X84666300Y-55097747D01*
X84637781Y-55122102D01*
X84622641Y-55124500D01*
X82234412Y-55124500D01*
X82199764Y-55110148D01*
X82148764Y-55059148D01*
X82134412Y-55024500D01*
X82148764Y-54989852D01*
X82183412Y-54975500D01*
X82454798Y-54975500D01*
X82454800Y-54975500D01*
X82556058Y-54933557D01*
X82633557Y-54856058D01*
X82633556Y-54856058D01*
X82769877Y-54719737D01*
X82796859Y-54705989D01*
X82799998Y-54705491D01*
X82800000Y-54705492D01*
X82925304Y-54685646D01*
X82925308Y-54685644D01*
X82925309Y-54685644D01*
X83038335Y-54628054D01*
X83038337Y-54628052D01*
X83038342Y-54628050D01*
X83128050Y-54538342D01*
X83128054Y-54538335D01*
X83185644Y-54425309D01*
X83185644Y-54425307D01*
X83185646Y-54425304D01*
X83205492Y-54300000D01*
X83185646Y-54174696D01*
X83185644Y-54174692D01*
X83185644Y-54174690D01*
X83128054Y-54061664D01*
X83128049Y-54061657D01*
X83038342Y-53971950D01*
X83038335Y-53971945D01*
X82925308Y-53914355D01*
X82925305Y-53914354D01*
X82925304Y-53914354D01*
X82800000Y-53894508D01*
X82674696Y-53914354D01*
X82674694Y-53914354D01*
X82674692Y-53914355D01*
X82674690Y-53914355D01*
X82561664Y-53971945D01*
X82561657Y-53971950D01*
X82471950Y-54061657D01*
X82471945Y-54061664D01*
X82414355Y-54174690D01*
X82414355Y-54174692D01*
X82414354Y-54174694D01*
X82414354Y-54174696D01*
X82395829Y-54291658D01*
X82394011Y-54303138D01*
X82380263Y-54330120D01*
X82300237Y-54410148D01*
X82265589Y-54424500D01*
X80734412Y-54424500D01*
X80699764Y-54410148D01*
X80389852Y-54100236D01*
X80375500Y-54065588D01*
X80375500Y-51175000D01*
X88694508Y-51175000D01*
X88714354Y-51300304D01*
X88714354Y-51300305D01*
X88714355Y-51300307D01*
X88714355Y-51300309D01*
X88771945Y-51413335D01*
X88771950Y-51413342D01*
X88861657Y-51503049D01*
X88861664Y-51503054D01*
X88974691Y-51560644D01*
X88974692Y-51560644D01*
X88974696Y-51560646D01*
X89100000Y-51580492D01*
X89225304Y-51560646D01*
X89338342Y-51503050D01*
X89367250Y-51474141D01*
X89401897Y-51459790D01*
X89436546Y-51474141D01*
X89445557Y-51486545D01*
X89471945Y-51538335D01*
X89471950Y-51538342D01*
X89561657Y-51628049D01*
X89561664Y-51628054D01*
X89674691Y-51685644D01*
X89674692Y-51685644D01*
X89674696Y-51685646D01*
X89800000Y-51705492D01*
X89925304Y-51685646D01*
X89927141Y-51684709D01*
X89928519Y-51684601D01*
X89928976Y-51684453D01*
X89929011Y-51684562D01*
X89964527Y-51681764D01*
X89993047Y-51706117D01*
X89997786Y-51720701D01*
X90014354Y-51825304D01*
X90014354Y-51825305D01*
X90014355Y-51825307D01*
X90014355Y-51825309D01*
X90071945Y-51938335D01*
X90071950Y-51938342D01*
X90161657Y-52028049D01*
X90161664Y-52028054D01*
X90274691Y-52085644D01*
X90274692Y-52085644D01*
X90274696Y-52085646D01*
X90400000Y-52105492D01*
X90525304Y-52085646D01*
X90525308Y-52085644D01*
X90525309Y-52085644D01*
X90638335Y-52028054D01*
X90638337Y-52028052D01*
X90638342Y-52028050D01*
X90728050Y-51938342D01*
X90731790Y-51931002D01*
X90785644Y-51825309D01*
X90785644Y-51825307D01*
X90785646Y-51825304D01*
X90805492Y-51700000D01*
X90785646Y-51574696D01*
X90785644Y-51574692D01*
X90785644Y-51574690D01*
X90728054Y-51461664D01*
X90728049Y-51461657D01*
X90638342Y-51371950D01*
X90638335Y-51371945D01*
X90525308Y-51314355D01*
X90525305Y-51314354D01*
X90525304Y-51314354D01*
X90400000Y-51294508D01*
X90274696Y-51314354D01*
X90274694Y-51314354D01*
X90274693Y-51314355D01*
X90272846Y-51315296D01*
X90271462Y-51315404D01*
X90271027Y-51315546D01*
X90270993Y-51315441D01*
X90235458Y-51318231D01*
X90206945Y-51293869D01*
X90202213Y-51279303D01*
X90185646Y-51174696D01*
X90185644Y-51174692D01*
X90185644Y-51174690D01*
X90128054Y-51061664D01*
X90128049Y-51061657D01*
X90038342Y-50971950D01*
X90038335Y-50971945D01*
X89925308Y-50914355D01*
X89925305Y-50914354D01*
X89925304Y-50914354D01*
X89800000Y-50894508D01*
X89674696Y-50914354D01*
X89674694Y-50914354D01*
X89674692Y-50914355D01*
X89674690Y-50914355D01*
X89561664Y-50971945D01*
X89561660Y-50971948D01*
X89532749Y-51000859D01*
X89498100Y-51015210D01*
X89463452Y-51000858D01*
X89454443Y-50988458D01*
X89428050Y-50936658D01*
X89338342Y-50846950D01*
X89338335Y-50846945D01*
X89225308Y-50789355D01*
X89225305Y-50789354D01*
X89225304Y-50789354D01*
X89100000Y-50769508D01*
X88974696Y-50789354D01*
X88974694Y-50789354D01*
X88974692Y-50789355D01*
X88974690Y-50789355D01*
X88861664Y-50846945D01*
X88861657Y-50846950D01*
X88771950Y-50936657D01*
X88771945Y-50936664D01*
X88714355Y-51049690D01*
X88714355Y-51049692D01*
X88714354Y-51049694D01*
X88714354Y-51049696D01*
X88694508Y-51175000D01*
X80375500Y-51175000D01*
X80375500Y-49869778D01*
X80389852Y-49835130D01*
X80424500Y-49820778D01*
X80446746Y-49826119D01*
X80504696Y-49855646D01*
X80630000Y-49875492D01*
X80755304Y-49855646D01*
X80755308Y-49855644D01*
X80755309Y-49855644D01*
X80868335Y-49798054D01*
X80868337Y-49798052D01*
X80868342Y-49798050D01*
X80958050Y-49708342D01*
X80965099Y-49694508D01*
X81015644Y-49595309D01*
X81015644Y-49595307D01*
X81015646Y-49595304D01*
X81035492Y-49470000D01*
X81015646Y-49344696D01*
X81015644Y-49344692D01*
X81015644Y-49344690D01*
X80958054Y-49231664D01*
X80958049Y-49231657D01*
X80868342Y-49141950D01*
X80868335Y-49141945D01*
X80755308Y-49084355D01*
X80755305Y-49084354D01*
X80755304Y-49084354D01*
X80630000Y-49064508D01*
X80504694Y-49084354D01*
X80446745Y-49113881D01*
X80409358Y-49116823D01*
X80380840Y-49092466D01*
X80375500Y-49070221D01*
X80375500Y-48845202D01*
X80375499Y-48845198D01*
X80368395Y-48828049D01*
X80345841Y-48773599D01*
X80333557Y-48743941D01*
X80272410Y-48682794D01*
X80258058Y-48648146D01*
X80272410Y-48613498D01*
X80299393Y-48599749D01*
X80325304Y-48595646D01*
X80386387Y-48564522D01*
X80438335Y-48538054D01*
X80438337Y-48538052D01*
X80438342Y-48538050D01*
X80528050Y-48448342D01*
X80528054Y-48448335D01*
X80585644Y-48335309D01*
X80585644Y-48335307D01*
X80585646Y-48335304D01*
X80605492Y-48210000D01*
X80585646Y-48084696D01*
X80585644Y-48084692D01*
X80585644Y-48084690D01*
X80528054Y-47971664D01*
X80528049Y-47971657D01*
X80438342Y-47881950D01*
X80438335Y-47881945D01*
X80325308Y-47824355D01*
X80325305Y-47824354D01*
X80325304Y-47824354D01*
X80200000Y-47804508D01*
X80074696Y-47824354D01*
X80074694Y-47824354D01*
X80074692Y-47824355D01*
X80074690Y-47824355D01*
X79961664Y-47881945D01*
X79961657Y-47881950D01*
X79871950Y-47971657D01*
X79871945Y-47971664D01*
X79814355Y-48084690D01*
X79814355Y-48084692D01*
X79814354Y-48084694D01*
X79814354Y-48084696D01*
X79809071Y-48118054D01*
X79798758Y-48183166D01*
X79779162Y-48215142D01*
X79750361Y-48224500D01*
X79633523Y-48224500D01*
X79598875Y-48210148D01*
X79584523Y-48175500D01*
X79598875Y-48140852D01*
X79611278Y-48131841D01*
X79638335Y-48118054D01*
X79638337Y-48118052D01*
X79638342Y-48118050D01*
X79728050Y-48028342D01*
X79742492Y-47999999D01*
X79785644Y-47915309D01*
X79785644Y-47915307D01*
X79785646Y-47915304D01*
X79805492Y-47790000D01*
X79785646Y-47664696D01*
X79785644Y-47664692D01*
X79785644Y-47664690D01*
X79728054Y-47551664D01*
X79728049Y-47551657D01*
X79638342Y-47461950D01*
X79638335Y-47461945D01*
X79525308Y-47404355D01*
X79525305Y-47404354D01*
X79525304Y-47404354D01*
X79400000Y-47384508D01*
X79274696Y-47404354D01*
X79274694Y-47404354D01*
X79274692Y-47404355D01*
X79274690Y-47404355D01*
X79161664Y-47461945D01*
X79161657Y-47461950D01*
X79071950Y-47551657D01*
X79071945Y-47551664D01*
X79014355Y-47664690D01*
X79014355Y-47664692D01*
X79014354Y-47664694D01*
X79014354Y-47664696D01*
X78994508Y-47790000D01*
X79014354Y-47915304D01*
X79014354Y-47915305D01*
X79014355Y-47915307D01*
X79014355Y-47915309D01*
X79071278Y-48027026D01*
X79074221Y-48064413D01*
X79049864Y-48092930D01*
X79019955Y-48097668D01*
X79000000Y-48094508D01*
X78874696Y-48114354D01*
X78874694Y-48114354D01*
X78874692Y-48114355D01*
X78874690Y-48114355D01*
X78761664Y-48171945D01*
X78761657Y-48171950D01*
X78671950Y-48261657D01*
X78671945Y-48261664D01*
X78614355Y-48374690D01*
X78614355Y-48374692D01*
X78614354Y-48374694D01*
X78614354Y-48374696D01*
X78594508Y-48500000D01*
X78614354Y-48625304D01*
X78614354Y-48625305D01*
X78614355Y-48625307D01*
X78614355Y-48625309D01*
X78671945Y-48738335D01*
X78671950Y-48738342D01*
X78761657Y-48828049D01*
X78761664Y-48828054D01*
X78874695Y-48885646D01*
X78886123Y-48887456D01*
X78918100Y-48907051D01*
X78926855Y-48943518D01*
X78913107Y-48970500D01*
X78901951Y-48981656D01*
X78901945Y-48981664D01*
X78844355Y-49094690D01*
X78844355Y-49094692D01*
X78844354Y-49094694D01*
X78844354Y-49094696D01*
X78824508Y-49220000D01*
X78844354Y-49345304D01*
X78844354Y-49345305D01*
X78844355Y-49345307D01*
X78844355Y-49345309D01*
X78901945Y-49458335D01*
X78901950Y-49458342D01*
X78929001Y-49485393D01*
X78943353Y-49520041D01*
X78933995Y-49548842D01*
X78931948Y-49551659D01*
X78874355Y-49664690D01*
X78874355Y-49664692D01*
X78874354Y-49664694D01*
X78874354Y-49664696D01*
X78854508Y-49790000D01*
X78874354Y-49915304D01*
X78874354Y-49915305D01*
X78874355Y-49915307D01*
X78874355Y-49915309D01*
X78931945Y-50028335D01*
X78931950Y-50028342D01*
X79021657Y-50118049D01*
X79021664Y-50118054D01*
X79134691Y-50175644D01*
X79134692Y-50175644D01*
X79134696Y-50175646D01*
X79260000Y-50195492D01*
X79385304Y-50175646D01*
X79385308Y-50175644D01*
X79385309Y-50175644D01*
X79498335Y-50118054D01*
X79498337Y-50118052D01*
X79498342Y-50118050D01*
X79588050Y-50028342D01*
X79588054Y-50028335D01*
X79645644Y-49915309D01*
X79645644Y-49915307D01*
X79645646Y-49915304D01*
X79665492Y-49790000D01*
X79645646Y-49664696D01*
X79645644Y-49664692D01*
X79645644Y-49664690D01*
X79588054Y-49551664D01*
X79588050Y-49551659D01*
X79588050Y-49551658D01*
X79560998Y-49524606D01*
X79546646Y-49489958D01*
X79556010Y-49461149D01*
X79558047Y-49458344D01*
X79558050Y-49458342D01*
X79558054Y-49458335D01*
X79615644Y-49345309D01*
X79615644Y-49345307D01*
X79615646Y-49345304D01*
X79635492Y-49220000D01*
X79615646Y-49094696D01*
X79615644Y-49094692D01*
X79615644Y-49094690D01*
X79558054Y-48981664D01*
X79558049Y-48981657D01*
X79468342Y-48891950D01*
X79468337Y-48891946D01*
X79421651Y-48868159D01*
X79397295Y-48839642D01*
X79400238Y-48802254D01*
X79428755Y-48777898D01*
X79443897Y-48775500D01*
X79565589Y-48775500D01*
X79600237Y-48789852D01*
X79810148Y-48999763D01*
X79824500Y-49034411D01*
X79824500Y-53419812D01*
X79810148Y-53454460D01*
X79775500Y-53468812D01*
X79740852Y-53454460D01*
X79738342Y-53451950D01*
X79738335Y-53451945D01*
X79625308Y-53394355D01*
X79625305Y-53394354D01*
X79625304Y-53394354D01*
X79500000Y-53374508D01*
X79374696Y-53394354D01*
X79374694Y-53394354D01*
X79374692Y-53394355D01*
X79374690Y-53394355D01*
X79261664Y-53451945D01*
X79261657Y-53451950D01*
X79171950Y-53541657D01*
X79171945Y-53541664D01*
X79114355Y-53654690D01*
X79114355Y-53654692D01*
X79114354Y-53654694D01*
X79114354Y-53654696D01*
X79094508Y-53780000D01*
X79114354Y-53905304D01*
X79114354Y-53905305D01*
X79114355Y-53905307D01*
X79114355Y-53905309D01*
X79171945Y-54018335D01*
X79171950Y-54018342D01*
X79261657Y-54108049D01*
X79261664Y-54108054D01*
X79374691Y-54165644D01*
X79374692Y-54165644D01*
X79374696Y-54165646D01*
X79386124Y-54167456D01*
X79418100Y-54187050D01*
X79426856Y-54223516D01*
X79413108Y-54250500D01*
X79371946Y-54291662D01*
X79351301Y-54332181D01*
X79322783Y-54356537D01*
X79285396Y-54353594D01*
X79263983Y-54332181D01*
X79228050Y-54261658D01*
X79138342Y-54171950D01*
X79138335Y-54171945D01*
X79025308Y-54114355D01*
X79025305Y-54114354D01*
X79025304Y-54114354D01*
X78900000Y-54094508D01*
X78774696Y-54114354D01*
X78774694Y-54114354D01*
X78774692Y-54114355D01*
X78774690Y-54114355D01*
X78671745Y-54166809D01*
X78634358Y-54169752D01*
X78605841Y-54145395D01*
X78600500Y-54123150D01*
X78600500Y-50020199D01*
X78590326Y-49995637D01*
X78569555Y-49945491D01*
X78558558Y-49918942D01*
X78558557Y-49918941D01*
X78558556Y-49918939D01*
X78169737Y-49530121D01*
X78155988Y-49503138D01*
X78155491Y-49500003D01*
X78155492Y-49500000D01*
X78135646Y-49374696D01*
X78135644Y-49374692D01*
X78135644Y-49374690D01*
X78078054Y-49261664D01*
X78078049Y-49261657D01*
X77988342Y-49171950D01*
X77988335Y-49171945D01*
X77875308Y-49114355D01*
X77875305Y-49114354D01*
X77875304Y-49114354D01*
X77750000Y-49094508D01*
X77624696Y-49114354D01*
X77624694Y-49114354D01*
X77624692Y-49114355D01*
X77624690Y-49114355D01*
X77511664Y-49171945D01*
X77511657Y-49171950D01*
X77421950Y-49261657D01*
X77421945Y-49261664D01*
X77364355Y-49374690D01*
X77364355Y-49374692D01*
X77364354Y-49374694D01*
X77364354Y-49374696D01*
X77344508Y-49500000D01*
X71300500Y-49500000D01*
X71300500Y-45002406D01*
X71300618Y-44999997D01*
X71494353Y-44999997D01*
X71494353Y-45000002D01*
X71514833Y-45142454D01*
X71533512Y-45183354D01*
X71574623Y-45273373D01*
X71574624Y-45273374D01*
X71574625Y-45273376D01*
X71625376Y-45331946D01*
X71668872Y-45382143D01*
X71730359Y-45421658D01*
X71788119Y-45458778D01*
X71809508Y-45489584D01*
X71802850Y-45526491D01*
X71788119Y-45541222D01*
X71668871Y-45617857D01*
X71574625Y-45726623D01*
X71574624Y-45726625D01*
X71514833Y-45857545D01*
X71494353Y-45999997D01*
X71494353Y-46000002D01*
X71514833Y-46142454D01*
X71533512Y-46183354D01*
X71574623Y-46273373D01*
X71574624Y-46273374D01*
X71574625Y-46273376D01*
X71668871Y-46382142D01*
X71668872Y-46382143D01*
X71773293Y-46449250D01*
X71788119Y-46458778D01*
X71809508Y-46489584D01*
X71802850Y-46526491D01*
X71788119Y-46541222D01*
X71668871Y-46617857D01*
X71574625Y-46726623D01*
X71574624Y-46726625D01*
X71514833Y-46857545D01*
X71494353Y-46999997D01*
X71494353Y-47000002D01*
X71514833Y-47142454D01*
X71533512Y-47183354D01*
X71574623Y-47273373D01*
X71574624Y-47273374D01*
X71574625Y-47273376D01*
X71640587Y-47349500D01*
X71668872Y-47382143D01*
X71789947Y-47459953D01*
X71866785Y-47482514D01*
X71928034Y-47500499D01*
X71928037Y-47500499D01*
X71928039Y-47500500D01*
X71928040Y-47500500D01*
X72071960Y-47500500D01*
X72071961Y-47500500D01*
X72071963Y-47500499D01*
X72071965Y-47500499D01*
X72094795Y-47493795D01*
X72210053Y-47459953D01*
X72331128Y-47382143D01*
X72425377Y-47273373D01*
X72455428Y-47207569D01*
X72482876Y-47182015D01*
X72520356Y-47183354D01*
X72544570Y-47207568D01*
X72574623Y-47273373D01*
X72574624Y-47273374D01*
X72574625Y-47273376D01*
X72640587Y-47349500D01*
X72668872Y-47382143D01*
X72789947Y-47459953D01*
X72866785Y-47482514D01*
X72928034Y-47500499D01*
X72928037Y-47500499D01*
X72928039Y-47500500D01*
X72928040Y-47500500D01*
X73071960Y-47500500D01*
X73071961Y-47500500D01*
X73071963Y-47500499D01*
X73071965Y-47500499D01*
X73094795Y-47493795D01*
X73210053Y-47459953D01*
X73331128Y-47382143D01*
X73425377Y-47273373D01*
X73455428Y-47207569D01*
X73482876Y-47182015D01*
X73520356Y-47183354D01*
X73544570Y-47207568D01*
X73574623Y-47273373D01*
X73574624Y-47273374D01*
X73574625Y-47273376D01*
X73640587Y-47349500D01*
X73668872Y-47382143D01*
X73789947Y-47459953D01*
X73866785Y-47482514D01*
X73928034Y-47500499D01*
X73928037Y-47500499D01*
X73928039Y-47500500D01*
X73928040Y-47500500D01*
X74071960Y-47500500D01*
X74071961Y-47500500D01*
X74071963Y-47500499D01*
X74071965Y-47500499D01*
X74094795Y-47493795D01*
X74210053Y-47459953D01*
X74331128Y-47382143D01*
X74425377Y-47273373D01*
X74455428Y-47207569D01*
X74482876Y-47182015D01*
X74520356Y-47183354D01*
X74544570Y-47207568D01*
X74574623Y-47273373D01*
X74574624Y-47273374D01*
X74574625Y-47273376D01*
X74640587Y-47349500D01*
X74668872Y-47382143D01*
X74789947Y-47459953D01*
X74866785Y-47482514D01*
X74928034Y-47500499D01*
X74928037Y-47500499D01*
X74928039Y-47500500D01*
X74928040Y-47500500D01*
X75071960Y-47500500D01*
X75071961Y-47500500D01*
X75071963Y-47500499D01*
X75071965Y-47500499D01*
X75094795Y-47493795D01*
X75210053Y-47459953D01*
X75331128Y-47382143D01*
X75425377Y-47273373D01*
X75455428Y-47207569D01*
X75482876Y-47182015D01*
X75520356Y-47183354D01*
X75544570Y-47207568D01*
X75574623Y-47273373D01*
X75574624Y-47273374D01*
X75574625Y-47273376D01*
X75640587Y-47349500D01*
X75668872Y-47382143D01*
X75789947Y-47459953D01*
X75866785Y-47482514D01*
X75928034Y-47500499D01*
X75928037Y-47500499D01*
X75928039Y-47500500D01*
X75928040Y-47500500D01*
X76037464Y-47500500D01*
X76072112Y-47514852D01*
X76086464Y-47549500D01*
X76082734Y-47568249D01*
X76078175Y-47579257D01*
X76069500Y-47600198D01*
X76069500Y-48087862D01*
X76055148Y-48122510D01*
X76016950Y-48160707D01*
X76016945Y-48160714D01*
X75959355Y-48273740D01*
X75959355Y-48273742D01*
X75959354Y-48273744D01*
X75959354Y-48273746D01*
X75939508Y-48399050D01*
X75959354Y-48524354D01*
X75959354Y-48524355D01*
X75959355Y-48524357D01*
X75959355Y-48524359D01*
X76016945Y-48637385D01*
X76016950Y-48637392D01*
X76106657Y-48727099D01*
X76106664Y-48727104D01*
X76219691Y-48784694D01*
X76219692Y-48784694D01*
X76219696Y-48784696D01*
X76345000Y-48804542D01*
X76470304Y-48784696D01*
X76470308Y-48784694D01*
X76470309Y-48784694D01*
X76583335Y-48727104D01*
X76583337Y-48727102D01*
X76583342Y-48727100D01*
X76673050Y-48637392D01*
X76679208Y-48625307D01*
X76730644Y-48524359D01*
X76730644Y-48524357D01*
X76730646Y-48524354D01*
X76750492Y-48399050D01*
X76730646Y-48273746D01*
X76730644Y-48273742D01*
X76730644Y-48273740D01*
X76673054Y-48160714D01*
X76673049Y-48160707D01*
X76634852Y-48122510D01*
X76620500Y-48087862D01*
X76620500Y-47789411D01*
X76634852Y-47754763D01*
X77926013Y-46463602D01*
X77960661Y-46449250D01*
X81523448Y-46449250D01*
X81558096Y-46463602D01*
X81572448Y-46498250D01*
X81567107Y-46520496D01*
X81565605Y-46523443D01*
X81565604Y-46523444D01*
X81565604Y-46523446D01*
X81545758Y-46648750D01*
X81565604Y-46774054D01*
X81565604Y-46774055D01*
X81565605Y-46774057D01*
X81565605Y-46774059D01*
X81623195Y-46887085D01*
X81623200Y-46887092D01*
X81712908Y-46976800D01*
X81757745Y-46999646D01*
X81782102Y-47028163D01*
X81784500Y-47043305D01*
X81784500Y-50188812D01*
X81770148Y-50223460D01*
X81731950Y-50261657D01*
X81731945Y-50261664D01*
X81674355Y-50374690D01*
X81674355Y-50374692D01*
X81674354Y-50374694D01*
X81674354Y-50374696D01*
X81654508Y-50500000D01*
X81674354Y-50625304D01*
X81674354Y-50625305D01*
X81674355Y-50625307D01*
X81674355Y-50625309D01*
X81731945Y-50738335D01*
X81731950Y-50738342D01*
X81821657Y-50828049D01*
X81821664Y-50828054D01*
X81934691Y-50885644D01*
X81934692Y-50885644D01*
X81934696Y-50885646D01*
X82060000Y-50905492D01*
X82185304Y-50885646D01*
X82185308Y-50885644D01*
X82185309Y-50885644D01*
X82298335Y-50828054D01*
X82298337Y-50828052D01*
X82298342Y-50828050D01*
X82388050Y-50738342D01*
X82392878Y-50728867D01*
X82445644Y-50625309D01*
X82445644Y-50625307D01*
X82445646Y-50625304D01*
X82465492Y-50500000D01*
X82445646Y-50374696D01*
X82445644Y-50374692D01*
X82445644Y-50374690D01*
X82402188Y-50289403D01*
X82399245Y-50252016D01*
X82423602Y-50223499D01*
X82459651Y-50220143D01*
X82489431Y-50228887D01*
X82563034Y-50250499D01*
X82563037Y-50250499D01*
X82563039Y-50250500D01*
X82563040Y-50250500D01*
X82706960Y-50250500D01*
X82706961Y-50250500D01*
X82706963Y-50250499D01*
X82706965Y-50250499D01*
X82730944Y-50243458D01*
X82845053Y-50209953D01*
X82966128Y-50132143D01*
X82993980Y-50100000D01*
X87194508Y-50100000D01*
X87214354Y-50225304D01*
X87214354Y-50225305D01*
X87214355Y-50225307D01*
X87214355Y-50225309D01*
X87271945Y-50338335D01*
X87271950Y-50338342D01*
X87361657Y-50428049D01*
X87361664Y-50428054D01*
X87474691Y-50485644D01*
X87474692Y-50485644D01*
X87474696Y-50485646D01*
X87600000Y-50505492D01*
X87725304Y-50485646D01*
X87725308Y-50485644D01*
X87725309Y-50485644D01*
X87838335Y-50428054D01*
X87838337Y-50428052D01*
X87838342Y-50428050D01*
X87928050Y-50338342D01*
X87928054Y-50338335D01*
X87985644Y-50225309D01*
X87985644Y-50225307D01*
X87985646Y-50225304D01*
X88005492Y-50100000D01*
X87985646Y-49974696D01*
X87985644Y-49974692D01*
X87985644Y-49974690D01*
X87928054Y-49861664D01*
X87928049Y-49861657D01*
X87838342Y-49771950D01*
X87838335Y-49771945D01*
X87725308Y-49714355D01*
X87725305Y-49714354D01*
X87725304Y-49714354D01*
X87600000Y-49694508D01*
X87474696Y-49714354D01*
X87474694Y-49714354D01*
X87474692Y-49714355D01*
X87474690Y-49714355D01*
X87361664Y-49771945D01*
X87361657Y-49771950D01*
X87271950Y-49861657D01*
X87271945Y-49861664D01*
X87214355Y-49974690D01*
X87214355Y-49974692D01*
X87214354Y-49974694D01*
X87214354Y-49974696D01*
X87194508Y-50100000D01*
X82993980Y-50100000D01*
X83060377Y-50023373D01*
X83120165Y-49892457D01*
X83120165Y-49892455D01*
X83120166Y-49892454D01*
X83140647Y-49750002D01*
X83140647Y-49749997D01*
X83120166Y-49607545D01*
X83106006Y-49576540D01*
X83089319Y-49540000D01*
X84534508Y-49540000D01*
X84554354Y-49665304D01*
X84554354Y-49665305D01*
X84554355Y-49665307D01*
X84554355Y-49665309D01*
X84611945Y-49778335D01*
X84611950Y-49778342D01*
X84701657Y-49868049D01*
X84701664Y-49868054D01*
X84814691Y-49925644D01*
X84814692Y-49925644D01*
X84814696Y-49925646D01*
X84940000Y-49945492D01*
X85065304Y-49925646D01*
X85065308Y-49925644D01*
X85065309Y-49925644D01*
X85178335Y-49868054D01*
X85178337Y-49868052D01*
X85178342Y-49868050D01*
X85268050Y-49778342D01*
X85271307Y-49771950D01*
X85325644Y-49665309D01*
X85325644Y-49665307D01*
X85325646Y-49665304D01*
X85345492Y-49540000D01*
X85329964Y-49441962D01*
X85338719Y-49405498D01*
X85370696Y-49385902D01*
X85386021Y-49385902D01*
X85415000Y-49390492D01*
X85540304Y-49370646D01*
X85540308Y-49370644D01*
X85540309Y-49370644D01*
X85653335Y-49313054D01*
X85653337Y-49313052D01*
X85653342Y-49313050D01*
X85743050Y-49223342D01*
X85748855Y-49211950D01*
X85800644Y-49110309D01*
X85800644Y-49110307D01*
X85800646Y-49110304D01*
X85820492Y-48985000D01*
X85800646Y-48859696D01*
X85800644Y-48859692D01*
X85800644Y-48859690D01*
X85743054Y-48746664D01*
X85743049Y-48746657D01*
X85653342Y-48656950D01*
X85653335Y-48656945D01*
X85540308Y-48599355D01*
X85540305Y-48599354D01*
X85540304Y-48599354D01*
X85415000Y-48579508D01*
X85289696Y-48599354D01*
X85289694Y-48599354D01*
X85289692Y-48599355D01*
X85289690Y-48599355D01*
X85176664Y-48656945D01*
X85176657Y-48656950D01*
X85086950Y-48746657D01*
X85086945Y-48746664D01*
X85029355Y-48859690D01*
X85029355Y-48859692D01*
X85029354Y-48859694D01*
X85029354Y-48859696D01*
X85022575Y-48902499D01*
X85009508Y-48985000D01*
X85025035Y-49083035D01*
X85016280Y-49119502D01*
X84984303Y-49139097D01*
X84968974Y-49139097D01*
X84940000Y-49134508D01*
X84814696Y-49154354D01*
X84814694Y-49154354D01*
X84814692Y-49154355D01*
X84814690Y-49154355D01*
X84701664Y-49211945D01*
X84701657Y-49211950D01*
X84611950Y-49301657D01*
X84611945Y-49301664D01*
X84554355Y-49414690D01*
X84554355Y-49414692D01*
X84554354Y-49414694D01*
X84554354Y-49414696D01*
X84534508Y-49540000D01*
X83089319Y-49540000D01*
X83060377Y-49476627D01*
X83046965Y-49461149D01*
X82966128Y-49367857D01*
X82934498Y-49347530D01*
X82845053Y-49290047D01*
X82845050Y-49290046D01*
X82706965Y-49249500D01*
X82706961Y-49249500D01*
X82563039Y-49249500D01*
X82563034Y-49249500D01*
X82424946Y-49290046D01*
X82410990Y-49299016D01*
X82374083Y-49305674D01*
X82343278Y-49284284D01*
X82335500Y-49257794D01*
X82335500Y-48299997D01*
X86394353Y-48299997D01*
X86394353Y-48300002D01*
X86414833Y-48442454D01*
X86420510Y-48454884D01*
X86474623Y-48573373D01*
X86474624Y-48573374D01*
X86474625Y-48573376D01*
X86541453Y-48650500D01*
X86568872Y-48682143D01*
X86689947Y-48759953D01*
X86736422Y-48773599D01*
X86828034Y-48800499D01*
X86828037Y-48800499D01*
X86828039Y-48800500D01*
X86828040Y-48800500D01*
X86971960Y-48800500D01*
X86971961Y-48800500D01*
X86971963Y-48800499D01*
X86971965Y-48800499D01*
X87008225Y-48789852D01*
X87110053Y-48759953D01*
X87231128Y-48682143D01*
X87325377Y-48573373D01*
X87385165Y-48442457D01*
X87385165Y-48442455D01*
X87385166Y-48442454D01*
X87405647Y-48300002D01*
X87405647Y-48299997D01*
X87385166Y-48157545D01*
X87365441Y-48114354D01*
X87325377Y-48026627D01*
X87302305Y-48000000D01*
X89094722Y-48000000D01*
X89113763Y-48156819D01*
X89169780Y-48304524D01*
X89218214Y-48374692D01*
X89259517Y-48434530D01*
X89259519Y-48434531D01*
X89259520Y-48434533D01*
X89376367Y-48538049D01*
X89377760Y-48539283D01*
X89517635Y-48612696D01*
X89671015Y-48650500D01*
X89671016Y-48650500D01*
X89828983Y-48650500D01*
X89828985Y-48650500D01*
X89982365Y-48612696D01*
X90122240Y-48539283D01*
X90217508Y-48454883D01*
X90252959Y-48442650D01*
X90282491Y-48454883D01*
X90377760Y-48539283D01*
X90517635Y-48612696D01*
X90671015Y-48650500D01*
X90671016Y-48650500D01*
X90828983Y-48650500D01*
X90828985Y-48650500D01*
X90982365Y-48612696D01*
X91122240Y-48539283D01*
X91217508Y-48454883D01*
X91252959Y-48442650D01*
X91282491Y-48454883D01*
X91377760Y-48539283D01*
X91517635Y-48612696D01*
X91671015Y-48650500D01*
X91671016Y-48650500D01*
X91828983Y-48650500D01*
X91828985Y-48650500D01*
X91982365Y-48612696D01*
X92122240Y-48539283D01*
X92240483Y-48434530D01*
X92263689Y-48400909D01*
X92295180Y-48380549D01*
X92331847Y-48388419D01*
X92352210Y-48419913D01*
X92352656Y-48434652D01*
X92351685Y-48442650D01*
X92344722Y-48500000D01*
X92347680Y-48524359D01*
X92363763Y-48656819D01*
X92419780Y-48804524D01*
X92475775Y-48885646D01*
X92509517Y-48934530D01*
X92627760Y-49039283D01*
X92767635Y-49112696D01*
X92921015Y-49150500D01*
X92921016Y-49150500D01*
X93078983Y-49150500D01*
X93078985Y-49150500D01*
X93232365Y-49112696D01*
X93372240Y-49039283D01*
X93490483Y-48934530D01*
X93580220Y-48804523D01*
X93636237Y-48656818D01*
X93655278Y-48500000D01*
X93636237Y-48343182D01*
X93580220Y-48195477D01*
X93571722Y-48183166D01*
X93536295Y-48131841D01*
X93490483Y-48065470D01*
X93490480Y-48065467D01*
X93490479Y-48065466D01*
X93372239Y-47960716D01*
X93232364Y-47887303D01*
X93116788Y-47858817D01*
X93078985Y-47849500D01*
X92921015Y-47849500D01*
X92890687Y-47856975D01*
X92767635Y-47887303D01*
X92627760Y-47960716D01*
X92509520Y-48065466D01*
X92509518Y-48065468D01*
X92509517Y-48065470D01*
X92486312Y-48099089D01*
X92454818Y-48119450D01*
X92418150Y-48111579D01*
X92397789Y-48080085D01*
X92397343Y-48065350D01*
X92405278Y-48000000D01*
X92386237Y-47843182D01*
X92330220Y-47695477D01*
X92308973Y-47664696D01*
X92242403Y-47568252D01*
X92240483Y-47565470D01*
X92240480Y-47565467D01*
X92240479Y-47565466D01*
X92122239Y-47460716D01*
X91982364Y-47387303D01*
X91866788Y-47358817D01*
X91828985Y-47349500D01*
X91671015Y-47349500D01*
X91640687Y-47356975D01*
X91517635Y-47387303D01*
X91377760Y-47460716D01*
X91282493Y-47545115D01*
X91247041Y-47557349D01*
X91217507Y-47545115D01*
X91122239Y-47460716D01*
X90982364Y-47387303D01*
X90866788Y-47358817D01*
X90828985Y-47349500D01*
X90671015Y-47349500D01*
X90640687Y-47356975D01*
X90517635Y-47387303D01*
X90377760Y-47460716D01*
X90282493Y-47545115D01*
X90247041Y-47557349D01*
X90217507Y-47545115D01*
X90122239Y-47460716D01*
X89982364Y-47387303D01*
X89866788Y-47358817D01*
X89828985Y-47349500D01*
X89671015Y-47349500D01*
X89640687Y-47356975D01*
X89517635Y-47387303D01*
X89377760Y-47460716D01*
X89259520Y-47565466D01*
X89259516Y-47565471D01*
X89169780Y-47695475D01*
X89113763Y-47843180D01*
X89094722Y-48000000D01*
X87302305Y-48000000D01*
X87277746Y-47971658D01*
X87231128Y-47917857D01*
X87183586Y-47887304D01*
X87110053Y-47840047D01*
X87110050Y-47840046D01*
X86971965Y-47799500D01*
X86971961Y-47799500D01*
X86828039Y-47799500D01*
X86828034Y-47799500D01*
X86689949Y-47840046D01*
X86568871Y-47917857D01*
X86474625Y-48026623D01*
X86474624Y-48026625D01*
X86414833Y-48157545D01*
X86394353Y-48299997D01*
X82335500Y-48299997D01*
X82335500Y-46786111D01*
X82336794Y-46777944D01*
X82336292Y-46777865D01*
X82336896Y-46774054D01*
X82356742Y-46648750D01*
X82336896Y-46523446D01*
X82335393Y-46520496D01*
X82332450Y-46483109D01*
X82356806Y-46454591D01*
X82379052Y-46449250D01*
X93539339Y-46449250D01*
X93573987Y-46463602D01*
X94085148Y-46974763D01*
X94099500Y-47009411D01*
X94099500Y-50313812D01*
X94085148Y-50348460D01*
X94046950Y-50386657D01*
X94046945Y-50386664D01*
X93989355Y-50499690D01*
X93989355Y-50499692D01*
X93989354Y-50499694D01*
X93989354Y-50499696D01*
X93969508Y-50625000D01*
X93989354Y-50750304D01*
X93989354Y-50750305D01*
X93989355Y-50750307D01*
X93989355Y-50750309D01*
X94046945Y-50863335D01*
X94046950Y-50863342D01*
X94136657Y-50953049D01*
X94136664Y-50953054D01*
X94249691Y-51010644D01*
X94249692Y-51010644D01*
X94249696Y-51010646D01*
X94375000Y-51030492D01*
X94500304Y-51010646D01*
X94500308Y-51010644D01*
X94500309Y-51010644D01*
X94613335Y-50953054D01*
X94613337Y-50953052D01*
X94613342Y-50953050D01*
X94703050Y-50863342D01*
X94759159Y-50753222D01*
X94787675Y-50728867D01*
X94825062Y-50731809D01*
X94849419Y-50760327D01*
X94850875Y-50765909D01*
X94876418Y-50894320D01*
X94876420Y-50894329D01*
X94929223Y-51021807D01*
X94929225Y-51021811D01*
X94947853Y-51049690D01*
X95005883Y-51136539D01*
X95103460Y-51234116D01*
X95149102Y-51264613D01*
X95218189Y-51310775D01*
X95345672Y-51363580D01*
X95345678Y-51363581D01*
X95345681Y-51363582D01*
X95481001Y-51390499D01*
X95481007Y-51390500D01*
X97378994Y-51390500D01*
X97514328Y-51363580D01*
X97641811Y-51310775D01*
X97756543Y-51234114D01*
X99075805Y-49914852D01*
X99110453Y-49900500D01*
X100839547Y-49900500D01*
X100874195Y-49914852D01*
X103503457Y-52544114D01*
X103618189Y-52620775D01*
X103745672Y-52673580D01*
X103881006Y-52700500D01*
X104018994Y-52700500D01*
X104154328Y-52673580D01*
X104281811Y-52620775D01*
X104396543Y-52544114D01*
X104494114Y-52446543D01*
X104570775Y-52331811D01*
X104623580Y-52204328D01*
X104650500Y-52068994D01*
X104650500Y-51931006D01*
X104623580Y-51795672D01*
X104570775Y-51668189D01*
X104494114Y-51553457D01*
X101596543Y-48655886D01*
X101588482Y-48650500D01*
X101550778Y-48625307D01*
X101481811Y-48579225D01*
X101481808Y-48579223D01*
X101481807Y-48579223D01*
X101354329Y-48526420D01*
X101354320Y-48526418D01*
X101218997Y-48499500D01*
X101218994Y-48499500D01*
X101218993Y-48499500D01*
X98731007Y-48499500D01*
X98731001Y-48499500D01*
X98622590Y-48521065D01*
X98595681Y-48526418D01*
X98595671Y-48526420D01*
X98468190Y-48579224D01*
X98353457Y-48655885D01*
X97034195Y-49975148D01*
X96999547Y-49989500D01*
X95481001Y-49989500D01*
X95345681Y-50016417D01*
X95345670Y-50016420D01*
X95218192Y-50069223D01*
X95103460Y-50145883D01*
X95005883Y-50243460D01*
X94929223Y-50358192D01*
X94876420Y-50485670D01*
X94876417Y-50485679D01*
X94864260Y-50546798D01*
X94843424Y-50577980D01*
X94806642Y-50585296D01*
X94775460Y-50564460D01*
X94767806Y-50544907D01*
X94760646Y-50499696D01*
X94760644Y-50499692D01*
X94760644Y-50499690D01*
X94703054Y-50386664D01*
X94703049Y-50386657D01*
X94664852Y-50348460D01*
X94650500Y-50313812D01*
X94650500Y-46820202D01*
X94650499Y-46820198D01*
X94638996Y-46792429D01*
X94620841Y-46748599D01*
X94608557Y-46718941D01*
X94608555Y-46718939D01*
X94608554Y-46718937D01*
X93829811Y-45940195D01*
X93829809Y-45940194D01*
X93829808Y-45940193D01*
X93770494Y-45915624D01*
X93728551Y-45898250D01*
X93728550Y-45898250D01*
X82698058Y-45898250D01*
X82663410Y-45883898D01*
X82649058Y-45849250D01*
X82654399Y-45827005D01*
X82663754Y-45808641D01*
X82675646Y-45785304D01*
X82695492Y-45660000D01*
X82675646Y-45534696D01*
X82675644Y-45534692D01*
X82675644Y-45534690D01*
X82618054Y-45421664D01*
X82618049Y-45421657D01*
X82528342Y-45331950D01*
X82528335Y-45331945D01*
X82457819Y-45296016D01*
X82433462Y-45267499D01*
X82436405Y-45230112D01*
X82457817Y-45208698D01*
X82498342Y-45188050D01*
X82588050Y-45098342D01*
X82618146Y-45039276D01*
X82638160Y-44999997D01*
X101494353Y-44999997D01*
X101494353Y-45000002D01*
X101514833Y-45142454D01*
X101533512Y-45183354D01*
X101574623Y-45273373D01*
X101574624Y-45273374D01*
X101574625Y-45273376D01*
X101625376Y-45331946D01*
X101668872Y-45382143D01*
X101730359Y-45421658D01*
X101788119Y-45458778D01*
X101809508Y-45489584D01*
X101802850Y-45526491D01*
X101788119Y-45541222D01*
X101668871Y-45617857D01*
X101574625Y-45726623D01*
X101574624Y-45726625D01*
X101514833Y-45857545D01*
X101494353Y-45999997D01*
X101494353Y-46000002D01*
X101514833Y-46142454D01*
X101533512Y-46183354D01*
X101574623Y-46273373D01*
X101574624Y-46273374D01*
X101574625Y-46273376D01*
X101668871Y-46382142D01*
X101668872Y-46382143D01*
X101773293Y-46449250D01*
X101788119Y-46458778D01*
X101809508Y-46489584D01*
X101802850Y-46526491D01*
X101788119Y-46541222D01*
X101668871Y-46617857D01*
X101574625Y-46726623D01*
X101574624Y-46726625D01*
X101514833Y-46857545D01*
X101494353Y-46999997D01*
X101494353Y-47000002D01*
X101514833Y-47142454D01*
X101533512Y-47183354D01*
X101574623Y-47273373D01*
X101574624Y-47273374D01*
X101574625Y-47273376D01*
X101640587Y-47349500D01*
X101668872Y-47382143D01*
X101789947Y-47459953D01*
X101866785Y-47482514D01*
X101928034Y-47500499D01*
X101928037Y-47500499D01*
X101928039Y-47500500D01*
X101928040Y-47500500D01*
X102071960Y-47500500D01*
X102071961Y-47500500D01*
X102071963Y-47500499D01*
X102071965Y-47500499D01*
X102094795Y-47493795D01*
X102210053Y-47459953D01*
X102331128Y-47382143D01*
X102425377Y-47273373D01*
X102455428Y-47207569D01*
X102482876Y-47182015D01*
X102520356Y-47183354D01*
X102544570Y-47207568D01*
X102574623Y-47273373D01*
X102574624Y-47273374D01*
X102574625Y-47273376D01*
X102640587Y-47349500D01*
X102668872Y-47382143D01*
X102789947Y-47459953D01*
X102866785Y-47482514D01*
X102928034Y-47500499D01*
X102928037Y-47500499D01*
X102928039Y-47500500D01*
X102928040Y-47500500D01*
X103071960Y-47500500D01*
X103071961Y-47500500D01*
X103071963Y-47500499D01*
X103071965Y-47500499D01*
X103094795Y-47493795D01*
X103210053Y-47459953D01*
X103331128Y-47382143D01*
X103425377Y-47273373D01*
X103455428Y-47207569D01*
X103482876Y-47182015D01*
X103520356Y-47183354D01*
X103544570Y-47207568D01*
X103574623Y-47273373D01*
X103574624Y-47273374D01*
X103574625Y-47273376D01*
X103640587Y-47349500D01*
X103668872Y-47382143D01*
X103789947Y-47459953D01*
X103866785Y-47482514D01*
X103928034Y-47500499D01*
X103928037Y-47500499D01*
X103928039Y-47500500D01*
X103928040Y-47500500D01*
X104071960Y-47500500D01*
X104071961Y-47500500D01*
X104071963Y-47500499D01*
X104071965Y-47500499D01*
X104094795Y-47493795D01*
X104210053Y-47459953D01*
X104331128Y-47382143D01*
X104425377Y-47273373D01*
X104455428Y-47207569D01*
X104482876Y-47182015D01*
X104520356Y-47183354D01*
X104544570Y-47207568D01*
X104574623Y-47273373D01*
X104574624Y-47273374D01*
X104574625Y-47273376D01*
X104640587Y-47349500D01*
X104668872Y-47382143D01*
X104789947Y-47459953D01*
X104866785Y-47482514D01*
X104928034Y-47500499D01*
X104928037Y-47500499D01*
X104928039Y-47500500D01*
X104928040Y-47500500D01*
X105071960Y-47500500D01*
X105071961Y-47500500D01*
X105071963Y-47500499D01*
X105071965Y-47500499D01*
X105094795Y-47493795D01*
X105210053Y-47459953D01*
X105331128Y-47382143D01*
X105425377Y-47273373D01*
X105455428Y-47207569D01*
X105482876Y-47182015D01*
X105520356Y-47183354D01*
X105544570Y-47207568D01*
X105574623Y-47273373D01*
X105574624Y-47273374D01*
X105574625Y-47273376D01*
X105640587Y-47349500D01*
X105668872Y-47382143D01*
X105789947Y-47459953D01*
X105866785Y-47482514D01*
X105928034Y-47500499D01*
X105928037Y-47500499D01*
X105928039Y-47500500D01*
X105928040Y-47500500D01*
X106071960Y-47500500D01*
X106071961Y-47500500D01*
X106071963Y-47500499D01*
X106071965Y-47500499D01*
X106094795Y-47493795D01*
X106210053Y-47459953D01*
X106331128Y-47382143D01*
X106425377Y-47273373D01*
X106485165Y-47142457D01*
X106485165Y-47142455D01*
X106485166Y-47142454D01*
X106505647Y-47000002D01*
X106505647Y-46999997D01*
X106485166Y-46857545D01*
X106480751Y-46847879D01*
X106425377Y-46726627D01*
X106418717Y-46718941D01*
X106331128Y-46617857D01*
X106211878Y-46541220D01*
X106190491Y-46510416D01*
X106197149Y-46473509D01*
X106211877Y-46458780D01*
X106331128Y-46382143D01*
X106425377Y-46273373D01*
X106485165Y-46142457D01*
X106485165Y-46142455D01*
X106485166Y-46142454D01*
X106505647Y-46000002D01*
X106505647Y-45999997D01*
X106485166Y-45857545D01*
X106480751Y-45847879D01*
X106425377Y-45726627D01*
X106331128Y-45617857D01*
X106211878Y-45541220D01*
X106190491Y-45510416D01*
X106197149Y-45473509D01*
X106211877Y-45458780D01*
X106331128Y-45382143D01*
X106425377Y-45273373D01*
X106485165Y-45142457D01*
X106485165Y-45142455D01*
X106485166Y-45142454D01*
X106505647Y-45000002D01*
X106505647Y-44999997D01*
X106485166Y-44857545D01*
X106455428Y-44792429D01*
X106425377Y-44726627D01*
X106331128Y-44617857D01*
X106210053Y-44540047D01*
X106210050Y-44540046D01*
X106071965Y-44499500D01*
X106071961Y-44499500D01*
X105928039Y-44499500D01*
X105928034Y-44499500D01*
X105789949Y-44540046D01*
X105668871Y-44617857D01*
X105574625Y-44726623D01*
X105574624Y-44726625D01*
X105544572Y-44792429D01*
X105517123Y-44817984D01*
X105479644Y-44816645D01*
X105455428Y-44792429D01*
X105425377Y-44726627D01*
X105331128Y-44617857D01*
X105210053Y-44540047D01*
X105210050Y-44540046D01*
X105071965Y-44499500D01*
X105071961Y-44499500D01*
X104928039Y-44499500D01*
X104928034Y-44499500D01*
X104789949Y-44540046D01*
X104668871Y-44617857D01*
X104574625Y-44726623D01*
X104574624Y-44726625D01*
X104544572Y-44792429D01*
X104517123Y-44817984D01*
X104479644Y-44816645D01*
X104455428Y-44792429D01*
X104425377Y-44726627D01*
X104331128Y-44617857D01*
X104210053Y-44540047D01*
X104210050Y-44540046D01*
X104071965Y-44499500D01*
X104071961Y-44499500D01*
X103928039Y-44499500D01*
X103928034Y-44499500D01*
X103789949Y-44540046D01*
X103668871Y-44617857D01*
X103574625Y-44726623D01*
X103574624Y-44726625D01*
X103544572Y-44792429D01*
X103517123Y-44817984D01*
X103479644Y-44816645D01*
X103455428Y-44792429D01*
X103425377Y-44726627D01*
X103331128Y-44617857D01*
X103210053Y-44540047D01*
X103210050Y-44540046D01*
X103071965Y-44499500D01*
X103071961Y-44499500D01*
X102928039Y-44499500D01*
X102928034Y-44499500D01*
X102789949Y-44540046D01*
X102668871Y-44617857D01*
X102574625Y-44726623D01*
X102574624Y-44726625D01*
X102544572Y-44792429D01*
X102517123Y-44817984D01*
X102479644Y-44816645D01*
X102455428Y-44792429D01*
X102425377Y-44726627D01*
X102331128Y-44617857D01*
X102210053Y-44540047D01*
X102210050Y-44540046D01*
X102071965Y-44499500D01*
X102071961Y-44499500D01*
X101928039Y-44499500D01*
X101928034Y-44499500D01*
X101789949Y-44540046D01*
X101668871Y-44617857D01*
X101574625Y-44726623D01*
X101574624Y-44726625D01*
X101514833Y-44857545D01*
X101494353Y-44999997D01*
X82638160Y-44999997D01*
X82645644Y-44985309D01*
X82645644Y-44985307D01*
X82645646Y-44985304D01*
X82665492Y-44860000D01*
X82645646Y-44734696D01*
X82645644Y-44734692D01*
X82645644Y-44734690D01*
X82588054Y-44621664D01*
X82588049Y-44621657D01*
X82498342Y-44531950D01*
X82498335Y-44531945D01*
X82385308Y-44474355D01*
X82385305Y-44474354D01*
X82385304Y-44474354D01*
X82260000Y-44454508D01*
X82134696Y-44474354D01*
X82134694Y-44474354D01*
X82134692Y-44474355D01*
X82134690Y-44474355D01*
X82021664Y-44531945D01*
X82021657Y-44531950D01*
X81931950Y-44621657D01*
X81931945Y-44621664D01*
X81874355Y-44734690D01*
X81874355Y-44734692D01*
X81874354Y-44734694D01*
X81874354Y-44734696D01*
X81854508Y-44860000D01*
X81874354Y-44985304D01*
X81874354Y-44985305D01*
X81874355Y-44985307D01*
X81874355Y-44985309D01*
X81931945Y-45098335D01*
X81931950Y-45098342D01*
X82021658Y-45188050D01*
X82092181Y-45223983D01*
X82116537Y-45252500D01*
X82113595Y-45289887D01*
X82092181Y-45311301D01*
X82051662Y-45331946D01*
X82051657Y-45331950D01*
X81961950Y-45421657D01*
X81961945Y-45421664D01*
X81904355Y-45534690D01*
X81904355Y-45534692D01*
X81904354Y-45534694D01*
X81904354Y-45534696D01*
X81884508Y-45660000D01*
X81904354Y-45785304D01*
X81904354Y-45785305D01*
X81904355Y-45785306D01*
X81925601Y-45827005D01*
X81928544Y-45864392D01*
X81904187Y-45892909D01*
X81881942Y-45898250D01*
X77771448Y-45898250D01*
X77670190Y-45940194D01*
X77670188Y-45940195D01*
X76588031Y-47022352D01*
X76553383Y-47036704D01*
X76518735Y-47022352D01*
X76504882Y-46994677D01*
X76485166Y-46857545D01*
X76480751Y-46847879D01*
X76425377Y-46726627D01*
X76418717Y-46718941D01*
X76331128Y-46617857D01*
X76211878Y-46541220D01*
X76190491Y-46510416D01*
X76197149Y-46473509D01*
X76211877Y-46458780D01*
X76331128Y-46382143D01*
X76425377Y-46273373D01*
X76485165Y-46142457D01*
X76485165Y-46142455D01*
X76485166Y-46142454D01*
X76505647Y-46000002D01*
X76505647Y-45999997D01*
X76485166Y-45857545D01*
X76480751Y-45847879D01*
X76425377Y-45726627D01*
X76331128Y-45617857D01*
X76211878Y-45541220D01*
X76190491Y-45510416D01*
X76197149Y-45473509D01*
X76211877Y-45458780D01*
X76331128Y-45382143D01*
X76425377Y-45273373D01*
X76485165Y-45142457D01*
X76485165Y-45142455D01*
X76485166Y-45142454D01*
X76505647Y-45000002D01*
X76505647Y-44999997D01*
X76485166Y-44857545D01*
X76455428Y-44792429D01*
X76425377Y-44726627D01*
X76331128Y-44617857D01*
X76210053Y-44540047D01*
X76210050Y-44540046D01*
X76071965Y-44499500D01*
X76071961Y-44499500D01*
X75928039Y-44499500D01*
X75928034Y-44499500D01*
X75789949Y-44540046D01*
X75668871Y-44617857D01*
X75574625Y-44726623D01*
X75574624Y-44726625D01*
X75544572Y-44792429D01*
X75517123Y-44817984D01*
X75479644Y-44816645D01*
X75455428Y-44792429D01*
X75425377Y-44726627D01*
X75331128Y-44617857D01*
X75210053Y-44540047D01*
X75210050Y-44540046D01*
X75071965Y-44499500D01*
X75071961Y-44499500D01*
X74928039Y-44499500D01*
X74928034Y-44499500D01*
X74789949Y-44540046D01*
X74668871Y-44617857D01*
X74574625Y-44726623D01*
X74574624Y-44726625D01*
X74544572Y-44792429D01*
X74517123Y-44817984D01*
X74479644Y-44816645D01*
X74455428Y-44792429D01*
X74425377Y-44726627D01*
X74331128Y-44617857D01*
X74210053Y-44540047D01*
X74210050Y-44540046D01*
X74071965Y-44499500D01*
X74071961Y-44499500D01*
X73928039Y-44499500D01*
X73928034Y-44499500D01*
X73789949Y-44540046D01*
X73668871Y-44617857D01*
X73574625Y-44726623D01*
X73574624Y-44726625D01*
X73544572Y-44792429D01*
X73517123Y-44817984D01*
X73479644Y-44816645D01*
X73455428Y-44792429D01*
X73425377Y-44726627D01*
X73331128Y-44617857D01*
X73210053Y-44540047D01*
X73210050Y-44540046D01*
X73071965Y-44499500D01*
X73071961Y-44499500D01*
X72928039Y-44499500D01*
X72928034Y-44499500D01*
X72789949Y-44540046D01*
X72668871Y-44617857D01*
X72574625Y-44726623D01*
X72574624Y-44726625D01*
X72544572Y-44792429D01*
X72517123Y-44817984D01*
X72479644Y-44816645D01*
X72455428Y-44792429D01*
X72425377Y-44726627D01*
X72331128Y-44617857D01*
X72210053Y-44540047D01*
X72210050Y-44540046D01*
X72071965Y-44499500D01*
X72071961Y-44499500D01*
X71928039Y-44499500D01*
X71928034Y-44499500D01*
X71789949Y-44540046D01*
X71668871Y-44617857D01*
X71574625Y-44726623D01*
X71574624Y-44726625D01*
X71514833Y-44857545D01*
X71494353Y-44999997D01*
X71300618Y-44999997D01*
X71300736Y-44997603D01*
X71301947Y-44985304D01*
X71313469Y-44868325D01*
X71315338Y-44858925D01*
X71352347Y-44736924D01*
X71356016Y-44728064D01*
X71416112Y-44615634D01*
X71421449Y-44607649D01*
X71502318Y-44509110D01*
X71509110Y-44502318D01*
X71607649Y-44421449D01*
X71615635Y-44416112D01*
X71728064Y-44356016D01*
X71736924Y-44352347D01*
X71858925Y-44315338D01*
X71868325Y-44313469D01*
X71997604Y-44300736D01*
X72002407Y-44300500D01*
X72047595Y-44300500D01*
X105952405Y-44300500D01*
X105997593Y-44300500D01*
X106002396Y-44300736D01*
G37*
%TD.AperFunction*%
%TD*%
M02*
