%TF.GenerationSoftware,KiCad,Pcbnew,8.0.8*%
%TF.CreationDate,2025-04-24T20:57:55+02:00*%
%TF.ProjectId,ESC_PCB,4553435f-5043-4422-9e6b-696361645f70,rev?*%
%TF.SameCoordinates,Original*%
%TF.FileFunction,Copper,L1,Top*%
%TF.FilePolarity,Positive*%
%FSLAX46Y46*%
G04 Gerber Fmt 4.6, Leading zero omitted, Abs format (unit mm)*
G04 Created by KiCad (PCBNEW 8.0.8) date 2025-04-24 20:57:55*
%MOMM*%
%LPD*%
G01*
G04 APERTURE LIST*
G04 Aperture macros list*
%AMRoundRect*
0 Rectangle with rounded corners*
0 $1 Rounding radius*
0 $2 $3 $4 $5 $6 $7 $8 $9 X,Y pos of 4 corners*
0 Add a 4 corners polygon primitive as box body*
4,1,4,$2,$3,$4,$5,$6,$7,$8,$9,$2,$3,0*
0 Add four circle primitives for the rounded corners*
1,1,$1+$1,$2,$3*
1,1,$1+$1,$4,$5*
1,1,$1+$1,$6,$7*
1,1,$1+$1,$8,$9*
0 Add four rect primitives between the rounded corners*
20,1,$1+$1,$2,$3,$4,$5,0*
20,1,$1+$1,$4,$5,$6,$7,0*
20,1,$1+$1,$6,$7,$8,$9,0*
20,1,$1+$1,$8,$9,$2,$3,0*%
%AMOutline4P*
0 Free polygon, 4 corners , with rotation*
0 The origin of the aperture is its center*
0 number of corners: always 4*
0 $1 to $8 corner X, Y*
0 $9 Rotation angle, in degrees counterclockwise*
0 create outline with 4 corners*
4,1,4,$1,$2,$3,$4,$5,$6,$7,$8,$1,$2,$9*%
%AMFreePoly0*
4,1,9,3.862500,-0.866500,0.737500,-0.866500,0.737500,-0.450000,-0.737500,-0.450000,-0.737500,0.450000,0.737500,0.450000,0.737500,0.866500,3.862500,0.866500,3.862500,-0.866500,3.862500,-0.866500,$1*%
G04 Aperture macros list end*
%TA.AperFunction,SMDPad,CuDef*%
%ADD10RoundRect,0.750000X1.750000X-0.750000X1.750000X0.750000X-1.750000X0.750000X-1.750000X-0.750000X0*%
%TD*%
%TA.AperFunction,SMDPad,CuDef*%
%ADD11RoundRect,0.160000X-0.197500X-0.160000X0.197500X-0.160000X0.197500X0.160000X-0.197500X0.160000X0*%
%TD*%
%TA.AperFunction,SMDPad,CuDef*%
%ADD12RoundRect,0.150000X0.150000X0.200000X-0.150000X0.200000X-0.150000X-0.200000X0.150000X-0.200000X0*%
%TD*%
%TA.AperFunction,SMDPad,CuDef*%
%ADD13RoundRect,0.875000X1.875000X-0.875000X1.875000X0.875000X-1.875000X0.875000X-1.875000X-0.875000X0*%
%TD*%
%TA.AperFunction,SMDPad,CuDef*%
%ADD14RoundRect,0.080000X-0.420000X-0.080000X0.420000X-0.080000X0.420000X0.080000X-0.420000X0.080000X0*%
%TD*%
%TA.AperFunction,SMDPad,CuDef*%
%ADD15Outline4P,-1.245000X-1.050000X1.245000X-1.050000X1.245000X1.050000X-1.245000X1.050000X90.000000*%
%TD*%
%TA.AperFunction,SMDPad,CuDef*%
%ADD16RoundRect,0.080000X0.080000X-0.220000X0.080000X0.220000X-0.080000X0.220000X-0.080000X-0.220000X0*%
%TD*%
%TA.AperFunction,SMDPad,CuDef*%
%ADD17RoundRect,0.080000X-0.220000X-0.080000X0.220000X-0.080000X0.220000X0.080000X-0.220000X0.080000X0*%
%TD*%
%TA.AperFunction,SMDPad,CuDef*%
%ADD18RoundRect,0.155000X0.212500X0.155000X-0.212500X0.155000X-0.212500X-0.155000X0.212500X-0.155000X0*%
%TD*%
%TA.AperFunction,SMDPad,CuDef*%
%ADD19RoundRect,0.150000X0.512500X0.150000X-0.512500X0.150000X-0.512500X-0.150000X0.512500X-0.150000X0*%
%TD*%
%TA.AperFunction,SMDPad,CuDef*%
%ADD20RoundRect,0.237500X-0.237500X0.300000X-0.237500X-0.300000X0.237500X-0.300000X0.237500X0.300000X0*%
%TD*%
%TA.AperFunction,SMDPad,CuDef*%
%ADD21RoundRect,0.250000X0.750000X-0.250000X0.750000X0.250000X-0.750000X0.250000X-0.750000X-0.250000X0*%
%TD*%
%TA.AperFunction,SMDPad,CuDef*%
%ADD22RoundRect,0.225000X0.425000X0.225000X-0.425000X0.225000X-0.425000X-0.225000X0.425000X-0.225000X0*%
%TD*%
%TA.AperFunction,SMDPad,CuDef*%
%ADD23FreePoly0,180.000000*%
%TD*%
%TA.AperFunction,SMDPad,CuDef*%
%ADD24RoundRect,0.237500X0.300000X0.237500X-0.300000X0.237500X-0.300000X-0.237500X0.300000X-0.237500X0*%
%TD*%
%TA.AperFunction,SMDPad,CuDef*%
%ADD25RoundRect,0.218750X-0.256250X0.218750X-0.256250X-0.218750X0.256250X-0.218750X0.256250X0.218750X0*%
%TD*%
%TA.AperFunction,SMDPad,CuDef*%
%ADD26RoundRect,0.237500X0.237500X-0.300000X0.237500X0.300000X-0.237500X0.300000X-0.237500X-0.300000X0*%
%TD*%
%TA.AperFunction,SMDPad,CuDef*%
%ADD27RoundRect,0.160000X-0.160000X0.197500X-0.160000X-0.197500X0.160000X-0.197500X0.160000X0.197500X0*%
%TD*%
%TA.AperFunction,SMDPad,CuDef*%
%ADD28RoundRect,0.160000X0.160000X-0.197500X0.160000X0.197500X-0.160000X0.197500X-0.160000X-0.197500X0*%
%TD*%
%TA.AperFunction,SMDPad,CuDef*%
%ADD29RoundRect,0.067500X-0.067500X0.347500X-0.067500X-0.347500X0.067500X-0.347500X0.067500X0.347500X0*%
%TD*%
%TA.AperFunction,SMDPad,CuDef*%
%ADD30RoundRect,0.067500X-0.347500X0.067500X-0.347500X-0.067500X0.347500X-0.067500X0.347500X0.067500X0*%
%TD*%
%TA.AperFunction,SMDPad,CuDef*%
%ADD31R,2.700000X2.700000*%
%TD*%
%TA.AperFunction,SMDPad,CuDef*%
%ADD32RoundRect,0.750000X-1.750000X0.750000X-1.750000X-0.750000X1.750000X-0.750000X1.750000X0.750000X0*%
%TD*%
%TA.AperFunction,ViaPad*%
%ADD33C,0.900000*%
%TD*%
%TA.AperFunction,ViaPad*%
%ADD34C,0.600000*%
%TD*%
%TA.AperFunction,ViaPad*%
%ADD35C,0.400000*%
%TD*%
%TA.AperFunction,Conductor*%
%ADD36C,0.500000*%
%TD*%
%TA.AperFunction,Conductor*%
%ADD37C,0.300000*%
%TD*%
%TA.AperFunction,Conductor*%
%ADD38C,0.200000*%
%TD*%
%TA.AperFunction,Conductor*%
%ADD39C,0.150000*%
%TD*%
G04 APERTURE END LIST*
D10*
%TO.P,TP9,1,1*%
%TO.N,PHASE_C*%
X74050000Y-45950000D03*
%TD*%
D11*
%TO.P,R11,1*%
%TO.N,Net-(D4-K)*%
X96352500Y-53320000D03*
%TO.P,R11,2*%
%TO.N,GND*%
X97547500Y-53320000D03*
%TD*%
D12*
%TO.P,D2,1,K*%
%TO.N,Net-(D2-K)*%
X87600000Y-56100000D03*
%TO.P,D2,2,A*%
%TO.N,+6V*%
X89000000Y-56100000D03*
%TD*%
D13*
%TO.P,J2,1,Pin_1*%
%TO.N,VDC*%
X103950000Y-46050000D03*
%TD*%
D14*
%TO.P,Q5,1,D*%
%TO.N,PHASE_B*%
X77250000Y-51150000D03*
X77250000Y-51800000D03*
X77250000Y-52450000D03*
X77250000Y-53100000D03*
D15*
X78050000Y-52100000D03*
D16*
X78400000Y-50650000D03*
X78400000Y-53500000D03*
D17*
%TO.P,Q5,2,G*%
%TO.N,Net-(Q5-G)*%
X80100000Y-51150000D03*
%TO.P,Q5,3,S*%
%TO.N,GND*%
X80100000Y-51800000D03*
X80100000Y-52450000D03*
X80100000Y-53100000D03*
%TD*%
D18*
%TO.P,C11,1*%
%TO.N,Net-(D3-K)*%
X83667500Y-55500000D03*
%TO.P,C11,2*%
%TO.N,Net-(U6-VS3)*%
X82532500Y-55500000D03*
%TD*%
%TO.P,C9,1*%
%TO.N,Net-(D1-K)*%
X89267500Y-54300000D03*
%TO.P,C9,2*%
%TO.N,Net-(U6-VS1)*%
X88132500Y-54300000D03*
%TD*%
D19*
%TO.P,U2,1,V_{IN}*%
%TO.N,VDC*%
X98102499Y-47880000D03*
%TO.P,U2,2,V_{SS}*%
%TO.N,GND*%
X98102499Y-46930000D03*
%TO.P,U2,3,CE*%
%TO.N,VDC*%
X98102499Y-45980000D03*
%TO.P,U2,4,NC*%
%TO.N,unconnected-(U2-NC-Pad4)*%
X95827499Y-45980000D03*
%TO.P,U2,5,V_{OUT}*%
%TO.N,+5V*%
X95827499Y-47880000D03*
%TD*%
D20*
%TO.P,C3,1*%
%TO.N,+5V*%
X94084999Y-46170000D03*
%TO.P,C3,2*%
%TO.N,GND*%
X94084999Y-47895000D03*
%TD*%
D13*
%TO.P,J3,1,Pin_1*%
%TO.N,GND*%
X103950000Y-57900000D03*
%TD*%
D21*
%TO.P,TP5,1,1*%
%TO.N,INPUT*%
X105500000Y-54500000D03*
%TD*%
D22*
%TO.P,U4,1,OUT*%
%TO.N,+6V*%
X102450000Y-53000000D03*
D23*
%TO.P,U4,2,GND*%
%TO.N,GND*%
X102362500Y-51500000D03*
D22*
%TO.P,U4,3,IN*%
%TO.N,VDC*%
X102450000Y-50000000D03*
%TD*%
D12*
%TO.P,D1,1,K*%
%TO.N,Net-(D1-K)*%
X88800000Y-52900000D03*
%TO.P,D1,2,A*%
%TO.N,+6V*%
X90200000Y-52900000D03*
%TD*%
D24*
%TO.P,C8,1*%
%TO.N,+6V*%
X84015000Y-48810000D03*
%TO.P,C8,2*%
%TO.N,GND*%
X82290000Y-48810000D03*
%TD*%
D25*
%TO.P,D4,1,K*%
%TO.N,Net-(D4-K)*%
X94560000Y-54805000D03*
%TO.P,D4,2,A*%
%TO.N,+3.3V*%
X94560000Y-56380000D03*
%TD*%
D26*
%TO.P,C4,1*%
%TO.N,+3.3V*%
X96250000Y-56362500D03*
%TO.P,C4,2*%
%TO.N,GND*%
X96250000Y-54637500D03*
%TD*%
D10*
%TO.P,TP11,1,1*%
%TO.N,PHASE_A*%
X73950000Y-57950000D03*
%TD*%
D14*
%TO.P,Q4,1,D*%
%TO.N,PHASE_A*%
X77250000Y-57050000D03*
X77250000Y-57700000D03*
X77250000Y-58350000D03*
X77250000Y-59000000D03*
D15*
X78050000Y-58000000D03*
D16*
X78400000Y-56550000D03*
X78400000Y-59400000D03*
D17*
%TO.P,Q4,2,G*%
%TO.N,Net-(Q4-G)*%
X80100000Y-57050000D03*
%TO.P,Q4,3,S*%
%TO.N,GND*%
X80100000Y-57700000D03*
X80100000Y-58350000D03*
X80100000Y-59000000D03*
%TD*%
D18*
%TO.P,C12,1*%
%TO.N,+6V*%
X84217500Y-47540000D03*
%TO.P,C12,2*%
%TO.N,GND*%
X83082500Y-47540000D03*
%TD*%
D20*
%TO.P,C2,1*%
%TO.N,VDC*%
X100230000Y-46300000D03*
%TO.P,C2,2*%
%TO.N,GND*%
X100230000Y-48025000D03*
%TD*%
D18*
%TO.P,C10,1*%
%TO.N,Net-(D2-K)*%
X86500000Y-56100000D03*
%TO.P,C10,2*%
%TO.N,Net-(U6-VS2)*%
X85365000Y-56100000D03*
%TD*%
D24*
%TO.P,C23,1*%
%TO.N,+6V*%
X100075000Y-58480000D03*
%TO.P,C23,2*%
%TO.N,GND*%
X98350000Y-58480000D03*
%TD*%
D27*
%TO.P,R17,1*%
%TO.N,GLA*%
X81200000Y-55802500D03*
%TO.P,R17,2*%
%TO.N,Net-(Q4-G)*%
X81200000Y-56997500D03*
%TD*%
D28*
%TO.P,R15,1*%
%TO.N,GLC*%
X81200000Y-45897500D03*
%TO.P,R15,2*%
%TO.N,Net-(Q6-G)*%
X81200000Y-44702500D03*
%TD*%
D14*
%TO.P,Q6,1,D*%
%TO.N,PHASE_C*%
X77250000Y-45150000D03*
X77250000Y-45800000D03*
X77250000Y-46450000D03*
X77250000Y-47100000D03*
D15*
X78050000Y-46100000D03*
D16*
X78400000Y-44650000D03*
X78400000Y-47500000D03*
D17*
%TO.P,Q6,2,G*%
%TO.N,Net-(Q6-G)*%
X80100000Y-45150000D03*
%TO.P,Q6,3,S*%
%TO.N,GND*%
X80100000Y-45800000D03*
X80100000Y-46450000D03*
X80100000Y-47100000D03*
%TD*%
D19*
%TO.P,U3,1,V_{IN}*%
%TO.N,+6V*%
X100000000Y-56900000D03*
%TO.P,U3,2,V_{SS}*%
%TO.N,GND*%
X100000000Y-55950000D03*
%TO.P,U3,3,CE*%
%TO.N,+6V*%
X100000000Y-55000000D03*
%TO.P,U3,4,NC*%
%TO.N,unconnected-(U3-NC-Pad4)*%
X97725000Y-55000000D03*
%TO.P,U3,5,V_{OUT}*%
%TO.N,+3.3V*%
X97725000Y-56900000D03*
%TD*%
D29*
%TO.P,U6,1,LIN1*%
%TO.N,LA*%
X85940000Y-50310000D03*
%TO.P,U6,2,LIN2*%
%TO.N,LB*%
X85440000Y-50310000D03*
%TO.P,U6,3,LIN3*%
%TO.N,LC*%
X84940000Y-50310000D03*
%TO.P,U6,4,VCC*%
%TO.N,+6V*%
X84440000Y-50310000D03*
%TO.P,U6,5,NC*%
%TO.N,unconnected-(U6-NC-Pad5)*%
X83940000Y-50310000D03*
%TO.P,U6,6,COM*%
%TO.N,GND*%
X83440000Y-50310000D03*
D30*
%TO.P,U6,7,NC*%
%TO.N,unconnected-(U6-NC-Pad7)*%
X82750000Y-51000000D03*
%TO.P,U6,8,NC*%
%TO.N,unconnected-(U6-NC-Pad8)*%
X82750000Y-51500000D03*
%TO.P,U6,9,LO3*%
%TO.N,GLC*%
X82750000Y-52000000D03*
%TO.P,U6,10,LO2*%
%TO.N,GLB*%
X82750000Y-52500000D03*
%TO.P,U6,11,LO1*%
%TO.N,GLA*%
X82750000Y-53000000D03*
%TO.P,U6,12,VS3*%
%TO.N,Net-(U6-VS3)*%
X82750000Y-53500000D03*
D29*
%TO.P,U6,13,HO3*%
%TO.N,GHC*%
X83440000Y-54190000D03*
%TO.P,U6,14,VB3*%
%TO.N,Net-(D3-K)*%
X83940000Y-54190000D03*
%TO.P,U6,15,VS2*%
%TO.N,Net-(U6-VS2)*%
X84440000Y-54190000D03*
%TO.P,U6,16,HO2*%
%TO.N,GHB*%
X84940000Y-54190000D03*
%TO.P,U6,17,VB2*%
%TO.N,Net-(D2-K)*%
X85440000Y-54190000D03*
%TO.P,U6,18,VS1*%
%TO.N,Net-(U6-VS1)*%
X85940000Y-54190000D03*
D30*
%TO.P,U6,19,HO1*%
%TO.N,GHA*%
X86630000Y-53500000D03*
%TO.P,U6,20,VB1*%
%TO.N,Net-(D1-K)*%
X86630000Y-53000000D03*
%TO.P,U6,21*%
%TO.N,N/C*%
X86630000Y-52500000D03*
%TO.P,U6,22,HIN1*%
%TO.N,HA*%
X86630000Y-52000000D03*
%TO.P,U6,23,HIN2*%
%TO.N,HB*%
X86630000Y-51500000D03*
%TO.P,U6,24,HIN3*%
%TO.N,HC*%
X86630000Y-51000000D03*
D31*
%TO.P,U6,25*%
%TO.N,N/C*%
X84690000Y-52250000D03*
%TD*%
D21*
%TO.P,TP7,1,1*%
%TO.N,GND*%
X105500000Y-49500000D03*
%TD*%
D32*
%TO.P,TP10,1,1*%
%TO.N,PHASE_B*%
X73950000Y-52050000D03*
%TD*%
D28*
%TO.P,R13,1*%
%TO.N,GLB*%
X81200000Y-51797500D03*
%TO.P,R13,2*%
%TO.N,Net-(Q5-G)*%
X81200000Y-50602500D03*
%TD*%
D12*
%TO.P,D3,1,K*%
%TO.N,Net-(D3-K)*%
X82500000Y-56800000D03*
%TO.P,D3,2,A*%
%TO.N,+6V*%
X83900000Y-56800000D03*
%TD*%
D21*
%TO.P,TP6,1,1*%
%TO.N,+5V*%
X105500000Y-52000000D03*
%TD*%
D20*
%TO.P,C1,1*%
%TO.N,VDC*%
X97280000Y-49460000D03*
%TO.P,C1,2*%
%TO.N,GND*%
X97280000Y-51185000D03*
%TD*%
D33*
%TO.N,GND*%
X91750000Y-48000000D03*
D34*
X105000000Y-57000000D03*
X103000000Y-58000000D03*
X104000000Y-59000000D03*
X102000000Y-59000000D03*
X102000000Y-58000000D03*
X103000000Y-59000000D03*
X86900000Y-48300000D03*
D35*
X93300000Y-54750000D03*
D34*
X102000000Y-57000000D03*
D35*
X91800000Y-58700000D03*
D33*
X93000000Y-48500000D03*
D34*
X106000000Y-59000000D03*
D33*
X99530000Y-53330000D03*
D34*
X90000000Y-55300000D03*
X105000000Y-59000000D03*
X104000000Y-58000000D03*
X106000000Y-58000000D03*
X104000000Y-57000000D03*
D33*
X90750000Y-48000000D03*
D34*
X106000000Y-57000000D03*
X89200000Y-58767500D03*
X105000000Y-58000000D03*
X103000000Y-57000000D03*
X82635000Y-49750000D03*
D33*
X89750000Y-48000000D03*
D34*
%TO.N,VDC*%
X106000000Y-46000000D03*
X105000000Y-47000000D03*
X104000000Y-46000000D03*
X102000000Y-46000000D03*
D35*
X79700000Y-54530000D03*
D34*
X103000000Y-47000000D03*
X106000000Y-47000000D03*
X105000000Y-45000000D03*
X103000000Y-46000000D03*
D35*
X79670000Y-56340000D03*
D34*
X106000000Y-45000000D03*
X104000000Y-47000000D03*
X102000000Y-47000000D03*
X103000000Y-45000000D03*
D35*
X82260000Y-44860000D03*
X82290000Y-45660000D03*
D34*
X102000000Y-45000000D03*
D35*
X79260000Y-49790000D03*
D34*
X105000000Y-46000000D03*
D35*
X79500000Y-53780000D03*
X79230000Y-49220000D03*
X80630000Y-49470000D03*
X80200000Y-48210000D03*
X79400000Y-47790000D03*
D34*
X104000000Y-45000000D03*
D33*
%TO.N,+5V*%
X95550000Y-50690000D03*
X103950000Y-52000000D03*
D35*
%TO.N,+3.3V*%
X85750000Y-58500000D03*
D33*
X96250000Y-57600000D03*
D35*
X91000000Y-57750000D03*
D34*
%TO.N,+6V*%
X90100000Y-56450000D03*
D35*
X88250000Y-48000000D03*
D34*
X85400000Y-57200000D03*
D33*
X101950000Y-54450000D03*
D35*
%TO.N,GHA*%
X87200000Y-53900000D03*
X78800000Y-55500000D03*
D34*
%TO.N,PHASE_A*%
X75000000Y-59000000D03*
X75000000Y-57000000D03*
X72000000Y-58000000D03*
X74000000Y-57000000D03*
X73000000Y-58000000D03*
D35*
X87800000Y-57700000D03*
D34*
X73000000Y-57000000D03*
X76000000Y-59000000D03*
X76000000Y-57000000D03*
X74000000Y-59000000D03*
X73000000Y-59000000D03*
X72000000Y-59000000D03*
X76000000Y-58000000D03*
X72000000Y-57000000D03*
X74000000Y-58000000D03*
X75000000Y-58000000D03*
D35*
X81500000Y-59500000D03*
%TO.N,GHC*%
X79000000Y-48500000D03*
X82800000Y-54300000D03*
D34*
%TO.N,PHASE_C*%
X73000000Y-46000000D03*
X75000000Y-46000000D03*
X74000000Y-47000000D03*
X74000000Y-45000000D03*
X75000000Y-47000000D03*
X74000000Y-46000000D03*
X72000000Y-46000000D03*
D35*
X76345000Y-48399050D03*
D34*
X76000000Y-47000000D03*
X73000000Y-45000000D03*
D35*
X94375000Y-50625000D03*
D34*
X75000000Y-45000000D03*
X76000000Y-45000000D03*
X73000000Y-47000000D03*
X72000000Y-47000000D03*
X72000000Y-45000000D03*
X76000000Y-46000000D03*
%TO.N,PHASE_B*%
X76000000Y-52000000D03*
X76000000Y-51000000D03*
X73000000Y-52000000D03*
X75000000Y-52000000D03*
X74000000Y-53000000D03*
X73000000Y-51000000D03*
X72000000Y-53000000D03*
X74000000Y-52000000D03*
X74000000Y-51000000D03*
D35*
X84000000Y-57750000D03*
D34*
X75000000Y-51000000D03*
X73000000Y-53000000D03*
X72000000Y-51000000D03*
X75000000Y-53000000D03*
X76000000Y-53000000D03*
X72000000Y-52000000D03*
D35*
X77750000Y-49500000D03*
%TO.N,GHB*%
X85000000Y-55325000D03*
X78900000Y-54500000D03*
%TO.N,GLC*%
X81951250Y-46648750D03*
X82060000Y-50500000D03*
%TO.N,BEMF_REF*%
X86800000Y-54500000D03*
X89485485Y-53285485D03*
%TO.N,SWDIO*%
X95800000Y-58700000D03*
X90700000Y-49400000D03*
%TO.N,SWCLK*%
X91700000Y-49300000D03*
X93800000Y-58700000D03*
%TO.N,INPUT*%
X103800000Y-55500000D03*
X94360000Y-57420000D03*
%TO.N,LA*%
X87600000Y-50100000D03*
%TO.N,LB*%
X85415000Y-48985000D03*
%TO.N,LC*%
X84940000Y-49540000D03*
%TO.N,HC*%
X89100000Y-51175000D03*
%TO.N,HB*%
X89800000Y-51300000D03*
%TO.N,HA*%
X90400000Y-51700000D03*
%TD*%
D36*
%TO.N,VDC*%
X100230000Y-46300000D02*
X101700000Y-46300000D01*
X99137500Y-46300000D02*
X100230000Y-46300000D01*
X102450000Y-50000000D02*
X102450000Y-48517500D01*
X97320000Y-45980000D02*
X96940000Y-46360000D01*
X101700000Y-46300000D02*
X102000000Y-46000000D01*
X96940000Y-46360000D02*
X96940000Y-47470000D01*
X100420000Y-50000000D02*
X102450000Y-50000000D01*
X98887500Y-46050000D02*
X99137500Y-46300000D01*
X98887500Y-46050000D02*
X98250000Y-46050000D01*
X97464999Y-45980000D02*
X97320000Y-45980000D01*
X104000000Y-46000000D02*
X102432500Y-47567500D01*
X96940000Y-47470000D02*
X97350000Y-47880000D01*
X97350000Y-47880000D02*
X98102499Y-47880000D01*
X97280000Y-49460000D02*
X99880000Y-49460000D01*
X102432500Y-47567500D02*
X102432500Y-48500000D01*
X102450000Y-48517500D02*
X102432500Y-48500000D01*
X99880000Y-49460000D02*
X100420000Y-50000000D01*
%TO.N,+5V*%
X94764999Y-46850000D02*
X95550000Y-46850000D01*
X95827499Y-47127499D02*
X95827499Y-47880000D01*
X95550000Y-46850000D02*
X95827499Y-47127499D01*
X95827499Y-47880000D02*
X95827499Y-50412501D01*
X94084999Y-46170000D02*
X94764999Y-46850000D01*
X95827499Y-50412501D02*
X95550000Y-50690000D01*
X103950000Y-52000000D02*
X105500000Y-52000000D01*
%TO.N,+3.3V*%
X96500000Y-56900000D02*
X96500000Y-57350000D01*
X96500000Y-57350000D02*
X96250000Y-57600000D01*
X95025000Y-56362500D02*
X95000000Y-56387500D01*
X97725000Y-56900000D02*
X96500000Y-56900000D01*
X96250000Y-56362500D02*
X95025000Y-56362500D01*
X96500000Y-56900000D02*
X96250000Y-56650000D01*
X96250000Y-56650000D02*
X96250000Y-56362500D01*
%TO.N,+6V*%
X100067500Y-56967500D02*
X100000000Y-56900000D01*
D37*
X85000000Y-56800000D02*
X85400000Y-57200000D01*
X90050000Y-56500000D02*
X89400000Y-56500000D01*
D36*
X101950000Y-54450000D02*
X101400000Y-55000000D01*
D37*
X90650000Y-56150000D02*
X90650000Y-53350000D01*
D36*
X100067500Y-58500000D02*
X100067500Y-56967500D01*
D37*
X90100000Y-56450000D02*
X90350000Y-56450000D01*
D36*
X88250000Y-48000000D02*
X88250000Y-47750000D01*
D38*
X84367500Y-49367500D02*
X84367500Y-48400000D01*
D36*
X84750000Y-47250000D02*
X84367500Y-47632500D01*
X102450000Y-53950000D02*
X101950000Y-54450000D01*
D38*
X84440000Y-49440000D02*
X84367500Y-49367500D01*
D36*
X99337501Y-56900000D02*
X98887500Y-56449999D01*
D37*
X90350000Y-56450000D02*
X90650000Y-56150000D01*
X83900000Y-56800000D02*
X85000000Y-56800000D01*
D36*
X101400000Y-55000000D02*
X100000000Y-55000000D01*
D37*
X90100000Y-56450000D02*
X90050000Y-56500000D01*
D36*
X100000000Y-56900000D02*
X99337501Y-56900000D01*
X98887500Y-56449999D02*
X98887500Y-55450001D01*
X84367500Y-47632500D02*
X84367500Y-48000000D01*
X88250000Y-47750000D02*
X87750000Y-47250000D01*
X87750000Y-47250000D02*
X84750000Y-47250000D01*
X98887500Y-55450001D02*
X99337501Y-55000000D01*
D37*
X90650000Y-53350000D02*
X90200000Y-52900000D01*
D36*
X84367500Y-48000000D02*
X84367500Y-49000000D01*
D38*
X84440000Y-50310000D02*
X84440000Y-49440000D01*
D37*
X89400000Y-56500000D02*
X89000000Y-56100000D01*
D36*
X99337501Y-55000000D02*
X100000000Y-55000000D01*
X102450000Y-53000000D02*
X102450000Y-53950000D01*
D37*
%TO.N,Net-(D1-K)*%
X86630000Y-53000000D02*
X88700000Y-53000000D01*
X88800000Y-52900000D02*
X88800000Y-53832500D01*
X88800000Y-53832500D02*
X89267500Y-54300000D01*
X88700000Y-53000000D02*
X88800000Y-52900000D01*
%TO.N,Net-(U6-VS1)*%
X87332500Y-55100000D02*
X86300000Y-55100000D01*
X85940000Y-54740000D02*
X85940000Y-54190000D01*
X88132500Y-54300000D02*
X87332500Y-55100000D01*
X86300000Y-55100000D02*
X85940000Y-54740000D01*
%TO.N,Net-(D2-K)*%
X86500000Y-56047182D02*
X85440000Y-54987182D01*
X87600000Y-56100000D02*
X86500000Y-56100000D01*
X86500000Y-56100000D02*
X86500000Y-56047182D01*
X85440000Y-54987182D02*
X85440000Y-54190000D01*
%TO.N,Net-(U6-VS2)*%
X85365000Y-56100000D02*
X84800000Y-56100000D01*
X84440000Y-55740000D02*
X84440000Y-54190000D01*
X84800000Y-56100000D02*
X84440000Y-55740000D01*
%TO.N,Net-(D3-K)*%
X83667500Y-55500000D02*
X83940000Y-55227500D01*
X82500000Y-56667500D02*
X82500000Y-56800000D01*
X83940000Y-55227500D02*
X83940000Y-54190000D01*
X83667500Y-55500000D02*
X82500000Y-56667500D01*
%TO.N,Net-(U6-VS3)*%
X82532500Y-55500000D02*
X82300000Y-55500000D01*
X81800000Y-53500000D02*
X82750000Y-53500000D01*
X81700000Y-53600000D02*
X81800000Y-53500000D01*
X81700000Y-54900000D02*
X81700000Y-53600000D01*
X82300000Y-55500000D02*
X81700000Y-54900000D01*
%TO.N,Net-(D4-K)*%
X94560000Y-54010000D02*
X95240000Y-53330000D01*
X94560000Y-54805000D02*
X94560000Y-54010000D01*
X95240000Y-53330000D02*
X96342500Y-53330000D01*
X96342500Y-53330000D02*
X96352500Y-53320000D01*
D39*
%TO.N,GHA*%
X87200000Y-53900000D02*
X87030000Y-53900000D01*
X87030000Y-53900000D02*
X86630000Y-53500000D01*
%TO.N,PHASE_A*%
X78400000Y-59400000D02*
X78500000Y-59500000D01*
X78500000Y-59500000D02*
X81500000Y-59500000D01*
%TO.N,GHC*%
X83440000Y-54190000D02*
X82910000Y-54190000D01*
X82910000Y-54190000D02*
X82800000Y-54300000D01*
%TO.N,PHASE_C*%
X78100950Y-48399050D02*
X78400000Y-48100000D01*
X78400000Y-48100000D02*
X78400000Y-47500000D01*
X76345000Y-48399050D02*
X78100950Y-48399050D01*
%TO.N,PHASE_B*%
X77750000Y-49500000D02*
X77800000Y-49500000D01*
X78400000Y-50100000D02*
X78400000Y-50650000D01*
X77800000Y-49500000D02*
X78400000Y-50100000D01*
%TO.N,GHB*%
X84940000Y-54190000D02*
X84940000Y-55265000D01*
X84940000Y-55265000D02*
X85000000Y-55325000D01*
%TO.N,GLA*%
X81200000Y-53400000D02*
X81600000Y-53000000D01*
X81600000Y-53000000D02*
X82750000Y-53000000D01*
X81200000Y-55802500D02*
X81200000Y-53400000D01*
%TO.N,GLB*%
X81902500Y-52500000D02*
X82750000Y-52500000D01*
X81200000Y-51797500D02*
X81902500Y-52500000D01*
%TO.N,GLC*%
X82060000Y-50500000D02*
X82060000Y-51725000D01*
X82335000Y-52000000D02*
X82750000Y-52000000D01*
X82060000Y-51725000D02*
X82335000Y-52000000D01*
X81200000Y-45897500D02*
X81951250Y-46648750D01*
%TO.N,INPUT*%
X105200000Y-55500000D02*
X105500000Y-55200000D01*
X105500000Y-55200000D02*
X105500000Y-54500000D01*
X103800000Y-55500000D02*
X105200000Y-55500000D01*
%TO.N,LA*%
X85940000Y-50310000D02*
X85950000Y-50300000D01*
X87400000Y-50300000D02*
X87600000Y-50100000D01*
X85950000Y-50300000D02*
X87400000Y-50300000D01*
%TO.N,LB*%
X85415000Y-48985000D02*
X85415000Y-50285000D01*
X85415000Y-50285000D02*
X85440000Y-50310000D01*
%TO.N,LC*%
X84940000Y-49540000D02*
X84940000Y-50310000D01*
%TO.N,HC*%
X88925000Y-51000000D02*
X86630000Y-51000000D01*
X89100000Y-51175000D02*
X88925000Y-51000000D01*
%TO.N,HB*%
X89450000Y-51650000D02*
X88350000Y-51650000D01*
X88350000Y-51650000D02*
X88200000Y-51500000D01*
X89800000Y-51300000D02*
X89450000Y-51650000D01*
X88200000Y-51500000D02*
X86630000Y-51500000D01*
%TO.N,HA*%
X90400000Y-51700000D02*
X90100000Y-52000000D01*
X90100000Y-52000000D02*
X86630000Y-52000000D01*
%TO.N,Net-(Q4-G)*%
X81147500Y-57050000D02*
X81200000Y-56997500D01*
X80100000Y-57050000D02*
X81147500Y-57050000D01*
%TO.N,Net-(Q5-G)*%
X80100000Y-50800000D02*
X80100000Y-51150000D01*
X80297500Y-50602500D02*
X80100000Y-50800000D01*
X81200000Y-50602500D02*
X80297500Y-50602500D01*
%TO.N,Net-(Q6-G)*%
X80100000Y-45150000D02*
X80752500Y-45150000D01*
X80752500Y-45150000D02*
X81200000Y-44702500D01*
%TD*%
%TA.AperFunction,Conductor*%
%TO.N,GND*%
G36*
X80694852Y-44314852D02*
G01*
X80709204Y-44349500D01*
X80704225Y-44371020D01*
X80689710Y-44400710D01*
X80689709Y-44400714D01*
X80679500Y-44470783D01*
X80679500Y-44813087D01*
X80665150Y-44847733D01*
X80652736Y-44860147D01*
X80618090Y-44874500D01*
X80541483Y-44874500D01*
X80506835Y-44860148D01*
X80481267Y-44834580D01*
X80481266Y-44834579D01*
X80385335Y-44792221D01*
X80385329Y-44792219D01*
X80361897Y-44789501D01*
X80361882Y-44789500D01*
X80361880Y-44789500D01*
X79838120Y-44789500D01*
X79838117Y-44789500D01*
X79838102Y-44789501D01*
X79814670Y-44792219D01*
X79814664Y-44792221D01*
X79718731Y-44834580D01*
X79644580Y-44908731D01*
X79602221Y-45004664D01*
X79602219Y-45004670D01*
X79599501Y-45028102D01*
X79599500Y-45028122D01*
X79599500Y-45271877D01*
X79599501Y-45271897D01*
X79602219Y-45295329D01*
X79602221Y-45295335D01*
X79644580Y-45391268D01*
X79718731Y-45465419D01*
X79814664Y-45507778D01*
X79814670Y-45507780D01*
X79838102Y-45510498D01*
X79838106Y-45510498D01*
X79838120Y-45510500D01*
X79838123Y-45510500D01*
X80361877Y-45510500D01*
X80361880Y-45510500D01*
X80363047Y-45510364D01*
X80385329Y-45507780D01*
X80385331Y-45507779D01*
X80385333Y-45507779D01*
X80481267Y-45465420D01*
X80506835Y-45439851D01*
X80541482Y-45425500D01*
X80694426Y-45425500D01*
X80729074Y-45439852D01*
X80743426Y-45474500D01*
X80738447Y-45496018D01*
X80719542Y-45534690D01*
X80689709Y-45595713D01*
X80689709Y-45595714D01*
X80679500Y-45665783D01*
X80679500Y-46129216D01*
X80689708Y-46199285D01*
X80689708Y-46199286D01*
X80742549Y-46307372D01*
X80742550Y-46307374D01*
X80742551Y-46307375D01*
X80827625Y-46392449D01*
X80935714Y-46445291D01*
X81005785Y-46455500D01*
X81348088Y-46455499D01*
X81382736Y-46469851D01*
X81531511Y-46618626D01*
X81545260Y-46645608D01*
X81553553Y-46697970D01*
X81565604Y-46774054D01*
X81565604Y-46774055D01*
X81565605Y-46774057D01*
X81565605Y-46774059D01*
X81623195Y-46887085D01*
X81623200Y-46887092D01*
X81712907Y-46976799D01*
X81712914Y-46976804D01*
X81825941Y-47034394D01*
X81825942Y-47034394D01*
X81825946Y-47034396D01*
X81951250Y-47054242D01*
X82076554Y-47034396D01*
X82076558Y-47034394D01*
X82076559Y-47034394D01*
X82189585Y-46976804D01*
X82189587Y-46976802D01*
X82189592Y-46976800D01*
X82279300Y-46887092D01*
X82292282Y-46861614D01*
X82336894Y-46774059D01*
X82336894Y-46774057D01*
X82336896Y-46774054D01*
X82356742Y-46648750D01*
X82336896Y-46523446D01*
X82336894Y-46523442D01*
X82336894Y-46523440D01*
X82279304Y-46410414D01*
X82279299Y-46410407D01*
X82189592Y-46320700D01*
X82189585Y-46320695D01*
X82076558Y-46263105D01*
X82076555Y-46263104D01*
X82076554Y-46263104D01*
X82011868Y-46252858D01*
X81948108Y-46242760D01*
X81921126Y-46229011D01*
X81734851Y-46042736D01*
X81720499Y-46008088D01*
X81720499Y-45665783D01*
X81710291Y-45595714D01*
X81710291Y-45595713D01*
X81657450Y-45487627D01*
X81657449Y-45487626D01*
X81657449Y-45487625D01*
X81572375Y-45402551D01*
X81464286Y-45349709D01*
X81455903Y-45348487D01*
X81423688Y-45329290D01*
X81414482Y-45292934D01*
X81433680Y-45260718D01*
X81455908Y-45251512D01*
X81464284Y-45250292D01*
X81464286Y-45250291D01*
X81518101Y-45223982D01*
X81572375Y-45197449D01*
X81657449Y-45112375D01*
X81710291Y-45004286D01*
X81720500Y-44934215D01*
X81720500Y-44860000D01*
X81854508Y-44860000D01*
X81874354Y-44985304D01*
X81874354Y-44985305D01*
X81874355Y-44985307D01*
X81874355Y-44985309D01*
X81931945Y-45098335D01*
X81931950Y-45098342D01*
X82021658Y-45188050D01*
X82092181Y-45223983D01*
X82116537Y-45252500D01*
X82113595Y-45289887D01*
X82092181Y-45311301D01*
X82051662Y-45331946D01*
X82051657Y-45331950D01*
X81961950Y-45421657D01*
X81961945Y-45421664D01*
X81904355Y-45534690D01*
X81904355Y-45534692D01*
X81904354Y-45534694D01*
X81904354Y-45534696D01*
X81884508Y-45660000D01*
X81904354Y-45785304D01*
X81904354Y-45785305D01*
X81904355Y-45785307D01*
X81904355Y-45785309D01*
X81961945Y-45898335D01*
X81961950Y-45898342D01*
X82051657Y-45988049D01*
X82051664Y-45988054D01*
X82164691Y-46045644D01*
X82164692Y-46045644D01*
X82164696Y-46045646D01*
X82290000Y-46065492D01*
X82415304Y-46045646D01*
X82415308Y-46045644D01*
X82415309Y-46045644D01*
X82528335Y-45988054D01*
X82528337Y-45988052D01*
X82528342Y-45988050D01*
X82618050Y-45898342D01*
X82618054Y-45898335D01*
X82675644Y-45785309D01*
X82675644Y-45785307D01*
X82675646Y-45785304D01*
X82695492Y-45660000D01*
X82675646Y-45534696D01*
X82675644Y-45534692D01*
X82675644Y-45534690D01*
X82618054Y-45421664D01*
X82618049Y-45421657D01*
X82528342Y-45331950D01*
X82528335Y-45331945D01*
X82457819Y-45296016D01*
X82433462Y-45267499D01*
X82436405Y-45230112D01*
X82457817Y-45208698D01*
X82498342Y-45188050D01*
X82588050Y-45098342D01*
X82590832Y-45092882D01*
X82645644Y-44985309D01*
X82645644Y-44985307D01*
X82645646Y-44985304D01*
X82665492Y-44860000D01*
X82645646Y-44734696D01*
X82645644Y-44734692D01*
X82645644Y-44734690D01*
X82588054Y-44621664D01*
X82588049Y-44621657D01*
X82498342Y-44531950D01*
X82498335Y-44531945D01*
X82385308Y-44474355D01*
X82385305Y-44474354D01*
X82385304Y-44474354D01*
X82260000Y-44454508D01*
X82134696Y-44474354D01*
X82134694Y-44474354D01*
X82134692Y-44474355D01*
X82134690Y-44474355D01*
X82021664Y-44531945D01*
X82021657Y-44531950D01*
X81931950Y-44621657D01*
X81931945Y-44621664D01*
X81874355Y-44734690D01*
X81874355Y-44734692D01*
X81874354Y-44734694D01*
X81874354Y-44734696D01*
X81854508Y-44860000D01*
X81720500Y-44860000D01*
X81720499Y-44470786D01*
X81710291Y-44400714D01*
X81702192Y-44384148D01*
X81695775Y-44371021D01*
X81693451Y-44333590D01*
X81718275Y-44305479D01*
X81739796Y-44300500D01*
X101310216Y-44300500D01*
X101344864Y-44314852D01*
X101359216Y-44349500D01*
X101344864Y-44384148D01*
X101241890Y-44487122D01*
X101241888Y-44487123D01*
X101126764Y-44657220D01*
X101045908Y-44846035D01*
X101002249Y-45046735D01*
X101002247Y-45046749D01*
X100999500Y-45092856D01*
X100999500Y-45800500D01*
X100985148Y-45835148D01*
X100950500Y-45849500D01*
X100913645Y-45849500D01*
X100878997Y-45835148D01*
X100867395Y-45816685D01*
X100859116Y-45793025D01*
X100859114Y-45793023D01*
X100859114Y-45793021D01*
X100780711Y-45686788D01*
X100674477Y-45608385D01*
X100674475Y-45608384D01*
X100637069Y-45595294D01*
X100549851Y-45564775D01*
X100549842Y-45564774D01*
X100520267Y-45562001D01*
X100520266Y-45562000D01*
X100520256Y-45562000D01*
X99939744Y-45562000D01*
X99939734Y-45562000D01*
X99939732Y-45562001D01*
X99910157Y-45564774D01*
X99910148Y-45564775D01*
X99785522Y-45608385D01*
X99679288Y-45686788D01*
X99600885Y-45793021D01*
X99592605Y-45816685D01*
X99567615Y-45844648D01*
X99546355Y-45849500D01*
X99344399Y-45849500D01*
X99309751Y-45835148D01*
X99164114Y-45689511D01*
X99061390Y-45630202D01*
X99061387Y-45630201D01*
X99030783Y-45622001D01*
X99002791Y-45614500D01*
X98946811Y-45599500D01*
X98946809Y-45599500D01*
X98900476Y-45599500D01*
X98865828Y-45585148D01*
X98821483Y-45540803D01*
X98821482Y-45540802D01*
X98753930Y-45507778D01*
X98716395Y-45489428D01*
X98716393Y-45489427D01*
X98648261Y-45479500D01*
X98648259Y-45479500D01*
X97556739Y-45479500D01*
X97556737Y-45479500D01*
X97488606Y-45489427D01*
X97488602Y-45489428D01*
X97416819Y-45524521D01*
X97395299Y-45529500D01*
X97260689Y-45529500D01*
X97218508Y-45540803D01*
X97186047Y-45549501D01*
X97146113Y-45560200D01*
X97146111Y-45560201D01*
X97043385Y-45619511D01*
X97043385Y-45619512D01*
X96774147Y-45888750D01*
X96739499Y-45903102D01*
X96704851Y-45888750D01*
X96690499Y-45854102D01*
X96690499Y-45796738D01*
X96687605Y-45776884D01*
X96680572Y-45728607D01*
X96629197Y-45623517D01*
X96546482Y-45540802D01*
X96478930Y-45507778D01*
X96441395Y-45489428D01*
X96441393Y-45489427D01*
X96373261Y-45479500D01*
X96373259Y-45479500D01*
X95281739Y-45479500D01*
X95281737Y-45479500D01*
X95213604Y-45489427D01*
X95213602Y-45489428D01*
X95108518Y-45540801D01*
X95108514Y-45540803D01*
X95025802Y-45623515D01*
X95025800Y-45623519D01*
X94974427Y-45728603D01*
X94974426Y-45728605D01*
X94964499Y-45796738D01*
X94964499Y-46163261D01*
X94973167Y-46222749D01*
X94974426Y-46231393D01*
X95018085Y-46320700D01*
X95022133Y-46328979D01*
X95024457Y-46366410D01*
X94999633Y-46394521D01*
X94978112Y-46399500D01*
X94971898Y-46399500D01*
X94937250Y-46385148D01*
X94774851Y-46222749D01*
X94760499Y-46188101D01*
X94760499Y-45817253D01*
X94760499Y-45817244D01*
X94757724Y-45787651D01*
X94756904Y-45785309D01*
X94737063Y-45728607D01*
X94714115Y-45663025D01*
X94714113Y-45663022D01*
X94714114Y-45663022D01*
X94635710Y-45556788D01*
X94529476Y-45478385D01*
X94529474Y-45478384D01*
X94492068Y-45465294D01*
X94404850Y-45434775D01*
X94404841Y-45434774D01*
X94375266Y-45432001D01*
X94375265Y-45432000D01*
X94375255Y-45432000D01*
X93794743Y-45432000D01*
X93794733Y-45432000D01*
X93794731Y-45432001D01*
X93765156Y-45434774D01*
X93765147Y-45434775D01*
X93640521Y-45478385D01*
X93534287Y-45556788D01*
X93455884Y-45663022D01*
X93412274Y-45787648D01*
X93412273Y-45787657D01*
X93409500Y-45817232D01*
X93409499Y-45817253D01*
X93409499Y-46522746D01*
X93409500Y-46522767D01*
X93412273Y-46552342D01*
X93412274Y-46552351D01*
X93441210Y-46635043D01*
X93455883Y-46676975D01*
X93455884Y-46676977D01*
X93455883Y-46676977D01*
X93534287Y-46783211D01*
X93640521Y-46861614D01*
X93640524Y-46861616D01*
X93765150Y-46905225D01*
X93794743Y-46908000D01*
X94165600Y-46908000D01*
X94200248Y-46922352D01*
X94488385Y-47210489D01*
X94591110Y-47269798D01*
X94591111Y-47269798D01*
X94591112Y-47269799D01*
X94599368Y-47272011D01*
X94641861Y-47283397D01*
X94705688Y-47300500D01*
X94705690Y-47300500D01*
X95183710Y-47300500D01*
X95218358Y-47314852D01*
X95232710Y-47349500D01*
X95218358Y-47384148D01*
X95205231Y-47393521D01*
X95108518Y-47440801D01*
X95108514Y-47440803D01*
X95025802Y-47523515D01*
X95025800Y-47523519D01*
X94974427Y-47628603D01*
X94974426Y-47628605D01*
X94964499Y-47696738D01*
X94964499Y-48063261D01*
X94974426Y-48131394D01*
X94974427Y-48131396D01*
X94998621Y-48180885D01*
X95025801Y-48236483D01*
X95108516Y-48319198D01*
X95213606Y-48370573D01*
X95261883Y-48377606D01*
X95281737Y-48380500D01*
X95281739Y-48380500D01*
X95327999Y-48380500D01*
X95362647Y-48394852D01*
X95376999Y-48429500D01*
X95376999Y-50024282D01*
X95362647Y-50058930D01*
X95339727Y-50071858D01*
X95317633Y-50077304D01*
X95177760Y-50150716D01*
X95059520Y-50255466D01*
X95059516Y-50255471D01*
X94969780Y-50385475D01*
X94913763Y-50533180D01*
X94894722Y-50690000D01*
X94913763Y-50846819D01*
X94969780Y-50994524D01*
X95007070Y-51048547D01*
X95059517Y-51124530D01*
X95059519Y-51124531D01*
X95059520Y-51124533D01*
X95116139Y-51174692D01*
X95177760Y-51229283D01*
X95317635Y-51302696D01*
X95471015Y-51340500D01*
X95471016Y-51340500D01*
X95628983Y-51340500D01*
X95628985Y-51340500D01*
X95782365Y-51302696D01*
X95922240Y-51229283D01*
X96040483Y-51124530D01*
X96130220Y-50994523D01*
X96186237Y-50846818D01*
X96205278Y-50690000D01*
X96204156Y-50680763D01*
X96210363Y-50650359D01*
X96247298Y-50586388D01*
X96261554Y-50533182D01*
X96274292Y-50485644D01*
X96277999Y-50471811D01*
X96277999Y-48429500D01*
X96292351Y-48394852D01*
X96326999Y-48380500D01*
X96373261Y-48380500D01*
X96390589Y-48377974D01*
X96441392Y-48370573D01*
X96546482Y-48319198D01*
X96629197Y-48236483D01*
X96680572Y-48131393D01*
X96690499Y-48063260D01*
X96690499Y-47975898D01*
X96704851Y-47941250D01*
X96739499Y-47926898D01*
X96774147Y-47941250D01*
X97073387Y-48240490D01*
X97073390Y-48240491D01*
X97073393Y-48240494D01*
X97176111Y-48299798D01*
X97176113Y-48299798D01*
X97176114Y-48299799D01*
X97204758Y-48307474D01*
X97290688Y-48330500D01*
X97290691Y-48330500D01*
X97395299Y-48330500D01*
X97416819Y-48335479D01*
X97467977Y-48360488D01*
X97488606Y-48370573D01*
X97541363Y-48378259D01*
X97556737Y-48380500D01*
X97556739Y-48380500D01*
X98648261Y-48380500D01*
X98665589Y-48377974D01*
X98716392Y-48370573D01*
X98821482Y-48319198D01*
X98904197Y-48236483D01*
X98955572Y-48131393D01*
X98965499Y-48063260D01*
X98965499Y-47696740D01*
X98955572Y-47628607D01*
X98904197Y-47523517D01*
X98821482Y-47440802D01*
X98746926Y-47404354D01*
X98716395Y-47389428D01*
X98716393Y-47389427D01*
X98648261Y-47379500D01*
X98648259Y-47379500D01*
X97556739Y-47379500D01*
X97556736Y-47379500D01*
X97519849Y-47384874D01*
X97483494Y-47375667D01*
X97478137Y-47371034D01*
X97404852Y-47297749D01*
X97390500Y-47263101D01*
X97390500Y-46566898D01*
X97404849Y-46532253D01*
X97451954Y-46485147D01*
X97486599Y-46470797D01*
X97493649Y-46471307D01*
X97550123Y-46479536D01*
X97556738Y-46480500D01*
X97556739Y-46480500D01*
X98109600Y-46480500D01*
X98122283Y-46482170D01*
X98190689Y-46500500D01*
X98190691Y-46500500D01*
X98680601Y-46500500D01*
X98715249Y-46514852D01*
X98860886Y-46660489D01*
X98898749Y-46682349D01*
X98963611Y-46719798D01*
X98963613Y-46719798D01*
X98963614Y-46719799D01*
X98992258Y-46727474D01*
X99078188Y-46750500D01*
X99078191Y-46750500D01*
X99546355Y-46750500D01*
X99581003Y-46764852D01*
X99592605Y-46783315D01*
X99600885Y-46806978D01*
X99679288Y-46913211D01*
X99765451Y-46976801D01*
X99785525Y-46991616D01*
X99910151Y-47035225D01*
X99939744Y-47038000D01*
X99939754Y-47038000D01*
X100520246Y-47038000D01*
X100520256Y-47038000D01*
X100549849Y-47035225D01*
X100674475Y-46991616D01*
X100780711Y-46913211D01*
X100786606Y-46905224D01*
X100859114Y-46806978D01*
X100859114Y-46806977D01*
X100859116Y-46806975D01*
X100867395Y-46783314D01*
X100892385Y-46755352D01*
X100913645Y-46750500D01*
X100950500Y-46750500D01*
X100985148Y-46764852D01*
X100999500Y-46799500D01*
X100999500Y-47007143D01*
X101002247Y-47053250D01*
X101002249Y-47053264D01*
X101045908Y-47253964D01*
X101126764Y-47442779D01*
X101241888Y-47612876D01*
X101387123Y-47758111D01*
X101507227Y-47839399D01*
X101557223Y-47873237D01*
X101746035Y-47954091D01*
X101943417Y-47997028D01*
X101974221Y-48018416D01*
X101982000Y-48044908D01*
X101982000Y-48559309D01*
X101997054Y-48615492D01*
X101997830Y-48618385D01*
X101999500Y-48631068D01*
X101999500Y-49306384D01*
X101985148Y-49341032D01*
X101958166Y-49354781D01*
X101921586Y-49360575D01*
X101891874Y-49365281D01*
X101891872Y-49365281D01*
X101891870Y-49365282D01*
X101771786Y-49426467D01*
X101771779Y-49426472D01*
X101676472Y-49521779D01*
X101676468Y-49521784D01*
X101675979Y-49522746D01*
X101675428Y-49523215D01*
X101674202Y-49524904D01*
X101673796Y-49524609D01*
X101647461Y-49547102D01*
X101632320Y-49549500D01*
X100626899Y-49549500D01*
X100592251Y-49535148D01*
X100156614Y-49099511D01*
X100053888Y-49040201D01*
X100053886Y-49040200D01*
X100029673Y-49033713D01*
X99999551Y-49025642D01*
X99939311Y-49009500D01*
X99939309Y-49009500D01*
X97963645Y-49009500D01*
X97928997Y-48995148D01*
X97917395Y-48976685D01*
X97915738Y-48971950D01*
X97909116Y-48953025D01*
X97909114Y-48953022D01*
X97909114Y-48953021D01*
X97830711Y-48846788D01*
X97724477Y-48768385D01*
X97724475Y-48768384D01*
X97670503Y-48749498D01*
X97599851Y-48724775D01*
X97599842Y-48724774D01*
X97570267Y-48722001D01*
X97570266Y-48722000D01*
X97570256Y-48722000D01*
X96989744Y-48722000D01*
X96989734Y-48722000D01*
X96989732Y-48722001D01*
X96960157Y-48724774D01*
X96960148Y-48724775D01*
X96835522Y-48768385D01*
X96729288Y-48846788D01*
X96650885Y-48953022D01*
X96607275Y-49077648D01*
X96607274Y-49077657D01*
X96604501Y-49107232D01*
X96604500Y-49107253D01*
X96604500Y-49812746D01*
X96604501Y-49812767D01*
X96607274Y-49842342D01*
X96607275Y-49842351D01*
X96618872Y-49875491D01*
X96650884Y-49966975D01*
X96650885Y-49966977D01*
X96650884Y-49966977D01*
X96729288Y-50073211D01*
X96834307Y-50150717D01*
X96835525Y-50151616D01*
X96960151Y-50195225D01*
X96989744Y-50198000D01*
X96989754Y-50198000D01*
X97570246Y-50198000D01*
X97570256Y-50198000D01*
X97599849Y-50195225D01*
X97724475Y-50151616D01*
X97830711Y-50073211D01*
X97851900Y-50044501D01*
X97909114Y-49966978D01*
X97909114Y-49966977D01*
X97909116Y-49966975D01*
X97917395Y-49943314D01*
X97942385Y-49915352D01*
X97963645Y-49910500D01*
X99673101Y-49910500D01*
X99707749Y-49924852D01*
X100143386Y-50360489D01*
X100143387Y-50360490D01*
X100143389Y-50360491D01*
X100150628Y-50364670D01*
X100191245Y-50388120D01*
X100246114Y-50419799D01*
X100274758Y-50427474D01*
X100360688Y-50450500D01*
X100360691Y-50450500D01*
X101632320Y-50450500D01*
X101666968Y-50464852D01*
X101675979Y-50477254D01*
X101676468Y-50478215D01*
X101676472Y-50478220D01*
X101771779Y-50573527D01*
X101771786Y-50573532D01*
X101872799Y-50625000D01*
X101891874Y-50634719D01*
X101991512Y-50650500D01*
X101991514Y-50650500D01*
X102908486Y-50650500D01*
X102908488Y-50650500D01*
X103008126Y-50634719D01*
X103108143Y-50583758D01*
X103128213Y-50573532D01*
X103128215Y-50573530D01*
X103128220Y-50573528D01*
X103223528Y-50478220D01*
X103224021Y-50477254D01*
X103270181Y-50386658D01*
X103284719Y-50358126D01*
X103300500Y-50258488D01*
X103300500Y-49741512D01*
X103284719Y-49641874D01*
X103260992Y-49595307D01*
X103223532Y-49521786D01*
X103223527Y-49521779D01*
X103128220Y-49426472D01*
X103128213Y-49426467D01*
X103008129Y-49365282D01*
X103008127Y-49365281D01*
X103008126Y-49365281D01*
X102972477Y-49359634D01*
X102941834Y-49354781D01*
X102909858Y-49335185D01*
X102900500Y-49306384D01*
X102900500Y-48458189D01*
X102884670Y-48399113D01*
X102883000Y-48386430D01*
X102883000Y-48049500D01*
X102897352Y-48014852D01*
X102932000Y-48000500D01*
X105907114Y-48000500D01*
X105907118Y-48000500D01*
X105907123Y-48000499D01*
X105907143Y-48000499D01*
X105953250Y-47997752D01*
X105953252Y-47997751D01*
X105953263Y-47997751D01*
X106153965Y-47954091D01*
X106342777Y-47873237D01*
X106512875Y-47758112D01*
X106512876Y-47758111D01*
X106512878Y-47758110D01*
X106615852Y-47655136D01*
X106650500Y-47640784D01*
X106685148Y-47655136D01*
X106699500Y-47689784D01*
X106699500Y-51451493D01*
X106685148Y-51486141D01*
X106650500Y-51500493D01*
X106615852Y-51486141D01*
X106611075Y-51480590D01*
X106572150Y-51427849D01*
X106462885Y-51347208D01*
X106462876Y-51347204D01*
X106334698Y-51302353D01*
X106304275Y-51299500D01*
X106304266Y-51299500D01*
X104695734Y-51299500D01*
X104695724Y-51299500D01*
X104665301Y-51302353D01*
X104665300Y-51302353D01*
X104537123Y-51347204D01*
X104537114Y-51347208D01*
X104427850Y-51427848D01*
X104403244Y-51461188D01*
X104371121Y-51480543D01*
X104334721Y-51471515D01*
X104331331Y-51468771D01*
X104322240Y-51460717D01*
X104322239Y-51460716D01*
X104182364Y-51387303D01*
X104066788Y-51358817D01*
X104028985Y-51349500D01*
X103871015Y-51349500D01*
X103840687Y-51356975D01*
X103717635Y-51387303D01*
X103577760Y-51460716D01*
X103459520Y-51565466D01*
X103459516Y-51565471D01*
X103369780Y-51695475D01*
X103313763Y-51843180D01*
X103294722Y-52000000D01*
X103313763Y-52156819D01*
X103369780Y-52304524D01*
X103407485Y-52359148D01*
X103459517Y-52434530D01*
X103459519Y-52434531D01*
X103459520Y-52434533D01*
X103528569Y-52495704D01*
X103577760Y-52539283D01*
X103717635Y-52612696D01*
X103871015Y-52650500D01*
X103871016Y-52650500D01*
X104028983Y-52650500D01*
X104028985Y-52650500D01*
X104182365Y-52612696D01*
X104322240Y-52539283D01*
X104331326Y-52531232D01*
X104366777Y-52518998D01*
X104400496Y-52535415D01*
X104403238Y-52538802D01*
X104410400Y-52548506D01*
X104427851Y-52572152D01*
X104537114Y-52652791D01*
X104537117Y-52652792D01*
X104537118Y-52652793D01*
X104537120Y-52652793D01*
X104537123Y-52652795D01*
X104576976Y-52666740D01*
X104665301Y-52697646D01*
X104695734Y-52700500D01*
X104695744Y-52700500D01*
X106304256Y-52700500D01*
X106304266Y-52700500D01*
X106334699Y-52697646D01*
X106462882Y-52652793D01*
X106480512Y-52639782D01*
X106572150Y-52572150D01*
X106611075Y-52519409D01*
X106643197Y-52500053D01*
X106679597Y-52509081D01*
X106698953Y-52541203D01*
X106699500Y-52548506D01*
X106699500Y-53951493D01*
X106685148Y-53986141D01*
X106650500Y-54000493D01*
X106615852Y-53986141D01*
X106611075Y-53980590D01*
X106572150Y-53927849D01*
X106462885Y-53847208D01*
X106462876Y-53847204D01*
X106334698Y-53802353D01*
X106304275Y-53799500D01*
X106304266Y-53799500D01*
X104695734Y-53799500D01*
X104695724Y-53799500D01*
X104665301Y-53802353D01*
X104665300Y-53802353D01*
X104537123Y-53847204D01*
X104537114Y-53847208D01*
X104427849Y-53927849D01*
X104347208Y-54037114D01*
X104347204Y-54037123D01*
X104302353Y-54165300D01*
X104302353Y-54165301D01*
X104299500Y-54195724D01*
X104299500Y-54804275D01*
X104302353Y-54834698D01*
X104302353Y-54834699D01*
X104347204Y-54962876D01*
X104347208Y-54962885D01*
X104427849Y-55072150D01*
X104514465Y-55136075D01*
X104533821Y-55168197D01*
X104524793Y-55204597D01*
X104492671Y-55223953D01*
X104485368Y-55224500D01*
X104111188Y-55224500D01*
X104076540Y-55210148D01*
X104038342Y-55171950D01*
X104038335Y-55171945D01*
X103925308Y-55114355D01*
X103925305Y-55114354D01*
X103925304Y-55114354D01*
X103800000Y-55094508D01*
X103674696Y-55114354D01*
X103674694Y-55114354D01*
X103674692Y-55114355D01*
X103674690Y-55114355D01*
X103561664Y-55171945D01*
X103561657Y-55171950D01*
X103471950Y-55261657D01*
X103471945Y-55261664D01*
X103414355Y-55374690D01*
X103414355Y-55374692D01*
X103414354Y-55374694D01*
X103414354Y-55374696D01*
X103394508Y-55500000D01*
X103414354Y-55625304D01*
X103414354Y-55625305D01*
X103414355Y-55625307D01*
X103414355Y-55625309D01*
X103471945Y-55738335D01*
X103471950Y-55738342D01*
X103561657Y-55828049D01*
X103561664Y-55828054D01*
X103674691Y-55885644D01*
X103674692Y-55885644D01*
X103674696Y-55885646D01*
X103800000Y-55905492D01*
X103925304Y-55885646D01*
X103925308Y-55885644D01*
X103925309Y-55885644D01*
X104038335Y-55828054D01*
X104038337Y-55828052D01*
X104038342Y-55828050D01*
X104076540Y-55789852D01*
X104111188Y-55775500D01*
X105254798Y-55775500D01*
X105254800Y-55775500D01*
X105356058Y-55733557D01*
X105433557Y-55656058D01*
X105433556Y-55656058D01*
X105733557Y-55356059D01*
X105752114Y-55311258D01*
X105775500Y-55254800D01*
X105775500Y-55249500D01*
X105789852Y-55214852D01*
X105824500Y-55200500D01*
X106304256Y-55200500D01*
X106304266Y-55200500D01*
X106334699Y-55197646D01*
X106462882Y-55152793D01*
X106503068Y-55123135D01*
X106572150Y-55072150D01*
X106611075Y-55019409D01*
X106643197Y-55000053D01*
X106679597Y-55009081D01*
X106698953Y-55041203D01*
X106699500Y-55048506D01*
X106699500Y-58997593D01*
X106699264Y-59002396D01*
X106686532Y-59131663D01*
X106684658Y-59141084D01*
X106647655Y-59263067D01*
X106643979Y-59271942D01*
X106583887Y-59384364D01*
X106578550Y-59392350D01*
X106497681Y-59490889D01*
X106490889Y-59497681D01*
X106392350Y-59578550D01*
X106384364Y-59583887D01*
X106271942Y-59643979D01*
X106263067Y-59647655D01*
X106141084Y-59684658D01*
X106131663Y-59686532D01*
X106002396Y-59699264D01*
X105997593Y-59699500D01*
X81927802Y-59699500D01*
X81893154Y-59685148D01*
X81878802Y-59650500D01*
X81884143Y-59628254D01*
X81884294Y-59627956D01*
X81885646Y-59625304D01*
X81905492Y-59500000D01*
X81885646Y-59374696D01*
X81885644Y-59374692D01*
X81885644Y-59374690D01*
X81828054Y-59261664D01*
X81828049Y-59261657D01*
X81738342Y-59171950D01*
X81738335Y-59171945D01*
X81625308Y-59114355D01*
X81625305Y-59114354D01*
X81625304Y-59114354D01*
X81500000Y-59094508D01*
X81374696Y-59114354D01*
X81374694Y-59114354D01*
X81374692Y-59114355D01*
X81374690Y-59114355D01*
X81261664Y-59171945D01*
X81261657Y-59171950D01*
X81223460Y-59210148D01*
X81188812Y-59224500D01*
X79349500Y-59224500D01*
X79314852Y-59210148D01*
X79300500Y-59175500D01*
X79300500Y-58500000D01*
X85344508Y-58500000D01*
X85364354Y-58625304D01*
X85364354Y-58625305D01*
X85364355Y-58625307D01*
X85364355Y-58625309D01*
X85421945Y-58738335D01*
X85421950Y-58738342D01*
X85511657Y-58828049D01*
X85511664Y-58828054D01*
X85624691Y-58885644D01*
X85624692Y-58885644D01*
X85624696Y-58885646D01*
X85750000Y-58905492D01*
X85875304Y-58885646D01*
X85875308Y-58885644D01*
X85875309Y-58885644D01*
X85988335Y-58828054D01*
X85988337Y-58828052D01*
X85988342Y-58828050D01*
X86078050Y-58738342D01*
X86078054Y-58738335D01*
X86097587Y-58700000D01*
X93394508Y-58700000D01*
X93414354Y-58825304D01*
X93414354Y-58825305D01*
X93414355Y-58825307D01*
X93414355Y-58825309D01*
X93471945Y-58938335D01*
X93471950Y-58938342D01*
X93561657Y-59028049D01*
X93561664Y-59028054D01*
X93674691Y-59085644D01*
X93674692Y-59085644D01*
X93674696Y-59085646D01*
X93800000Y-59105492D01*
X93925304Y-59085646D01*
X93925308Y-59085644D01*
X93925309Y-59085644D01*
X94038335Y-59028054D01*
X94038337Y-59028052D01*
X94038342Y-59028050D01*
X94128050Y-58938342D01*
X94144788Y-58905492D01*
X94185644Y-58825309D01*
X94185644Y-58825307D01*
X94185646Y-58825304D01*
X94205492Y-58700000D01*
X95394508Y-58700000D01*
X95414354Y-58825304D01*
X95414354Y-58825305D01*
X95414355Y-58825307D01*
X95414355Y-58825309D01*
X95471945Y-58938335D01*
X95471950Y-58938342D01*
X95561657Y-59028049D01*
X95561664Y-59028054D01*
X95674691Y-59085644D01*
X95674692Y-59085644D01*
X95674696Y-59085646D01*
X95800000Y-59105492D01*
X95925304Y-59085646D01*
X95925308Y-59085644D01*
X95925309Y-59085644D01*
X96038335Y-59028054D01*
X96038337Y-59028052D01*
X96038342Y-59028050D01*
X96128050Y-58938342D01*
X96144788Y-58905492D01*
X96185644Y-58825309D01*
X96185644Y-58825307D01*
X96185646Y-58825304D01*
X96205492Y-58700000D01*
X96185646Y-58574696D01*
X96185644Y-58574692D01*
X96185644Y-58574690D01*
X96128054Y-58461664D01*
X96128049Y-58461657D01*
X96038342Y-58371950D01*
X96038335Y-58371945D01*
X95925308Y-58314355D01*
X95925305Y-58314354D01*
X95925304Y-58314354D01*
X95800000Y-58294508D01*
X95674696Y-58314354D01*
X95674694Y-58314354D01*
X95674692Y-58314355D01*
X95674690Y-58314355D01*
X95561664Y-58371945D01*
X95561657Y-58371950D01*
X95471950Y-58461657D01*
X95471945Y-58461664D01*
X95414355Y-58574690D01*
X95414355Y-58574692D01*
X95414354Y-58574694D01*
X95414354Y-58574696D01*
X95394508Y-58700000D01*
X94205492Y-58700000D01*
X94185646Y-58574696D01*
X94185644Y-58574692D01*
X94185644Y-58574690D01*
X94128054Y-58461664D01*
X94128049Y-58461657D01*
X94038342Y-58371950D01*
X94038335Y-58371945D01*
X93925308Y-58314355D01*
X93925305Y-58314354D01*
X93925304Y-58314354D01*
X93800000Y-58294508D01*
X93674696Y-58314354D01*
X93674694Y-58314354D01*
X93674692Y-58314355D01*
X93674690Y-58314355D01*
X93561664Y-58371945D01*
X93561657Y-58371950D01*
X93471950Y-58461657D01*
X93471945Y-58461664D01*
X93414355Y-58574690D01*
X93414355Y-58574692D01*
X93414354Y-58574694D01*
X93414354Y-58574696D01*
X93394508Y-58700000D01*
X86097587Y-58700000D01*
X86135644Y-58625309D01*
X86135644Y-58625307D01*
X86135646Y-58625304D01*
X86155492Y-58500000D01*
X86135646Y-58374696D01*
X86135644Y-58374692D01*
X86135644Y-58374690D01*
X86078054Y-58261664D01*
X86078049Y-58261657D01*
X85988342Y-58171950D01*
X85988335Y-58171945D01*
X85875308Y-58114355D01*
X85875305Y-58114354D01*
X85875304Y-58114354D01*
X85750000Y-58094508D01*
X85624696Y-58114354D01*
X85624694Y-58114354D01*
X85624692Y-58114355D01*
X85624690Y-58114355D01*
X85511664Y-58171945D01*
X85511657Y-58171950D01*
X85421950Y-58261657D01*
X85421945Y-58261664D01*
X85364355Y-58374690D01*
X85364355Y-58374692D01*
X85364354Y-58374694D01*
X85364354Y-58374696D01*
X85344508Y-58500000D01*
X79300500Y-58500000D01*
X79300500Y-56735255D01*
X79300500Y-56735252D01*
X79288867Y-56676769D01*
X79258783Y-56631746D01*
X79244552Y-56610447D01*
X79204795Y-56583882D01*
X79178231Y-56566133D01*
X79119748Y-56554500D01*
X79119745Y-56554500D01*
X78809500Y-56554500D01*
X78774852Y-56540148D01*
X78760500Y-56505500D01*
X78760500Y-56340000D01*
X79264508Y-56340000D01*
X79284354Y-56465304D01*
X79284354Y-56465305D01*
X79284355Y-56465307D01*
X79284355Y-56465309D01*
X79341945Y-56578335D01*
X79341950Y-56578342D01*
X79431657Y-56668049D01*
X79431664Y-56668054D01*
X79544691Y-56725644D01*
X79544692Y-56725644D01*
X79544696Y-56725646D01*
X79609576Y-56735921D01*
X79641552Y-56755516D01*
X79650307Y-56791983D01*
X79645462Y-56804159D01*
X79646414Y-56804579D01*
X79602221Y-56904664D01*
X79602219Y-56904670D01*
X79599501Y-56928102D01*
X79599500Y-56928122D01*
X79599500Y-57171877D01*
X79599501Y-57171897D01*
X79602219Y-57195329D01*
X79602221Y-57195335D01*
X79644580Y-57291268D01*
X79718731Y-57365419D01*
X79718732Y-57365419D01*
X79718733Y-57365420D01*
X79733511Y-57371945D01*
X79814664Y-57407778D01*
X79814670Y-57407780D01*
X79838102Y-57410498D01*
X79838106Y-57410498D01*
X79838120Y-57410500D01*
X79838123Y-57410500D01*
X80361877Y-57410500D01*
X80361880Y-57410500D01*
X80363047Y-57410364D01*
X80385329Y-57407780D01*
X80385331Y-57407779D01*
X80385333Y-57407779D01*
X80481267Y-57365420D01*
X80506835Y-57339851D01*
X80541482Y-57325500D01*
X80671937Y-57325500D01*
X80706585Y-57339852D01*
X80715958Y-57352979D01*
X80742548Y-57407371D01*
X80742550Y-57407374D01*
X80742551Y-57407375D01*
X80827625Y-57492449D01*
X80935714Y-57545291D01*
X81005785Y-57555500D01*
X81394214Y-57555499D01*
X81394216Y-57555499D01*
X81440928Y-57548693D01*
X81464286Y-57545291D01*
X81572375Y-57492449D01*
X81657449Y-57407375D01*
X81710291Y-57299286D01*
X81720500Y-57229215D01*
X81720499Y-56765786D01*
X81716749Y-56740047D01*
X81710291Y-56695714D01*
X81710291Y-56695713D01*
X81657450Y-56587627D01*
X81657449Y-56587626D01*
X81657449Y-56587625D01*
X81572375Y-56502551D01*
X81464286Y-56449709D01*
X81455903Y-56448487D01*
X81423688Y-56429290D01*
X81414482Y-56392934D01*
X81433680Y-56360718D01*
X81455908Y-56351512D01*
X81464284Y-56350292D01*
X81464286Y-56350291D01*
X81545063Y-56310801D01*
X81572375Y-56297449D01*
X81657449Y-56212375D01*
X81710291Y-56104286D01*
X81720500Y-56034215D01*
X81720499Y-55570786D01*
X81718844Y-55559428D01*
X81715425Y-55535955D01*
X81724632Y-55499600D01*
X81756849Y-55480403D01*
X81793204Y-55489610D01*
X81798561Y-55494243D01*
X81950148Y-55645830D01*
X81964500Y-55680478D01*
X81964500Y-55688744D01*
X81974567Y-55757839D01*
X81974567Y-55757840D01*
X82026673Y-55864425D01*
X82026675Y-55864428D01*
X82026676Y-55864429D01*
X82110571Y-55948324D01*
X82110572Y-55948324D01*
X82110574Y-55948326D01*
X82147648Y-55966450D01*
X82217160Y-56000433D01*
X82270665Y-56008228D01*
X82286256Y-56010500D01*
X82286258Y-56010500D01*
X82543022Y-56010500D01*
X82577670Y-56024852D01*
X82592022Y-56059500D01*
X82577670Y-56094148D01*
X82436670Y-56235148D01*
X82402022Y-56249500D01*
X82316738Y-56249500D01*
X82248605Y-56259427D01*
X82248603Y-56259428D01*
X82143519Y-56310801D01*
X82143515Y-56310803D01*
X82060803Y-56393515D01*
X82060801Y-56393519D01*
X82009428Y-56498603D01*
X82009427Y-56498605D01*
X81999500Y-56566738D01*
X81999500Y-57033261D01*
X82009427Y-57101394D01*
X82009428Y-57101396D01*
X82021626Y-57126347D01*
X82060802Y-57206483D01*
X82143517Y-57289198D01*
X82248607Y-57340573D01*
X82296884Y-57347606D01*
X82316738Y-57350500D01*
X82316740Y-57350500D01*
X82683262Y-57350500D01*
X82700590Y-57347974D01*
X82751393Y-57340573D01*
X82856483Y-57289198D01*
X82939198Y-57206483D01*
X82990573Y-57101393D01*
X83000500Y-57033260D01*
X83000500Y-56682977D01*
X83014852Y-56648329D01*
X83638329Y-56024852D01*
X83672977Y-56010500D01*
X83913744Y-56010500D01*
X83927753Y-56008458D01*
X83982840Y-56000433D01*
X84089429Y-55948324D01*
X84089433Y-55948319D01*
X84092733Y-55945965D01*
X84094276Y-55948127D01*
X84120572Y-55936811D01*
X84155413Y-55950686D01*
X84158691Y-55954373D01*
X84570170Y-56365852D01*
X84584522Y-56400500D01*
X84570170Y-56435148D01*
X84535522Y-56449500D01*
X84397153Y-56449500D01*
X84362505Y-56435148D01*
X84353134Y-56422024D01*
X84339198Y-56393517D01*
X84256483Y-56310802D01*
X84203938Y-56285114D01*
X84151396Y-56259428D01*
X84151394Y-56259427D01*
X84083262Y-56249500D01*
X84083260Y-56249500D01*
X83716740Y-56249500D01*
X83716738Y-56249500D01*
X83648605Y-56259427D01*
X83648603Y-56259428D01*
X83543519Y-56310801D01*
X83543515Y-56310803D01*
X83460803Y-56393515D01*
X83460801Y-56393519D01*
X83409428Y-56498603D01*
X83409427Y-56498605D01*
X83399500Y-56566738D01*
X83399500Y-57033261D01*
X83409427Y-57101394D01*
X83409428Y-57101396D01*
X83421626Y-57126347D01*
X83460802Y-57206483D01*
X83543517Y-57289198D01*
X83648607Y-57340573D01*
X83716740Y-57350500D01*
X83716757Y-57350500D01*
X83718352Y-57350616D01*
X83751876Y-57367427D01*
X83763695Y-57403019D01*
X83749470Y-57434137D01*
X83671951Y-57511656D01*
X83671945Y-57511664D01*
X83614355Y-57624690D01*
X83614355Y-57624692D01*
X83614354Y-57624694D01*
X83614354Y-57624696D01*
X83594508Y-57750000D01*
X83614354Y-57875304D01*
X83614354Y-57875305D01*
X83614355Y-57875307D01*
X83614355Y-57875309D01*
X83671945Y-57988335D01*
X83671950Y-57988342D01*
X83761657Y-58078049D01*
X83761664Y-58078054D01*
X83874691Y-58135644D01*
X83874692Y-58135644D01*
X83874696Y-58135646D01*
X84000000Y-58155492D01*
X84125304Y-58135646D01*
X84125308Y-58135644D01*
X84125309Y-58135644D01*
X84238335Y-58078054D01*
X84238337Y-58078052D01*
X84238342Y-58078050D01*
X84328050Y-57988342D01*
X84328054Y-57988335D01*
X84385644Y-57875309D01*
X84385644Y-57875307D01*
X84385646Y-57875304D01*
X84405492Y-57750000D01*
X84385646Y-57624696D01*
X84385644Y-57624692D01*
X84385644Y-57624690D01*
X84328054Y-57511664D01*
X84328049Y-57511657D01*
X84238342Y-57421950D01*
X84238337Y-57421946D01*
X84201726Y-57403292D01*
X84177370Y-57374774D01*
X84180313Y-57337387D01*
X84202452Y-57315612D01*
X84207330Y-57313227D01*
X84256483Y-57289198D01*
X84339198Y-57206483D01*
X84353132Y-57177978D01*
X84381242Y-57153155D01*
X84397153Y-57150500D01*
X84834522Y-57150500D01*
X84869170Y-57164852D01*
X84881147Y-57176829D01*
X84895000Y-57204504D01*
X84914833Y-57342454D01*
X84936809Y-57390573D01*
X84974623Y-57473373D01*
X84974624Y-57473374D01*
X84974625Y-57473376D01*
X85061930Y-57574132D01*
X85068872Y-57582143D01*
X85189947Y-57659953D01*
X85266785Y-57682514D01*
X85328034Y-57700499D01*
X85328037Y-57700499D01*
X85328039Y-57700500D01*
X85328040Y-57700500D01*
X85471960Y-57700500D01*
X85471961Y-57700500D01*
X85471963Y-57700499D01*
X85471965Y-57700499D01*
X85473664Y-57700000D01*
X87394508Y-57700000D01*
X87414354Y-57825304D01*
X87414354Y-57825305D01*
X87414355Y-57825307D01*
X87414355Y-57825309D01*
X87471945Y-57938335D01*
X87471950Y-57938342D01*
X87561657Y-58028049D01*
X87561664Y-58028054D01*
X87674691Y-58085644D01*
X87674692Y-58085644D01*
X87674696Y-58085646D01*
X87800000Y-58105492D01*
X87925304Y-58085646D01*
X87925308Y-58085644D01*
X87925309Y-58085644D01*
X88038335Y-58028054D01*
X88038337Y-58028052D01*
X88038342Y-58028050D01*
X88128050Y-57938342D01*
X88132663Y-57929289D01*
X88185644Y-57825309D01*
X88185644Y-57825307D01*
X88185646Y-57825304D01*
X88197573Y-57750000D01*
X90594508Y-57750000D01*
X90614354Y-57875304D01*
X90614354Y-57875305D01*
X90614355Y-57875307D01*
X90614355Y-57875309D01*
X90671945Y-57988335D01*
X90671950Y-57988342D01*
X90761657Y-58078049D01*
X90761664Y-58078054D01*
X90874691Y-58135644D01*
X90874692Y-58135644D01*
X90874696Y-58135646D01*
X91000000Y-58155492D01*
X91125304Y-58135646D01*
X91125308Y-58135644D01*
X91125309Y-58135644D01*
X91238335Y-58078054D01*
X91238337Y-58078052D01*
X91238342Y-58078050D01*
X91328050Y-57988342D01*
X91328054Y-57988335D01*
X91385644Y-57875309D01*
X91385644Y-57875307D01*
X91385646Y-57875304D01*
X91405492Y-57750000D01*
X91385646Y-57624696D01*
X91385644Y-57624692D01*
X91385644Y-57624690D01*
X91328054Y-57511664D01*
X91328049Y-57511657D01*
X91238342Y-57421950D01*
X91238335Y-57421945D01*
X91125308Y-57364355D01*
X91125305Y-57364354D01*
X91125304Y-57364354D01*
X91000000Y-57344508D01*
X90874696Y-57364354D01*
X90874694Y-57364354D01*
X90874692Y-57364355D01*
X90874690Y-57364355D01*
X90761664Y-57421945D01*
X90761657Y-57421950D01*
X90671950Y-57511657D01*
X90671945Y-57511664D01*
X90614355Y-57624690D01*
X90614355Y-57624692D01*
X90614354Y-57624694D01*
X90614354Y-57624696D01*
X90594508Y-57750000D01*
X88197573Y-57750000D01*
X88205492Y-57700000D01*
X88185646Y-57574696D01*
X88185644Y-57574692D01*
X88185644Y-57574690D01*
X88128054Y-57461664D01*
X88128049Y-57461657D01*
X88038342Y-57371950D01*
X88038335Y-57371945D01*
X87925308Y-57314355D01*
X87925305Y-57314354D01*
X87925304Y-57314354D01*
X87800000Y-57294508D01*
X87674696Y-57314354D01*
X87674694Y-57314354D01*
X87674692Y-57314355D01*
X87674690Y-57314355D01*
X87561664Y-57371945D01*
X87561657Y-57371950D01*
X87471950Y-57461657D01*
X87471945Y-57461664D01*
X87414355Y-57574690D01*
X87414355Y-57574692D01*
X87414354Y-57574694D01*
X87414354Y-57574696D01*
X87394508Y-57700000D01*
X85473664Y-57700000D01*
X85494795Y-57693795D01*
X85610053Y-57659953D01*
X85731128Y-57582143D01*
X85825377Y-57473373D01*
X85885165Y-57342457D01*
X85885165Y-57342455D01*
X85885166Y-57342454D01*
X85905647Y-57200002D01*
X85905647Y-57199997D01*
X85885166Y-57057545D01*
X85874075Y-57033260D01*
X85825377Y-56926627D01*
X85810928Y-56909952D01*
X85731128Y-56817857D01*
X85690867Y-56791983D01*
X85610053Y-56740047D01*
X85610050Y-56740046D01*
X85495854Y-56706515D01*
X85466653Y-56682983D01*
X85462644Y-56645695D01*
X85486176Y-56616494D01*
X85509659Y-56610500D01*
X85611244Y-56610500D01*
X85625253Y-56608458D01*
X85680340Y-56600433D01*
X85786929Y-56548324D01*
X85870824Y-56464429D01*
X85878021Y-56449708D01*
X85888479Y-56428316D01*
X85916589Y-56403491D01*
X85954020Y-56405815D01*
X85976521Y-56428316D01*
X85994172Y-56464423D01*
X85994175Y-56464427D01*
X85994176Y-56464429D01*
X86078071Y-56548324D01*
X86078072Y-56548324D01*
X86078074Y-56548326D01*
X86114499Y-56566133D01*
X86184660Y-56600433D01*
X86238165Y-56608228D01*
X86253756Y-56610500D01*
X86253758Y-56610500D01*
X86746244Y-56610500D01*
X86760253Y-56608458D01*
X86815340Y-56600433D01*
X86921929Y-56548324D01*
X87005401Y-56464852D01*
X87040049Y-56450500D01*
X87102847Y-56450500D01*
X87137495Y-56464852D01*
X87146865Y-56477975D01*
X87160802Y-56506483D01*
X87243517Y-56589198D01*
X87348607Y-56640573D01*
X87396884Y-56647606D01*
X87416738Y-56650500D01*
X87416740Y-56650500D01*
X87783262Y-56650500D01*
X87800590Y-56647974D01*
X87851393Y-56640573D01*
X87956483Y-56589198D01*
X88039198Y-56506483D01*
X88090573Y-56401393D01*
X88100500Y-56333260D01*
X88100500Y-55866740D01*
X88100163Y-55864430D01*
X88094863Y-55828050D01*
X88090573Y-55798607D01*
X88039198Y-55693517D01*
X87956483Y-55610802D01*
X87883551Y-55575148D01*
X87851396Y-55559428D01*
X87851394Y-55559427D01*
X87783262Y-55549500D01*
X87783260Y-55549500D01*
X87416740Y-55549500D01*
X87416738Y-55549500D01*
X87348605Y-55559427D01*
X87348603Y-55559428D01*
X87243519Y-55610801D01*
X87243515Y-55610803D01*
X87160802Y-55693516D01*
X87160802Y-55693517D01*
X87146867Y-55722021D01*
X87118758Y-55746845D01*
X87102847Y-55749500D01*
X87040049Y-55749500D01*
X87005401Y-55735148D01*
X86921930Y-55651677D01*
X86921925Y-55651673D01*
X86838319Y-55610801D01*
X86815340Y-55599567D01*
X86792307Y-55596211D01*
X86746244Y-55589500D01*
X86746242Y-55589500D01*
X86558295Y-55589500D01*
X86523647Y-55575148D01*
X86482647Y-55534148D01*
X86468295Y-55499500D01*
X86482647Y-55464852D01*
X86517295Y-55450500D01*
X87378646Y-55450500D01*
X87423216Y-55438557D01*
X87467788Y-55426614D01*
X87479592Y-55419799D01*
X87547712Y-55380470D01*
X88103330Y-54824852D01*
X88137978Y-54810500D01*
X88378744Y-54810500D01*
X88392753Y-54808458D01*
X88447840Y-54800433D01*
X88549885Y-54750545D01*
X88554425Y-54748326D01*
X88554425Y-54748325D01*
X88554429Y-54748324D01*
X88638324Y-54664429D01*
X88642785Y-54655304D01*
X88655979Y-54628316D01*
X88684089Y-54603491D01*
X88721520Y-54605815D01*
X88744021Y-54628316D01*
X88761672Y-54664423D01*
X88761675Y-54664427D01*
X88761676Y-54664429D01*
X88845571Y-54748324D01*
X88845572Y-54748324D01*
X88845574Y-54748326D01*
X88858854Y-54754818D01*
X88952160Y-54800433D01*
X89005665Y-54808228D01*
X89021256Y-54810500D01*
X89021258Y-54810500D01*
X89513744Y-54810500D01*
X89527753Y-54808458D01*
X89582840Y-54800433D01*
X89684885Y-54750545D01*
X89689425Y-54748326D01*
X89689425Y-54748325D01*
X89689429Y-54748324D01*
X89773324Y-54664429D01*
X89825433Y-54557840D01*
X89835500Y-54488742D01*
X89835500Y-54111258D01*
X89835033Y-54108054D01*
X89831019Y-54080500D01*
X89825433Y-54042160D01*
X89787152Y-53963856D01*
X89773326Y-53935574D01*
X89773322Y-53935569D01*
X89689430Y-53851677D01*
X89689425Y-53851673D01*
X89616821Y-53816179D01*
X89582840Y-53799567D01*
X89559807Y-53796211D01*
X89513744Y-53789500D01*
X89513742Y-53789500D01*
X89272978Y-53789500D01*
X89238330Y-53775148D01*
X89164852Y-53701670D01*
X89150500Y-53667022D01*
X89150500Y-53635188D01*
X89164852Y-53600540D01*
X89199500Y-53586188D01*
X89234148Y-53600540D01*
X89247142Y-53613534D01*
X89247149Y-53613539D01*
X89360176Y-53671129D01*
X89360177Y-53671129D01*
X89360181Y-53671131D01*
X89485485Y-53690977D01*
X89610789Y-53671131D01*
X89610793Y-53671129D01*
X89610794Y-53671129D01*
X89723820Y-53613539D01*
X89723822Y-53613537D01*
X89723827Y-53613535D01*
X89813535Y-53523827D01*
X89817789Y-53515478D01*
X89852551Y-53447255D01*
X89881068Y-53422898D01*
X89917731Y-53425479D01*
X89948607Y-53440573D01*
X89996884Y-53447606D01*
X90016738Y-53450500D01*
X90016740Y-53450500D01*
X90234522Y-53450500D01*
X90269170Y-53464852D01*
X90285148Y-53480830D01*
X90299500Y-53515478D01*
X90299500Y-55921491D01*
X90285148Y-55956139D01*
X90250500Y-55970491D01*
X90236696Y-55968506D01*
X90171967Y-55949500D01*
X90171961Y-55949500D01*
X90028039Y-55949500D01*
X90028034Y-55949500D01*
X89889949Y-55990046D01*
X89889947Y-55990046D01*
X89889947Y-55990047D01*
X89855873Y-56011945D01*
X89768871Y-56067857D01*
X89712782Y-56132588D01*
X89679246Y-56149375D01*
X89675750Y-56149500D01*
X89565478Y-56149500D01*
X89530830Y-56135148D01*
X89530829Y-56135147D01*
X89514851Y-56119168D01*
X89500500Y-56084521D01*
X89500500Y-55866738D01*
X89494863Y-55828050D01*
X89490573Y-55798607D01*
X89439198Y-55693517D01*
X89356483Y-55610802D01*
X89283551Y-55575148D01*
X89251396Y-55559428D01*
X89251394Y-55559427D01*
X89183262Y-55549500D01*
X89183260Y-55549500D01*
X88816740Y-55549500D01*
X88816738Y-55549500D01*
X88748605Y-55559427D01*
X88748603Y-55559428D01*
X88643519Y-55610801D01*
X88643515Y-55610803D01*
X88560803Y-55693515D01*
X88560801Y-55693519D01*
X88509428Y-55798603D01*
X88509427Y-55798605D01*
X88499500Y-55866738D01*
X88499500Y-56333261D01*
X88509427Y-56401394D01*
X88509428Y-56401396D01*
X88522381Y-56427891D01*
X88560802Y-56506483D01*
X88643517Y-56589198D01*
X88748607Y-56640573D01*
X88796884Y-56647606D01*
X88816738Y-56650500D01*
X88816740Y-56650500D01*
X89034523Y-56650500D01*
X89069171Y-56664852D01*
X89119531Y-56715212D01*
X89184788Y-56780469D01*
X89264712Y-56826614D01*
X89285343Y-56832142D01*
X89353853Y-56850500D01*
X89353856Y-56850500D01*
X89783049Y-56850500D01*
X89809540Y-56858279D01*
X89889947Y-56909953D01*
X89951758Y-56928102D01*
X90028034Y-56950499D01*
X90028037Y-56950499D01*
X90028039Y-56950500D01*
X90028040Y-56950500D01*
X90171960Y-56950500D01*
X90171961Y-56950500D01*
X90171963Y-56950499D01*
X90171965Y-56950499D01*
X90200361Y-56942161D01*
X90310053Y-56909953D01*
X90431128Y-56832143D01*
X90468277Y-56789269D01*
X90482827Y-56778777D01*
X90482506Y-56778220D01*
X90485288Y-56776614D01*
X90565212Y-56730470D01*
X90930470Y-56365212D01*
X90976614Y-56285288D01*
X90986203Y-56249500D01*
X91000500Y-56196144D01*
X91000500Y-56128254D01*
X93884500Y-56128254D01*
X93884500Y-56631746D01*
X93900049Y-56729920D01*
X93900049Y-56729921D01*
X93900050Y-56729922D01*
X93960338Y-56848246D01*
X93960342Y-56848251D01*
X94054248Y-56942157D01*
X94054255Y-56942162D01*
X94149257Y-56990568D01*
X94173614Y-57019085D01*
X94170671Y-57056472D01*
X94149258Y-57077886D01*
X94121662Y-57091946D01*
X94121657Y-57091950D01*
X94031950Y-57181657D01*
X94031945Y-57181664D01*
X93974355Y-57294690D01*
X93974355Y-57294692D01*
X93974354Y-57294694D01*
X93974354Y-57294696D01*
X93954508Y-57420000D01*
X93974354Y-57545304D01*
X93974354Y-57545305D01*
X93974355Y-57545307D01*
X93974355Y-57545309D01*
X94031945Y-57658335D01*
X94031950Y-57658342D01*
X94121657Y-57748049D01*
X94121664Y-57748054D01*
X94234691Y-57805644D01*
X94234692Y-57805644D01*
X94234696Y-57805646D01*
X94360000Y-57825492D01*
X94485304Y-57805646D01*
X94485308Y-57805644D01*
X94485309Y-57805644D01*
X94598335Y-57748054D01*
X94598337Y-57748052D01*
X94598342Y-57748050D01*
X94688050Y-57658342D01*
X94726876Y-57582143D01*
X94745644Y-57545309D01*
X94745644Y-57545307D01*
X94745646Y-57545304D01*
X94765492Y-57420000D01*
X94745646Y-57294696D01*
X94745644Y-57294692D01*
X94745644Y-57294690D01*
X94688054Y-57181664D01*
X94688049Y-57181657D01*
X94608040Y-57101648D01*
X94593688Y-57067000D01*
X94608040Y-57032352D01*
X94642688Y-57018000D01*
X94849245Y-57018000D01*
X94849246Y-57018000D01*
X94947420Y-57002451D01*
X95049381Y-56950499D01*
X95065746Y-56942161D01*
X95065747Y-56942159D01*
X95065751Y-56942158D01*
X95159658Y-56848251D01*
X95163986Y-56839755D01*
X95192502Y-56815399D01*
X95207646Y-56813000D01*
X95566355Y-56813000D01*
X95601003Y-56827352D01*
X95612604Y-56845814D01*
X95613456Y-56848248D01*
X95620885Y-56869478D01*
X95699286Y-56975709D01*
X95699289Y-56975711D01*
X95800281Y-57050245D01*
X95819636Y-57082366D01*
X95810609Y-57118767D01*
X95803676Y-57126347D01*
X95759519Y-57165466D01*
X95759515Y-57165471D01*
X95669780Y-57295475D01*
X95613763Y-57443180D01*
X95594722Y-57600000D01*
X95613763Y-57756819D01*
X95669780Y-57904524D01*
X95693123Y-57938342D01*
X95759517Y-58034530D01*
X95759519Y-58034531D01*
X95759520Y-58034533D01*
X95827219Y-58094508D01*
X95877760Y-58139283D01*
X96017635Y-58212696D01*
X96171015Y-58250500D01*
X96171016Y-58250500D01*
X96328983Y-58250500D01*
X96328985Y-58250500D01*
X96482365Y-58212696D01*
X96622240Y-58139283D01*
X96740483Y-58034530D01*
X96830220Y-57904523D01*
X96886237Y-57756818D01*
X96905278Y-57600000D01*
X96902136Y-57574129D01*
X96908344Y-57543725D01*
X96919799Y-57523886D01*
X96950499Y-57409312D01*
X96950500Y-57409312D01*
X96950500Y-57399500D01*
X96964852Y-57364852D01*
X96999500Y-57350500D01*
X97017800Y-57350500D01*
X97039320Y-57355479D01*
X97073013Y-57371950D01*
X97111107Y-57390573D01*
X97163864Y-57398259D01*
X97179238Y-57400500D01*
X97179240Y-57400500D01*
X98270762Y-57400500D01*
X98288090Y-57397974D01*
X98338893Y-57390573D01*
X98443983Y-57339198D01*
X98526698Y-57256483D01*
X98578073Y-57151393D01*
X98588000Y-57083260D01*
X98588000Y-56905898D01*
X98602352Y-56871250D01*
X98637000Y-56856898D01*
X98671648Y-56871250D01*
X99060888Y-57260490D01*
X99060891Y-57260491D01*
X99060894Y-57260494D01*
X99154184Y-57314354D01*
X99163615Y-57319799D01*
X99192259Y-57327474D01*
X99278189Y-57350500D01*
X99278192Y-57350500D01*
X99292800Y-57350500D01*
X99314320Y-57355479D01*
X99348013Y-57371950D01*
X99386107Y-57390573D01*
X99438864Y-57398259D01*
X99454238Y-57400500D01*
X99454240Y-57400500D01*
X99568000Y-57400500D01*
X99602648Y-57414852D01*
X99617000Y-57449500D01*
X99617000Y-57798979D01*
X99602648Y-57833627D01*
X99584186Y-57845228D01*
X99568025Y-57850884D01*
X99568024Y-57850884D01*
X99568020Y-57850886D01*
X99461788Y-57929288D01*
X99383385Y-58035522D01*
X99339775Y-58160148D01*
X99339774Y-58160157D01*
X99337001Y-58189732D01*
X99337000Y-58189744D01*
X99337000Y-58770256D01*
X99337001Y-58770263D01*
X99339774Y-58799842D01*
X99339775Y-58799851D01*
X99349643Y-58828050D01*
X99383384Y-58924475D01*
X99383385Y-58924477D01*
X99383384Y-58924477D01*
X99461788Y-59030711D01*
X99568022Y-59109114D01*
X99568025Y-59109116D01*
X99686447Y-59150554D01*
X99690047Y-59151814D01*
X99692651Y-59152725D01*
X99722244Y-59155500D01*
X99722254Y-59155500D01*
X100427746Y-59155500D01*
X100427756Y-59155500D01*
X100457349Y-59152725D01*
X100581975Y-59109116D01*
X100688211Y-59030711D01*
X100766616Y-58924475D01*
X100810225Y-58799849D01*
X100813000Y-58770256D01*
X100813000Y-58189744D01*
X100810225Y-58160151D01*
X100766616Y-58035525D01*
X100766614Y-58035522D01*
X100766615Y-58035522D01*
X100688211Y-57929288D01*
X100581978Y-57850885D01*
X100550815Y-57839980D01*
X100522852Y-57814989D01*
X100518000Y-57793730D01*
X100518000Y-57446922D01*
X100532352Y-57412274D01*
X100559933Y-57398434D01*
X100613893Y-57390573D01*
X100718983Y-57339198D01*
X100801698Y-57256483D01*
X100853073Y-57151393D01*
X100863000Y-57083260D01*
X100863000Y-56716740D01*
X100862777Y-56715212D01*
X100860106Y-56696884D01*
X100853073Y-56648607D01*
X100801698Y-56543517D01*
X100718983Y-56460802D01*
X100654524Y-56429290D01*
X100613896Y-56409428D01*
X100613894Y-56409427D01*
X100545762Y-56399500D01*
X100545760Y-56399500D01*
X99494400Y-56399500D01*
X99459752Y-56385148D01*
X99352352Y-56277748D01*
X99338000Y-56243100D01*
X99338000Y-55656900D01*
X99352352Y-55622252D01*
X99459752Y-55514852D01*
X99494400Y-55500500D01*
X100545762Y-55500500D01*
X100559576Y-55498486D01*
X100613893Y-55490573D01*
X100656367Y-55469808D01*
X100685680Y-55455479D01*
X100707200Y-55450500D01*
X101459311Y-55450500D01*
X101489430Y-55442428D01*
X101549673Y-55426286D01*
X101573887Y-55419799D01*
X101676614Y-55360489D01*
X101922251Y-55114852D01*
X101956899Y-55100500D01*
X102028983Y-55100500D01*
X102028985Y-55100500D01*
X102182365Y-55062696D01*
X102322240Y-54989283D01*
X102440483Y-54884530D01*
X102530220Y-54754523D01*
X102586237Y-54606818D01*
X102605278Y-54450000D01*
X102605277Y-54449999D01*
X102605635Y-54447058D01*
X102607291Y-54447259D01*
X102619630Y-54417473D01*
X102704923Y-54332180D01*
X102810490Y-54226614D01*
X102869799Y-54123887D01*
X102875055Y-54104267D01*
X102881422Y-54080509D01*
X102881424Y-54080500D01*
X102898080Y-54018342D01*
X102900500Y-54009310D01*
X102900500Y-53693615D01*
X102914852Y-53658967D01*
X102941833Y-53645218D01*
X103008126Y-53634719D01*
X103091420Y-53592278D01*
X103128213Y-53573532D01*
X103128215Y-53573530D01*
X103128220Y-53573528D01*
X103223528Y-53478220D01*
X103230340Y-53464852D01*
X103263995Y-53398799D01*
X103284719Y-53358126D01*
X103300500Y-53258488D01*
X103300500Y-52741512D01*
X103284719Y-52641874D01*
X103263638Y-52600500D01*
X103223532Y-52521786D01*
X103223527Y-52521779D01*
X103128220Y-52426472D01*
X103128213Y-52426467D01*
X103008129Y-52365282D01*
X103008127Y-52365281D01*
X103008126Y-52365281D01*
X102908488Y-52349500D01*
X101991512Y-52349500D01*
X101891874Y-52365281D01*
X101891872Y-52365281D01*
X101891870Y-52365282D01*
X101771786Y-52426467D01*
X101771779Y-52426472D01*
X101676472Y-52521779D01*
X101676467Y-52521786D01*
X101615282Y-52641870D01*
X101615281Y-52641872D01*
X101615281Y-52641874D01*
X101599500Y-52741512D01*
X101599500Y-53258488D01*
X101615281Y-53358126D01*
X101615281Y-53358127D01*
X101615282Y-53358129D01*
X101676467Y-53478213D01*
X101676472Y-53478220D01*
X101771779Y-53573527D01*
X101771786Y-53573532D01*
X101850296Y-53613534D01*
X101891874Y-53634719D01*
X101958165Y-53645218D01*
X101990142Y-53664814D01*
X101999500Y-53693615D01*
X101999500Y-53743100D01*
X101985148Y-53777748D01*
X101977748Y-53785148D01*
X101943100Y-53799500D01*
X101871015Y-53799500D01*
X101859440Y-53802353D01*
X101717635Y-53837303D01*
X101577760Y-53910716D01*
X101459520Y-54015466D01*
X101459516Y-54015471D01*
X101369780Y-54145475D01*
X101313763Y-54293180D01*
X101294365Y-54452941D01*
X101292708Y-54452739D01*
X101280371Y-54482524D01*
X101227747Y-54535148D01*
X101193101Y-54549500D01*
X100707200Y-54549500D01*
X100685680Y-54544521D01*
X100613896Y-54509428D01*
X100613894Y-54509427D01*
X100613893Y-54509427D01*
X100591182Y-54506118D01*
X100545762Y-54499500D01*
X100545760Y-54499500D01*
X99454240Y-54499500D01*
X99454238Y-54499500D01*
X99386107Y-54509427D01*
X99386103Y-54509428D01*
X99314320Y-54544521D01*
X99292800Y-54549500D01*
X99278189Y-54549500D01*
X99163616Y-54580200D01*
X99163612Y-54580201D01*
X99060894Y-54639505D01*
X99060885Y-54639512D01*
X98671648Y-55028750D01*
X98637000Y-55043102D01*
X98602352Y-55028750D01*
X98588000Y-54994102D01*
X98588000Y-54816738D01*
X98584097Y-54789950D01*
X98578073Y-54748607D01*
X98526698Y-54643517D01*
X98443983Y-54560802D01*
X98380976Y-54530000D01*
X98338896Y-54509428D01*
X98338894Y-54509427D01*
X98270762Y-54499500D01*
X98270760Y-54499500D01*
X97179240Y-54499500D01*
X97179238Y-54499500D01*
X97111105Y-54509427D01*
X97111103Y-54509428D01*
X97006019Y-54560801D01*
X97006015Y-54560803D01*
X96923303Y-54643515D01*
X96923301Y-54643519D01*
X96871928Y-54748603D01*
X96871927Y-54748605D01*
X96862000Y-54816738D01*
X96862000Y-55183261D01*
X96871927Y-55251394D01*
X96871928Y-55251396D01*
X96882795Y-55273624D01*
X96923302Y-55356483D01*
X97006017Y-55439198D01*
X97111107Y-55490573D01*
X97159384Y-55497606D01*
X97179238Y-55500500D01*
X97179240Y-55500500D01*
X98270762Y-55500500D01*
X98284576Y-55498486D01*
X98338893Y-55490573D01*
X98366481Y-55477085D01*
X98403910Y-55474762D01*
X98432021Y-55499586D01*
X98437000Y-55521107D01*
X98437000Y-56378891D01*
X98422648Y-56413539D01*
X98388000Y-56427891D01*
X98366480Y-56422912D01*
X98338899Y-56409429D01*
X98338894Y-56409427D01*
X98270762Y-56399500D01*
X98270760Y-56399500D01*
X97179240Y-56399500D01*
X97179238Y-56399500D01*
X97111107Y-56409427D01*
X97111103Y-56409428D01*
X97039320Y-56444521D01*
X97017800Y-56449500D01*
X96974500Y-56449500D01*
X96939852Y-56435148D01*
X96925500Y-56400500D01*
X96925500Y-56009753D01*
X96925500Y-56009744D01*
X96922725Y-55980151D01*
X96879116Y-55855525D01*
X96879114Y-55855522D01*
X96879115Y-55855522D01*
X96800711Y-55749288D01*
X96694477Y-55670885D01*
X96694475Y-55670884D01*
X96657069Y-55657794D01*
X96569851Y-55627275D01*
X96569842Y-55627274D01*
X96540267Y-55624501D01*
X96540266Y-55624500D01*
X96540256Y-55624500D01*
X95959744Y-55624500D01*
X95959734Y-55624500D01*
X95959732Y-55624501D01*
X95930157Y-55627274D01*
X95930148Y-55627275D01*
X95805522Y-55670885D01*
X95699288Y-55749288D01*
X95620885Y-55855521D01*
X95612605Y-55879185D01*
X95587615Y-55907148D01*
X95566355Y-55912000D01*
X95180205Y-55912000D01*
X95145557Y-55897648D01*
X95065751Y-55817842D01*
X95065746Y-55817838D01*
X94947422Y-55757550D01*
X94947421Y-55757549D01*
X94947420Y-55757549D01*
X94849246Y-55742000D01*
X94270754Y-55742000D01*
X94172580Y-55757549D01*
X94172578Y-55757549D01*
X94172577Y-55757550D01*
X94054253Y-55817838D01*
X94054248Y-55817842D01*
X93960342Y-55911748D01*
X93960338Y-55911753D01*
X93900050Y-56030077D01*
X93900049Y-56030078D01*
X93900049Y-56030080D01*
X93884500Y-56128254D01*
X91000500Y-56128254D01*
X91000500Y-54553254D01*
X93884500Y-54553254D01*
X93884500Y-55056746D01*
X93900049Y-55154920D01*
X93900049Y-55154921D01*
X93900050Y-55154922D01*
X93960338Y-55273246D01*
X93960342Y-55273251D01*
X94054248Y-55367157D01*
X94054253Y-55367161D01*
X94104234Y-55392627D01*
X94172580Y-55427451D01*
X94270754Y-55443000D01*
X94270755Y-55443000D01*
X94849245Y-55443000D01*
X94849246Y-55443000D01*
X94947420Y-55427451D01*
X95050969Y-55374690D01*
X95065746Y-55367161D01*
X95065747Y-55367159D01*
X95065751Y-55367158D01*
X95159658Y-55273251D01*
X95165566Y-55261657D01*
X95189414Y-55214852D01*
X95219951Y-55154920D01*
X95235500Y-55056746D01*
X95235500Y-54553254D01*
X95219951Y-54455080D01*
X95194276Y-54404690D01*
X95159661Y-54336753D01*
X95159657Y-54336748D01*
X95065751Y-54242842D01*
X95065744Y-54242837D01*
X94964924Y-54191467D01*
X94940567Y-54162950D01*
X94943510Y-54125563D01*
X94952518Y-54113163D01*
X95370830Y-53694852D01*
X95405478Y-53680500D01*
X95825380Y-53680500D01*
X95860028Y-53694852D01*
X95942625Y-53777449D01*
X96050714Y-53830291D01*
X96120785Y-53840500D01*
X96584214Y-53840499D01*
X96584216Y-53840499D01*
X96630928Y-53833693D01*
X96654286Y-53830291D01*
X96762375Y-53777449D01*
X96847449Y-53692375D01*
X96900291Y-53584286D01*
X96910500Y-53514215D01*
X96910499Y-53125786D01*
X96900291Y-53055714D01*
X96897268Y-53049531D01*
X96847450Y-52947627D01*
X96847449Y-52947626D01*
X96847449Y-52947625D01*
X96762375Y-52862551D01*
X96654286Y-52809709D01*
X96619250Y-52804604D01*
X96584216Y-52799500D01*
X96120783Y-52799500D01*
X96050714Y-52809708D01*
X96050713Y-52809708D01*
X95942627Y-52862549D01*
X95942623Y-52862552D01*
X95857552Y-52947623D01*
X95857549Y-52947627D01*
X95855403Y-52952019D01*
X95827293Y-52976844D01*
X95811381Y-52979500D01*
X95193854Y-52979500D01*
X95144095Y-52992833D01*
X95119215Y-52999500D01*
X95105679Y-53003126D01*
X95104708Y-53003387D01*
X95024787Y-53049530D01*
X95024787Y-53049531D01*
X94279532Y-53794785D01*
X94279527Y-53794791D01*
X94259033Y-53830290D01*
X94250425Y-53845200D01*
X94245338Y-53854011D01*
X94233385Y-53874713D01*
X94209500Y-53963853D01*
X94209500Y-54134952D01*
X94195148Y-54169600D01*
X94175644Y-54181553D01*
X94172580Y-54182548D01*
X94054253Y-54242838D01*
X94054248Y-54242842D01*
X93960342Y-54336748D01*
X93960338Y-54336753D01*
X93900050Y-54455077D01*
X93900049Y-54455078D01*
X93900049Y-54455080D01*
X93884500Y-54553254D01*
X91000500Y-54553254D01*
X91000500Y-53303856D01*
X91000500Y-53303853D01*
X90976614Y-53214713D01*
X90976614Y-53214712D01*
X90965067Y-53194712D01*
X90930470Y-53134788D01*
X90714852Y-52919170D01*
X90700500Y-52884522D01*
X90700500Y-52666738D01*
X90695897Y-52635148D01*
X90690573Y-52598607D01*
X90639198Y-52493517D01*
X90556483Y-52410802D01*
X90472716Y-52369851D01*
X90451396Y-52359428D01*
X90451394Y-52359427D01*
X90383262Y-52349500D01*
X90383260Y-52349500D01*
X90222487Y-52349500D01*
X90187839Y-52335148D01*
X90173487Y-52300500D01*
X90187839Y-52265852D01*
X90203735Y-52255230D01*
X90256058Y-52233557D01*
X90333557Y-52156058D01*
X90333556Y-52156058D01*
X90369879Y-52119735D01*
X90396860Y-52105988D01*
X90399995Y-52105491D01*
X90400000Y-52105492D01*
X90525304Y-52085646D01*
X90525308Y-52085644D01*
X90525309Y-52085644D01*
X90638335Y-52028054D01*
X90638337Y-52028052D01*
X90638342Y-52028050D01*
X90728050Y-51938342D01*
X90733124Y-51928384D01*
X90785644Y-51825309D01*
X90785644Y-51825307D01*
X90785646Y-51825304D01*
X90805492Y-51700000D01*
X90785646Y-51574696D01*
X90785644Y-51574692D01*
X90785644Y-51574690D01*
X90728054Y-51461664D01*
X90728049Y-51461657D01*
X90638342Y-51371950D01*
X90638335Y-51371945D01*
X90525308Y-51314355D01*
X90525305Y-51314354D01*
X90525304Y-51314354D01*
X90400000Y-51294508D01*
X90274696Y-51314354D01*
X90274694Y-51314354D01*
X90274693Y-51314355D01*
X90272846Y-51315296D01*
X90271462Y-51315404D01*
X90271027Y-51315546D01*
X90270993Y-51315441D01*
X90235458Y-51318231D01*
X90206945Y-51293869D01*
X90202213Y-51279303D01*
X90185646Y-51174696D01*
X90185644Y-51174692D01*
X90185644Y-51174690D01*
X90128054Y-51061664D01*
X90128049Y-51061657D01*
X90038342Y-50971950D01*
X90038335Y-50971945D01*
X89925308Y-50914355D01*
X89925305Y-50914354D01*
X89925304Y-50914354D01*
X89800000Y-50894508D01*
X89674696Y-50914354D01*
X89674694Y-50914354D01*
X89674692Y-50914355D01*
X89674690Y-50914355D01*
X89561664Y-50971945D01*
X89561660Y-50971948D01*
X89532749Y-51000859D01*
X89498100Y-51015210D01*
X89463452Y-51000858D01*
X89454443Y-50988458D01*
X89428050Y-50936658D01*
X89338342Y-50846950D01*
X89338335Y-50846945D01*
X89225308Y-50789355D01*
X89225305Y-50789354D01*
X89225304Y-50789354D01*
X89100000Y-50769508D01*
X89099999Y-50769508D01*
X89098204Y-50769508D01*
X89079454Y-50765778D01*
X89070496Y-50762068D01*
X89070495Y-50762067D01*
X88979801Y-50724500D01*
X88979800Y-50724500D01*
X87163457Y-50724500D01*
X87136235Y-50716242D01*
X87082067Y-50680049D01*
X87044406Y-50672558D01*
X87013223Y-50651723D01*
X87007908Y-50625000D01*
X93969508Y-50625000D01*
X93989354Y-50750304D01*
X93989354Y-50750305D01*
X93989355Y-50750307D01*
X93989355Y-50750309D01*
X94046945Y-50863335D01*
X94046950Y-50863342D01*
X94136657Y-50953049D01*
X94136664Y-50953054D01*
X94249691Y-51010644D01*
X94249692Y-51010644D01*
X94249696Y-51010646D01*
X94375000Y-51030492D01*
X94500304Y-51010646D01*
X94500308Y-51010644D01*
X94500309Y-51010644D01*
X94613335Y-50953054D01*
X94613337Y-50953052D01*
X94613342Y-50953050D01*
X94703050Y-50863342D01*
X94703054Y-50863335D01*
X94760644Y-50750309D01*
X94760644Y-50750307D01*
X94760646Y-50750304D01*
X94780492Y-50625000D01*
X94760646Y-50499696D01*
X94760644Y-50499692D01*
X94760644Y-50499690D01*
X94703054Y-50386664D01*
X94703049Y-50386657D01*
X94613342Y-50296950D01*
X94613335Y-50296945D01*
X94500308Y-50239355D01*
X94500305Y-50239354D01*
X94500304Y-50239354D01*
X94375000Y-50219508D01*
X94249696Y-50239354D01*
X94249694Y-50239354D01*
X94249692Y-50239355D01*
X94249690Y-50239355D01*
X94136664Y-50296945D01*
X94136657Y-50296950D01*
X94046950Y-50386657D01*
X94046945Y-50386664D01*
X93989355Y-50499690D01*
X93989355Y-50499692D01*
X93989354Y-50499694D01*
X93989354Y-50499696D01*
X93969508Y-50625000D01*
X87007908Y-50625000D01*
X87005907Y-50614941D01*
X87026742Y-50583758D01*
X87053965Y-50575500D01*
X87454798Y-50575500D01*
X87454800Y-50575500D01*
X87556058Y-50533557D01*
X87569876Y-50519738D01*
X87596859Y-50505989D01*
X87599998Y-50505491D01*
X87600000Y-50505492D01*
X87725304Y-50485646D01*
X87725308Y-50485644D01*
X87725309Y-50485644D01*
X87838335Y-50428054D01*
X87838337Y-50428052D01*
X87838342Y-50428050D01*
X87928050Y-50338342D01*
X87928054Y-50338335D01*
X87985644Y-50225309D01*
X87985644Y-50225307D01*
X87985646Y-50225304D01*
X88005492Y-50100000D01*
X87985646Y-49974696D01*
X87985644Y-49974692D01*
X87985644Y-49974690D01*
X87928054Y-49861664D01*
X87928049Y-49861657D01*
X87838342Y-49771950D01*
X87838335Y-49771945D01*
X87725308Y-49714355D01*
X87725305Y-49714354D01*
X87725304Y-49714354D01*
X87600000Y-49694508D01*
X87474696Y-49714354D01*
X87474694Y-49714354D01*
X87474692Y-49714355D01*
X87474690Y-49714355D01*
X87361664Y-49771945D01*
X87361657Y-49771950D01*
X87271950Y-49861657D01*
X87271945Y-49861664D01*
X87214355Y-49974692D01*
X87214354Y-49974694D01*
X87214354Y-49974696D01*
X87213012Y-49983168D01*
X87193416Y-50015143D01*
X87164616Y-50024500D01*
X86324499Y-50024500D01*
X86289851Y-50010148D01*
X86275499Y-49975500D01*
X86275499Y-49936111D01*
X86275499Y-49936110D01*
X86275499Y-49936108D01*
X86259950Y-49857932D01*
X86224911Y-49805492D01*
X86200717Y-49769282D01*
X86112068Y-49710050D01*
X86103446Y-49708335D01*
X86033893Y-49694500D01*
X86033889Y-49694500D01*
X85846111Y-49694500D01*
X85767931Y-49710050D01*
X85767245Y-49710508D01*
X85766720Y-49710859D01*
X85765294Y-49711142D01*
X85763474Y-49711897D01*
X85763323Y-49711534D01*
X85729939Y-49718174D01*
X85698757Y-49697338D01*
X85690500Y-49670116D01*
X85690500Y-49400000D01*
X90294508Y-49400000D01*
X90314354Y-49525304D01*
X90314354Y-49525305D01*
X90314355Y-49525307D01*
X90314355Y-49525309D01*
X90371945Y-49638335D01*
X90371950Y-49638342D01*
X90461657Y-49728049D01*
X90461664Y-49728054D01*
X90574691Y-49785644D01*
X90574692Y-49785644D01*
X90574696Y-49785646D01*
X90700000Y-49805492D01*
X90825304Y-49785646D01*
X90825308Y-49785644D01*
X90825309Y-49785644D01*
X90938335Y-49728054D01*
X90938337Y-49728052D01*
X90938342Y-49728050D01*
X91028050Y-49638342D01*
X91033292Y-49628054D01*
X91085644Y-49525309D01*
X91085644Y-49525307D01*
X91085646Y-49525304D01*
X91105492Y-49400000D01*
X91089654Y-49300000D01*
X91294508Y-49300000D01*
X91314354Y-49425304D01*
X91314354Y-49425305D01*
X91314355Y-49425307D01*
X91314355Y-49425309D01*
X91371945Y-49538335D01*
X91371950Y-49538342D01*
X91461657Y-49628049D01*
X91461664Y-49628054D01*
X91574691Y-49685644D01*
X91574692Y-49685644D01*
X91574696Y-49685646D01*
X91700000Y-49705492D01*
X91825304Y-49685646D01*
X91825308Y-49685644D01*
X91825309Y-49685644D01*
X91938335Y-49628054D01*
X91938337Y-49628052D01*
X91938342Y-49628050D01*
X92028050Y-49538342D01*
X92028054Y-49538335D01*
X92085644Y-49425309D01*
X92085644Y-49425307D01*
X92085646Y-49425304D01*
X92105492Y-49300000D01*
X92085646Y-49174696D01*
X92085644Y-49174692D01*
X92085644Y-49174690D01*
X92028054Y-49061664D01*
X92028049Y-49061657D01*
X91938342Y-48971950D01*
X91938335Y-48971945D01*
X91825308Y-48914355D01*
X91825305Y-48914354D01*
X91825304Y-48914354D01*
X91700000Y-48894508D01*
X91574696Y-48914354D01*
X91574694Y-48914354D01*
X91574692Y-48914355D01*
X91574690Y-48914355D01*
X91461664Y-48971945D01*
X91461657Y-48971950D01*
X91371950Y-49061657D01*
X91371945Y-49061664D01*
X91314355Y-49174690D01*
X91314355Y-49174692D01*
X91314354Y-49174694D01*
X91314354Y-49174696D01*
X91294508Y-49300000D01*
X91089654Y-49300000D01*
X91085646Y-49274696D01*
X91085644Y-49274692D01*
X91085644Y-49274690D01*
X91028054Y-49161664D01*
X91028049Y-49161657D01*
X90938342Y-49071950D01*
X90938335Y-49071945D01*
X90825308Y-49014355D01*
X90825305Y-49014354D01*
X90825304Y-49014354D01*
X90700000Y-48994508D01*
X90574696Y-49014354D01*
X90574694Y-49014354D01*
X90574692Y-49014355D01*
X90574690Y-49014355D01*
X90461664Y-49071945D01*
X90461657Y-49071950D01*
X90371950Y-49161657D01*
X90371945Y-49161664D01*
X90314355Y-49274690D01*
X90314355Y-49274692D01*
X90314354Y-49274694D01*
X90314354Y-49274696D01*
X90294508Y-49400000D01*
X85690500Y-49400000D01*
X85690500Y-49296188D01*
X85704852Y-49261540D01*
X85711917Y-49254475D01*
X85743050Y-49223342D01*
X85744753Y-49220000D01*
X85800644Y-49110309D01*
X85800644Y-49110307D01*
X85800646Y-49110304D01*
X85820492Y-48985000D01*
X85800646Y-48859696D01*
X85800644Y-48859692D01*
X85800644Y-48859690D01*
X85743054Y-48746664D01*
X85743049Y-48746657D01*
X85653342Y-48656950D01*
X85653335Y-48656945D01*
X85540308Y-48599355D01*
X85540305Y-48599354D01*
X85540304Y-48599354D01*
X85415000Y-48579508D01*
X85289696Y-48599354D01*
X85289694Y-48599354D01*
X85289692Y-48599355D01*
X85289690Y-48599355D01*
X85176664Y-48656945D01*
X85176657Y-48656950D01*
X85086950Y-48746657D01*
X85086945Y-48746664D01*
X85029355Y-48859690D01*
X85029355Y-48859692D01*
X85029354Y-48859694D01*
X85029354Y-48859696D01*
X85022575Y-48902499D01*
X85009508Y-48985000D01*
X85025035Y-49083035D01*
X85016280Y-49119502D01*
X84984303Y-49139097D01*
X84968974Y-49139097D01*
X84940000Y-49134508D01*
X84939999Y-49134508D01*
X84866074Y-49146216D01*
X84829607Y-49137460D01*
X84810012Y-49105484D01*
X84811078Y-49085138D01*
X84818000Y-49059309D01*
X84818000Y-47940691D01*
X84818000Y-47839399D01*
X84832352Y-47804751D01*
X84922252Y-47714852D01*
X84956900Y-47700500D01*
X87543101Y-47700500D01*
X87577749Y-47714852D01*
X87785148Y-47922251D01*
X87799500Y-47956899D01*
X87799500Y-48059311D01*
X87830200Y-48173884D01*
X87830201Y-48173887D01*
X87866342Y-48236484D01*
X87889511Y-48276613D01*
X87973387Y-48360489D01*
X88076114Y-48419799D01*
X88104758Y-48427474D01*
X88190688Y-48450500D01*
X88190691Y-48450500D01*
X88309311Y-48450500D01*
X88366597Y-48435149D01*
X88423886Y-48419799D01*
X88526613Y-48360489D01*
X88610489Y-48276613D01*
X88669799Y-48173886D01*
X88690222Y-48097668D01*
X88700500Y-48059311D01*
X88700500Y-47690688D01*
X88671469Y-47582346D01*
X88671468Y-47582342D01*
X88671468Y-47582343D01*
X88669799Y-47576114D01*
X88669799Y-47576113D01*
X88610490Y-47473386D01*
X88026614Y-46889511D01*
X87978299Y-46861616D01*
X87923888Y-46830201D01*
X87923886Y-46830200D01*
X87899673Y-46823713D01*
X87869551Y-46815642D01*
X87809311Y-46799500D01*
X87809309Y-46799500D01*
X84690691Y-46799500D01*
X84690688Y-46799500D01*
X84600326Y-46823713D01*
X84576113Y-46830200D01*
X84576110Y-46830201D01*
X84473392Y-46889505D01*
X84473383Y-46889512D01*
X84347748Y-47015148D01*
X84313100Y-47029500D01*
X83971256Y-47029500D01*
X83902160Y-47039567D01*
X83902159Y-47039567D01*
X83795574Y-47091673D01*
X83795569Y-47091677D01*
X83711677Y-47175569D01*
X83711673Y-47175574D01*
X83659567Y-47282159D01*
X83659567Y-47282160D01*
X83649500Y-47351255D01*
X83649500Y-47728744D01*
X83659567Y-47797839D01*
X83659567Y-47797840D01*
X83711673Y-47904425D01*
X83711675Y-47904428D01*
X83711676Y-47904429D01*
X83795571Y-47988324D01*
X83795573Y-47988325D01*
X83795576Y-47988327D01*
X83841373Y-48010715D01*
X83889520Y-48034254D01*
X83914345Y-48062363D01*
X83917000Y-48078274D01*
X83917000Y-48085500D01*
X83902648Y-48120148D01*
X83868000Y-48134500D01*
X83662244Y-48134500D01*
X83662234Y-48134500D01*
X83662232Y-48134501D01*
X83632657Y-48137274D01*
X83632648Y-48137275D01*
X83508022Y-48180885D01*
X83401788Y-48259288D01*
X83323385Y-48365522D01*
X83279775Y-48490148D01*
X83279774Y-48490157D01*
X83277001Y-48519732D01*
X83277000Y-48519753D01*
X83277000Y-49100246D01*
X83277001Y-49100267D01*
X83279774Y-49129842D01*
X83279775Y-49129851D01*
X83310294Y-49217069D01*
X83323384Y-49254475D01*
X83323385Y-49254477D01*
X83323384Y-49254477D01*
X83401788Y-49360711D01*
X83508022Y-49439114D01*
X83508025Y-49439116D01*
X83632651Y-49482725D01*
X83662244Y-49485500D01*
X84060350Y-49485500D01*
X84094998Y-49499852D01*
X84102785Y-49510000D01*
X84124753Y-49548050D01*
X84127036Y-49552005D01*
X84127038Y-49552007D01*
X84127040Y-49552011D01*
X84127042Y-49552013D01*
X84128994Y-49554556D01*
X84127470Y-49555725D01*
X84139500Y-49584767D01*
X84139500Y-49655799D01*
X84125148Y-49690447D01*
X84090500Y-49704799D01*
X84080942Y-49703858D01*
X84051867Y-49698075D01*
X84033893Y-49694500D01*
X84033891Y-49694500D01*
X83846111Y-49694500D01*
X83767931Y-49710050D01*
X83679282Y-49769282D01*
X83620050Y-49857931D01*
X83616557Y-49875491D01*
X83604500Y-49936107D01*
X83604500Y-50303398D01*
X83604501Y-50650500D01*
X83590149Y-50685148D01*
X83555501Y-50699500D01*
X83320252Y-50699500D01*
X83271517Y-50709194D01*
X83234736Y-50701877D01*
X83202069Y-50680050D01*
X83182524Y-50676162D01*
X83123893Y-50664500D01*
X83123890Y-50664500D01*
X82496809Y-50664500D01*
X82462161Y-50650148D01*
X82447809Y-50615500D01*
X82448411Y-50607844D01*
X82465492Y-50500000D01*
X82445646Y-50374696D01*
X82445644Y-50374692D01*
X82445644Y-50374690D01*
X82388054Y-50261664D01*
X82388049Y-50261657D01*
X82298342Y-50171950D01*
X82298335Y-50171945D01*
X82185308Y-50114355D01*
X82185305Y-50114354D01*
X82185304Y-50114354D01*
X82060000Y-50094508D01*
X81934696Y-50114354D01*
X81934694Y-50114354D01*
X81934692Y-50114355D01*
X81934690Y-50114355D01*
X81821664Y-50171945D01*
X81821656Y-50171951D01*
X81753106Y-50240501D01*
X81718458Y-50254853D01*
X81683810Y-50240501D01*
X81674437Y-50227374D01*
X81657450Y-50192627D01*
X81657449Y-50192626D01*
X81657449Y-50192625D01*
X81572375Y-50107551D01*
X81464286Y-50054709D01*
X81440929Y-50051306D01*
X81394217Y-50044500D01*
X81005783Y-50044500D01*
X80935714Y-50054708D01*
X80935713Y-50054708D01*
X80827627Y-50107549D01*
X80827623Y-50107552D01*
X80742552Y-50192623D01*
X80742551Y-50192625D01*
X80690291Y-50299522D01*
X80662182Y-50324345D01*
X80646272Y-50327000D01*
X80242698Y-50327000D01*
X80179468Y-50353192D01*
X80151765Y-50364667D01*
X80141439Y-50368944D01*
X80141438Y-50368944D01*
X79943942Y-50566443D01*
X79866444Y-50643939D01*
X79866444Y-50643940D01*
X79824500Y-50745198D01*
X79824500Y-50755951D01*
X79810148Y-50790599D01*
X79795292Y-50800776D01*
X79718731Y-50834580D01*
X79644580Y-50908731D01*
X79602221Y-51004664D01*
X79602219Y-51004670D01*
X79599501Y-51028102D01*
X79599500Y-51028122D01*
X79599500Y-51271877D01*
X79599501Y-51271897D01*
X79602219Y-51295329D01*
X79602221Y-51295335D01*
X79644580Y-51391268D01*
X79718731Y-51465419D01*
X79814664Y-51507778D01*
X79814670Y-51507780D01*
X79838102Y-51510498D01*
X79838106Y-51510498D01*
X79838120Y-51510500D01*
X79838123Y-51510500D01*
X80361877Y-51510500D01*
X80361880Y-51510500D01*
X80363047Y-51510364D01*
X80385329Y-51507780D01*
X80385331Y-51507779D01*
X80385333Y-51507779D01*
X80481267Y-51465420D01*
X80555420Y-51391267D01*
X80597779Y-51295333D01*
X80597779Y-51295331D01*
X80597780Y-51295329D01*
X80600498Y-51271897D01*
X80600500Y-51271877D01*
X80600500Y-51028122D01*
X80600498Y-51028102D01*
X80597780Y-51004670D01*
X80597778Y-51004664D01*
X80572225Y-50946792D01*
X80571359Y-50909299D01*
X80597258Y-50882175D01*
X80617050Y-50878000D01*
X80646271Y-50878000D01*
X80680919Y-50892352D01*
X80690292Y-50905479D01*
X80742549Y-51012372D01*
X80742550Y-51012374D01*
X80742551Y-51012375D01*
X80827625Y-51097449D01*
X80935714Y-51150291D01*
X80944093Y-51151511D01*
X80976309Y-51170707D01*
X80985517Y-51207062D01*
X80966321Y-51239279D01*
X80944096Y-51248487D01*
X80935713Y-51249708D01*
X80827627Y-51302549D01*
X80827623Y-51302552D01*
X80742552Y-51387623D01*
X80742550Y-51387627D01*
X80689709Y-51495713D01*
X80689709Y-51495714D01*
X80679500Y-51565783D01*
X80679500Y-52029216D01*
X80689708Y-52099285D01*
X80689708Y-52099286D01*
X80742549Y-52207372D01*
X80742550Y-52207374D01*
X80742551Y-52207375D01*
X80827625Y-52292449D01*
X80935714Y-52345291D01*
X81005785Y-52355500D01*
X81348088Y-52355499D01*
X81382736Y-52369851D01*
X81653737Y-52640852D01*
X81668089Y-52675500D01*
X81653737Y-52710148D01*
X81619089Y-52724500D01*
X81545200Y-52724500D01*
X81545198Y-52724500D01*
X81545196Y-52724501D01*
X81473598Y-52754157D01*
X81473599Y-52754158D01*
X81443939Y-52766443D01*
X81443938Y-52766444D01*
X81043942Y-53166443D01*
X80966444Y-53243939D01*
X80966444Y-53243940D01*
X80924500Y-53345198D01*
X80924500Y-55229603D01*
X80910148Y-55264251D01*
X80897021Y-55273624D01*
X80827628Y-55307548D01*
X80827623Y-55307552D01*
X80742552Y-55392623D01*
X80742550Y-55392627D01*
X80689709Y-55500713D01*
X80689709Y-55500714D01*
X80679500Y-55570783D01*
X80679500Y-56034216D01*
X80689708Y-56104285D01*
X80689708Y-56104286D01*
X80742549Y-56212372D01*
X80742550Y-56212374D01*
X80742551Y-56212375D01*
X80827625Y-56297449D01*
X80935714Y-56350291D01*
X80944093Y-56351511D01*
X80976309Y-56370707D01*
X80985517Y-56407062D01*
X80966321Y-56439279D01*
X80944096Y-56448487D01*
X80935713Y-56449708D01*
X80827627Y-56502549D01*
X80827623Y-56502552D01*
X80742552Y-56587623D01*
X80742550Y-56587627D01*
X80689709Y-56695713D01*
X80689709Y-56695714D01*
X80684340Y-56732565D01*
X80665142Y-56764782D01*
X80635852Y-56774500D01*
X80541483Y-56774500D01*
X80506835Y-56760148D01*
X80481267Y-56734580D01*
X80481266Y-56734579D01*
X80385335Y-56692221D01*
X80385329Y-56692219D01*
X80361897Y-56689501D01*
X80361882Y-56689500D01*
X80361880Y-56689500D01*
X80361877Y-56689500D01*
X80005188Y-56689500D01*
X79970540Y-56675148D01*
X79956188Y-56640500D01*
X79970540Y-56605852D01*
X79975960Y-56600432D01*
X79998050Y-56578342D01*
X80004271Y-56566133D01*
X80055644Y-56465309D01*
X80055644Y-56465307D01*
X80055646Y-56465304D01*
X80075492Y-56340000D01*
X80055646Y-56214696D01*
X80055644Y-56214692D01*
X80055644Y-56214690D01*
X79998054Y-56101664D01*
X79998049Y-56101657D01*
X79908342Y-56011950D01*
X79908335Y-56011945D01*
X79795308Y-55954355D01*
X79795305Y-55954354D01*
X79795304Y-55954354D01*
X79670000Y-55934508D01*
X79544696Y-55954354D01*
X79544694Y-55954354D01*
X79544692Y-55954355D01*
X79544690Y-55954355D01*
X79431664Y-56011945D01*
X79431657Y-56011950D01*
X79341950Y-56101657D01*
X79341945Y-56101664D01*
X79284355Y-56214690D01*
X79284355Y-56214692D01*
X79284354Y-56214694D01*
X79284354Y-56214696D01*
X79264508Y-56340000D01*
X78760500Y-56340000D01*
X78760500Y-56288122D01*
X78760498Y-56288102D01*
X78757780Y-56264670D01*
X78757778Y-56264664D01*
X78715419Y-56168731D01*
X78714074Y-56166767D01*
X78705500Y-56139077D01*
X78705500Y-55947896D01*
X78719852Y-55913248D01*
X78754500Y-55898896D01*
X78762160Y-55899498D01*
X78800000Y-55905492D01*
X78925304Y-55885646D01*
X78925308Y-55885644D01*
X78925309Y-55885644D01*
X79038335Y-55828054D01*
X79038337Y-55828052D01*
X79038342Y-55828050D01*
X79128050Y-55738342D01*
X79129462Y-55735571D01*
X79185644Y-55625309D01*
X79185644Y-55625307D01*
X79185646Y-55625304D01*
X79205492Y-55500000D01*
X79185646Y-55374696D01*
X79185644Y-55374692D01*
X79185644Y-55374690D01*
X79128054Y-55261664D01*
X79128049Y-55261657D01*
X79038342Y-55171950D01*
X79038335Y-55171945D01*
X78925308Y-55114355D01*
X78925305Y-55114354D01*
X78925304Y-55114354D01*
X78800000Y-55094508D01*
X78799999Y-55094508D01*
X78739786Y-55104044D01*
X78703320Y-55095288D01*
X78683725Y-55063311D01*
X78686852Y-55036896D01*
X78689857Y-55029643D01*
X78705500Y-54951000D01*
X78705500Y-54930349D01*
X78719852Y-54895701D01*
X78754500Y-54881349D01*
X78770762Y-54885257D01*
X78771024Y-54884453D01*
X78774692Y-54885644D01*
X78774696Y-54885646D01*
X78900000Y-54905492D01*
X79025304Y-54885646D01*
X79025308Y-54885644D01*
X79025309Y-54885644D01*
X79138335Y-54828054D01*
X79138337Y-54828052D01*
X79138342Y-54828050D01*
X79228050Y-54738342D01*
X79248698Y-54697818D01*
X79277215Y-54673462D01*
X79314602Y-54676404D01*
X79336016Y-54697819D01*
X79371945Y-54768335D01*
X79371950Y-54768342D01*
X79461657Y-54858049D01*
X79461664Y-54858054D01*
X79574691Y-54915644D01*
X79574692Y-54915644D01*
X79574696Y-54915646D01*
X79700000Y-54935492D01*
X79825304Y-54915646D01*
X79825308Y-54915644D01*
X79825309Y-54915644D01*
X79938335Y-54858054D01*
X79938337Y-54858052D01*
X79938342Y-54858050D01*
X80028050Y-54768342D01*
X80035091Y-54754524D01*
X80085644Y-54655309D01*
X80085644Y-54655307D01*
X80085646Y-54655304D01*
X80105492Y-54530000D01*
X80085646Y-54404696D01*
X80085644Y-54404692D01*
X80085644Y-54404690D01*
X80028054Y-54291664D01*
X80028049Y-54291657D01*
X79938342Y-54201950D01*
X79938335Y-54201945D01*
X79825309Y-54144355D01*
X79825302Y-54144353D01*
X79813873Y-54142543D01*
X79781897Y-54122947D01*
X79773144Y-54086480D01*
X79786889Y-54059502D01*
X79828050Y-54018342D01*
X79829513Y-54015471D01*
X79885644Y-53905309D01*
X79885644Y-53905307D01*
X79885646Y-53905304D01*
X79905492Y-53780000D01*
X79885646Y-53654696D01*
X79885644Y-53654692D01*
X79885644Y-53654690D01*
X79828054Y-53541664D01*
X79828049Y-53541657D01*
X79738342Y-53451950D01*
X79738335Y-53451945D01*
X79625308Y-53394355D01*
X79625305Y-53394354D01*
X79625304Y-53394354D01*
X79500000Y-53374508D01*
X79374696Y-53394354D01*
X79374694Y-53394354D01*
X79374694Y-53394355D01*
X79371744Y-53395858D01*
X79334356Y-53398799D01*
X79305840Y-53374442D01*
X79300500Y-53352198D01*
X79300500Y-50835255D01*
X79300500Y-50835252D01*
X79288867Y-50776769D01*
X79262301Y-50737012D01*
X79244552Y-50710447D01*
X79199057Y-50680049D01*
X79178231Y-50666133D01*
X79119748Y-50654500D01*
X79119745Y-50654500D01*
X78809500Y-50654500D01*
X78774852Y-50640148D01*
X78760500Y-50605500D01*
X78760500Y-50388119D01*
X78760498Y-50388102D01*
X78757780Y-50364670D01*
X78757778Y-50364664D01*
X78715419Y-50268731D01*
X78714074Y-50266767D01*
X78705500Y-50239077D01*
X78705500Y-49049003D01*
X78705500Y-49049000D01*
X78689857Y-48970357D01*
X78675505Y-48935709D01*
X78667292Y-48922638D01*
X78661009Y-48885665D01*
X78668821Y-48868210D01*
X78675505Y-48858791D01*
X78681679Y-48843886D01*
X78708197Y-48817367D01*
X78745700Y-48817367D01*
X78758463Y-48825895D01*
X78758543Y-48825786D01*
X78761316Y-48827801D01*
X78761597Y-48827989D01*
X78761657Y-48828049D01*
X78761664Y-48828054D01*
X78874695Y-48885646D01*
X78886123Y-48887456D01*
X78918100Y-48907051D01*
X78926855Y-48943518D01*
X78913107Y-48970500D01*
X78901951Y-48981656D01*
X78901945Y-48981664D01*
X78844355Y-49094690D01*
X78844355Y-49094692D01*
X78844354Y-49094694D01*
X78844354Y-49094696D01*
X78824508Y-49220000D01*
X78844354Y-49345304D01*
X78844354Y-49345305D01*
X78844355Y-49345307D01*
X78844355Y-49345309D01*
X78901945Y-49458335D01*
X78901950Y-49458342D01*
X78929001Y-49485393D01*
X78943353Y-49520041D01*
X78933995Y-49548842D01*
X78931948Y-49551659D01*
X78874355Y-49664690D01*
X78874355Y-49664692D01*
X78874354Y-49664694D01*
X78874354Y-49664696D01*
X78854508Y-49790000D01*
X78874354Y-49915304D01*
X78874354Y-49915305D01*
X78874355Y-49915307D01*
X78874355Y-49915309D01*
X78931945Y-50028335D01*
X78931950Y-50028342D01*
X79021657Y-50118049D01*
X79021664Y-50118054D01*
X79134691Y-50175644D01*
X79134692Y-50175644D01*
X79134696Y-50175646D01*
X79260000Y-50195492D01*
X79385304Y-50175646D01*
X79385308Y-50175644D01*
X79385309Y-50175644D01*
X79498335Y-50118054D01*
X79498337Y-50118052D01*
X79498342Y-50118050D01*
X79588050Y-50028342D01*
X79590119Y-50024282D01*
X79645644Y-49915309D01*
X79645644Y-49915307D01*
X79645646Y-49915304D01*
X79665492Y-49790000D01*
X79645646Y-49664696D01*
X79645644Y-49664692D01*
X79645644Y-49664690D01*
X79588054Y-49551664D01*
X79588050Y-49551659D01*
X79588050Y-49551658D01*
X79560998Y-49524606D01*
X79546646Y-49489958D01*
X79553133Y-49470000D01*
X80224508Y-49470000D01*
X80244354Y-49595304D01*
X80244354Y-49595305D01*
X80244355Y-49595307D01*
X80244355Y-49595309D01*
X80301945Y-49708335D01*
X80301950Y-49708342D01*
X80391657Y-49798049D01*
X80391664Y-49798054D01*
X80504691Y-49855644D01*
X80504692Y-49855644D01*
X80504696Y-49855646D01*
X80630000Y-49875492D01*
X80755304Y-49855646D01*
X80755308Y-49855644D01*
X80755309Y-49855644D01*
X80868335Y-49798054D01*
X80868337Y-49798052D01*
X80868342Y-49798050D01*
X80958050Y-49708342D01*
X80958054Y-49708335D01*
X81015644Y-49595309D01*
X81015644Y-49595307D01*
X81015646Y-49595304D01*
X81035492Y-49470000D01*
X81015646Y-49344696D01*
X81015644Y-49344692D01*
X81015644Y-49344690D01*
X80958054Y-49231664D01*
X80958049Y-49231657D01*
X80868342Y-49141950D01*
X80868335Y-49141945D01*
X80755308Y-49084355D01*
X80755305Y-49084354D01*
X80755304Y-49084354D01*
X80630000Y-49064508D01*
X80504696Y-49084354D01*
X80504694Y-49084354D01*
X80504692Y-49084355D01*
X80504690Y-49084355D01*
X80391664Y-49141945D01*
X80391657Y-49141950D01*
X80301950Y-49231657D01*
X80301945Y-49231664D01*
X80244355Y-49344690D01*
X80244355Y-49344692D01*
X80244354Y-49344694D01*
X80244354Y-49344696D01*
X80224508Y-49470000D01*
X79553133Y-49470000D01*
X79556010Y-49461149D01*
X79558047Y-49458344D01*
X79558050Y-49458342D01*
X79558054Y-49458335D01*
X79615644Y-49345309D01*
X79615644Y-49345307D01*
X79615646Y-49345304D01*
X79635492Y-49220000D01*
X79615646Y-49094696D01*
X79615644Y-49094692D01*
X79615644Y-49094690D01*
X79558054Y-48981664D01*
X79558049Y-48981657D01*
X79468342Y-48891950D01*
X79468335Y-48891945D01*
X79355309Y-48834355D01*
X79355301Y-48834353D01*
X79343874Y-48832543D01*
X79311898Y-48812947D01*
X79303145Y-48776480D01*
X79316894Y-48749498D01*
X79328046Y-48738346D01*
X79328046Y-48738345D01*
X79328050Y-48738342D01*
X79385646Y-48625304D01*
X79405492Y-48500000D01*
X79385646Y-48374696D01*
X79347484Y-48299799D01*
X79328721Y-48262974D01*
X79325778Y-48225586D01*
X79339090Y-48210000D01*
X79794508Y-48210000D01*
X79814354Y-48335304D01*
X79814354Y-48335305D01*
X79814355Y-48335307D01*
X79814355Y-48335309D01*
X79871945Y-48448335D01*
X79871950Y-48448342D01*
X79961657Y-48538049D01*
X79961664Y-48538054D01*
X80074691Y-48595644D01*
X80074692Y-48595644D01*
X80074696Y-48595646D01*
X80200000Y-48615492D01*
X80325304Y-48595646D01*
X80325308Y-48595644D01*
X80325309Y-48595644D01*
X80438335Y-48538054D01*
X80438337Y-48538052D01*
X80438342Y-48538050D01*
X80528050Y-48448342D01*
X80537651Y-48429500D01*
X80585644Y-48335309D01*
X80585644Y-48335307D01*
X80585646Y-48335304D01*
X80605492Y-48210000D01*
X80585646Y-48084696D01*
X80585644Y-48084692D01*
X80585644Y-48084690D01*
X80528054Y-47971664D01*
X80528049Y-47971657D01*
X80438342Y-47881950D01*
X80438335Y-47881945D01*
X80325308Y-47824355D01*
X80325305Y-47824354D01*
X80325304Y-47824354D01*
X80200000Y-47804508D01*
X80074696Y-47824354D01*
X80074694Y-47824354D01*
X80074692Y-47824355D01*
X80074690Y-47824355D01*
X79961664Y-47881945D01*
X79961657Y-47881950D01*
X79871950Y-47971657D01*
X79871945Y-47971664D01*
X79814355Y-48084690D01*
X79814355Y-48084692D01*
X79814354Y-48084694D01*
X79814354Y-48084696D01*
X79794508Y-48210000D01*
X79339090Y-48210000D01*
X79350134Y-48197069D01*
X79380044Y-48192331D01*
X79400000Y-48195492D01*
X79525304Y-48175646D01*
X79525308Y-48175644D01*
X79525309Y-48175644D01*
X79638335Y-48118054D01*
X79638337Y-48118052D01*
X79638342Y-48118050D01*
X79728050Y-48028342D01*
X79734924Y-48014852D01*
X79785644Y-47915309D01*
X79785644Y-47915307D01*
X79785646Y-47915304D01*
X79805492Y-47790000D01*
X79785646Y-47664696D01*
X79785644Y-47664692D01*
X79785644Y-47664690D01*
X79728054Y-47551664D01*
X79728049Y-47551657D01*
X79638342Y-47461950D01*
X79638335Y-47461945D01*
X79525308Y-47404355D01*
X79525305Y-47404354D01*
X79525304Y-47404354D01*
X79400000Y-47384508D01*
X79399999Y-47384508D01*
X79357165Y-47391292D01*
X79320698Y-47382536D01*
X79301103Y-47350560D01*
X79300500Y-47342895D01*
X79300500Y-44835255D01*
X79300500Y-44835252D01*
X79288867Y-44776769D01*
X79260750Y-44734690D01*
X79244552Y-44710447D01*
X79194898Y-44677270D01*
X79178231Y-44666133D01*
X79119748Y-44654500D01*
X79119745Y-44654500D01*
X78809500Y-44654500D01*
X78774852Y-44640148D01*
X78760500Y-44605500D01*
X78760500Y-44388122D01*
X78760498Y-44388102D01*
X78757779Y-44364666D01*
X78757153Y-44362363D01*
X78761905Y-44325163D01*
X78791571Y-44302219D01*
X78804434Y-44300500D01*
X80660204Y-44300500D01*
X80694852Y-44314852D01*
G37*
%TD.AperFunction*%
%TD*%
%TA.AperFunction,Conductor*%
%TO.N,PHASE_A*%
G36*
X78455251Y-55219852D02*
G01*
X78469603Y-55254500D01*
X78464262Y-55276746D01*
X78414355Y-55374693D01*
X78414354Y-55374694D01*
X78414354Y-55374696D01*
X78394508Y-55500000D01*
X78414354Y-55625304D01*
X78414354Y-55625305D01*
X78414355Y-55625307D01*
X78414355Y-55625309D01*
X78471945Y-55738335D01*
X78471950Y-55738342D01*
X78485648Y-55752040D01*
X78500000Y-55786688D01*
X78500000Y-59650500D01*
X78485648Y-59685148D01*
X78451000Y-59699500D01*
X72002407Y-59699500D01*
X71997604Y-59699264D01*
X71868336Y-59686532D01*
X71858915Y-59684658D01*
X71736932Y-59647655D01*
X71728057Y-59643979D01*
X71615635Y-59583887D01*
X71607649Y-59578550D01*
X71509110Y-59497681D01*
X71502318Y-59490889D01*
X71421449Y-59392350D01*
X71416112Y-59384364D01*
X71356020Y-59271942D01*
X71352346Y-59263072D01*
X71315339Y-59141075D01*
X71313468Y-59131672D01*
X71300736Y-59002396D01*
X71300500Y-58997593D01*
X71300500Y-55254500D01*
X71314852Y-55219852D01*
X71349500Y-55205500D01*
X78420603Y-55205500D01*
X78455251Y-55219852D01*
G37*
%TD.AperFunction*%
%TD*%
%TA.AperFunction,Conductor*%
%TO.N,PHASE_C*%
G36*
X78485648Y-44314852D02*
G01*
X78500000Y-44349500D01*
X78500000Y-48745500D01*
X78485648Y-48780148D01*
X78451000Y-48794500D01*
X71349500Y-48794500D01*
X71314852Y-48780148D01*
X71300500Y-48745500D01*
X71300500Y-45002406D01*
X71300736Y-44997603D01*
X71313469Y-44868325D01*
X71315338Y-44858925D01*
X71352347Y-44736924D01*
X71356016Y-44728064D01*
X71416112Y-44615634D01*
X71421449Y-44607649D01*
X71502318Y-44509110D01*
X71509110Y-44502318D01*
X71607649Y-44421449D01*
X71615635Y-44416112D01*
X71728064Y-44356016D01*
X71736924Y-44352347D01*
X71858925Y-44315338D01*
X71868325Y-44313469D01*
X71997604Y-44300736D01*
X72002407Y-44300500D01*
X78451000Y-44300500D01*
X78485648Y-44314852D01*
G37*
%TD.AperFunction*%
%TD*%
%TA.AperFunction,Conductor*%
%TO.N,PHASE_B*%
G36*
X78485648Y-49014352D02*
G01*
X78500000Y-49049000D01*
X78500000Y-54461466D01*
X78499397Y-54469131D01*
X78494508Y-54499999D01*
X78499397Y-54530867D01*
X78500000Y-54538532D01*
X78500000Y-54951000D01*
X78485648Y-54985648D01*
X78451000Y-55000000D01*
X71349500Y-55000000D01*
X71314852Y-54985648D01*
X71300500Y-54951000D01*
X71300500Y-49049000D01*
X71314852Y-49014352D01*
X71349500Y-49000000D01*
X78451000Y-49000000D01*
X78485648Y-49014352D01*
G37*
%TD.AperFunction*%
%TD*%
M02*
