%TF.GenerationSoftware,KiCad,Pcbnew,8.0.8*%
%TF.CreationDate,2025-04-24T20:58:00+02:00*%
%TF.ProjectId,ESC_PCB,4553435f-5043-4422-9e6b-696361645f70,rev?*%
%TF.SameCoordinates,Original*%
%TF.FileFunction,Plated,1,4,PTH,Drill*%
%TF.FilePolarity,Positive*%
%FSLAX46Y46*%
G04 Gerber Fmt 4.6, Leading zero omitted, Abs format (unit mm)*
G04 Created by KiCad (PCBNEW 8.0.8) date 2025-04-24 20:58:00*
%MOMM*%
%LPD*%
G01*
G04 APERTURE LIST*
%TA.AperFunction,ViaDrill*%
%ADD10C,0.200000*%
%TD*%
%TA.AperFunction,ViaDrill*%
%ADD11C,0.260000*%
%TD*%
%TA.AperFunction,ViaDrill*%
%ADD12C,0.400000*%
%TD*%
G04 APERTURE END LIST*
D10*
X76345000Y-48399050D03*
X77750000Y-49500000D03*
X78800000Y-55500000D03*
X78900000Y-54500000D03*
X79000000Y-48500000D03*
X79230000Y-49220000D03*
X79260000Y-49790000D03*
X79400000Y-47790000D03*
X79500000Y-53780000D03*
X79670000Y-56340000D03*
X79700000Y-54530000D03*
X80200000Y-48210000D03*
X80630000Y-49470000D03*
X81500000Y-59500000D03*
X81951250Y-46648750D03*
X82060000Y-50500000D03*
X82260000Y-44860000D03*
X82290000Y-45660000D03*
X82800000Y-54300000D03*
X84000000Y-57750000D03*
X84940000Y-49540000D03*
X85000000Y-55325000D03*
X85415000Y-48985000D03*
X85750000Y-58500000D03*
X86800000Y-54500000D03*
X87200000Y-53900000D03*
X87600000Y-50100000D03*
X87800000Y-57700000D03*
X88250000Y-48000000D03*
X89100000Y-51175000D03*
X89485485Y-53285485D03*
X89800000Y-51300000D03*
X90400000Y-51700000D03*
X90700000Y-49400000D03*
X91000000Y-57750000D03*
X91700000Y-49300000D03*
X91800000Y-58700000D03*
X93300000Y-54750000D03*
X93800000Y-58700000D03*
X94360000Y-57420000D03*
X94375000Y-50625000D03*
X95800000Y-58700000D03*
X103800000Y-55500000D03*
D11*
X72000000Y-45000000D03*
X72000000Y-46000000D03*
X72000000Y-47000000D03*
X72000000Y-51000000D03*
X72000000Y-52000000D03*
X72000000Y-53000000D03*
X72000000Y-57000000D03*
X72000000Y-58000000D03*
X72000000Y-59000000D03*
X73000000Y-45000000D03*
X73000000Y-46000000D03*
X73000000Y-47000000D03*
X73000000Y-51000000D03*
X73000000Y-52000000D03*
X73000000Y-53000000D03*
X73000000Y-57000000D03*
X73000000Y-58000000D03*
X73000000Y-59000000D03*
X74000000Y-45000000D03*
X74000000Y-46000000D03*
X74000000Y-47000000D03*
X74000000Y-51000000D03*
X74000000Y-52000000D03*
X74000000Y-53000000D03*
X74000000Y-57000000D03*
X74000000Y-58000000D03*
X74000000Y-59000000D03*
X75000000Y-45000000D03*
X75000000Y-46000000D03*
X75000000Y-47000000D03*
X75000000Y-51000000D03*
X75000000Y-52000000D03*
X75000000Y-53000000D03*
X75000000Y-57000000D03*
X75000000Y-58000000D03*
X75000000Y-59000000D03*
X76000000Y-45000000D03*
X76000000Y-46000000D03*
X76000000Y-47000000D03*
X76000000Y-51000000D03*
X76000000Y-52000000D03*
X76000000Y-53000000D03*
X76000000Y-57000000D03*
X76000000Y-58000000D03*
X76000000Y-59000000D03*
X82635000Y-49750000D03*
X85400000Y-57200000D03*
X86900000Y-48300000D03*
X89200000Y-58767500D03*
X90000000Y-55300000D03*
X90100000Y-56450000D03*
X102000000Y-45000000D03*
X102000000Y-46000000D03*
X102000000Y-47000000D03*
X102000000Y-57000000D03*
X102000000Y-58000000D03*
X102000000Y-59000000D03*
X103000000Y-45000000D03*
X103000000Y-46000000D03*
X103000000Y-47000000D03*
X103000000Y-57000000D03*
X103000000Y-58000000D03*
X103000000Y-59000000D03*
X104000000Y-45000000D03*
X104000000Y-46000000D03*
X104000000Y-47000000D03*
X104000000Y-57000000D03*
X104000000Y-58000000D03*
X104000000Y-59000000D03*
X105000000Y-45000000D03*
X105000000Y-46000000D03*
X105000000Y-47000000D03*
X105000000Y-57000000D03*
X105000000Y-58000000D03*
X105000000Y-59000000D03*
X106000000Y-45000000D03*
X106000000Y-46000000D03*
X106000000Y-47000000D03*
X106000000Y-57000000D03*
X106000000Y-58000000D03*
X106000000Y-59000000D03*
D12*
X89750000Y-48000000D03*
X90750000Y-48000000D03*
X91750000Y-48000000D03*
X93000000Y-48500000D03*
X95550000Y-50690000D03*
X96250000Y-57600000D03*
X99530000Y-53330000D03*
X101950000Y-54450000D03*
X103950000Y-52000000D03*
M02*
