%TF.GenerationSoftware,KiCad,Pcbnew,8.0.8*%
%TF.CreationDate,2025-04-24T20:58:01+02:00*%
%TF.ProjectId,ESC_PCB,4553435f-5043-4422-9e6b-696361645f70,rev?*%
%TF.SameCoordinates,Original*%
%TF.FileFunction,Drillmap*%
%TF.FilePolarity,Positive*%
%FSLAX45Y45*%
G04 Gerber Fmt 4.5, Leading zero omitted, Abs format (unit mm)*
G04 Created by KiCad (PCBNEW 8.0.8) date 2025-04-24 20:58:01*
%MOMM*%
%LPD*%
G01*
G04 APERTURE LIST*
%ADD10C,0.050000*%
%ADD11C,0.200000*%
G04 APERTURE END LIST*
D10*
X7100000Y-4500000D02*
G75*
G02*
X7200000Y-4400000I100000J0D01*
G01*
X7200000Y-4400000D02*
X10600000Y-4400000D01*
X10600000Y-6000000D02*
X7200000Y-6000000D01*
X10700000Y-5900000D02*
G75*
G02*
X10600000Y-6000000I-100000J0D01*
G01*
X10600000Y-4400000D02*
G75*
G02*
X10700000Y-4500000I0J-100000D01*
G01*
X10700000Y-4500000D02*
X10700000Y-5900000D01*
X7100000Y-5900000D02*
X7100000Y-4500000D01*
X7200000Y-6000000D02*
G75*
G02*
X7100000Y-5900000I0J100000D01*
G01*
D11*
X7358277Y-6313984D02*
X7358277Y-6113984D01*
X7358277Y-6113984D02*
X7405896Y-6113984D01*
X7405896Y-6113984D02*
X7434467Y-6123508D01*
X7434467Y-6123508D02*
X7453515Y-6142555D01*
X7453515Y-6142555D02*
X7463039Y-6161603D01*
X7463039Y-6161603D02*
X7472562Y-6199698D01*
X7472562Y-6199698D02*
X7472562Y-6228269D01*
X7472562Y-6228269D02*
X7463039Y-6266365D01*
X7463039Y-6266365D02*
X7453515Y-6285412D01*
X7453515Y-6285412D02*
X7434467Y-6304460D01*
X7434467Y-6304460D02*
X7405896Y-6313984D01*
X7405896Y-6313984D02*
X7358277Y-6313984D01*
X7558277Y-6313984D02*
X7558277Y-6180650D01*
X7558277Y-6218746D02*
X7567801Y-6199698D01*
X7567801Y-6199698D02*
X7577324Y-6190174D01*
X7577324Y-6190174D02*
X7596372Y-6180650D01*
X7596372Y-6180650D02*
X7615420Y-6180650D01*
X7682086Y-6313984D02*
X7682086Y-6180650D01*
X7682086Y-6113984D02*
X7672562Y-6123508D01*
X7672562Y-6123508D02*
X7682086Y-6133031D01*
X7682086Y-6133031D02*
X7691610Y-6123508D01*
X7691610Y-6123508D02*
X7682086Y-6113984D01*
X7682086Y-6113984D02*
X7682086Y-6133031D01*
X7805896Y-6313984D02*
X7786848Y-6304460D01*
X7786848Y-6304460D02*
X7777324Y-6285412D01*
X7777324Y-6285412D02*
X7777324Y-6113984D01*
X7910658Y-6313984D02*
X7891610Y-6304460D01*
X7891610Y-6304460D02*
X7882086Y-6285412D01*
X7882086Y-6285412D02*
X7882086Y-6113984D01*
X8139229Y-6313984D02*
X8139229Y-6113984D01*
X8139229Y-6113984D02*
X8205896Y-6256841D01*
X8205896Y-6256841D02*
X8272562Y-6113984D01*
X8272562Y-6113984D02*
X8272562Y-6313984D01*
X8453515Y-6313984D02*
X8453515Y-6209222D01*
X8453515Y-6209222D02*
X8443991Y-6190174D01*
X8443991Y-6190174D02*
X8424944Y-6180650D01*
X8424944Y-6180650D02*
X8386848Y-6180650D01*
X8386848Y-6180650D02*
X8367801Y-6190174D01*
X8453515Y-6304460D02*
X8434467Y-6313984D01*
X8434467Y-6313984D02*
X8386848Y-6313984D01*
X8386848Y-6313984D02*
X8367801Y-6304460D01*
X8367801Y-6304460D02*
X8358277Y-6285412D01*
X8358277Y-6285412D02*
X8358277Y-6266365D01*
X8358277Y-6266365D02*
X8367801Y-6247317D01*
X8367801Y-6247317D02*
X8386848Y-6237793D01*
X8386848Y-6237793D02*
X8434467Y-6237793D01*
X8434467Y-6237793D02*
X8453515Y-6228269D01*
X8548753Y-6180650D02*
X8548753Y-6380650D01*
X8548753Y-6190174D02*
X8567801Y-6180650D01*
X8567801Y-6180650D02*
X8605896Y-6180650D01*
X8605896Y-6180650D02*
X8624944Y-6190174D01*
X8624944Y-6190174D02*
X8634467Y-6199698D01*
X8634467Y-6199698D02*
X8643991Y-6218746D01*
X8643991Y-6218746D02*
X8643991Y-6275888D01*
X8643991Y-6275888D02*
X8634467Y-6294936D01*
X8634467Y-6294936D02*
X8624944Y-6304460D01*
X8624944Y-6304460D02*
X8605896Y-6313984D01*
X8605896Y-6313984D02*
X8567801Y-6313984D01*
X8567801Y-6313984D02*
X8548753Y-6304460D01*
X8729705Y-6294936D02*
X8739229Y-6304460D01*
X8739229Y-6304460D02*
X8729705Y-6313984D01*
X8729705Y-6313984D02*
X8720182Y-6304460D01*
X8720182Y-6304460D02*
X8729705Y-6294936D01*
X8729705Y-6294936D02*
X8729705Y-6313984D01*
X8729705Y-6190174D02*
X8739229Y-6199698D01*
X8739229Y-6199698D02*
X8729705Y-6209222D01*
X8729705Y-6209222D02*
X8720182Y-6199698D01*
X8720182Y-6199698D02*
X8729705Y-6190174D01*
X8729705Y-6190174D02*
X8729705Y-6209222D01*
M02*
