%TF.GenerationSoftware,KiCad,Pcbnew,8.0.8*%
%TF.CreationDate,2025-04-24T20:57:55+02:00*%
%TF.ProjectId,ESC_PCB,4553435f-5043-4422-9e6b-696361645f70,rev?*%
%TF.SameCoordinates,Original*%
%TF.FileFunction,Legend,Bot*%
%TF.FilePolarity,Positive*%
%FSLAX46Y46*%
G04 Gerber Fmt 4.6, Leading zero omitted, Abs format (unit mm)*
G04 Created by KiCad (PCBNEW 8.0.8) date 2025-04-24 20:57:55*
%MOMM*%
%LPD*%
G01*
G04 APERTURE LIST*
%ADD10C,0.100000*%
%ADD11C,0.150000*%
%ADD12C,0.125000*%
%ADD13C,0.160000*%
%ADD14C,0.120000*%
G04 APERTURE END LIST*
D10*
X104500000Y-51450000D02*
X106400000Y-51450000D01*
X106400000Y-52350000D01*
X104500000Y-52350000D01*
X104500000Y-51450000D01*
X94980000Y-57690000D02*
X94930000Y-57640000D01*
X95090000Y-57690000D02*
X94810000Y-57410000D01*
D11*
X99780000Y-56750000D02*
X95750000Y-56750000D01*
D10*
X100000000Y-56800000D02*
X100900000Y-56800000D01*
X100900000Y-59150000D01*
X100000000Y-59150000D01*
X100000000Y-56800000D01*
X104250000Y-48950000D02*
X106475000Y-48950000D01*
X106475000Y-49850000D01*
X104250000Y-49850000D01*
X104250000Y-48950000D01*
X104050000Y-54000000D02*
X106400000Y-54000000D01*
X106400000Y-54850000D01*
X104050000Y-54850000D01*
X104050000Y-54000000D01*
D11*
X95750000Y-56750000D02*
X95000000Y-57500000D01*
D10*
X95000000Y-57500000D02*
X94750000Y-57750000D01*
X94750000Y-57750000D02*
X94810000Y-57410000D01*
X94875000Y-57625000D02*
X94850000Y-57510000D01*
X94850000Y-57510000D02*
X94862500Y-57567500D01*
X100050000Y-44850000D02*
X100950000Y-44850000D01*
X100950000Y-47050000D01*
X100050000Y-47050000D01*
X100050000Y-44850000D01*
X95090000Y-57690000D02*
X94750000Y-57750000D01*
D12*
G36*
X106422554Y-52369720D02*
G01*
X104523446Y-52369720D01*
X104523446Y-51569764D01*
X104601224Y-51569764D01*
X104856140Y-52281000D01*
X104985907Y-52281000D01*
X105068876Y-52045403D01*
X105306475Y-52045403D01*
X105308952Y-52083236D01*
X105316381Y-52118773D01*
X105328763Y-52152014D01*
X105346098Y-52182959D01*
X105368385Y-52211608D01*
X105376915Y-52220647D01*
X105404406Y-52244876D01*
X105434048Y-52264092D01*
X105465843Y-52278295D01*
X105499789Y-52287486D01*
X105535887Y-52291663D01*
X105548398Y-52291942D01*
X105586681Y-52289422D01*
X105622543Y-52281862D01*
X105655983Y-52269263D01*
X105687001Y-52251625D01*
X105703639Y-52239283D01*
X105729919Y-52214379D01*
X105751912Y-52185745D01*
X105769619Y-52153380D01*
X105783038Y-52117285D01*
X105788782Y-52094984D01*
X105647390Y-52094984D01*
X105627056Y-52124926D01*
X105604305Y-52144053D01*
X105572569Y-52157462D01*
X105545491Y-52160637D01*
X105511354Y-52155529D01*
X105479639Y-52138606D01*
X105469581Y-52129691D01*
X105449323Y-52101503D01*
X105439393Y-52067501D01*
X105438293Y-52049848D01*
X105443090Y-52014191D01*
X105458985Y-51982102D01*
X105467358Y-51972228D01*
X105495146Y-51951424D01*
X105530148Y-51942063D01*
X105537798Y-51941795D01*
X105572004Y-51948265D01*
X105581395Y-51952395D01*
X105610457Y-51971981D01*
X105623454Y-51984196D01*
X105733046Y-51959918D01*
X105714654Y-51876143D01*
X105864351Y-51876143D01*
X105864351Y-51996505D01*
X106044211Y-51996505D01*
X106044211Y-52171579D01*
X106164403Y-52171579D01*
X106164403Y-51996505D01*
X106344776Y-51996505D01*
X106344776Y-51876143D01*
X106164403Y-51876143D01*
X106164403Y-51701069D01*
X106044211Y-51701069D01*
X106044211Y-51876143D01*
X105864351Y-51876143D01*
X105714654Y-51876143D01*
X105647390Y-51569764D01*
X105316050Y-51569764D01*
X105316050Y-51690127D01*
X105546859Y-51690127D01*
X105575753Y-51817500D01*
X105552330Y-51812200D01*
X105530104Y-51810490D01*
X105495156Y-51812810D01*
X105457285Y-51821382D01*
X105422540Y-51836269D01*
X105390920Y-51857472D01*
X105370247Y-51876484D01*
X105345399Y-51907124D01*
X105326653Y-51941298D01*
X105314011Y-51979006D01*
X105308032Y-52014141D01*
X105306475Y-52045403D01*
X105068876Y-52045403D01*
X105236378Y-51569764D01*
X105097892Y-51569764D01*
X104920083Y-52074981D01*
X104739710Y-51569764D01*
X104601224Y-51569764D01*
X104523446Y-51569764D01*
X104523446Y-51491986D01*
X106422554Y-51491986D01*
X106422554Y-52369720D01*
G37*
D13*
X94578070Y-56889346D02*
X94611403Y-56922680D01*
X94611403Y-56922680D02*
X94711403Y-56956013D01*
X94711403Y-56956013D02*
X94778070Y-56956013D01*
X94778070Y-56956013D02*
X94878070Y-56922680D01*
X94878070Y-56922680D02*
X94944737Y-56856013D01*
X94944737Y-56856013D02*
X94978070Y-56789346D01*
X94978070Y-56789346D02*
X95011403Y-56656013D01*
X95011403Y-56656013D02*
X95011403Y-56556013D01*
X95011403Y-56556013D02*
X94978070Y-56422680D01*
X94978070Y-56422680D02*
X94944737Y-56356013D01*
X94944737Y-56356013D02*
X94878070Y-56289346D01*
X94878070Y-56289346D02*
X94778070Y-56256013D01*
X94778070Y-56256013D02*
X94711403Y-56256013D01*
X94711403Y-56256013D02*
X94611403Y-56289346D01*
X94611403Y-56289346D02*
X94578070Y-56322680D01*
X94344737Y-56256013D02*
X93878070Y-56256013D01*
X93878070Y-56256013D02*
X94178070Y-56956013D01*
X96028070Y-53106013D02*
X96261403Y-52772680D01*
X96428070Y-53106013D02*
X96428070Y-52406013D01*
X96428070Y-52406013D02*
X96161403Y-52406013D01*
X96161403Y-52406013D02*
X96094737Y-52439346D01*
X96094737Y-52439346D02*
X96061403Y-52472680D01*
X96061403Y-52472680D02*
X96028070Y-52539346D01*
X96028070Y-52539346D02*
X96028070Y-52639346D01*
X96028070Y-52639346D02*
X96061403Y-52706013D01*
X96061403Y-52706013D02*
X96094737Y-52739346D01*
X96094737Y-52739346D02*
X96161403Y-52772680D01*
X96161403Y-52772680D02*
X96428070Y-52772680D01*
X95694737Y-53106013D02*
X95561403Y-53106013D01*
X95561403Y-53106013D02*
X95494737Y-53072680D01*
X95494737Y-53072680D02*
X95461403Y-53039346D01*
X95461403Y-53039346D02*
X95394737Y-52939346D01*
X95394737Y-52939346D02*
X95361403Y-52806013D01*
X95361403Y-52806013D02*
X95361403Y-52539346D01*
X95361403Y-52539346D02*
X95394737Y-52472680D01*
X95394737Y-52472680D02*
X95428070Y-52439346D01*
X95428070Y-52439346D02*
X95494737Y-52406013D01*
X95494737Y-52406013D02*
X95628070Y-52406013D01*
X95628070Y-52406013D02*
X95694737Y-52439346D01*
X95694737Y-52439346D02*
X95728070Y-52472680D01*
X95728070Y-52472680D02*
X95761403Y-52539346D01*
X95761403Y-52539346D02*
X95761403Y-52706013D01*
X95761403Y-52706013D02*
X95728070Y-52772680D01*
X95728070Y-52772680D02*
X95694737Y-52806013D01*
X95694737Y-52806013D02*
X95628070Y-52839346D01*
X95628070Y-52839346D02*
X95494737Y-52839346D01*
X95494737Y-52839346D02*
X95428070Y-52806013D01*
X95428070Y-52806013D02*
X95394737Y-52772680D01*
X95394737Y-52772680D02*
X95361403Y-52706013D01*
D12*
G36*
X100749695Y-45863928D02*
G01*
X100748680Y-45901890D01*
X100745036Y-45939325D01*
X100737769Y-45973851D01*
X100728494Y-45997798D01*
X100708403Y-46026921D01*
X100682846Y-46049816D01*
X100656858Y-46065844D01*
X100623081Y-46079819D01*
X100588828Y-46087971D01*
X100550923Y-46091930D01*
X100532905Y-46092344D01*
X100492240Y-46090126D01*
X100455135Y-46083472D01*
X100421587Y-46072383D01*
X100386946Y-46053838D01*
X100357147Y-46029256D01*
X100335297Y-46001193D01*
X100318813Y-45966518D01*
X100308955Y-45931536D01*
X100303041Y-45891698D01*
X100301124Y-45854789D01*
X100301069Y-45847002D01*
X100301069Y-45801353D01*
X100749695Y-45801353D01*
X100749695Y-45863928D01*
G37*
G36*
X100969720Y-47080537D02*
G01*
X100081044Y-47080537D01*
X100081044Y-46694501D01*
X100158822Y-46694501D01*
X100160581Y-46732487D01*
X100165858Y-46769852D01*
X100174653Y-46806594D01*
X100186966Y-46842716D01*
X100195581Y-46863077D01*
X100213077Y-46897460D01*
X100233551Y-46929700D01*
X100257003Y-46959796D01*
X100283433Y-46987749D01*
X100299872Y-47002759D01*
X100388948Y-46908555D01*
X100360479Y-46877891D01*
X100336835Y-46846057D01*
X100318017Y-46813056D01*
X100304024Y-46778885D01*
X100294856Y-46743546D01*
X100290513Y-46707037D01*
X100290127Y-46692107D01*
X100292501Y-46655205D01*
X100299624Y-46620540D01*
X100311495Y-46588110D01*
X100328115Y-46557917D01*
X100349483Y-46529959D01*
X100357660Y-46521137D01*
X100384033Y-46497547D01*
X100417612Y-46476194D01*
X100454218Y-46461484D01*
X100488004Y-46454163D01*
X100524014Y-46451723D01*
X100561554Y-46454157D01*
X100596659Y-46461460D01*
X100629330Y-46473632D01*
X100646429Y-46482498D01*
X100677531Y-46504220D01*
X100704158Y-46530917D01*
X100724296Y-46559199D01*
X100730204Y-46569521D01*
X100744915Y-46602149D01*
X100754812Y-46636751D01*
X100759894Y-46673327D01*
X100760637Y-46694501D01*
X100758566Y-46730167D01*
X100752355Y-46763864D01*
X100740741Y-46798654D01*
X100739436Y-46801699D01*
X100722673Y-46832998D01*
X100701762Y-46862794D01*
X100678542Y-46890574D01*
X100661816Y-46908555D01*
X100756704Y-46999853D01*
X100783658Y-46970789D01*
X100807330Y-46942327D01*
X100827720Y-46914465D01*
X100847361Y-46882720D01*
X100862535Y-46851793D01*
X100875400Y-46815686D01*
X100883642Y-46782077D01*
X100889070Y-46746586D01*
X100891683Y-46709213D01*
X100891942Y-46692620D01*
X100890331Y-46652308D01*
X100885498Y-46613867D01*
X100877444Y-46577295D01*
X100866168Y-46542594D01*
X100851670Y-46509762D01*
X100833951Y-46478801D01*
X100813010Y-46449709D01*
X100788847Y-46422487D01*
X100762122Y-46397884D01*
X100733581Y-46376560D01*
X100703223Y-46358518D01*
X100671048Y-46343756D01*
X100637057Y-46332274D01*
X100601250Y-46324073D01*
X100563626Y-46319152D01*
X100524185Y-46317512D01*
X100485835Y-46319195D01*
X100449132Y-46324244D01*
X100414076Y-46332659D01*
X100380667Y-46344439D01*
X100348904Y-46359586D01*
X100338683Y-46365383D01*
X100309353Y-46384784D01*
X100282271Y-46407081D01*
X100257437Y-46432276D01*
X100234850Y-46460368D01*
X100214512Y-46491357D01*
X100208233Y-46502330D01*
X100191441Y-46536279D01*
X100178123Y-46571188D01*
X100168280Y-46607060D01*
X100161910Y-46643893D01*
X100159015Y-46681688D01*
X100158822Y-46694501D01*
X100081044Y-46694501D01*
X100081044Y-45801353D01*
X100169764Y-45801353D01*
X100169764Y-45826828D01*
X100170089Y-45847002D01*
X100170365Y-45864185D01*
X100172169Y-45899063D01*
X100176113Y-45939174D01*
X100181936Y-45975411D01*
X100191403Y-46013784D01*
X100203574Y-46046578D01*
X100208233Y-46056270D01*
X100227361Y-46087838D01*
X100251088Y-46116871D01*
X100279412Y-46143368D01*
X100307350Y-46164060D01*
X100333212Y-46179881D01*
X100366675Y-46196382D01*
X100402182Y-46209469D01*
X100439733Y-46219143D01*
X100479327Y-46225402D01*
X100513883Y-46228010D01*
X100535298Y-46228436D01*
X100570639Y-46227136D01*
X100604703Y-46223233D01*
X100642070Y-46215588D01*
X100677771Y-46204544D01*
X100686436Y-46201252D01*
X100719422Y-46186367D01*
X100749481Y-46168896D01*
X100779797Y-46146150D01*
X100800815Y-46126196D01*
X100824095Y-46098646D01*
X100842967Y-46069852D01*
X100858765Y-46036400D01*
X100863561Y-46022588D01*
X100871991Y-45984759D01*
X100876640Y-45946379D01*
X100879296Y-45907243D01*
X100880574Y-45870232D01*
X100881000Y-45829221D01*
X100881000Y-45667142D01*
X100169764Y-45667142D01*
X100169764Y-45801353D01*
X100081044Y-45801353D01*
X100081044Y-45065498D01*
X100169764Y-45065498D01*
X100674981Y-45243307D01*
X100169764Y-45423681D01*
X100169764Y-45562166D01*
X100881000Y-45307250D01*
X100881000Y-45177484D01*
X100169764Y-44927013D01*
X100169764Y-45065498D01*
X100081044Y-45065498D01*
X100081044Y-44849235D01*
X100969720Y-44849235D01*
X100969720Y-47080537D01*
G37*
D13*
X75828070Y-55906013D02*
X76061403Y-55572680D01*
X76228070Y-55906013D02*
X76228070Y-55206013D01*
X76228070Y-55206013D02*
X75961403Y-55206013D01*
X75961403Y-55206013D02*
X75894737Y-55239346D01*
X75894737Y-55239346D02*
X75861403Y-55272680D01*
X75861403Y-55272680D02*
X75828070Y-55339346D01*
X75828070Y-55339346D02*
X75828070Y-55439346D01*
X75828070Y-55439346D02*
X75861403Y-55506013D01*
X75861403Y-55506013D02*
X75894737Y-55539346D01*
X75894737Y-55539346D02*
X75961403Y-55572680D01*
X75961403Y-55572680D02*
X76228070Y-55572680D01*
X75161403Y-55906013D02*
X75561403Y-55906013D01*
X75361403Y-55906013D02*
X75361403Y-55206013D01*
X75361403Y-55206013D02*
X75428070Y-55306013D01*
X75428070Y-55306013D02*
X75494737Y-55372680D01*
X75494737Y-55372680D02*
X75561403Y-55406013D01*
X74561403Y-55206013D02*
X74694736Y-55206013D01*
X74694736Y-55206013D02*
X74761403Y-55239346D01*
X74761403Y-55239346D02*
X74794736Y-55272680D01*
X74794736Y-55272680D02*
X74861403Y-55372680D01*
X74861403Y-55372680D02*
X74894736Y-55506013D01*
X74894736Y-55506013D02*
X74894736Y-55772680D01*
X74894736Y-55772680D02*
X74861403Y-55839346D01*
X74861403Y-55839346D02*
X74828070Y-55872680D01*
X74828070Y-55872680D02*
X74761403Y-55906013D01*
X74761403Y-55906013D02*
X74628070Y-55906013D01*
X74628070Y-55906013D02*
X74561403Y-55872680D01*
X74561403Y-55872680D02*
X74528070Y-55839346D01*
X74528070Y-55839346D02*
X74494736Y-55772680D01*
X74494736Y-55772680D02*
X74494736Y-55606013D01*
X74494736Y-55606013D02*
X74528070Y-55539346D01*
X74528070Y-55539346D02*
X74561403Y-55506013D01*
X74561403Y-55506013D02*
X74628070Y-55472680D01*
X74628070Y-55472680D02*
X74761403Y-55472680D01*
X74761403Y-55472680D02*
X74828070Y-55506013D01*
X74828070Y-55506013D02*
X74861403Y-55539346D01*
X74861403Y-55539346D02*
X74894736Y-55606013D01*
D12*
G36*
X106185090Y-54343316D02*
G01*
X106142348Y-54343316D01*
X106106337Y-54342159D01*
X106072079Y-54336307D01*
X106043917Y-54316803D01*
X106040963Y-54312884D01*
X106029954Y-54280440D01*
X106029678Y-54273390D01*
X106037629Y-54238640D01*
X106061479Y-54214747D01*
X106094433Y-54204489D01*
X106128544Y-54201403D01*
X106147135Y-54201069D01*
X106185090Y-54201069D01*
X106185090Y-54343316D01*
G37*
G36*
X106397422Y-54858778D02*
G01*
X104032933Y-54858778D01*
X104032933Y-54781000D01*
X104110711Y-54781000D01*
X104240478Y-54781000D01*
X104316559Y-54331861D01*
X104467013Y-54781000D01*
X104585837Y-54781000D01*
X104734410Y-54331861D01*
X104811859Y-54781000D01*
X104942993Y-54781000D01*
X104820921Y-54069764D01*
X104989839Y-54069764D01*
X105149012Y-54781000D01*
X105278265Y-54781000D01*
X105408715Y-54321261D01*
X105536601Y-54781000D01*
X105664487Y-54781000D01*
X105778661Y-54273561D01*
X105899399Y-54273561D01*
X105901825Y-54308770D01*
X105910353Y-54344676D01*
X105925020Y-54376660D01*
X105938210Y-54395804D01*
X105962135Y-54420873D01*
X105990442Y-54441263D01*
X106023131Y-54456973D01*
X106043185Y-54463679D01*
X106077540Y-54469909D01*
X106112018Y-54472815D01*
X106148742Y-54474237D01*
X106185090Y-54474621D01*
X106185090Y-54781000D01*
X106319644Y-54781000D01*
X106319644Y-54069764D01*
X106176884Y-54069764D01*
X106142241Y-54070286D01*
X106104847Y-54072290D01*
X106066979Y-54076526D01*
X106031294Y-54083873D01*
X106009846Y-54091136D01*
X105977149Y-54108822D01*
X105949584Y-54132731D01*
X105928977Y-54159866D01*
X105913379Y-54191318D01*
X105903559Y-54226477D01*
X105899659Y-54261289D01*
X105899403Y-54273390D01*
X105899399Y-54273561D01*
X105778661Y-54273561D01*
X105824515Y-54069764D01*
X105691842Y-54069764D01*
X105589944Y-54523690D01*
X105463426Y-54069764D01*
X105351441Y-54069764D01*
X105223555Y-54523690D01*
X105122512Y-54069764D01*
X104989839Y-54069764D01*
X104820921Y-54069764D01*
X104689103Y-54069764D01*
X104525655Y-54565919D01*
X104359815Y-54069764D01*
X104230048Y-54069764D01*
X104110711Y-54781000D01*
X104032933Y-54781000D01*
X104032933Y-53991986D01*
X106397422Y-53991986D01*
X106397422Y-54858778D01*
G37*
G36*
X100699695Y-58675617D02*
G01*
X100698680Y-58713579D01*
X100695036Y-58751013D01*
X100687769Y-58785540D01*
X100678494Y-58809487D01*
X100658403Y-58838610D01*
X100632846Y-58861505D01*
X100606858Y-58877533D01*
X100573081Y-58891507D01*
X100538828Y-58899659D01*
X100500923Y-58903619D01*
X100482905Y-58904033D01*
X100442240Y-58901815D01*
X100405135Y-58895161D01*
X100371587Y-58884072D01*
X100336946Y-58865527D01*
X100307147Y-58840945D01*
X100285297Y-58812881D01*
X100268813Y-58778207D01*
X100258955Y-58743225D01*
X100253041Y-58703386D01*
X100251124Y-58666478D01*
X100251069Y-58658691D01*
X100251069Y-58613042D01*
X100699695Y-58613042D01*
X100699695Y-58675617D01*
G37*
G36*
X100919720Y-59117903D02*
G01*
X100031044Y-59117903D01*
X100031044Y-58613042D01*
X100119764Y-58613042D01*
X100119764Y-58638517D01*
X100120089Y-58658691D01*
X100120365Y-58675874D01*
X100122169Y-58710751D01*
X100126113Y-58750863D01*
X100131936Y-58787100D01*
X100141403Y-58825472D01*
X100153574Y-58858266D01*
X100158233Y-58867958D01*
X100177361Y-58899527D01*
X100201088Y-58928560D01*
X100229412Y-58955056D01*
X100257350Y-58975749D01*
X100283212Y-58991570D01*
X100316675Y-59008071D01*
X100352182Y-59021158D01*
X100389733Y-59030831D01*
X100429327Y-59037090D01*
X100463883Y-59039698D01*
X100485298Y-59040125D01*
X100520639Y-59038824D01*
X100554703Y-59034922D01*
X100592070Y-59027276D01*
X100627771Y-59016233D01*
X100636436Y-59012941D01*
X100669422Y-58998056D01*
X100699481Y-58980585D01*
X100729797Y-58957839D01*
X100750815Y-58937885D01*
X100774095Y-58910335D01*
X100792967Y-58881541D01*
X100808765Y-58848088D01*
X100813561Y-58834277D01*
X100821991Y-58796448D01*
X100826640Y-58758067D01*
X100829296Y-58718932D01*
X100830574Y-58681920D01*
X100831000Y-58640910D01*
X100831000Y-58478831D01*
X100119764Y-58478831D01*
X100119764Y-58613042D01*
X100031044Y-58613042D01*
X100031044Y-57882829D01*
X100119764Y-57882829D01*
X100587880Y-58186301D01*
X100119764Y-58186301D01*
X100119764Y-58320854D01*
X100831000Y-58320854D01*
X100831000Y-58191601D01*
X100364422Y-57888642D01*
X100831000Y-57888642D01*
X100831000Y-57753918D01*
X100119764Y-57753918D01*
X100119764Y-57882829D01*
X100031044Y-57882829D01*
X100031044Y-57278450D01*
X100108822Y-57278450D01*
X100110012Y-57312651D01*
X100114409Y-57351488D01*
X100122046Y-57389180D01*
X100132922Y-57425727D01*
X100142674Y-57451130D01*
X100159440Y-57484811D01*
X100178335Y-57514002D01*
X100201173Y-57542930D01*
X100227955Y-57571597D01*
X100240640Y-57583803D01*
X100333306Y-57489085D01*
X100306462Y-57460256D01*
X100284169Y-57429974D01*
X100266425Y-57398239D01*
X100253230Y-57365052D01*
X100244586Y-57330412D01*
X100240491Y-57294320D01*
X100240127Y-57279476D01*
X100242501Y-57241499D01*
X100249624Y-57205914D01*
X100261495Y-57172721D01*
X100278115Y-57141920D01*
X100299483Y-57113512D01*
X100307660Y-57104574D01*
X100334007Y-57080635D01*
X100367328Y-57058967D01*
X100403430Y-57044040D01*
X100442314Y-57035854D01*
X100471792Y-57034134D01*
X100508222Y-57036701D01*
X100542501Y-57044400D01*
X100574628Y-57057233D01*
X100604603Y-57075199D01*
X100632427Y-57098298D01*
X100641223Y-57107138D01*
X100664813Y-57135775D01*
X100683522Y-57166804D01*
X100697350Y-57200226D01*
X100706298Y-57236039D01*
X100710365Y-57274245D01*
X100710637Y-57287512D01*
X100708540Y-57325005D01*
X100702252Y-57359009D01*
X100690347Y-57392698D01*
X100684136Y-57404968D01*
X100664652Y-57433085D01*
X100639323Y-57457595D01*
X100608151Y-57478499D01*
X100601216Y-57482247D01*
X100601216Y-57277424D01*
X100469911Y-57277424D01*
X100469911Y-57633213D01*
X100499318Y-57634239D01*
X100539027Y-57631940D01*
X100577820Y-57625043D01*
X100615696Y-57613549D01*
X100647432Y-57600037D01*
X100673365Y-57586196D01*
X100702775Y-57567177D01*
X100733638Y-57542450D01*
X100760787Y-57514990D01*
X100784221Y-57484798D01*
X100798686Y-57461559D01*
X100815541Y-57426856D01*
X100828255Y-57389616D01*
X100835859Y-57355678D01*
X100840421Y-57319876D01*
X100841942Y-57282212D01*
X100840283Y-57241758D01*
X100835306Y-57202975D01*
X100827011Y-57165863D01*
X100815398Y-57130422D01*
X100800468Y-57096652D01*
X100794754Y-57085767D01*
X100775646Y-57054716D01*
X100753713Y-57026189D01*
X100728955Y-57000187D01*
X100701372Y-56976710D01*
X100670964Y-56955756D01*
X100660200Y-56949333D01*
X100626957Y-56932251D01*
X100592753Y-56918703D01*
X100557586Y-56908689D01*
X100521458Y-56902209D01*
X100484369Y-56899264D01*
X100471792Y-56899068D01*
X100429391Y-56901334D01*
X100388744Y-56908134D01*
X100349850Y-56919467D01*
X100312709Y-56935332D01*
X100277322Y-56955731D01*
X100243687Y-56980663D01*
X100230724Y-56991905D01*
X100202153Y-57020467D01*
X100177392Y-57051103D01*
X100156440Y-57083812D01*
X100139298Y-57118593D01*
X100125965Y-57155448D01*
X100116441Y-57194376D01*
X100110727Y-57235377D01*
X100108822Y-57278450D01*
X100031044Y-57278450D01*
X100031044Y-56821290D01*
X100919720Y-56821290D01*
X100919720Y-59117903D01*
G37*
D13*
X89810653Y-56378070D02*
X89777320Y-56411403D01*
X89777320Y-56411403D02*
X89743986Y-56511403D01*
X89743986Y-56511403D02*
X89743986Y-56578070D01*
X89743986Y-56578070D02*
X89777320Y-56678070D01*
X89777320Y-56678070D02*
X89843986Y-56744737D01*
X89843986Y-56744737D02*
X89910653Y-56778070D01*
X89910653Y-56778070D02*
X90043986Y-56811403D01*
X90043986Y-56811403D02*
X90143986Y-56811403D01*
X90143986Y-56811403D02*
X90277320Y-56778070D01*
X90277320Y-56778070D02*
X90343986Y-56744737D01*
X90343986Y-56744737D02*
X90410653Y-56678070D01*
X90410653Y-56678070D02*
X90443986Y-56578070D01*
X90443986Y-56578070D02*
X90443986Y-56511403D01*
X90443986Y-56511403D02*
X90410653Y-56411403D01*
X90410653Y-56411403D02*
X90377320Y-56378070D01*
X90443986Y-55744737D02*
X90443986Y-56078070D01*
X90443986Y-56078070D02*
X90110653Y-56111403D01*
X90110653Y-56111403D02*
X90143986Y-56078070D01*
X90143986Y-56078070D02*
X90177320Y-56011403D01*
X90177320Y-56011403D02*
X90177320Y-55844737D01*
X90177320Y-55844737D02*
X90143986Y-55778070D01*
X90143986Y-55778070D02*
X90110653Y-55744737D01*
X90110653Y-55744737D02*
X90043986Y-55711403D01*
X90043986Y-55711403D02*
X89877320Y-55711403D01*
X89877320Y-55711403D02*
X89810653Y-55744737D01*
X89810653Y-55744737D02*
X89777320Y-55778070D01*
X89777320Y-55778070D02*
X89743986Y-55844737D01*
X89743986Y-55844737D02*
X89743986Y-56011403D01*
X89743986Y-56011403D02*
X89777320Y-56078070D01*
X89777320Y-56078070D02*
X89810653Y-56111403D01*
X96109346Y-55048596D02*
X96076013Y-54981929D01*
X96076013Y-54981929D02*
X96076013Y-54881929D01*
X96076013Y-54881929D02*
X96109346Y-54781929D01*
X96109346Y-54781929D02*
X96176013Y-54715263D01*
X96176013Y-54715263D02*
X96242680Y-54681929D01*
X96242680Y-54681929D02*
X96376013Y-54648596D01*
X96376013Y-54648596D02*
X96476013Y-54648596D01*
X96476013Y-54648596D02*
X96609346Y-54681929D01*
X96609346Y-54681929D02*
X96676013Y-54715263D01*
X96676013Y-54715263D02*
X96742680Y-54781929D01*
X96742680Y-54781929D02*
X96776013Y-54881929D01*
X96776013Y-54881929D02*
X96776013Y-54948596D01*
X96776013Y-54948596D02*
X96742680Y-55048596D01*
X96742680Y-55048596D02*
X96709346Y-55081929D01*
X96709346Y-55081929D02*
X96476013Y-55081929D01*
X96476013Y-55081929D02*
X96476013Y-54948596D01*
X96776013Y-55381929D02*
X96076013Y-55381929D01*
X96076013Y-55381929D02*
X96776013Y-55781929D01*
X96776013Y-55781929D02*
X96076013Y-55781929D01*
X96776013Y-56115262D02*
X96076013Y-56115262D01*
X96076013Y-56115262D02*
X96076013Y-56281929D01*
X96076013Y-56281929D02*
X96109346Y-56381929D01*
X96109346Y-56381929D02*
X96176013Y-56448596D01*
X96176013Y-56448596D02*
X96242680Y-56481929D01*
X96242680Y-56481929D02*
X96376013Y-56515262D01*
X96376013Y-56515262D02*
X96476013Y-56515262D01*
X96476013Y-56515262D02*
X96609346Y-56481929D01*
X96609346Y-56481929D02*
X96676013Y-56448596D01*
X96676013Y-56448596D02*
X96742680Y-56381929D01*
X96742680Y-56381929D02*
X96776013Y-56281929D01*
X96776013Y-56281929D02*
X96776013Y-56115262D01*
X91356013Y-57621929D02*
X91022680Y-57388596D01*
X91356013Y-57221929D02*
X90656013Y-57221929D01*
X90656013Y-57221929D02*
X90656013Y-57488596D01*
X90656013Y-57488596D02*
X90689346Y-57555263D01*
X90689346Y-57555263D02*
X90722680Y-57588596D01*
X90722680Y-57588596D02*
X90789346Y-57621929D01*
X90789346Y-57621929D02*
X90889346Y-57621929D01*
X90889346Y-57621929D02*
X90956013Y-57588596D01*
X90956013Y-57588596D02*
X90989346Y-57555263D01*
X90989346Y-57555263D02*
X91022680Y-57488596D01*
X91022680Y-57488596D02*
X91022680Y-57221929D01*
X90722680Y-57888596D02*
X90689346Y-57921929D01*
X90689346Y-57921929D02*
X90656013Y-57988596D01*
X90656013Y-57988596D02*
X90656013Y-58155263D01*
X90656013Y-58155263D02*
X90689346Y-58221929D01*
X90689346Y-58221929D02*
X90722680Y-58255263D01*
X90722680Y-58255263D02*
X90789346Y-58288596D01*
X90789346Y-58288596D02*
X90856013Y-58288596D01*
X90856013Y-58288596D02*
X90956013Y-58255263D01*
X90956013Y-58255263D02*
X91356013Y-57855263D01*
X91356013Y-57855263D02*
X91356013Y-58288596D01*
X97729346Y-55181929D02*
X97762680Y-55148596D01*
X97762680Y-55148596D02*
X97796013Y-55048596D01*
X97796013Y-55048596D02*
X97796013Y-54981929D01*
X97796013Y-54981929D02*
X97762680Y-54881929D01*
X97762680Y-54881929D02*
X97696013Y-54815263D01*
X97696013Y-54815263D02*
X97629346Y-54781929D01*
X97629346Y-54781929D02*
X97496013Y-54748596D01*
X97496013Y-54748596D02*
X97396013Y-54748596D01*
X97396013Y-54748596D02*
X97262680Y-54781929D01*
X97262680Y-54781929D02*
X97196013Y-54815263D01*
X97196013Y-54815263D02*
X97129346Y-54881929D01*
X97129346Y-54881929D02*
X97096013Y-54981929D01*
X97096013Y-54981929D02*
X97096013Y-55048596D01*
X97096013Y-55048596D02*
X97129346Y-55148596D01*
X97129346Y-55148596D02*
X97162680Y-55181929D01*
X97796013Y-55815263D02*
X97796013Y-55481929D01*
X97796013Y-55481929D02*
X97096013Y-55481929D01*
X97796013Y-56048596D02*
X97096013Y-56048596D01*
X97796013Y-56448596D02*
X97396013Y-56148596D01*
X97096013Y-56448596D02*
X97496013Y-56048596D01*
X88156013Y-58421929D02*
X87822680Y-58188596D01*
X88156013Y-58021929D02*
X87456013Y-58021929D01*
X87456013Y-58021929D02*
X87456013Y-58288596D01*
X87456013Y-58288596D02*
X87489346Y-58355263D01*
X87489346Y-58355263D02*
X87522680Y-58388596D01*
X87522680Y-58388596D02*
X87589346Y-58421929D01*
X87589346Y-58421929D02*
X87689346Y-58421929D01*
X87689346Y-58421929D02*
X87756013Y-58388596D01*
X87756013Y-58388596D02*
X87789346Y-58355263D01*
X87789346Y-58355263D02*
X87822680Y-58288596D01*
X87822680Y-58288596D02*
X87822680Y-58021929D01*
X88156013Y-59088596D02*
X88156013Y-58688596D01*
X88156013Y-58888596D02*
X87456013Y-58888596D01*
X87456013Y-58888596D02*
X87556013Y-58821929D01*
X87556013Y-58821929D02*
X87622680Y-58755263D01*
X87622680Y-58755263D02*
X87656013Y-58688596D01*
X98712680Y-54638596D02*
X98746013Y-54738596D01*
X98746013Y-54738596D02*
X98746013Y-54905263D01*
X98746013Y-54905263D02*
X98712680Y-54971929D01*
X98712680Y-54971929D02*
X98679346Y-55005263D01*
X98679346Y-55005263D02*
X98612680Y-55038596D01*
X98612680Y-55038596D02*
X98546013Y-55038596D01*
X98546013Y-55038596D02*
X98479346Y-55005263D01*
X98479346Y-55005263D02*
X98446013Y-54971929D01*
X98446013Y-54971929D02*
X98412680Y-54905263D01*
X98412680Y-54905263D02*
X98379346Y-54771929D01*
X98379346Y-54771929D02*
X98346013Y-54705263D01*
X98346013Y-54705263D02*
X98312680Y-54671929D01*
X98312680Y-54671929D02*
X98246013Y-54638596D01*
X98246013Y-54638596D02*
X98179346Y-54638596D01*
X98179346Y-54638596D02*
X98112680Y-54671929D01*
X98112680Y-54671929D02*
X98079346Y-54705263D01*
X98079346Y-54705263D02*
X98046013Y-54771929D01*
X98046013Y-54771929D02*
X98046013Y-54938596D01*
X98046013Y-54938596D02*
X98079346Y-55038596D01*
X98046013Y-55271930D02*
X98746013Y-55438596D01*
X98746013Y-55438596D02*
X98246013Y-55571930D01*
X98246013Y-55571930D02*
X98746013Y-55705263D01*
X98746013Y-55705263D02*
X98046013Y-55871930D01*
X98746013Y-56138596D02*
X98046013Y-56138596D01*
X98046013Y-56138596D02*
X98046013Y-56305263D01*
X98046013Y-56305263D02*
X98079346Y-56405263D01*
X98079346Y-56405263D02*
X98146013Y-56471930D01*
X98146013Y-56471930D02*
X98212680Y-56505263D01*
X98212680Y-56505263D02*
X98346013Y-56538596D01*
X98346013Y-56538596D02*
X98446013Y-56538596D01*
X98446013Y-56538596D02*
X98579346Y-56505263D01*
X98579346Y-56505263D02*
X98646013Y-56471930D01*
X98646013Y-56471930D02*
X98712680Y-56405263D01*
X98712680Y-56405263D02*
X98746013Y-56305263D01*
X98746013Y-56305263D02*
X98746013Y-56138596D01*
X75828070Y-54906013D02*
X76061403Y-54572680D01*
X76228070Y-54906013D02*
X76228070Y-54206013D01*
X76228070Y-54206013D02*
X75961403Y-54206013D01*
X75961403Y-54206013D02*
X75894737Y-54239346D01*
X75894737Y-54239346D02*
X75861403Y-54272680D01*
X75861403Y-54272680D02*
X75828070Y-54339346D01*
X75828070Y-54339346D02*
X75828070Y-54439346D01*
X75828070Y-54439346D02*
X75861403Y-54506013D01*
X75861403Y-54506013D02*
X75894737Y-54539346D01*
X75894737Y-54539346D02*
X75961403Y-54572680D01*
X75961403Y-54572680D02*
X76228070Y-54572680D01*
X75161403Y-54906013D02*
X75561403Y-54906013D01*
X75361403Y-54906013D02*
X75361403Y-54206013D01*
X75361403Y-54206013D02*
X75428070Y-54306013D01*
X75428070Y-54306013D02*
X75494737Y-54372680D01*
X75494737Y-54372680D02*
X75561403Y-54406013D01*
X74894736Y-54272680D02*
X74861403Y-54239346D01*
X74861403Y-54239346D02*
X74794736Y-54206013D01*
X74794736Y-54206013D02*
X74628070Y-54206013D01*
X74628070Y-54206013D02*
X74561403Y-54239346D01*
X74561403Y-54239346D02*
X74528070Y-54272680D01*
X74528070Y-54272680D02*
X74494736Y-54339346D01*
X74494736Y-54339346D02*
X74494736Y-54406013D01*
X74494736Y-54406013D02*
X74528070Y-54506013D01*
X74528070Y-54506013D02*
X74928070Y-54906013D01*
X74928070Y-54906013D02*
X74494736Y-54906013D01*
X92139346Y-45521929D02*
X92172680Y-45488596D01*
X92172680Y-45488596D02*
X92206013Y-45388596D01*
X92206013Y-45388596D02*
X92206013Y-45321929D01*
X92206013Y-45321929D02*
X92172680Y-45221929D01*
X92172680Y-45221929D02*
X92106013Y-45155263D01*
X92106013Y-45155263D02*
X92039346Y-45121929D01*
X92039346Y-45121929D02*
X91906013Y-45088596D01*
X91906013Y-45088596D02*
X91806013Y-45088596D01*
X91806013Y-45088596D02*
X91672680Y-45121929D01*
X91672680Y-45121929D02*
X91606013Y-45155263D01*
X91606013Y-45155263D02*
X91539346Y-45221929D01*
X91539346Y-45221929D02*
X91506013Y-45321929D01*
X91506013Y-45321929D02*
X91506013Y-45388596D01*
X91506013Y-45388596D02*
X91539346Y-45488596D01*
X91539346Y-45488596D02*
X91572680Y-45521929D01*
X91572680Y-45788596D02*
X91539346Y-45821929D01*
X91539346Y-45821929D02*
X91506013Y-45888596D01*
X91506013Y-45888596D02*
X91506013Y-46055263D01*
X91506013Y-46055263D02*
X91539346Y-46121929D01*
X91539346Y-46121929D02*
X91572680Y-46155263D01*
X91572680Y-46155263D02*
X91639346Y-46188596D01*
X91639346Y-46188596D02*
X91706013Y-46188596D01*
X91706013Y-46188596D02*
X91806013Y-46155263D01*
X91806013Y-46155263D02*
X92206013Y-45755263D01*
X92206013Y-45755263D02*
X92206013Y-46188596D01*
X91506013Y-46821930D02*
X91506013Y-46488596D01*
X91506013Y-46488596D02*
X91839346Y-46455263D01*
X91839346Y-46455263D02*
X91806013Y-46488596D01*
X91806013Y-46488596D02*
X91772680Y-46555263D01*
X91772680Y-46555263D02*
X91772680Y-46721930D01*
X91772680Y-46721930D02*
X91806013Y-46788596D01*
X91806013Y-46788596D02*
X91839346Y-46821930D01*
X91839346Y-46821930D02*
X91906013Y-46855263D01*
X91906013Y-46855263D02*
X92072680Y-46855263D01*
X92072680Y-46855263D02*
X92139346Y-46821930D01*
X92139346Y-46821930D02*
X92172680Y-46788596D01*
X92172680Y-46788596D02*
X92206013Y-46721930D01*
X92206013Y-46721930D02*
X92206013Y-46555263D01*
X92206013Y-46555263D02*
X92172680Y-46488596D01*
X92172680Y-46488596D02*
X92139346Y-46455263D01*
X83578070Y-53556013D02*
X83811403Y-53222680D01*
X83978070Y-53556013D02*
X83978070Y-52856013D01*
X83978070Y-52856013D02*
X83711403Y-52856013D01*
X83711403Y-52856013D02*
X83644737Y-52889346D01*
X83644737Y-52889346D02*
X83611403Y-52922680D01*
X83611403Y-52922680D02*
X83578070Y-52989346D01*
X83578070Y-52989346D02*
X83578070Y-53089346D01*
X83578070Y-53089346D02*
X83611403Y-53156013D01*
X83611403Y-53156013D02*
X83644737Y-53189346D01*
X83644737Y-53189346D02*
X83711403Y-53222680D01*
X83711403Y-53222680D02*
X83978070Y-53222680D01*
X82944737Y-52856013D02*
X83278070Y-52856013D01*
X83278070Y-52856013D02*
X83311403Y-53189346D01*
X83311403Y-53189346D02*
X83278070Y-53156013D01*
X83278070Y-53156013D02*
X83211403Y-53122680D01*
X83211403Y-53122680D02*
X83044737Y-53122680D01*
X83044737Y-53122680D02*
X82978070Y-53156013D01*
X82978070Y-53156013D02*
X82944737Y-53189346D01*
X82944737Y-53189346D02*
X82911403Y-53256013D01*
X82911403Y-53256013D02*
X82911403Y-53422680D01*
X82911403Y-53422680D02*
X82944737Y-53489346D01*
X82944737Y-53489346D02*
X82978070Y-53522680D01*
X82978070Y-53522680D02*
X83044737Y-53556013D01*
X83044737Y-53556013D02*
X83211403Y-53556013D01*
X83211403Y-53556013D02*
X83278070Y-53522680D01*
X83278070Y-53522680D02*
X83311403Y-53489346D01*
X83628070Y-54506013D02*
X83861403Y-54172680D01*
X84028070Y-54506013D02*
X84028070Y-53806013D01*
X84028070Y-53806013D02*
X83761403Y-53806013D01*
X83761403Y-53806013D02*
X83694737Y-53839346D01*
X83694737Y-53839346D02*
X83661403Y-53872680D01*
X83661403Y-53872680D02*
X83628070Y-53939346D01*
X83628070Y-53939346D02*
X83628070Y-54039346D01*
X83628070Y-54039346D02*
X83661403Y-54106013D01*
X83661403Y-54106013D02*
X83694737Y-54139346D01*
X83694737Y-54139346D02*
X83761403Y-54172680D01*
X83761403Y-54172680D02*
X84028070Y-54172680D01*
X83394737Y-53806013D02*
X82928070Y-53806013D01*
X82928070Y-53806013D02*
X83228070Y-54506013D01*
X85728070Y-47656013D02*
X85961403Y-47322680D01*
X86128070Y-47656013D02*
X86128070Y-46956013D01*
X86128070Y-46956013D02*
X85861403Y-46956013D01*
X85861403Y-46956013D02*
X85794737Y-46989346D01*
X85794737Y-46989346D02*
X85761403Y-47022680D01*
X85761403Y-47022680D02*
X85728070Y-47089346D01*
X85728070Y-47089346D02*
X85728070Y-47189346D01*
X85728070Y-47189346D02*
X85761403Y-47256013D01*
X85761403Y-47256013D02*
X85794737Y-47289346D01*
X85794737Y-47289346D02*
X85861403Y-47322680D01*
X85861403Y-47322680D02*
X86128070Y-47322680D01*
X85061403Y-47656013D02*
X85461403Y-47656013D01*
X85261403Y-47656013D02*
X85261403Y-46956013D01*
X85261403Y-46956013D02*
X85328070Y-47056013D01*
X85328070Y-47056013D02*
X85394737Y-47122680D01*
X85394737Y-47122680D02*
X85461403Y-47156013D01*
X84728070Y-47656013D02*
X84594736Y-47656013D01*
X84594736Y-47656013D02*
X84528070Y-47622680D01*
X84528070Y-47622680D02*
X84494736Y-47589346D01*
X84494736Y-47589346D02*
X84428070Y-47489346D01*
X84428070Y-47489346D02*
X84394736Y-47356013D01*
X84394736Y-47356013D02*
X84394736Y-47089346D01*
X84394736Y-47089346D02*
X84428070Y-47022680D01*
X84428070Y-47022680D02*
X84461403Y-46989346D01*
X84461403Y-46989346D02*
X84528070Y-46956013D01*
X84528070Y-46956013D02*
X84661403Y-46956013D01*
X84661403Y-46956013D02*
X84728070Y-46989346D01*
X84728070Y-46989346D02*
X84761403Y-47022680D01*
X84761403Y-47022680D02*
X84794736Y-47089346D01*
X84794736Y-47089346D02*
X84794736Y-47256013D01*
X84794736Y-47256013D02*
X84761403Y-47322680D01*
X84761403Y-47322680D02*
X84728070Y-47356013D01*
X84728070Y-47356013D02*
X84661403Y-47389346D01*
X84661403Y-47389346D02*
X84528070Y-47389346D01*
X84528070Y-47389346D02*
X84461403Y-47356013D01*
X84461403Y-47356013D02*
X84428070Y-47322680D01*
X84428070Y-47322680D02*
X84394736Y-47256013D01*
X96628070Y-54106013D02*
X96861403Y-53772680D01*
X97028070Y-54106013D02*
X97028070Y-53406013D01*
X97028070Y-53406013D02*
X96761403Y-53406013D01*
X96761403Y-53406013D02*
X96694737Y-53439346D01*
X96694737Y-53439346D02*
X96661403Y-53472680D01*
X96661403Y-53472680D02*
X96628070Y-53539346D01*
X96628070Y-53539346D02*
X96628070Y-53639346D01*
X96628070Y-53639346D02*
X96661403Y-53706013D01*
X96661403Y-53706013D02*
X96694737Y-53739346D01*
X96694737Y-53739346D02*
X96761403Y-53772680D01*
X96761403Y-53772680D02*
X97028070Y-53772680D01*
X95961403Y-54106013D02*
X96361403Y-54106013D01*
X96161403Y-54106013D02*
X96161403Y-53406013D01*
X96161403Y-53406013D02*
X96228070Y-53506013D01*
X96228070Y-53506013D02*
X96294737Y-53572680D01*
X96294737Y-53572680D02*
X96361403Y-53606013D01*
X95528070Y-53406013D02*
X95461403Y-53406013D01*
X95461403Y-53406013D02*
X95394736Y-53439346D01*
X95394736Y-53439346D02*
X95361403Y-53472680D01*
X95361403Y-53472680D02*
X95328070Y-53539346D01*
X95328070Y-53539346D02*
X95294736Y-53672680D01*
X95294736Y-53672680D02*
X95294736Y-53839346D01*
X95294736Y-53839346D02*
X95328070Y-53972680D01*
X95328070Y-53972680D02*
X95361403Y-54039346D01*
X95361403Y-54039346D02*
X95394736Y-54072680D01*
X95394736Y-54072680D02*
X95461403Y-54106013D01*
X95461403Y-54106013D02*
X95528070Y-54106013D01*
X95528070Y-54106013D02*
X95594736Y-54072680D01*
X95594736Y-54072680D02*
X95628070Y-54039346D01*
X95628070Y-54039346D02*
X95661403Y-53972680D01*
X95661403Y-53972680D02*
X95694736Y-53839346D01*
X95694736Y-53839346D02*
X95694736Y-53672680D01*
X95694736Y-53672680D02*
X95661403Y-53539346D01*
X95661403Y-53539346D02*
X95628070Y-53472680D01*
X95628070Y-53472680D02*
X95594736Y-53439346D01*
X95594736Y-53439346D02*
X95528070Y-53406013D01*
X99056013Y-54425263D02*
X99056013Y-54858596D01*
X99056013Y-54858596D02*
X99322680Y-54625263D01*
X99322680Y-54625263D02*
X99322680Y-54725263D01*
X99322680Y-54725263D02*
X99356013Y-54791929D01*
X99356013Y-54791929D02*
X99389346Y-54825263D01*
X99389346Y-54825263D02*
X99456013Y-54858596D01*
X99456013Y-54858596D02*
X99622680Y-54858596D01*
X99622680Y-54858596D02*
X99689346Y-54825263D01*
X99689346Y-54825263D02*
X99722680Y-54791929D01*
X99722680Y-54791929D02*
X99756013Y-54725263D01*
X99756013Y-54725263D02*
X99756013Y-54525263D01*
X99756013Y-54525263D02*
X99722680Y-54458596D01*
X99722680Y-54458596D02*
X99689346Y-54425263D01*
X99689346Y-55158596D02*
X99722680Y-55191930D01*
X99722680Y-55191930D02*
X99756013Y-55158596D01*
X99756013Y-55158596D02*
X99722680Y-55125263D01*
X99722680Y-55125263D02*
X99689346Y-55158596D01*
X99689346Y-55158596D02*
X99756013Y-55158596D01*
X99056013Y-55425263D02*
X99056013Y-55858596D01*
X99056013Y-55858596D02*
X99322680Y-55625263D01*
X99322680Y-55625263D02*
X99322680Y-55725263D01*
X99322680Y-55725263D02*
X99356013Y-55791929D01*
X99356013Y-55791929D02*
X99389346Y-55825263D01*
X99389346Y-55825263D02*
X99456013Y-55858596D01*
X99456013Y-55858596D02*
X99622680Y-55858596D01*
X99622680Y-55858596D02*
X99689346Y-55825263D01*
X99689346Y-55825263D02*
X99722680Y-55791929D01*
X99722680Y-55791929D02*
X99756013Y-55725263D01*
X99756013Y-55725263D02*
X99756013Y-55525263D01*
X99756013Y-55525263D02*
X99722680Y-55458596D01*
X99722680Y-55458596D02*
X99689346Y-55425263D01*
X99056013Y-56058596D02*
X99756013Y-56291930D01*
X99756013Y-56291930D02*
X99056013Y-56525263D01*
X84006013Y-45171929D02*
X83672680Y-44938596D01*
X84006013Y-44771929D02*
X83306013Y-44771929D01*
X83306013Y-44771929D02*
X83306013Y-45038596D01*
X83306013Y-45038596D02*
X83339346Y-45105263D01*
X83339346Y-45105263D02*
X83372680Y-45138596D01*
X83372680Y-45138596D02*
X83439346Y-45171929D01*
X83439346Y-45171929D02*
X83539346Y-45171929D01*
X83539346Y-45171929D02*
X83606013Y-45138596D01*
X83606013Y-45138596D02*
X83639346Y-45105263D01*
X83639346Y-45105263D02*
X83672680Y-45038596D01*
X83672680Y-45038596D02*
X83672680Y-44771929D01*
X84006013Y-45838596D02*
X84006013Y-45438596D01*
X84006013Y-45638596D02*
X83306013Y-45638596D01*
X83306013Y-45638596D02*
X83406013Y-45571929D01*
X83406013Y-45571929D02*
X83472680Y-45505263D01*
X83472680Y-45505263D02*
X83506013Y-45438596D01*
X83606013Y-46238596D02*
X83572680Y-46171930D01*
X83572680Y-46171930D02*
X83539346Y-46138596D01*
X83539346Y-46138596D02*
X83472680Y-46105263D01*
X83472680Y-46105263D02*
X83439346Y-46105263D01*
X83439346Y-46105263D02*
X83372680Y-46138596D01*
X83372680Y-46138596D02*
X83339346Y-46171930D01*
X83339346Y-46171930D02*
X83306013Y-46238596D01*
X83306013Y-46238596D02*
X83306013Y-46371930D01*
X83306013Y-46371930D02*
X83339346Y-46438596D01*
X83339346Y-46438596D02*
X83372680Y-46471930D01*
X83372680Y-46471930D02*
X83439346Y-46505263D01*
X83439346Y-46505263D02*
X83472680Y-46505263D01*
X83472680Y-46505263D02*
X83539346Y-46471930D01*
X83539346Y-46471930D02*
X83572680Y-46438596D01*
X83572680Y-46438596D02*
X83606013Y-46371930D01*
X83606013Y-46371930D02*
X83606013Y-46238596D01*
X83606013Y-46238596D02*
X83639346Y-46171930D01*
X83639346Y-46171930D02*
X83672680Y-46138596D01*
X83672680Y-46138596D02*
X83739346Y-46105263D01*
X83739346Y-46105263D02*
X83872680Y-46105263D01*
X83872680Y-46105263D02*
X83939346Y-46138596D01*
X83939346Y-46138596D02*
X83972680Y-46171930D01*
X83972680Y-46171930D02*
X84006013Y-46238596D01*
X84006013Y-46238596D02*
X84006013Y-46371930D01*
X84006013Y-46371930D02*
X83972680Y-46438596D01*
X83972680Y-46438596D02*
X83939346Y-46471930D01*
X83939346Y-46471930D02*
X83872680Y-46505263D01*
X83872680Y-46505263D02*
X83739346Y-46505263D01*
X83739346Y-46505263D02*
X83672680Y-46471930D01*
X83672680Y-46471930D02*
X83639346Y-46438596D01*
X83639346Y-46438596D02*
X83606013Y-46371930D01*
X93089346Y-45521929D02*
X93122680Y-45488596D01*
X93122680Y-45488596D02*
X93156013Y-45388596D01*
X93156013Y-45388596D02*
X93156013Y-45321929D01*
X93156013Y-45321929D02*
X93122680Y-45221929D01*
X93122680Y-45221929D02*
X93056013Y-45155263D01*
X93056013Y-45155263D02*
X92989346Y-45121929D01*
X92989346Y-45121929D02*
X92856013Y-45088596D01*
X92856013Y-45088596D02*
X92756013Y-45088596D01*
X92756013Y-45088596D02*
X92622680Y-45121929D01*
X92622680Y-45121929D02*
X92556013Y-45155263D01*
X92556013Y-45155263D02*
X92489346Y-45221929D01*
X92489346Y-45221929D02*
X92456013Y-45321929D01*
X92456013Y-45321929D02*
X92456013Y-45388596D01*
X92456013Y-45388596D02*
X92489346Y-45488596D01*
X92489346Y-45488596D02*
X92522680Y-45521929D01*
X92522680Y-45788596D02*
X92489346Y-45821929D01*
X92489346Y-45821929D02*
X92456013Y-45888596D01*
X92456013Y-45888596D02*
X92456013Y-46055263D01*
X92456013Y-46055263D02*
X92489346Y-46121929D01*
X92489346Y-46121929D02*
X92522680Y-46155263D01*
X92522680Y-46155263D02*
X92589346Y-46188596D01*
X92589346Y-46188596D02*
X92656013Y-46188596D01*
X92656013Y-46188596D02*
X92756013Y-46155263D01*
X92756013Y-46155263D02*
X93156013Y-45755263D01*
X93156013Y-45755263D02*
X93156013Y-46188596D01*
X92456013Y-46788596D02*
X92456013Y-46655263D01*
X92456013Y-46655263D02*
X92489346Y-46588596D01*
X92489346Y-46588596D02*
X92522680Y-46555263D01*
X92522680Y-46555263D02*
X92622680Y-46488596D01*
X92622680Y-46488596D02*
X92756013Y-46455263D01*
X92756013Y-46455263D02*
X93022680Y-46455263D01*
X93022680Y-46455263D02*
X93089346Y-46488596D01*
X93089346Y-46488596D02*
X93122680Y-46521930D01*
X93122680Y-46521930D02*
X93156013Y-46588596D01*
X93156013Y-46588596D02*
X93156013Y-46721930D01*
X93156013Y-46721930D02*
X93122680Y-46788596D01*
X93122680Y-46788596D02*
X93089346Y-46821930D01*
X93089346Y-46821930D02*
X93022680Y-46855263D01*
X93022680Y-46855263D02*
X92856013Y-46855263D01*
X92856013Y-46855263D02*
X92789346Y-46821930D01*
X92789346Y-46821930D02*
X92756013Y-46788596D01*
X92756013Y-46788596D02*
X92722680Y-46721930D01*
X92722680Y-46721930D02*
X92722680Y-46588596D01*
X92722680Y-46588596D02*
X92756013Y-46521930D01*
X92756013Y-46521930D02*
X92789346Y-46488596D01*
X92789346Y-46488596D02*
X92856013Y-46455263D01*
X87106013Y-58371929D02*
X86772680Y-58138596D01*
X87106013Y-57971929D02*
X86406013Y-57971929D01*
X86406013Y-57971929D02*
X86406013Y-58238596D01*
X86406013Y-58238596D02*
X86439346Y-58305263D01*
X86439346Y-58305263D02*
X86472680Y-58338596D01*
X86472680Y-58338596D02*
X86539346Y-58371929D01*
X86539346Y-58371929D02*
X86639346Y-58371929D01*
X86639346Y-58371929D02*
X86706013Y-58338596D01*
X86706013Y-58338596D02*
X86739346Y-58305263D01*
X86739346Y-58305263D02*
X86772680Y-58238596D01*
X86772680Y-58238596D02*
X86772680Y-57971929D01*
X86639346Y-58971929D02*
X87106013Y-58971929D01*
X86372680Y-58805263D02*
X86872680Y-58638596D01*
X86872680Y-58638596D02*
X86872680Y-59071929D01*
D12*
G36*
X104711957Y-49649695D02*
G01*
X104649382Y-49649695D01*
X104611420Y-49648680D01*
X104573986Y-49645036D01*
X104539459Y-49637769D01*
X104515512Y-49628494D01*
X104486389Y-49608403D01*
X104463494Y-49582846D01*
X104447466Y-49556858D01*
X104433492Y-49523081D01*
X104425340Y-49488828D01*
X104421380Y-49450923D01*
X104420966Y-49432905D01*
X104423184Y-49392240D01*
X104429838Y-49355135D01*
X104440927Y-49321587D01*
X104459472Y-49286946D01*
X104484054Y-49257147D01*
X104512118Y-49235297D01*
X104546792Y-49218813D01*
X104581774Y-49208955D01*
X104621613Y-49203041D01*
X104658521Y-49201124D01*
X104666308Y-49201069D01*
X104711957Y-49201069D01*
X104711957Y-49649695D01*
G37*
G36*
X106503709Y-49869720D02*
G01*
X104207096Y-49869720D01*
X104207096Y-49435298D01*
X104284874Y-49435298D01*
X104286175Y-49470639D01*
X104290077Y-49504703D01*
X104297723Y-49542070D01*
X104308766Y-49577771D01*
X104312058Y-49586436D01*
X104326943Y-49619422D01*
X104344414Y-49649481D01*
X104367160Y-49679797D01*
X104387114Y-49700815D01*
X104414664Y-49724095D01*
X104443458Y-49742967D01*
X104476911Y-49758765D01*
X104490722Y-49763561D01*
X104528551Y-49771991D01*
X104566932Y-49776640D01*
X104606067Y-49779296D01*
X104643079Y-49780574D01*
X104684089Y-49781000D01*
X104846168Y-49781000D01*
X105004145Y-49781000D01*
X105133398Y-49781000D01*
X105436357Y-49314422D01*
X105436357Y-49781000D01*
X105571081Y-49781000D01*
X105571081Y-49449318D01*
X105690760Y-49449318D01*
X105693059Y-49489027D01*
X105699956Y-49527820D01*
X105711450Y-49565696D01*
X105724962Y-49597432D01*
X105738803Y-49623365D01*
X105757822Y-49652775D01*
X105782549Y-49683638D01*
X105810009Y-49710787D01*
X105840201Y-49734221D01*
X105863440Y-49748686D01*
X105898143Y-49765541D01*
X105935383Y-49778255D01*
X105969321Y-49785859D01*
X106005123Y-49790421D01*
X106042787Y-49791942D01*
X106083241Y-49790283D01*
X106122024Y-49785306D01*
X106159136Y-49777011D01*
X106194577Y-49765398D01*
X106228347Y-49750468D01*
X106239232Y-49744754D01*
X106270283Y-49725646D01*
X106298810Y-49703713D01*
X106324812Y-49678955D01*
X106348289Y-49651372D01*
X106369243Y-49620964D01*
X106375666Y-49610200D01*
X106392748Y-49576957D01*
X106406296Y-49542753D01*
X106416310Y-49507586D01*
X106422790Y-49471458D01*
X106425735Y-49434369D01*
X106425931Y-49421792D01*
X106423665Y-49379391D01*
X106416865Y-49338744D01*
X106405532Y-49299850D01*
X106389667Y-49262709D01*
X106369268Y-49227322D01*
X106344336Y-49193687D01*
X106333094Y-49180724D01*
X106304532Y-49152153D01*
X106273896Y-49127392D01*
X106241187Y-49106440D01*
X106206406Y-49089298D01*
X106169551Y-49075965D01*
X106130623Y-49066441D01*
X106089622Y-49060727D01*
X106046549Y-49058822D01*
X106012348Y-49060012D01*
X105973511Y-49064409D01*
X105935819Y-49072046D01*
X105899272Y-49082922D01*
X105873869Y-49092674D01*
X105840188Y-49109440D01*
X105810997Y-49128335D01*
X105782069Y-49151173D01*
X105753402Y-49177955D01*
X105741196Y-49190640D01*
X105835914Y-49283306D01*
X105864743Y-49256462D01*
X105895025Y-49234169D01*
X105926760Y-49216425D01*
X105959947Y-49203230D01*
X105994587Y-49194586D01*
X106030679Y-49190491D01*
X106045523Y-49190127D01*
X106083500Y-49192501D01*
X106119085Y-49199624D01*
X106152278Y-49211495D01*
X106183079Y-49228115D01*
X106211487Y-49249483D01*
X106220425Y-49257660D01*
X106244364Y-49284007D01*
X106266032Y-49317328D01*
X106280959Y-49353430D01*
X106289145Y-49392314D01*
X106290865Y-49421792D01*
X106288298Y-49458222D01*
X106280599Y-49492501D01*
X106267766Y-49524628D01*
X106249800Y-49554603D01*
X106226701Y-49582427D01*
X106217861Y-49591223D01*
X106189224Y-49614813D01*
X106158195Y-49633522D01*
X106124773Y-49647350D01*
X106088960Y-49656298D01*
X106050754Y-49660365D01*
X106037487Y-49660637D01*
X105999994Y-49658540D01*
X105965990Y-49652252D01*
X105932301Y-49640347D01*
X105920031Y-49634136D01*
X105891914Y-49614652D01*
X105867404Y-49589323D01*
X105846500Y-49558151D01*
X105842752Y-49551216D01*
X106047575Y-49551216D01*
X106047575Y-49419911D01*
X105691786Y-49419911D01*
X105690760Y-49449318D01*
X105571081Y-49449318D01*
X105571081Y-49069764D01*
X105442170Y-49069764D01*
X105138698Y-49537880D01*
X105138698Y-49069764D01*
X105004145Y-49069764D01*
X105004145Y-49781000D01*
X104846168Y-49781000D01*
X104846168Y-49069764D01*
X104686482Y-49069764D01*
X104649125Y-49070365D01*
X104614248Y-49072169D01*
X104574136Y-49076113D01*
X104537899Y-49081936D01*
X104499527Y-49091403D01*
X104466733Y-49103574D01*
X104457041Y-49108233D01*
X104425472Y-49127361D01*
X104396439Y-49151088D01*
X104369943Y-49179412D01*
X104349250Y-49207350D01*
X104333429Y-49233212D01*
X104316928Y-49266675D01*
X104303841Y-49302182D01*
X104294168Y-49339733D01*
X104287909Y-49379327D01*
X104285301Y-49413883D01*
X104284922Y-49432905D01*
X104284874Y-49435298D01*
X104207096Y-49435298D01*
X104207096Y-48981044D01*
X106503709Y-48981044D01*
X106503709Y-49869720D01*
G37*
D13*
X76078070Y-48906013D02*
X76311403Y-48572680D01*
X76478070Y-48906013D02*
X76478070Y-48206013D01*
X76478070Y-48206013D02*
X76211403Y-48206013D01*
X76211403Y-48206013D02*
X76144737Y-48239346D01*
X76144737Y-48239346D02*
X76111403Y-48272680D01*
X76111403Y-48272680D02*
X76078070Y-48339346D01*
X76078070Y-48339346D02*
X76078070Y-48439346D01*
X76078070Y-48439346D02*
X76111403Y-48506013D01*
X76111403Y-48506013D02*
X76144737Y-48539346D01*
X76144737Y-48539346D02*
X76211403Y-48572680D01*
X76211403Y-48572680D02*
X76478070Y-48572680D01*
X75411403Y-48906013D02*
X75811403Y-48906013D01*
X75611403Y-48906013D02*
X75611403Y-48206013D01*
X75611403Y-48206013D02*
X75678070Y-48306013D01*
X75678070Y-48306013D02*
X75744737Y-48372680D01*
X75744737Y-48372680D02*
X75811403Y-48406013D01*
X74811403Y-48439346D02*
X74811403Y-48906013D01*
X74978070Y-48172680D02*
X75144736Y-48672680D01*
X75144736Y-48672680D02*
X74711403Y-48672680D01*
X94578070Y-55689346D02*
X94611403Y-55722680D01*
X94611403Y-55722680D02*
X94711403Y-55756013D01*
X94711403Y-55756013D02*
X94778070Y-55756013D01*
X94778070Y-55756013D02*
X94878070Y-55722680D01*
X94878070Y-55722680D02*
X94944737Y-55656013D01*
X94944737Y-55656013D02*
X94978070Y-55589346D01*
X94978070Y-55589346D02*
X95011403Y-55456013D01*
X95011403Y-55456013D02*
X95011403Y-55356013D01*
X95011403Y-55356013D02*
X94978070Y-55222680D01*
X94978070Y-55222680D02*
X94944737Y-55156013D01*
X94944737Y-55156013D02*
X94878070Y-55089346D01*
X94878070Y-55089346D02*
X94778070Y-55056013D01*
X94778070Y-55056013D02*
X94711403Y-55056013D01*
X94711403Y-55056013D02*
X94611403Y-55089346D01*
X94611403Y-55089346D02*
X94578070Y-55122680D01*
X93978070Y-55056013D02*
X94111403Y-55056013D01*
X94111403Y-55056013D02*
X94178070Y-55089346D01*
X94178070Y-55089346D02*
X94211403Y-55122680D01*
X94211403Y-55122680D02*
X94278070Y-55222680D01*
X94278070Y-55222680D02*
X94311403Y-55356013D01*
X94311403Y-55356013D02*
X94311403Y-55622680D01*
X94311403Y-55622680D02*
X94278070Y-55689346D01*
X94278070Y-55689346D02*
X94244737Y-55722680D01*
X94244737Y-55722680D02*
X94178070Y-55756013D01*
X94178070Y-55756013D02*
X94044737Y-55756013D01*
X94044737Y-55756013D02*
X93978070Y-55722680D01*
X93978070Y-55722680D02*
X93944737Y-55689346D01*
X93944737Y-55689346D02*
X93911403Y-55622680D01*
X93911403Y-55622680D02*
X93911403Y-55456013D01*
X93911403Y-55456013D02*
X93944737Y-55389346D01*
X93944737Y-55389346D02*
X93978070Y-55356013D01*
X93978070Y-55356013D02*
X94044737Y-55322680D01*
X94044737Y-55322680D02*
X94178070Y-55322680D01*
X94178070Y-55322680D02*
X94244737Y-55356013D01*
X94244737Y-55356013D02*
X94278070Y-55389346D01*
X94278070Y-55389346D02*
X94311403Y-55456013D01*
X84378070Y-52556013D02*
X84611403Y-52222680D01*
X84778070Y-52556013D02*
X84778070Y-51856013D01*
X84778070Y-51856013D02*
X84511403Y-51856013D01*
X84511403Y-51856013D02*
X84444737Y-51889346D01*
X84444737Y-51889346D02*
X84411403Y-51922680D01*
X84411403Y-51922680D02*
X84378070Y-51989346D01*
X84378070Y-51989346D02*
X84378070Y-52089346D01*
X84378070Y-52089346D02*
X84411403Y-52156013D01*
X84411403Y-52156013D02*
X84444737Y-52189346D01*
X84444737Y-52189346D02*
X84511403Y-52222680D01*
X84511403Y-52222680D02*
X84778070Y-52222680D01*
X83778070Y-51856013D02*
X83911403Y-51856013D01*
X83911403Y-51856013D02*
X83978070Y-51889346D01*
X83978070Y-51889346D02*
X84011403Y-51922680D01*
X84011403Y-51922680D02*
X84078070Y-52022680D01*
X84078070Y-52022680D02*
X84111403Y-52156013D01*
X84111403Y-52156013D02*
X84111403Y-52422680D01*
X84111403Y-52422680D02*
X84078070Y-52489346D01*
X84078070Y-52489346D02*
X84044737Y-52522680D01*
X84044737Y-52522680D02*
X83978070Y-52556013D01*
X83978070Y-52556013D02*
X83844737Y-52556013D01*
X83844737Y-52556013D02*
X83778070Y-52522680D01*
X83778070Y-52522680D02*
X83744737Y-52489346D01*
X83744737Y-52489346D02*
X83711403Y-52422680D01*
X83711403Y-52422680D02*
X83711403Y-52256013D01*
X83711403Y-52256013D02*
X83744737Y-52189346D01*
X83744737Y-52189346D02*
X83778070Y-52156013D01*
X83778070Y-52156013D02*
X83844737Y-52122680D01*
X83844737Y-52122680D02*
X83978070Y-52122680D01*
X83978070Y-52122680D02*
X84044737Y-52156013D01*
X84044737Y-52156013D02*
X84078070Y-52189346D01*
X84078070Y-52189346D02*
X84111403Y-52256013D01*
X89106013Y-58371929D02*
X88772680Y-58138596D01*
X89106013Y-57971929D02*
X88406013Y-57971929D01*
X88406013Y-57971929D02*
X88406013Y-58238596D01*
X88406013Y-58238596D02*
X88439346Y-58305263D01*
X88439346Y-58305263D02*
X88472680Y-58338596D01*
X88472680Y-58338596D02*
X88539346Y-58371929D01*
X88539346Y-58371929D02*
X88639346Y-58371929D01*
X88639346Y-58371929D02*
X88706013Y-58338596D01*
X88706013Y-58338596D02*
X88739346Y-58305263D01*
X88739346Y-58305263D02*
X88772680Y-58238596D01*
X88772680Y-58238596D02*
X88772680Y-57971929D01*
X88406013Y-58605263D02*
X88406013Y-59038596D01*
X88406013Y-59038596D02*
X88672680Y-58805263D01*
X88672680Y-58805263D02*
X88672680Y-58905263D01*
X88672680Y-58905263D02*
X88706013Y-58971929D01*
X88706013Y-58971929D02*
X88739346Y-59005263D01*
X88739346Y-59005263D02*
X88806013Y-59038596D01*
X88806013Y-59038596D02*
X88972680Y-59038596D01*
X88972680Y-59038596D02*
X89039346Y-59005263D01*
X89039346Y-59005263D02*
X89072680Y-58971929D01*
X89072680Y-58971929D02*
X89106013Y-58905263D01*
X89106013Y-58905263D02*
X89106013Y-58705263D01*
X89106013Y-58705263D02*
X89072680Y-58638596D01*
X89072680Y-58638596D02*
X89039346Y-58605263D01*
X91139346Y-45471929D02*
X91172680Y-45438596D01*
X91172680Y-45438596D02*
X91206013Y-45338596D01*
X91206013Y-45338596D02*
X91206013Y-45271929D01*
X91206013Y-45271929D02*
X91172680Y-45171929D01*
X91172680Y-45171929D02*
X91106013Y-45105263D01*
X91106013Y-45105263D02*
X91039346Y-45071929D01*
X91039346Y-45071929D02*
X90906013Y-45038596D01*
X90906013Y-45038596D02*
X90806013Y-45038596D01*
X90806013Y-45038596D02*
X90672680Y-45071929D01*
X90672680Y-45071929D02*
X90606013Y-45105263D01*
X90606013Y-45105263D02*
X90539346Y-45171929D01*
X90539346Y-45171929D02*
X90506013Y-45271929D01*
X90506013Y-45271929D02*
X90506013Y-45338596D01*
X90506013Y-45338596D02*
X90539346Y-45438596D01*
X90539346Y-45438596D02*
X90572680Y-45471929D01*
X90572680Y-45738596D02*
X90539346Y-45771929D01*
X90539346Y-45771929D02*
X90506013Y-45838596D01*
X90506013Y-45838596D02*
X90506013Y-46005263D01*
X90506013Y-46005263D02*
X90539346Y-46071929D01*
X90539346Y-46071929D02*
X90572680Y-46105263D01*
X90572680Y-46105263D02*
X90639346Y-46138596D01*
X90639346Y-46138596D02*
X90706013Y-46138596D01*
X90706013Y-46138596D02*
X90806013Y-46105263D01*
X90806013Y-46105263D02*
X91206013Y-45705263D01*
X91206013Y-45705263D02*
X91206013Y-46138596D01*
X90739346Y-46738596D02*
X91206013Y-46738596D01*
X90472680Y-46571930D02*
X90972680Y-46405263D01*
X90972680Y-46405263D02*
X90972680Y-46838596D01*
X96028070Y-52156013D02*
X96261403Y-51822680D01*
X96428070Y-52156013D02*
X96428070Y-51456013D01*
X96428070Y-51456013D02*
X96161403Y-51456013D01*
X96161403Y-51456013D02*
X96094737Y-51489346D01*
X96094737Y-51489346D02*
X96061403Y-51522680D01*
X96061403Y-51522680D02*
X96028070Y-51589346D01*
X96028070Y-51589346D02*
X96028070Y-51689346D01*
X96028070Y-51689346D02*
X96061403Y-51756013D01*
X96061403Y-51756013D02*
X96094737Y-51789346D01*
X96094737Y-51789346D02*
X96161403Y-51822680D01*
X96161403Y-51822680D02*
X96428070Y-51822680D01*
X95628070Y-51756013D02*
X95694737Y-51722680D01*
X95694737Y-51722680D02*
X95728070Y-51689346D01*
X95728070Y-51689346D02*
X95761403Y-51622680D01*
X95761403Y-51622680D02*
X95761403Y-51589346D01*
X95761403Y-51589346D02*
X95728070Y-51522680D01*
X95728070Y-51522680D02*
X95694737Y-51489346D01*
X95694737Y-51489346D02*
X95628070Y-51456013D01*
X95628070Y-51456013D02*
X95494737Y-51456013D01*
X95494737Y-51456013D02*
X95428070Y-51489346D01*
X95428070Y-51489346D02*
X95394737Y-51522680D01*
X95394737Y-51522680D02*
X95361403Y-51589346D01*
X95361403Y-51589346D02*
X95361403Y-51622680D01*
X95361403Y-51622680D02*
X95394737Y-51689346D01*
X95394737Y-51689346D02*
X95428070Y-51722680D01*
X95428070Y-51722680D02*
X95494737Y-51756013D01*
X95494737Y-51756013D02*
X95628070Y-51756013D01*
X95628070Y-51756013D02*
X95694737Y-51789346D01*
X95694737Y-51789346D02*
X95728070Y-51822680D01*
X95728070Y-51822680D02*
X95761403Y-51889346D01*
X95761403Y-51889346D02*
X95761403Y-52022680D01*
X95761403Y-52022680D02*
X95728070Y-52089346D01*
X95728070Y-52089346D02*
X95694737Y-52122680D01*
X95694737Y-52122680D02*
X95628070Y-52156013D01*
X95628070Y-52156013D02*
X95494737Y-52156013D01*
X95494737Y-52156013D02*
X95428070Y-52122680D01*
X95428070Y-52122680D02*
X95394737Y-52089346D01*
X95394737Y-52089346D02*
X95361403Y-52022680D01*
X95361403Y-52022680D02*
X95361403Y-51889346D01*
X95361403Y-51889346D02*
X95394737Y-51822680D01*
X95394737Y-51822680D02*
X95428070Y-51789346D01*
X95428070Y-51789346D02*
X95494737Y-51756013D01*
D14*
%TO.C,C26*%
X97815000Y-48048752D02*
X97815000Y-47526248D01*
X99285000Y-48048752D02*
X99285000Y-47526248D01*
%TO.C,R12*%
X77429879Y-54120000D02*
X77765121Y-54120000D01*
X77429879Y-54880000D02*
X77765121Y-54880000D01*
%TO.C,R2*%
X90620000Y-56167621D02*
X90620000Y-55832379D01*
X91380000Y-56167621D02*
X91380000Y-55832379D01*
%TO.C,R19*%
X85465121Y-47920000D02*
X85129879Y-47920000D01*
X85465121Y-48680000D02*
X85129879Y-48680000D01*
%TO.C,U1*%
X87890000Y-50140000D02*
X87890000Y-50365000D01*
X87890000Y-54360000D02*
X87890000Y-54135000D01*
X88115000Y-50140000D02*
X87890000Y-50140000D01*
X88115000Y-54360000D02*
X87890000Y-54360000D01*
X91885000Y-50140000D02*
X92110000Y-50140000D01*
X92110000Y-50140000D02*
X92110000Y-50365000D01*
X92440000Y-54620000D02*
X92110000Y-54380000D01*
X92440000Y-54140000D01*
X92440000Y-54620000D01*
G36*
X92440000Y-54620000D02*
G01*
X92110000Y-54380000D01*
X92440000Y-54140000D01*
X92440000Y-54620000D01*
G37*
%TO.C,R8*%
X93932379Y-51420000D02*
X94267621Y-51420000D01*
X93932379Y-52180000D02*
X94267621Y-52180000D01*
%TO.C,R5*%
X85765121Y-52820000D02*
X85429879Y-52820000D01*
X85765121Y-53580000D02*
X85429879Y-53580000D01*
%TO.C,R9*%
X94265121Y-52420000D02*
X93929879Y-52420000D01*
X94265121Y-53180000D02*
X93929879Y-53180000D01*
%TO.C,TP3*%
X94500000Y-58700000D02*
G75*
G02*
X93100000Y-58700000I-700000J0D01*
G01*
X93100000Y-58700000D02*
G75*
G02*
X94500000Y-58700000I700000J0D01*
G01*
%TO.C,C25*%
X95815000Y-48066252D02*
X95815000Y-47543748D01*
X97285000Y-48066252D02*
X97285000Y-47543748D01*
%TO.C,R1*%
X87420000Y-56332379D02*
X87420000Y-56667621D01*
X88180000Y-56332379D02*
X88180000Y-56667621D01*
%TO.C,R6*%
X86032379Y-51820000D02*
X86367621Y-51820000D01*
X86032379Y-52580000D02*
X86367621Y-52580000D01*
%TO.C,Q1*%
X77290000Y-59750000D02*
X76810000Y-59750000D01*
X77050000Y-59420000D01*
X77290000Y-59750000D01*
G36*
X77290000Y-59750000D02*
G01*
X76810000Y-59750000D01*
X77050000Y-59420000D01*
X77290000Y-59750000D01*
G37*
%TO.C,C24*%
X93845000Y-48066252D02*
X93845000Y-47543748D01*
X95315000Y-48066252D02*
X95315000Y-47543748D01*
%TO.C,Q2*%
X77290000Y-47850000D02*
X76810000Y-47850000D01*
X77050000Y-47520000D01*
X77290000Y-47850000D01*
G36*
X77290000Y-47850000D02*
G01*
X76810000Y-47850000D01*
X77050000Y-47520000D01*
X77290000Y-47850000D01*
G37*
%TO.C,C6*%
X92815835Y-55040000D02*
X92584165Y-55040000D01*
X92815835Y-55760000D02*
X92584165Y-55760000D01*
%TO.C,TP2*%
X96500000Y-58700000D02*
G75*
G02*
X95100000Y-58700000I-700000J0D01*
G01*
X95100000Y-58700000D02*
G75*
G02*
X96500000Y-58700000I700000J0D01*
G01*
%TO.C,TP4*%
X92500000Y-58700000D02*
G75*
G02*
X91100000Y-58700000I-700000J0D01*
G01*
X91100000Y-58700000D02*
G75*
G02*
X92500000Y-58700000I700000J0D01*
G01*
%TO.C,C5*%
X89640000Y-58315835D02*
X89640000Y-58084165D01*
X90360000Y-58315835D02*
X90360000Y-58084165D01*
%TO.C,Q3*%
X77290000Y-53850000D02*
X76810000Y-53850000D01*
X77050000Y-53520000D01*
X77290000Y-53850000D01*
G36*
X77290000Y-53850000D02*
G01*
X76810000Y-53850000D01*
X77050000Y-53520000D01*
X77290000Y-53850000D01*
G37*
%TO.C,C7*%
X92815835Y-56240000D02*
X92584165Y-56240000D01*
X92815835Y-56960000D02*
X92584165Y-56960000D01*
%TO.C,R16*%
X77432379Y-55120000D02*
X77767621Y-55120000D01*
X77432379Y-55880000D02*
X77767621Y-55880000D01*
%TO.C,R18*%
X83320000Y-47870121D02*
X83320000Y-47534879D01*
X84080000Y-47870121D02*
X84080000Y-47534879D01*
%TO.C,R3*%
X88420000Y-56334879D02*
X88420000Y-56670121D01*
X89180000Y-56334879D02*
X89180000Y-56670121D01*
%TO.C,TP1*%
X98500000Y-58700000D02*
G75*
G02*
X97100000Y-58700000I-700000J0D01*
G01*
X97100000Y-58700000D02*
G75*
G02*
X98500000Y-58700000I700000J0D01*
G01*
%TO.C,R4*%
X86420000Y-56667621D02*
X86420000Y-56332379D01*
X87180000Y-56667621D02*
X87180000Y-56332379D01*
%TO.C,R14*%
X77532379Y-48120000D02*
X77867621Y-48120000D01*
X77532379Y-48880000D02*
X77867621Y-48880000D01*
%TO.C,R10*%
X93932379Y-53420000D02*
X94267621Y-53420000D01*
X93932379Y-54180000D02*
X94267621Y-54180000D01*
%TO.C,R7*%
X85667621Y-53820000D02*
X85332379Y-53820000D01*
X85667621Y-54580000D02*
X85332379Y-54580000D01*
%TD*%
M02*
