%TF.GenerationSoftware,KiCad,Pcbnew,8.0.8*%
%TF.CreationDate,2025-04-24T20:49:58+02:00*%
%TF.ProjectId,IMU_PCBs,494d555f-5043-4427-932e-6b696361645f,rev?*%
%TF.SameCoordinates,Original*%
%TF.FileFunction,Profile,NP*%
%FSLAX46Y46*%
G04 Gerber Fmt 4.6, Leading zero omitted, Abs format (unit mm)*
G04 Created by KiCad (PCBNEW 8.0.8) date 2025-04-24 20:49:58*
%MOMM*%
%LPD*%
G01*
G04 APERTURE LIST*
%TA.AperFunction,Profile*%
%ADD10C,0.050000*%
%TD*%
G04 APERTURE END LIST*
D10*
X126770000Y-82510000D02*
X115170000Y-82510000D01*
X143170000Y-82510000D02*
X131430000Y-82510000D01*
X131430000Y-79970000D02*
X134380000Y-79970000D01*
X126770000Y-79970000D02*
X123380000Y-79970000D01*
X123380000Y-79970000D02*
X123380000Y-68970000D01*
X134380000Y-68970000D02*
X134380000Y-79970000D01*
X131150000Y-68970000D02*
X134380000Y-68970000D01*
X126490000Y-68970000D02*
X123380000Y-68970000D01*
X114680000Y-66430000D02*
X126490000Y-66430000D01*
X131150000Y-66430000D02*
X142680000Y-66430000D01*
X146670000Y-92510000D02*
X146670000Y-86010000D01*
X111670000Y-92510000D02*
X111670000Y-86010000D01*
X143170000Y-82510000D02*
G75*
G02*
X146670000Y-86010000I0J-3500000D01*
G01*
X118670000Y-92510000D02*
G75*
G02*
X111670000Y-92510000I-3500000J0D01*
G01*
X146670000Y-92510000D02*
G75*
G02*
X139670000Y-92510000I-3500000J0D01*
G01*
X111670000Y-86010000D02*
G75*
G02*
X115170000Y-82510000I3500000J0D01*
G01*
X139670000Y-92510000D02*
X118670000Y-92510000D01*
X111180000Y-56430000D02*
X111180000Y-62930000D01*
X114680000Y-66430000D02*
G75*
G02*
X111180000Y-62930000I0J3500000D01*
G01*
X146180000Y-56430000D02*
X146180000Y-62930000D01*
X139180000Y-56430000D02*
G75*
G02*
X146180000Y-56430000I3500000J0D01*
G01*
X118180000Y-56430000D02*
X139180000Y-56430000D01*
X146180000Y-62930000D02*
G75*
G02*
X142680000Y-66430000I-3500000J0D01*
G01*
X111180000Y-56430000D02*
G75*
G02*
X118180000Y-56430000I3500000J0D01*
G01*
%TO.C,mouse-bite-2.54mm-4.66mm*%
X126770000Y-79970000D02*
G75*
G02*
X126770000Y-82510000I0J-1270000D01*
G01*
X131430000Y-82510000D02*
G75*
G02*
X131430000Y-79970000I0J1270000D01*
G01*
X126490000Y-66430000D02*
G75*
G02*
X126490000Y-68970000I0J-1270000D01*
G01*
X131150000Y-68970000D02*
G75*
G02*
X131150000Y-66430000I0J1270000D01*
G01*
%TD*%
M02*
