%TF.GenerationSoftware,KiCad,Pcbnew,8.0.8*%
%TF.CreationDate,2025-04-24T20:49:58+02:00*%
%TF.ProjectId,IMU_PCBs,494d555f-5043-4427-932e-6b696361645f,rev?*%
%TF.SameCoordinates,Original*%
%TF.FileFunction,Legend,Top*%
%TF.FilePolarity,Positive*%
%FSLAX46Y46*%
G04 Gerber Fmt 4.6, Leading zero omitted, Abs format (unit mm)*
G04 Created by KiCad (PCBNEW 8.0.8) date 2025-04-24 20:49:58*
%MOMM*%
%LPD*%
G01*
G04 APERTURE LIST*
%ADD10C,0.100000*%
%ADD11C,0.170000*%
%ADD12C,0.200000*%
%ADD13C,0.160000*%
%ADD14C,0.150000*%
%ADD15C,0.000000*%
%ADD16C,0.120000*%
%ADD17C,0.127000*%
G04 APERTURE END LIST*
D10*
X134570000Y-90410000D02*
X137170000Y-90410000D01*
X137170000Y-91710000D01*
X134570000Y-91710000D01*
X134570000Y-90410000D01*
X123170000Y-91510000D02*
X123170000Y-90810000D01*
X123311421Y-91510000D02*
G75*
G02*
X123028579Y-91510000I-141421J0D01*
G01*
X123028579Y-91510000D02*
G75*
G02*
X123311421Y-91510000I141421J0D01*
G01*
X123270000Y-91510000D02*
G75*
G02*
X123070000Y-91510000I-100000J0D01*
G01*
X123070000Y-91510000D02*
G75*
G02*
X123270000Y-91510000I100000J0D01*
G01*
X122470000Y-91510000D02*
X123170000Y-91510000D01*
D11*
G36*
X137125004Y-91666742D02*
G01*
X134560494Y-91666742D01*
X134560494Y-91540000D01*
X134671605Y-91540000D01*
X134862602Y-91540000D01*
X135000355Y-91540000D01*
X135187690Y-91540000D01*
X135298332Y-90898374D01*
X135510579Y-91540000D01*
X135680327Y-91540000D01*
X135895261Y-90898374D01*
X136003949Y-91540000D01*
X136189330Y-91540000D01*
X136119539Y-91124054D01*
X136329525Y-91124054D01*
X136330071Y-91167369D01*
X136332936Y-91226245D01*
X136338257Y-91277805D01*
X136347568Y-91328712D01*
X136364452Y-91379532D01*
X136371452Y-91393462D01*
X136400647Y-91436700D01*
X136438857Y-91475025D01*
X136480956Y-91505317D01*
X136518001Y-91524922D01*
X136569616Y-91543053D01*
X136619258Y-91552486D01*
X136672442Y-91555631D01*
X136717943Y-91553544D01*
X136769147Y-91545327D01*
X136819476Y-91529253D01*
X136853881Y-91512174D01*
X136896087Y-91482430D01*
X136931095Y-91448164D01*
X136950757Y-91424030D01*
X136977501Y-91381732D01*
X136996552Y-91334591D01*
X137006425Y-91283156D01*
X137011031Y-91231972D01*
X137013284Y-91177669D01*
X137013893Y-91124054D01*
X137013893Y-90523949D01*
X136820697Y-90523949D01*
X136820697Y-91149211D01*
X136820199Y-91184754D01*
X136816699Y-91238052D01*
X136806531Y-91285987D01*
X136792861Y-91310980D01*
X136755729Y-91344849D01*
X136718269Y-91361504D01*
X136668290Y-91368053D01*
X136634195Y-91365133D01*
X136586224Y-91347292D01*
X136566866Y-91332957D01*
X136537376Y-91291849D01*
X136531666Y-91274231D01*
X136524453Y-91224970D01*
X136522721Y-91173147D01*
X136522721Y-90523949D01*
X136329525Y-90523949D01*
X136329525Y-91124054D01*
X136119539Y-91124054D01*
X136018848Y-90523949D01*
X135833468Y-90523949D01*
X135596552Y-91232742D01*
X135363056Y-90523949D01*
X135174745Y-90523949D01*
X135000355Y-91540000D01*
X134862602Y-91540000D01*
X134862602Y-90523949D01*
X134671605Y-90523949D01*
X134671605Y-91540000D01*
X134560494Y-91540000D01*
X134560494Y-90412838D01*
X137125004Y-90412838D01*
X137125004Y-91666742D01*
G37*
X123210413Y-90102588D02*
X123210413Y-90578779D01*
X122877080Y-89578779D02*
X123210413Y-90102588D01*
X123210413Y-90102588D02*
X123543746Y-89578779D01*
X121524699Y-90978779D02*
X122191365Y-91978779D01*
X122191365Y-90978779D02*
X121524699Y-91978779D01*
D10*
X120780000Y-57280000D02*
X123380000Y-57280000D01*
X123380000Y-58530000D01*
X120780000Y-58530000D01*
X120780000Y-57280000D01*
D12*
G36*
X123389505Y-58527161D02*
G01*
X120824995Y-58527161D01*
X120824995Y-57815945D01*
X120936106Y-57815945D01*
X120936106Y-58416050D01*
X121129302Y-58416050D01*
X121129302Y-57790788D01*
X121129800Y-57755245D01*
X121133300Y-57701947D01*
X121143468Y-57654012D01*
X121157138Y-57629019D01*
X121194270Y-57595150D01*
X121231730Y-57578495D01*
X121281709Y-57571946D01*
X121315804Y-57574866D01*
X121363775Y-57592707D01*
X121383133Y-57607042D01*
X121412623Y-57648150D01*
X121418333Y-57665768D01*
X121425546Y-57715029D01*
X121427278Y-57766852D01*
X121427278Y-58416050D01*
X121620474Y-58416050D01*
X121620474Y-57815945D01*
X121619928Y-57772630D01*
X121617063Y-57713754D01*
X121611742Y-57662194D01*
X121602431Y-57611287D01*
X121585547Y-57560467D01*
X121578547Y-57546537D01*
X121549352Y-57503299D01*
X121511142Y-57464974D01*
X121469043Y-57434682D01*
X121431998Y-57415077D01*
X121389077Y-57400000D01*
X121760669Y-57400000D01*
X121931151Y-58416050D01*
X122116531Y-58416050D01*
X122353447Y-57707257D01*
X122586943Y-58416050D01*
X122775254Y-58416050D01*
X123087397Y-58416050D01*
X123278394Y-58416050D01*
X123278394Y-57400000D01*
X123087397Y-57400000D01*
X123087397Y-58416050D01*
X122775254Y-58416050D01*
X122949644Y-57400000D01*
X122762309Y-57400000D01*
X122651667Y-58041625D01*
X122439420Y-57400000D01*
X122269672Y-57400000D01*
X122054738Y-58041625D01*
X121946050Y-57400000D01*
X121760669Y-57400000D01*
X121389077Y-57400000D01*
X121380383Y-57396946D01*
X121330741Y-57387513D01*
X121277557Y-57384368D01*
X121232056Y-57386455D01*
X121180852Y-57394672D01*
X121130523Y-57410746D01*
X121096118Y-57427825D01*
X121053912Y-57457569D01*
X121018904Y-57491835D01*
X120999242Y-57515969D01*
X120972498Y-57558267D01*
X120953447Y-57605408D01*
X120943574Y-57656843D01*
X120938968Y-57708027D01*
X120936715Y-57762330D01*
X120936106Y-57815945D01*
X120824995Y-57815945D01*
X120824995Y-57273257D01*
X123389505Y-57273257D01*
X123389505Y-58527161D01*
G37*
D13*
X132039060Y-74636666D02*
X132086680Y-74684285D01*
X132086680Y-74684285D02*
X132134299Y-74827142D01*
X132134299Y-74827142D02*
X132134299Y-74922380D01*
X132134299Y-74922380D02*
X132086680Y-75065237D01*
X132086680Y-75065237D02*
X131991441Y-75160475D01*
X131991441Y-75160475D02*
X131896203Y-75208094D01*
X131896203Y-75208094D02*
X131705727Y-75255713D01*
X131705727Y-75255713D02*
X131562870Y-75255713D01*
X131562870Y-75255713D02*
X131372394Y-75208094D01*
X131372394Y-75208094D02*
X131277156Y-75160475D01*
X131277156Y-75160475D02*
X131181918Y-75065237D01*
X131181918Y-75065237D02*
X131134299Y-74922380D01*
X131134299Y-74922380D02*
X131134299Y-74827142D01*
X131134299Y-74827142D02*
X131181918Y-74684285D01*
X131181918Y-74684285D02*
X131229537Y-74636666D01*
X131229537Y-74255713D02*
X131181918Y-74208094D01*
X131181918Y-74208094D02*
X131134299Y-74112856D01*
X131134299Y-74112856D02*
X131134299Y-73874761D01*
X131134299Y-73874761D02*
X131181918Y-73779523D01*
X131181918Y-73779523D02*
X131229537Y-73731904D01*
X131229537Y-73731904D02*
X131324775Y-73684285D01*
X131324775Y-73684285D02*
X131420013Y-73684285D01*
X131420013Y-73684285D02*
X131562870Y-73731904D01*
X131562870Y-73731904D02*
X132134299Y-74303332D01*
X132134299Y-74303332D02*
X132134299Y-73684285D01*
X132139060Y-77736666D02*
X132186680Y-77784285D01*
X132186680Y-77784285D02*
X132234299Y-77927142D01*
X132234299Y-77927142D02*
X132234299Y-78022380D01*
X132234299Y-78022380D02*
X132186680Y-78165237D01*
X132186680Y-78165237D02*
X132091441Y-78260475D01*
X132091441Y-78260475D02*
X131996203Y-78308094D01*
X131996203Y-78308094D02*
X131805727Y-78355713D01*
X131805727Y-78355713D02*
X131662870Y-78355713D01*
X131662870Y-78355713D02*
X131472394Y-78308094D01*
X131472394Y-78308094D02*
X131377156Y-78260475D01*
X131377156Y-78260475D02*
X131281918Y-78165237D01*
X131281918Y-78165237D02*
X131234299Y-78022380D01*
X131234299Y-78022380D02*
X131234299Y-77927142D01*
X131234299Y-77927142D02*
X131281918Y-77784285D01*
X131281918Y-77784285D02*
X131329537Y-77736666D01*
X131234299Y-77403332D02*
X131234299Y-76784285D01*
X131234299Y-76784285D02*
X131615251Y-77117618D01*
X131615251Y-77117618D02*
X131615251Y-76974761D01*
X131615251Y-76974761D02*
X131662870Y-76879523D01*
X131662870Y-76879523D02*
X131710489Y-76831904D01*
X131710489Y-76831904D02*
X131805727Y-76784285D01*
X131805727Y-76784285D02*
X132043822Y-76784285D01*
X132043822Y-76784285D02*
X132139060Y-76831904D01*
X132139060Y-76831904D02*
X132186680Y-76879523D01*
X132186680Y-76879523D02*
X132234299Y-76974761D01*
X132234299Y-76974761D02*
X132234299Y-77260475D01*
X132234299Y-77260475D02*
X132186680Y-77355713D01*
X132186680Y-77355713D02*
X132139060Y-77403332D01*
X126439060Y-74611666D02*
X126486680Y-74659285D01*
X126486680Y-74659285D02*
X126534299Y-74802142D01*
X126534299Y-74802142D02*
X126534299Y-74897380D01*
X126534299Y-74897380D02*
X126486680Y-75040237D01*
X126486680Y-75040237D02*
X126391441Y-75135475D01*
X126391441Y-75135475D02*
X126296203Y-75183094D01*
X126296203Y-75183094D02*
X126105727Y-75230713D01*
X126105727Y-75230713D02*
X125962870Y-75230713D01*
X125962870Y-75230713D02*
X125772394Y-75183094D01*
X125772394Y-75183094D02*
X125677156Y-75135475D01*
X125677156Y-75135475D02*
X125581918Y-75040237D01*
X125581918Y-75040237D02*
X125534299Y-74897380D01*
X125534299Y-74897380D02*
X125534299Y-74802142D01*
X125534299Y-74802142D02*
X125581918Y-74659285D01*
X125581918Y-74659285D02*
X125629537Y-74611666D01*
X126534299Y-73659285D02*
X126534299Y-74230713D01*
X126534299Y-73944999D02*
X125534299Y-73944999D01*
X125534299Y-73944999D02*
X125677156Y-74040237D01*
X125677156Y-74040237D02*
X125772394Y-74135475D01*
X125772394Y-74135475D02*
X125820013Y-74230713D01*
D11*
X122028540Y-87176666D02*
X122076160Y-87224285D01*
X122076160Y-87224285D02*
X122123779Y-87367142D01*
X122123779Y-87367142D02*
X122123779Y-87462380D01*
X122123779Y-87462380D02*
X122076160Y-87605237D01*
X122076160Y-87605237D02*
X121980921Y-87700475D01*
X121980921Y-87700475D02*
X121885683Y-87748094D01*
X121885683Y-87748094D02*
X121695207Y-87795713D01*
X121695207Y-87795713D02*
X121552350Y-87795713D01*
X121552350Y-87795713D02*
X121361874Y-87748094D01*
X121361874Y-87748094D02*
X121266636Y-87700475D01*
X121266636Y-87700475D02*
X121171398Y-87605237D01*
X121171398Y-87605237D02*
X121123779Y-87462380D01*
X121123779Y-87462380D02*
X121123779Y-87367142D01*
X121123779Y-87367142D02*
X121171398Y-87224285D01*
X121171398Y-87224285D02*
X121219017Y-87176666D01*
X121219017Y-86795713D02*
X121171398Y-86748094D01*
X121171398Y-86748094D02*
X121123779Y-86652856D01*
X121123779Y-86652856D02*
X121123779Y-86414761D01*
X121123779Y-86414761D02*
X121171398Y-86319523D01*
X121171398Y-86319523D02*
X121219017Y-86271904D01*
X121219017Y-86271904D02*
X121314255Y-86224285D01*
X121314255Y-86224285D02*
X121409493Y-86224285D01*
X121409493Y-86224285D02*
X121552350Y-86271904D01*
X121552350Y-86271904D02*
X122123779Y-86843332D01*
X122123779Y-86843332D02*
X122123779Y-86224285D01*
D14*
X135803333Y-88414819D02*
X135470000Y-87938628D01*
X135231905Y-88414819D02*
X135231905Y-87414819D01*
X135231905Y-87414819D02*
X135612857Y-87414819D01*
X135612857Y-87414819D02*
X135708095Y-87462438D01*
X135708095Y-87462438D02*
X135755714Y-87510057D01*
X135755714Y-87510057D02*
X135803333Y-87605295D01*
X135803333Y-87605295D02*
X135803333Y-87748152D01*
X135803333Y-87748152D02*
X135755714Y-87843390D01*
X135755714Y-87843390D02*
X135708095Y-87891009D01*
X135708095Y-87891009D02*
X135612857Y-87938628D01*
X135612857Y-87938628D02*
X135231905Y-87938628D01*
X136184286Y-87510057D02*
X136231905Y-87462438D01*
X136231905Y-87462438D02*
X136327143Y-87414819D01*
X136327143Y-87414819D02*
X136565238Y-87414819D01*
X136565238Y-87414819D02*
X136660476Y-87462438D01*
X136660476Y-87462438D02*
X136708095Y-87510057D01*
X136708095Y-87510057D02*
X136755714Y-87605295D01*
X136755714Y-87605295D02*
X136755714Y-87700533D01*
X136755714Y-87700533D02*
X136708095Y-87843390D01*
X136708095Y-87843390D02*
X136136667Y-88414819D01*
X136136667Y-88414819D02*
X136755714Y-88414819D01*
X128712857Y-83679771D02*
X128712857Y-84165485D01*
X128712857Y-84165485D02*
X128741428Y-84222628D01*
X128741428Y-84222628D02*
X128770000Y-84251200D01*
X128770000Y-84251200D02*
X128827142Y-84279771D01*
X128827142Y-84279771D02*
X128941428Y-84279771D01*
X128941428Y-84279771D02*
X128998571Y-84251200D01*
X128998571Y-84251200D02*
X129027142Y-84222628D01*
X129027142Y-84222628D02*
X129055714Y-84165485D01*
X129055714Y-84165485D02*
X129055714Y-83679771D01*
X129655713Y-84279771D02*
X129312856Y-84279771D01*
X129484285Y-84279771D02*
X129484285Y-83679771D01*
X129484285Y-83679771D02*
X129427142Y-83765485D01*
X129427142Y-83765485D02*
X129369999Y-83822628D01*
X129369999Y-83822628D02*
X129312856Y-83851200D01*
D11*
X122778333Y-84868540D02*
X122730714Y-84916160D01*
X122730714Y-84916160D02*
X122587857Y-84963779D01*
X122587857Y-84963779D02*
X122492619Y-84963779D01*
X122492619Y-84963779D02*
X122349762Y-84916160D01*
X122349762Y-84916160D02*
X122254524Y-84820921D01*
X122254524Y-84820921D02*
X122206905Y-84725683D01*
X122206905Y-84725683D02*
X122159286Y-84535207D01*
X122159286Y-84535207D02*
X122159286Y-84392350D01*
X122159286Y-84392350D02*
X122206905Y-84201874D01*
X122206905Y-84201874D02*
X122254524Y-84106636D01*
X122254524Y-84106636D02*
X122349762Y-84011398D01*
X122349762Y-84011398D02*
X122492619Y-83963779D01*
X122492619Y-83963779D02*
X122587857Y-83963779D01*
X122587857Y-83963779D02*
X122730714Y-84011398D01*
X122730714Y-84011398D02*
X122778333Y-84059017D01*
X123111667Y-83963779D02*
X123730714Y-83963779D01*
X123730714Y-83963779D02*
X123397381Y-84344731D01*
X123397381Y-84344731D02*
X123540238Y-84344731D01*
X123540238Y-84344731D02*
X123635476Y-84392350D01*
X123635476Y-84392350D02*
X123683095Y-84439969D01*
X123683095Y-84439969D02*
X123730714Y-84535207D01*
X123730714Y-84535207D02*
X123730714Y-84773302D01*
X123730714Y-84773302D02*
X123683095Y-84868540D01*
X123683095Y-84868540D02*
X123635476Y-84916160D01*
X123635476Y-84916160D02*
X123540238Y-84963779D01*
X123540238Y-84963779D02*
X123254524Y-84963779D01*
X123254524Y-84963779D02*
X123159286Y-84916160D01*
X123159286Y-84916160D02*
X123111667Y-84868540D01*
X123528540Y-87176666D02*
X123576160Y-87224285D01*
X123576160Y-87224285D02*
X123623779Y-87367142D01*
X123623779Y-87367142D02*
X123623779Y-87462380D01*
X123623779Y-87462380D02*
X123576160Y-87605237D01*
X123576160Y-87605237D02*
X123480921Y-87700475D01*
X123480921Y-87700475D02*
X123385683Y-87748094D01*
X123385683Y-87748094D02*
X123195207Y-87795713D01*
X123195207Y-87795713D02*
X123052350Y-87795713D01*
X123052350Y-87795713D02*
X122861874Y-87748094D01*
X122861874Y-87748094D02*
X122766636Y-87700475D01*
X122766636Y-87700475D02*
X122671398Y-87605237D01*
X122671398Y-87605237D02*
X122623779Y-87462380D01*
X122623779Y-87462380D02*
X122623779Y-87367142D01*
X122623779Y-87367142D02*
X122671398Y-87224285D01*
X122671398Y-87224285D02*
X122719017Y-87176666D01*
X123623779Y-86224285D02*
X123623779Y-86795713D01*
X123623779Y-86509999D02*
X122623779Y-86509999D01*
X122623779Y-86509999D02*
X122766636Y-86605237D01*
X122766636Y-86605237D02*
X122861874Y-86700475D01*
X122861874Y-86700475D02*
X122909493Y-86795713D01*
D14*
X135803333Y-86964819D02*
X135470000Y-86488628D01*
X135231905Y-86964819D02*
X135231905Y-85964819D01*
X135231905Y-85964819D02*
X135612857Y-85964819D01*
X135612857Y-85964819D02*
X135708095Y-86012438D01*
X135708095Y-86012438D02*
X135755714Y-86060057D01*
X135755714Y-86060057D02*
X135803333Y-86155295D01*
X135803333Y-86155295D02*
X135803333Y-86298152D01*
X135803333Y-86298152D02*
X135755714Y-86393390D01*
X135755714Y-86393390D02*
X135708095Y-86441009D01*
X135708095Y-86441009D02*
X135612857Y-86488628D01*
X135612857Y-86488628D02*
X135231905Y-86488628D01*
X136755714Y-86964819D02*
X136184286Y-86964819D01*
X136470000Y-86964819D02*
X136470000Y-85964819D01*
X136470000Y-85964819D02*
X136374762Y-86107676D01*
X136374762Y-86107676D02*
X136279524Y-86202914D01*
X136279524Y-86202914D02*
X136184286Y-86250533D01*
D11*
X133791905Y-66033779D02*
X133791905Y-65033779D01*
X133791905Y-65033779D02*
X134030000Y-65033779D01*
X134030000Y-65033779D02*
X134172857Y-65081398D01*
X134172857Y-65081398D02*
X134268095Y-65176636D01*
X134268095Y-65176636D02*
X134315714Y-65271874D01*
X134315714Y-65271874D02*
X134363333Y-65462350D01*
X134363333Y-65462350D02*
X134363333Y-65605207D01*
X134363333Y-65605207D02*
X134315714Y-65795683D01*
X134315714Y-65795683D02*
X134268095Y-65890921D01*
X134268095Y-65890921D02*
X134172857Y-65986160D01*
X134172857Y-65986160D02*
X134030000Y-66033779D01*
X134030000Y-66033779D02*
X133791905Y-66033779D01*
X135315714Y-66033779D02*
X134744286Y-66033779D01*
X135030000Y-66033779D02*
X135030000Y-65033779D01*
X135030000Y-65033779D02*
X134934762Y-65176636D01*
X134934762Y-65176636D02*
X134839524Y-65271874D01*
X134839524Y-65271874D02*
X134744286Y-65319493D01*
X126213333Y-66038540D02*
X126165714Y-66086160D01*
X126165714Y-66086160D02*
X126022857Y-66133779D01*
X126022857Y-66133779D02*
X125927619Y-66133779D01*
X125927619Y-66133779D02*
X125784762Y-66086160D01*
X125784762Y-66086160D02*
X125689524Y-65990921D01*
X125689524Y-65990921D02*
X125641905Y-65895683D01*
X125641905Y-65895683D02*
X125594286Y-65705207D01*
X125594286Y-65705207D02*
X125594286Y-65562350D01*
X125594286Y-65562350D02*
X125641905Y-65371874D01*
X125641905Y-65371874D02*
X125689524Y-65276636D01*
X125689524Y-65276636D02*
X125784762Y-65181398D01*
X125784762Y-65181398D02*
X125927619Y-65133779D01*
X125927619Y-65133779D02*
X126022857Y-65133779D01*
X126022857Y-65133779D02*
X126165714Y-65181398D01*
X126165714Y-65181398D02*
X126213333Y-65229017D01*
X126546667Y-65133779D02*
X127165714Y-65133779D01*
X127165714Y-65133779D02*
X126832381Y-65514731D01*
X126832381Y-65514731D02*
X126975238Y-65514731D01*
X126975238Y-65514731D02*
X127070476Y-65562350D01*
X127070476Y-65562350D02*
X127118095Y-65609969D01*
X127118095Y-65609969D02*
X127165714Y-65705207D01*
X127165714Y-65705207D02*
X127165714Y-65943302D01*
X127165714Y-65943302D02*
X127118095Y-66038540D01*
X127118095Y-66038540D02*
X127070476Y-66086160D01*
X127070476Y-66086160D02*
X126975238Y-66133779D01*
X126975238Y-66133779D02*
X126689524Y-66133779D01*
X126689524Y-66133779D02*
X126594286Y-66086160D01*
X126594286Y-66086160D02*
X126546667Y-66038540D01*
X121150833Y-64033779D02*
X120817500Y-63557588D01*
X120579405Y-64033779D02*
X120579405Y-63033779D01*
X120579405Y-63033779D02*
X120960357Y-63033779D01*
X120960357Y-63033779D02*
X121055595Y-63081398D01*
X121055595Y-63081398D02*
X121103214Y-63129017D01*
X121103214Y-63129017D02*
X121150833Y-63224255D01*
X121150833Y-63224255D02*
X121150833Y-63367112D01*
X121150833Y-63367112D02*
X121103214Y-63462350D01*
X121103214Y-63462350D02*
X121055595Y-63509969D01*
X121055595Y-63509969D02*
X120960357Y-63557588D01*
X120960357Y-63557588D02*
X120579405Y-63557588D01*
X121531786Y-63129017D02*
X121579405Y-63081398D01*
X121579405Y-63081398D02*
X121674643Y-63033779D01*
X121674643Y-63033779D02*
X121912738Y-63033779D01*
X121912738Y-63033779D02*
X122007976Y-63081398D01*
X122007976Y-63081398D02*
X122055595Y-63129017D01*
X122055595Y-63129017D02*
X122103214Y-63224255D01*
X122103214Y-63224255D02*
X122103214Y-63319493D01*
X122103214Y-63319493D02*
X122055595Y-63462350D01*
X122055595Y-63462350D02*
X121484167Y-64033779D01*
X121484167Y-64033779D02*
X122103214Y-64033779D01*
X133088540Y-62046666D02*
X133136160Y-62094285D01*
X133136160Y-62094285D02*
X133183779Y-62237142D01*
X133183779Y-62237142D02*
X133183779Y-62332380D01*
X133183779Y-62332380D02*
X133136160Y-62475237D01*
X133136160Y-62475237D02*
X133040921Y-62570475D01*
X133040921Y-62570475D02*
X132945683Y-62618094D01*
X132945683Y-62618094D02*
X132755207Y-62665713D01*
X132755207Y-62665713D02*
X132612350Y-62665713D01*
X132612350Y-62665713D02*
X132421874Y-62618094D01*
X132421874Y-62618094D02*
X132326636Y-62570475D01*
X132326636Y-62570475D02*
X132231398Y-62475237D01*
X132231398Y-62475237D02*
X132183779Y-62332380D01*
X132183779Y-62332380D02*
X132183779Y-62237142D01*
X132183779Y-62237142D02*
X132231398Y-62094285D01*
X132231398Y-62094285D02*
X132279017Y-62046666D01*
X133183779Y-61094285D02*
X133183779Y-61665713D01*
X133183779Y-61379999D02*
X132183779Y-61379999D01*
X132183779Y-61379999D02*
X132326636Y-61475237D01*
X132326636Y-61475237D02*
X132421874Y-61570475D01*
X132421874Y-61570475D02*
X132469493Y-61665713D01*
X121150833Y-62288540D02*
X121103214Y-62336160D01*
X121103214Y-62336160D02*
X120960357Y-62383779D01*
X120960357Y-62383779D02*
X120865119Y-62383779D01*
X120865119Y-62383779D02*
X120722262Y-62336160D01*
X120722262Y-62336160D02*
X120627024Y-62240921D01*
X120627024Y-62240921D02*
X120579405Y-62145683D01*
X120579405Y-62145683D02*
X120531786Y-61955207D01*
X120531786Y-61955207D02*
X120531786Y-61812350D01*
X120531786Y-61812350D02*
X120579405Y-61621874D01*
X120579405Y-61621874D02*
X120627024Y-61526636D01*
X120627024Y-61526636D02*
X120722262Y-61431398D01*
X120722262Y-61431398D02*
X120865119Y-61383779D01*
X120865119Y-61383779D02*
X120960357Y-61383779D01*
X120960357Y-61383779D02*
X121103214Y-61431398D01*
X121103214Y-61431398D02*
X121150833Y-61479017D01*
X121531786Y-61479017D02*
X121579405Y-61431398D01*
X121579405Y-61431398D02*
X121674643Y-61383779D01*
X121674643Y-61383779D02*
X121912738Y-61383779D01*
X121912738Y-61383779D02*
X122007976Y-61431398D01*
X122007976Y-61431398D02*
X122055595Y-61479017D01*
X122055595Y-61479017D02*
X122103214Y-61574255D01*
X122103214Y-61574255D02*
X122103214Y-61669493D01*
X122103214Y-61669493D02*
X122055595Y-61812350D01*
X122055595Y-61812350D02*
X121484167Y-62383779D01*
X121484167Y-62383779D02*
X122103214Y-62383779D01*
X138038333Y-58288540D02*
X137990714Y-58336160D01*
X137990714Y-58336160D02*
X137847857Y-58383779D01*
X137847857Y-58383779D02*
X137752619Y-58383779D01*
X137752619Y-58383779D02*
X137609762Y-58336160D01*
X137609762Y-58336160D02*
X137514524Y-58240921D01*
X137514524Y-58240921D02*
X137466905Y-58145683D01*
X137466905Y-58145683D02*
X137419286Y-57955207D01*
X137419286Y-57955207D02*
X137419286Y-57812350D01*
X137419286Y-57812350D02*
X137466905Y-57621874D01*
X137466905Y-57621874D02*
X137514524Y-57526636D01*
X137514524Y-57526636D02*
X137609762Y-57431398D01*
X137609762Y-57431398D02*
X137752619Y-57383779D01*
X137752619Y-57383779D02*
X137847857Y-57383779D01*
X137847857Y-57383779D02*
X137990714Y-57431398D01*
X137990714Y-57431398D02*
X138038333Y-57479017D01*
X138895476Y-57383779D02*
X138705000Y-57383779D01*
X138705000Y-57383779D02*
X138609762Y-57431398D01*
X138609762Y-57431398D02*
X138562143Y-57479017D01*
X138562143Y-57479017D02*
X138466905Y-57621874D01*
X138466905Y-57621874D02*
X138419286Y-57812350D01*
X138419286Y-57812350D02*
X138419286Y-58193302D01*
X138419286Y-58193302D02*
X138466905Y-58288540D01*
X138466905Y-58288540D02*
X138514524Y-58336160D01*
X138514524Y-58336160D02*
X138609762Y-58383779D01*
X138609762Y-58383779D02*
X138800238Y-58383779D01*
X138800238Y-58383779D02*
X138895476Y-58336160D01*
X138895476Y-58336160D02*
X138943095Y-58288540D01*
X138943095Y-58288540D02*
X138990714Y-58193302D01*
X138990714Y-58193302D02*
X138990714Y-57955207D01*
X138990714Y-57955207D02*
X138943095Y-57859969D01*
X138943095Y-57859969D02*
X138895476Y-57812350D01*
X138895476Y-57812350D02*
X138800238Y-57764731D01*
X138800238Y-57764731D02*
X138609762Y-57764731D01*
X138609762Y-57764731D02*
X138514524Y-57812350D01*
X138514524Y-57812350D02*
X138466905Y-57859969D01*
X138466905Y-57859969D02*
X138419286Y-57955207D01*
X134413333Y-64238540D02*
X134365714Y-64286160D01*
X134365714Y-64286160D02*
X134222857Y-64333779D01*
X134222857Y-64333779D02*
X134127619Y-64333779D01*
X134127619Y-64333779D02*
X133984762Y-64286160D01*
X133984762Y-64286160D02*
X133889524Y-64190921D01*
X133889524Y-64190921D02*
X133841905Y-64095683D01*
X133841905Y-64095683D02*
X133794286Y-63905207D01*
X133794286Y-63905207D02*
X133794286Y-63762350D01*
X133794286Y-63762350D02*
X133841905Y-63571874D01*
X133841905Y-63571874D02*
X133889524Y-63476636D01*
X133889524Y-63476636D02*
X133984762Y-63381398D01*
X133984762Y-63381398D02*
X134127619Y-63333779D01*
X134127619Y-63333779D02*
X134222857Y-63333779D01*
X134222857Y-63333779D02*
X134365714Y-63381398D01*
X134365714Y-63381398D02*
X134413333Y-63429017D01*
X135318095Y-63333779D02*
X134841905Y-63333779D01*
X134841905Y-63333779D02*
X134794286Y-63809969D01*
X134794286Y-63809969D02*
X134841905Y-63762350D01*
X134841905Y-63762350D02*
X134937143Y-63714731D01*
X134937143Y-63714731D02*
X135175238Y-63714731D01*
X135175238Y-63714731D02*
X135270476Y-63762350D01*
X135270476Y-63762350D02*
X135318095Y-63809969D01*
X135318095Y-63809969D02*
X135365714Y-63905207D01*
X135365714Y-63905207D02*
X135365714Y-64143302D01*
X135365714Y-64143302D02*
X135318095Y-64238540D01*
X135318095Y-64238540D02*
X135270476Y-64286160D01*
X135270476Y-64286160D02*
X135175238Y-64333779D01*
X135175238Y-64333779D02*
X134937143Y-64333779D01*
X134937143Y-64333779D02*
X134841905Y-64286160D01*
X134841905Y-64286160D02*
X134794286Y-64238540D01*
X141975833Y-62238540D02*
X141928214Y-62286160D01*
X141928214Y-62286160D02*
X141785357Y-62333779D01*
X141785357Y-62333779D02*
X141690119Y-62333779D01*
X141690119Y-62333779D02*
X141547262Y-62286160D01*
X141547262Y-62286160D02*
X141452024Y-62190921D01*
X141452024Y-62190921D02*
X141404405Y-62095683D01*
X141404405Y-62095683D02*
X141356786Y-61905207D01*
X141356786Y-61905207D02*
X141356786Y-61762350D01*
X141356786Y-61762350D02*
X141404405Y-61571874D01*
X141404405Y-61571874D02*
X141452024Y-61476636D01*
X141452024Y-61476636D02*
X141547262Y-61381398D01*
X141547262Y-61381398D02*
X141690119Y-61333779D01*
X141690119Y-61333779D02*
X141785357Y-61333779D01*
X141785357Y-61333779D02*
X141928214Y-61381398D01*
X141928214Y-61381398D02*
X141975833Y-61429017D01*
X142832976Y-61667112D02*
X142832976Y-62333779D01*
X142594881Y-61286160D02*
X142356786Y-62000445D01*
X142356786Y-62000445D02*
X142975833Y-62000445D01*
X121150833Y-60533779D02*
X120817500Y-60057588D01*
X120579405Y-60533779D02*
X120579405Y-59533779D01*
X120579405Y-59533779D02*
X120960357Y-59533779D01*
X120960357Y-59533779D02*
X121055595Y-59581398D01*
X121055595Y-59581398D02*
X121103214Y-59629017D01*
X121103214Y-59629017D02*
X121150833Y-59724255D01*
X121150833Y-59724255D02*
X121150833Y-59867112D01*
X121150833Y-59867112D02*
X121103214Y-59962350D01*
X121103214Y-59962350D02*
X121055595Y-60009969D01*
X121055595Y-60009969D02*
X120960357Y-60057588D01*
X120960357Y-60057588D02*
X120579405Y-60057588D01*
X121484167Y-59533779D02*
X122103214Y-59533779D01*
X122103214Y-59533779D02*
X121769881Y-59914731D01*
X121769881Y-59914731D02*
X121912738Y-59914731D01*
X121912738Y-59914731D02*
X122007976Y-59962350D01*
X122007976Y-59962350D02*
X122055595Y-60009969D01*
X122055595Y-60009969D02*
X122103214Y-60105207D01*
X122103214Y-60105207D02*
X122103214Y-60343302D01*
X122103214Y-60343302D02*
X122055595Y-60438540D01*
X122055595Y-60438540D02*
X122007976Y-60486160D01*
X122007976Y-60486160D02*
X121912738Y-60533779D01*
X121912738Y-60533779D02*
X121627024Y-60533779D01*
X121627024Y-60533779D02*
X121531786Y-60486160D01*
X121531786Y-60486160D02*
X121484167Y-60438540D01*
X141383779Y-64696666D02*
X140907588Y-65029999D01*
X141383779Y-65268094D02*
X140383779Y-65268094D01*
X140383779Y-65268094D02*
X140383779Y-64887142D01*
X140383779Y-64887142D02*
X140431398Y-64791904D01*
X140431398Y-64791904D02*
X140479017Y-64744285D01*
X140479017Y-64744285D02*
X140574255Y-64696666D01*
X140574255Y-64696666D02*
X140717112Y-64696666D01*
X140717112Y-64696666D02*
X140812350Y-64744285D01*
X140812350Y-64744285D02*
X140859969Y-64791904D01*
X140859969Y-64791904D02*
X140907588Y-64887142D01*
X140907588Y-64887142D02*
X140907588Y-65268094D01*
X141383779Y-63744285D02*
X141383779Y-64315713D01*
X141383779Y-64029999D02*
X140383779Y-64029999D01*
X140383779Y-64029999D02*
X140526636Y-64125237D01*
X140526636Y-64125237D02*
X140621874Y-64220475D01*
X140621874Y-64220475D02*
X140669493Y-64315713D01*
D15*
%TO.C,mouse-bite-2.54mm-4.66mm*%
G36*
X128500000Y-81180000D02*
G01*
X128501907Y-81180145D01*
X128503787Y-81180385D01*
X128505638Y-81180716D01*
X128507456Y-81181136D01*
X128509239Y-81181643D01*
X128510985Y-81182235D01*
X128512692Y-81182909D01*
X128514357Y-81183662D01*
X128515978Y-81184493D01*
X128517553Y-81185399D01*
X128519078Y-81186378D01*
X128520553Y-81187426D01*
X128521973Y-81188543D01*
X128523338Y-81189726D01*
X128524644Y-81190971D01*
X128525889Y-81192277D01*
X128527072Y-81193642D01*
X128528188Y-81195062D01*
X128529237Y-81196537D01*
X128530216Y-81198062D01*
X128531122Y-81199637D01*
X128531953Y-81201258D01*
X128532706Y-81202923D01*
X128533380Y-81204630D01*
X128533972Y-81206376D01*
X128534479Y-81208159D01*
X128534899Y-81209977D01*
X128535230Y-81211828D01*
X128535470Y-81213708D01*
X128535615Y-81215615D01*
X128535664Y-81217548D01*
X128535615Y-81219481D01*
X128535470Y-81221389D01*
X128535230Y-81223269D01*
X128534899Y-81225119D01*
X128534479Y-81226937D01*
X128533972Y-81228721D01*
X128533380Y-81230467D01*
X128532706Y-81232174D01*
X128531953Y-81233839D01*
X128531122Y-81235460D01*
X128530216Y-81237035D01*
X128529237Y-81238560D01*
X128528188Y-81240034D01*
X128527072Y-81241455D01*
X128525889Y-81242820D01*
X128524644Y-81244126D01*
X128523338Y-81245371D01*
X128521973Y-81246553D01*
X128520553Y-81247670D01*
X128519078Y-81248719D01*
X128517553Y-81249698D01*
X128515978Y-81250604D01*
X128514357Y-81251435D01*
X128512692Y-81252188D01*
X128510985Y-81252862D01*
X128509239Y-81253454D01*
X128507456Y-81253961D01*
X128505638Y-81254381D01*
X128503787Y-81254712D01*
X128501907Y-81254951D01*
X128500000Y-81255097D01*
X128498067Y-81255146D01*
X128496134Y-81255097D01*
X128494226Y-81254951D01*
X128492346Y-81254712D01*
X128490496Y-81254381D01*
X128488678Y-81253961D01*
X128486894Y-81253454D01*
X128485148Y-81252862D01*
X128483441Y-81252188D01*
X128481776Y-81251435D01*
X128480155Y-81250604D01*
X128478580Y-81249698D01*
X128477055Y-81248719D01*
X128475581Y-81247670D01*
X128474160Y-81246553D01*
X128472795Y-81245371D01*
X128471489Y-81244126D01*
X128470244Y-81242820D01*
X128469062Y-81241455D01*
X128467945Y-81240034D01*
X128466896Y-81238560D01*
X128465917Y-81237035D01*
X128465011Y-81235460D01*
X128464180Y-81233839D01*
X128463427Y-81232174D01*
X128462753Y-81230467D01*
X128462161Y-81228721D01*
X128461654Y-81226937D01*
X128461234Y-81225119D01*
X128460903Y-81223269D01*
X128460664Y-81221389D01*
X128460518Y-81219481D01*
X128460469Y-81217548D01*
X128460518Y-81215615D01*
X128460664Y-81213708D01*
X128460903Y-81211828D01*
X128461234Y-81209977D01*
X128461654Y-81208159D01*
X128462161Y-81206376D01*
X128462753Y-81204630D01*
X128463427Y-81202923D01*
X128464180Y-81201258D01*
X128465011Y-81199637D01*
X128465917Y-81198062D01*
X128466896Y-81196537D01*
X128467945Y-81195062D01*
X128469062Y-81193642D01*
X128470244Y-81192277D01*
X128471489Y-81190971D01*
X128472795Y-81189726D01*
X128474160Y-81188543D01*
X128475581Y-81187426D01*
X128477055Y-81186378D01*
X128478580Y-81185399D01*
X128480155Y-81184493D01*
X128481776Y-81183662D01*
X128483441Y-81182909D01*
X128485148Y-81182235D01*
X128486894Y-81181643D01*
X128488677Y-81181136D01*
X128490495Y-81180716D01*
X128492346Y-81180385D01*
X128494226Y-81180145D01*
X128496134Y-81180000D01*
X128498067Y-81179951D01*
X128500000Y-81180000D01*
G37*
G36*
X129358428Y-81034840D02*
G01*
X129365516Y-81035079D01*
X129372551Y-81035512D01*
X129379527Y-81036138D01*
X129386440Y-81036956D01*
X129393285Y-81037966D01*
X129400057Y-81039167D01*
X129406753Y-81040557D01*
X129413367Y-81042137D01*
X129419894Y-81043905D01*
X129426331Y-81045860D01*
X129431824Y-81047755D01*
X129437260Y-81049758D01*
X129442639Y-81051870D01*
X129447960Y-81054090D01*
X129453222Y-81056419D01*
X129458425Y-81058857D01*
X129463568Y-81061403D01*
X129468651Y-81064057D01*
X129473673Y-81066820D01*
X129478634Y-81069691D01*
X129483533Y-81072671D01*
X129488370Y-81075760D01*
X129493143Y-81078957D01*
X129497854Y-81082262D01*
X129502500Y-81085676D01*
X129507082Y-81089199D01*
X129508570Y-81090429D01*
X129509979Y-81091719D01*
X129511307Y-81093066D01*
X129512555Y-81094468D01*
X129513723Y-81095920D01*
X129514809Y-81097419D01*
X129515813Y-81098962D01*
X129516736Y-81100546D01*
X129517575Y-81102167D01*
X129518332Y-81103821D01*
X129519006Y-81105507D01*
X129519596Y-81107219D01*
X129520102Y-81108955D01*
X129520523Y-81110711D01*
X129520860Y-81112485D01*
X129521111Y-81114272D01*
X129521276Y-81116069D01*
X129521356Y-81117873D01*
X129521349Y-81119681D01*
X129521254Y-81121489D01*
X129521073Y-81123294D01*
X129520803Y-81125093D01*
X129520446Y-81126882D01*
X129520000Y-81128657D01*
X129519465Y-81130416D01*
X129518840Y-81132155D01*
X129518126Y-81133871D01*
X129517322Y-81135560D01*
X129516426Y-81137219D01*
X129515440Y-81138845D01*
X129514363Y-81140434D01*
X129513193Y-81141983D01*
X129511764Y-81143700D01*
X129510256Y-81145308D01*
X129508676Y-81146807D01*
X129507027Y-81148196D01*
X129505313Y-81149476D01*
X129503540Y-81150647D01*
X129501713Y-81151706D01*
X129499835Y-81152656D01*
X129497912Y-81153495D01*
X129495948Y-81154223D01*
X129493947Y-81154839D01*
X129491915Y-81155344D01*
X129489855Y-81155738D01*
X129487773Y-81156019D01*
X129485673Y-81156188D01*
X129483560Y-81156244D01*
X129481513Y-81156214D01*
X129479602Y-81156122D01*
X129477814Y-81155968D01*
X129476137Y-81155752D01*
X129474559Y-81155473D01*
X129473067Y-81155131D01*
X129471650Y-81154724D01*
X129470295Y-81154253D01*
X129468989Y-81153717D01*
X129467722Y-81153115D01*
X129466479Y-81152447D01*
X129465251Y-81151713D01*
X129464023Y-81150911D01*
X129462784Y-81150041D01*
X129461522Y-81149102D01*
X129460224Y-81148095D01*
X129457005Y-81145630D01*
X129453739Y-81143235D01*
X129450426Y-81140912D01*
X129447065Y-81138661D01*
X129443658Y-81136484D01*
X129440205Y-81134383D01*
X129436706Y-81132357D01*
X129433160Y-81130408D01*
X129429569Y-81128537D01*
X129425933Y-81126746D01*
X129422252Y-81125034D01*
X129418526Y-81123405D01*
X129414755Y-81121857D01*
X129410941Y-81120394D01*
X129407082Y-81119014D01*
X129403180Y-81117721D01*
X129400248Y-81116814D01*
X129397285Y-81115967D01*
X129394293Y-81115180D01*
X129391271Y-81114454D01*
X129385140Y-81113179D01*
X129378894Y-81112142D01*
X129372535Y-81111338D01*
X129366066Y-81110767D01*
X129359488Y-81110426D01*
X129352803Y-81110313D01*
X129346847Y-81110339D01*
X129342243Y-81110420D01*
X129338677Y-81110557D01*
X129335833Y-81110753D01*
X129333398Y-81111009D01*
X129331056Y-81111328D01*
X129325392Y-81112165D01*
X129104254Y-81144206D01*
X129102331Y-81144434D01*
X129100420Y-81144562D01*
X129098523Y-81144594D01*
X129096642Y-81144531D01*
X129094781Y-81144375D01*
X129092942Y-81144128D01*
X129091128Y-81143792D01*
X129089341Y-81143370D01*
X129087585Y-81142862D01*
X129085861Y-81142271D01*
X129084173Y-81141600D01*
X129082522Y-81140849D01*
X129080913Y-81140022D01*
X129079347Y-81139120D01*
X129077827Y-81138145D01*
X129076357Y-81137098D01*
X129074937Y-81135983D01*
X129073572Y-81134802D01*
X129072264Y-81133555D01*
X129071015Y-81132245D01*
X129069829Y-81130874D01*
X129068708Y-81129445D01*
X129067654Y-81127958D01*
X129066671Y-81126417D01*
X129065760Y-81124823D01*
X129064925Y-81123178D01*
X129064169Y-81121484D01*
X129063494Y-81119743D01*
X129062902Y-81117957D01*
X129062396Y-81116128D01*
X129061980Y-81114259D01*
X129061656Y-81112350D01*
X129061428Y-81110427D01*
X129061299Y-81108516D01*
X129061267Y-81106619D01*
X129061330Y-81104739D01*
X129061486Y-81102878D01*
X129061733Y-81101039D01*
X129062069Y-81099225D01*
X129062492Y-81097438D01*
X129063000Y-81095681D01*
X129063590Y-81093957D01*
X129064262Y-81092269D01*
X129065012Y-81090619D01*
X129065839Y-81089009D01*
X129066742Y-81087444D01*
X129067717Y-81085924D01*
X129068763Y-81084453D01*
X129069878Y-81083034D01*
X129071060Y-81081669D01*
X129072307Y-81080361D01*
X129073616Y-81079112D01*
X129074987Y-81077926D01*
X129076417Y-81076804D01*
X129077903Y-81075751D01*
X129079444Y-81074767D01*
X129081039Y-81073857D01*
X129082684Y-81073022D01*
X129084378Y-81072266D01*
X129086119Y-81071590D01*
X129087905Y-81070998D01*
X129089733Y-81070493D01*
X129091603Y-81070077D01*
X129093511Y-81069752D01*
X129315021Y-81037526D01*
X129322336Y-81036584D01*
X129329626Y-81035841D01*
X129336884Y-81035295D01*
X129344107Y-81034947D01*
X129351290Y-81034796D01*
X129358428Y-81034840D01*
G37*
G36*
X128719772Y-80792825D02*
G01*
X128728095Y-80793792D01*
X128734512Y-80794905D01*
X128740841Y-80796296D01*
X128747077Y-80797963D01*
X128753214Y-80799901D01*
X128759247Y-80802107D01*
X128765170Y-80804578D01*
X128770978Y-80807309D01*
X128776666Y-80810298D01*
X128782228Y-80813541D01*
X128787659Y-80817035D01*
X128792952Y-80820775D01*
X128798104Y-80824759D01*
X128803108Y-80828983D01*
X128807959Y-80833443D01*
X128812652Y-80838135D01*
X128817181Y-80843057D01*
X128823513Y-80842898D01*
X128829797Y-80842978D01*
X128836027Y-80843293D01*
X128842198Y-80843844D01*
X128848305Y-80844630D01*
X128854343Y-80845649D01*
X128860307Y-80846900D01*
X128866191Y-80848382D01*
X128871991Y-80850094D01*
X128877701Y-80852035D01*
X128883315Y-80854205D01*
X128888830Y-80856600D01*
X128894240Y-80859222D01*
X128899539Y-80862068D01*
X128904722Y-80865138D01*
X128909785Y-80868431D01*
X128912808Y-80870551D01*
X128915766Y-80872744D01*
X128918657Y-80875009D01*
X128921482Y-80877344D01*
X128924239Y-80879748D01*
X128926929Y-80882221D01*
X128929550Y-80884762D01*
X128932102Y-80887368D01*
X128934585Y-80890040D01*
X128936998Y-80892775D01*
X128939340Y-80895574D01*
X128941612Y-80898434D01*
X128943811Y-80901356D01*
X128945939Y-80904336D01*
X128947993Y-80907376D01*
X128949975Y-80910473D01*
X129290573Y-80862689D01*
X129302734Y-80861155D01*
X129314902Y-80859954D01*
X129327066Y-80859086D01*
X129339216Y-80858551D01*
X129351341Y-80858348D01*
X129363430Y-80858476D01*
X129375474Y-80858936D01*
X129387460Y-80859726D01*
X129399379Y-80860846D01*
X129411221Y-80862295D01*
X129422974Y-80864073D01*
X129434627Y-80866179D01*
X129446172Y-80868613D01*
X129457596Y-80871374D01*
X129468889Y-80874462D01*
X129480041Y-80877876D01*
X129512921Y-80889849D01*
X129544339Y-80904224D01*
X129574206Y-80920877D01*
X129602432Y-80939684D01*
X129628927Y-80960520D01*
X129653601Y-80983261D01*
X129676365Y-81007782D01*
X129697128Y-81033961D01*
X129715802Y-81061671D01*
X129732295Y-81090790D01*
X129746519Y-81121192D01*
X129758383Y-81152754D01*
X129767798Y-81185352D01*
X129774674Y-81218860D01*
X129778921Y-81253155D01*
X129780449Y-81288113D01*
X129780361Y-81295513D01*
X129780029Y-81302850D01*
X129779458Y-81310119D01*
X129778652Y-81317318D01*
X129777615Y-81324443D01*
X129776350Y-81331490D01*
X129774863Y-81338458D01*
X129773156Y-81345342D01*
X129771235Y-81352139D01*
X129769103Y-81358846D01*
X129766764Y-81365460D01*
X129764223Y-81371977D01*
X129761483Y-81378395D01*
X129758549Y-81384709D01*
X129755424Y-81390917D01*
X129752112Y-81397015D01*
X129767225Y-81400046D01*
X129781823Y-81404191D01*
X129795842Y-81409428D01*
X129809220Y-81415736D01*
X129815648Y-81419283D01*
X129821892Y-81423090D01*
X129827944Y-81427153D01*
X129833796Y-81431469D01*
X129839439Y-81436036D01*
X129844867Y-81440851D01*
X129850070Y-81445910D01*
X129855042Y-81451212D01*
X129859774Y-81456753D01*
X129864258Y-81462530D01*
X129868486Y-81468541D01*
X129872451Y-81474783D01*
X129876144Y-81481253D01*
X129879557Y-81487948D01*
X129882683Y-81494865D01*
X129885514Y-81502002D01*
X129888042Y-81509356D01*
X129890258Y-81516924D01*
X129892155Y-81524703D01*
X129893725Y-81532690D01*
X129894960Y-81540883D01*
X129895852Y-81549278D01*
X129896393Y-81557874D01*
X129896575Y-81566666D01*
X129896351Y-81575502D01*
X129895686Y-81584223D01*
X129894592Y-81592818D01*
X129893079Y-81601277D01*
X129891158Y-81609588D01*
X129888839Y-81617740D01*
X129886135Y-81625723D01*
X129883054Y-81633526D01*
X129879610Y-81641138D01*
X129875811Y-81648548D01*
X129871670Y-81655746D01*
X129867196Y-81662720D01*
X129862401Y-81669459D01*
X129857296Y-81675953D01*
X129851891Y-81682191D01*
X129846198Y-81688163D01*
X129840227Y-81693856D01*
X129833989Y-81699261D01*
X129827494Y-81704366D01*
X129820755Y-81709161D01*
X129813781Y-81713634D01*
X129806584Y-81717776D01*
X129799174Y-81721574D01*
X129791562Y-81725019D01*
X129783759Y-81728099D01*
X129775775Y-81730804D01*
X129767623Y-81733122D01*
X129759312Y-81735043D01*
X129750854Y-81736557D01*
X129742259Y-81737651D01*
X129733537Y-81738315D01*
X129724701Y-81738539D01*
X129162779Y-81738539D01*
X129160846Y-81738490D01*
X129158939Y-81738345D01*
X129157058Y-81738106D01*
X129155208Y-81737775D01*
X129153390Y-81737354D01*
X129151607Y-81736847D01*
X129149861Y-81736256D01*
X129148154Y-81735582D01*
X129146488Y-81734828D01*
X129144868Y-81733997D01*
X129143293Y-81733091D01*
X129141768Y-81732113D01*
X129140293Y-81731064D01*
X129138873Y-81729947D01*
X129137508Y-81728765D01*
X129136202Y-81727519D01*
X129134956Y-81726213D01*
X129133774Y-81724849D01*
X129132657Y-81723428D01*
X129131609Y-81721954D01*
X129130630Y-81720428D01*
X129129724Y-81718854D01*
X129128893Y-81717233D01*
X129128140Y-81715568D01*
X129127466Y-81713861D01*
X129126874Y-81712115D01*
X129126367Y-81710331D01*
X129125947Y-81708513D01*
X129125616Y-81706663D01*
X129125376Y-81704783D01*
X129125231Y-81702875D01*
X129125182Y-81700942D01*
X129125231Y-81699009D01*
X129125376Y-81697101D01*
X129125616Y-81695221D01*
X129125947Y-81693371D01*
X129126367Y-81691553D01*
X129126874Y-81689770D01*
X129127466Y-81688023D01*
X129128140Y-81686316D01*
X129128893Y-81684651D01*
X129129724Y-81683030D01*
X129130630Y-81681456D01*
X129131609Y-81679930D01*
X129132657Y-81678456D01*
X129133774Y-81677035D01*
X129134956Y-81675671D01*
X129136202Y-81674365D01*
X129137508Y-81673119D01*
X129138873Y-81671937D01*
X129140293Y-81670820D01*
X129141768Y-81669771D01*
X129143293Y-81668793D01*
X129144867Y-81667887D01*
X129146488Y-81667056D01*
X129148154Y-81666302D01*
X129149861Y-81665629D01*
X129151607Y-81665037D01*
X129153390Y-81664530D01*
X129155208Y-81664109D01*
X129157058Y-81663778D01*
X129158939Y-81663539D01*
X129160846Y-81663394D01*
X129162779Y-81663345D01*
X129724886Y-81663345D01*
X129729857Y-81663219D01*
X129734762Y-81662845D01*
X129739597Y-81662230D01*
X129744355Y-81661378D01*
X129749030Y-81660298D01*
X129753616Y-81658994D01*
X129758106Y-81657472D01*
X129762495Y-81655740D01*
X129766777Y-81653802D01*
X129770945Y-81651665D01*
X129774994Y-81649336D01*
X129778917Y-81646819D01*
X129782708Y-81644122D01*
X129786361Y-81641251D01*
X129789870Y-81638210D01*
X129793228Y-81635008D01*
X129796431Y-81631649D01*
X129799471Y-81628140D01*
X129802343Y-81624487D01*
X129805040Y-81620696D01*
X129807556Y-81616773D01*
X129809886Y-81612725D01*
X129812022Y-81608557D01*
X129813960Y-81604275D01*
X129815693Y-81599886D01*
X129817214Y-81595395D01*
X129818518Y-81590809D01*
X129819599Y-81586135D01*
X129820450Y-81581377D01*
X129821066Y-81576542D01*
X129821439Y-81571636D01*
X129821565Y-81566666D01*
X129821439Y-81561696D01*
X129821066Y-81556790D01*
X129820450Y-81551955D01*
X129819599Y-81547197D01*
X129818518Y-81542523D01*
X129817214Y-81537937D01*
X129815693Y-81533446D01*
X129813960Y-81529057D01*
X129812022Y-81524775D01*
X129809886Y-81520607D01*
X129807556Y-81516559D01*
X129805040Y-81512636D01*
X129802343Y-81508845D01*
X129799471Y-81505192D01*
X129796431Y-81501683D01*
X129793228Y-81498324D01*
X129789870Y-81495122D01*
X129786361Y-81492081D01*
X129782708Y-81489210D01*
X129778917Y-81486513D01*
X129774994Y-81483996D01*
X129770945Y-81481667D01*
X129766777Y-81479530D01*
X129762495Y-81477592D01*
X129758106Y-81475860D01*
X129753616Y-81474338D01*
X129749030Y-81473034D01*
X129744355Y-81471954D01*
X129739597Y-81471102D01*
X129734762Y-81470487D01*
X129729857Y-81470113D01*
X129724886Y-81469987D01*
X129686734Y-81469987D01*
X129679800Y-81474722D01*
X129672687Y-81479198D01*
X129665400Y-81483410D01*
X129657945Y-81487351D01*
X129650330Y-81491013D01*
X129642561Y-81494391D01*
X129634645Y-81497479D01*
X129626587Y-81500269D01*
X129618395Y-81502755D01*
X129610075Y-81504931D01*
X129601633Y-81506790D01*
X129593076Y-81508325D01*
X129584411Y-81509531D01*
X129575643Y-81510400D01*
X129566781Y-81510927D01*
X129557829Y-81511104D01*
X128384719Y-81511104D01*
X128370829Y-81510566D01*
X128364028Y-81509894D01*
X128357334Y-81508954D01*
X128350756Y-81507746D01*
X128344303Y-81506270D01*
X128337983Y-81504527D01*
X128331805Y-81502517D01*
X128325777Y-81500241D01*
X128319909Y-81497698D01*
X128314208Y-81494889D01*
X128308684Y-81491814D01*
X128303345Y-81488474D01*
X128298200Y-81484868D01*
X128293258Y-81480998D01*
X128288527Y-81476863D01*
X128284015Y-81472464D01*
X128279732Y-81467801D01*
X128275685Y-81462874D01*
X128271885Y-81457684D01*
X128268339Y-81452231D01*
X128265056Y-81446516D01*
X128262044Y-81440537D01*
X128259313Y-81434297D01*
X128256871Y-81427795D01*
X128254726Y-81421031D01*
X128252887Y-81414007D01*
X128251364Y-81406721D01*
X128250164Y-81399175D01*
X128249296Y-81391368D01*
X128248769Y-81383302D01*
X128248595Y-81375161D01*
X128323786Y-81375161D01*
X128323865Y-81378285D01*
X128324102Y-81381369D01*
X128324491Y-81384410D01*
X128325029Y-81387404D01*
X128325712Y-81390346D01*
X128326536Y-81393232D01*
X128327498Y-81396060D01*
X128328592Y-81398824D01*
X128329816Y-81401521D01*
X128331166Y-81404148D01*
X128332637Y-81406699D01*
X128334226Y-81409172D01*
X128335929Y-81411562D01*
X128337742Y-81413866D01*
X128339660Y-81416079D01*
X128341681Y-81418199D01*
X128343800Y-81420219D01*
X128346014Y-81422138D01*
X128348317Y-81423951D01*
X128350708Y-81425654D01*
X128353181Y-81427242D01*
X128355732Y-81428714D01*
X128358359Y-81430063D01*
X128361056Y-81431288D01*
X128363820Y-81432382D01*
X128366648Y-81433344D01*
X128369534Y-81434168D01*
X128372476Y-81434851D01*
X128375470Y-81435389D01*
X128378510Y-81435778D01*
X128381595Y-81436015D01*
X128384719Y-81436094D01*
X128594560Y-81436094D01*
X128597542Y-81426189D01*
X128601194Y-81416566D01*
X128605491Y-81407256D01*
X128610407Y-81398289D01*
X128615918Y-81389695D01*
X128621998Y-81381504D01*
X128628624Y-81373748D01*
X128635769Y-81366456D01*
X128643409Y-81359659D01*
X128651519Y-81353387D01*
X128660074Y-81347671D01*
X128669049Y-81342541D01*
X128678418Y-81338027D01*
X128688158Y-81334160D01*
X128698243Y-81330970D01*
X128708648Y-81328488D01*
X128804031Y-81309412D01*
X128805939Y-81309080D01*
X128807840Y-81308847D01*
X128809733Y-81308712D01*
X128811615Y-81308672D01*
X128813482Y-81308725D01*
X128815332Y-81308871D01*
X128817162Y-81309106D01*
X128818969Y-81309429D01*
X128820751Y-81309839D01*
X128822504Y-81310333D01*
X128824226Y-81310910D01*
X128825915Y-81311567D01*
X128827567Y-81312303D01*
X128829179Y-81313117D01*
X128830750Y-81314006D01*
X128832275Y-81314968D01*
X128833753Y-81316002D01*
X128835180Y-81317106D01*
X128836553Y-81318277D01*
X128837871Y-81319515D01*
X128839130Y-81320817D01*
X128840327Y-81322182D01*
X128841460Y-81323607D01*
X128842525Y-81325091D01*
X128843521Y-81326632D01*
X128844443Y-81328228D01*
X128845290Y-81329877D01*
X128846059Y-81331578D01*
X128846747Y-81333329D01*
X128847351Y-81335127D01*
X128847868Y-81336971D01*
X128848296Y-81338860D01*
X128848627Y-81340768D01*
X128848860Y-81342670D01*
X128848996Y-81344563D01*
X128849036Y-81346444D01*
X128848982Y-81348311D01*
X128848837Y-81350161D01*
X128848602Y-81351991D01*
X128848278Y-81353798D01*
X128847869Y-81355580D01*
X128847374Y-81357333D01*
X128846798Y-81359056D01*
X128846140Y-81360744D01*
X128845404Y-81362396D01*
X128844590Y-81364009D01*
X128843702Y-81365579D01*
X128842739Y-81367104D01*
X128841705Y-81368582D01*
X128840602Y-81370009D01*
X128839430Y-81371383D01*
X128838192Y-81372700D01*
X128836890Y-81373959D01*
X128835526Y-81375156D01*
X128834100Y-81376289D01*
X128832616Y-81377354D01*
X128831076Y-81378350D01*
X128829479Y-81379272D01*
X128827830Y-81380120D01*
X128826129Y-81380888D01*
X128824379Y-81381576D01*
X128822580Y-81382180D01*
X128820736Y-81382697D01*
X128818847Y-81383125D01*
X128723465Y-81402201D01*
X128719650Y-81403066D01*
X128715919Y-81404128D01*
X128712276Y-81405382D01*
X128708727Y-81406820D01*
X128705276Y-81408436D01*
X128701929Y-81410223D01*
X128698692Y-81412175D01*
X128695568Y-81414286D01*
X128692564Y-81416549D01*
X128689685Y-81418957D01*
X128686935Y-81421504D01*
X128684320Y-81424183D01*
X128681845Y-81426988D01*
X128679515Y-81429913D01*
X128677335Y-81432950D01*
X128675311Y-81436094D01*
X129248160Y-81436094D01*
X129251175Y-81426189D01*
X129254856Y-81416566D01*
X129259177Y-81407256D01*
X129264114Y-81398289D01*
X129269643Y-81389694D01*
X129275739Y-81381504D01*
X129282376Y-81373748D01*
X129289531Y-81366456D01*
X129297179Y-81359659D01*
X129305295Y-81353387D01*
X129313854Y-81347671D01*
X129322831Y-81342541D01*
X129332203Y-81338027D01*
X129341943Y-81334160D01*
X129352029Y-81330970D01*
X129362434Y-81328488D01*
X129457816Y-81309412D01*
X129459724Y-81309080D01*
X129461626Y-81308847D01*
X129463519Y-81308712D01*
X129465400Y-81308672D01*
X129467267Y-81308725D01*
X129469117Y-81308870D01*
X129470947Y-81309106D01*
X129472754Y-81309429D01*
X129474536Y-81309839D01*
X129476290Y-81310333D01*
X129478012Y-81310909D01*
X129479700Y-81311567D01*
X129481352Y-81312303D01*
X129482965Y-81313117D01*
X129484535Y-81314006D01*
X129486061Y-81314968D01*
X129487538Y-81316002D01*
X129488965Y-81317106D01*
X129490339Y-81318277D01*
X129491657Y-81319515D01*
X129492915Y-81320817D01*
X129494112Y-81322182D01*
X129495245Y-81323607D01*
X129496311Y-81325091D01*
X129497306Y-81326632D01*
X129498229Y-81328228D01*
X129499076Y-81329877D01*
X129499845Y-81331578D01*
X129500533Y-81333329D01*
X129501136Y-81335127D01*
X129501653Y-81336971D01*
X129502081Y-81338860D01*
X129502413Y-81340768D01*
X129502646Y-81342670D01*
X129502781Y-81344563D01*
X129502821Y-81346444D01*
X129502768Y-81348311D01*
X129502622Y-81350161D01*
X129502387Y-81351991D01*
X129502064Y-81353798D01*
X129501654Y-81355580D01*
X129501160Y-81357333D01*
X129500583Y-81359056D01*
X129499926Y-81360744D01*
X129499189Y-81362396D01*
X129498376Y-81364008D01*
X129497487Y-81365579D01*
X129496525Y-81367104D01*
X129495491Y-81368582D01*
X129494387Y-81370009D01*
X129493216Y-81371382D01*
X129491978Y-81372700D01*
X129490676Y-81373959D01*
X129489311Y-81375156D01*
X129487886Y-81376289D01*
X129486402Y-81377354D01*
X129484861Y-81378350D01*
X129483265Y-81379272D01*
X129481616Y-81380120D01*
X129479915Y-81380888D01*
X129478164Y-81381576D01*
X129476366Y-81382180D01*
X129474521Y-81382697D01*
X129472633Y-81383125D01*
X129377251Y-81402201D01*
X129373436Y-81403066D01*
X129369704Y-81404128D01*
X129366061Y-81405382D01*
X129362512Y-81406820D01*
X129359061Y-81408436D01*
X129355715Y-81410223D01*
X129352477Y-81412175D01*
X129349354Y-81414286D01*
X129346349Y-81416549D01*
X129343470Y-81418957D01*
X129340720Y-81421504D01*
X129338105Y-81424183D01*
X129335630Y-81426988D01*
X129333300Y-81429913D01*
X129331120Y-81432950D01*
X129329096Y-81436094D01*
X129557829Y-81436094D01*
X129565406Y-81435902D01*
X129572885Y-81435330D01*
X129580258Y-81434388D01*
X129587515Y-81433086D01*
X129594647Y-81431434D01*
X129601643Y-81429439D01*
X129608495Y-81427113D01*
X129615194Y-81424464D01*
X129621730Y-81421501D01*
X129628093Y-81418235D01*
X129634274Y-81414674D01*
X129640264Y-81410827D01*
X129646053Y-81406705D01*
X129651633Y-81402317D01*
X129656993Y-81397672D01*
X129662124Y-81392779D01*
X129667017Y-81387647D01*
X129671662Y-81382287D01*
X129676051Y-81376708D01*
X129680173Y-81370919D01*
X129684019Y-81364929D01*
X129687580Y-81358747D01*
X129690847Y-81352384D01*
X129693809Y-81345849D01*
X129696458Y-81339150D01*
X129698785Y-81332298D01*
X129700779Y-81325301D01*
X129702432Y-81318170D01*
X129703734Y-81310913D01*
X129704675Y-81303540D01*
X129705247Y-81296060D01*
X129705440Y-81288483D01*
X129705098Y-81273990D01*
X129704185Y-81259621D01*
X129702708Y-81245388D01*
X129700678Y-81231304D01*
X129698104Y-81217382D01*
X129694995Y-81203635D01*
X129691361Y-81190075D01*
X129687211Y-81176716D01*
X129682555Y-81163570D01*
X129677401Y-81150650D01*
X129671759Y-81137969D01*
X129665640Y-81125540D01*
X129659051Y-81113375D01*
X129652003Y-81101487D01*
X129644504Y-81089890D01*
X129636565Y-81078596D01*
X129628195Y-81067617D01*
X129619402Y-81056967D01*
X129610197Y-81046659D01*
X129600589Y-81036705D01*
X129590587Y-81027118D01*
X129580200Y-81017910D01*
X129569439Y-81009096D01*
X129558312Y-81000687D01*
X129546829Y-80992696D01*
X129534998Y-80985137D01*
X129522831Y-80978021D01*
X129510335Y-80971362D01*
X129497521Y-80965173D01*
X129484398Y-80959467D01*
X129470974Y-80954255D01*
X129457260Y-80949552D01*
X129448101Y-80946767D01*
X129438823Y-80944249D01*
X129429436Y-80941996D01*
X129419947Y-80940011D01*
X129410365Y-80938294D01*
X129400697Y-80936845D01*
X129390953Y-80935667D01*
X129381140Y-80934758D01*
X129371266Y-80934122D01*
X129361339Y-80933757D01*
X129351368Y-80933665D01*
X129341361Y-80933847D01*
X129331325Y-80934303D01*
X129321269Y-80935035D01*
X129311201Y-80936043D01*
X129301130Y-80937328D01*
X128972015Y-80983445D01*
X128972206Y-80991754D01*
X128971953Y-81000077D01*
X128971269Y-81008405D01*
X128970166Y-81016731D01*
X128968655Y-81025045D01*
X128966750Y-81033341D01*
X128964463Y-81041609D01*
X128961805Y-81049842D01*
X128958789Y-81058032D01*
X128955427Y-81066170D01*
X128951732Y-81074249D01*
X128947715Y-81082260D01*
X128943389Y-81090194D01*
X128938765Y-81098045D01*
X128933857Y-81105803D01*
X128928676Y-81113461D01*
X128923276Y-81120887D01*
X128917781Y-81127859D01*
X128912205Y-81134392D01*
X128906562Y-81140501D01*
X128900865Y-81146198D01*
X128895127Y-81151500D01*
X128889363Y-81156419D01*
X128883586Y-81160970D01*
X128877810Y-81165168D01*
X128872049Y-81169027D01*
X128866315Y-81172560D01*
X128860624Y-81175784D01*
X128854988Y-81178710D01*
X128849421Y-81181355D01*
X128843937Y-81183731D01*
X128838549Y-81185855D01*
X128828118Y-81189397D01*
X128818236Y-81192097D01*
X128809014Y-81194068D01*
X128800561Y-81195425D01*
X128792986Y-81196281D01*
X128786397Y-81196751D01*
X128776620Y-81196990D01*
X128774806Y-81196946D01*
X128773011Y-81196815D01*
X128771239Y-81196599D01*
X128769490Y-81196299D01*
X128767767Y-81195918D01*
X128766073Y-81195458D01*
X128764409Y-81194921D01*
X128762779Y-81194308D01*
X128761183Y-81193621D01*
X128759624Y-81192863D01*
X128758105Y-81192035D01*
X128756627Y-81191140D01*
X128755193Y-81190179D01*
X128753806Y-81189154D01*
X128752466Y-81188067D01*
X128751177Y-81186920D01*
X128749940Y-81185714D01*
X128748759Y-81184453D01*
X128747634Y-81183138D01*
X128746569Y-81181770D01*
X128745565Y-81180352D01*
X128744625Y-81178886D01*
X128743750Y-81177373D01*
X128742944Y-81175816D01*
X128742208Y-81174216D01*
X128741544Y-81172575D01*
X128740955Y-81170896D01*
X128740443Y-81169180D01*
X128740010Y-81167429D01*
X128739659Y-81165645D01*
X128739390Y-81163830D01*
X128739208Y-81161986D01*
X128739118Y-81160050D01*
X128739127Y-81158132D01*
X128739231Y-81156236D01*
X128739428Y-81154364D01*
X128739716Y-81152518D01*
X128740093Y-81150701D01*
X128740557Y-81148915D01*
X128741106Y-81147163D01*
X128741737Y-81145448D01*
X128742449Y-81143771D01*
X128743239Y-81142136D01*
X128744104Y-81140544D01*
X128745044Y-81138999D01*
X128746055Y-81137503D01*
X128747135Y-81136059D01*
X128748283Y-81134668D01*
X128749496Y-81133333D01*
X128750772Y-81132058D01*
X128752108Y-81130844D01*
X128753504Y-81129694D01*
X128754955Y-81128610D01*
X128756461Y-81127596D01*
X128758019Y-81126653D01*
X128759627Y-81125783D01*
X128761283Y-81124991D01*
X128762984Y-81124277D01*
X128764729Y-81123645D01*
X128766514Y-81123097D01*
X128768339Y-81122636D01*
X128770201Y-81122263D01*
X128772098Y-81121982D01*
X128774027Y-81121796D01*
X128780594Y-81121133D01*
X128787157Y-81120056D01*
X128793699Y-81118575D01*
X128800202Y-81116700D01*
X128806650Y-81114441D01*
X128813026Y-81111811D01*
X128819312Y-81108818D01*
X128825492Y-81105474D01*
X128831548Y-81101790D01*
X128837463Y-81097775D01*
X128843220Y-81093440D01*
X128848802Y-81088797D01*
X128854192Y-81083855D01*
X128859373Y-81078625D01*
X128864328Y-81073118D01*
X128869039Y-81067344D01*
X128872962Y-81062014D01*
X128876604Y-81056586D01*
X128879961Y-81051075D01*
X128883028Y-81045490D01*
X128885802Y-81039844D01*
X128888280Y-81034150D01*
X128890456Y-81028419D01*
X128892329Y-81022663D01*
X128893893Y-81016894D01*
X128895145Y-81011124D01*
X128896082Y-81005364D01*
X128896699Y-80999628D01*
X128896992Y-80993926D01*
X128896958Y-80988271D01*
X128896594Y-80982674D01*
X128895894Y-80977148D01*
X128895423Y-80974449D01*
X128894836Y-80971641D01*
X128894120Y-80968741D01*
X128893264Y-80965766D01*
X128892254Y-80962734D01*
X128891079Y-80959662D01*
X128889727Y-80956566D01*
X128888185Y-80953465D01*
X128886441Y-80950373D01*
X128884483Y-80947310D01*
X128882299Y-80944292D01*
X128879876Y-80941336D01*
X128877203Y-80938460D01*
X128875769Y-80937056D01*
X128874267Y-80935679D01*
X128872697Y-80934330D01*
X128871056Y-80933012D01*
X128869343Y-80931726D01*
X128867557Y-80930476D01*
X128863714Y-80928059D01*
X128859727Y-80925912D01*
X128855605Y-80924031D01*
X128851359Y-80922415D01*
X128846998Y-80921059D01*
X128842533Y-80919962D01*
X128837973Y-80919119D01*
X128833328Y-80918530D01*
X128828609Y-80918189D01*
X128823824Y-80918096D01*
X128818985Y-80918247D01*
X128814100Y-80918638D01*
X128809180Y-80919268D01*
X128804235Y-80920133D01*
X128799274Y-80921231D01*
X128794307Y-80922558D01*
X128789345Y-80924112D01*
X128784397Y-80925890D01*
X128779474Y-80927889D01*
X128774584Y-80930107D01*
X128769738Y-80932539D01*
X128764947Y-80935185D01*
X128760218Y-80938040D01*
X128755564Y-80941102D01*
X128750993Y-80944368D01*
X128746516Y-80947835D01*
X128742142Y-80951501D01*
X128737881Y-80955361D01*
X128733743Y-80959415D01*
X128729739Y-80963658D01*
X128725877Y-80968089D01*
X128722169Y-80972703D01*
X128717892Y-80978567D01*
X128713953Y-80984548D01*
X128710359Y-80990628D01*
X128707112Y-80996792D01*
X128704218Y-81003020D01*
X128701681Y-81009296D01*
X128699506Y-81015603D01*
X128697698Y-81021922D01*
X128696261Y-81028237D01*
X128695199Y-81034531D01*
X128694518Y-81040785D01*
X128694222Y-81046983D01*
X128694316Y-81053107D01*
X128694804Y-81059140D01*
X128695690Y-81065065D01*
X128696980Y-81070863D01*
X128697433Y-81072757D01*
X128697786Y-81074649D01*
X128698040Y-81076538D01*
X128698196Y-81078420D01*
X128698258Y-81080294D01*
X128698226Y-81082154D01*
X128698103Y-81084000D01*
X128697889Y-81085828D01*
X128697587Y-81087635D01*
X128697198Y-81089418D01*
X128696724Y-81091174D01*
X128696166Y-81092901D01*
X128695527Y-81094595D01*
X128694808Y-81096254D01*
X128694011Y-81097875D01*
X128693137Y-81099455D01*
X128692189Y-81100991D01*
X128691167Y-81102480D01*
X128690073Y-81103919D01*
X128688910Y-81105306D01*
X128687679Y-81106637D01*
X128686381Y-81107910D01*
X128685019Y-81109122D01*
X128683593Y-81110269D01*
X128682107Y-81111350D01*
X128680560Y-81112361D01*
X128678956Y-81113298D01*
X128677295Y-81114161D01*
X128675580Y-81114944D01*
X128673813Y-81115646D01*
X128671994Y-81116264D01*
X128670125Y-81116795D01*
X128668232Y-81117231D01*
X128666339Y-81117568D01*
X128664451Y-81117807D01*
X128662568Y-81117951D01*
X128660695Y-81118000D01*
X128658834Y-81117957D01*
X128656989Y-81117823D01*
X128655161Y-81117600D01*
X128653354Y-81117289D01*
X128651571Y-81116893D01*
X128649815Y-81116413D01*
X128648088Y-81115851D01*
X128646393Y-81115208D01*
X128644734Y-81114486D01*
X128643113Y-81113688D01*
X128641534Y-81112813D01*
X128639998Y-81111865D01*
X128638509Y-81110845D01*
X128637069Y-81109754D01*
X128635682Y-81108595D01*
X128634351Y-81107368D01*
X128633078Y-81106076D01*
X128631867Y-81104721D01*
X128630719Y-81103304D01*
X128629639Y-81101826D01*
X128628628Y-81100290D01*
X128627690Y-81098697D01*
X128626828Y-81097049D01*
X128626044Y-81095348D01*
X128625342Y-81093595D01*
X128624724Y-81091792D01*
X128624193Y-81089940D01*
X128622900Y-81084775D01*
X128621794Y-81079562D01*
X128620876Y-81074306D01*
X128620142Y-81069011D01*
X128619590Y-81063682D01*
X128619219Y-81058321D01*
X128619025Y-81052935D01*
X128619008Y-81047527D01*
X128575669Y-81057714D01*
X128562352Y-81061119D01*
X128549221Y-81065079D01*
X128536293Y-81069580D01*
X128523585Y-81074614D01*
X128511113Y-81080168D01*
X128498895Y-81086233D01*
X128486947Y-81092797D01*
X128475286Y-81099849D01*
X128463929Y-81107378D01*
X128452892Y-81115374D01*
X128442193Y-81123826D01*
X128431849Y-81132723D01*
X128421875Y-81142054D01*
X128412290Y-81151808D01*
X128403109Y-81161975D01*
X128394350Y-81172543D01*
X128386049Y-81183476D01*
X128378237Y-81194733D01*
X128370919Y-81206293D01*
X128364103Y-81218136D01*
X128357795Y-81230243D01*
X128352001Y-81242594D01*
X128346728Y-81255169D01*
X128341982Y-81267948D01*
X128337771Y-81280912D01*
X128334099Y-81294041D01*
X128330975Y-81307314D01*
X128328404Y-81320712D01*
X128326393Y-81334216D01*
X128324949Y-81347805D01*
X128324077Y-81361460D01*
X128323786Y-81375161D01*
X128248595Y-81375161D01*
X128248591Y-81374975D01*
X128248952Y-81358087D01*
X128250029Y-81341262D01*
X128251814Y-81324523D01*
X128254298Y-81307895D01*
X128257472Y-81291402D01*
X128261327Y-81275067D01*
X128265855Y-81258915D01*
X128271048Y-81242968D01*
X128276895Y-81227252D01*
X128283390Y-81211789D01*
X128290523Y-81196605D01*
X128298285Y-81181722D01*
X128306668Y-81167165D01*
X128315662Y-81152957D01*
X128325261Y-81139122D01*
X128335454Y-81125685D01*
X128345187Y-81113903D01*
X128355348Y-81102527D01*
X128365920Y-81091565D01*
X128376888Y-81081027D01*
X128388236Y-81070923D01*
X128399947Y-81061263D01*
X128412007Y-81052057D01*
X128424400Y-81043314D01*
X128437109Y-81035044D01*
X128450120Y-81027257D01*
X128463416Y-81019963D01*
X128476982Y-81013171D01*
X128490801Y-81006891D01*
X128504859Y-81001134D01*
X128519140Y-80995908D01*
X128533627Y-80991224D01*
X128533670Y-80986778D01*
X128533803Y-80982331D01*
X128534027Y-80977879D01*
X128534344Y-80973421D01*
X128534411Y-80972703D01*
X128610118Y-80972703D01*
X128638640Y-80966035D01*
X128641148Y-80960984D01*
X128643808Y-80955973D01*
X128646616Y-80951011D01*
X128649567Y-80946102D01*
X128652657Y-80941255D01*
X128655881Y-80936474D01*
X128659236Y-80931768D01*
X128662717Y-80927142D01*
X128666100Y-80922849D01*
X128669580Y-80918652D01*
X128673154Y-80914554D01*
X128676819Y-80910554D01*
X128680571Y-80906654D01*
X128684409Y-80902855D01*
X128688329Y-80899158D01*
X128692327Y-80895564D01*
X128696401Y-80892074D01*
X128700549Y-80888689D01*
X128704766Y-80885411D01*
X128709051Y-80882240D01*
X128713399Y-80879178D01*
X128717809Y-80876225D01*
X128722276Y-80873383D01*
X128726799Y-80870653D01*
X128725618Y-80870254D01*
X128724435Y-80869889D01*
X128723247Y-80869559D01*
X128722053Y-80869264D01*
X128720850Y-80869004D01*
X128719637Y-80868778D01*
X128718410Y-80868587D01*
X128717168Y-80868431D01*
X128712639Y-80867904D01*
X128708120Y-80867676D01*
X128703618Y-80867738D01*
X128699139Y-80868086D01*
X128694691Y-80868712D01*
X128690280Y-80869610D01*
X128685913Y-80870774D01*
X128681597Y-80872198D01*
X128677338Y-80873876D01*
X128673143Y-80875801D01*
X128669020Y-80877966D01*
X128664974Y-80880366D01*
X128661013Y-80882994D01*
X128657144Y-80885844D01*
X128653372Y-80888909D01*
X128649706Y-80892184D01*
X128646151Y-80895661D01*
X128642715Y-80899335D01*
X128639405Y-80903200D01*
X128636226Y-80907248D01*
X128633187Y-80911475D01*
X128630293Y-80915872D01*
X128627551Y-80920435D01*
X128624969Y-80925156D01*
X128622553Y-80930030D01*
X128620310Y-80935051D01*
X128618246Y-80940211D01*
X128616368Y-80945504D01*
X128614684Y-80950925D01*
X128613200Y-80956467D01*
X128611922Y-80962123D01*
X128610858Y-80967887D01*
X128610586Y-80969109D01*
X128610461Y-80969704D01*
X128610349Y-80970295D01*
X128610254Y-80970886D01*
X128610181Y-80971482D01*
X128610154Y-80971782D01*
X128610134Y-80972086D01*
X128610122Y-80972392D01*
X128610118Y-80972703D01*
X128534411Y-80972703D01*
X128534757Y-80968954D01*
X128535267Y-80964476D01*
X128535878Y-80959985D01*
X128536590Y-80955479D01*
X128538353Y-80945983D01*
X128540511Y-80936672D01*
X128543050Y-80927557D01*
X128545958Y-80918647D01*
X128549224Y-80909952D01*
X128552835Y-80901483D01*
X128556778Y-80893249D01*
X128561043Y-80885261D01*
X128565617Y-80877530D01*
X128570487Y-80870065D01*
X128575641Y-80862876D01*
X128581068Y-80855974D01*
X128586755Y-80849369D01*
X128592690Y-80843070D01*
X128598861Y-80837089D01*
X128605256Y-80831435D01*
X128611862Y-80826119D01*
X128618668Y-80821150D01*
X128625661Y-80816539D01*
X128632829Y-80812297D01*
X128640161Y-80808432D01*
X128647643Y-80804956D01*
X128655264Y-80801878D01*
X128663012Y-80799209D01*
X128670874Y-80796959D01*
X128678839Y-80795138D01*
X128686893Y-80793756D01*
X128695026Y-80792824D01*
X128703225Y-80792351D01*
X128711477Y-80792348D01*
X128719772Y-80792825D01*
G37*
G36*
X128220000Y-67640000D02*
G01*
X128221907Y-67640145D01*
X128223787Y-67640385D01*
X128225638Y-67640716D01*
X128227456Y-67641136D01*
X128229239Y-67641643D01*
X128230985Y-67642235D01*
X128232692Y-67642909D01*
X128234357Y-67643662D01*
X128235978Y-67644493D01*
X128237553Y-67645399D01*
X128239078Y-67646378D01*
X128240553Y-67647426D01*
X128241973Y-67648543D01*
X128243338Y-67649726D01*
X128244644Y-67650971D01*
X128245889Y-67652277D01*
X128247072Y-67653642D01*
X128248188Y-67655062D01*
X128249237Y-67656537D01*
X128250216Y-67658062D01*
X128251122Y-67659637D01*
X128251953Y-67661258D01*
X128252706Y-67662923D01*
X128253380Y-67664630D01*
X128253972Y-67666376D01*
X128254479Y-67668159D01*
X128254899Y-67669977D01*
X128255230Y-67671828D01*
X128255470Y-67673708D01*
X128255615Y-67675615D01*
X128255664Y-67677548D01*
X128255615Y-67679481D01*
X128255470Y-67681389D01*
X128255230Y-67683269D01*
X128254899Y-67685119D01*
X128254479Y-67686937D01*
X128253972Y-67688721D01*
X128253380Y-67690467D01*
X128252706Y-67692174D01*
X128251953Y-67693839D01*
X128251122Y-67695460D01*
X128250216Y-67697035D01*
X128249237Y-67698560D01*
X128248188Y-67700034D01*
X128247072Y-67701455D01*
X128245889Y-67702820D01*
X128244644Y-67704126D01*
X128243338Y-67705371D01*
X128241973Y-67706553D01*
X128240553Y-67707670D01*
X128239078Y-67708719D01*
X128237553Y-67709698D01*
X128235978Y-67710604D01*
X128234357Y-67711435D01*
X128232692Y-67712188D01*
X128230985Y-67712862D01*
X128229239Y-67713454D01*
X128227456Y-67713961D01*
X128225638Y-67714381D01*
X128223787Y-67714712D01*
X128221907Y-67714951D01*
X128220000Y-67715097D01*
X128218067Y-67715146D01*
X128216134Y-67715097D01*
X128214226Y-67714951D01*
X128212346Y-67714712D01*
X128210496Y-67714381D01*
X128208678Y-67713961D01*
X128206894Y-67713454D01*
X128205148Y-67712862D01*
X128203441Y-67712188D01*
X128201776Y-67711435D01*
X128200155Y-67710604D01*
X128198580Y-67709698D01*
X128197055Y-67708719D01*
X128195581Y-67707670D01*
X128194160Y-67706553D01*
X128192795Y-67705371D01*
X128191489Y-67704126D01*
X128190244Y-67702820D01*
X128189062Y-67701455D01*
X128187945Y-67700034D01*
X128186896Y-67698560D01*
X128185917Y-67697035D01*
X128185011Y-67695460D01*
X128184180Y-67693839D01*
X128183427Y-67692174D01*
X128182753Y-67690467D01*
X128182161Y-67688721D01*
X128181654Y-67686937D01*
X128181234Y-67685119D01*
X128180903Y-67683269D01*
X128180664Y-67681389D01*
X128180518Y-67679481D01*
X128180469Y-67677548D01*
X128180518Y-67675615D01*
X128180664Y-67673708D01*
X128180903Y-67671828D01*
X128181234Y-67669977D01*
X128181654Y-67668159D01*
X128182161Y-67666376D01*
X128182753Y-67664630D01*
X128183427Y-67662923D01*
X128184180Y-67661258D01*
X128185011Y-67659637D01*
X128185917Y-67658062D01*
X128186896Y-67656537D01*
X128187945Y-67655062D01*
X128189062Y-67653642D01*
X128190244Y-67652277D01*
X128191489Y-67650971D01*
X128192795Y-67649726D01*
X128194160Y-67648543D01*
X128195581Y-67647426D01*
X128197055Y-67646378D01*
X128198580Y-67645399D01*
X128200155Y-67644493D01*
X128201776Y-67643662D01*
X128203441Y-67642909D01*
X128205148Y-67642235D01*
X128206894Y-67641643D01*
X128208677Y-67641136D01*
X128210495Y-67640716D01*
X128212346Y-67640385D01*
X128214226Y-67640145D01*
X128216134Y-67640000D01*
X128218067Y-67639951D01*
X128220000Y-67640000D01*
G37*
G36*
X129078428Y-67494840D02*
G01*
X129085516Y-67495079D01*
X129092551Y-67495512D01*
X129099527Y-67496138D01*
X129106440Y-67496956D01*
X129113285Y-67497966D01*
X129120057Y-67499167D01*
X129126753Y-67500557D01*
X129133367Y-67502137D01*
X129139894Y-67503905D01*
X129146331Y-67505860D01*
X129151824Y-67507755D01*
X129157260Y-67509758D01*
X129162639Y-67511870D01*
X129167960Y-67514090D01*
X129173222Y-67516419D01*
X129178425Y-67518857D01*
X129183568Y-67521403D01*
X129188651Y-67524057D01*
X129193673Y-67526820D01*
X129198634Y-67529691D01*
X129203533Y-67532671D01*
X129208370Y-67535760D01*
X129213143Y-67538957D01*
X129217854Y-67542262D01*
X129222500Y-67545676D01*
X129227082Y-67549199D01*
X129228570Y-67550429D01*
X129229979Y-67551719D01*
X129231307Y-67553066D01*
X129232555Y-67554468D01*
X129233723Y-67555920D01*
X129234809Y-67557419D01*
X129235813Y-67558962D01*
X129236736Y-67560546D01*
X129237575Y-67562167D01*
X129238332Y-67563821D01*
X129239006Y-67565507D01*
X129239596Y-67567219D01*
X129240102Y-67568955D01*
X129240523Y-67570711D01*
X129240860Y-67572485D01*
X129241111Y-67574272D01*
X129241276Y-67576069D01*
X129241356Y-67577873D01*
X129241349Y-67579681D01*
X129241254Y-67581489D01*
X129241073Y-67583294D01*
X129240803Y-67585093D01*
X129240446Y-67586882D01*
X129240000Y-67588657D01*
X129239465Y-67590416D01*
X129238840Y-67592155D01*
X129238126Y-67593871D01*
X129237322Y-67595560D01*
X129236426Y-67597219D01*
X129235440Y-67598845D01*
X129234363Y-67600434D01*
X129233193Y-67601983D01*
X129231764Y-67603700D01*
X129230256Y-67605308D01*
X129228676Y-67606807D01*
X129227027Y-67608196D01*
X129225313Y-67609476D01*
X129223540Y-67610647D01*
X129221713Y-67611706D01*
X129219835Y-67612656D01*
X129217912Y-67613495D01*
X129215948Y-67614223D01*
X129213947Y-67614839D01*
X129211915Y-67615344D01*
X129209855Y-67615738D01*
X129207773Y-67616019D01*
X129205673Y-67616188D01*
X129203560Y-67616244D01*
X129201513Y-67616214D01*
X129199602Y-67616122D01*
X129197814Y-67615968D01*
X129196137Y-67615752D01*
X129194559Y-67615473D01*
X129193067Y-67615131D01*
X129191650Y-67614724D01*
X129190295Y-67614253D01*
X129188989Y-67613717D01*
X129187722Y-67613115D01*
X129186479Y-67612447D01*
X129185251Y-67611713D01*
X129184023Y-67610911D01*
X129182784Y-67610041D01*
X129181522Y-67609102D01*
X129180224Y-67608095D01*
X129177005Y-67605630D01*
X129173739Y-67603235D01*
X129170426Y-67600912D01*
X129167065Y-67598661D01*
X129163658Y-67596484D01*
X129160205Y-67594383D01*
X129156706Y-67592357D01*
X129153160Y-67590408D01*
X129149569Y-67588537D01*
X129145933Y-67586746D01*
X129142252Y-67585034D01*
X129138526Y-67583405D01*
X129134755Y-67581857D01*
X129130941Y-67580394D01*
X129127082Y-67579014D01*
X129123180Y-67577721D01*
X129120248Y-67576814D01*
X129117285Y-67575967D01*
X129114293Y-67575180D01*
X129111271Y-67574454D01*
X129105140Y-67573179D01*
X129098894Y-67572142D01*
X129092535Y-67571338D01*
X129086066Y-67570767D01*
X129079488Y-67570426D01*
X129072803Y-67570313D01*
X129066847Y-67570339D01*
X129062243Y-67570420D01*
X129058677Y-67570557D01*
X129055833Y-67570753D01*
X129053398Y-67571009D01*
X129051056Y-67571328D01*
X129045392Y-67572165D01*
X128824254Y-67604206D01*
X128822331Y-67604434D01*
X128820420Y-67604562D01*
X128818523Y-67604594D01*
X128816642Y-67604531D01*
X128814781Y-67604375D01*
X128812942Y-67604128D01*
X128811128Y-67603792D01*
X128809341Y-67603370D01*
X128807585Y-67602862D01*
X128805861Y-67602271D01*
X128804173Y-67601600D01*
X128802522Y-67600849D01*
X128800913Y-67600022D01*
X128799347Y-67599120D01*
X128797827Y-67598145D01*
X128796357Y-67597098D01*
X128794937Y-67595983D01*
X128793572Y-67594802D01*
X128792264Y-67593555D01*
X128791015Y-67592245D01*
X128789829Y-67590874D01*
X128788708Y-67589445D01*
X128787654Y-67587958D01*
X128786671Y-67586417D01*
X128785760Y-67584823D01*
X128784925Y-67583178D01*
X128784169Y-67581484D01*
X128783494Y-67579743D01*
X128782902Y-67577957D01*
X128782396Y-67576128D01*
X128781980Y-67574259D01*
X128781656Y-67572350D01*
X128781428Y-67570427D01*
X128781299Y-67568516D01*
X128781267Y-67566619D01*
X128781330Y-67564739D01*
X128781486Y-67562878D01*
X128781733Y-67561039D01*
X128782069Y-67559225D01*
X128782492Y-67557438D01*
X128783000Y-67555681D01*
X128783590Y-67553957D01*
X128784262Y-67552269D01*
X128785012Y-67550619D01*
X128785839Y-67549009D01*
X128786742Y-67547444D01*
X128787717Y-67545924D01*
X128788763Y-67544453D01*
X128789878Y-67543034D01*
X128791060Y-67541669D01*
X128792307Y-67540361D01*
X128793616Y-67539112D01*
X128794987Y-67537926D01*
X128796417Y-67536804D01*
X128797903Y-67535751D01*
X128799444Y-67534767D01*
X128801039Y-67533857D01*
X128802684Y-67533022D01*
X128804378Y-67532266D01*
X128806119Y-67531590D01*
X128807905Y-67530998D01*
X128809733Y-67530493D01*
X128811603Y-67530077D01*
X128813511Y-67529752D01*
X129035021Y-67497526D01*
X129042336Y-67496584D01*
X129049626Y-67495841D01*
X129056884Y-67495295D01*
X129064107Y-67494947D01*
X129071290Y-67494796D01*
X129078428Y-67494840D01*
G37*
G36*
X128439772Y-67252825D02*
G01*
X128448095Y-67253792D01*
X128454512Y-67254905D01*
X128460841Y-67256296D01*
X128467077Y-67257963D01*
X128473214Y-67259901D01*
X128479247Y-67262107D01*
X128485170Y-67264578D01*
X128490978Y-67267309D01*
X128496666Y-67270298D01*
X128502228Y-67273541D01*
X128507659Y-67277035D01*
X128512952Y-67280775D01*
X128518104Y-67284759D01*
X128523108Y-67288983D01*
X128527959Y-67293443D01*
X128532652Y-67298135D01*
X128537181Y-67303057D01*
X128543513Y-67302898D01*
X128549797Y-67302978D01*
X128556027Y-67303293D01*
X128562198Y-67303844D01*
X128568305Y-67304630D01*
X128574343Y-67305649D01*
X128580307Y-67306900D01*
X128586191Y-67308382D01*
X128591991Y-67310094D01*
X128597701Y-67312035D01*
X128603315Y-67314205D01*
X128608830Y-67316600D01*
X128614240Y-67319222D01*
X128619539Y-67322068D01*
X128624722Y-67325138D01*
X128629785Y-67328431D01*
X128632808Y-67330551D01*
X128635766Y-67332744D01*
X128638657Y-67335009D01*
X128641482Y-67337344D01*
X128644239Y-67339748D01*
X128646929Y-67342221D01*
X128649550Y-67344762D01*
X128652102Y-67347368D01*
X128654585Y-67350040D01*
X128656998Y-67352775D01*
X128659340Y-67355574D01*
X128661612Y-67358434D01*
X128663811Y-67361356D01*
X128665939Y-67364336D01*
X128667993Y-67367376D01*
X128669975Y-67370473D01*
X129010573Y-67322689D01*
X129022734Y-67321155D01*
X129034902Y-67319954D01*
X129047066Y-67319086D01*
X129059216Y-67318551D01*
X129071341Y-67318348D01*
X129083430Y-67318476D01*
X129095474Y-67318936D01*
X129107460Y-67319726D01*
X129119379Y-67320846D01*
X129131221Y-67322295D01*
X129142974Y-67324073D01*
X129154627Y-67326179D01*
X129166172Y-67328613D01*
X129177596Y-67331374D01*
X129188889Y-67334462D01*
X129200041Y-67337876D01*
X129232921Y-67349849D01*
X129264339Y-67364224D01*
X129294206Y-67380877D01*
X129322432Y-67399684D01*
X129348927Y-67420520D01*
X129373601Y-67443261D01*
X129396365Y-67467782D01*
X129417128Y-67493961D01*
X129435802Y-67521671D01*
X129452295Y-67550790D01*
X129466519Y-67581192D01*
X129478383Y-67612754D01*
X129487798Y-67645352D01*
X129494674Y-67678860D01*
X129498921Y-67713155D01*
X129500449Y-67748113D01*
X129500361Y-67755513D01*
X129500029Y-67762850D01*
X129499458Y-67770119D01*
X129498652Y-67777318D01*
X129497615Y-67784443D01*
X129496350Y-67791490D01*
X129494863Y-67798458D01*
X129493156Y-67805342D01*
X129491235Y-67812139D01*
X129489103Y-67818846D01*
X129486764Y-67825460D01*
X129484223Y-67831977D01*
X129481483Y-67838395D01*
X129478549Y-67844709D01*
X129475424Y-67850917D01*
X129472112Y-67857015D01*
X129487225Y-67860046D01*
X129501823Y-67864191D01*
X129515842Y-67869428D01*
X129529220Y-67875736D01*
X129535648Y-67879283D01*
X129541892Y-67883090D01*
X129547944Y-67887153D01*
X129553796Y-67891469D01*
X129559439Y-67896036D01*
X129564867Y-67900851D01*
X129570070Y-67905910D01*
X129575042Y-67911212D01*
X129579774Y-67916753D01*
X129584258Y-67922530D01*
X129588486Y-67928541D01*
X129592451Y-67934783D01*
X129596144Y-67941253D01*
X129599557Y-67947948D01*
X129602683Y-67954865D01*
X129605514Y-67962002D01*
X129608042Y-67969356D01*
X129610258Y-67976924D01*
X129612155Y-67984703D01*
X129613725Y-67992690D01*
X129614960Y-68000883D01*
X129615852Y-68009278D01*
X129616393Y-68017874D01*
X129616575Y-68026666D01*
X129616351Y-68035502D01*
X129615686Y-68044223D01*
X129614592Y-68052818D01*
X129613079Y-68061277D01*
X129611158Y-68069588D01*
X129608839Y-68077740D01*
X129606135Y-68085723D01*
X129603054Y-68093526D01*
X129599610Y-68101138D01*
X129595811Y-68108548D01*
X129591670Y-68115746D01*
X129587196Y-68122720D01*
X129582401Y-68129459D01*
X129577296Y-68135953D01*
X129571891Y-68142191D01*
X129566198Y-68148163D01*
X129560227Y-68153856D01*
X129553989Y-68159261D01*
X129547494Y-68164366D01*
X129540755Y-68169161D01*
X129533781Y-68173634D01*
X129526584Y-68177776D01*
X129519174Y-68181574D01*
X129511562Y-68185019D01*
X129503759Y-68188099D01*
X129495775Y-68190804D01*
X129487623Y-68193122D01*
X129479312Y-68195043D01*
X129470854Y-68196557D01*
X129462259Y-68197651D01*
X129453537Y-68198315D01*
X129444701Y-68198539D01*
X128882779Y-68198539D01*
X128880846Y-68198490D01*
X128878939Y-68198345D01*
X128877058Y-68198106D01*
X128875208Y-68197775D01*
X128873390Y-68197354D01*
X128871607Y-68196847D01*
X128869861Y-68196256D01*
X128868154Y-68195582D01*
X128866488Y-68194828D01*
X128864868Y-68193997D01*
X128863293Y-68193091D01*
X128861768Y-68192113D01*
X128860293Y-68191064D01*
X128858873Y-68189947D01*
X128857508Y-68188765D01*
X128856202Y-68187519D01*
X128854956Y-68186213D01*
X128853774Y-68184849D01*
X128852657Y-68183428D01*
X128851609Y-68181954D01*
X128850630Y-68180428D01*
X128849724Y-68178854D01*
X128848893Y-68177233D01*
X128848140Y-68175568D01*
X128847466Y-68173861D01*
X128846874Y-68172115D01*
X128846367Y-68170331D01*
X128845947Y-68168513D01*
X128845616Y-68166663D01*
X128845376Y-68164783D01*
X128845231Y-68162875D01*
X128845182Y-68160942D01*
X128845231Y-68159009D01*
X128845376Y-68157101D01*
X128845616Y-68155221D01*
X128845947Y-68153371D01*
X128846367Y-68151553D01*
X128846874Y-68149770D01*
X128847466Y-68148023D01*
X128848140Y-68146316D01*
X128848893Y-68144651D01*
X128849724Y-68143030D01*
X128850630Y-68141456D01*
X128851609Y-68139930D01*
X128852657Y-68138456D01*
X128853774Y-68137035D01*
X128854956Y-68135671D01*
X128856202Y-68134365D01*
X128857508Y-68133119D01*
X128858873Y-68131937D01*
X128860293Y-68130820D01*
X128861768Y-68129771D01*
X128863293Y-68128793D01*
X128864867Y-68127887D01*
X128866488Y-68127056D01*
X128868154Y-68126302D01*
X128869861Y-68125629D01*
X128871607Y-68125037D01*
X128873390Y-68124530D01*
X128875208Y-68124109D01*
X128877058Y-68123778D01*
X128878939Y-68123539D01*
X128880846Y-68123394D01*
X128882779Y-68123345D01*
X129444886Y-68123345D01*
X129449857Y-68123219D01*
X129454762Y-68122845D01*
X129459597Y-68122230D01*
X129464355Y-68121378D01*
X129469030Y-68120298D01*
X129473616Y-68118994D01*
X129478106Y-68117472D01*
X129482495Y-68115740D01*
X129486777Y-68113802D01*
X129490945Y-68111665D01*
X129494994Y-68109336D01*
X129498917Y-68106819D01*
X129502708Y-68104122D01*
X129506361Y-68101251D01*
X129509870Y-68098210D01*
X129513228Y-68095008D01*
X129516431Y-68091649D01*
X129519471Y-68088140D01*
X129522343Y-68084487D01*
X129525040Y-68080696D01*
X129527556Y-68076773D01*
X129529886Y-68072725D01*
X129532022Y-68068557D01*
X129533960Y-68064275D01*
X129535693Y-68059886D01*
X129537214Y-68055395D01*
X129538518Y-68050809D01*
X129539599Y-68046135D01*
X129540450Y-68041377D01*
X129541066Y-68036542D01*
X129541439Y-68031636D01*
X129541565Y-68026666D01*
X129541439Y-68021696D01*
X129541066Y-68016790D01*
X129540450Y-68011955D01*
X129539599Y-68007197D01*
X129538518Y-68002523D01*
X129537214Y-67997937D01*
X129535693Y-67993446D01*
X129533960Y-67989057D01*
X129532022Y-67984775D01*
X129529886Y-67980607D01*
X129527556Y-67976559D01*
X129525040Y-67972636D01*
X129522343Y-67968845D01*
X129519471Y-67965192D01*
X129516431Y-67961683D01*
X129513228Y-67958324D01*
X129509870Y-67955122D01*
X129506361Y-67952081D01*
X129502708Y-67949210D01*
X129498917Y-67946513D01*
X129494994Y-67943996D01*
X129490945Y-67941667D01*
X129486777Y-67939530D01*
X129482495Y-67937592D01*
X129478106Y-67935860D01*
X129473616Y-67934338D01*
X129469030Y-67933034D01*
X129464355Y-67931954D01*
X129459597Y-67931102D01*
X129454762Y-67930487D01*
X129449857Y-67930113D01*
X129444886Y-67929987D01*
X129406734Y-67929987D01*
X129399800Y-67934722D01*
X129392687Y-67939198D01*
X129385400Y-67943410D01*
X129377945Y-67947351D01*
X129370330Y-67951013D01*
X129362561Y-67954391D01*
X129354645Y-67957479D01*
X129346587Y-67960269D01*
X129338395Y-67962755D01*
X129330075Y-67964931D01*
X129321633Y-67966790D01*
X129313076Y-67968325D01*
X129304411Y-67969531D01*
X129295643Y-67970400D01*
X129286781Y-67970927D01*
X129277829Y-67971104D01*
X128104719Y-67971104D01*
X128090829Y-67970566D01*
X128084028Y-67969894D01*
X128077334Y-67968954D01*
X128070756Y-67967746D01*
X128064303Y-67966270D01*
X128057983Y-67964527D01*
X128051805Y-67962517D01*
X128045777Y-67960241D01*
X128039909Y-67957698D01*
X128034208Y-67954889D01*
X128028684Y-67951814D01*
X128023345Y-67948474D01*
X128018200Y-67944868D01*
X128013258Y-67940998D01*
X128008527Y-67936863D01*
X128004015Y-67932464D01*
X127999732Y-67927801D01*
X127995685Y-67922874D01*
X127991885Y-67917684D01*
X127988339Y-67912231D01*
X127985056Y-67906516D01*
X127982044Y-67900537D01*
X127979313Y-67894297D01*
X127976871Y-67887795D01*
X127974726Y-67881031D01*
X127972887Y-67874007D01*
X127971364Y-67866721D01*
X127970164Y-67859175D01*
X127969296Y-67851368D01*
X127968769Y-67843302D01*
X127968595Y-67835161D01*
X128043786Y-67835161D01*
X128043865Y-67838285D01*
X128044102Y-67841369D01*
X128044491Y-67844410D01*
X128045029Y-67847404D01*
X128045712Y-67850346D01*
X128046536Y-67853232D01*
X128047498Y-67856060D01*
X128048592Y-67858824D01*
X128049816Y-67861521D01*
X128051166Y-67864148D01*
X128052637Y-67866699D01*
X128054226Y-67869172D01*
X128055929Y-67871562D01*
X128057742Y-67873866D01*
X128059660Y-67876079D01*
X128061681Y-67878199D01*
X128063800Y-67880219D01*
X128066014Y-67882138D01*
X128068317Y-67883951D01*
X128070708Y-67885654D01*
X128073181Y-67887242D01*
X128075732Y-67888714D01*
X128078359Y-67890063D01*
X128081056Y-67891288D01*
X128083820Y-67892382D01*
X128086648Y-67893344D01*
X128089534Y-67894168D01*
X128092476Y-67894851D01*
X128095470Y-67895389D01*
X128098510Y-67895778D01*
X128101595Y-67896015D01*
X128104719Y-67896094D01*
X128314560Y-67896094D01*
X128317542Y-67886189D01*
X128321194Y-67876566D01*
X128325491Y-67867256D01*
X128330407Y-67858289D01*
X128335918Y-67849695D01*
X128341998Y-67841504D01*
X128348624Y-67833748D01*
X128355769Y-67826456D01*
X128363409Y-67819659D01*
X128371519Y-67813387D01*
X128380074Y-67807671D01*
X128389049Y-67802541D01*
X128398418Y-67798027D01*
X128408158Y-67794160D01*
X128418243Y-67790970D01*
X128428648Y-67788488D01*
X128524031Y-67769412D01*
X128525939Y-67769080D01*
X128527840Y-67768847D01*
X128529733Y-67768712D01*
X128531615Y-67768672D01*
X128533482Y-67768725D01*
X128535332Y-67768871D01*
X128537162Y-67769106D01*
X128538969Y-67769429D01*
X128540751Y-67769839D01*
X128542504Y-67770333D01*
X128544226Y-67770910D01*
X128545915Y-67771567D01*
X128547567Y-67772303D01*
X128549179Y-67773117D01*
X128550750Y-67774006D01*
X128552275Y-67774968D01*
X128553753Y-67776002D01*
X128555180Y-67777106D01*
X128556553Y-67778277D01*
X128557871Y-67779515D01*
X128559130Y-67780817D01*
X128560327Y-67782182D01*
X128561460Y-67783607D01*
X128562525Y-67785091D01*
X128563521Y-67786632D01*
X128564443Y-67788228D01*
X128565290Y-67789877D01*
X128566059Y-67791578D01*
X128566747Y-67793329D01*
X128567351Y-67795127D01*
X128567868Y-67796971D01*
X128568296Y-67798860D01*
X128568627Y-67800768D01*
X128568860Y-67802670D01*
X128568996Y-67804563D01*
X128569036Y-67806444D01*
X128568982Y-67808311D01*
X128568837Y-67810161D01*
X128568602Y-67811991D01*
X128568278Y-67813798D01*
X128567869Y-67815580D01*
X128567374Y-67817333D01*
X128566798Y-67819056D01*
X128566140Y-67820744D01*
X128565404Y-67822396D01*
X128564590Y-67824009D01*
X128563702Y-67825579D01*
X128562739Y-67827104D01*
X128561705Y-67828582D01*
X128560602Y-67830009D01*
X128559430Y-67831383D01*
X128558192Y-67832700D01*
X128556890Y-67833959D01*
X128555526Y-67835156D01*
X128554100Y-67836289D01*
X128552616Y-67837354D01*
X128551076Y-67838350D01*
X128549479Y-67839272D01*
X128547830Y-67840120D01*
X128546129Y-67840888D01*
X128544379Y-67841576D01*
X128542580Y-67842180D01*
X128540736Y-67842697D01*
X128538847Y-67843125D01*
X128443465Y-67862201D01*
X128439650Y-67863066D01*
X128435919Y-67864128D01*
X128432276Y-67865382D01*
X128428727Y-67866820D01*
X128425276Y-67868436D01*
X128421929Y-67870223D01*
X128418692Y-67872175D01*
X128415568Y-67874286D01*
X128412564Y-67876549D01*
X128409685Y-67878957D01*
X128406935Y-67881504D01*
X128404320Y-67884183D01*
X128401845Y-67886988D01*
X128399515Y-67889913D01*
X128397335Y-67892950D01*
X128395311Y-67896094D01*
X128968160Y-67896094D01*
X128971175Y-67886189D01*
X128974856Y-67876566D01*
X128979177Y-67867256D01*
X128984114Y-67858289D01*
X128989643Y-67849694D01*
X128995739Y-67841504D01*
X129002376Y-67833748D01*
X129009531Y-67826456D01*
X129017179Y-67819659D01*
X129025295Y-67813387D01*
X129033854Y-67807671D01*
X129042831Y-67802541D01*
X129052203Y-67798027D01*
X129061943Y-67794160D01*
X129072029Y-67790970D01*
X129082434Y-67788488D01*
X129177816Y-67769412D01*
X129179724Y-67769080D01*
X129181626Y-67768847D01*
X129183519Y-67768712D01*
X129185400Y-67768672D01*
X129187267Y-67768725D01*
X129189117Y-67768870D01*
X129190947Y-67769106D01*
X129192754Y-67769429D01*
X129194536Y-67769839D01*
X129196290Y-67770333D01*
X129198012Y-67770909D01*
X129199700Y-67771567D01*
X129201352Y-67772303D01*
X129202965Y-67773117D01*
X129204535Y-67774006D01*
X129206061Y-67774968D01*
X129207538Y-67776002D01*
X129208965Y-67777106D01*
X129210339Y-67778277D01*
X129211657Y-67779515D01*
X129212915Y-67780817D01*
X129214112Y-67782182D01*
X129215245Y-67783607D01*
X129216311Y-67785091D01*
X129217306Y-67786632D01*
X129218229Y-67788228D01*
X129219076Y-67789877D01*
X129219845Y-67791578D01*
X129220533Y-67793329D01*
X129221136Y-67795127D01*
X129221653Y-67796971D01*
X129222081Y-67798860D01*
X129222413Y-67800768D01*
X129222646Y-67802670D01*
X129222781Y-67804563D01*
X129222821Y-67806444D01*
X129222768Y-67808311D01*
X129222622Y-67810161D01*
X129222387Y-67811991D01*
X129222064Y-67813798D01*
X129221654Y-67815580D01*
X129221160Y-67817333D01*
X129220583Y-67819056D01*
X129219926Y-67820744D01*
X129219189Y-67822396D01*
X129218376Y-67824008D01*
X129217487Y-67825579D01*
X129216525Y-67827104D01*
X129215491Y-67828582D01*
X129214387Y-67830009D01*
X129213216Y-67831382D01*
X129211978Y-67832700D01*
X129210676Y-67833959D01*
X129209311Y-67835156D01*
X129207886Y-67836289D01*
X129206402Y-67837354D01*
X129204861Y-67838350D01*
X129203265Y-67839272D01*
X129201616Y-67840120D01*
X129199915Y-67840888D01*
X129198164Y-67841576D01*
X129196366Y-67842180D01*
X129194521Y-67842697D01*
X129192633Y-67843125D01*
X129097251Y-67862201D01*
X129093436Y-67863066D01*
X129089704Y-67864128D01*
X129086061Y-67865382D01*
X129082512Y-67866820D01*
X129079061Y-67868436D01*
X129075715Y-67870223D01*
X129072477Y-67872175D01*
X129069354Y-67874286D01*
X129066349Y-67876549D01*
X129063470Y-67878957D01*
X129060720Y-67881504D01*
X129058105Y-67884183D01*
X129055630Y-67886988D01*
X129053300Y-67889913D01*
X129051120Y-67892950D01*
X129049096Y-67896094D01*
X129277829Y-67896094D01*
X129285406Y-67895902D01*
X129292885Y-67895330D01*
X129300258Y-67894388D01*
X129307515Y-67893086D01*
X129314647Y-67891434D01*
X129321643Y-67889439D01*
X129328495Y-67887113D01*
X129335194Y-67884464D01*
X129341730Y-67881501D01*
X129348093Y-67878235D01*
X129354274Y-67874674D01*
X129360264Y-67870827D01*
X129366053Y-67866705D01*
X129371633Y-67862317D01*
X129376993Y-67857672D01*
X129382124Y-67852779D01*
X129387017Y-67847647D01*
X129391662Y-67842287D01*
X129396051Y-67836708D01*
X129400173Y-67830919D01*
X129404019Y-67824929D01*
X129407580Y-67818747D01*
X129410847Y-67812384D01*
X129413809Y-67805849D01*
X129416458Y-67799150D01*
X129418785Y-67792298D01*
X129420779Y-67785301D01*
X129422432Y-67778170D01*
X129423734Y-67770913D01*
X129424675Y-67763540D01*
X129425247Y-67756060D01*
X129425440Y-67748483D01*
X129425098Y-67733990D01*
X129424185Y-67719621D01*
X129422708Y-67705388D01*
X129420678Y-67691304D01*
X129418104Y-67677382D01*
X129414995Y-67663635D01*
X129411361Y-67650075D01*
X129407211Y-67636716D01*
X129402555Y-67623570D01*
X129397401Y-67610650D01*
X129391759Y-67597969D01*
X129385640Y-67585540D01*
X129379051Y-67573375D01*
X129372003Y-67561487D01*
X129364504Y-67549890D01*
X129356565Y-67538596D01*
X129348195Y-67527617D01*
X129339402Y-67516967D01*
X129330197Y-67506659D01*
X129320589Y-67496705D01*
X129310587Y-67487118D01*
X129300200Y-67477910D01*
X129289439Y-67469096D01*
X129278312Y-67460687D01*
X129266829Y-67452696D01*
X129254998Y-67445137D01*
X129242831Y-67438021D01*
X129230335Y-67431362D01*
X129217521Y-67425173D01*
X129204398Y-67419467D01*
X129190974Y-67414255D01*
X129177260Y-67409552D01*
X129168101Y-67406767D01*
X129158823Y-67404249D01*
X129149436Y-67401996D01*
X129139947Y-67400011D01*
X129130365Y-67398294D01*
X129120697Y-67396845D01*
X129110953Y-67395667D01*
X129101140Y-67394758D01*
X129091266Y-67394122D01*
X129081339Y-67393757D01*
X129071368Y-67393665D01*
X129061361Y-67393847D01*
X129051325Y-67394303D01*
X129041269Y-67395035D01*
X129031201Y-67396043D01*
X129021130Y-67397328D01*
X128692015Y-67443445D01*
X128692206Y-67451754D01*
X128691953Y-67460077D01*
X128691269Y-67468405D01*
X128690166Y-67476731D01*
X128688655Y-67485045D01*
X128686750Y-67493341D01*
X128684463Y-67501609D01*
X128681805Y-67509842D01*
X128678789Y-67518032D01*
X128675427Y-67526170D01*
X128671732Y-67534249D01*
X128667715Y-67542260D01*
X128663389Y-67550194D01*
X128658765Y-67558045D01*
X128653857Y-67565803D01*
X128648676Y-67573461D01*
X128643276Y-67580887D01*
X128637781Y-67587859D01*
X128632205Y-67594392D01*
X128626562Y-67600501D01*
X128620865Y-67606198D01*
X128615127Y-67611500D01*
X128609363Y-67616419D01*
X128603586Y-67620970D01*
X128597810Y-67625168D01*
X128592049Y-67629027D01*
X128586315Y-67632560D01*
X128580624Y-67635784D01*
X128574988Y-67638710D01*
X128569421Y-67641355D01*
X128563937Y-67643731D01*
X128558549Y-67645855D01*
X128548118Y-67649397D01*
X128538236Y-67652097D01*
X128529014Y-67654068D01*
X128520561Y-67655425D01*
X128512986Y-67656281D01*
X128506397Y-67656751D01*
X128496620Y-67656990D01*
X128494806Y-67656946D01*
X128493011Y-67656815D01*
X128491239Y-67656599D01*
X128489490Y-67656299D01*
X128487767Y-67655918D01*
X128486073Y-67655458D01*
X128484409Y-67654921D01*
X128482779Y-67654308D01*
X128481183Y-67653621D01*
X128479624Y-67652863D01*
X128478105Y-67652035D01*
X128476627Y-67651140D01*
X128475193Y-67650179D01*
X128473806Y-67649154D01*
X128472466Y-67648067D01*
X128471177Y-67646920D01*
X128469940Y-67645714D01*
X128468759Y-67644453D01*
X128467634Y-67643138D01*
X128466569Y-67641770D01*
X128465565Y-67640352D01*
X128464625Y-67638886D01*
X128463750Y-67637373D01*
X128462944Y-67635816D01*
X128462208Y-67634216D01*
X128461544Y-67632575D01*
X128460955Y-67630896D01*
X128460443Y-67629180D01*
X128460010Y-67627429D01*
X128459659Y-67625645D01*
X128459390Y-67623830D01*
X128459208Y-67621986D01*
X128459118Y-67620050D01*
X128459127Y-67618132D01*
X128459231Y-67616236D01*
X128459428Y-67614364D01*
X128459716Y-67612518D01*
X128460093Y-67610701D01*
X128460557Y-67608915D01*
X128461106Y-67607163D01*
X128461737Y-67605448D01*
X128462449Y-67603771D01*
X128463239Y-67602136D01*
X128464104Y-67600544D01*
X128465044Y-67598999D01*
X128466055Y-67597503D01*
X128467135Y-67596059D01*
X128468283Y-67594668D01*
X128469496Y-67593333D01*
X128470772Y-67592058D01*
X128472108Y-67590844D01*
X128473504Y-67589694D01*
X128474955Y-67588610D01*
X128476461Y-67587596D01*
X128478019Y-67586653D01*
X128479627Y-67585783D01*
X128481283Y-67584991D01*
X128482984Y-67584277D01*
X128484729Y-67583645D01*
X128486514Y-67583097D01*
X128488339Y-67582636D01*
X128490201Y-67582263D01*
X128492098Y-67581982D01*
X128494027Y-67581796D01*
X128500594Y-67581133D01*
X128507157Y-67580056D01*
X128513699Y-67578575D01*
X128520202Y-67576700D01*
X128526650Y-67574441D01*
X128533026Y-67571811D01*
X128539312Y-67568818D01*
X128545492Y-67565474D01*
X128551548Y-67561790D01*
X128557463Y-67557775D01*
X128563220Y-67553440D01*
X128568802Y-67548797D01*
X128574192Y-67543855D01*
X128579373Y-67538625D01*
X128584328Y-67533118D01*
X128589039Y-67527344D01*
X128592962Y-67522014D01*
X128596604Y-67516586D01*
X128599961Y-67511075D01*
X128603028Y-67505490D01*
X128605802Y-67499844D01*
X128608280Y-67494150D01*
X128610456Y-67488419D01*
X128612329Y-67482663D01*
X128613893Y-67476894D01*
X128615145Y-67471124D01*
X128616082Y-67465364D01*
X128616699Y-67459628D01*
X128616992Y-67453926D01*
X128616958Y-67448271D01*
X128616594Y-67442674D01*
X128615894Y-67437148D01*
X128615423Y-67434449D01*
X128614836Y-67431641D01*
X128614120Y-67428741D01*
X128613264Y-67425766D01*
X128612254Y-67422734D01*
X128611079Y-67419662D01*
X128609727Y-67416566D01*
X128608185Y-67413465D01*
X128606441Y-67410373D01*
X128604483Y-67407310D01*
X128602299Y-67404292D01*
X128599876Y-67401336D01*
X128597203Y-67398460D01*
X128595769Y-67397056D01*
X128594267Y-67395679D01*
X128592697Y-67394330D01*
X128591056Y-67393012D01*
X128589343Y-67391726D01*
X128587557Y-67390476D01*
X128583714Y-67388059D01*
X128579727Y-67385912D01*
X128575605Y-67384031D01*
X128571359Y-67382415D01*
X128566998Y-67381059D01*
X128562533Y-67379962D01*
X128557973Y-67379119D01*
X128553328Y-67378530D01*
X128548609Y-67378189D01*
X128543824Y-67378096D01*
X128538985Y-67378247D01*
X128534100Y-67378638D01*
X128529180Y-67379268D01*
X128524235Y-67380133D01*
X128519274Y-67381231D01*
X128514307Y-67382558D01*
X128509345Y-67384112D01*
X128504397Y-67385890D01*
X128499474Y-67387889D01*
X128494584Y-67390107D01*
X128489738Y-67392539D01*
X128484947Y-67395185D01*
X128480218Y-67398040D01*
X128475564Y-67401102D01*
X128470993Y-67404368D01*
X128466516Y-67407835D01*
X128462142Y-67411501D01*
X128457881Y-67415361D01*
X128453743Y-67419415D01*
X128449739Y-67423658D01*
X128445877Y-67428089D01*
X128442169Y-67432703D01*
X128437892Y-67438567D01*
X128433953Y-67444548D01*
X128430359Y-67450628D01*
X128427112Y-67456792D01*
X128424218Y-67463020D01*
X128421681Y-67469296D01*
X128419506Y-67475603D01*
X128417698Y-67481922D01*
X128416261Y-67488237D01*
X128415199Y-67494531D01*
X128414518Y-67500785D01*
X128414222Y-67506983D01*
X128414316Y-67513107D01*
X128414804Y-67519140D01*
X128415690Y-67525065D01*
X128416980Y-67530863D01*
X128417433Y-67532757D01*
X128417786Y-67534649D01*
X128418040Y-67536538D01*
X128418196Y-67538420D01*
X128418258Y-67540294D01*
X128418226Y-67542154D01*
X128418103Y-67544000D01*
X128417889Y-67545828D01*
X128417587Y-67547635D01*
X128417198Y-67549418D01*
X128416724Y-67551174D01*
X128416166Y-67552901D01*
X128415527Y-67554595D01*
X128414808Y-67556254D01*
X128414011Y-67557875D01*
X128413137Y-67559455D01*
X128412189Y-67560991D01*
X128411167Y-67562480D01*
X128410073Y-67563919D01*
X128408910Y-67565306D01*
X128407679Y-67566637D01*
X128406381Y-67567910D01*
X128405019Y-67569122D01*
X128403593Y-67570269D01*
X128402107Y-67571350D01*
X128400560Y-67572361D01*
X128398956Y-67573298D01*
X128397295Y-67574161D01*
X128395580Y-67574944D01*
X128393813Y-67575646D01*
X128391994Y-67576264D01*
X128390125Y-67576795D01*
X128388232Y-67577231D01*
X128386339Y-67577568D01*
X128384451Y-67577807D01*
X128382568Y-67577951D01*
X128380695Y-67578000D01*
X128378834Y-67577957D01*
X128376989Y-67577823D01*
X128375161Y-67577600D01*
X128373354Y-67577289D01*
X128371571Y-67576893D01*
X128369815Y-67576413D01*
X128368088Y-67575851D01*
X128366393Y-67575208D01*
X128364734Y-67574486D01*
X128363113Y-67573688D01*
X128361534Y-67572813D01*
X128359998Y-67571865D01*
X128358509Y-67570845D01*
X128357069Y-67569754D01*
X128355682Y-67568595D01*
X128354351Y-67567368D01*
X128353078Y-67566076D01*
X128351867Y-67564721D01*
X128350719Y-67563304D01*
X128349639Y-67561826D01*
X128348628Y-67560290D01*
X128347690Y-67558697D01*
X128346828Y-67557049D01*
X128346044Y-67555348D01*
X128345342Y-67553595D01*
X128344724Y-67551792D01*
X128344193Y-67549940D01*
X128342900Y-67544775D01*
X128341794Y-67539562D01*
X128340876Y-67534306D01*
X128340142Y-67529011D01*
X128339590Y-67523682D01*
X128339219Y-67518321D01*
X128339025Y-67512935D01*
X128339008Y-67507527D01*
X128295669Y-67517714D01*
X128282352Y-67521119D01*
X128269221Y-67525079D01*
X128256293Y-67529580D01*
X128243585Y-67534614D01*
X128231113Y-67540168D01*
X128218895Y-67546233D01*
X128206947Y-67552797D01*
X128195286Y-67559849D01*
X128183929Y-67567378D01*
X128172892Y-67575374D01*
X128162193Y-67583826D01*
X128151849Y-67592723D01*
X128141875Y-67602054D01*
X128132290Y-67611808D01*
X128123109Y-67621975D01*
X128114350Y-67632543D01*
X128106049Y-67643476D01*
X128098237Y-67654733D01*
X128090919Y-67666293D01*
X128084103Y-67678136D01*
X128077795Y-67690243D01*
X128072001Y-67702594D01*
X128066728Y-67715169D01*
X128061982Y-67727948D01*
X128057771Y-67740912D01*
X128054099Y-67754041D01*
X128050975Y-67767314D01*
X128048404Y-67780712D01*
X128046393Y-67794216D01*
X128044949Y-67807805D01*
X128044077Y-67821460D01*
X128043786Y-67835161D01*
X127968595Y-67835161D01*
X127968591Y-67834975D01*
X127968952Y-67818087D01*
X127970029Y-67801262D01*
X127971814Y-67784523D01*
X127974298Y-67767895D01*
X127977472Y-67751402D01*
X127981327Y-67735067D01*
X127985855Y-67718915D01*
X127991048Y-67702968D01*
X127996895Y-67687252D01*
X128003390Y-67671789D01*
X128010523Y-67656605D01*
X128018285Y-67641722D01*
X128026668Y-67627165D01*
X128035662Y-67612957D01*
X128045261Y-67599122D01*
X128055454Y-67585685D01*
X128065187Y-67573903D01*
X128075348Y-67562527D01*
X128085920Y-67551565D01*
X128096888Y-67541027D01*
X128108236Y-67530923D01*
X128119947Y-67521263D01*
X128132007Y-67512057D01*
X128144400Y-67503314D01*
X128157109Y-67495044D01*
X128170120Y-67487257D01*
X128183416Y-67479963D01*
X128196982Y-67473171D01*
X128210801Y-67466891D01*
X128224859Y-67461134D01*
X128239140Y-67455908D01*
X128253627Y-67451224D01*
X128253670Y-67446778D01*
X128253803Y-67442331D01*
X128254027Y-67437879D01*
X128254344Y-67433421D01*
X128254411Y-67432703D01*
X128330118Y-67432703D01*
X128358640Y-67426035D01*
X128361148Y-67420984D01*
X128363808Y-67415973D01*
X128366616Y-67411011D01*
X128369567Y-67406102D01*
X128372657Y-67401255D01*
X128375881Y-67396474D01*
X128379236Y-67391768D01*
X128382717Y-67387142D01*
X128386100Y-67382849D01*
X128389580Y-67378652D01*
X128393154Y-67374554D01*
X128396819Y-67370554D01*
X128400571Y-67366654D01*
X128404409Y-67362855D01*
X128408329Y-67359158D01*
X128412327Y-67355564D01*
X128416401Y-67352074D01*
X128420549Y-67348689D01*
X128424766Y-67345411D01*
X128429051Y-67342240D01*
X128433399Y-67339178D01*
X128437809Y-67336225D01*
X128442276Y-67333383D01*
X128446799Y-67330653D01*
X128445618Y-67330254D01*
X128444435Y-67329889D01*
X128443247Y-67329559D01*
X128442053Y-67329264D01*
X128440850Y-67329004D01*
X128439637Y-67328778D01*
X128438410Y-67328587D01*
X128437168Y-67328431D01*
X128432639Y-67327904D01*
X128428120Y-67327676D01*
X128423618Y-67327738D01*
X128419139Y-67328086D01*
X128414691Y-67328712D01*
X128410280Y-67329610D01*
X128405913Y-67330774D01*
X128401597Y-67332198D01*
X128397338Y-67333876D01*
X128393143Y-67335801D01*
X128389020Y-67337966D01*
X128384974Y-67340366D01*
X128381013Y-67342994D01*
X128377144Y-67345844D01*
X128373372Y-67348909D01*
X128369706Y-67352184D01*
X128366151Y-67355661D01*
X128362715Y-67359335D01*
X128359405Y-67363200D01*
X128356226Y-67367248D01*
X128353187Y-67371475D01*
X128350293Y-67375872D01*
X128347551Y-67380435D01*
X128344969Y-67385156D01*
X128342553Y-67390030D01*
X128340310Y-67395051D01*
X128338246Y-67400211D01*
X128336368Y-67405504D01*
X128334684Y-67410925D01*
X128333200Y-67416467D01*
X128331922Y-67422123D01*
X128330858Y-67427887D01*
X128330586Y-67429109D01*
X128330461Y-67429704D01*
X128330349Y-67430295D01*
X128330254Y-67430886D01*
X128330181Y-67431482D01*
X128330154Y-67431782D01*
X128330134Y-67432086D01*
X128330122Y-67432392D01*
X128330118Y-67432703D01*
X128254411Y-67432703D01*
X128254757Y-67428954D01*
X128255267Y-67424476D01*
X128255878Y-67419985D01*
X128256590Y-67415479D01*
X128258353Y-67405983D01*
X128260511Y-67396672D01*
X128263050Y-67387557D01*
X128265958Y-67378647D01*
X128269224Y-67369952D01*
X128272835Y-67361483D01*
X128276778Y-67353249D01*
X128281043Y-67345261D01*
X128285617Y-67337530D01*
X128290487Y-67330065D01*
X128295641Y-67322876D01*
X128301068Y-67315974D01*
X128306755Y-67309369D01*
X128312690Y-67303070D01*
X128318861Y-67297089D01*
X128325256Y-67291435D01*
X128331862Y-67286119D01*
X128338668Y-67281150D01*
X128345661Y-67276539D01*
X128352829Y-67272297D01*
X128360161Y-67268432D01*
X128367643Y-67264956D01*
X128375264Y-67261878D01*
X128383012Y-67259209D01*
X128390874Y-67256959D01*
X128398839Y-67255138D01*
X128406893Y-67253756D01*
X128415026Y-67252824D01*
X128423225Y-67252351D01*
X128431477Y-67252348D01*
X128439772Y-67252825D01*
G37*
D16*
%TO.C,C2*%
X132570000Y-74635580D02*
X132570000Y-74354420D01*
X133590000Y-74635580D02*
X133590000Y-74354420D01*
D17*
%TO.C,U1*%
X127380000Y-73220000D02*
X127890000Y-73220000D01*
X127380000Y-75720000D02*
X127890000Y-75720000D01*
X129870000Y-73220000D02*
X130380000Y-73220000D01*
X130380000Y-75720000D02*
X129870000Y-75720000D01*
D12*
X126980000Y-73670000D02*
G75*
G02*
X126780000Y-73670000I-100000J0D01*
G01*
X126780000Y-73670000D02*
G75*
G02*
X126980000Y-73670000I100000J0D01*
G01*
D16*
%TO.C,C3*%
X132570000Y-77454420D02*
X132570000Y-77735580D01*
X133590000Y-77454420D02*
X133590000Y-77735580D01*
%TO.C,C1*%
X124170000Y-74304420D02*
X124170000Y-74585580D01*
X125190000Y-74304420D02*
X125190000Y-74585580D01*
%TO.C,C2*%
X124160000Y-87425580D02*
X124160000Y-87144420D01*
X125180000Y-87425580D02*
X125180000Y-87144420D01*
%TO.C,R2*%
X133637224Y-87437500D02*
X133127776Y-87437500D01*
X133637224Y-88482500D02*
X133127776Y-88482500D01*
D17*
%TO.C,U1*%
X127920000Y-85010000D02*
X127920000Y-85520000D01*
X127920000Y-88010000D02*
X127920000Y-87500000D01*
X130420000Y-85010000D02*
X130420000Y-85520000D01*
X130420000Y-87500000D02*
X130420000Y-88010000D01*
D12*
X130070000Y-84510000D02*
G75*
G02*
X129870000Y-84510000I-100000J0D01*
G01*
X129870000Y-84510000D02*
G75*
G02*
X130070000Y-84510000I100000J0D01*
G01*
D10*
%TO.C,IMU_Conn1*%
X124170000Y-90010000D02*
X124170000Y-92010000D01*
X134170000Y-90010000D02*
X134170000Y-92010000D01*
D16*
%TO.C,C3*%
X125810580Y-84000000D02*
X125529420Y-84000000D01*
X125810580Y-85020000D02*
X125529420Y-85020000D01*
%TO.C,C1*%
X125660000Y-87425580D02*
X125660000Y-87144420D01*
X126680000Y-87425580D02*
X126680000Y-87144420D01*
%TO.C,R1*%
X133624724Y-85887500D02*
X133115276Y-85887500D01*
X133624724Y-86932500D02*
X133115276Y-86932500D01*
%TO.C,D1*%
X137892500Y-64845000D02*
X135607500Y-64845000D01*
X135607500Y-66315000D02*
X137892500Y-66315000D01*
X135607500Y-64845000D02*
X135607500Y-66315000D01*
%TO.C,C3*%
X129313767Y-66090000D02*
X129021233Y-66090000D01*
X129313767Y-65070000D02*
X129021233Y-65070000D01*
%TO.C,R2*%
X123912776Y-64152500D02*
X124422224Y-64152500D01*
X123912776Y-63107500D02*
X124422224Y-63107500D01*
%TO.C,C1*%
X133190000Y-64626267D02*
X133190000Y-64333733D01*
X132170000Y-64626267D02*
X132170000Y-64333733D01*
%TO.C,C2*%
X124326267Y-62440000D02*
X124033733Y-62440000D01*
X124326267Y-61420000D02*
X124033733Y-61420000D01*
D10*
%TO.C,IMU_Conn1*%
X133680000Y-59030000D02*
X133680000Y-57030000D01*
X123680000Y-59030000D02*
X123680000Y-57030000D01*
D16*
%TO.C,C6*%
X135339420Y-58440000D02*
X135620580Y-58440000D01*
X135339420Y-57420000D02*
X135620580Y-57420000D01*
%TO.C,U1*%
X130830000Y-64280000D02*
X130830000Y-63755000D01*
X130830000Y-64280000D02*
X130305000Y-64280000D01*
X130830000Y-59980000D02*
X130830000Y-60505000D01*
X130830000Y-59980000D02*
X130305000Y-59980000D01*
X126995000Y-64280000D02*
X126770000Y-64280000D01*
X126530000Y-63755000D02*
X126530000Y-63980000D01*
X126530000Y-59980000D02*
X127055000Y-59980000D01*
X126530000Y-59980000D02*
X126530000Y-60505000D01*
X126530000Y-64280000D02*
X126200000Y-64520000D01*
X126200000Y-64040000D01*
X126530000Y-64280000D01*
G36*
X126530000Y-64280000D02*
G01*
X126200000Y-64520000D01*
X126200000Y-64040000D01*
X126530000Y-64280000D01*
G37*
%TO.C,C5*%
X137245580Y-64490000D02*
X136964420Y-64490000D01*
X137245580Y-63470000D02*
X136964420Y-63470000D01*
%TO.C,C4*%
X139233733Y-62440000D02*
X139526267Y-62440000D01*
X139233733Y-61420000D02*
X139526267Y-61420000D01*
%TO.C,R3*%
X123912776Y-60652500D02*
X124422224Y-60652500D01*
X123912776Y-59607500D02*
X124422224Y-59607500D01*
%TO.C,R1*%
X140002500Y-64425276D02*
X140002500Y-64934724D01*
X138957500Y-64425276D02*
X138957500Y-64934724D01*
%TO.C,U2*%
X137240000Y-60930000D02*
X137240000Y-61730000D01*
X137240000Y-60930000D02*
X137240000Y-60130000D01*
X134120000Y-60930000D02*
X134120000Y-61730000D01*
X134120000Y-60930000D02*
X134120000Y-60130000D01*
X137520000Y-59870000D02*
X137190000Y-59630000D01*
X137520000Y-59390000D01*
X137520000Y-59870000D01*
G36*
X137520000Y-59870000D02*
G01*
X137190000Y-59630000D01*
X137520000Y-59390000D01*
X137520000Y-59870000D01*
G37*
%TD*%
M02*
