%TF.GenerationSoftware,KiCad,Pcbnew,8.0.8*%
%TF.CreationDate,2025-04-24T20:50:18+02:00*%
%TF.ProjectId,IMU_PCBs,494d555f-5043-4427-932e-6b696361645f,rev?*%
%TF.SameCoordinates,Original*%
%TF.FileFunction,Drillmap*%
%TF.FilePolarity,Positive*%
%FSLAX45Y45*%
G04 Gerber Fmt 4.5, Leading zero omitted, Abs format (unit mm)*
G04 Created by KiCad (PCBNEW 8.0.8) date 2025-04-24 20:50:18*
%MOMM*%
%LPD*%
G01*
G04 APERTURE LIST*
%ADD10C,0.050000*%
%ADD11C,0.200000*%
%ADD12C,0.100000*%
%ADD13C,0.210000*%
G04 APERTURE END LIST*
D10*
X12677000Y-8251000D02*
X11517000Y-8251000D01*
X14317000Y-8251000D02*
X13143000Y-8251000D01*
X13143000Y-7997000D02*
X13438000Y-7997000D01*
X12677000Y-7997000D02*
X12338000Y-7997000D01*
X12338000Y-7997000D02*
X12338000Y-6897000D01*
X13438000Y-6897000D02*
X13438000Y-7997000D01*
X13115000Y-6897000D02*
X13438000Y-6897000D01*
X12649000Y-6897000D02*
X12338000Y-6897000D01*
X11468000Y-6643000D02*
X12649000Y-6643000D01*
X13115000Y-6643000D02*
X14268000Y-6643000D01*
X14667000Y-9251000D02*
X14667000Y-8601000D01*
X11167000Y-9251000D02*
X11167000Y-8601000D01*
X14317000Y-8251000D02*
G75*
G02*
X14667000Y-8601000I0J-350000D01*
G01*
X11867000Y-9251000D02*
G75*
G02*
X11167000Y-9251000I-350000J0D01*
G01*
X14667000Y-9251000D02*
G75*
G02*
X13967000Y-9251000I-350000J0D01*
G01*
X11167000Y-8601000D02*
G75*
G02*
X11517000Y-8251000I350000J0D01*
G01*
X13967000Y-9251000D02*
X11867000Y-9251000D01*
X11118000Y-5643000D02*
X11118000Y-6293000D01*
X11468000Y-6643000D02*
G75*
G02*
X11118000Y-6293000I0J350000D01*
G01*
X14618000Y-5643000D02*
X14618000Y-6293000D01*
X13918000Y-5643000D02*
G75*
G02*
X14618000Y-5643000I350000J0D01*
G01*
X11818000Y-5643000D02*
X13918000Y-5643000D01*
X14618000Y-6293000D02*
G75*
G02*
X14268000Y-6643000I-350000J0D01*
G01*
X11118000Y-5643000D02*
G75*
G02*
X11818000Y-5643000I350000J0D01*
G01*
X12677000Y-7997000D02*
G75*
G02*
X12677000Y-8251000I0J-127000D01*
G01*
X13143000Y-8251000D02*
G75*
G02*
X13143000Y-7997000I0J127000D01*
G01*
X12649000Y-6643000D02*
G75*
G02*
X12649000Y-6897000I0J-127000D01*
G01*
X13115000Y-6897000D02*
G75*
G02*
X13115000Y-6643000I0J127000D01*
G01*
D11*
D12*
X12757000Y-6638000D02*
X12807000Y-6688000D01*
X12807000Y-6638000D02*
X12757000Y-6688000D01*
X12757000Y-6851000D02*
X12807000Y-6901000D01*
X12807000Y-6851000D02*
X12757000Y-6901000D01*
X12785000Y-7992000D02*
X12835000Y-8042000D01*
X12835000Y-7992000D02*
X12785000Y-8042000D01*
X12785000Y-8205000D02*
X12835000Y-8255000D01*
X12835000Y-8205000D02*
X12785000Y-8255000D01*
X12856000Y-6638000D02*
X12906000Y-6688000D01*
X12906000Y-6638000D02*
X12856000Y-6688000D01*
X12857000Y-6851000D02*
X12907000Y-6901000D01*
X12907000Y-6851000D02*
X12857000Y-6901000D01*
X12884000Y-7992000D02*
X12934000Y-8042000D01*
X12934000Y-7992000D02*
X12884000Y-8042000D01*
X12885000Y-8205000D02*
X12935000Y-8255000D01*
X12935000Y-8205000D02*
X12885000Y-8255000D01*
X12957000Y-6638000D02*
X13007000Y-6688000D01*
X13007000Y-6638000D02*
X12957000Y-6688000D01*
X12957000Y-6851000D02*
X13007000Y-6901000D01*
X13007000Y-6851000D02*
X12957000Y-6901000D01*
X12985000Y-7992000D02*
X13035000Y-8042000D01*
X13035000Y-7992000D02*
X12985000Y-8042000D01*
X12985000Y-8205000D02*
X13035000Y-8255000D01*
X13035000Y-8205000D02*
X12985000Y-8255000D01*
D13*
X11573000Y-5643000D02*
G75*
G02*
X11363000Y-5643000I-105000J0D01*
G01*
X11363000Y-5643000D02*
G75*
G02*
X11573000Y-5643000I105000J0D01*
G01*
X11622000Y-9251000D02*
G75*
G02*
X11412000Y-9251000I-105000J0D01*
G01*
X11412000Y-9251000D02*
G75*
G02*
X11622000Y-9251000I105000J0D01*
G01*
X14373000Y-5643000D02*
G75*
G02*
X14163000Y-5643000I-105000J0D01*
G01*
X14163000Y-5643000D02*
G75*
G02*
X14373000Y-5643000I105000J0D01*
G01*
X14422000Y-9251000D02*
G75*
G02*
X14212000Y-9251000I-105000J0D01*
G01*
X14212000Y-9251000D02*
G75*
G02*
X14422000Y-9251000I105000J0D01*
G01*
D11*
X11376277Y-9914984D02*
X11376277Y-9714984D01*
X11376277Y-9714984D02*
X11423896Y-9714984D01*
X11423896Y-9714984D02*
X11452467Y-9724508D01*
X11452467Y-9724508D02*
X11471515Y-9743555D01*
X11471515Y-9743555D02*
X11481039Y-9762603D01*
X11481039Y-9762603D02*
X11490562Y-9800698D01*
X11490562Y-9800698D02*
X11490562Y-9829270D01*
X11490562Y-9829270D02*
X11481039Y-9867365D01*
X11481039Y-9867365D02*
X11471515Y-9886412D01*
X11471515Y-9886412D02*
X11452467Y-9905460D01*
X11452467Y-9905460D02*
X11423896Y-9914984D01*
X11423896Y-9914984D02*
X11376277Y-9914984D01*
X11576277Y-9914984D02*
X11576277Y-9781650D01*
X11576277Y-9819746D02*
X11585801Y-9800698D01*
X11585801Y-9800698D02*
X11595324Y-9791174D01*
X11595324Y-9791174D02*
X11614372Y-9781650D01*
X11614372Y-9781650D02*
X11633420Y-9781650D01*
X11700086Y-9914984D02*
X11700086Y-9781650D01*
X11700086Y-9714984D02*
X11690562Y-9724508D01*
X11690562Y-9724508D02*
X11700086Y-9734031D01*
X11700086Y-9734031D02*
X11709610Y-9724508D01*
X11709610Y-9724508D02*
X11700086Y-9714984D01*
X11700086Y-9714984D02*
X11700086Y-9734031D01*
X11823896Y-9914984D02*
X11804848Y-9905460D01*
X11804848Y-9905460D02*
X11795324Y-9886412D01*
X11795324Y-9886412D02*
X11795324Y-9714984D01*
X11928658Y-9914984D02*
X11909610Y-9905460D01*
X11909610Y-9905460D02*
X11900086Y-9886412D01*
X11900086Y-9886412D02*
X11900086Y-9714984D01*
X12157229Y-9914984D02*
X12157229Y-9714984D01*
X12157229Y-9714984D02*
X12223896Y-9857841D01*
X12223896Y-9857841D02*
X12290562Y-9714984D01*
X12290562Y-9714984D02*
X12290562Y-9914984D01*
X12471515Y-9914984D02*
X12471515Y-9810222D01*
X12471515Y-9810222D02*
X12461991Y-9791174D01*
X12461991Y-9791174D02*
X12442943Y-9781650D01*
X12442943Y-9781650D02*
X12404848Y-9781650D01*
X12404848Y-9781650D02*
X12385801Y-9791174D01*
X12471515Y-9905460D02*
X12452467Y-9914984D01*
X12452467Y-9914984D02*
X12404848Y-9914984D01*
X12404848Y-9914984D02*
X12385801Y-9905460D01*
X12385801Y-9905460D02*
X12376277Y-9886412D01*
X12376277Y-9886412D02*
X12376277Y-9867365D01*
X12376277Y-9867365D02*
X12385801Y-9848317D01*
X12385801Y-9848317D02*
X12404848Y-9838793D01*
X12404848Y-9838793D02*
X12452467Y-9838793D01*
X12452467Y-9838793D02*
X12471515Y-9829270D01*
X12566753Y-9781650D02*
X12566753Y-9981650D01*
X12566753Y-9791174D02*
X12585801Y-9781650D01*
X12585801Y-9781650D02*
X12623896Y-9781650D01*
X12623896Y-9781650D02*
X12642943Y-9791174D01*
X12642943Y-9791174D02*
X12652467Y-9800698D01*
X12652467Y-9800698D02*
X12661991Y-9819746D01*
X12661991Y-9819746D02*
X12661991Y-9876889D01*
X12661991Y-9876889D02*
X12652467Y-9895936D01*
X12652467Y-9895936D02*
X12642943Y-9905460D01*
X12642943Y-9905460D02*
X12623896Y-9914984D01*
X12623896Y-9914984D02*
X12585801Y-9914984D01*
X12585801Y-9914984D02*
X12566753Y-9905460D01*
X12747705Y-9895936D02*
X12757229Y-9905460D01*
X12757229Y-9905460D02*
X12747705Y-9914984D01*
X12747705Y-9914984D02*
X12738182Y-9905460D01*
X12738182Y-9905460D02*
X12747705Y-9895936D01*
X12747705Y-9895936D02*
X12747705Y-9914984D01*
X12747705Y-9791174D02*
X12757229Y-9800698D01*
X12757229Y-9800698D02*
X12747705Y-9810222D01*
X12747705Y-9810222D02*
X12738182Y-9800698D01*
X12738182Y-9800698D02*
X12747705Y-9791174D01*
X12747705Y-9791174D02*
X12747705Y-9810222D01*
D12*
X11065500Y-10218500D02*
X11115500Y-10268500D01*
X11115500Y-10218500D02*
X11065500Y-10268500D01*
D11*
X11414372Y-10134984D02*
X11433420Y-10134984D01*
X11433420Y-10134984D02*
X11452467Y-10144508D01*
X11452467Y-10144508D02*
X11461991Y-10154031D01*
X11461991Y-10154031D02*
X11471515Y-10173079D01*
X11471515Y-10173079D02*
X11481039Y-10211174D01*
X11481039Y-10211174D02*
X11481039Y-10258793D01*
X11481039Y-10258793D02*
X11471515Y-10296889D01*
X11471515Y-10296889D02*
X11461991Y-10315936D01*
X11461991Y-10315936D02*
X11452467Y-10325460D01*
X11452467Y-10325460D02*
X11433420Y-10334984D01*
X11433420Y-10334984D02*
X11414372Y-10334984D01*
X11414372Y-10334984D02*
X11395324Y-10325460D01*
X11395324Y-10325460D02*
X11385801Y-10315936D01*
X11385801Y-10315936D02*
X11376277Y-10296889D01*
X11376277Y-10296889D02*
X11366753Y-10258793D01*
X11366753Y-10258793D02*
X11366753Y-10211174D01*
X11366753Y-10211174D02*
X11376277Y-10173079D01*
X11376277Y-10173079D02*
X11385801Y-10154031D01*
X11385801Y-10154031D02*
X11395324Y-10144508D01*
X11395324Y-10144508D02*
X11414372Y-10134984D01*
X11566753Y-10315936D02*
X11576277Y-10325460D01*
X11576277Y-10325460D02*
X11566753Y-10334984D01*
X11566753Y-10334984D02*
X11557229Y-10325460D01*
X11557229Y-10325460D02*
X11566753Y-10315936D01*
X11566753Y-10315936D02*
X11566753Y-10334984D01*
X11757229Y-10134984D02*
X11661991Y-10134984D01*
X11661991Y-10134984D02*
X11652467Y-10230222D01*
X11652467Y-10230222D02*
X11661991Y-10220698D01*
X11661991Y-10220698D02*
X11681039Y-10211174D01*
X11681039Y-10211174D02*
X11728658Y-10211174D01*
X11728658Y-10211174D02*
X11747705Y-10220698D01*
X11747705Y-10220698D02*
X11757229Y-10230222D01*
X11757229Y-10230222D02*
X11766753Y-10249270D01*
X11766753Y-10249270D02*
X11766753Y-10296889D01*
X11766753Y-10296889D02*
X11757229Y-10315936D01*
X11757229Y-10315936D02*
X11747705Y-10325460D01*
X11747705Y-10325460D02*
X11728658Y-10334984D01*
X11728658Y-10334984D02*
X11681039Y-10334984D01*
X11681039Y-10334984D02*
X11661991Y-10325460D01*
X11661991Y-10325460D02*
X11652467Y-10315936D01*
X11890562Y-10134984D02*
X11909610Y-10134984D01*
X11909610Y-10134984D02*
X11928658Y-10144508D01*
X11928658Y-10144508D02*
X11938182Y-10154031D01*
X11938182Y-10154031D02*
X11947705Y-10173079D01*
X11947705Y-10173079D02*
X11957229Y-10211174D01*
X11957229Y-10211174D02*
X11957229Y-10258793D01*
X11957229Y-10258793D02*
X11947705Y-10296889D01*
X11947705Y-10296889D02*
X11938182Y-10315936D01*
X11938182Y-10315936D02*
X11928658Y-10325460D01*
X11928658Y-10325460D02*
X11909610Y-10334984D01*
X11909610Y-10334984D02*
X11890562Y-10334984D01*
X11890562Y-10334984D02*
X11871515Y-10325460D01*
X11871515Y-10325460D02*
X11861991Y-10315936D01*
X11861991Y-10315936D02*
X11852467Y-10296889D01*
X11852467Y-10296889D02*
X11842943Y-10258793D01*
X11842943Y-10258793D02*
X11842943Y-10211174D01*
X11842943Y-10211174D02*
X11852467Y-10173079D01*
X11852467Y-10173079D02*
X11861991Y-10154031D01*
X11861991Y-10154031D02*
X11871515Y-10144508D01*
X11871515Y-10144508D02*
X11890562Y-10134984D01*
X12081039Y-10134984D02*
X12100086Y-10134984D01*
X12100086Y-10134984D02*
X12119134Y-10144508D01*
X12119134Y-10144508D02*
X12128658Y-10154031D01*
X12128658Y-10154031D02*
X12138182Y-10173079D01*
X12138182Y-10173079D02*
X12147705Y-10211174D01*
X12147705Y-10211174D02*
X12147705Y-10258793D01*
X12147705Y-10258793D02*
X12138182Y-10296889D01*
X12138182Y-10296889D02*
X12128658Y-10315936D01*
X12128658Y-10315936D02*
X12119134Y-10325460D01*
X12119134Y-10325460D02*
X12100086Y-10334984D01*
X12100086Y-10334984D02*
X12081039Y-10334984D01*
X12081039Y-10334984D02*
X12061991Y-10325460D01*
X12061991Y-10325460D02*
X12052467Y-10315936D01*
X12052467Y-10315936D02*
X12042943Y-10296889D01*
X12042943Y-10296889D02*
X12033420Y-10258793D01*
X12033420Y-10258793D02*
X12033420Y-10211174D01*
X12033420Y-10211174D02*
X12042943Y-10173079D01*
X12042943Y-10173079D02*
X12052467Y-10154031D01*
X12052467Y-10154031D02*
X12061991Y-10144508D01*
X12061991Y-10144508D02*
X12081039Y-10134984D01*
X12233420Y-10334984D02*
X12233420Y-10201650D01*
X12233420Y-10220698D02*
X12242943Y-10211174D01*
X12242943Y-10211174D02*
X12261991Y-10201650D01*
X12261991Y-10201650D02*
X12290563Y-10201650D01*
X12290563Y-10201650D02*
X12309610Y-10211174D01*
X12309610Y-10211174D02*
X12319134Y-10230222D01*
X12319134Y-10230222D02*
X12319134Y-10334984D01*
X12319134Y-10230222D02*
X12328658Y-10211174D01*
X12328658Y-10211174D02*
X12347705Y-10201650D01*
X12347705Y-10201650D02*
X12376277Y-10201650D01*
X12376277Y-10201650D02*
X12395324Y-10211174D01*
X12395324Y-10211174D02*
X12404848Y-10230222D01*
X12404848Y-10230222D02*
X12404848Y-10334984D01*
X12500086Y-10334984D02*
X12500086Y-10201650D01*
X12500086Y-10220698D02*
X12509610Y-10211174D01*
X12509610Y-10211174D02*
X12528658Y-10201650D01*
X12528658Y-10201650D02*
X12557229Y-10201650D01*
X12557229Y-10201650D02*
X12576277Y-10211174D01*
X12576277Y-10211174D02*
X12585801Y-10230222D01*
X12585801Y-10230222D02*
X12585801Y-10334984D01*
X12585801Y-10230222D02*
X12595324Y-10211174D01*
X12595324Y-10211174D02*
X12614372Y-10201650D01*
X12614372Y-10201650D02*
X12642943Y-10201650D01*
X12642943Y-10201650D02*
X12661991Y-10211174D01*
X12661991Y-10211174D02*
X12671515Y-10230222D01*
X12671515Y-10230222D02*
X12671515Y-10334984D01*
X13061991Y-10125460D02*
X12890563Y-10382603D01*
X13319134Y-10134984D02*
X13338182Y-10134984D01*
X13338182Y-10134984D02*
X13357229Y-10144508D01*
X13357229Y-10144508D02*
X13366753Y-10154031D01*
X13366753Y-10154031D02*
X13376277Y-10173079D01*
X13376277Y-10173079D02*
X13385801Y-10211174D01*
X13385801Y-10211174D02*
X13385801Y-10258793D01*
X13385801Y-10258793D02*
X13376277Y-10296889D01*
X13376277Y-10296889D02*
X13366753Y-10315936D01*
X13366753Y-10315936D02*
X13357229Y-10325460D01*
X13357229Y-10325460D02*
X13338182Y-10334984D01*
X13338182Y-10334984D02*
X13319134Y-10334984D01*
X13319134Y-10334984D02*
X13300086Y-10325460D01*
X13300086Y-10325460D02*
X13290563Y-10315936D01*
X13290563Y-10315936D02*
X13281039Y-10296889D01*
X13281039Y-10296889D02*
X13271515Y-10258793D01*
X13271515Y-10258793D02*
X13271515Y-10211174D01*
X13271515Y-10211174D02*
X13281039Y-10173079D01*
X13281039Y-10173079D02*
X13290563Y-10154031D01*
X13290563Y-10154031D02*
X13300086Y-10144508D01*
X13300086Y-10144508D02*
X13319134Y-10134984D01*
X13471515Y-10315936D02*
X13481039Y-10325460D01*
X13481039Y-10325460D02*
X13471515Y-10334984D01*
X13471515Y-10334984D02*
X13461991Y-10325460D01*
X13461991Y-10325460D02*
X13471515Y-10315936D01*
X13471515Y-10315936D02*
X13471515Y-10334984D01*
X13604848Y-10134984D02*
X13623896Y-10134984D01*
X13623896Y-10134984D02*
X13642944Y-10144508D01*
X13642944Y-10144508D02*
X13652467Y-10154031D01*
X13652467Y-10154031D02*
X13661991Y-10173079D01*
X13661991Y-10173079D02*
X13671515Y-10211174D01*
X13671515Y-10211174D02*
X13671515Y-10258793D01*
X13671515Y-10258793D02*
X13661991Y-10296889D01*
X13661991Y-10296889D02*
X13652467Y-10315936D01*
X13652467Y-10315936D02*
X13642944Y-10325460D01*
X13642944Y-10325460D02*
X13623896Y-10334984D01*
X13623896Y-10334984D02*
X13604848Y-10334984D01*
X13604848Y-10334984D02*
X13585801Y-10325460D01*
X13585801Y-10325460D02*
X13576277Y-10315936D01*
X13576277Y-10315936D02*
X13566753Y-10296889D01*
X13566753Y-10296889D02*
X13557229Y-10258793D01*
X13557229Y-10258793D02*
X13557229Y-10211174D01*
X13557229Y-10211174D02*
X13566753Y-10173079D01*
X13566753Y-10173079D02*
X13576277Y-10154031D01*
X13576277Y-10154031D02*
X13585801Y-10144508D01*
X13585801Y-10144508D02*
X13604848Y-10134984D01*
X13861991Y-10334984D02*
X13747706Y-10334984D01*
X13804848Y-10334984D02*
X13804848Y-10134984D01*
X13804848Y-10134984D02*
X13785801Y-10163555D01*
X13785801Y-10163555D02*
X13766753Y-10182603D01*
X13766753Y-10182603D02*
X13747706Y-10192127D01*
X13957229Y-10334984D02*
X13995325Y-10334984D01*
X13995325Y-10334984D02*
X14014372Y-10325460D01*
X14014372Y-10325460D02*
X14023896Y-10315936D01*
X14023896Y-10315936D02*
X14042944Y-10287365D01*
X14042944Y-10287365D02*
X14052467Y-10249270D01*
X14052467Y-10249270D02*
X14052467Y-10173079D01*
X14052467Y-10173079D02*
X14042944Y-10154031D01*
X14042944Y-10154031D02*
X14033420Y-10144508D01*
X14033420Y-10144508D02*
X14014372Y-10134984D01*
X14014372Y-10134984D02*
X13976277Y-10134984D01*
X13976277Y-10134984D02*
X13957229Y-10144508D01*
X13957229Y-10144508D02*
X13947706Y-10154031D01*
X13947706Y-10154031D02*
X13938182Y-10173079D01*
X13938182Y-10173079D02*
X13938182Y-10220698D01*
X13938182Y-10220698D02*
X13947706Y-10239746D01*
X13947706Y-10239746D02*
X13957229Y-10249270D01*
X13957229Y-10249270D02*
X13976277Y-10258793D01*
X13976277Y-10258793D02*
X14014372Y-10258793D01*
X14014372Y-10258793D02*
X14033420Y-10249270D01*
X14033420Y-10249270D02*
X14042944Y-10239746D01*
X14042944Y-10239746D02*
X14052467Y-10220698D01*
X14119134Y-10134984D02*
X14252467Y-10134984D01*
X14252467Y-10134984D02*
X14166753Y-10334984D01*
X14319134Y-10134984D02*
X14319134Y-10173079D01*
X14395325Y-10134984D02*
X14395325Y-10173079D01*
X14690563Y-10411174D02*
X14681039Y-10401650D01*
X14681039Y-10401650D02*
X14661991Y-10373079D01*
X14661991Y-10373079D02*
X14652468Y-10354031D01*
X14652468Y-10354031D02*
X14642944Y-10325460D01*
X14642944Y-10325460D02*
X14633420Y-10277841D01*
X14633420Y-10277841D02*
X14633420Y-10239746D01*
X14633420Y-10239746D02*
X14642944Y-10192127D01*
X14642944Y-10192127D02*
X14652468Y-10163555D01*
X14652468Y-10163555D02*
X14661991Y-10144508D01*
X14661991Y-10144508D02*
X14681039Y-10115936D01*
X14681039Y-10115936D02*
X14690563Y-10106412D01*
X14871515Y-10334984D02*
X14757229Y-10334984D01*
X14814372Y-10334984D02*
X14814372Y-10134984D01*
X14814372Y-10134984D02*
X14795325Y-10163555D01*
X14795325Y-10163555D02*
X14776277Y-10182603D01*
X14776277Y-10182603D02*
X14757229Y-10192127D01*
X14947706Y-10154031D02*
X14957229Y-10144508D01*
X14957229Y-10144508D02*
X14976277Y-10134984D01*
X14976277Y-10134984D02*
X15023896Y-10134984D01*
X15023896Y-10134984D02*
X15042944Y-10144508D01*
X15042944Y-10144508D02*
X15052468Y-10154031D01*
X15052468Y-10154031D02*
X15061991Y-10173079D01*
X15061991Y-10173079D02*
X15061991Y-10192127D01*
X15061991Y-10192127D02*
X15052468Y-10220698D01*
X15052468Y-10220698D02*
X14938182Y-10334984D01*
X14938182Y-10334984D02*
X15061991Y-10334984D01*
X15300087Y-10334984D02*
X15300087Y-10134984D01*
X15385801Y-10334984D02*
X15385801Y-10230222D01*
X15385801Y-10230222D02*
X15376277Y-10211174D01*
X15376277Y-10211174D02*
X15357230Y-10201650D01*
X15357230Y-10201650D02*
X15328658Y-10201650D01*
X15328658Y-10201650D02*
X15309610Y-10211174D01*
X15309610Y-10211174D02*
X15300087Y-10220698D01*
X15509610Y-10334984D02*
X15490563Y-10325460D01*
X15490563Y-10325460D02*
X15481039Y-10315936D01*
X15481039Y-10315936D02*
X15471515Y-10296889D01*
X15471515Y-10296889D02*
X15471515Y-10239746D01*
X15471515Y-10239746D02*
X15481039Y-10220698D01*
X15481039Y-10220698D02*
X15490563Y-10211174D01*
X15490563Y-10211174D02*
X15509610Y-10201650D01*
X15509610Y-10201650D02*
X15538182Y-10201650D01*
X15538182Y-10201650D02*
X15557230Y-10211174D01*
X15557230Y-10211174D02*
X15566753Y-10220698D01*
X15566753Y-10220698D02*
X15576277Y-10239746D01*
X15576277Y-10239746D02*
X15576277Y-10296889D01*
X15576277Y-10296889D02*
X15566753Y-10315936D01*
X15566753Y-10315936D02*
X15557230Y-10325460D01*
X15557230Y-10325460D02*
X15538182Y-10334984D01*
X15538182Y-10334984D02*
X15509610Y-10334984D01*
X15690563Y-10334984D02*
X15671515Y-10325460D01*
X15671515Y-10325460D02*
X15661991Y-10306412D01*
X15661991Y-10306412D02*
X15661991Y-10134984D01*
X15842944Y-10325460D02*
X15823896Y-10334984D01*
X15823896Y-10334984D02*
X15785801Y-10334984D01*
X15785801Y-10334984D02*
X15766753Y-10325460D01*
X15766753Y-10325460D02*
X15757230Y-10306412D01*
X15757230Y-10306412D02*
X15757230Y-10230222D01*
X15757230Y-10230222D02*
X15766753Y-10211174D01*
X15766753Y-10211174D02*
X15785801Y-10201650D01*
X15785801Y-10201650D02*
X15823896Y-10201650D01*
X15823896Y-10201650D02*
X15842944Y-10211174D01*
X15842944Y-10211174D02*
X15852468Y-10230222D01*
X15852468Y-10230222D02*
X15852468Y-10249270D01*
X15852468Y-10249270D02*
X15757230Y-10268317D01*
X15928658Y-10325460D02*
X15947706Y-10334984D01*
X15947706Y-10334984D02*
X15985801Y-10334984D01*
X15985801Y-10334984D02*
X16004849Y-10325460D01*
X16004849Y-10325460D02*
X16014372Y-10306412D01*
X16014372Y-10306412D02*
X16014372Y-10296889D01*
X16014372Y-10296889D02*
X16004849Y-10277841D01*
X16004849Y-10277841D02*
X15985801Y-10268317D01*
X15985801Y-10268317D02*
X15957230Y-10268317D01*
X15957230Y-10268317D02*
X15938182Y-10258793D01*
X15938182Y-10258793D02*
X15928658Y-10239746D01*
X15928658Y-10239746D02*
X15928658Y-10230222D01*
X15928658Y-10230222D02*
X15938182Y-10211174D01*
X15938182Y-10211174D02*
X15957230Y-10201650D01*
X15957230Y-10201650D02*
X15985801Y-10201650D01*
X15985801Y-10201650D02*
X16004849Y-10211174D01*
X16081039Y-10411174D02*
X16090563Y-10401650D01*
X16090563Y-10401650D02*
X16109611Y-10373079D01*
X16109611Y-10373079D02*
X16119134Y-10354031D01*
X16119134Y-10354031D02*
X16128658Y-10325460D01*
X16128658Y-10325460D02*
X16138182Y-10277841D01*
X16138182Y-10277841D02*
X16138182Y-10239746D01*
X16138182Y-10239746D02*
X16128658Y-10192127D01*
X16128658Y-10192127D02*
X16119134Y-10163555D01*
X16119134Y-10163555D02*
X16109611Y-10144508D01*
X16109611Y-10144508D02*
X16090563Y-10115936D01*
X16090563Y-10115936D02*
X16081039Y-10106412D01*
X16442944Y-10411174D02*
X16433420Y-10401650D01*
X16433420Y-10401650D02*
X16414372Y-10373079D01*
X16414372Y-10373079D02*
X16404849Y-10354031D01*
X16404849Y-10354031D02*
X16395325Y-10325460D01*
X16395325Y-10325460D02*
X16385801Y-10277841D01*
X16385801Y-10277841D02*
X16385801Y-10239746D01*
X16385801Y-10239746D02*
X16395325Y-10192127D01*
X16395325Y-10192127D02*
X16404849Y-10163555D01*
X16404849Y-10163555D02*
X16414372Y-10144508D01*
X16414372Y-10144508D02*
X16433420Y-10115936D01*
X16433420Y-10115936D02*
X16442944Y-10106412D01*
X16519134Y-10201650D02*
X16519134Y-10334984D01*
X16519134Y-10220698D02*
X16528658Y-10211174D01*
X16528658Y-10211174D02*
X16547706Y-10201650D01*
X16547706Y-10201650D02*
X16576277Y-10201650D01*
X16576277Y-10201650D02*
X16595325Y-10211174D01*
X16595325Y-10211174D02*
X16604849Y-10230222D01*
X16604849Y-10230222D02*
X16604849Y-10334984D01*
X16728658Y-10334984D02*
X16709611Y-10325460D01*
X16709611Y-10325460D02*
X16700087Y-10315936D01*
X16700087Y-10315936D02*
X16690563Y-10296889D01*
X16690563Y-10296889D02*
X16690563Y-10239746D01*
X16690563Y-10239746D02*
X16700087Y-10220698D01*
X16700087Y-10220698D02*
X16709611Y-10211174D01*
X16709611Y-10211174D02*
X16728658Y-10201650D01*
X16728658Y-10201650D02*
X16757230Y-10201650D01*
X16757230Y-10201650D02*
X16776277Y-10211174D01*
X16776277Y-10211174D02*
X16785801Y-10220698D01*
X16785801Y-10220698D02*
X16795325Y-10239746D01*
X16795325Y-10239746D02*
X16795325Y-10296889D01*
X16795325Y-10296889D02*
X16785801Y-10315936D01*
X16785801Y-10315936D02*
X16776277Y-10325460D01*
X16776277Y-10325460D02*
X16757230Y-10334984D01*
X16757230Y-10334984D02*
X16728658Y-10334984D01*
X16852468Y-10201650D02*
X16928658Y-10201650D01*
X16881039Y-10134984D02*
X16881039Y-10306412D01*
X16881039Y-10306412D02*
X16890563Y-10325460D01*
X16890563Y-10325460D02*
X16909611Y-10334984D01*
X16909611Y-10334984D02*
X16928658Y-10334984D01*
X17147706Y-10201650D02*
X17147706Y-10401650D01*
X17147706Y-10211174D02*
X17166754Y-10201650D01*
X17166754Y-10201650D02*
X17204849Y-10201650D01*
X17204849Y-10201650D02*
X17223896Y-10211174D01*
X17223896Y-10211174D02*
X17233420Y-10220698D01*
X17233420Y-10220698D02*
X17242944Y-10239746D01*
X17242944Y-10239746D02*
X17242944Y-10296889D01*
X17242944Y-10296889D02*
X17233420Y-10315936D01*
X17233420Y-10315936D02*
X17223896Y-10325460D01*
X17223896Y-10325460D02*
X17204849Y-10334984D01*
X17204849Y-10334984D02*
X17166754Y-10334984D01*
X17166754Y-10334984D02*
X17147706Y-10325460D01*
X17357230Y-10334984D02*
X17338182Y-10325460D01*
X17338182Y-10325460D02*
X17328658Y-10306412D01*
X17328658Y-10306412D02*
X17328658Y-10134984D01*
X17519135Y-10334984D02*
X17519135Y-10230222D01*
X17519135Y-10230222D02*
X17509611Y-10211174D01*
X17509611Y-10211174D02*
X17490563Y-10201650D01*
X17490563Y-10201650D02*
X17452468Y-10201650D01*
X17452468Y-10201650D02*
X17433420Y-10211174D01*
X17519135Y-10325460D02*
X17500087Y-10334984D01*
X17500087Y-10334984D02*
X17452468Y-10334984D01*
X17452468Y-10334984D02*
X17433420Y-10325460D01*
X17433420Y-10325460D02*
X17423896Y-10306412D01*
X17423896Y-10306412D02*
X17423896Y-10287365D01*
X17423896Y-10287365D02*
X17433420Y-10268317D01*
X17433420Y-10268317D02*
X17452468Y-10258793D01*
X17452468Y-10258793D02*
X17500087Y-10258793D01*
X17500087Y-10258793D02*
X17519135Y-10249270D01*
X17585801Y-10201650D02*
X17661992Y-10201650D01*
X17614373Y-10134984D02*
X17614373Y-10306412D01*
X17614373Y-10306412D02*
X17623896Y-10325460D01*
X17623896Y-10325460D02*
X17642944Y-10334984D01*
X17642944Y-10334984D02*
X17661992Y-10334984D01*
X17804849Y-10325460D02*
X17785801Y-10334984D01*
X17785801Y-10334984D02*
X17747706Y-10334984D01*
X17747706Y-10334984D02*
X17728658Y-10325460D01*
X17728658Y-10325460D02*
X17719135Y-10306412D01*
X17719135Y-10306412D02*
X17719135Y-10230222D01*
X17719135Y-10230222D02*
X17728658Y-10211174D01*
X17728658Y-10211174D02*
X17747706Y-10201650D01*
X17747706Y-10201650D02*
X17785801Y-10201650D01*
X17785801Y-10201650D02*
X17804849Y-10211174D01*
X17804849Y-10211174D02*
X17814373Y-10230222D01*
X17814373Y-10230222D02*
X17814373Y-10249270D01*
X17814373Y-10249270D02*
X17719135Y-10268317D01*
X17985801Y-10334984D02*
X17985801Y-10134984D01*
X17985801Y-10325460D02*
X17966754Y-10334984D01*
X17966754Y-10334984D02*
X17928658Y-10334984D01*
X17928658Y-10334984D02*
X17909611Y-10325460D01*
X17909611Y-10325460D02*
X17900087Y-10315936D01*
X17900087Y-10315936D02*
X17890563Y-10296889D01*
X17890563Y-10296889D02*
X17890563Y-10239746D01*
X17890563Y-10239746D02*
X17900087Y-10220698D01*
X17900087Y-10220698D02*
X17909611Y-10211174D01*
X17909611Y-10211174D02*
X17928658Y-10201650D01*
X17928658Y-10201650D02*
X17966754Y-10201650D01*
X17966754Y-10201650D02*
X17985801Y-10211174D01*
X18061992Y-10411174D02*
X18071516Y-10401650D01*
X18071516Y-10401650D02*
X18090563Y-10373079D01*
X18090563Y-10373079D02*
X18100087Y-10354031D01*
X18100087Y-10354031D02*
X18109611Y-10325460D01*
X18109611Y-10325460D02*
X18119135Y-10277841D01*
X18119135Y-10277841D02*
X18119135Y-10239746D01*
X18119135Y-10239746D02*
X18109611Y-10192127D01*
X18109611Y-10192127D02*
X18100087Y-10163555D01*
X18100087Y-10163555D02*
X18090563Y-10144508D01*
X18090563Y-10144508D02*
X18071516Y-10115936D01*
X18071516Y-10115936D02*
X18061992Y-10106412D01*
X11115500Y-10507500D02*
G75*
G02*
X10915500Y-10507500I-100000J0D01*
G01*
X10915500Y-10507500D02*
G75*
G02*
X11115500Y-10507500I100000J0D01*
G01*
X11366753Y-10418031D02*
X11376277Y-10408508D01*
X11376277Y-10408508D02*
X11395324Y-10398984D01*
X11395324Y-10398984D02*
X11442943Y-10398984D01*
X11442943Y-10398984D02*
X11461991Y-10408508D01*
X11461991Y-10408508D02*
X11471515Y-10418031D01*
X11471515Y-10418031D02*
X11481039Y-10437079D01*
X11481039Y-10437079D02*
X11481039Y-10456127D01*
X11481039Y-10456127D02*
X11471515Y-10484698D01*
X11471515Y-10484698D02*
X11357229Y-10598984D01*
X11357229Y-10598984D02*
X11481039Y-10598984D01*
X11566753Y-10579936D02*
X11576277Y-10589460D01*
X11576277Y-10589460D02*
X11566753Y-10598984D01*
X11566753Y-10598984D02*
X11557229Y-10589460D01*
X11557229Y-10589460D02*
X11566753Y-10579936D01*
X11566753Y-10579936D02*
X11566753Y-10598984D01*
X11766753Y-10598984D02*
X11652467Y-10598984D01*
X11709610Y-10598984D02*
X11709610Y-10398984D01*
X11709610Y-10398984D02*
X11690562Y-10427555D01*
X11690562Y-10427555D02*
X11671515Y-10446603D01*
X11671515Y-10446603D02*
X11652467Y-10456127D01*
X11890562Y-10398984D02*
X11909610Y-10398984D01*
X11909610Y-10398984D02*
X11928658Y-10408508D01*
X11928658Y-10408508D02*
X11938182Y-10418031D01*
X11938182Y-10418031D02*
X11947705Y-10437079D01*
X11947705Y-10437079D02*
X11957229Y-10475174D01*
X11957229Y-10475174D02*
X11957229Y-10522793D01*
X11957229Y-10522793D02*
X11947705Y-10560889D01*
X11947705Y-10560889D02*
X11938182Y-10579936D01*
X11938182Y-10579936D02*
X11928658Y-10589460D01*
X11928658Y-10589460D02*
X11909610Y-10598984D01*
X11909610Y-10598984D02*
X11890562Y-10598984D01*
X11890562Y-10598984D02*
X11871515Y-10589460D01*
X11871515Y-10589460D02*
X11861991Y-10579936D01*
X11861991Y-10579936D02*
X11852467Y-10560889D01*
X11852467Y-10560889D02*
X11842943Y-10522793D01*
X11842943Y-10522793D02*
X11842943Y-10475174D01*
X11842943Y-10475174D02*
X11852467Y-10437079D01*
X11852467Y-10437079D02*
X11861991Y-10418031D01*
X11861991Y-10418031D02*
X11871515Y-10408508D01*
X11871515Y-10408508D02*
X11890562Y-10398984D01*
X12081039Y-10398984D02*
X12100086Y-10398984D01*
X12100086Y-10398984D02*
X12119134Y-10408508D01*
X12119134Y-10408508D02*
X12128658Y-10418031D01*
X12128658Y-10418031D02*
X12138182Y-10437079D01*
X12138182Y-10437079D02*
X12147705Y-10475174D01*
X12147705Y-10475174D02*
X12147705Y-10522793D01*
X12147705Y-10522793D02*
X12138182Y-10560889D01*
X12138182Y-10560889D02*
X12128658Y-10579936D01*
X12128658Y-10579936D02*
X12119134Y-10589460D01*
X12119134Y-10589460D02*
X12100086Y-10598984D01*
X12100086Y-10598984D02*
X12081039Y-10598984D01*
X12081039Y-10598984D02*
X12061991Y-10589460D01*
X12061991Y-10589460D02*
X12052467Y-10579936D01*
X12052467Y-10579936D02*
X12042943Y-10560889D01*
X12042943Y-10560889D02*
X12033420Y-10522793D01*
X12033420Y-10522793D02*
X12033420Y-10475174D01*
X12033420Y-10475174D02*
X12042943Y-10437079D01*
X12042943Y-10437079D02*
X12052467Y-10418031D01*
X12052467Y-10418031D02*
X12061991Y-10408508D01*
X12061991Y-10408508D02*
X12081039Y-10398984D01*
X12233420Y-10598984D02*
X12233420Y-10465650D01*
X12233420Y-10484698D02*
X12242943Y-10475174D01*
X12242943Y-10475174D02*
X12261991Y-10465650D01*
X12261991Y-10465650D02*
X12290563Y-10465650D01*
X12290563Y-10465650D02*
X12309610Y-10475174D01*
X12309610Y-10475174D02*
X12319134Y-10494222D01*
X12319134Y-10494222D02*
X12319134Y-10598984D01*
X12319134Y-10494222D02*
X12328658Y-10475174D01*
X12328658Y-10475174D02*
X12347705Y-10465650D01*
X12347705Y-10465650D02*
X12376277Y-10465650D01*
X12376277Y-10465650D02*
X12395324Y-10475174D01*
X12395324Y-10475174D02*
X12404848Y-10494222D01*
X12404848Y-10494222D02*
X12404848Y-10598984D01*
X12500086Y-10598984D02*
X12500086Y-10465650D01*
X12500086Y-10484698D02*
X12509610Y-10475174D01*
X12509610Y-10475174D02*
X12528658Y-10465650D01*
X12528658Y-10465650D02*
X12557229Y-10465650D01*
X12557229Y-10465650D02*
X12576277Y-10475174D01*
X12576277Y-10475174D02*
X12585801Y-10494222D01*
X12585801Y-10494222D02*
X12585801Y-10598984D01*
X12585801Y-10494222D02*
X12595324Y-10475174D01*
X12595324Y-10475174D02*
X12614372Y-10465650D01*
X12614372Y-10465650D02*
X12642943Y-10465650D01*
X12642943Y-10465650D02*
X12661991Y-10475174D01*
X12661991Y-10475174D02*
X12671515Y-10494222D01*
X12671515Y-10494222D02*
X12671515Y-10598984D01*
X13061991Y-10389460D02*
X12890563Y-10646603D01*
X13319134Y-10398984D02*
X13338182Y-10398984D01*
X13338182Y-10398984D02*
X13357229Y-10408508D01*
X13357229Y-10408508D02*
X13366753Y-10418031D01*
X13366753Y-10418031D02*
X13376277Y-10437079D01*
X13376277Y-10437079D02*
X13385801Y-10475174D01*
X13385801Y-10475174D02*
X13385801Y-10522793D01*
X13385801Y-10522793D02*
X13376277Y-10560889D01*
X13376277Y-10560889D02*
X13366753Y-10579936D01*
X13366753Y-10579936D02*
X13357229Y-10589460D01*
X13357229Y-10589460D02*
X13338182Y-10598984D01*
X13338182Y-10598984D02*
X13319134Y-10598984D01*
X13319134Y-10598984D02*
X13300086Y-10589460D01*
X13300086Y-10589460D02*
X13290563Y-10579936D01*
X13290563Y-10579936D02*
X13281039Y-10560889D01*
X13281039Y-10560889D02*
X13271515Y-10522793D01*
X13271515Y-10522793D02*
X13271515Y-10475174D01*
X13271515Y-10475174D02*
X13281039Y-10437079D01*
X13281039Y-10437079D02*
X13290563Y-10418031D01*
X13290563Y-10418031D02*
X13300086Y-10408508D01*
X13300086Y-10408508D02*
X13319134Y-10398984D01*
X13471515Y-10579936D02*
X13481039Y-10589460D01*
X13481039Y-10589460D02*
X13471515Y-10598984D01*
X13471515Y-10598984D02*
X13461991Y-10589460D01*
X13461991Y-10589460D02*
X13471515Y-10579936D01*
X13471515Y-10579936D02*
X13471515Y-10598984D01*
X13604848Y-10398984D02*
X13623896Y-10398984D01*
X13623896Y-10398984D02*
X13642944Y-10408508D01*
X13642944Y-10408508D02*
X13652467Y-10418031D01*
X13652467Y-10418031D02*
X13661991Y-10437079D01*
X13661991Y-10437079D02*
X13671515Y-10475174D01*
X13671515Y-10475174D02*
X13671515Y-10522793D01*
X13671515Y-10522793D02*
X13661991Y-10560889D01*
X13661991Y-10560889D02*
X13652467Y-10579936D01*
X13652467Y-10579936D02*
X13642944Y-10589460D01*
X13642944Y-10589460D02*
X13623896Y-10598984D01*
X13623896Y-10598984D02*
X13604848Y-10598984D01*
X13604848Y-10598984D02*
X13585801Y-10589460D01*
X13585801Y-10589460D02*
X13576277Y-10579936D01*
X13576277Y-10579936D02*
X13566753Y-10560889D01*
X13566753Y-10560889D02*
X13557229Y-10522793D01*
X13557229Y-10522793D02*
X13557229Y-10475174D01*
X13557229Y-10475174D02*
X13566753Y-10437079D01*
X13566753Y-10437079D02*
X13576277Y-10418031D01*
X13576277Y-10418031D02*
X13585801Y-10408508D01*
X13585801Y-10408508D02*
X13604848Y-10398984D01*
X13785801Y-10484698D02*
X13766753Y-10475174D01*
X13766753Y-10475174D02*
X13757229Y-10465650D01*
X13757229Y-10465650D02*
X13747706Y-10446603D01*
X13747706Y-10446603D02*
X13747706Y-10437079D01*
X13747706Y-10437079D02*
X13757229Y-10418031D01*
X13757229Y-10418031D02*
X13766753Y-10408508D01*
X13766753Y-10408508D02*
X13785801Y-10398984D01*
X13785801Y-10398984D02*
X13823896Y-10398984D01*
X13823896Y-10398984D02*
X13842944Y-10408508D01*
X13842944Y-10408508D02*
X13852467Y-10418031D01*
X13852467Y-10418031D02*
X13861991Y-10437079D01*
X13861991Y-10437079D02*
X13861991Y-10446603D01*
X13861991Y-10446603D02*
X13852467Y-10465650D01*
X13852467Y-10465650D02*
X13842944Y-10475174D01*
X13842944Y-10475174D02*
X13823896Y-10484698D01*
X13823896Y-10484698D02*
X13785801Y-10484698D01*
X13785801Y-10484698D02*
X13766753Y-10494222D01*
X13766753Y-10494222D02*
X13757229Y-10503746D01*
X13757229Y-10503746D02*
X13747706Y-10522793D01*
X13747706Y-10522793D02*
X13747706Y-10560889D01*
X13747706Y-10560889D02*
X13757229Y-10579936D01*
X13757229Y-10579936D02*
X13766753Y-10589460D01*
X13766753Y-10589460D02*
X13785801Y-10598984D01*
X13785801Y-10598984D02*
X13823896Y-10598984D01*
X13823896Y-10598984D02*
X13842944Y-10589460D01*
X13842944Y-10589460D02*
X13852467Y-10579936D01*
X13852467Y-10579936D02*
X13861991Y-10560889D01*
X13861991Y-10560889D02*
X13861991Y-10522793D01*
X13861991Y-10522793D02*
X13852467Y-10503746D01*
X13852467Y-10503746D02*
X13842944Y-10494222D01*
X13842944Y-10494222D02*
X13823896Y-10484698D01*
X13938182Y-10418031D02*
X13947706Y-10408508D01*
X13947706Y-10408508D02*
X13966753Y-10398984D01*
X13966753Y-10398984D02*
X14014372Y-10398984D01*
X14014372Y-10398984D02*
X14033420Y-10408508D01*
X14033420Y-10408508D02*
X14042944Y-10418031D01*
X14042944Y-10418031D02*
X14052467Y-10437079D01*
X14052467Y-10437079D02*
X14052467Y-10456127D01*
X14052467Y-10456127D02*
X14042944Y-10484698D01*
X14042944Y-10484698D02*
X13928658Y-10598984D01*
X13928658Y-10598984D02*
X14052467Y-10598984D01*
X14119134Y-10398984D02*
X14252467Y-10398984D01*
X14252467Y-10398984D02*
X14166753Y-10598984D01*
X14319134Y-10398984D02*
X14319134Y-10437079D01*
X14395325Y-10398984D02*
X14395325Y-10437079D01*
X14690563Y-10675174D02*
X14681039Y-10665650D01*
X14681039Y-10665650D02*
X14661991Y-10637079D01*
X14661991Y-10637079D02*
X14652468Y-10618031D01*
X14652468Y-10618031D02*
X14642944Y-10589460D01*
X14642944Y-10589460D02*
X14633420Y-10541841D01*
X14633420Y-10541841D02*
X14633420Y-10503746D01*
X14633420Y-10503746D02*
X14642944Y-10456127D01*
X14642944Y-10456127D02*
X14652468Y-10427555D01*
X14652468Y-10427555D02*
X14661991Y-10408508D01*
X14661991Y-10408508D02*
X14681039Y-10379936D01*
X14681039Y-10379936D02*
X14690563Y-10370412D01*
X14852468Y-10465650D02*
X14852468Y-10598984D01*
X14804848Y-10389460D02*
X14757229Y-10532317D01*
X14757229Y-10532317D02*
X14881039Y-10532317D01*
X15109610Y-10598984D02*
X15109610Y-10398984D01*
X15195325Y-10598984D02*
X15195325Y-10494222D01*
X15195325Y-10494222D02*
X15185801Y-10475174D01*
X15185801Y-10475174D02*
X15166753Y-10465650D01*
X15166753Y-10465650D02*
X15138182Y-10465650D01*
X15138182Y-10465650D02*
X15119134Y-10475174D01*
X15119134Y-10475174D02*
X15109610Y-10484698D01*
X15319134Y-10598984D02*
X15300087Y-10589460D01*
X15300087Y-10589460D02*
X15290563Y-10579936D01*
X15290563Y-10579936D02*
X15281039Y-10560889D01*
X15281039Y-10560889D02*
X15281039Y-10503746D01*
X15281039Y-10503746D02*
X15290563Y-10484698D01*
X15290563Y-10484698D02*
X15300087Y-10475174D01*
X15300087Y-10475174D02*
X15319134Y-10465650D01*
X15319134Y-10465650D02*
X15347706Y-10465650D01*
X15347706Y-10465650D02*
X15366753Y-10475174D01*
X15366753Y-10475174D02*
X15376277Y-10484698D01*
X15376277Y-10484698D02*
X15385801Y-10503746D01*
X15385801Y-10503746D02*
X15385801Y-10560889D01*
X15385801Y-10560889D02*
X15376277Y-10579936D01*
X15376277Y-10579936D02*
X15366753Y-10589460D01*
X15366753Y-10589460D02*
X15347706Y-10598984D01*
X15347706Y-10598984D02*
X15319134Y-10598984D01*
X15500087Y-10598984D02*
X15481039Y-10589460D01*
X15481039Y-10589460D02*
X15471515Y-10570412D01*
X15471515Y-10570412D02*
X15471515Y-10398984D01*
X15652468Y-10589460D02*
X15633420Y-10598984D01*
X15633420Y-10598984D02*
X15595325Y-10598984D01*
X15595325Y-10598984D02*
X15576277Y-10589460D01*
X15576277Y-10589460D02*
X15566753Y-10570412D01*
X15566753Y-10570412D02*
X15566753Y-10494222D01*
X15566753Y-10494222D02*
X15576277Y-10475174D01*
X15576277Y-10475174D02*
X15595325Y-10465650D01*
X15595325Y-10465650D02*
X15633420Y-10465650D01*
X15633420Y-10465650D02*
X15652468Y-10475174D01*
X15652468Y-10475174D02*
X15661991Y-10494222D01*
X15661991Y-10494222D02*
X15661991Y-10513270D01*
X15661991Y-10513270D02*
X15566753Y-10532317D01*
X15738182Y-10589460D02*
X15757230Y-10598984D01*
X15757230Y-10598984D02*
X15795325Y-10598984D01*
X15795325Y-10598984D02*
X15814372Y-10589460D01*
X15814372Y-10589460D02*
X15823896Y-10570412D01*
X15823896Y-10570412D02*
X15823896Y-10560889D01*
X15823896Y-10560889D02*
X15814372Y-10541841D01*
X15814372Y-10541841D02*
X15795325Y-10532317D01*
X15795325Y-10532317D02*
X15766753Y-10532317D01*
X15766753Y-10532317D02*
X15747706Y-10522793D01*
X15747706Y-10522793D02*
X15738182Y-10503746D01*
X15738182Y-10503746D02*
X15738182Y-10494222D01*
X15738182Y-10494222D02*
X15747706Y-10475174D01*
X15747706Y-10475174D02*
X15766753Y-10465650D01*
X15766753Y-10465650D02*
X15795325Y-10465650D01*
X15795325Y-10465650D02*
X15814372Y-10475174D01*
X15890563Y-10675174D02*
X15900087Y-10665650D01*
X15900087Y-10665650D02*
X15919134Y-10637079D01*
X15919134Y-10637079D02*
X15928658Y-10618031D01*
X15928658Y-10618031D02*
X15938182Y-10589460D01*
X15938182Y-10589460D02*
X15947706Y-10541841D01*
X15947706Y-10541841D02*
X15947706Y-10503746D01*
X15947706Y-10503746D02*
X15938182Y-10456127D01*
X15938182Y-10456127D02*
X15928658Y-10427555D01*
X15928658Y-10427555D02*
X15919134Y-10408508D01*
X15919134Y-10408508D02*
X15900087Y-10379936D01*
X15900087Y-10379936D02*
X15890563Y-10370412D01*
X16252468Y-10675174D02*
X16242944Y-10665650D01*
X16242944Y-10665650D02*
X16223896Y-10637079D01*
X16223896Y-10637079D02*
X16214372Y-10618031D01*
X16214372Y-10618031D02*
X16204849Y-10589460D01*
X16204849Y-10589460D02*
X16195325Y-10541841D01*
X16195325Y-10541841D02*
X16195325Y-10503746D01*
X16195325Y-10503746D02*
X16204849Y-10456127D01*
X16204849Y-10456127D02*
X16214372Y-10427555D01*
X16214372Y-10427555D02*
X16223896Y-10408508D01*
X16223896Y-10408508D02*
X16242944Y-10379936D01*
X16242944Y-10379936D02*
X16252468Y-10370412D01*
X16328658Y-10465650D02*
X16328658Y-10598984D01*
X16328658Y-10484698D02*
X16338182Y-10475174D01*
X16338182Y-10475174D02*
X16357230Y-10465650D01*
X16357230Y-10465650D02*
X16385801Y-10465650D01*
X16385801Y-10465650D02*
X16404849Y-10475174D01*
X16404849Y-10475174D02*
X16414372Y-10494222D01*
X16414372Y-10494222D02*
X16414372Y-10598984D01*
X16538182Y-10598984D02*
X16519134Y-10589460D01*
X16519134Y-10589460D02*
X16509611Y-10579936D01*
X16509611Y-10579936D02*
X16500087Y-10560889D01*
X16500087Y-10560889D02*
X16500087Y-10503746D01*
X16500087Y-10503746D02*
X16509611Y-10484698D01*
X16509611Y-10484698D02*
X16519134Y-10475174D01*
X16519134Y-10475174D02*
X16538182Y-10465650D01*
X16538182Y-10465650D02*
X16566753Y-10465650D01*
X16566753Y-10465650D02*
X16585801Y-10475174D01*
X16585801Y-10475174D02*
X16595325Y-10484698D01*
X16595325Y-10484698D02*
X16604849Y-10503746D01*
X16604849Y-10503746D02*
X16604849Y-10560889D01*
X16604849Y-10560889D02*
X16595325Y-10579936D01*
X16595325Y-10579936D02*
X16585801Y-10589460D01*
X16585801Y-10589460D02*
X16566753Y-10598984D01*
X16566753Y-10598984D02*
X16538182Y-10598984D01*
X16661992Y-10465650D02*
X16738182Y-10465650D01*
X16690563Y-10398984D02*
X16690563Y-10570412D01*
X16690563Y-10570412D02*
X16700087Y-10589460D01*
X16700087Y-10589460D02*
X16719134Y-10598984D01*
X16719134Y-10598984D02*
X16738182Y-10598984D01*
X16957230Y-10465650D02*
X16957230Y-10665650D01*
X16957230Y-10475174D02*
X16976277Y-10465650D01*
X16976277Y-10465650D02*
X17014373Y-10465650D01*
X17014373Y-10465650D02*
X17033420Y-10475174D01*
X17033420Y-10475174D02*
X17042944Y-10484698D01*
X17042944Y-10484698D02*
X17052468Y-10503746D01*
X17052468Y-10503746D02*
X17052468Y-10560889D01*
X17052468Y-10560889D02*
X17042944Y-10579936D01*
X17042944Y-10579936D02*
X17033420Y-10589460D01*
X17033420Y-10589460D02*
X17014373Y-10598984D01*
X17014373Y-10598984D02*
X16976277Y-10598984D01*
X16976277Y-10598984D02*
X16957230Y-10589460D01*
X17166754Y-10598984D02*
X17147706Y-10589460D01*
X17147706Y-10589460D02*
X17138182Y-10570412D01*
X17138182Y-10570412D02*
X17138182Y-10398984D01*
X17328658Y-10598984D02*
X17328658Y-10494222D01*
X17328658Y-10494222D02*
X17319135Y-10475174D01*
X17319135Y-10475174D02*
X17300087Y-10465650D01*
X17300087Y-10465650D02*
X17261992Y-10465650D01*
X17261992Y-10465650D02*
X17242944Y-10475174D01*
X17328658Y-10589460D02*
X17309611Y-10598984D01*
X17309611Y-10598984D02*
X17261992Y-10598984D01*
X17261992Y-10598984D02*
X17242944Y-10589460D01*
X17242944Y-10589460D02*
X17233420Y-10570412D01*
X17233420Y-10570412D02*
X17233420Y-10551365D01*
X17233420Y-10551365D02*
X17242944Y-10532317D01*
X17242944Y-10532317D02*
X17261992Y-10522793D01*
X17261992Y-10522793D02*
X17309611Y-10522793D01*
X17309611Y-10522793D02*
X17328658Y-10513270D01*
X17395325Y-10465650D02*
X17471515Y-10465650D01*
X17423896Y-10398984D02*
X17423896Y-10570412D01*
X17423896Y-10570412D02*
X17433420Y-10589460D01*
X17433420Y-10589460D02*
X17452468Y-10598984D01*
X17452468Y-10598984D02*
X17471515Y-10598984D01*
X17614373Y-10589460D02*
X17595325Y-10598984D01*
X17595325Y-10598984D02*
X17557230Y-10598984D01*
X17557230Y-10598984D02*
X17538182Y-10589460D01*
X17538182Y-10589460D02*
X17528658Y-10570412D01*
X17528658Y-10570412D02*
X17528658Y-10494222D01*
X17528658Y-10494222D02*
X17538182Y-10475174D01*
X17538182Y-10475174D02*
X17557230Y-10465650D01*
X17557230Y-10465650D02*
X17595325Y-10465650D01*
X17595325Y-10465650D02*
X17614373Y-10475174D01*
X17614373Y-10475174D02*
X17623896Y-10494222D01*
X17623896Y-10494222D02*
X17623896Y-10513270D01*
X17623896Y-10513270D02*
X17528658Y-10532317D01*
X17795325Y-10598984D02*
X17795325Y-10398984D01*
X17795325Y-10589460D02*
X17776277Y-10598984D01*
X17776277Y-10598984D02*
X17738182Y-10598984D01*
X17738182Y-10598984D02*
X17719135Y-10589460D01*
X17719135Y-10589460D02*
X17709611Y-10579936D01*
X17709611Y-10579936D02*
X17700087Y-10560889D01*
X17700087Y-10560889D02*
X17700087Y-10503746D01*
X17700087Y-10503746D02*
X17709611Y-10484698D01*
X17709611Y-10484698D02*
X17719135Y-10475174D01*
X17719135Y-10475174D02*
X17738182Y-10465650D01*
X17738182Y-10465650D02*
X17776277Y-10465650D01*
X17776277Y-10465650D02*
X17795325Y-10475174D01*
X17871516Y-10675174D02*
X17881039Y-10665650D01*
X17881039Y-10665650D02*
X17900087Y-10637079D01*
X17900087Y-10637079D02*
X17909611Y-10618031D01*
X17909611Y-10618031D02*
X17919135Y-10589460D01*
X17919135Y-10589460D02*
X17928658Y-10541841D01*
X17928658Y-10541841D02*
X17928658Y-10503746D01*
X17928658Y-10503746D02*
X17919135Y-10456127D01*
X17919135Y-10456127D02*
X17909611Y-10427555D01*
X17909611Y-10427555D02*
X17900087Y-10408508D01*
X17900087Y-10408508D02*
X17881039Y-10379936D01*
X17881039Y-10379936D02*
X17871516Y-10370412D01*
M02*
