%TF.GenerationSoftware,KiCad,Pcbnew,8.0.8*%
%TF.CreationDate,2025-04-24T20:50:18+02:00*%
%TF.ProjectId,IMU_PCBs,494d555f-5043-4427-932e-6b696361645f,rev?*%
%TF.SameCoordinates,Original*%
%TF.FileFunction,Drillmap*%
%TF.FilePolarity,Positive*%
%FSLAX45Y45*%
G04 Gerber Fmt 4.5, Leading zero omitted, Abs format (unit mm)*
G04 Created by KiCad (PCBNEW 8.0.8) date 2025-04-24 20:50:18*
%MOMM*%
%LPD*%
G01*
G04 APERTURE LIST*
%ADD10C,0.050000*%
%ADD11C,0.200000*%
%ADD12C,0.100000*%
G04 APERTURE END LIST*
D10*
X12677000Y-8251000D02*
X11517000Y-8251000D01*
X14317000Y-8251000D02*
X13143000Y-8251000D01*
X13143000Y-7997000D02*
X13438000Y-7997000D01*
X12677000Y-7997000D02*
X12338000Y-7997000D01*
X12338000Y-7997000D02*
X12338000Y-6897000D01*
X13438000Y-6897000D02*
X13438000Y-7997000D01*
X13115000Y-6897000D02*
X13438000Y-6897000D01*
X12649000Y-6897000D02*
X12338000Y-6897000D01*
X11468000Y-6643000D02*
X12649000Y-6643000D01*
X13115000Y-6643000D02*
X14268000Y-6643000D01*
X14667000Y-9251000D02*
X14667000Y-8601000D01*
X11167000Y-9251000D02*
X11167000Y-8601000D01*
X14317000Y-8251000D02*
G75*
G02*
X14667000Y-8601000I0J-350000D01*
G01*
X11867000Y-9251000D02*
G75*
G02*
X11167000Y-9251000I-350000J0D01*
G01*
X14667000Y-9251000D02*
G75*
G02*
X13967000Y-9251000I-350000J0D01*
G01*
X11167000Y-8601000D02*
G75*
G02*
X11517000Y-8251000I350000J0D01*
G01*
X13967000Y-9251000D02*
X11867000Y-9251000D01*
X11118000Y-5643000D02*
X11118000Y-6293000D01*
X11468000Y-6643000D02*
G75*
G02*
X11118000Y-6293000I0J350000D01*
G01*
X14618000Y-5643000D02*
X14618000Y-6293000D01*
X13918000Y-5643000D02*
G75*
G02*
X14618000Y-5643000I350000J0D01*
G01*
X11818000Y-5643000D02*
X13918000Y-5643000D01*
X14618000Y-6293000D02*
G75*
G02*
X14268000Y-6643000I-350000J0D01*
G01*
X11118000Y-5643000D02*
G75*
G02*
X11818000Y-5643000I350000J0D01*
G01*
X12677000Y-7997000D02*
G75*
G02*
X12677000Y-8251000I0J-127000D01*
G01*
X13143000Y-8251000D02*
G75*
G02*
X13143000Y-7997000I0J127000D01*
G01*
X12649000Y-6643000D02*
G75*
G02*
X12649000Y-6897000I0J-127000D01*
G01*
X13115000Y-6897000D02*
G75*
G02*
X13115000Y-6643000I0J127000D01*
G01*
D11*
D12*
X12298000Y-5903000D02*
X12318000Y-5923000D01*
X12318000Y-5903000D02*
X12298000Y-5923000D01*
X12608000Y-5958000D02*
X12628000Y-5978000D01*
X12628000Y-5958000D02*
X12608000Y-5978000D01*
X12807000Y-8451000D02*
X12827000Y-8471000D01*
X12827000Y-8451000D02*
X12807000Y-8471000D01*
X12858000Y-5868000D02*
X12878000Y-5888000D01*
X12878000Y-5868000D02*
X12858000Y-5888000D01*
X12867000Y-8871000D02*
X12887000Y-8891000D01*
X12887000Y-8871000D02*
X12867000Y-8891000D01*
X12888000Y-7607000D02*
X12908000Y-7627000D01*
X12908000Y-7607000D02*
X12888000Y-7627000D01*
X12982000Y-8811000D02*
X13002000Y-8831000D01*
X13002000Y-8811000D02*
X12982000Y-8831000D01*
X13053000Y-6023000D02*
X13073000Y-6043000D01*
X13073000Y-6023000D02*
X13053000Y-6043000D01*
X13062000Y-8641000D02*
X13082000Y-8661000D01*
X13082000Y-8641000D02*
X13062000Y-8661000D01*
X13307000Y-8926000D02*
X13327000Y-8946000D01*
X13327000Y-8926000D02*
X13307000Y-8946000D01*
X12490500Y-7237000D02*
G75*
G02*
X12465500Y-7237000I-12500J0D01*
G01*
X12465500Y-7237000D02*
G75*
G02*
X12490500Y-7237000I12500J0D01*
G01*
X12540500Y-7757000D02*
G75*
G02*
X12515500Y-7757000I-12500J0D01*
G01*
X12515500Y-7757000D02*
G75*
G02*
X12540500Y-7757000I12500J0D01*
G01*
X13180500Y-7757000D02*
G75*
G02*
X13155500Y-7757000I-12500J0D01*
G01*
X13155500Y-7757000D02*
G75*
G02*
X13180500Y-7757000I12500J0D01*
G01*
X13200500Y-7247000D02*
G75*
G02*
X13175500Y-7247000I-12500J0D01*
G01*
X13175500Y-7247000D02*
G75*
G02*
X13200500Y-7247000I12500J0D01*
G01*
X12018000Y-6015000D02*
X12018000Y-6041000D01*
X12005000Y-6028000D02*
X12031000Y-6028000D01*
X12223000Y-6350000D02*
X12223000Y-6376000D01*
X12210000Y-6363000D02*
X12236000Y-6363000D01*
X12228000Y-6015000D02*
X12228000Y-6041000D01*
X12215000Y-6028000D02*
X12241000Y-6028000D01*
X12240500Y-6195000D02*
X12240500Y-6221000D01*
X12227500Y-6208000D02*
X12253500Y-6208000D01*
X12453000Y-6540000D02*
X12453000Y-6566000D01*
X12440000Y-6553000D02*
X12466000Y-6553000D01*
X12542000Y-8638000D02*
X12542000Y-8664000D01*
X12529000Y-8651000D02*
X12555000Y-8651000D01*
X12648000Y-7384000D02*
X12648000Y-7410000D01*
X12635000Y-7397000D02*
X12661000Y-7397000D01*
X12717000Y-8918000D02*
X12717000Y-8944000D01*
X12704000Y-8931000D02*
X12730000Y-8931000D01*
X12743000Y-6470000D02*
X12743000Y-6496000D01*
X12730000Y-6483000D02*
X12756000Y-6483000D01*
X13068000Y-5780000D02*
X13068000Y-5806000D01*
X13055000Y-5793000D02*
X13081000Y-5793000D01*
X13088000Y-7194000D02*
X13088000Y-7220000D01*
X13075000Y-7207000D02*
X13101000Y-7207000D01*
X13140500Y-6395000D02*
X13140500Y-6421000D01*
X13127500Y-6408000D02*
X13153500Y-6408000D01*
X13158000Y-6125000D02*
X13158000Y-6151000D01*
X13145000Y-6138000D02*
X13171000Y-6138000D01*
X13278000Y-6135000D02*
X13278000Y-6161000D01*
X13265000Y-6148000D02*
X13291000Y-6148000D01*
X13353000Y-6521250D02*
X13353000Y-6547250D01*
X13340000Y-6534250D02*
X13366000Y-6534250D01*
X13633000Y-6465000D02*
X13633000Y-6491000D01*
X13620000Y-6478000D02*
X13646000Y-6478000D01*
X13793000Y-5890000D02*
X13793000Y-5916000D01*
X13780000Y-5903000D02*
X13806000Y-5903000D01*
X13973000Y-6080000D02*
X13973000Y-6106000D01*
X13960000Y-6093000D02*
X13986000Y-6093000D01*
D11*
X11376277Y-9914984D02*
X11376277Y-9714984D01*
X11376277Y-9714984D02*
X11423896Y-9714984D01*
X11423896Y-9714984D02*
X11452467Y-9724508D01*
X11452467Y-9724508D02*
X11471515Y-9743555D01*
X11471515Y-9743555D02*
X11481039Y-9762603D01*
X11481039Y-9762603D02*
X11490562Y-9800698D01*
X11490562Y-9800698D02*
X11490562Y-9829270D01*
X11490562Y-9829270D02*
X11481039Y-9867365D01*
X11481039Y-9867365D02*
X11471515Y-9886412D01*
X11471515Y-9886412D02*
X11452467Y-9905460D01*
X11452467Y-9905460D02*
X11423896Y-9914984D01*
X11423896Y-9914984D02*
X11376277Y-9914984D01*
X11576277Y-9914984D02*
X11576277Y-9781650D01*
X11576277Y-9819746D02*
X11585801Y-9800698D01*
X11585801Y-9800698D02*
X11595324Y-9791174D01*
X11595324Y-9791174D02*
X11614372Y-9781650D01*
X11614372Y-9781650D02*
X11633420Y-9781650D01*
X11700086Y-9914984D02*
X11700086Y-9781650D01*
X11700086Y-9714984D02*
X11690562Y-9724508D01*
X11690562Y-9724508D02*
X11700086Y-9734031D01*
X11700086Y-9734031D02*
X11709610Y-9724508D01*
X11709610Y-9724508D02*
X11700086Y-9714984D01*
X11700086Y-9714984D02*
X11700086Y-9734031D01*
X11823896Y-9914984D02*
X11804848Y-9905460D01*
X11804848Y-9905460D02*
X11795324Y-9886412D01*
X11795324Y-9886412D02*
X11795324Y-9714984D01*
X11928658Y-9914984D02*
X11909610Y-9905460D01*
X11909610Y-9905460D02*
X11900086Y-9886412D01*
X11900086Y-9886412D02*
X11900086Y-9714984D01*
X12157229Y-9914984D02*
X12157229Y-9714984D01*
X12157229Y-9714984D02*
X12223896Y-9857841D01*
X12223896Y-9857841D02*
X12290562Y-9714984D01*
X12290562Y-9714984D02*
X12290562Y-9914984D01*
X12471515Y-9914984D02*
X12471515Y-9810222D01*
X12471515Y-9810222D02*
X12461991Y-9791174D01*
X12461991Y-9791174D02*
X12442943Y-9781650D01*
X12442943Y-9781650D02*
X12404848Y-9781650D01*
X12404848Y-9781650D02*
X12385801Y-9791174D01*
X12471515Y-9905460D02*
X12452467Y-9914984D01*
X12452467Y-9914984D02*
X12404848Y-9914984D01*
X12404848Y-9914984D02*
X12385801Y-9905460D01*
X12385801Y-9905460D02*
X12376277Y-9886412D01*
X12376277Y-9886412D02*
X12376277Y-9867365D01*
X12376277Y-9867365D02*
X12385801Y-9848317D01*
X12385801Y-9848317D02*
X12404848Y-9838793D01*
X12404848Y-9838793D02*
X12452467Y-9838793D01*
X12452467Y-9838793D02*
X12471515Y-9829270D01*
X12566753Y-9781650D02*
X12566753Y-9981650D01*
X12566753Y-9791174D02*
X12585801Y-9781650D01*
X12585801Y-9781650D02*
X12623896Y-9781650D01*
X12623896Y-9781650D02*
X12642943Y-9791174D01*
X12642943Y-9791174D02*
X12652467Y-9800698D01*
X12652467Y-9800698D02*
X12661991Y-9819746D01*
X12661991Y-9819746D02*
X12661991Y-9876889D01*
X12661991Y-9876889D02*
X12652467Y-9895936D01*
X12652467Y-9895936D02*
X12642943Y-9905460D01*
X12642943Y-9905460D02*
X12623896Y-9914984D01*
X12623896Y-9914984D02*
X12585801Y-9914984D01*
X12585801Y-9914984D02*
X12566753Y-9905460D01*
X12747705Y-9895936D02*
X12757229Y-9905460D01*
X12757229Y-9905460D02*
X12747705Y-9914984D01*
X12747705Y-9914984D02*
X12738182Y-9905460D01*
X12738182Y-9905460D02*
X12747705Y-9895936D01*
X12747705Y-9895936D02*
X12747705Y-9914984D01*
X12747705Y-9791174D02*
X12757229Y-9800698D01*
X12757229Y-9800698D02*
X12747705Y-9810222D01*
X12747705Y-9810222D02*
X12738182Y-9800698D01*
X12738182Y-9800698D02*
X12747705Y-9791174D01*
X12747705Y-9791174D02*
X12747705Y-9810222D01*
D12*
X11095500Y-10233500D02*
X11115500Y-10253500D01*
X11115500Y-10233500D02*
X11095500Y-10253500D01*
D11*
X11414372Y-10134984D02*
X11433420Y-10134984D01*
X11433420Y-10134984D02*
X11452467Y-10144508D01*
X11452467Y-10144508D02*
X11461991Y-10154031D01*
X11461991Y-10154031D02*
X11471515Y-10173079D01*
X11471515Y-10173079D02*
X11481039Y-10211174D01*
X11481039Y-10211174D02*
X11481039Y-10258793D01*
X11481039Y-10258793D02*
X11471515Y-10296889D01*
X11471515Y-10296889D02*
X11461991Y-10315936D01*
X11461991Y-10315936D02*
X11452467Y-10325460D01*
X11452467Y-10325460D02*
X11433420Y-10334984D01*
X11433420Y-10334984D02*
X11414372Y-10334984D01*
X11414372Y-10334984D02*
X11395324Y-10325460D01*
X11395324Y-10325460D02*
X11385801Y-10315936D01*
X11385801Y-10315936D02*
X11376277Y-10296889D01*
X11376277Y-10296889D02*
X11366753Y-10258793D01*
X11366753Y-10258793D02*
X11366753Y-10211174D01*
X11366753Y-10211174D02*
X11376277Y-10173079D01*
X11376277Y-10173079D02*
X11385801Y-10154031D01*
X11385801Y-10154031D02*
X11395324Y-10144508D01*
X11395324Y-10144508D02*
X11414372Y-10134984D01*
X11566753Y-10315936D02*
X11576277Y-10325460D01*
X11576277Y-10325460D02*
X11566753Y-10334984D01*
X11566753Y-10334984D02*
X11557229Y-10325460D01*
X11557229Y-10325460D02*
X11566753Y-10315936D01*
X11566753Y-10315936D02*
X11566753Y-10334984D01*
X11652467Y-10154031D02*
X11661991Y-10144508D01*
X11661991Y-10144508D02*
X11681039Y-10134984D01*
X11681039Y-10134984D02*
X11728658Y-10134984D01*
X11728658Y-10134984D02*
X11747705Y-10144508D01*
X11747705Y-10144508D02*
X11757229Y-10154031D01*
X11757229Y-10154031D02*
X11766753Y-10173079D01*
X11766753Y-10173079D02*
X11766753Y-10192127D01*
X11766753Y-10192127D02*
X11757229Y-10220698D01*
X11757229Y-10220698D02*
X11642943Y-10334984D01*
X11642943Y-10334984D02*
X11766753Y-10334984D01*
X11890562Y-10134984D02*
X11909610Y-10134984D01*
X11909610Y-10134984D02*
X11928658Y-10144508D01*
X11928658Y-10144508D02*
X11938182Y-10154031D01*
X11938182Y-10154031D02*
X11947705Y-10173079D01*
X11947705Y-10173079D02*
X11957229Y-10211174D01*
X11957229Y-10211174D02*
X11957229Y-10258793D01*
X11957229Y-10258793D02*
X11947705Y-10296889D01*
X11947705Y-10296889D02*
X11938182Y-10315936D01*
X11938182Y-10315936D02*
X11928658Y-10325460D01*
X11928658Y-10325460D02*
X11909610Y-10334984D01*
X11909610Y-10334984D02*
X11890562Y-10334984D01*
X11890562Y-10334984D02*
X11871515Y-10325460D01*
X11871515Y-10325460D02*
X11861991Y-10315936D01*
X11861991Y-10315936D02*
X11852467Y-10296889D01*
X11852467Y-10296889D02*
X11842943Y-10258793D01*
X11842943Y-10258793D02*
X11842943Y-10211174D01*
X11842943Y-10211174D02*
X11852467Y-10173079D01*
X11852467Y-10173079D02*
X11861991Y-10154031D01*
X11861991Y-10154031D02*
X11871515Y-10144508D01*
X11871515Y-10144508D02*
X11890562Y-10134984D01*
X12081039Y-10134984D02*
X12100086Y-10134984D01*
X12100086Y-10134984D02*
X12119134Y-10144508D01*
X12119134Y-10144508D02*
X12128658Y-10154031D01*
X12128658Y-10154031D02*
X12138182Y-10173079D01*
X12138182Y-10173079D02*
X12147705Y-10211174D01*
X12147705Y-10211174D02*
X12147705Y-10258793D01*
X12147705Y-10258793D02*
X12138182Y-10296889D01*
X12138182Y-10296889D02*
X12128658Y-10315936D01*
X12128658Y-10315936D02*
X12119134Y-10325460D01*
X12119134Y-10325460D02*
X12100086Y-10334984D01*
X12100086Y-10334984D02*
X12081039Y-10334984D01*
X12081039Y-10334984D02*
X12061991Y-10325460D01*
X12061991Y-10325460D02*
X12052467Y-10315936D01*
X12052467Y-10315936D02*
X12042943Y-10296889D01*
X12042943Y-10296889D02*
X12033420Y-10258793D01*
X12033420Y-10258793D02*
X12033420Y-10211174D01*
X12033420Y-10211174D02*
X12042943Y-10173079D01*
X12042943Y-10173079D02*
X12052467Y-10154031D01*
X12052467Y-10154031D02*
X12061991Y-10144508D01*
X12061991Y-10144508D02*
X12081039Y-10134984D01*
X12233420Y-10334984D02*
X12233420Y-10201650D01*
X12233420Y-10220698D02*
X12242943Y-10211174D01*
X12242943Y-10211174D02*
X12261991Y-10201650D01*
X12261991Y-10201650D02*
X12290563Y-10201650D01*
X12290563Y-10201650D02*
X12309610Y-10211174D01*
X12309610Y-10211174D02*
X12319134Y-10230222D01*
X12319134Y-10230222D02*
X12319134Y-10334984D01*
X12319134Y-10230222D02*
X12328658Y-10211174D01*
X12328658Y-10211174D02*
X12347705Y-10201650D01*
X12347705Y-10201650D02*
X12376277Y-10201650D01*
X12376277Y-10201650D02*
X12395324Y-10211174D01*
X12395324Y-10211174D02*
X12404848Y-10230222D01*
X12404848Y-10230222D02*
X12404848Y-10334984D01*
X12500086Y-10334984D02*
X12500086Y-10201650D01*
X12500086Y-10220698D02*
X12509610Y-10211174D01*
X12509610Y-10211174D02*
X12528658Y-10201650D01*
X12528658Y-10201650D02*
X12557229Y-10201650D01*
X12557229Y-10201650D02*
X12576277Y-10211174D01*
X12576277Y-10211174D02*
X12585801Y-10230222D01*
X12585801Y-10230222D02*
X12585801Y-10334984D01*
X12585801Y-10230222D02*
X12595324Y-10211174D01*
X12595324Y-10211174D02*
X12614372Y-10201650D01*
X12614372Y-10201650D02*
X12642943Y-10201650D01*
X12642943Y-10201650D02*
X12661991Y-10211174D01*
X12661991Y-10211174D02*
X12671515Y-10230222D01*
X12671515Y-10230222D02*
X12671515Y-10334984D01*
X13061991Y-10125460D02*
X12890563Y-10382603D01*
X13319134Y-10134984D02*
X13338182Y-10134984D01*
X13338182Y-10134984D02*
X13357229Y-10144508D01*
X13357229Y-10144508D02*
X13366753Y-10154031D01*
X13366753Y-10154031D02*
X13376277Y-10173079D01*
X13376277Y-10173079D02*
X13385801Y-10211174D01*
X13385801Y-10211174D02*
X13385801Y-10258793D01*
X13385801Y-10258793D02*
X13376277Y-10296889D01*
X13376277Y-10296889D02*
X13366753Y-10315936D01*
X13366753Y-10315936D02*
X13357229Y-10325460D01*
X13357229Y-10325460D02*
X13338182Y-10334984D01*
X13338182Y-10334984D02*
X13319134Y-10334984D01*
X13319134Y-10334984D02*
X13300086Y-10325460D01*
X13300086Y-10325460D02*
X13290563Y-10315936D01*
X13290563Y-10315936D02*
X13281039Y-10296889D01*
X13281039Y-10296889D02*
X13271515Y-10258793D01*
X13271515Y-10258793D02*
X13271515Y-10211174D01*
X13271515Y-10211174D02*
X13281039Y-10173079D01*
X13281039Y-10173079D02*
X13290563Y-10154031D01*
X13290563Y-10154031D02*
X13300086Y-10144508D01*
X13300086Y-10144508D02*
X13319134Y-10134984D01*
X13471515Y-10315936D02*
X13481039Y-10325460D01*
X13481039Y-10325460D02*
X13471515Y-10334984D01*
X13471515Y-10334984D02*
X13461991Y-10325460D01*
X13461991Y-10325460D02*
X13471515Y-10315936D01*
X13471515Y-10315936D02*
X13471515Y-10334984D01*
X13604848Y-10134984D02*
X13623896Y-10134984D01*
X13623896Y-10134984D02*
X13642944Y-10144508D01*
X13642944Y-10144508D02*
X13652467Y-10154031D01*
X13652467Y-10154031D02*
X13661991Y-10173079D01*
X13661991Y-10173079D02*
X13671515Y-10211174D01*
X13671515Y-10211174D02*
X13671515Y-10258793D01*
X13671515Y-10258793D02*
X13661991Y-10296889D01*
X13661991Y-10296889D02*
X13652467Y-10315936D01*
X13652467Y-10315936D02*
X13642944Y-10325460D01*
X13642944Y-10325460D02*
X13623896Y-10334984D01*
X13623896Y-10334984D02*
X13604848Y-10334984D01*
X13604848Y-10334984D02*
X13585801Y-10325460D01*
X13585801Y-10325460D02*
X13576277Y-10315936D01*
X13576277Y-10315936D02*
X13566753Y-10296889D01*
X13566753Y-10296889D02*
X13557229Y-10258793D01*
X13557229Y-10258793D02*
X13557229Y-10211174D01*
X13557229Y-10211174D02*
X13566753Y-10173079D01*
X13566753Y-10173079D02*
X13576277Y-10154031D01*
X13576277Y-10154031D02*
X13585801Y-10144508D01*
X13585801Y-10144508D02*
X13604848Y-10134984D01*
X13795325Y-10134984D02*
X13814372Y-10134984D01*
X13814372Y-10134984D02*
X13833420Y-10144508D01*
X13833420Y-10144508D02*
X13842944Y-10154031D01*
X13842944Y-10154031D02*
X13852467Y-10173079D01*
X13852467Y-10173079D02*
X13861991Y-10211174D01*
X13861991Y-10211174D02*
X13861991Y-10258793D01*
X13861991Y-10258793D02*
X13852467Y-10296889D01*
X13852467Y-10296889D02*
X13842944Y-10315936D01*
X13842944Y-10315936D02*
X13833420Y-10325460D01*
X13833420Y-10325460D02*
X13814372Y-10334984D01*
X13814372Y-10334984D02*
X13795325Y-10334984D01*
X13795325Y-10334984D02*
X13776277Y-10325460D01*
X13776277Y-10325460D02*
X13766753Y-10315936D01*
X13766753Y-10315936D02*
X13757229Y-10296889D01*
X13757229Y-10296889D02*
X13747706Y-10258793D01*
X13747706Y-10258793D02*
X13747706Y-10211174D01*
X13747706Y-10211174D02*
X13757229Y-10173079D01*
X13757229Y-10173079D02*
X13766753Y-10154031D01*
X13766753Y-10154031D02*
X13776277Y-10144508D01*
X13776277Y-10144508D02*
X13795325Y-10134984D01*
X13928658Y-10134984D02*
X14061991Y-10134984D01*
X14061991Y-10134984D02*
X13976277Y-10334984D01*
X14147706Y-10334984D02*
X14185801Y-10334984D01*
X14185801Y-10334984D02*
X14204848Y-10325460D01*
X14204848Y-10325460D02*
X14214372Y-10315936D01*
X14214372Y-10315936D02*
X14233420Y-10287365D01*
X14233420Y-10287365D02*
X14242944Y-10249270D01*
X14242944Y-10249270D02*
X14242944Y-10173079D01*
X14242944Y-10173079D02*
X14233420Y-10154031D01*
X14233420Y-10154031D02*
X14223896Y-10144508D01*
X14223896Y-10144508D02*
X14204848Y-10134984D01*
X14204848Y-10134984D02*
X14166753Y-10134984D01*
X14166753Y-10134984D02*
X14147706Y-10144508D01*
X14147706Y-10144508D02*
X14138182Y-10154031D01*
X14138182Y-10154031D02*
X14128658Y-10173079D01*
X14128658Y-10173079D02*
X14128658Y-10220698D01*
X14128658Y-10220698D02*
X14138182Y-10239746D01*
X14138182Y-10239746D02*
X14147706Y-10249270D01*
X14147706Y-10249270D02*
X14166753Y-10258793D01*
X14166753Y-10258793D02*
X14204848Y-10258793D01*
X14204848Y-10258793D02*
X14223896Y-10249270D01*
X14223896Y-10249270D02*
X14233420Y-10239746D01*
X14233420Y-10239746D02*
X14242944Y-10220698D01*
X14319134Y-10134984D02*
X14319134Y-10173079D01*
X14395325Y-10134984D02*
X14395325Y-10173079D01*
X14690563Y-10411174D02*
X14681039Y-10401650D01*
X14681039Y-10401650D02*
X14661991Y-10373079D01*
X14661991Y-10373079D02*
X14652468Y-10354031D01*
X14652468Y-10354031D02*
X14642944Y-10325460D01*
X14642944Y-10325460D02*
X14633420Y-10277841D01*
X14633420Y-10277841D02*
X14633420Y-10239746D01*
X14633420Y-10239746D02*
X14642944Y-10192127D01*
X14642944Y-10192127D02*
X14652468Y-10163555D01*
X14652468Y-10163555D02*
X14661991Y-10144508D01*
X14661991Y-10144508D02*
X14681039Y-10115936D01*
X14681039Y-10115936D02*
X14690563Y-10106412D01*
X14871515Y-10334984D02*
X14757229Y-10334984D01*
X14814372Y-10334984D02*
X14814372Y-10134984D01*
X14814372Y-10134984D02*
X14795325Y-10163555D01*
X14795325Y-10163555D02*
X14776277Y-10182603D01*
X14776277Y-10182603D02*
X14757229Y-10192127D01*
X14995325Y-10134984D02*
X15014372Y-10134984D01*
X15014372Y-10134984D02*
X15033420Y-10144508D01*
X15033420Y-10144508D02*
X15042944Y-10154031D01*
X15042944Y-10154031D02*
X15052468Y-10173079D01*
X15052468Y-10173079D02*
X15061991Y-10211174D01*
X15061991Y-10211174D02*
X15061991Y-10258793D01*
X15061991Y-10258793D02*
X15052468Y-10296889D01*
X15052468Y-10296889D02*
X15042944Y-10315936D01*
X15042944Y-10315936D02*
X15033420Y-10325460D01*
X15033420Y-10325460D02*
X15014372Y-10334984D01*
X15014372Y-10334984D02*
X14995325Y-10334984D01*
X14995325Y-10334984D02*
X14976277Y-10325460D01*
X14976277Y-10325460D02*
X14966753Y-10315936D01*
X14966753Y-10315936D02*
X14957229Y-10296889D01*
X14957229Y-10296889D02*
X14947706Y-10258793D01*
X14947706Y-10258793D02*
X14947706Y-10211174D01*
X14947706Y-10211174D02*
X14957229Y-10173079D01*
X14957229Y-10173079D02*
X14966753Y-10154031D01*
X14966753Y-10154031D02*
X14976277Y-10144508D01*
X14976277Y-10144508D02*
X14995325Y-10134984D01*
X15300087Y-10334984D02*
X15300087Y-10134984D01*
X15385801Y-10334984D02*
X15385801Y-10230222D01*
X15385801Y-10230222D02*
X15376277Y-10211174D01*
X15376277Y-10211174D02*
X15357230Y-10201650D01*
X15357230Y-10201650D02*
X15328658Y-10201650D01*
X15328658Y-10201650D02*
X15309610Y-10211174D01*
X15309610Y-10211174D02*
X15300087Y-10220698D01*
X15509610Y-10334984D02*
X15490563Y-10325460D01*
X15490563Y-10325460D02*
X15481039Y-10315936D01*
X15481039Y-10315936D02*
X15471515Y-10296889D01*
X15471515Y-10296889D02*
X15471515Y-10239746D01*
X15471515Y-10239746D02*
X15481039Y-10220698D01*
X15481039Y-10220698D02*
X15490563Y-10211174D01*
X15490563Y-10211174D02*
X15509610Y-10201650D01*
X15509610Y-10201650D02*
X15538182Y-10201650D01*
X15538182Y-10201650D02*
X15557230Y-10211174D01*
X15557230Y-10211174D02*
X15566753Y-10220698D01*
X15566753Y-10220698D02*
X15576277Y-10239746D01*
X15576277Y-10239746D02*
X15576277Y-10296889D01*
X15576277Y-10296889D02*
X15566753Y-10315936D01*
X15566753Y-10315936D02*
X15557230Y-10325460D01*
X15557230Y-10325460D02*
X15538182Y-10334984D01*
X15538182Y-10334984D02*
X15509610Y-10334984D01*
X15690563Y-10334984D02*
X15671515Y-10325460D01*
X15671515Y-10325460D02*
X15661991Y-10306412D01*
X15661991Y-10306412D02*
X15661991Y-10134984D01*
X15842944Y-10325460D02*
X15823896Y-10334984D01*
X15823896Y-10334984D02*
X15785801Y-10334984D01*
X15785801Y-10334984D02*
X15766753Y-10325460D01*
X15766753Y-10325460D02*
X15757230Y-10306412D01*
X15757230Y-10306412D02*
X15757230Y-10230222D01*
X15757230Y-10230222D02*
X15766753Y-10211174D01*
X15766753Y-10211174D02*
X15785801Y-10201650D01*
X15785801Y-10201650D02*
X15823896Y-10201650D01*
X15823896Y-10201650D02*
X15842944Y-10211174D01*
X15842944Y-10211174D02*
X15852468Y-10230222D01*
X15852468Y-10230222D02*
X15852468Y-10249270D01*
X15852468Y-10249270D02*
X15757230Y-10268317D01*
X15928658Y-10325460D02*
X15947706Y-10334984D01*
X15947706Y-10334984D02*
X15985801Y-10334984D01*
X15985801Y-10334984D02*
X16004849Y-10325460D01*
X16004849Y-10325460D02*
X16014372Y-10306412D01*
X16014372Y-10306412D02*
X16014372Y-10296889D01*
X16014372Y-10296889D02*
X16004849Y-10277841D01*
X16004849Y-10277841D02*
X15985801Y-10268317D01*
X15985801Y-10268317D02*
X15957230Y-10268317D01*
X15957230Y-10268317D02*
X15938182Y-10258793D01*
X15938182Y-10258793D02*
X15928658Y-10239746D01*
X15928658Y-10239746D02*
X15928658Y-10230222D01*
X15928658Y-10230222D02*
X15938182Y-10211174D01*
X15938182Y-10211174D02*
X15957230Y-10201650D01*
X15957230Y-10201650D02*
X15985801Y-10201650D01*
X15985801Y-10201650D02*
X16004849Y-10211174D01*
X16081039Y-10411174D02*
X16090563Y-10401650D01*
X16090563Y-10401650D02*
X16109611Y-10373079D01*
X16109611Y-10373079D02*
X16119134Y-10354031D01*
X16119134Y-10354031D02*
X16128658Y-10325460D01*
X16128658Y-10325460D02*
X16138182Y-10277841D01*
X16138182Y-10277841D02*
X16138182Y-10239746D01*
X16138182Y-10239746D02*
X16128658Y-10192127D01*
X16128658Y-10192127D02*
X16119134Y-10163555D01*
X16119134Y-10163555D02*
X16109611Y-10144508D01*
X16109611Y-10144508D02*
X16090563Y-10115936D01*
X16090563Y-10115936D02*
X16081039Y-10106412D01*
D12*
X11115500Y-10507500D02*
G75*
G02*
X11090500Y-10507500I-12500J0D01*
G01*
X11090500Y-10507500D02*
G75*
G02*
X11115500Y-10507500I12500J0D01*
G01*
D11*
X11414372Y-10398984D02*
X11433420Y-10398984D01*
X11433420Y-10398984D02*
X11452467Y-10408508D01*
X11452467Y-10408508D02*
X11461991Y-10418031D01*
X11461991Y-10418031D02*
X11471515Y-10437079D01*
X11471515Y-10437079D02*
X11481039Y-10475174D01*
X11481039Y-10475174D02*
X11481039Y-10522793D01*
X11481039Y-10522793D02*
X11471515Y-10560889D01*
X11471515Y-10560889D02*
X11461991Y-10579936D01*
X11461991Y-10579936D02*
X11452467Y-10589460D01*
X11452467Y-10589460D02*
X11433420Y-10598984D01*
X11433420Y-10598984D02*
X11414372Y-10598984D01*
X11414372Y-10598984D02*
X11395324Y-10589460D01*
X11395324Y-10589460D02*
X11385801Y-10579936D01*
X11385801Y-10579936D02*
X11376277Y-10560889D01*
X11376277Y-10560889D02*
X11366753Y-10522793D01*
X11366753Y-10522793D02*
X11366753Y-10475174D01*
X11366753Y-10475174D02*
X11376277Y-10437079D01*
X11376277Y-10437079D02*
X11385801Y-10418031D01*
X11385801Y-10418031D02*
X11395324Y-10408508D01*
X11395324Y-10408508D02*
X11414372Y-10398984D01*
X11566753Y-10579936D02*
X11576277Y-10589460D01*
X11576277Y-10589460D02*
X11566753Y-10598984D01*
X11566753Y-10598984D02*
X11557229Y-10589460D01*
X11557229Y-10589460D02*
X11566753Y-10579936D01*
X11566753Y-10579936D02*
X11566753Y-10598984D01*
X11652467Y-10418031D02*
X11661991Y-10408508D01*
X11661991Y-10408508D02*
X11681039Y-10398984D01*
X11681039Y-10398984D02*
X11728658Y-10398984D01*
X11728658Y-10398984D02*
X11747705Y-10408508D01*
X11747705Y-10408508D02*
X11757229Y-10418031D01*
X11757229Y-10418031D02*
X11766753Y-10437079D01*
X11766753Y-10437079D02*
X11766753Y-10456127D01*
X11766753Y-10456127D02*
X11757229Y-10484698D01*
X11757229Y-10484698D02*
X11642943Y-10598984D01*
X11642943Y-10598984D02*
X11766753Y-10598984D01*
X11947705Y-10398984D02*
X11852467Y-10398984D01*
X11852467Y-10398984D02*
X11842943Y-10494222D01*
X11842943Y-10494222D02*
X11852467Y-10484698D01*
X11852467Y-10484698D02*
X11871515Y-10475174D01*
X11871515Y-10475174D02*
X11919134Y-10475174D01*
X11919134Y-10475174D02*
X11938182Y-10484698D01*
X11938182Y-10484698D02*
X11947705Y-10494222D01*
X11947705Y-10494222D02*
X11957229Y-10513270D01*
X11957229Y-10513270D02*
X11957229Y-10560889D01*
X11957229Y-10560889D02*
X11947705Y-10579936D01*
X11947705Y-10579936D02*
X11938182Y-10589460D01*
X11938182Y-10589460D02*
X11919134Y-10598984D01*
X11919134Y-10598984D02*
X11871515Y-10598984D01*
X11871515Y-10598984D02*
X11852467Y-10589460D01*
X11852467Y-10589460D02*
X11842943Y-10579936D01*
X12081039Y-10398984D02*
X12100086Y-10398984D01*
X12100086Y-10398984D02*
X12119134Y-10408508D01*
X12119134Y-10408508D02*
X12128658Y-10418031D01*
X12128658Y-10418031D02*
X12138182Y-10437079D01*
X12138182Y-10437079D02*
X12147705Y-10475174D01*
X12147705Y-10475174D02*
X12147705Y-10522793D01*
X12147705Y-10522793D02*
X12138182Y-10560889D01*
X12138182Y-10560889D02*
X12128658Y-10579936D01*
X12128658Y-10579936D02*
X12119134Y-10589460D01*
X12119134Y-10589460D02*
X12100086Y-10598984D01*
X12100086Y-10598984D02*
X12081039Y-10598984D01*
X12081039Y-10598984D02*
X12061991Y-10589460D01*
X12061991Y-10589460D02*
X12052467Y-10579936D01*
X12052467Y-10579936D02*
X12042943Y-10560889D01*
X12042943Y-10560889D02*
X12033420Y-10522793D01*
X12033420Y-10522793D02*
X12033420Y-10475174D01*
X12033420Y-10475174D02*
X12042943Y-10437079D01*
X12042943Y-10437079D02*
X12052467Y-10418031D01*
X12052467Y-10418031D02*
X12061991Y-10408508D01*
X12061991Y-10408508D02*
X12081039Y-10398984D01*
X12233420Y-10598984D02*
X12233420Y-10465650D01*
X12233420Y-10484698D02*
X12242943Y-10475174D01*
X12242943Y-10475174D02*
X12261991Y-10465650D01*
X12261991Y-10465650D02*
X12290563Y-10465650D01*
X12290563Y-10465650D02*
X12309610Y-10475174D01*
X12309610Y-10475174D02*
X12319134Y-10494222D01*
X12319134Y-10494222D02*
X12319134Y-10598984D01*
X12319134Y-10494222D02*
X12328658Y-10475174D01*
X12328658Y-10475174D02*
X12347705Y-10465650D01*
X12347705Y-10465650D02*
X12376277Y-10465650D01*
X12376277Y-10465650D02*
X12395324Y-10475174D01*
X12395324Y-10475174D02*
X12404848Y-10494222D01*
X12404848Y-10494222D02*
X12404848Y-10598984D01*
X12500086Y-10598984D02*
X12500086Y-10465650D01*
X12500086Y-10484698D02*
X12509610Y-10475174D01*
X12509610Y-10475174D02*
X12528658Y-10465650D01*
X12528658Y-10465650D02*
X12557229Y-10465650D01*
X12557229Y-10465650D02*
X12576277Y-10475174D01*
X12576277Y-10475174D02*
X12585801Y-10494222D01*
X12585801Y-10494222D02*
X12585801Y-10598984D01*
X12585801Y-10494222D02*
X12595324Y-10475174D01*
X12595324Y-10475174D02*
X12614372Y-10465650D01*
X12614372Y-10465650D02*
X12642943Y-10465650D01*
X12642943Y-10465650D02*
X12661991Y-10475174D01*
X12661991Y-10475174D02*
X12671515Y-10494222D01*
X12671515Y-10494222D02*
X12671515Y-10598984D01*
X13061991Y-10389460D02*
X12890563Y-10646603D01*
X13319134Y-10398984D02*
X13338182Y-10398984D01*
X13338182Y-10398984D02*
X13357229Y-10408508D01*
X13357229Y-10408508D02*
X13366753Y-10418031D01*
X13366753Y-10418031D02*
X13376277Y-10437079D01*
X13376277Y-10437079D02*
X13385801Y-10475174D01*
X13385801Y-10475174D02*
X13385801Y-10522793D01*
X13385801Y-10522793D02*
X13376277Y-10560889D01*
X13376277Y-10560889D02*
X13366753Y-10579936D01*
X13366753Y-10579936D02*
X13357229Y-10589460D01*
X13357229Y-10589460D02*
X13338182Y-10598984D01*
X13338182Y-10598984D02*
X13319134Y-10598984D01*
X13319134Y-10598984D02*
X13300086Y-10589460D01*
X13300086Y-10589460D02*
X13290563Y-10579936D01*
X13290563Y-10579936D02*
X13281039Y-10560889D01*
X13281039Y-10560889D02*
X13271515Y-10522793D01*
X13271515Y-10522793D02*
X13271515Y-10475174D01*
X13271515Y-10475174D02*
X13281039Y-10437079D01*
X13281039Y-10437079D02*
X13290563Y-10418031D01*
X13290563Y-10418031D02*
X13300086Y-10408508D01*
X13300086Y-10408508D02*
X13319134Y-10398984D01*
X13471515Y-10579936D02*
X13481039Y-10589460D01*
X13481039Y-10589460D02*
X13471515Y-10598984D01*
X13471515Y-10598984D02*
X13461991Y-10589460D01*
X13461991Y-10589460D02*
X13471515Y-10579936D01*
X13471515Y-10579936D02*
X13471515Y-10598984D01*
X13604848Y-10398984D02*
X13623896Y-10398984D01*
X13623896Y-10398984D02*
X13642944Y-10408508D01*
X13642944Y-10408508D02*
X13652467Y-10418031D01*
X13652467Y-10418031D02*
X13661991Y-10437079D01*
X13661991Y-10437079D02*
X13671515Y-10475174D01*
X13671515Y-10475174D02*
X13671515Y-10522793D01*
X13671515Y-10522793D02*
X13661991Y-10560889D01*
X13661991Y-10560889D02*
X13652467Y-10579936D01*
X13652467Y-10579936D02*
X13642944Y-10589460D01*
X13642944Y-10589460D02*
X13623896Y-10598984D01*
X13623896Y-10598984D02*
X13604848Y-10598984D01*
X13604848Y-10598984D02*
X13585801Y-10589460D01*
X13585801Y-10589460D02*
X13576277Y-10579936D01*
X13576277Y-10579936D02*
X13566753Y-10560889D01*
X13566753Y-10560889D02*
X13557229Y-10522793D01*
X13557229Y-10522793D02*
X13557229Y-10475174D01*
X13557229Y-10475174D02*
X13566753Y-10437079D01*
X13566753Y-10437079D02*
X13576277Y-10418031D01*
X13576277Y-10418031D02*
X13585801Y-10408508D01*
X13585801Y-10408508D02*
X13604848Y-10398984D01*
X13795325Y-10398984D02*
X13814372Y-10398984D01*
X13814372Y-10398984D02*
X13833420Y-10408508D01*
X13833420Y-10408508D02*
X13842944Y-10418031D01*
X13842944Y-10418031D02*
X13852467Y-10437079D01*
X13852467Y-10437079D02*
X13861991Y-10475174D01*
X13861991Y-10475174D02*
X13861991Y-10522793D01*
X13861991Y-10522793D02*
X13852467Y-10560889D01*
X13852467Y-10560889D02*
X13842944Y-10579936D01*
X13842944Y-10579936D02*
X13833420Y-10589460D01*
X13833420Y-10589460D02*
X13814372Y-10598984D01*
X13814372Y-10598984D02*
X13795325Y-10598984D01*
X13795325Y-10598984D02*
X13776277Y-10589460D01*
X13776277Y-10589460D02*
X13766753Y-10579936D01*
X13766753Y-10579936D02*
X13757229Y-10560889D01*
X13757229Y-10560889D02*
X13747706Y-10522793D01*
X13747706Y-10522793D02*
X13747706Y-10475174D01*
X13747706Y-10475174D02*
X13757229Y-10437079D01*
X13757229Y-10437079D02*
X13766753Y-10418031D01*
X13766753Y-10418031D02*
X13776277Y-10408508D01*
X13776277Y-10408508D02*
X13795325Y-10398984D01*
X13957229Y-10598984D02*
X13995325Y-10598984D01*
X13995325Y-10598984D02*
X14014372Y-10589460D01*
X14014372Y-10589460D02*
X14023896Y-10579936D01*
X14023896Y-10579936D02*
X14042944Y-10551365D01*
X14042944Y-10551365D02*
X14052467Y-10513270D01*
X14052467Y-10513270D02*
X14052467Y-10437079D01*
X14052467Y-10437079D02*
X14042944Y-10418031D01*
X14042944Y-10418031D02*
X14033420Y-10408508D01*
X14033420Y-10408508D02*
X14014372Y-10398984D01*
X14014372Y-10398984D02*
X13976277Y-10398984D01*
X13976277Y-10398984D02*
X13957229Y-10408508D01*
X13957229Y-10408508D02*
X13947706Y-10418031D01*
X13947706Y-10418031D02*
X13938182Y-10437079D01*
X13938182Y-10437079D02*
X13938182Y-10484698D01*
X13938182Y-10484698D02*
X13947706Y-10503746D01*
X13947706Y-10503746D02*
X13957229Y-10513270D01*
X13957229Y-10513270D02*
X13976277Y-10522793D01*
X13976277Y-10522793D02*
X14014372Y-10522793D01*
X14014372Y-10522793D02*
X14033420Y-10513270D01*
X14033420Y-10513270D02*
X14042944Y-10503746D01*
X14042944Y-10503746D02*
X14052467Y-10484698D01*
X14166753Y-10484698D02*
X14147706Y-10475174D01*
X14147706Y-10475174D02*
X14138182Y-10465650D01*
X14138182Y-10465650D02*
X14128658Y-10446603D01*
X14128658Y-10446603D02*
X14128658Y-10437079D01*
X14128658Y-10437079D02*
X14138182Y-10418031D01*
X14138182Y-10418031D02*
X14147706Y-10408508D01*
X14147706Y-10408508D02*
X14166753Y-10398984D01*
X14166753Y-10398984D02*
X14204848Y-10398984D01*
X14204848Y-10398984D02*
X14223896Y-10408508D01*
X14223896Y-10408508D02*
X14233420Y-10418031D01*
X14233420Y-10418031D02*
X14242944Y-10437079D01*
X14242944Y-10437079D02*
X14242944Y-10446603D01*
X14242944Y-10446603D02*
X14233420Y-10465650D01*
X14233420Y-10465650D02*
X14223896Y-10475174D01*
X14223896Y-10475174D02*
X14204848Y-10484698D01*
X14204848Y-10484698D02*
X14166753Y-10484698D01*
X14166753Y-10484698D02*
X14147706Y-10494222D01*
X14147706Y-10494222D02*
X14138182Y-10503746D01*
X14138182Y-10503746D02*
X14128658Y-10522793D01*
X14128658Y-10522793D02*
X14128658Y-10560889D01*
X14128658Y-10560889D02*
X14138182Y-10579936D01*
X14138182Y-10579936D02*
X14147706Y-10589460D01*
X14147706Y-10589460D02*
X14166753Y-10598984D01*
X14166753Y-10598984D02*
X14204848Y-10598984D01*
X14204848Y-10598984D02*
X14223896Y-10589460D01*
X14223896Y-10589460D02*
X14233420Y-10579936D01*
X14233420Y-10579936D02*
X14242944Y-10560889D01*
X14242944Y-10560889D02*
X14242944Y-10522793D01*
X14242944Y-10522793D02*
X14233420Y-10503746D01*
X14233420Y-10503746D02*
X14223896Y-10494222D01*
X14223896Y-10494222D02*
X14204848Y-10484698D01*
X14319134Y-10398984D02*
X14319134Y-10437079D01*
X14395325Y-10398984D02*
X14395325Y-10437079D01*
X14690563Y-10675174D02*
X14681039Y-10665650D01*
X14681039Y-10665650D02*
X14661991Y-10637079D01*
X14661991Y-10637079D02*
X14652468Y-10618031D01*
X14652468Y-10618031D02*
X14642944Y-10589460D01*
X14642944Y-10589460D02*
X14633420Y-10541841D01*
X14633420Y-10541841D02*
X14633420Y-10503746D01*
X14633420Y-10503746D02*
X14642944Y-10456127D01*
X14642944Y-10456127D02*
X14652468Y-10427555D01*
X14652468Y-10427555D02*
X14661991Y-10408508D01*
X14661991Y-10408508D02*
X14681039Y-10379936D01*
X14681039Y-10379936D02*
X14690563Y-10370412D01*
X14852468Y-10465650D02*
X14852468Y-10598984D01*
X14804848Y-10389460D02*
X14757229Y-10532317D01*
X14757229Y-10532317D02*
X14881039Y-10532317D01*
X15109610Y-10598984D02*
X15109610Y-10398984D01*
X15195325Y-10598984D02*
X15195325Y-10494222D01*
X15195325Y-10494222D02*
X15185801Y-10475174D01*
X15185801Y-10475174D02*
X15166753Y-10465650D01*
X15166753Y-10465650D02*
X15138182Y-10465650D01*
X15138182Y-10465650D02*
X15119134Y-10475174D01*
X15119134Y-10475174D02*
X15109610Y-10484698D01*
X15319134Y-10598984D02*
X15300087Y-10589460D01*
X15300087Y-10589460D02*
X15290563Y-10579936D01*
X15290563Y-10579936D02*
X15281039Y-10560889D01*
X15281039Y-10560889D02*
X15281039Y-10503746D01*
X15281039Y-10503746D02*
X15290563Y-10484698D01*
X15290563Y-10484698D02*
X15300087Y-10475174D01*
X15300087Y-10475174D02*
X15319134Y-10465650D01*
X15319134Y-10465650D02*
X15347706Y-10465650D01*
X15347706Y-10465650D02*
X15366753Y-10475174D01*
X15366753Y-10475174D02*
X15376277Y-10484698D01*
X15376277Y-10484698D02*
X15385801Y-10503746D01*
X15385801Y-10503746D02*
X15385801Y-10560889D01*
X15385801Y-10560889D02*
X15376277Y-10579936D01*
X15376277Y-10579936D02*
X15366753Y-10589460D01*
X15366753Y-10589460D02*
X15347706Y-10598984D01*
X15347706Y-10598984D02*
X15319134Y-10598984D01*
X15500087Y-10598984D02*
X15481039Y-10589460D01*
X15481039Y-10589460D02*
X15471515Y-10570412D01*
X15471515Y-10570412D02*
X15471515Y-10398984D01*
X15652468Y-10589460D02*
X15633420Y-10598984D01*
X15633420Y-10598984D02*
X15595325Y-10598984D01*
X15595325Y-10598984D02*
X15576277Y-10589460D01*
X15576277Y-10589460D02*
X15566753Y-10570412D01*
X15566753Y-10570412D02*
X15566753Y-10494222D01*
X15566753Y-10494222D02*
X15576277Y-10475174D01*
X15576277Y-10475174D02*
X15595325Y-10465650D01*
X15595325Y-10465650D02*
X15633420Y-10465650D01*
X15633420Y-10465650D02*
X15652468Y-10475174D01*
X15652468Y-10475174D02*
X15661991Y-10494222D01*
X15661991Y-10494222D02*
X15661991Y-10513270D01*
X15661991Y-10513270D02*
X15566753Y-10532317D01*
X15738182Y-10589460D02*
X15757230Y-10598984D01*
X15757230Y-10598984D02*
X15795325Y-10598984D01*
X15795325Y-10598984D02*
X15814372Y-10589460D01*
X15814372Y-10589460D02*
X15823896Y-10570412D01*
X15823896Y-10570412D02*
X15823896Y-10560889D01*
X15823896Y-10560889D02*
X15814372Y-10541841D01*
X15814372Y-10541841D02*
X15795325Y-10532317D01*
X15795325Y-10532317D02*
X15766753Y-10532317D01*
X15766753Y-10532317D02*
X15747706Y-10522793D01*
X15747706Y-10522793D02*
X15738182Y-10503746D01*
X15738182Y-10503746D02*
X15738182Y-10494222D01*
X15738182Y-10494222D02*
X15747706Y-10475174D01*
X15747706Y-10475174D02*
X15766753Y-10465650D01*
X15766753Y-10465650D02*
X15795325Y-10465650D01*
X15795325Y-10465650D02*
X15814372Y-10475174D01*
X15890563Y-10675174D02*
X15900087Y-10665650D01*
X15900087Y-10665650D02*
X15919134Y-10637079D01*
X15919134Y-10637079D02*
X15928658Y-10618031D01*
X15928658Y-10618031D02*
X15938182Y-10589460D01*
X15938182Y-10589460D02*
X15947706Y-10541841D01*
X15947706Y-10541841D02*
X15947706Y-10503746D01*
X15947706Y-10503746D02*
X15938182Y-10456127D01*
X15938182Y-10456127D02*
X15928658Y-10427555D01*
X15928658Y-10427555D02*
X15919134Y-10408508D01*
X15919134Y-10408508D02*
X15900087Y-10379936D01*
X15900087Y-10379936D02*
X15890563Y-10370412D01*
D12*
X11102500Y-10758500D02*
X11102500Y-10784500D01*
X11089500Y-10771500D02*
X11115500Y-10771500D01*
D11*
X11414372Y-10662984D02*
X11433420Y-10662984D01*
X11433420Y-10662984D02*
X11452467Y-10672508D01*
X11452467Y-10672508D02*
X11461991Y-10682031D01*
X11461991Y-10682031D02*
X11471515Y-10701079D01*
X11471515Y-10701079D02*
X11481039Y-10739174D01*
X11481039Y-10739174D02*
X11481039Y-10786793D01*
X11481039Y-10786793D02*
X11471515Y-10824889D01*
X11471515Y-10824889D02*
X11461991Y-10843936D01*
X11461991Y-10843936D02*
X11452467Y-10853460D01*
X11452467Y-10853460D02*
X11433420Y-10862984D01*
X11433420Y-10862984D02*
X11414372Y-10862984D01*
X11414372Y-10862984D02*
X11395324Y-10853460D01*
X11395324Y-10853460D02*
X11385801Y-10843936D01*
X11385801Y-10843936D02*
X11376277Y-10824889D01*
X11376277Y-10824889D02*
X11366753Y-10786793D01*
X11366753Y-10786793D02*
X11366753Y-10739174D01*
X11366753Y-10739174D02*
X11376277Y-10701079D01*
X11376277Y-10701079D02*
X11385801Y-10682031D01*
X11385801Y-10682031D02*
X11395324Y-10672508D01*
X11395324Y-10672508D02*
X11414372Y-10662984D01*
X11566753Y-10843936D02*
X11576277Y-10853460D01*
X11576277Y-10853460D02*
X11566753Y-10862984D01*
X11566753Y-10862984D02*
X11557229Y-10853460D01*
X11557229Y-10853460D02*
X11566753Y-10843936D01*
X11566753Y-10843936D02*
X11566753Y-10862984D01*
X11652467Y-10682031D02*
X11661991Y-10672508D01*
X11661991Y-10672508D02*
X11681039Y-10662984D01*
X11681039Y-10662984D02*
X11728658Y-10662984D01*
X11728658Y-10662984D02*
X11747705Y-10672508D01*
X11747705Y-10672508D02*
X11757229Y-10682031D01*
X11757229Y-10682031D02*
X11766753Y-10701079D01*
X11766753Y-10701079D02*
X11766753Y-10720127D01*
X11766753Y-10720127D02*
X11757229Y-10748698D01*
X11757229Y-10748698D02*
X11642943Y-10862984D01*
X11642943Y-10862984D02*
X11766753Y-10862984D01*
X11938182Y-10662984D02*
X11900086Y-10662984D01*
X11900086Y-10662984D02*
X11881039Y-10672508D01*
X11881039Y-10672508D02*
X11871515Y-10682031D01*
X11871515Y-10682031D02*
X11852467Y-10710603D01*
X11852467Y-10710603D02*
X11842943Y-10748698D01*
X11842943Y-10748698D02*
X11842943Y-10824889D01*
X11842943Y-10824889D02*
X11852467Y-10843936D01*
X11852467Y-10843936D02*
X11861991Y-10853460D01*
X11861991Y-10853460D02*
X11881039Y-10862984D01*
X11881039Y-10862984D02*
X11919134Y-10862984D01*
X11919134Y-10862984D02*
X11938182Y-10853460D01*
X11938182Y-10853460D02*
X11947705Y-10843936D01*
X11947705Y-10843936D02*
X11957229Y-10824889D01*
X11957229Y-10824889D02*
X11957229Y-10777270D01*
X11957229Y-10777270D02*
X11947705Y-10758222D01*
X11947705Y-10758222D02*
X11938182Y-10748698D01*
X11938182Y-10748698D02*
X11919134Y-10739174D01*
X11919134Y-10739174D02*
X11881039Y-10739174D01*
X11881039Y-10739174D02*
X11861991Y-10748698D01*
X11861991Y-10748698D02*
X11852467Y-10758222D01*
X11852467Y-10758222D02*
X11842943Y-10777270D01*
X12081039Y-10662984D02*
X12100086Y-10662984D01*
X12100086Y-10662984D02*
X12119134Y-10672508D01*
X12119134Y-10672508D02*
X12128658Y-10682031D01*
X12128658Y-10682031D02*
X12138182Y-10701079D01*
X12138182Y-10701079D02*
X12147705Y-10739174D01*
X12147705Y-10739174D02*
X12147705Y-10786793D01*
X12147705Y-10786793D02*
X12138182Y-10824889D01*
X12138182Y-10824889D02*
X12128658Y-10843936D01*
X12128658Y-10843936D02*
X12119134Y-10853460D01*
X12119134Y-10853460D02*
X12100086Y-10862984D01*
X12100086Y-10862984D02*
X12081039Y-10862984D01*
X12081039Y-10862984D02*
X12061991Y-10853460D01*
X12061991Y-10853460D02*
X12052467Y-10843936D01*
X12052467Y-10843936D02*
X12042943Y-10824889D01*
X12042943Y-10824889D02*
X12033420Y-10786793D01*
X12033420Y-10786793D02*
X12033420Y-10739174D01*
X12033420Y-10739174D02*
X12042943Y-10701079D01*
X12042943Y-10701079D02*
X12052467Y-10682031D01*
X12052467Y-10682031D02*
X12061991Y-10672508D01*
X12061991Y-10672508D02*
X12081039Y-10662984D01*
X12233420Y-10862984D02*
X12233420Y-10729650D01*
X12233420Y-10748698D02*
X12242943Y-10739174D01*
X12242943Y-10739174D02*
X12261991Y-10729650D01*
X12261991Y-10729650D02*
X12290563Y-10729650D01*
X12290563Y-10729650D02*
X12309610Y-10739174D01*
X12309610Y-10739174D02*
X12319134Y-10758222D01*
X12319134Y-10758222D02*
X12319134Y-10862984D01*
X12319134Y-10758222D02*
X12328658Y-10739174D01*
X12328658Y-10739174D02*
X12347705Y-10729650D01*
X12347705Y-10729650D02*
X12376277Y-10729650D01*
X12376277Y-10729650D02*
X12395324Y-10739174D01*
X12395324Y-10739174D02*
X12404848Y-10758222D01*
X12404848Y-10758222D02*
X12404848Y-10862984D01*
X12500086Y-10862984D02*
X12500086Y-10729650D01*
X12500086Y-10748698D02*
X12509610Y-10739174D01*
X12509610Y-10739174D02*
X12528658Y-10729650D01*
X12528658Y-10729650D02*
X12557229Y-10729650D01*
X12557229Y-10729650D02*
X12576277Y-10739174D01*
X12576277Y-10739174D02*
X12585801Y-10758222D01*
X12585801Y-10758222D02*
X12585801Y-10862984D01*
X12585801Y-10758222D02*
X12595324Y-10739174D01*
X12595324Y-10739174D02*
X12614372Y-10729650D01*
X12614372Y-10729650D02*
X12642943Y-10729650D01*
X12642943Y-10729650D02*
X12661991Y-10739174D01*
X12661991Y-10739174D02*
X12671515Y-10758222D01*
X12671515Y-10758222D02*
X12671515Y-10862984D01*
X13061991Y-10653460D02*
X12890563Y-10910603D01*
X13319134Y-10662984D02*
X13338182Y-10662984D01*
X13338182Y-10662984D02*
X13357229Y-10672508D01*
X13357229Y-10672508D02*
X13366753Y-10682031D01*
X13366753Y-10682031D02*
X13376277Y-10701079D01*
X13376277Y-10701079D02*
X13385801Y-10739174D01*
X13385801Y-10739174D02*
X13385801Y-10786793D01*
X13385801Y-10786793D02*
X13376277Y-10824889D01*
X13376277Y-10824889D02*
X13366753Y-10843936D01*
X13366753Y-10843936D02*
X13357229Y-10853460D01*
X13357229Y-10853460D02*
X13338182Y-10862984D01*
X13338182Y-10862984D02*
X13319134Y-10862984D01*
X13319134Y-10862984D02*
X13300086Y-10853460D01*
X13300086Y-10853460D02*
X13290563Y-10843936D01*
X13290563Y-10843936D02*
X13281039Y-10824889D01*
X13281039Y-10824889D02*
X13271515Y-10786793D01*
X13271515Y-10786793D02*
X13271515Y-10739174D01*
X13271515Y-10739174D02*
X13281039Y-10701079D01*
X13281039Y-10701079D02*
X13290563Y-10682031D01*
X13290563Y-10682031D02*
X13300086Y-10672508D01*
X13300086Y-10672508D02*
X13319134Y-10662984D01*
X13471515Y-10843936D02*
X13481039Y-10853460D01*
X13481039Y-10853460D02*
X13471515Y-10862984D01*
X13471515Y-10862984D02*
X13461991Y-10853460D01*
X13461991Y-10853460D02*
X13471515Y-10843936D01*
X13471515Y-10843936D02*
X13471515Y-10862984D01*
X13604848Y-10662984D02*
X13623896Y-10662984D01*
X13623896Y-10662984D02*
X13642944Y-10672508D01*
X13642944Y-10672508D02*
X13652467Y-10682031D01*
X13652467Y-10682031D02*
X13661991Y-10701079D01*
X13661991Y-10701079D02*
X13671515Y-10739174D01*
X13671515Y-10739174D02*
X13671515Y-10786793D01*
X13671515Y-10786793D02*
X13661991Y-10824889D01*
X13661991Y-10824889D02*
X13652467Y-10843936D01*
X13652467Y-10843936D02*
X13642944Y-10853460D01*
X13642944Y-10853460D02*
X13623896Y-10862984D01*
X13623896Y-10862984D02*
X13604848Y-10862984D01*
X13604848Y-10862984D02*
X13585801Y-10853460D01*
X13585801Y-10853460D02*
X13576277Y-10843936D01*
X13576277Y-10843936D02*
X13566753Y-10824889D01*
X13566753Y-10824889D02*
X13557229Y-10786793D01*
X13557229Y-10786793D02*
X13557229Y-10739174D01*
X13557229Y-10739174D02*
X13566753Y-10701079D01*
X13566753Y-10701079D02*
X13576277Y-10682031D01*
X13576277Y-10682031D02*
X13585801Y-10672508D01*
X13585801Y-10672508D02*
X13604848Y-10662984D01*
X13861991Y-10862984D02*
X13747706Y-10862984D01*
X13804848Y-10862984D02*
X13804848Y-10662984D01*
X13804848Y-10662984D02*
X13785801Y-10691555D01*
X13785801Y-10691555D02*
X13766753Y-10710603D01*
X13766753Y-10710603D02*
X13747706Y-10720127D01*
X13985801Y-10662984D02*
X14004848Y-10662984D01*
X14004848Y-10662984D02*
X14023896Y-10672508D01*
X14023896Y-10672508D02*
X14033420Y-10682031D01*
X14033420Y-10682031D02*
X14042944Y-10701079D01*
X14042944Y-10701079D02*
X14052467Y-10739174D01*
X14052467Y-10739174D02*
X14052467Y-10786793D01*
X14052467Y-10786793D02*
X14042944Y-10824889D01*
X14042944Y-10824889D02*
X14033420Y-10843936D01*
X14033420Y-10843936D02*
X14023896Y-10853460D01*
X14023896Y-10853460D02*
X14004848Y-10862984D01*
X14004848Y-10862984D02*
X13985801Y-10862984D01*
X13985801Y-10862984D02*
X13966753Y-10853460D01*
X13966753Y-10853460D02*
X13957229Y-10843936D01*
X13957229Y-10843936D02*
X13947706Y-10824889D01*
X13947706Y-10824889D02*
X13938182Y-10786793D01*
X13938182Y-10786793D02*
X13938182Y-10739174D01*
X13938182Y-10739174D02*
X13947706Y-10701079D01*
X13947706Y-10701079D02*
X13957229Y-10682031D01*
X13957229Y-10682031D02*
X13966753Y-10672508D01*
X13966753Y-10672508D02*
X13985801Y-10662984D01*
X14128658Y-10682031D02*
X14138182Y-10672508D01*
X14138182Y-10672508D02*
X14157229Y-10662984D01*
X14157229Y-10662984D02*
X14204848Y-10662984D01*
X14204848Y-10662984D02*
X14223896Y-10672508D01*
X14223896Y-10672508D02*
X14233420Y-10682031D01*
X14233420Y-10682031D02*
X14242944Y-10701079D01*
X14242944Y-10701079D02*
X14242944Y-10720127D01*
X14242944Y-10720127D02*
X14233420Y-10748698D01*
X14233420Y-10748698D02*
X14119134Y-10862984D01*
X14119134Y-10862984D02*
X14242944Y-10862984D01*
X14319134Y-10662984D02*
X14319134Y-10701079D01*
X14395325Y-10662984D02*
X14395325Y-10701079D01*
X14690563Y-10939174D02*
X14681039Y-10929650D01*
X14681039Y-10929650D02*
X14661991Y-10901079D01*
X14661991Y-10901079D02*
X14652468Y-10882031D01*
X14652468Y-10882031D02*
X14642944Y-10853460D01*
X14642944Y-10853460D02*
X14633420Y-10805841D01*
X14633420Y-10805841D02*
X14633420Y-10767746D01*
X14633420Y-10767746D02*
X14642944Y-10720127D01*
X14642944Y-10720127D02*
X14652468Y-10691555D01*
X14652468Y-10691555D02*
X14661991Y-10672508D01*
X14661991Y-10672508D02*
X14681039Y-10643936D01*
X14681039Y-10643936D02*
X14690563Y-10634412D01*
X14871515Y-10862984D02*
X14757229Y-10862984D01*
X14814372Y-10862984D02*
X14814372Y-10662984D01*
X14814372Y-10662984D02*
X14795325Y-10691555D01*
X14795325Y-10691555D02*
X14776277Y-10710603D01*
X14776277Y-10710603D02*
X14757229Y-10720127D01*
X14985801Y-10748698D02*
X14966753Y-10739174D01*
X14966753Y-10739174D02*
X14957229Y-10729650D01*
X14957229Y-10729650D02*
X14947706Y-10710603D01*
X14947706Y-10710603D02*
X14947706Y-10701079D01*
X14947706Y-10701079D02*
X14957229Y-10682031D01*
X14957229Y-10682031D02*
X14966753Y-10672508D01*
X14966753Y-10672508D02*
X14985801Y-10662984D01*
X14985801Y-10662984D02*
X15023896Y-10662984D01*
X15023896Y-10662984D02*
X15042944Y-10672508D01*
X15042944Y-10672508D02*
X15052468Y-10682031D01*
X15052468Y-10682031D02*
X15061991Y-10701079D01*
X15061991Y-10701079D02*
X15061991Y-10710603D01*
X15061991Y-10710603D02*
X15052468Y-10729650D01*
X15052468Y-10729650D02*
X15042944Y-10739174D01*
X15042944Y-10739174D02*
X15023896Y-10748698D01*
X15023896Y-10748698D02*
X14985801Y-10748698D01*
X14985801Y-10748698D02*
X14966753Y-10758222D01*
X14966753Y-10758222D02*
X14957229Y-10767746D01*
X14957229Y-10767746D02*
X14947706Y-10786793D01*
X14947706Y-10786793D02*
X14947706Y-10824889D01*
X14947706Y-10824889D02*
X14957229Y-10843936D01*
X14957229Y-10843936D02*
X14966753Y-10853460D01*
X14966753Y-10853460D02*
X14985801Y-10862984D01*
X14985801Y-10862984D02*
X15023896Y-10862984D01*
X15023896Y-10862984D02*
X15042944Y-10853460D01*
X15042944Y-10853460D02*
X15052468Y-10843936D01*
X15052468Y-10843936D02*
X15061991Y-10824889D01*
X15061991Y-10824889D02*
X15061991Y-10786793D01*
X15061991Y-10786793D02*
X15052468Y-10767746D01*
X15052468Y-10767746D02*
X15042944Y-10758222D01*
X15042944Y-10758222D02*
X15023896Y-10748698D01*
X15300087Y-10862984D02*
X15300087Y-10662984D01*
X15385801Y-10862984D02*
X15385801Y-10758222D01*
X15385801Y-10758222D02*
X15376277Y-10739174D01*
X15376277Y-10739174D02*
X15357230Y-10729650D01*
X15357230Y-10729650D02*
X15328658Y-10729650D01*
X15328658Y-10729650D02*
X15309610Y-10739174D01*
X15309610Y-10739174D02*
X15300087Y-10748698D01*
X15509610Y-10862984D02*
X15490563Y-10853460D01*
X15490563Y-10853460D02*
X15481039Y-10843936D01*
X15481039Y-10843936D02*
X15471515Y-10824889D01*
X15471515Y-10824889D02*
X15471515Y-10767746D01*
X15471515Y-10767746D02*
X15481039Y-10748698D01*
X15481039Y-10748698D02*
X15490563Y-10739174D01*
X15490563Y-10739174D02*
X15509610Y-10729650D01*
X15509610Y-10729650D02*
X15538182Y-10729650D01*
X15538182Y-10729650D02*
X15557230Y-10739174D01*
X15557230Y-10739174D02*
X15566753Y-10748698D01*
X15566753Y-10748698D02*
X15576277Y-10767746D01*
X15576277Y-10767746D02*
X15576277Y-10824889D01*
X15576277Y-10824889D02*
X15566753Y-10843936D01*
X15566753Y-10843936D02*
X15557230Y-10853460D01*
X15557230Y-10853460D02*
X15538182Y-10862984D01*
X15538182Y-10862984D02*
X15509610Y-10862984D01*
X15690563Y-10862984D02*
X15671515Y-10853460D01*
X15671515Y-10853460D02*
X15661991Y-10834412D01*
X15661991Y-10834412D02*
X15661991Y-10662984D01*
X15842944Y-10853460D02*
X15823896Y-10862984D01*
X15823896Y-10862984D02*
X15785801Y-10862984D01*
X15785801Y-10862984D02*
X15766753Y-10853460D01*
X15766753Y-10853460D02*
X15757230Y-10834412D01*
X15757230Y-10834412D02*
X15757230Y-10758222D01*
X15757230Y-10758222D02*
X15766753Y-10739174D01*
X15766753Y-10739174D02*
X15785801Y-10729650D01*
X15785801Y-10729650D02*
X15823896Y-10729650D01*
X15823896Y-10729650D02*
X15842944Y-10739174D01*
X15842944Y-10739174D02*
X15852468Y-10758222D01*
X15852468Y-10758222D02*
X15852468Y-10777270D01*
X15852468Y-10777270D02*
X15757230Y-10796317D01*
X15928658Y-10853460D02*
X15947706Y-10862984D01*
X15947706Y-10862984D02*
X15985801Y-10862984D01*
X15985801Y-10862984D02*
X16004849Y-10853460D01*
X16004849Y-10853460D02*
X16014372Y-10834412D01*
X16014372Y-10834412D02*
X16014372Y-10824889D01*
X16014372Y-10824889D02*
X16004849Y-10805841D01*
X16004849Y-10805841D02*
X15985801Y-10796317D01*
X15985801Y-10796317D02*
X15957230Y-10796317D01*
X15957230Y-10796317D02*
X15938182Y-10786793D01*
X15938182Y-10786793D02*
X15928658Y-10767746D01*
X15928658Y-10767746D02*
X15928658Y-10758222D01*
X15928658Y-10758222D02*
X15938182Y-10739174D01*
X15938182Y-10739174D02*
X15957230Y-10729650D01*
X15957230Y-10729650D02*
X15985801Y-10729650D01*
X15985801Y-10729650D02*
X16004849Y-10739174D01*
X16081039Y-10939174D02*
X16090563Y-10929650D01*
X16090563Y-10929650D02*
X16109611Y-10901079D01*
X16109611Y-10901079D02*
X16119134Y-10882031D01*
X16119134Y-10882031D02*
X16128658Y-10853460D01*
X16128658Y-10853460D02*
X16138182Y-10805841D01*
X16138182Y-10805841D02*
X16138182Y-10767746D01*
X16138182Y-10767746D02*
X16128658Y-10720127D01*
X16128658Y-10720127D02*
X16119134Y-10691555D01*
X16119134Y-10691555D02*
X16109611Y-10672508D01*
X16109611Y-10672508D02*
X16090563Y-10643936D01*
X16090563Y-10643936D02*
X16081039Y-10634412D01*
M02*
