%TF.GenerationSoftware,KiCad,Pcbnew,8.0.8*%
%TF.CreationDate,2025-04-24T20:49:58+02:00*%
%TF.ProjectId,IMU_PCBs,494d555f-5043-4427-932e-6b696361645f,rev?*%
%TF.SameCoordinates,Original*%
%TF.FileFunction,Paste,Top*%
%TF.FilePolarity,Positive*%
%FSLAX46Y46*%
G04 Gerber Fmt 4.6, Leading zero omitted, Abs format (unit mm)*
G04 Created by KiCad (PCBNEW 8.0.8) date 2025-04-24 20:49:58*
%MOMM*%
%LPD*%
G01*
G04 APERTURE LIST*
G04 Aperture macros list*
%AMRoundRect*
0 Rectangle with rounded corners*
0 $1 Rounding radius*
0 $2 $3 $4 $5 $6 $7 $8 $9 X,Y pos of 4 corners*
0 Add a 4 corners polygon primitive as box body*
4,1,4,$2,$3,$4,$5,$6,$7,$8,$9,$2,$3,0*
0 Add four circle primitives for the rounded corners*
1,1,$1+$1,$2,$3*
1,1,$1+$1,$4,$5*
1,1,$1+$1,$6,$7*
1,1,$1+$1,$8,$9*
0 Add four rect primitives between the rounded corners*
20,1,$1+$1,$2,$3,$4,$5,0*
20,1,$1+$1,$4,$5,$6,$7,0*
20,1,$1+$1,$6,$7,$8,$9,0*
20,1,$1+$1,$8,$9,$2,$3,0*%
G04 Aperture macros list end*
%ADD10RoundRect,0.225000X0.250000X-0.225000X0.250000X0.225000X-0.250000X0.225000X-0.250000X-0.225000X0*%
%ADD11RoundRect,0.087500X-0.207500X-0.087500X0.207500X-0.087500X0.207500X0.087500X-0.207500X0.087500X0*%
%ADD12RoundRect,0.087500X-0.087500X-0.207500X0.087500X-0.207500X0.087500X0.207500X-0.087500X0.207500X0*%
%ADD13RoundRect,0.375000X-0.375000X0.625000X-0.375000X-0.625000X0.375000X-0.625000X0.375000X0.625000X0*%
%ADD14RoundRect,0.225000X-0.250000X0.225000X-0.250000X-0.225000X0.250000X-0.225000X0.250000X0.225000X0*%
%ADD15RoundRect,0.375000X0.375000X-0.625000X0.375000X0.625000X-0.375000X0.625000X-0.375000X-0.625000X0*%
%ADD16RoundRect,0.237500X0.250000X0.237500X-0.250000X0.237500X-0.250000X-0.237500X0.250000X-0.237500X0*%
%ADD17RoundRect,0.087500X-0.087500X0.207500X-0.087500X-0.207500X0.087500X-0.207500X0.087500X0.207500X0*%
%ADD18RoundRect,0.087500X-0.207500X0.087500X-0.207500X-0.087500X0.207500X-0.087500X0.207500X0.087500X0*%
%ADD19RoundRect,0.375000X0.375000X-0.875000X0.375000X0.875000X-0.375000X0.875000X-0.375000X-0.875000X0*%
%ADD20RoundRect,0.225000X0.225000X0.250000X-0.225000X0.250000X-0.225000X-0.250000X0.225000X-0.250000X0*%
%ADD21RoundRect,0.218750X-0.218750X-0.256250X0.218750X-0.256250X0.218750X0.256250X-0.218750X0.256250X0*%
%ADD22RoundRect,0.237500X0.300000X0.237500X-0.300000X0.237500X-0.300000X-0.237500X0.300000X-0.237500X0*%
%ADD23RoundRect,0.237500X-0.250000X-0.237500X0.250000X-0.237500X0.250000X0.237500X-0.250000X0.237500X0*%
%ADD24RoundRect,0.237500X0.237500X-0.300000X0.237500X0.300000X-0.237500X0.300000X-0.237500X-0.300000X0*%
%ADD25RoundRect,0.375000X-0.375000X0.875000X-0.375000X-0.875000X0.375000X-0.875000X0.375000X0.875000X0*%
%ADD26RoundRect,0.225000X-0.225000X-0.250000X0.225000X-0.250000X0.225000X0.250000X-0.225000X0.250000X0*%
%ADD27RoundRect,0.075000X0.075000X-0.350000X0.075000X0.350000X-0.075000X0.350000X-0.075000X-0.350000X0*%
%ADD28RoundRect,0.075000X0.350000X0.075000X-0.350000X0.075000X-0.350000X-0.075000X0.350000X-0.075000X0*%
%ADD29RoundRect,0.237500X-0.300000X-0.237500X0.300000X-0.237500X0.300000X0.237500X-0.300000X0.237500X0*%
%ADD30RoundRect,0.237500X-0.237500X0.250000X-0.237500X-0.250000X0.237500X-0.250000X0.237500X0.250000X0*%
%ADD31RoundRect,0.150000X-0.150000X0.512500X-0.150000X-0.512500X0.150000X-0.512500X0.150000X0.512500X0*%
G04 APERTURE END LIST*
D10*
%TO.C,C2*%
X133080000Y-75270000D03*
X133080000Y-73720000D03*
%TD*%
D11*
%TO.C,U1*%
X127715000Y-73720000D03*
X127715000Y-74220000D03*
X127715000Y-74720000D03*
X127715000Y-75220000D03*
D12*
X128380000Y-75385000D03*
X128880000Y-75385000D03*
X129380000Y-75385000D03*
D11*
X130045000Y-75220000D03*
X130045000Y-74720000D03*
X130045000Y-74220000D03*
X130045000Y-73720000D03*
D12*
X129380000Y-73555000D03*
X128880000Y-73555000D03*
X128380000Y-73555000D03*
%TD*%
D13*
%TO.C,J1*%
X132130000Y-70470000D03*
X129930000Y-70470000D03*
X127730000Y-70470000D03*
X125530000Y-70470000D03*
%TD*%
D14*
%TO.C,C3*%
X133080000Y-76820000D03*
X133080000Y-78370000D03*
%TD*%
D15*
%TO.C,J2*%
X127780000Y-78270000D03*
X129980000Y-78270000D03*
%TD*%
D14*
%TO.C,C1*%
X124680000Y-73670000D03*
X124680000Y-75220000D03*
%TD*%
D10*
%TO.C,C2*%
X124670000Y-88060000D03*
X124670000Y-86510000D03*
%TD*%
D16*
%TO.C,R2*%
X134295000Y-87960000D03*
X132470000Y-87960000D03*
%TD*%
D17*
%TO.C,U1*%
X129920000Y-85345000D03*
X129420000Y-85345000D03*
X128920000Y-85345000D03*
X128420000Y-85345000D03*
D18*
X128255000Y-86010000D03*
X128255000Y-86510000D03*
X128255000Y-87010000D03*
D17*
X128420000Y-87675000D03*
X128920000Y-87675000D03*
X129420000Y-87675000D03*
X129920000Y-87675000D03*
D18*
X130085000Y-87010000D03*
X130085000Y-86510000D03*
X130085000Y-86010000D03*
%TD*%
D19*
%TO.C,IMU_Conn1*%
X125170000Y-91010000D03*
X127170000Y-91010000D03*
X129170000Y-91010000D03*
X131170000Y-91010000D03*
X133170000Y-91010000D03*
%TD*%
D20*
%TO.C,C3*%
X126445000Y-84510000D03*
X124895000Y-84510000D03*
%TD*%
D10*
%TO.C,C1*%
X126170000Y-88060000D03*
X126170000Y-86510000D03*
%TD*%
D16*
%TO.C,R1*%
X134282500Y-86410000D03*
X132457500Y-86410000D03*
%TD*%
D21*
%TO.C,D1*%
X136305000Y-65580000D03*
X137880000Y-65580000D03*
%TD*%
D22*
%TO.C,C3*%
X130030000Y-65580000D03*
X128305000Y-65580000D03*
%TD*%
D23*
%TO.C,R2*%
X123255000Y-63630000D03*
X125080000Y-63630000D03*
%TD*%
D24*
%TO.C,C1*%
X132680000Y-65342500D03*
X132680000Y-63617500D03*
%TD*%
D22*
%TO.C,C2*%
X125042500Y-61930000D03*
X123317500Y-61930000D03*
%TD*%
D25*
%TO.C,IMU_Conn1*%
X132680000Y-58030000D03*
X130680000Y-58030000D03*
X128680000Y-58030000D03*
X126680000Y-58030000D03*
X124680000Y-58030000D03*
%TD*%
D26*
%TO.C,C6*%
X134705000Y-57930000D03*
X136255000Y-57930000D03*
%TD*%
D27*
%TO.C,U1*%
X127430000Y-64080000D03*
X127930000Y-64080000D03*
X128430000Y-64080000D03*
X128930000Y-64080000D03*
X129430000Y-64080000D03*
X129930000Y-64080000D03*
D28*
X130630000Y-63380000D03*
X130630000Y-62880000D03*
X130630000Y-62380000D03*
X130630000Y-61880000D03*
X130630000Y-61380000D03*
X130630000Y-60880000D03*
D27*
X129930000Y-60180000D03*
X129430000Y-60180000D03*
X128930000Y-60180000D03*
X128430000Y-60180000D03*
X127930000Y-60180000D03*
X127430000Y-60180000D03*
D28*
X126730000Y-60880000D03*
X126730000Y-61380000D03*
X126730000Y-61880000D03*
X126730000Y-62380000D03*
X126730000Y-62880000D03*
X126730000Y-63380000D03*
%TD*%
D20*
%TO.C,C5*%
X137880000Y-63980000D03*
X136330000Y-63980000D03*
%TD*%
D29*
%TO.C,C4*%
X138517500Y-61930000D03*
X140242500Y-61930000D03*
%TD*%
D23*
%TO.C,R3*%
X123255000Y-60130000D03*
X125080000Y-60130000D03*
%TD*%
D30*
%TO.C,R1*%
X139480000Y-63767500D03*
X139480000Y-65592500D03*
%TD*%
D31*
%TO.C,U2*%
X136630000Y-59792500D03*
X135680000Y-59792500D03*
X134730000Y-59792500D03*
X134730000Y-62067500D03*
X136630000Y-62067500D03*
%TD*%
M02*
