%TF.GenerationSoftware,KiCad,Pcbnew,8.0.8*%
%TF.CreationDate,2025-04-24T20:49:58+02:00*%
%TF.ProjectId,IMU_PCBs,494d555f-5043-4427-932e-6b696361645f,rev?*%
%TF.SameCoordinates,Original*%
%TF.FileFunction,Copper,L1,Top*%
%TF.FilePolarity,Positive*%
%FSLAX46Y46*%
G04 Gerber Fmt 4.6, Leading zero omitted, Abs format (unit mm)*
G04 Created by KiCad (PCBNEW 8.0.8) date 2025-04-24 20:49:58*
%MOMM*%
%LPD*%
G01*
G04 APERTURE LIST*
G04 Aperture macros list*
%AMRoundRect*
0 Rectangle with rounded corners*
0 $1 Rounding radius*
0 $2 $3 $4 $5 $6 $7 $8 $9 X,Y pos of 4 corners*
0 Add a 4 corners polygon primitive as box body*
4,1,4,$2,$3,$4,$5,$6,$7,$8,$9,$2,$3,0*
0 Add four circle primitives for the rounded corners*
1,1,$1+$1,$2,$3*
1,1,$1+$1,$4,$5*
1,1,$1+$1,$6,$7*
1,1,$1+$1,$8,$9*
0 Add four rect primitives between the rounded corners*
20,1,$1+$1,$2,$3,$4,$5,0*
20,1,$1+$1,$4,$5,$6,$7,0*
20,1,$1+$1,$6,$7,$8,$9,0*
20,1,$1+$1,$8,$9,$2,$3,0*%
G04 Aperture macros list end*
%TA.AperFunction,SMDPad,CuDef*%
%ADD10RoundRect,0.225000X0.250000X-0.225000X0.250000X0.225000X-0.250000X0.225000X-0.250000X-0.225000X0*%
%TD*%
%TA.AperFunction,SMDPad,CuDef*%
%ADD11RoundRect,0.087500X-0.207500X-0.087500X0.207500X-0.087500X0.207500X0.087500X-0.207500X0.087500X0*%
%TD*%
%TA.AperFunction,SMDPad,CuDef*%
%ADD12RoundRect,0.087500X-0.087500X-0.207500X0.087500X-0.207500X0.087500X0.207500X-0.087500X0.207500X0*%
%TD*%
%TA.AperFunction,SMDPad,CuDef*%
%ADD13RoundRect,0.375000X-0.375000X0.625000X-0.375000X-0.625000X0.375000X-0.625000X0.375000X0.625000X0*%
%TD*%
%TA.AperFunction,SMDPad,CuDef*%
%ADD14RoundRect,0.225000X-0.250000X0.225000X-0.250000X-0.225000X0.250000X-0.225000X0.250000X0.225000X0*%
%TD*%
%TA.AperFunction,SMDPad,CuDef*%
%ADD15RoundRect,0.375000X0.375000X-0.625000X0.375000X0.625000X-0.375000X0.625000X-0.375000X-0.625000X0*%
%TD*%
%TA.AperFunction,SMDPad,CuDef*%
%ADD16RoundRect,0.237500X0.250000X0.237500X-0.250000X0.237500X-0.250000X-0.237500X0.250000X-0.237500X0*%
%TD*%
%TA.AperFunction,SMDPad,CuDef*%
%ADD17RoundRect,0.087500X-0.087500X0.207500X-0.087500X-0.207500X0.087500X-0.207500X0.087500X0.207500X0*%
%TD*%
%TA.AperFunction,SMDPad,CuDef*%
%ADD18RoundRect,0.087500X-0.207500X0.087500X-0.207500X-0.087500X0.207500X-0.087500X0.207500X0.087500X0*%
%TD*%
%TA.AperFunction,SMDPad,CuDef*%
%ADD19RoundRect,0.375000X0.375000X-0.875000X0.375000X0.875000X-0.375000X0.875000X-0.375000X-0.875000X0*%
%TD*%
%TA.AperFunction,SMDPad,CuDef*%
%ADD20RoundRect,0.225000X0.225000X0.250000X-0.225000X0.250000X-0.225000X-0.250000X0.225000X-0.250000X0*%
%TD*%
%TA.AperFunction,SMDPad,CuDef*%
%ADD21RoundRect,0.218750X-0.218750X-0.256250X0.218750X-0.256250X0.218750X0.256250X-0.218750X0.256250X0*%
%TD*%
%TA.AperFunction,SMDPad,CuDef*%
%ADD22RoundRect,0.237500X0.300000X0.237500X-0.300000X0.237500X-0.300000X-0.237500X0.300000X-0.237500X0*%
%TD*%
%TA.AperFunction,SMDPad,CuDef*%
%ADD23RoundRect,0.237500X-0.250000X-0.237500X0.250000X-0.237500X0.250000X0.237500X-0.250000X0.237500X0*%
%TD*%
%TA.AperFunction,SMDPad,CuDef*%
%ADD24RoundRect,0.237500X0.237500X-0.300000X0.237500X0.300000X-0.237500X0.300000X-0.237500X-0.300000X0*%
%TD*%
%TA.AperFunction,SMDPad,CuDef*%
%ADD25RoundRect,0.375000X-0.375000X0.875000X-0.375000X-0.875000X0.375000X-0.875000X0.375000X0.875000X0*%
%TD*%
%TA.AperFunction,SMDPad,CuDef*%
%ADD26RoundRect,0.225000X-0.225000X-0.250000X0.225000X-0.250000X0.225000X0.250000X-0.225000X0.250000X0*%
%TD*%
%TA.AperFunction,SMDPad,CuDef*%
%ADD27RoundRect,0.075000X0.075000X-0.350000X0.075000X0.350000X-0.075000X0.350000X-0.075000X-0.350000X0*%
%TD*%
%TA.AperFunction,SMDPad,CuDef*%
%ADD28RoundRect,0.075000X0.350000X0.075000X-0.350000X0.075000X-0.350000X-0.075000X0.350000X-0.075000X0*%
%TD*%
%TA.AperFunction,SMDPad,CuDef*%
%ADD29RoundRect,0.237500X-0.300000X-0.237500X0.300000X-0.237500X0.300000X0.237500X-0.300000X0.237500X0*%
%TD*%
%TA.AperFunction,SMDPad,CuDef*%
%ADD30RoundRect,0.237500X-0.237500X0.250000X-0.237500X-0.250000X0.237500X-0.250000X0.237500X0.250000X0*%
%TD*%
%TA.AperFunction,SMDPad,CuDef*%
%ADD31RoundRect,0.150000X-0.150000X0.512500X-0.150000X-0.512500X0.150000X-0.512500X0.150000X0.512500X0*%
%TD*%
%TA.AperFunction,ViaPad*%
%ADD32C,0.400000*%
%TD*%
%TA.AperFunction,ViaPad*%
%ADD33C,0.550000*%
%TD*%
%TA.AperFunction,ViaPad*%
%ADD34C,0.600000*%
%TD*%
%TA.AperFunction,Conductor*%
%ADD35C,0.150000*%
%TD*%
%TA.AperFunction,Conductor*%
%ADD36C,0.300000*%
%TD*%
%TA.AperFunction,Conductor*%
%ADD37C,0.200000*%
%TD*%
%TA.AperFunction,Conductor*%
%ADD38C,0.500000*%
%TD*%
%TA.AperFunction,Conductor*%
%ADD39C,0.250000*%
%TD*%
G04 APERTURE END LIST*
D10*
%TO.P,C2,1*%
%TO.N,+3.3V*%
X133080000Y-75270000D03*
%TO.P,C2,2*%
%TO.N,GND*%
X133080000Y-73720000D03*
%TD*%
D11*
%TO.P,U1,1,AP_SDO/AP_AD0*%
%TO.N,SPI_MISO*%
X127715000Y-73720000D03*
%TO.P,U1,2,RESV_2*%
%TO.N,unconnected-(U1-RESV_2-Pad2)*%
X127715000Y-74220000D03*
%TO.P,U1,3,RESV_3*%
%TO.N,unconnected-(U1-RESV_3-Pad3)*%
X127715000Y-74720000D03*
%TO.P,U1,4,INT1/INT*%
%TO.N,INT1*%
X127715000Y-75220000D03*
D12*
%TO.P,U1,5,VDDIO*%
%TO.N,+3.3V*%
X128380000Y-75385000D03*
%TO.P,U1,6,GND*%
%TO.N,GND*%
X128880000Y-75385000D03*
%TO.P,U1,7,RESV_7*%
X129380000Y-75385000D03*
D11*
%TO.P,U1,8,VDD*%
%TO.N,+3.3V*%
X130045000Y-75220000D03*
%TO.P,U1,9,INT2/FSYNC/CLKIN*%
%TO.N,unconnected-(U1-INT2{slash}FSYNC{slash}CLKIN-Pad9)*%
X130045000Y-74720000D03*
%TO.P,U1,10,RESV_10*%
%TO.N,unconnected-(U1-RESV_10-Pad10)*%
X130045000Y-74220000D03*
%TO.P,U1,11,RESV_11*%
%TO.N,GND*%
X130045000Y-73720000D03*
D12*
%TO.P,U1,12,AP_CS*%
X129380000Y-73555000D03*
%TO.P,U1,13,AP_SCL/AP_SCLK*%
%TO.N,SPI_SCK*%
X128880000Y-73555000D03*
%TO.P,U1,14,AP_SDA/AP_SDIO/AP_SDI*%
%TO.N,SPI_MOSI*%
X128380000Y-73555000D03*
%TD*%
D13*
%TO.P,J1,1,Pin_1*%
%TO.N,INT1*%
X132130000Y-70470000D03*
%TO.P,J1,2,Pin_2*%
%TO.N,SPI_SCK*%
X129930000Y-70470000D03*
%TO.P,J1,3,Pin_3*%
%TO.N,SPI_MOSI*%
X127730000Y-70470000D03*
%TO.P,J1,4,Pin_4*%
%TO.N,SPI_MISO*%
X125530000Y-70470000D03*
%TD*%
D14*
%TO.P,C3,1*%
%TO.N,+3.3V*%
X133080000Y-76820000D03*
%TO.P,C3,2*%
%TO.N,GND*%
X133080000Y-78370000D03*
%TD*%
D15*
%TO.P,J2,1,Pin_1*%
%TO.N,+3.3V*%
X127780000Y-78270000D03*
%TO.P,J2,2,Pin_2*%
%TO.N,GND*%
X129980000Y-78270000D03*
%TD*%
D14*
%TO.P,C1,1*%
%TO.N,GND*%
X124680000Y-73670000D03*
%TO.P,C1,2*%
%TO.N,+3.3V*%
X124680000Y-75220000D03*
%TD*%
D10*
%TO.P,C2,1*%
%TO.N,+3.3V*%
X124670000Y-88060000D03*
%TO.P,C2,2*%
%TO.N,GND*%
X124670000Y-86510000D03*
%TD*%
D16*
%TO.P,R2,1*%
%TO.N,+3.3V*%
X134295000Y-87960000D03*
%TO.P,R2,2*%
%TO.N,I2C3_SCL*%
X132470000Y-87960000D03*
%TD*%
D17*
%TO.P,U1,1,AP_SDO/AP_AD0*%
%TO.N,unconnected-(U1-AP_SDO{slash}AP_AD0-Pad1)*%
X129920000Y-85345000D03*
%TO.P,U1,2,RESV_2*%
%TO.N,unconnected-(U1-RESV_2-Pad2)*%
X129420000Y-85345000D03*
%TO.P,U1,3,RESV_3*%
%TO.N,unconnected-(U1-RESV_3-Pad3)*%
X128920000Y-85345000D03*
%TO.P,U1,4,INT1/INT*%
%TO.N,I2C3_IMU_INT*%
X128420000Y-85345000D03*
D18*
%TO.P,U1,5,VDDIO*%
%TO.N,+3.3V*%
X128255000Y-86010000D03*
%TO.P,U1,6,GND*%
%TO.N,GND*%
X128255000Y-86510000D03*
%TO.P,U1,7,RESV_7*%
%TO.N,unconnected-(U1-RESV_7-Pad7)*%
X128255000Y-87010000D03*
D17*
%TO.P,U1,8,VDD*%
%TO.N,+3.3V*%
X128420000Y-87675000D03*
%TO.P,U1,9,INT2/FSYNC/CLKIN*%
%TO.N,unconnected-(U1-INT2{slash}FSYNC{slash}CLKIN-Pad9)*%
X128920000Y-87675000D03*
%TO.P,U1,10,RESV_10*%
%TO.N,unconnected-(U1-RESV_10-Pad10)*%
X129420000Y-87675000D03*
%TO.P,U1,11,RESV_11*%
%TO.N,GND*%
X129920000Y-87675000D03*
D18*
%TO.P,U1,12,AP_CS*%
%TO.N,unconnected-(U1-AP_CS-Pad12)*%
X130085000Y-87010000D03*
%TO.P,U1,13,AP_SCL/AP_SCLK*%
%TO.N,I2C3_SCL*%
X130085000Y-86510000D03*
%TO.P,U1,14,AP_SDA/AP_SDIO/AP_SDI*%
%TO.N,I2C3_SDA*%
X130085000Y-86010000D03*
%TD*%
D19*
%TO.P,IMU_Conn1,1,Pin_1*%
%TO.N,+3.3V*%
X125170000Y-91010000D03*
%TO.P,IMU_Conn1,2,Pin_2*%
%TO.N,GND*%
X127170000Y-91010000D03*
%TO.P,IMU_Conn1,3,Pin_3*%
%TO.N,I2C3_IMU_INT*%
X129170000Y-91010000D03*
%TO.P,IMU_Conn1,4,Pin_4*%
%TO.N,I2C3_SDA*%
X131170000Y-91010000D03*
%TO.P,IMU_Conn1,5,Pin_5*%
%TO.N,I2C3_SCL*%
X133170000Y-91010000D03*
%TD*%
D20*
%TO.P,C3,1*%
%TO.N,+3.3V*%
X126445000Y-84510000D03*
%TO.P,C3,2*%
%TO.N,GND*%
X124895000Y-84510000D03*
%TD*%
D10*
%TO.P,C1,1*%
%TO.N,+3.3V*%
X126170000Y-88060000D03*
%TO.P,C1,2*%
%TO.N,GND*%
X126170000Y-86510000D03*
%TD*%
D16*
%TO.P,R1,1*%
%TO.N,+3.3V*%
X134282500Y-86410000D03*
%TO.P,R1,2*%
%TO.N,I2C3_SDA*%
X132457500Y-86410000D03*
%TD*%
D21*
%TO.P,D1,1,K*%
%TO.N,GND*%
X136305000Y-65580000D03*
%TO.P,D1,2,A*%
%TO.N,Net-(D1-A)*%
X137880000Y-65580000D03*
%TD*%
D22*
%TO.P,C3,1*%
%TO.N,+3.3V*%
X130030000Y-65580000D03*
%TO.P,C3,2*%
%TO.N,GND*%
X128305000Y-65580000D03*
%TD*%
D23*
%TO.P,R2,1*%
%TO.N,+3.3V*%
X123255000Y-63630000D03*
%TO.P,R2,2*%
%TO.N,I2C3_SDA*%
X125080000Y-63630000D03*
%TD*%
D24*
%TO.P,C1,1*%
%TO.N,GND*%
X132680000Y-65342500D03*
%TO.P,C1,2*%
%TO.N,Net-(U1-REGOUT)*%
X132680000Y-63617500D03*
%TD*%
D22*
%TO.P,C2,1*%
%TO.N,Net-(U1-CPOUT)*%
X125042500Y-61930000D03*
%TO.P,C2,2*%
%TO.N,GND*%
X123317500Y-61930000D03*
%TD*%
D25*
%TO.P,IMU_Conn1,1,Pin_1*%
%TO.N,VDC*%
X132680000Y-58030000D03*
%TO.P,IMU_Conn1,2,Pin_2*%
%TO.N,GND*%
X130680000Y-58030000D03*
%TO.P,IMU_Conn1,3,Pin_3*%
%TO.N,I2C3_IMU_INT*%
X128680000Y-58030000D03*
%TO.P,IMU_Conn1,4,Pin_4*%
%TO.N,I2C3_SDA*%
X126680000Y-58030000D03*
%TO.P,IMU_Conn1,5,Pin_5*%
%TO.N,I2C3_SCL*%
X124680000Y-58030000D03*
%TD*%
D26*
%TO.P,C6,1*%
%TO.N,VDC*%
X134705000Y-57930000D03*
%TO.P,C6,2*%
%TO.N,GND*%
X136255000Y-57930000D03*
%TD*%
D27*
%TO.P,U1,1,CLKIN*%
%TO.N,GND*%
X127430000Y-64080000D03*
%TO.P,U1,2,NC*%
%TO.N,unconnected-(U1-NC-Pad2)*%
X127930000Y-64080000D03*
%TO.P,U1,3,NC*%
%TO.N,unconnected-(U1-NC-Pad3)*%
X128430000Y-64080000D03*
%TO.P,U1,4,NC*%
%TO.N,unconnected-(U1-NC-Pad4)*%
X128930000Y-64080000D03*
%TO.P,U1,5,NC*%
%TO.N,unconnected-(U1-NC-Pad5)*%
X129430000Y-64080000D03*
%TO.P,U1,6,AUX_DA*%
%TO.N,unconnected-(U1-AUX_DA-Pad6)*%
X129930000Y-64080000D03*
D28*
%TO.P,U1,7,AUX_CL*%
%TO.N,unconnected-(U1-AUX_CL-Pad7)*%
X130630000Y-63380000D03*
%TO.P,U1,8,VLOGIC*%
%TO.N,+3.3V*%
X130630000Y-62880000D03*
%TO.P,U1,9,AD0*%
%TO.N,unconnected-(U1-AD0-Pad9)*%
X130630000Y-62380000D03*
%TO.P,U1,10,REGOUT*%
%TO.N,Net-(U1-REGOUT)*%
X130630000Y-61880000D03*
%TO.P,U1,11,FSYNC*%
%TO.N,GND*%
X130630000Y-61380000D03*
%TO.P,U1,12,INT*%
%TO.N,I2C3_IMU_INT*%
X130630000Y-60880000D03*
D27*
%TO.P,U1,13,VDD*%
%TO.N,+3.3V*%
X129930000Y-60180000D03*
%TO.P,U1,14,NC*%
%TO.N,unconnected-(U1-NC-Pad14)*%
X129430000Y-60180000D03*
%TO.P,U1,15,NC*%
%TO.N,unconnected-(U1-NC-Pad15)*%
X128930000Y-60180000D03*
%TO.P,U1,16,NC*%
%TO.N,unconnected-(U1-NC-Pad16)*%
X128430000Y-60180000D03*
%TO.P,U1,17,NC*%
%TO.N,unconnected-(U1-NC-Pad17)*%
X127930000Y-60180000D03*
%TO.P,U1,18,GND*%
%TO.N,GND*%
X127430000Y-60180000D03*
D28*
%TO.P,U1,19,RESV*%
%TO.N,unconnected-(U1-RESV-Pad19)*%
X126730000Y-60880000D03*
%TO.P,U1,20,CPOUT*%
%TO.N,Net-(U1-CPOUT)*%
X126730000Y-61380000D03*
%TO.P,U1,21,RESV*%
%TO.N,unconnected-(U1-RESV-Pad21)*%
X126730000Y-61880000D03*
%TO.P,U1,22,RESV*%
%TO.N,unconnected-(U1-RESV-Pad22)*%
X126730000Y-62380000D03*
%TO.P,U1,23,SCL*%
%TO.N,I2C3_SCL*%
X126730000Y-62880000D03*
%TO.P,U1,24,SDA*%
%TO.N,I2C3_SDA*%
X126730000Y-63380000D03*
%TD*%
D20*
%TO.P,C5,1*%
%TO.N,+3.3V*%
X137880000Y-63980000D03*
%TO.P,C5,2*%
%TO.N,GND*%
X136330000Y-63980000D03*
%TD*%
D29*
%TO.P,C4,1*%
%TO.N,+3.3V*%
X138517500Y-61930000D03*
%TO.P,C4,2*%
%TO.N,GND*%
X140242500Y-61930000D03*
%TD*%
D23*
%TO.P,R3,1*%
%TO.N,+3.3V*%
X123255000Y-60130000D03*
%TO.P,R3,2*%
%TO.N,I2C3_SCL*%
X125080000Y-60130000D03*
%TD*%
D30*
%TO.P,R1,1*%
%TO.N,+3.3V*%
X139480000Y-63767500D03*
%TO.P,R1,2*%
%TO.N,Net-(D1-A)*%
X139480000Y-65592500D03*
%TD*%
D31*
%TO.P,U2,1,V_{IN}*%
%TO.N,VDC*%
X136630000Y-59792500D03*
%TO.P,U2,2,V_{SS}*%
%TO.N,GND*%
X135680000Y-59792500D03*
%TO.P,U2,3,CE*%
%TO.N,VDC*%
X134730000Y-59792500D03*
%TO.P,U2,4,NC*%
%TO.N,unconnected-(U2-NC-Pad4)*%
X134730000Y-62067500D03*
%TO.P,U2,5,V_{OUT}*%
%TO.N,+3.3V*%
X136630000Y-62067500D03*
%TD*%
D32*
%TO.N,GND*%
X128980000Y-76170000D03*
D33*
X124780000Y-72370000D03*
X125280000Y-77570000D03*
X131680000Y-77570000D03*
X131880000Y-72470000D03*
D34*
%TO.N,INT1*%
X130880000Y-72070000D03*
X126480000Y-73970000D03*
D32*
%TO.N,GND*%
X129920000Y-88210000D03*
D34*
X125420000Y-86510000D03*
X127170000Y-89310000D03*
D32*
%TO.N,I2C3_SCL*%
X133170000Y-89360000D03*
X130720000Y-86510000D03*
%TO.N,I2C3_IMU_INT*%
X128770000Y-88810000D03*
X128170000Y-84610000D03*
D34*
%TO.N,GND*%
X127430000Y-64830000D03*
X130680000Y-57930000D03*
X136330000Y-64780000D03*
X131580000Y-61380000D03*
X139730000Y-60930000D03*
X133530000Y-65342500D03*
X137930000Y-59030000D03*
X122405000Y-62080000D03*
%TO.N,+3.3V*%
X122280000Y-60280000D03*
X124530000Y-65530000D03*
X131405000Y-64080000D03*
X132780000Y-61480000D03*
X120180000Y-60280000D03*
X122230000Y-63630000D03*
D32*
%TO.N,I2C3_IMU_INT*%
X128680000Y-58780000D03*
X130630000Y-60330000D03*
%TO.N,I2C3_SDA*%
X126180000Y-59680000D03*
X123080000Y-59130000D03*
%TD*%
D35*
%TO.N,+3.3V*%
X128380000Y-76195000D02*
X128380000Y-75385000D01*
X124655000Y-75220000D02*
X126655000Y-75220000D01*
D36*
X129480000Y-76570000D02*
X130230000Y-76570000D01*
D35*
X128005000Y-76570000D02*
X128005000Y-78545000D01*
X128005000Y-78545000D02*
X127780000Y-78770000D01*
D36*
X133080000Y-76820000D02*
X133080000Y-75270000D01*
X130230000Y-76570000D02*
X131580000Y-75220000D01*
D35*
X126655000Y-75220000D02*
X128005000Y-76570000D01*
D36*
X130045000Y-75220000D02*
X133030000Y-75220000D01*
D35*
X128005000Y-76570000D02*
X128380000Y-76195000D01*
D36*
X127780000Y-78270000D02*
X129480000Y-76570000D01*
D35*
X133030000Y-75220000D02*
X133080000Y-75270000D01*
D37*
%TO.N,INT1*%
X126480000Y-74330432D02*
X126480000Y-73970000D01*
D35*
X132130000Y-70420000D02*
X132130000Y-70195000D01*
D37*
X127715000Y-75220000D02*
X127369568Y-75220000D01*
X127369568Y-75220000D02*
X126480000Y-74330432D01*
X132130000Y-70820000D02*
X132130000Y-70470000D01*
X130880000Y-72070000D02*
X132130000Y-70820000D01*
D35*
%TO.N,SPI_SCK*%
X129930000Y-71594924D02*
X129930000Y-70195000D01*
X128880000Y-73555000D02*
X128880000Y-72644924D01*
X128880000Y-72644924D02*
X129930000Y-71594924D01*
%TO.N,SPI_MOSI*%
X128380000Y-73555000D02*
X128380000Y-72570000D01*
X128380000Y-72570000D02*
X127730000Y-71920000D01*
X127730000Y-71920000D02*
X127730000Y-70195000D01*
%TO.N,SPI_MISO*%
X127715000Y-73720000D02*
X127530000Y-73720000D01*
X125530000Y-71720000D02*
X125530000Y-70195000D01*
X127530000Y-73720000D02*
X125530000Y-71720000D01*
%TO.N,unconnected-(U1-INT2{slash}FSYNC{slash}CLKIN-Pad9)*%
X129995000Y-74770000D02*
X129945000Y-74720000D01*
D38*
%TO.N,GND*%
X125420000Y-86510000D02*
X126170000Y-86510000D01*
X124670000Y-85410000D02*
X124670000Y-86510000D01*
X124895000Y-84510000D02*
X124895000Y-85185000D01*
X124670000Y-86510000D02*
X125420000Y-86510000D01*
D39*
X129920000Y-87675000D02*
X129920000Y-88210000D01*
X128255000Y-86510000D02*
X126170000Y-86510000D01*
D38*
X124895000Y-85185000D02*
X124670000Y-85410000D01*
X127170000Y-91010000D02*
X127170000Y-89310000D01*
D35*
%TO.N,+3.3V*%
X134357500Y-86460000D02*
X134279252Y-86538248D01*
%TO.N,I2C3_SCL*%
X133170000Y-88710000D02*
X132445000Y-87985000D01*
X132445000Y-87985000D02*
X132445000Y-87960000D01*
X130085000Y-86510000D02*
X130720000Y-86510000D01*
X133170000Y-89360000D02*
X133170000Y-88710000D01*
X133170000Y-91010000D02*
X133170000Y-89360000D01*
%TO.N,I2C3_SDA*%
X131170000Y-89260000D02*
X131170000Y-91010000D01*
X131420000Y-89010000D02*
X131170000Y-89260000D01*
X131420000Y-86538248D02*
X131420000Y-89010000D01*
X132457500Y-86410000D02*
X131548248Y-86410000D01*
X131548248Y-86410000D02*
X131420000Y-86538248D01*
X130085000Y-86010000D02*
X130891752Y-86010000D01*
X130891752Y-86010000D02*
X131420000Y-86538248D01*
%TO.N,I2C3_IMU_INT*%
X128420000Y-85345000D02*
X128420000Y-84810000D01*
X128420000Y-84810000D02*
X128220000Y-84610000D01*
X128770000Y-88810000D02*
X129170000Y-89210000D01*
X129170000Y-89210000D02*
X129170000Y-91010000D01*
D36*
%TO.N,GND*%
X123317500Y-61930000D02*
X122555000Y-61930000D01*
D38*
X132680000Y-65342500D02*
X133530000Y-65342500D01*
X136330000Y-63980000D02*
X136330000Y-64780000D01*
D36*
X122555000Y-61930000D02*
X122405000Y-62080000D01*
D35*
X126297526Y-60180000D02*
X125297526Y-61180000D01*
D38*
X137580000Y-57930000D02*
X136255000Y-57930000D01*
D35*
X127430000Y-60180000D02*
X126297526Y-60180000D01*
D38*
X140242500Y-61192500D02*
X139980000Y-60930000D01*
D35*
X123817500Y-61430000D02*
X123317500Y-61930000D01*
D38*
X135680000Y-59792500D02*
X135680000Y-58505000D01*
D35*
X124112475Y-61430000D02*
X123817500Y-61430000D01*
D38*
X134430000Y-65580000D02*
X136305000Y-65580000D01*
D36*
X130630000Y-61380000D02*
X131580000Y-61380000D01*
X127630000Y-65580000D02*
X128305000Y-65580000D01*
D38*
X136330000Y-64780000D02*
X136330000Y-65555000D01*
D35*
X125297526Y-61180000D02*
X124362475Y-61180000D01*
D36*
X127430000Y-64080000D02*
X127430000Y-64830000D01*
D38*
X136330000Y-65555000D02*
X136305000Y-65580000D01*
X140242500Y-61930000D02*
X140242500Y-61192500D01*
X137930000Y-58280000D02*
X137580000Y-57930000D01*
D36*
X127430000Y-65380000D02*
X127630000Y-65580000D01*
X127430000Y-64830000D02*
X127430000Y-65380000D01*
D38*
X139980000Y-60930000D02*
X139730000Y-60930000D01*
X133530000Y-65342500D02*
X134192500Y-65342500D01*
X135680000Y-58505000D02*
X136255000Y-57930000D01*
X137930000Y-59030000D02*
X137930000Y-58280000D01*
X134192500Y-65342500D02*
X134430000Y-65580000D01*
D35*
X124362475Y-61180000D02*
X124112475Y-61430000D01*
%TO.N,Net-(U1-REGOUT)*%
X132530000Y-62230000D02*
X132680000Y-62380000D01*
X132680000Y-62380000D02*
X132680000Y-63617500D01*
X131616827Y-62230000D02*
X132530000Y-62230000D01*
X131266827Y-61880000D02*
X131616827Y-62230000D01*
X130630000Y-61880000D02*
X131266827Y-61880000D01*
%TO.N,Net-(U1-CPOUT)*%
X125592500Y-61380000D02*
X125042500Y-61930000D01*
X126730000Y-61380000D02*
X125592500Y-61380000D01*
D38*
%TO.N,+3.3V*%
X138517500Y-61930000D02*
X138517500Y-63342500D01*
X136767500Y-61930000D02*
X136630000Y-62067500D01*
D36*
X129980000Y-59680000D02*
X132230000Y-59680000D01*
X129930000Y-59730000D02*
X129980000Y-59680000D01*
X131405000Y-63126880D02*
X131405000Y-64080000D01*
D38*
X138517500Y-61930000D02*
X136767500Y-61930000D01*
D36*
X131405000Y-64080000D02*
X131405000Y-65305000D01*
D38*
X138517500Y-63342500D02*
X138992500Y-63817500D01*
X138992500Y-63817500D02*
X139480000Y-63817500D01*
D36*
X131158120Y-62880000D02*
X131405000Y-63126880D01*
X131130000Y-65580000D02*
X130030000Y-65580000D01*
X129930000Y-60180000D02*
X129930000Y-59730000D01*
X123267500Y-60280000D02*
X122280000Y-60280000D01*
X132780000Y-60230000D02*
X132780000Y-61480000D01*
X132230000Y-59680000D02*
X132780000Y-60230000D01*
D38*
X138517500Y-63342500D02*
X137880000Y-63980000D01*
X123255000Y-63630000D02*
X122230000Y-63630000D01*
D36*
X131405000Y-65305000D02*
X131130000Y-65580000D01*
X130630000Y-62880000D02*
X131158120Y-62880000D01*
D38*
%TO.N,VDC*%
X135380000Y-61030000D02*
X135957684Y-61030000D01*
X134730000Y-60380000D02*
X135380000Y-61030000D01*
X136630000Y-60357684D02*
X136630000Y-59792500D01*
X134705000Y-57930000D02*
X134705000Y-59767500D01*
X134705000Y-59767500D02*
X134730000Y-59792500D01*
X132680000Y-57930000D02*
X134705000Y-57930000D01*
X134730000Y-59792500D02*
X134730000Y-60380000D01*
X135957684Y-61030000D02*
X136630000Y-60357684D01*
%TO.N,Net-(D1-A)*%
X137942500Y-65642500D02*
X137880000Y-65580000D01*
X139480000Y-65642500D02*
X137942500Y-65642500D01*
D35*
%TO.N,I2C3_IMU_INT*%
X128680000Y-58780000D02*
X128680000Y-57930000D01*
X130630000Y-60880000D02*
X130630000Y-60330000D01*
%TO.N,I2C3_SCL*%
X126730000Y-62880000D02*
X121980000Y-62880000D01*
X124167500Y-60880000D02*
X124930000Y-60117500D01*
X121680000Y-62580000D02*
X121680000Y-61280000D01*
X124930000Y-60117500D02*
X124930000Y-58180000D01*
X121980000Y-62880000D02*
X121680000Y-62580000D01*
X122080000Y-60880000D02*
X124167500Y-60880000D01*
X124930000Y-58180000D02*
X124680000Y-57930000D01*
X121680000Y-61280000D02*
X122080000Y-60880000D01*
%TO.N,I2C3_SDA*%
X121830000Y-64380000D02*
X121330000Y-63880000D01*
X125330000Y-63380000D02*
X125080000Y-63630000D01*
X121330000Y-59930000D02*
X122130000Y-59130000D01*
X126730000Y-63380000D02*
X125330000Y-63380000D01*
X125080000Y-63630000D02*
X124330000Y-64380000D01*
X126180000Y-59680000D02*
X126530000Y-59680000D01*
X126680000Y-59530000D02*
X126680000Y-57930000D01*
X126530000Y-59680000D02*
X126680000Y-59530000D01*
X124330000Y-64380000D02*
X121830000Y-64380000D01*
X122130000Y-59130000D02*
X123080000Y-59130000D01*
X121330000Y-63880000D02*
X121330000Y-59930000D01*
%TD*%
%TA.AperFunction,Conductor*%
%TO.N,GND*%
G36*
X124848641Y-69284852D02*
G01*
X124862993Y-69319500D01*
X124848641Y-69354148D01*
X124843822Y-69358374D01*
X124744549Y-69434548D01*
X124744548Y-69434549D01*
X124652302Y-69554766D01*
X124652299Y-69554771D01*
X124594312Y-69694764D01*
X124583693Y-69775425D01*
X124579500Y-69807280D01*
X124579500Y-71132720D01*
X124585091Y-71175192D01*
X124594312Y-71245235D01*
X124652299Y-71385228D01*
X124652302Y-71385233D01*
X124743481Y-71504060D01*
X124744549Y-71505451D01*
X124864767Y-71597698D01*
X124864769Y-71597698D01*
X124864771Y-71597700D01*
X124989943Y-71649548D01*
X125004764Y-71655687D01*
X125117280Y-71670500D01*
X125205500Y-71670500D01*
X125240148Y-71684852D01*
X125254500Y-71719500D01*
X125254500Y-71774800D01*
X125294109Y-71870424D01*
X125296443Y-71876058D01*
X125296445Y-71876060D01*
X127205148Y-73784764D01*
X127219500Y-73819410D01*
X127219500Y-73850499D01*
X127219501Y-73850508D01*
X127222293Y-73874581D01*
X127255685Y-73950207D01*
X127256551Y-73987700D01*
X127255685Y-73989791D01*
X127222293Y-74065417D01*
X127219500Y-74089494D01*
X127219500Y-74350498D01*
X127219501Y-74350508D01*
X127222293Y-74374581D01*
X127255685Y-74450207D01*
X127256551Y-74487700D01*
X127255685Y-74489791D01*
X127225966Y-74557098D01*
X127198842Y-74582997D01*
X127161349Y-74582131D01*
X127146493Y-74571954D01*
X126897031Y-74322492D01*
X126882679Y-74287844D01*
X126894648Y-74255755D01*
X126905374Y-74243376D01*
X126905377Y-74243373D01*
X126965165Y-74112457D01*
X126965165Y-74112455D01*
X126965166Y-74112454D01*
X126985647Y-73970002D01*
X126985647Y-73969997D01*
X126965166Y-73827545D01*
X126945628Y-73784764D01*
X126905377Y-73696627D01*
X126811128Y-73587857D01*
X126690053Y-73510047D01*
X126690050Y-73510046D01*
X126551965Y-73469500D01*
X126551961Y-73469500D01*
X126408039Y-73469500D01*
X126408034Y-73469500D01*
X126269949Y-73510046D01*
X126148871Y-73587857D01*
X126054625Y-73696623D01*
X126054624Y-73696625D01*
X125994833Y-73827545D01*
X125974353Y-73969997D01*
X125974353Y-73970002D01*
X125994833Y-74112454D01*
X126026935Y-74182746D01*
X126054623Y-74243373D01*
X126054624Y-74243374D01*
X126054625Y-74243376D01*
X126147452Y-74350504D01*
X126148872Y-74352143D01*
X126164156Y-74361965D01*
X126184996Y-74390505D01*
X126199977Y-74446417D01*
X126199978Y-74446419D01*
X126199979Y-74446421D01*
X126211815Y-74466921D01*
X126211816Y-74466922D01*
X126239537Y-74514939D01*
X126239542Y-74514945D01*
X126585449Y-74860852D01*
X126599801Y-74895500D01*
X126585449Y-74930148D01*
X126550801Y-74944500D01*
X125394656Y-74944500D01*
X125360008Y-74930148D01*
X125346259Y-74903166D01*
X125344537Y-74892293D01*
X125339719Y-74861874D01*
X125339717Y-74861870D01*
X125339717Y-74861868D01*
X125278532Y-74741786D01*
X125278527Y-74741779D01*
X125183220Y-74646472D01*
X125183213Y-74646467D01*
X125063129Y-74585282D01*
X125063127Y-74585281D01*
X125063126Y-74585281D01*
X124963488Y-74569500D01*
X124396512Y-74569500D01*
X124296874Y-74585281D01*
X124296872Y-74585281D01*
X124296870Y-74585282D01*
X124176786Y-74646467D01*
X124176779Y-74646472D01*
X124081472Y-74741779D01*
X124081467Y-74741786D01*
X124020282Y-74861870D01*
X124020281Y-74861872D01*
X124020281Y-74861874D01*
X124004500Y-74961512D01*
X124004500Y-75478488D01*
X124020281Y-75578126D01*
X124020281Y-75578127D01*
X124020282Y-75578129D01*
X124081467Y-75698213D01*
X124081472Y-75698220D01*
X124176779Y-75793527D01*
X124176786Y-75793532D01*
X124274908Y-75843527D01*
X124296874Y-75854719D01*
X124396512Y-75870500D01*
X124396514Y-75870500D01*
X124963486Y-75870500D01*
X124963488Y-75870500D01*
X125063126Y-75854719D01*
X125147371Y-75811794D01*
X125183213Y-75793532D01*
X125183215Y-75793530D01*
X125183220Y-75793528D01*
X125278528Y-75698220D01*
X125278532Y-75698213D01*
X125339717Y-75578131D01*
X125339717Y-75578129D01*
X125339719Y-75578126D01*
X125346259Y-75536833D01*
X125365855Y-75504858D01*
X125394656Y-75495500D01*
X126520589Y-75495500D01*
X126555237Y-75509852D01*
X127715148Y-76669763D01*
X127729500Y-76704411D01*
X127729500Y-77020500D01*
X127715148Y-77055148D01*
X127680500Y-77069500D01*
X127367280Y-77069500D01*
X127335425Y-77073693D01*
X127254764Y-77084312D01*
X127114771Y-77142299D01*
X127114766Y-77142302D01*
X126994549Y-77234548D01*
X126994548Y-77234549D01*
X126902302Y-77354766D01*
X126902299Y-77354771D01*
X126844312Y-77494764D01*
X126833693Y-77575425D01*
X126829500Y-77607280D01*
X126829500Y-78932720D01*
X126835091Y-78975192D01*
X126844312Y-79045235D01*
X126902299Y-79185228D01*
X126902302Y-79185233D01*
X126994549Y-79305451D01*
X127114767Y-79397698D01*
X127114769Y-79397698D01*
X127114771Y-79397700D01*
X127254764Y-79455687D01*
X127367280Y-79470500D01*
X127367284Y-79470500D01*
X128192716Y-79470500D01*
X128192720Y-79470500D01*
X128305236Y-79455687D01*
X128445233Y-79397698D01*
X128565451Y-79305451D01*
X128657698Y-79185233D01*
X128715687Y-79045236D01*
X128730500Y-78932720D01*
X128730500Y-77835478D01*
X128744852Y-77800830D01*
X129610830Y-76934852D01*
X129645478Y-76920500D01*
X130276146Y-76920500D01*
X130320716Y-76908557D01*
X130365288Y-76896614D01*
X130445212Y-76850470D01*
X131710829Y-75584851D01*
X131745477Y-75570500D01*
X132369304Y-75570500D01*
X132403952Y-75584852D01*
X132417700Y-75611832D01*
X132420281Y-75628126D01*
X132420281Y-75628127D01*
X132420282Y-75628129D01*
X132481467Y-75748213D01*
X132481472Y-75748220D01*
X132576779Y-75843527D01*
X132576786Y-75843532D01*
X132700310Y-75906470D01*
X132699658Y-75907749D01*
X132724158Y-75928672D01*
X132729500Y-75950920D01*
X132729500Y-76139079D01*
X132715148Y-76173727D01*
X132700034Y-76182990D01*
X132700309Y-76183530D01*
X132576786Y-76246467D01*
X132576779Y-76246472D01*
X132481472Y-76341779D01*
X132481467Y-76341786D01*
X132420282Y-76461870D01*
X132420281Y-76461872D01*
X132420281Y-76461874D01*
X132404500Y-76561512D01*
X132404500Y-77078488D01*
X132420281Y-77178126D01*
X132420281Y-77178127D01*
X132420282Y-77178129D01*
X132481467Y-77298213D01*
X132481472Y-77298220D01*
X132576779Y-77393527D01*
X132576786Y-77393532D01*
X132696870Y-77454717D01*
X132696874Y-77454719D01*
X132796512Y-77470500D01*
X132796514Y-77470500D01*
X133363486Y-77470500D01*
X133363488Y-77470500D01*
X133463126Y-77454719D01*
X133525699Y-77422836D01*
X133583213Y-77393532D01*
X133583215Y-77393530D01*
X133583220Y-77393528D01*
X133678528Y-77298220D01*
X133739719Y-77178126D01*
X133755500Y-77078488D01*
X133755500Y-76561512D01*
X133739719Y-76461874D01*
X133739717Y-76461870D01*
X133678532Y-76341786D01*
X133678527Y-76341779D01*
X133583220Y-76246472D01*
X133583213Y-76246467D01*
X133459691Y-76183530D01*
X133460341Y-76182253D01*
X133435837Y-76161317D01*
X133430500Y-76139079D01*
X133430500Y-75950920D01*
X133444852Y-75916272D01*
X133459965Y-75907010D01*
X133459690Y-75906470D01*
X133583213Y-75843532D01*
X133583215Y-75843530D01*
X133583220Y-75843528D01*
X133678528Y-75748220D01*
X133739719Y-75628126D01*
X133755500Y-75528488D01*
X133755500Y-75011512D01*
X133739719Y-74911874D01*
X133720717Y-74874580D01*
X133678532Y-74791786D01*
X133678527Y-74791779D01*
X133583220Y-74696472D01*
X133583213Y-74696467D01*
X133463129Y-74635282D01*
X133463127Y-74635281D01*
X133463126Y-74635281D01*
X133363488Y-74619500D01*
X132796512Y-74619500D01*
X132696874Y-74635281D01*
X132696872Y-74635281D01*
X132696870Y-74635282D01*
X132576786Y-74696467D01*
X132576779Y-74696472D01*
X132481471Y-74791780D01*
X132466839Y-74820500D01*
X132455503Y-74842746D01*
X132426987Y-74867102D01*
X132411845Y-74869500D01*
X130589500Y-74869500D01*
X130554852Y-74855148D01*
X130540500Y-74820500D01*
X130540499Y-74589501D01*
X130540498Y-74589495D01*
X130537707Y-74565420D01*
X130504312Y-74489791D01*
X130503447Y-74452300D01*
X130504303Y-74450230D01*
X130537707Y-74374580D01*
X130540500Y-74350505D01*
X130540499Y-74089496D01*
X130537707Y-74065420D01*
X130494215Y-73966921D01*
X130494214Y-73966920D01*
X130494214Y-73966919D01*
X130418080Y-73890785D01*
X130319582Y-73847293D01*
X130307542Y-73845896D01*
X130295505Y-73844500D01*
X130295503Y-73844500D01*
X129794501Y-73844500D01*
X129794491Y-73844501D01*
X129770418Y-73847293D01*
X129671919Y-73890785D01*
X129595785Y-73966919D01*
X129585245Y-73990792D01*
X129558121Y-74016691D01*
X129540420Y-74020000D01*
X129235591Y-74020000D01*
X129200943Y-74005648D01*
X129186591Y-73971000D01*
X129200943Y-73936352D01*
X129209214Y-73928080D01*
X129209215Y-73928079D01*
X129252707Y-73829580D01*
X129255500Y-73805505D01*
X129255499Y-73304496D01*
X129252707Y-73280420D01*
X129209215Y-73181921D01*
X129209214Y-73181920D01*
X129209214Y-73181919D01*
X129169852Y-73142557D01*
X129155500Y-73107909D01*
X129155500Y-72779335D01*
X129169852Y-72744687D01*
X129571166Y-72343373D01*
X130163557Y-71750983D01*
X130175841Y-71721324D01*
X130184365Y-71700745D01*
X130210885Y-71674229D01*
X130229634Y-71670500D01*
X130342716Y-71670500D01*
X130342720Y-71670500D01*
X130455236Y-71655687D01*
X130455237Y-71655686D01*
X130458333Y-71654857D01*
X130458784Y-71656541D01*
X130490659Y-71656509D01*
X130517205Y-71683000D01*
X130517243Y-71720503D01*
X130508986Y-71733886D01*
X130454625Y-71796623D01*
X130454624Y-71796625D01*
X130394833Y-71927545D01*
X130374353Y-72069997D01*
X130374353Y-72070000D01*
X130394833Y-72212454D01*
X130426935Y-72282746D01*
X130454623Y-72343373D01*
X130454624Y-72343374D01*
X130454625Y-72343376D01*
X130536895Y-72438321D01*
X130548872Y-72452143D01*
X130669947Y-72529953D01*
X130746785Y-72552514D01*
X130808034Y-72570499D01*
X130808037Y-72570499D01*
X130808039Y-72570500D01*
X130808040Y-72570500D01*
X130951960Y-72570500D01*
X130951961Y-72570500D01*
X130951963Y-72570499D01*
X130951965Y-72570499D01*
X130974795Y-72563795D01*
X131090053Y-72529953D01*
X131211128Y-72452143D01*
X131305377Y-72343373D01*
X131365165Y-72212457D01*
X131365165Y-72212455D01*
X131365166Y-72212454D01*
X131385647Y-72070000D01*
X131385647Y-72069997D01*
X131383640Y-72056048D01*
X131378995Y-72023741D01*
X131388269Y-71987406D01*
X131392841Y-71982128D01*
X131690118Y-71684852D01*
X131724766Y-71670500D01*
X132542716Y-71670500D01*
X132542720Y-71670500D01*
X132655236Y-71655687D01*
X132795233Y-71597698D01*
X132915451Y-71505451D01*
X133007698Y-71385233D01*
X133065687Y-71245236D01*
X133080500Y-71132720D01*
X133080500Y-69807280D01*
X133065687Y-69694764D01*
X133007698Y-69554767D01*
X132915451Y-69434549D01*
X132816177Y-69358373D01*
X132797426Y-69325896D01*
X132807133Y-69289671D01*
X132839611Y-69270919D01*
X132846007Y-69270500D01*
X134030500Y-69270500D01*
X134065148Y-69284852D01*
X134079500Y-69319500D01*
X134079500Y-79620500D01*
X134065148Y-79655148D01*
X134030500Y-79669500D01*
X131477595Y-79669500D01*
X131430000Y-79669500D01*
X131312307Y-79669500D01*
X131079551Y-79704582D01*
X131079548Y-79704583D01*
X130854629Y-79773960D01*
X130854616Y-79773965D01*
X130642548Y-79876092D01*
X130642545Y-79876093D01*
X130548378Y-79940295D01*
X130511666Y-79947955D01*
X130480290Y-79927411D01*
X130478354Y-79924330D01*
X130460489Y-79893387D01*
X130376613Y-79809511D01*
X130273887Y-79750201D01*
X130273884Y-79750200D01*
X130159312Y-79719500D01*
X130159309Y-79719500D01*
X130040691Y-79719500D01*
X130040688Y-79719500D01*
X129926115Y-79750200D01*
X129926112Y-79750201D01*
X129823386Y-79809511D01*
X129823386Y-79809512D01*
X129739513Y-79893384D01*
X129739511Y-79893386D01*
X129739511Y-79893387D01*
X129711305Y-79942242D01*
X129709423Y-79945501D01*
X129679670Y-79968331D01*
X129666988Y-79970000D01*
X129523012Y-79970000D01*
X129488364Y-79955648D01*
X129480577Y-79945501D01*
X129450489Y-79893387D01*
X129366613Y-79809511D01*
X129263887Y-79750201D01*
X129263884Y-79750200D01*
X129149312Y-79719500D01*
X129149309Y-79719500D01*
X129030691Y-79719500D01*
X129030688Y-79719500D01*
X128916115Y-79750200D01*
X128916112Y-79750201D01*
X128813386Y-79809511D01*
X128813386Y-79809512D01*
X128729513Y-79893384D01*
X128729511Y-79893386D01*
X128729511Y-79893387D01*
X128701305Y-79942242D01*
X128699423Y-79945501D01*
X128669670Y-79968331D01*
X128656988Y-79970000D01*
X128533012Y-79970000D01*
X128498364Y-79955648D01*
X128490577Y-79945501D01*
X128460489Y-79893387D01*
X128376613Y-79809511D01*
X128273887Y-79750201D01*
X128273884Y-79750200D01*
X128159312Y-79719500D01*
X128159309Y-79719500D01*
X128040691Y-79719500D01*
X128040688Y-79719500D01*
X127926115Y-79750200D01*
X127926112Y-79750201D01*
X127823386Y-79809511D01*
X127823386Y-79809512D01*
X127739514Y-79893383D01*
X127739505Y-79893395D01*
X127721656Y-79924309D01*
X127691902Y-79947139D01*
X127654721Y-79942242D01*
X127651620Y-79940294D01*
X127557454Y-79876093D01*
X127557451Y-79876092D01*
X127345383Y-79773965D01*
X127345370Y-79773960D01*
X127168812Y-79719500D01*
X127120449Y-79704582D01*
X126887693Y-79669500D01*
X126887691Y-79669500D01*
X123729500Y-79669500D01*
X123694852Y-79655148D01*
X123680500Y-79620500D01*
X123680500Y-69319500D01*
X123694852Y-69284852D01*
X123729500Y-69270500D01*
X124813993Y-69270500D01*
X124848641Y-69284852D01*
G37*
%TD.AperFunction*%
%TA.AperFunction,Conductor*%
G36*
X129575067Y-74934352D02*
G01*
X129585246Y-74949212D01*
X129585687Y-74950211D01*
X129586550Y-74987704D01*
X129585685Y-74989791D01*
X129552293Y-75065417D01*
X129549500Y-75089494D01*
X129549500Y-75350498D01*
X129549501Y-75350508D01*
X129552293Y-75374581D01*
X129595785Y-75473080D01*
X129671919Y-75549214D01*
X129770417Y-75592706D01*
X129770420Y-75592707D01*
X129794495Y-75595500D01*
X130295504Y-75595499D01*
X130319580Y-75592707D01*
X130349488Y-75579501D01*
X130360419Y-75574675D01*
X130380211Y-75570500D01*
X130615523Y-75570500D01*
X130650171Y-75584852D01*
X130664523Y-75619500D01*
X130650171Y-75654147D01*
X130353398Y-75950920D01*
X130099170Y-76205148D01*
X130064522Y-76219500D01*
X129433853Y-76219500D01*
X129344713Y-76243385D01*
X129344709Y-76243386D01*
X129264787Y-76289530D01*
X128444896Y-77109421D01*
X128410248Y-77123773D01*
X128391497Y-77120043D01*
X128310748Y-77086596D01*
X128284230Y-77060077D01*
X128280500Y-77041326D01*
X128280500Y-76704411D01*
X128294852Y-76669763D01*
X128613555Y-76351061D01*
X128613555Y-76351060D01*
X128613557Y-76351059D01*
X128636984Y-76294500D01*
X128655500Y-76249800D01*
X128655500Y-75832089D01*
X128669852Y-75797442D01*
X128709215Y-75758079D01*
X128752707Y-75659580D01*
X128755500Y-75635505D01*
X128755499Y-75134496D01*
X128752707Y-75110420D01*
X128709215Y-75011921D01*
X128709214Y-75011920D01*
X128709214Y-75011919D01*
X128700943Y-75003648D01*
X128686591Y-74969000D01*
X128700943Y-74934352D01*
X128735591Y-74920000D01*
X129540419Y-74920000D01*
X129575067Y-74934352D01*
G37*
%TD.AperFunction*%
%TD*%
%TA.AperFunction,Conductor*%
%TO.N,+3.3V*%
G36*
X128707410Y-82524352D02*
G01*
X128715196Y-82534499D01*
X128739511Y-82576613D01*
X128823387Y-82660489D01*
X128926114Y-82719799D01*
X128954758Y-82727474D01*
X129040688Y-82750500D01*
X129040691Y-82750500D01*
X129159311Y-82750500D01*
X129216597Y-82735149D01*
X129273886Y-82719799D01*
X129376613Y-82660489D01*
X129460489Y-82576613D01*
X129484803Y-82534499D01*
X129514556Y-82511670D01*
X129527238Y-82510000D01*
X129672762Y-82510000D01*
X129707410Y-82524352D01*
X129715196Y-82534499D01*
X129739511Y-82576613D01*
X129823387Y-82660489D01*
X129926114Y-82719799D01*
X129954758Y-82727474D01*
X130040688Y-82750500D01*
X130040691Y-82750500D01*
X130159311Y-82750500D01*
X130216597Y-82735149D01*
X130273886Y-82719799D01*
X130376613Y-82660489D01*
X130460489Y-82576613D01*
X130474200Y-82552864D01*
X130503951Y-82530035D01*
X130541133Y-82534929D01*
X130544226Y-82536872D01*
X130642548Y-82603907D01*
X130642549Y-82603907D01*
X130642550Y-82603908D01*
X130854616Y-82706034D01*
X130854619Y-82706035D01*
X130854623Y-82706037D01*
X131079551Y-82775418D01*
X131312307Y-82810500D01*
X131390438Y-82810500D01*
X143122405Y-82810500D01*
X143168714Y-82810500D01*
X143171278Y-82810567D01*
X143501882Y-82827893D01*
X143506964Y-82828426D01*
X143832684Y-82880016D01*
X143837696Y-82881082D01*
X144156222Y-82966431D01*
X144161095Y-82968014D01*
X144468958Y-83086191D01*
X144473634Y-83088273D01*
X144674499Y-83190619D01*
X144767462Y-83237986D01*
X144771900Y-83240548D01*
X145048470Y-83420154D01*
X145052607Y-83423160D01*
X145091509Y-83454662D01*
X145308890Y-83630694D01*
X145312701Y-83634126D01*
X145545873Y-83867298D01*
X145549305Y-83871109D01*
X145697242Y-84053796D01*
X145756834Y-84127385D01*
X145759847Y-84131532D01*
X145821528Y-84226513D01*
X145939449Y-84408096D01*
X145942013Y-84412537D01*
X146091724Y-84706360D01*
X146093810Y-84711046D01*
X146211984Y-85018902D01*
X146213569Y-85023780D01*
X146298916Y-85342300D01*
X146299983Y-85347317D01*
X146351571Y-85673025D01*
X146352107Y-85678126D01*
X146367984Y-85981078D01*
X146369215Y-86004571D01*
X146369433Y-86008721D01*
X146369500Y-86011285D01*
X146369500Y-92508674D01*
X146369428Y-92511327D01*
X146350887Y-92853278D01*
X146350313Y-92858552D01*
X146295127Y-93195170D01*
X146293987Y-93200352D01*
X146202727Y-93529044D01*
X146201033Y-93534072D01*
X146074770Y-93850969D01*
X146072542Y-93855784D01*
X145912760Y-94157166D01*
X145910025Y-94161712D01*
X145718591Y-94444055D01*
X145715380Y-94448279D01*
X145494542Y-94708269D01*
X145490893Y-94712121D01*
X145243244Y-94946706D01*
X145239201Y-94950141D01*
X144967627Y-95156587D01*
X144963235Y-95159564D01*
X144670949Y-95335427D01*
X144666262Y-95337912D01*
X144356669Y-95481145D01*
X144351740Y-95483109D01*
X144028469Y-95592031D01*
X144023357Y-95593450D01*
X143690223Y-95666778D01*
X143684987Y-95667637D01*
X143345856Y-95704521D01*
X143340558Y-95704808D01*
X142999442Y-95704808D01*
X142994144Y-95704521D01*
X142655012Y-95667637D01*
X142649776Y-95666778D01*
X142316642Y-95593450D01*
X142311530Y-95592031D01*
X142146626Y-95536468D01*
X141988254Y-95483107D01*
X141983335Y-95481147D01*
X141673736Y-95337911D01*
X141669050Y-95335427D01*
X141659001Y-95329381D01*
X141376764Y-95159564D01*
X141372372Y-95156587D01*
X141100798Y-94950141D01*
X141096755Y-94946706D01*
X140849106Y-94712121D01*
X140845457Y-94708269D01*
X140624619Y-94448279D01*
X140621408Y-94444055D01*
X140429969Y-94161704D01*
X140427244Y-94157174D01*
X140267454Y-93855778D01*
X140265229Y-93850969D01*
X140138960Y-93534056D01*
X140137277Y-93529059D01*
X140046011Y-93200350D01*
X140044872Y-93195170D01*
X139989686Y-92858552D01*
X139989112Y-92853278D01*
X139986376Y-92802823D01*
X139970572Y-92511327D01*
X139970500Y-92508674D01*
X139970500Y-92462407D01*
X139970500Y-92462405D01*
X139958608Y-92425808D01*
X139957898Y-92423409D01*
X139954729Y-92411583D01*
X141919500Y-92411583D01*
X141919500Y-92608416D01*
X141950290Y-92802823D01*
X141950291Y-92802826D01*
X142011116Y-92990026D01*
X142100472Y-93165399D01*
X142100475Y-93165403D01*
X142100476Y-93165405D01*
X142216172Y-93324646D01*
X142216174Y-93324648D01*
X142216177Y-93324652D01*
X142355347Y-93463822D01*
X142355350Y-93463824D01*
X142355354Y-93463828D01*
X142514595Y-93579524D01*
X142514597Y-93579525D01*
X142514600Y-93579527D01*
X142689973Y-93668883D01*
X142689975Y-93668884D01*
X142877174Y-93729709D01*
X143071583Y-93760500D01*
X143071584Y-93760500D01*
X143268416Y-93760500D01*
X143268417Y-93760500D01*
X143462826Y-93729709D01*
X143650025Y-93668884D01*
X143825405Y-93579524D01*
X143984646Y-93463828D01*
X144123828Y-93324646D01*
X144239524Y-93165405D01*
X144328884Y-92990025D01*
X144389709Y-92802826D01*
X144420500Y-92608417D01*
X144420500Y-92411583D01*
X144389709Y-92217174D01*
X144328884Y-92029975D01*
X144239524Y-91854595D01*
X144123828Y-91695354D01*
X144123824Y-91695350D01*
X144123822Y-91695347D01*
X143984652Y-91556177D01*
X143984653Y-91556177D01*
X143825399Y-91440472D01*
X143650026Y-91351116D01*
X143462826Y-91290291D01*
X143462823Y-91290290D01*
X143313482Y-91266637D01*
X143268417Y-91259500D01*
X143071583Y-91259500D01*
X143034998Y-91265294D01*
X142877176Y-91290290D01*
X142877173Y-91290291D01*
X142689973Y-91351116D01*
X142514600Y-91440472D01*
X142355347Y-91556177D01*
X142216177Y-91695347D01*
X142100472Y-91854600D01*
X142011116Y-92029973D01*
X141950291Y-92217173D01*
X141950290Y-92217176D01*
X141919500Y-92411583D01*
X139954729Y-92411583D01*
X139950021Y-92394011D01*
X139948609Y-92391565D01*
X139944442Y-92382207D01*
X139941085Y-92371875D01*
X139923864Y-92348174D01*
X139921082Y-92343888D01*
X139910464Y-92325495D01*
X139910461Y-92325492D01*
X139910460Y-92325489D01*
X139901937Y-92316966D01*
X139896944Y-92311120D01*
X139885133Y-92294865D01*
X139868882Y-92283058D01*
X139863035Y-92278064D01*
X139854513Y-92269542D01*
X139854507Y-92269537D01*
X139836118Y-92258921D01*
X139831816Y-92256127D01*
X139808126Y-92238915D01*
X139808123Y-92238914D01*
X139797788Y-92235555D01*
X139788444Y-92231396D01*
X139787343Y-92230760D01*
X139785989Y-92229979D01*
X139785988Y-92229978D01*
X139785987Y-92229978D01*
X139756621Y-92222109D01*
X139754162Y-92221381D01*
X139717596Y-92209500D01*
X139717595Y-92209500D01*
X139709562Y-92209500D01*
X134106838Y-92209500D01*
X134072190Y-92195148D01*
X134057838Y-92160500D01*
X134061568Y-92141749D01*
X134105687Y-92035235D01*
X134120500Y-91922720D01*
X134120500Y-90097280D01*
X134105687Y-89984764D01*
X134047698Y-89844767D01*
X133955451Y-89724549D01*
X133835233Y-89632302D01*
X133779371Y-89609163D01*
X133722575Y-89585637D01*
X133721092Y-89584992D01*
X133720229Y-89584665D01*
X133695240Y-89574314D01*
X133695237Y-89574313D01*
X133695236Y-89574313D01*
X133674801Y-89571622D01*
X133650712Y-89568450D01*
X133645970Y-89567586D01*
X133588700Y-89554216D01*
X133558222Y-89532363D01*
X133552123Y-89495359D01*
X133554455Y-89488976D01*
X133554453Y-89488976D01*
X133555644Y-89485307D01*
X133555646Y-89485304D01*
X133575492Y-89360000D01*
X133555646Y-89234696D01*
X133555644Y-89234692D01*
X133555644Y-89234690D01*
X133498054Y-89121664D01*
X133498050Y-89121659D01*
X133498050Y-89121658D01*
X133475394Y-89099002D01*
X133467170Y-89088081D01*
X133461442Y-89077729D01*
X133461437Y-89077723D01*
X133457076Y-89072563D01*
X133445500Y-89040933D01*
X133445500Y-88655202D01*
X133445499Y-88655198D01*
X133429052Y-88615492D01*
X133403557Y-88553942D01*
X133403555Y-88553940D01*
X133403555Y-88553939D01*
X133326058Y-88476443D01*
X133169305Y-88319690D01*
X133154953Y-88285042D01*
X133155167Y-88280470D01*
X133155829Y-88273397D01*
X133157120Y-88259626D01*
X133157232Y-88258570D01*
X133160623Y-88229745D01*
X133160849Y-88183746D01*
X133160292Y-88178572D01*
X133158894Y-88171352D01*
X133158000Y-88162036D01*
X133158000Y-87669753D01*
X133158000Y-87669744D01*
X133155225Y-87640151D01*
X133111616Y-87515525D01*
X133111614Y-87515522D01*
X133111615Y-87515522D01*
X133033211Y-87409288D01*
X132926977Y-87330885D01*
X132926975Y-87330884D01*
X132889569Y-87317794D01*
X132802351Y-87287275D01*
X132802342Y-87287274D01*
X132772767Y-87284501D01*
X132772766Y-87284500D01*
X132772756Y-87284500D01*
X132167244Y-87284500D01*
X132167234Y-87284500D01*
X132167232Y-87284501D01*
X132137657Y-87287274D01*
X132137648Y-87287275D01*
X132013022Y-87330885D01*
X131906788Y-87409288D01*
X131828385Y-87515522D01*
X131790750Y-87623075D01*
X131765760Y-87651039D01*
X131728316Y-87653141D01*
X131700352Y-87628151D01*
X131695500Y-87606891D01*
X131695500Y-86806139D01*
X131709852Y-86771491D01*
X131744500Y-86757139D01*
X131779148Y-86771491D01*
X131790658Y-86789694D01*
X131797175Y-86807988D01*
X131797177Y-86807992D01*
X131798910Y-86811758D01*
X131798918Y-86811773D01*
X131798919Y-86811775D01*
X131802931Y-86819255D01*
X131806001Y-86826232D01*
X131815885Y-86854478D01*
X131894288Y-86960711D01*
X131994608Y-87034749D01*
X132000525Y-87039116D01*
X132125151Y-87082725D01*
X132154744Y-87085500D01*
X132154754Y-87085500D01*
X132760246Y-87085500D01*
X132760256Y-87085500D01*
X132789849Y-87082725D01*
X132914475Y-87039116D01*
X133020711Y-86960711D01*
X133099116Y-86854475D01*
X133142725Y-86729849D01*
X133145500Y-86700256D01*
X133145500Y-86119744D01*
X133142725Y-86090151D01*
X133099116Y-85965525D01*
X133099114Y-85965522D01*
X133099115Y-85965522D01*
X133020711Y-85859288D01*
X132914477Y-85780885D01*
X132914475Y-85780884D01*
X132877069Y-85767794D01*
X132789851Y-85737275D01*
X132789842Y-85737274D01*
X132760267Y-85734501D01*
X132760266Y-85734500D01*
X132760256Y-85734500D01*
X132154744Y-85734500D01*
X132154734Y-85734500D01*
X132154732Y-85734501D01*
X132125157Y-85737274D01*
X132125148Y-85737275D01*
X132000522Y-85780885D01*
X131894288Y-85859288D01*
X131815885Y-85965521D01*
X131795510Y-86023747D01*
X131793391Y-86028856D01*
X131784915Y-86046420D01*
X131777867Y-86073653D01*
X131776681Y-86077556D01*
X131772276Y-86090145D01*
X131771640Y-86093061D01*
X131770804Y-86092878D01*
X131754749Y-86123239D01*
X131723496Y-86134500D01*
X131493448Y-86134500D01*
X131461767Y-86147622D01*
X131424264Y-86147622D01*
X131408368Y-86137000D01*
X131047812Y-85776444D01*
X131047810Y-85776443D01*
X131031145Y-85769540D01*
X131031144Y-85769539D01*
X130946553Y-85734500D01*
X130946552Y-85734500D01*
X130532090Y-85734500D01*
X130497442Y-85720148D01*
X130458079Y-85680785D01*
X130458078Y-85680784D01*
X130359582Y-85637293D01*
X130359576Y-85637291D01*
X130338851Y-85634887D01*
X130306088Y-85616638D01*
X130295499Y-85586216D01*
X130295499Y-85094496D01*
X130292707Y-85070420D01*
X130249215Y-84971921D01*
X130249214Y-84971920D01*
X130249214Y-84971919D01*
X130173080Y-84895785D01*
X130074582Y-84852293D01*
X130062542Y-84850896D01*
X130050505Y-84849500D01*
X130050503Y-84849500D01*
X129789501Y-84849500D01*
X129789491Y-84849501D01*
X129765418Y-84852293D01*
X129689792Y-84885685D01*
X129652299Y-84886551D01*
X129650208Y-84885685D01*
X129574582Y-84852293D01*
X129562542Y-84850896D01*
X129550505Y-84849500D01*
X129550503Y-84849500D01*
X129289501Y-84849500D01*
X129289491Y-84849501D01*
X129265418Y-84852293D01*
X129189792Y-84885685D01*
X129152299Y-84886551D01*
X129150208Y-84885685D01*
X129074582Y-84852293D01*
X129062542Y-84850896D01*
X129050505Y-84849500D01*
X129050503Y-84849500D01*
X128789501Y-84849500D01*
X128789491Y-84849501D01*
X128765417Y-84852293D01*
X128765412Y-84852295D01*
X128764284Y-84852793D01*
X128763516Y-84852810D01*
X128761861Y-84853261D01*
X128761749Y-84852851D01*
X128726791Y-84853653D01*
X128699672Y-84827749D01*
X128695500Y-84807965D01*
X128695500Y-84755202D01*
X128695499Y-84755198D01*
X128678585Y-84714364D01*
X128678585Y-84714363D01*
X128675270Y-84706360D01*
X128653558Y-84653942D01*
X128592766Y-84593150D01*
X128580407Y-84572329D01*
X128557713Y-84495161D01*
X128556330Y-84489017D01*
X128555646Y-84484696D01*
X128554232Y-84481922D01*
X128552615Y-84478139D01*
X128551971Y-84476800D01*
X128551229Y-84475614D01*
X128549119Y-84471888D01*
X128498050Y-84371658D01*
X128408342Y-84281950D01*
X128408335Y-84281945D01*
X128295308Y-84224355D01*
X128295305Y-84224354D01*
X128295304Y-84224354D01*
X128170000Y-84204508D01*
X128044696Y-84224354D01*
X128044694Y-84224354D01*
X128044692Y-84224355D01*
X128044690Y-84224355D01*
X127931664Y-84281945D01*
X127931657Y-84281950D01*
X127841950Y-84371657D01*
X127841945Y-84371664D01*
X127784355Y-84484690D01*
X127784355Y-84484692D01*
X127784354Y-84484694D01*
X127784354Y-84484696D01*
X127764508Y-84610000D01*
X127784354Y-84735304D01*
X127784354Y-84735305D01*
X127784355Y-84735307D01*
X127784355Y-84735309D01*
X127841945Y-84848335D01*
X127841950Y-84848342D01*
X127931658Y-84938050D01*
X128032466Y-84989414D01*
X128056821Y-85017930D01*
X128055044Y-85052863D01*
X128047293Y-85070417D01*
X128044500Y-85094494D01*
X128044500Y-85595498D01*
X128044501Y-85595508D01*
X128047293Y-85619581D01*
X128090785Y-85718080D01*
X128166919Y-85794214D01*
X128265417Y-85837706D01*
X128265420Y-85837707D01*
X128289495Y-85840500D01*
X128521000Y-85840499D01*
X128555648Y-85854851D01*
X128570000Y-85889499D01*
X128570000Y-86086968D01*
X128555648Y-86121616D01*
X128521000Y-86135968D01*
X128515356Y-86135642D01*
X128505507Y-86134500D01*
X128004501Y-86134500D01*
X128004491Y-86134501D01*
X127980418Y-86137293D01*
X127882962Y-86180325D01*
X127863170Y-86184500D01*
X126875920Y-86184500D01*
X126841272Y-86170148D01*
X126832007Y-86155032D01*
X126831468Y-86155307D01*
X126827332Y-86147189D01*
X126825683Y-86143603D01*
X126821935Y-86134500D01*
X126816988Y-86122486D01*
X126816558Y-86121616D01*
X126815573Y-86119622D01*
X126811296Y-86111783D01*
X126807631Y-86105064D01*
X126807627Y-86105060D01*
X126805709Y-86102438D01*
X126805957Y-86102256D01*
X126800585Y-86094696D01*
X126768528Y-86031780D01*
X126673220Y-85936472D01*
X126673213Y-85936467D01*
X126553129Y-85875282D01*
X126553127Y-85875281D01*
X126553126Y-85875281D01*
X126453488Y-85859500D01*
X125886512Y-85859500D01*
X125786874Y-85875281D01*
X125786872Y-85875281D01*
X125786870Y-85875282D01*
X125666785Y-85936468D01*
X125666777Y-85936474D01*
X125618565Y-85984684D01*
X125614862Y-85988028D01*
X125594610Y-86004522D01*
X125594606Y-86004526D01*
X125594575Y-86004564D01*
X125594560Y-86004571D01*
X125592904Y-86006216D01*
X125592404Y-86005712D01*
X125561429Y-86022108D01*
X125549483Y-86021772D01*
X125520272Y-86017346D01*
X125513809Y-86015914D01*
X125491967Y-86009501D01*
X125491961Y-86009500D01*
X125491960Y-86009500D01*
X125472176Y-86009500D01*
X125464829Y-86008946D01*
X125464177Y-86008847D01*
X125449128Y-86007133D01*
X125449120Y-86007132D01*
X125449108Y-86007131D01*
X125447399Y-86007000D01*
X125446700Y-86006952D01*
X125443909Y-86006761D01*
X125431453Y-86008835D01*
X125423409Y-86009500D01*
X125391051Y-86009500D01*
X125388797Y-86009448D01*
X125375809Y-86008849D01*
X125375190Y-86008943D01*
X125375175Y-86008946D01*
X125375168Y-86008947D01*
X125367826Y-86009500D01*
X125348037Y-86009500D01*
X125326189Y-86015915D01*
X125319727Y-86017346D01*
X125290516Y-86021772D01*
X125254108Y-86012773D01*
X125245666Y-86004793D01*
X125245640Y-86004816D01*
X125245429Y-86004569D01*
X125245426Y-86004566D01*
X125245405Y-86004541D01*
X125241310Y-85999742D01*
X125240817Y-85999182D01*
X125224915Y-85987409D01*
X125219424Y-85982676D01*
X125173218Y-85936470D01*
X125157606Y-85928516D01*
X125152023Y-85925671D01*
X125146254Y-85922213D01*
X125141482Y-85918887D01*
X125121263Y-85887301D01*
X125120500Y-85878688D01*
X125120500Y-85616899D01*
X125134852Y-85582251D01*
X125255488Y-85461615D01*
X125255489Y-85461614D01*
X125314799Y-85358887D01*
X125321286Y-85334673D01*
X125345500Y-85244309D01*
X125345500Y-85153917D01*
X125359852Y-85119269D01*
X125363262Y-85116165D01*
X125367173Y-85112930D01*
X125370204Y-85110941D01*
X125370098Y-85110795D01*
X125373211Y-85108532D01*
X125373220Y-85108528D01*
X125375050Y-85106697D01*
X125378449Y-85103604D01*
X125400474Y-85085391D01*
X125405273Y-85081296D01*
X125405815Y-85080819D01*
X125417582Y-85064923D01*
X125422310Y-85059436D01*
X125468528Y-85013220D01*
X125529719Y-84893126D01*
X125545500Y-84793488D01*
X125545500Y-84226512D01*
X125529719Y-84126874D01*
X125492484Y-84053796D01*
X125468532Y-84006786D01*
X125468527Y-84006779D01*
X125373220Y-83911472D01*
X125373213Y-83911467D01*
X125253129Y-83850282D01*
X125253127Y-83850281D01*
X125253126Y-83850281D01*
X125153488Y-83834500D01*
X124636512Y-83834500D01*
X124536874Y-83850281D01*
X124536872Y-83850281D01*
X124536870Y-83850282D01*
X124416786Y-83911467D01*
X124416779Y-83911472D01*
X124321472Y-84006779D01*
X124321467Y-84006786D01*
X124260282Y-84126870D01*
X124260281Y-84126872D01*
X124260281Y-84126874D01*
X124244500Y-84226512D01*
X124244500Y-84793488D01*
X124260281Y-84893126D01*
X124260281Y-84893127D01*
X124260282Y-84893129D01*
X124321467Y-85013213D01*
X124321472Y-85013220D01*
X124340926Y-85032674D01*
X124355278Y-85067322D01*
X124340927Y-85101970D01*
X124309510Y-85133387D01*
X124250201Y-85236111D01*
X124248532Y-85242343D01*
X124248531Y-85242342D01*
X124248531Y-85242346D01*
X124219500Y-85350688D01*
X124219500Y-85878687D01*
X124205148Y-85913335D01*
X124198517Y-85918887D01*
X124193749Y-85922210D01*
X124187981Y-85925668D01*
X124166779Y-85936472D01*
X124166774Y-85936476D01*
X124152739Y-85950511D01*
X124148163Y-85954550D01*
X124138362Y-85962167D01*
X124138360Y-85962169D01*
X124136549Y-85963734D01*
X124129409Y-85970201D01*
X124124874Y-85977018D01*
X124118728Y-85984521D01*
X124071474Y-86031777D01*
X124071468Y-86031785D01*
X124010282Y-86151870D01*
X124010281Y-86151872D01*
X124010281Y-86151874D01*
X123994500Y-86251512D01*
X123994500Y-86768488D01*
X124010281Y-86868126D01*
X124010281Y-86868127D01*
X124010282Y-86868129D01*
X124071467Y-86988213D01*
X124071472Y-86988220D01*
X124166779Y-87083527D01*
X124166786Y-87083532D01*
X124278609Y-87140508D01*
X124286874Y-87144719D01*
X124386512Y-87160500D01*
X124386514Y-87160500D01*
X124953486Y-87160500D01*
X124953488Y-87160500D01*
X125053126Y-87144719D01*
X125173220Y-87083528D01*
X125221451Y-87035295D01*
X125225137Y-87031968D01*
X125245391Y-87015474D01*
X125245405Y-87015456D01*
X125245411Y-87015453D01*
X125247101Y-87013777D01*
X125247608Y-87014288D01*
X125278538Y-86997893D01*
X125290513Y-86998226D01*
X125298170Y-86999386D01*
X125319725Y-87002651D01*
X125326168Y-87004078D01*
X125348039Y-87010500D01*
X125367833Y-87010500D01*
X125375170Y-87011052D01*
X125375807Y-87011149D01*
X125390813Y-87012861D01*
X125392527Y-87012993D01*
X125394535Y-87013130D01*
X125396088Y-87013237D01*
X125396088Y-87013236D01*
X125396090Y-87013237D01*
X125407231Y-87011382D01*
X125408540Y-87011165D01*
X125416585Y-87010500D01*
X125448966Y-87010500D01*
X125451217Y-87010551D01*
X125455370Y-87010743D01*
X125464190Y-87011149D01*
X125464190Y-87011148D01*
X125464192Y-87011149D01*
X125464826Y-87011052D01*
X125472168Y-87010500D01*
X125491957Y-87010500D01*
X125491961Y-87010500D01*
X125513830Y-87004077D01*
X125520274Y-87002650D01*
X125549484Y-86998225D01*
X125585891Y-87007225D01*
X125594337Y-87015210D01*
X125594364Y-87015188D01*
X125594575Y-87015435D01*
X125594583Y-87015443D01*
X125594629Y-87015498D01*
X125598670Y-87020235D01*
X125598689Y-87020257D01*
X125598703Y-87020273D01*
X125599180Y-87020815D01*
X125613388Y-87031333D01*
X125615082Y-87032588D01*
X125620573Y-87037321D01*
X125666779Y-87083527D01*
X125666786Y-87083532D01*
X125778609Y-87140508D01*
X125786874Y-87144719D01*
X125886512Y-87160500D01*
X125886514Y-87160500D01*
X126453486Y-87160500D01*
X126453488Y-87160500D01*
X126553126Y-87144719D01*
X126615699Y-87112836D01*
X126673213Y-87083532D01*
X126673215Y-87083530D01*
X126673220Y-87083528D01*
X126768528Y-86988220D01*
X126805585Y-86915492D01*
X126831471Y-86864689D01*
X126832749Y-86865340D01*
X126853678Y-86840839D01*
X126875921Y-86835500D01*
X127710500Y-86835500D01*
X127745148Y-86849852D01*
X127759500Y-86884500D01*
X127759500Y-87140498D01*
X127759501Y-87140508D01*
X127762293Y-87164581D01*
X127805785Y-87263080D01*
X127881919Y-87339214D01*
X127980417Y-87382706D01*
X127980420Y-87382707D01*
X128004495Y-87385500D01*
X128495500Y-87385499D01*
X128530148Y-87399851D01*
X128544500Y-87434499D01*
X128544500Y-87925498D01*
X128544501Y-87925508D01*
X128547293Y-87949581D01*
X128590785Y-88048080D01*
X128666919Y-88124214D01*
X128765417Y-88167706D01*
X128765420Y-88167707D01*
X128789495Y-88170500D01*
X129050504Y-88170499D01*
X129074580Y-88167707D01*
X129150208Y-88134312D01*
X129187699Y-88133447D01*
X129189784Y-88134309D01*
X129265420Y-88167707D01*
X129289495Y-88170500D01*
X129466401Y-88170499D01*
X129501049Y-88184851D01*
X129514798Y-88211833D01*
X129534354Y-88335304D01*
X129534354Y-88335305D01*
X129534355Y-88335307D01*
X129534355Y-88335309D01*
X129591945Y-88448335D01*
X129591950Y-88448342D01*
X129681657Y-88538049D01*
X129681664Y-88538054D01*
X129794691Y-88595644D01*
X129794692Y-88595644D01*
X129794696Y-88595646D01*
X129920000Y-88615492D01*
X130045304Y-88595646D01*
X130045308Y-88595644D01*
X130045309Y-88595644D01*
X130158335Y-88538054D01*
X130158337Y-88538052D01*
X130158342Y-88538050D01*
X130248050Y-88448342D01*
X130248054Y-88448335D01*
X130305644Y-88335309D01*
X130305644Y-88335307D01*
X130305646Y-88335304D01*
X130325492Y-88210000D01*
X130305646Y-88084696D01*
X130296452Y-88066653D01*
X130292074Y-88054069D01*
X130289979Y-88043651D01*
X130289977Y-88043645D01*
X130280680Y-88021333D01*
X130279062Y-87988127D01*
X130285819Y-87966086D01*
X130285819Y-87966083D01*
X130285878Y-87965891D01*
X130287898Y-87960468D01*
X130292707Y-87949580D01*
X130295500Y-87925505D01*
X130295499Y-87433783D01*
X130309851Y-87399136D01*
X130338853Y-87385110D01*
X130359580Y-87382707D01*
X130458079Y-87339215D01*
X130534215Y-87263079D01*
X130577707Y-87164580D01*
X130580500Y-87140505D01*
X130580499Y-86950767D01*
X130594851Y-86916120D01*
X130629499Y-86901768D01*
X130637147Y-86902369D01*
X130720000Y-86915492D01*
X130845304Y-86895646D01*
X130845308Y-86895644D01*
X130845309Y-86895644D01*
X130958335Y-86838054D01*
X130958337Y-86838052D01*
X130958342Y-86838050D01*
X131048050Y-86748342D01*
X131048221Y-86748007D01*
X131051841Y-86740904D01*
X131080358Y-86716547D01*
X131117745Y-86719490D01*
X131142102Y-86748007D01*
X131144500Y-86763149D01*
X131144500Y-88875588D01*
X131130148Y-88910236D01*
X131013942Y-89026443D01*
X130936444Y-89103939D01*
X130936444Y-89103940D01*
X130936443Y-89103941D01*
X130936443Y-89103942D01*
X130929248Y-89121312D01*
X130894500Y-89205198D01*
X130894500Y-89481905D01*
X130880148Y-89516553D01*
X130856640Y-89529622D01*
X130694024Y-89567587D01*
X130689281Y-89568451D01*
X130644765Y-89574312D01*
X130621072Y-89584126D01*
X130615518Y-89586045D01*
X130601185Y-89590052D01*
X130599268Y-89590679D01*
X130593614Y-89592618D01*
X130584522Y-89598439D01*
X130576857Y-89602440D01*
X130504768Y-89632301D01*
X130504762Y-89632304D01*
X130384549Y-89724548D01*
X130384548Y-89724549D01*
X130292302Y-89844766D01*
X130292299Y-89844771D01*
X130234312Y-89984764D01*
X130223693Y-90065425D01*
X130219500Y-90097280D01*
X130219500Y-91922720D01*
X130225091Y-91965192D01*
X130234312Y-92035235D01*
X130278432Y-92141749D01*
X130278432Y-92179252D01*
X130251913Y-92205770D01*
X130233162Y-92209500D01*
X130106838Y-92209500D01*
X130072190Y-92195148D01*
X130057838Y-92160500D01*
X130061568Y-92141749D01*
X130105687Y-92035235D01*
X130120500Y-91922720D01*
X130120500Y-90097280D01*
X130105687Y-89984764D01*
X130047698Y-89844767D01*
X129955451Y-89724549D01*
X129835233Y-89632302D01*
X129779371Y-89609163D01*
X129722575Y-89585637D01*
X129721092Y-89584992D01*
X129720229Y-89584665D01*
X129695240Y-89574314D01*
X129695237Y-89574313D01*
X129695236Y-89574313D01*
X129674801Y-89571622D01*
X129650712Y-89568450D01*
X129645970Y-89567586D01*
X129483360Y-89529622D01*
X129452882Y-89507769D01*
X129445500Y-89481905D01*
X129445500Y-89155202D01*
X129445499Y-89155198D01*
X129431606Y-89121659D01*
X129413428Y-89077773D01*
X129403557Y-89053941D01*
X129403555Y-89053939D01*
X129403554Y-89053937D01*
X129190421Y-88840805D01*
X129176240Y-88810249D01*
X129175676Y-88803514D01*
X129173284Y-88794458D01*
X129172264Y-88789622D01*
X129155646Y-88684696D01*
X129155644Y-88684692D01*
X129155644Y-88684690D01*
X129098054Y-88571664D01*
X129098049Y-88571657D01*
X129008342Y-88481950D01*
X129008335Y-88481945D01*
X128895308Y-88424355D01*
X128895305Y-88424354D01*
X128895304Y-88424354D01*
X128770000Y-88404508D01*
X128644696Y-88424354D01*
X128644694Y-88424354D01*
X128644692Y-88424355D01*
X128644690Y-88424355D01*
X128531664Y-88481945D01*
X128531657Y-88481950D01*
X128441950Y-88571657D01*
X128441945Y-88571664D01*
X128384355Y-88684690D01*
X128384355Y-88684692D01*
X128364546Y-88809763D01*
X128364508Y-88810000D01*
X128384354Y-88935304D01*
X128384354Y-88935305D01*
X128384355Y-88935307D01*
X128384355Y-88935309D01*
X128441945Y-89048335D01*
X128441950Y-89048342D01*
X128531657Y-89138049D01*
X128531664Y-89138054D01*
X128586630Y-89166060D01*
X128644696Y-89195646D01*
X128644695Y-89195646D01*
X128668035Y-89199342D01*
X128751163Y-89212507D01*
X128757026Y-89213809D01*
X128763514Y-89215676D01*
X128770246Y-89216240D01*
X128800804Y-89230420D01*
X128880148Y-89309763D01*
X128894500Y-89344411D01*
X128894500Y-89481905D01*
X128880148Y-89516553D01*
X128856640Y-89529622D01*
X128694024Y-89567587D01*
X128689281Y-89568451D01*
X128644765Y-89574312D01*
X128621072Y-89584126D01*
X128615518Y-89586045D01*
X128601185Y-89590052D01*
X128599268Y-89590679D01*
X128593614Y-89592618D01*
X128584522Y-89598439D01*
X128576857Y-89602440D01*
X128504768Y-89632301D01*
X128504762Y-89632304D01*
X128384549Y-89724548D01*
X128384548Y-89724549D01*
X128292302Y-89844766D01*
X128292299Y-89844771D01*
X128234312Y-89984764D01*
X128223693Y-90065425D01*
X128219500Y-90097280D01*
X128219500Y-91922720D01*
X128225091Y-91965192D01*
X128234312Y-92035235D01*
X128278432Y-92141749D01*
X128278432Y-92179252D01*
X128251913Y-92205770D01*
X128233162Y-92209500D01*
X128106838Y-92209500D01*
X128072190Y-92195148D01*
X128057838Y-92160500D01*
X128061568Y-92141749D01*
X128105687Y-92035235D01*
X128120500Y-91922720D01*
X128120500Y-90097280D01*
X128105687Y-89984764D01*
X128047698Y-89844767D01*
X127955451Y-89724549D01*
X127835233Y-89632302D01*
X127777999Y-89608594D01*
X127770541Y-89604725D01*
X127751163Y-89592456D01*
X127751160Y-89592455D01*
X127678168Y-89564306D01*
X127651004Y-89538449D01*
X127647352Y-89511247D01*
X127647879Y-89507769D01*
X127671149Y-89354192D01*
X127672861Y-89339186D01*
X127672993Y-89337472D01*
X127673237Y-89333909D01*
X127673235Y-89333898D01*
X127673205Y-89333263D01*
X127673645Y-89323918D01*
X127675647Y-89310000D01*
X127664820Y-89234693D01*
X127655166Y-89167545D01*
X127649527Y-89155198D01*
X127595377Y-89036627D01*
X127501128Y-88927857D01*
X127380053Y-88850047D01*
X127380050Y-88850046D01*
X127241965Y-88809500D01*
X127241961Y-88809500D01*
X127098039Y-88809500D01*
X127098034Y-88809500D01*
X126959949Y-88850046D01*
X126838871Y-88927857D01*
X126744625Y-89036623D01*
X126744624Y-89036625D01*
X126744623Y-89036626D01*
X126744623Y-89036627D01*
X126740209Y-89046290D01*
X126684833Y-89167545D01*
X126664353Y-89309997D01*
X126664353Y-89310003D01*
X126668639Y-89339817D01*
X126669086Y-89349037D01*
X126668849Y-89354190D01*
X126692646Y-89511247D01*
X126683647Y-89547655D01*
X126661830Y-89564306D01*
X126588790Y-89592473D01*
X126585310Y-89593852D01*
X126585040Y-89593962D01*
X126569129Y-89604613D01*
X126560626Y-89609163D01*
X126504766Y-89632302D01*
X126504762Y-89632304D01*
X126384549Y-89724548D01*
X126384548Y-89724549D01*
X126292302Y-89844766D01*
X126292299Y-89844771D01*
X126234312Y-89984764D01*
X126223693Y-90065425D01*
X126219500Y-90097280D01*
X126219500Y-91922720D01*
X126225091Y-91965192D01*
X126234312Y-92035235D01*
X126278432Y-92141749D01*
X126278432Y-92179252D01*
X126251913Y-92205770D01*
X126233162Y-92209500D01*
X118622403Y-92209500D01*
X118585835Y-92221381D01*
X118583378Y-92222109D01*
X118554012Y-92229978D01*
X118554007Y-92229980D01*
X118551555Y-92231396D01*
X118542211Y-92235555D01*
X118531877Y-92238913D01*
X118531875Y-92238914D01*
X118508188Y-92256123D01*
X118503892Y-92258913D01*
X118485489Y-92269540D01*
X118485485Y-92269542D01*
X118476960Y-92278067D01*
X118471119Y-92283056D01*
X118454866Y-92294866D01*
X118443056Y-92311119D01*
X118438067Y-92316960D01*
X118429542Y-92325485D01*
X118429540Y-92325489D01*
X118418913Y-92343892D01*
X118416123Y-92348188D01*
X118398914Y-92371875D01*
X118398913Y-92371877D01*
X118395555Y-92382211D01*
X118391396Y-92391555D01*
X118389980Y-92394007D01*
X118389978Y-92394012D01*
X118382109Y-92423378D01*
X118381381Y-92425835D01*
X118369500Y-92462403D01*
X118369500Y-92508674D01*
X118369428Y-92511327D01*
X118350887Y-92853278D01*
X118350313Y-92858552D01*
X118295127Y-93195170D01*
X118293987Y-93200352D01*
X118202727Y-93529044D01*
X118201033Y-93534072D01*
X118074770Y-93850969D01*
X118072542Y-93855784D01*
X117912760Y-94157166D01*
X117910025Y-94161712D01*
X117718591Y-94444055D01*
X117715380Y-94448279D01*
X117494542Y-94708269D01*
X117490893Y-94712121D01*
X117243244Y-94946706D01*
X117239201Y-94950141D01*
X116967627Y-95156587D01*
X116963235Y-95159564D01*
X116670949Y-95335427D01*
X116666262Y-95337912D01*
X116356669Y-95481145D01*
X116351740Y-95483109D01*
X116028469Y-95592031D01*
X116023357Y-95593450D01*
X115690223Y-95666778D01*
X115684987Y-95667637D01*
X115345856Y-95704521D01*
X115340558Y-95704808D01*
X114999442Y-95704808D01*
X114994144Y-95704521D01*
X114655012Y-95667637D01*
X114649776Y-95666778D01*
X114316642Y-95593450D01*
X114311530Y-95592031D01*
X114146626Y-95536468D01*
X113988254Y-95483107D01*
X113983335Y-95481147D01*
X113673736Y-95337911D01*
X113669050Y-95335427D01*
X113659001Y-95329381D01*
X113376764Y-95159564D01*
X113372372Y-95156587D01*
X113100798Y-94950141D01*
X113096755Y-94946706D01*
X112849106Y-94712121D01*
X112845457Y-94708269D01*
X112624619Y-94448279D01*
X112621408Y-94444055D01*
X112429969Y-94161704D01*
X112427244Y-94157174D01*
X112267454Y-93855778D01*
X112265229Y-93850969D01*
X112138960Y-93534056D01*
X112137277Y-93529059D01*
X112046011Y-93200350D01*
X112044872Y-93195170D01*
X111989686Y-92858552D01*
X111989112Y-92853278D01*
X111986376Y-92802823D01*
X111970572Y-92511327D01*
X111970500Y-92508674D01*
X111970500Y-92411583D01*
X113919500Y-92411583D01*
X113919500Y-92608416D01*
X113950290Y-92802823D01*
X113950291Y-92802826D01*
X114011116Y-92990026D01*
X114100472Y-93165399D01*
X114100475Y-93165403D01*
X114100476Y-93165405D01*
X114216172Y-93324646D01*
X114216174Y-93324648D01*
X114216177Y-93324652D01*
X114355347Y-93463822D01*
X114355350Y-93463824D01*
X114355354Y-93463828D01*
X114514595Y-93579524D01*
X114514597Y-93579525D01*
X114514600Y-93579527D01*
X114689973Y-93668883D01*
X114689975Y-93668884D01*
X114877174Y-93729709D01*
X115071583Y-93760500D01*
X115071584Y-93760500D01*
X115268416Y-93760500D01*
X115268417Y-93760500D01*
X115462826Y-93729709D01*
X115650025Y-93668884D01*
X115825405Y-93579524D01*
X115984646Y-93463828D01*
X116123828Y-93324646D01*
X116239524Y-93165405D01*
X116328884Y-92990025D01*
X116389709Y-92802826D01*
X116420500Y-92608417D01*
X116420500Y-92411583D01*
X116389709Y-92217174D01*
X116328884Y-92029975D01*
X116239524Y-91854595D01*
X116123828Y-91695354D01*
X116123824Y-91695350D01*
X116123822Y-91695347D01*
X115984652Y-91556177D01*
X115984653Y-91556177D01*
X115825399Y-91440472D01*
X115650026Y-91351116D01*
X115462826Y-91290291D01*
X115462823Y-91290290D01*
X115313482Y-91266637D01*
X115268417Y-91259500D01*
X115071583Y-91259500D01*
X115034998Y-91265294D01*
X114877176Y-91290290D01*
X114877173Y-91290291D01*
X114689973Y-91351116D01*
X114514600Y-91440472D01*
X114355347Y-91556177D01*
X114216177Y-91695347D01*
X114100472Y-91854600D01*
X114011116Y-92029973D01*
X113950291Y-92217173D01*
X113950290Y-92217176D01*
X113919500Y-92411583D01*
X111970500Y-92411583D01*
X111970500Y-86011285D01*
X111970567Y-86008721D01*
X111970773Y-86004793D01*
X111987893Y-85678115D01*
X111988426Y-85673037D01*
X112040017Y-85347311D01*
X112041083Y-85342300D01*
X112043128Y-85334669D01*
X112126432Y-85023771D01*
X112128012Y-85018910D01*
X112246194Y-84711034D01*
X112248269Y-84706372D01*
X112397992Y-84412526D01*
X112400543Y-84408107D01*
X112580161Y-84131519D01*
X112583153Y-84127400D01*
X112790703Y-83871099D01*
X112794116Y-83867308D01*
X113027308Y-83634116D01*
X113031099Y-83630703D01*
X113287400Y-83423153D01*
X113291519Y-83420161D01*
X113568107Y-83240543D01*
X113572526Y-83237992D01*
X113866372Y-83088269D01*
X113871034Y-83086194D01*
X114178910Y-82968012D01*
X114183771Y-82966432D01*
X114502307Y-82881081D01*
X114507311Y-82880017D01*
X114833037Y-82828426D01*
X114838115Y-82827893D01*
X115168722Y-82810567D01*
X115171286Y-82810500D01*
X126887691Y-82810500D01*
X126887693Y-82810500D01*
X127120449Y-82775418D01*
X127345377Y-82706037D01*
X127557452Y-82603907D01*
X127655761Y-82536879D01*
X127692473Y-82529219D01*
X127723849Y-82549762D01*
X127725799Y-82552864D01*
X127739511Y-82576613D01*
X127823387Y-82660489D01*
X127926114Y-82719799D01*
X127954758Y-82727474D01*
X128040688Y-82750500D01*
X128040691Y-82750500D01*
X128159311Y-82750500D01*
X128216597Y-82735149D01*
X128273886Y-82719799D01*
X128376613Y-82660489D01*
X128460489Y-82576613D01*
X128484803Y-82534499D01*
X128514556Y-82511670D01*
X128527238Y-82510000D01*
X128672762Y-82510000D01*
X128707410Y-82524352D01*
G37*
%TD.AperFunction*%
%TD*%
%TA.AperFunction,Conductor*%
%TO.N,+3.3V*%
G36*
X142855855Y-53235478D02*
G01*
X143194996Y-53272363D01*
X143200209Y-53273218D01*
X143533369Y-53346552D01*
X143538462Y-53347966D01*
X143861755Y-53456895D01*
X143866654Y-53458848D01*
X144176270Y-53602091D01*
X144180943Y-53604568D01*
X144473239Y-53780438D01*
X144477627Y-53783412D01*
X144749201Y-53989858D01*
X144753244Y-53993293D01*
X145000893Y-54227878D01*
X145004542Y-54231730D01*
X145225380Y-54491720D01*
X145228591Y-54495944D01*
X145420025Y-54778287D01*
X145422760Y-54782833D01*
X145582542Y-55084215D01*
X145584770Y-55089030D01*
X145692923Y-55360476D01*
X145711033Y-55405927D01*
X145712727Y-55410955D01*
X145803987Y-55739647D01*
X145805127Y-55744829D01*
X145860313Y-56081447D01*
X145860887Y-56086721D01*
X145879428Y-56428672D01*
X145879500Y-56431325D01*
X145879500Y-62928714D01*
X145879433Y-62931278D01*
X145862107Y-63261873D01*
X145861571Y-63266974D01*
X145809983Y-63592682D01*
X145808916Y-63597699D01*
X145723569Y-63916219D01*
X145721984Y-63921097D01*
X145603810Y-64228953D01*
X145601724Y-64233639D01*
X145452013Y-64527462D01*
X145449449Y-64531903D01*
X145269849Y-64808464D01*
X145266834Y-64812614D01*
X145059305Y-65068890D01*
X145055873Y-65072701D01*
X144822701Y-65305873D01*
X144818890Y-65309305D01*
X144562614Y-65516834D01*
X144558464Y-65519849D01*
X144281903Y-65699449D01*
X144277462Y-65702013D01*
X143983639Y-65851724D01*
X143978953Y-65853810D01*
X143671097Y-65971984D01*
X143666219Y-65973569D01*
X143347699Y-66058916D01*
X143342682Y-66059983D01*
X143016974Y-66111571D01*
X143011873Y-66112107D01*
X142681278Y-66129433D01*
X142678714Y-66129500D01*
X140147119Y-66129500D01*
X140112471Y-66115148D01*
X140098119Y-66080500D01*
X140107693Y-66051403D01*
X140109116Y-66049475D01*
X140152725Y-65924849D01*
X140155500Y-65895256D01*
X140155500Y-65289744D01*
X140152725Y-65260151D01*
X140109116Y-65135525D01*
X140109114Y-65135522D01*
X140109115Y-65135522D01*
X140030711Y-65029288D01*
X139924477Y-64950885D01*
X139924475Y-64950884D01*
X139887069Y-64937794D01*
X139799851Y-64907275D01*
X139799842Y-64907274D01*
X139770267Y-64904501D01*
X139770266Y-64904500D01*
X139770256Y-64904500D01*
X139189744Y-64904500D01*
X139189734Y-64904500D01*
X139189732Y-64904501D01*
X139160157Y-64907274D01*
X139160148Y-64907275D01*
X139035522Y-64950885D01*
X138929288Y-65029288D01*
X138850886Y-65135520D01*
X138850882Y-65135526D01*
X138843342Y-65157073D01*
X138836645Y-65169811D01*
X138835957Y-65170751D01*
X138835097Y-65171925D01*
X138803061Y-65191420D01*
X138795547Y-65192000D01*
X138534681Y-65192000D01*
X138500033Y-65177648D01*
X138490610Y-65164418D01*
X138484272Y-65151378D01*
X138484263Y-65151359D01*
X138482503Y-65148338D01*
X138482499Y-65148330D01*
X138471729Y-65131706D01*
X138469197Y-65127316D01*
X138442158Y-65074249D01*
X138348251Y-64980342D01*
X138348246Y-64980338D01*
X138229922Y-64920050D01*
X138229921Y-64920049D01*
X138229920Y-64920049D01*
X138131746Y-64904500D01*
X137628254Y-64904500D01*
X137530080Y-64920049D01*
X137530078Y-64920049D01*
X137530077Y-64920050D01*
X137411753Y-64980338D01*
X137411748Y-64980342D01*
X137317842Y-65074248D01*
X137317838Y-65074253D01*
X137257550Y-65192577D01*
X137257549Y-65192578D01*
X137257549Y-65192580D01*
X137242000Y-65290754D01*
X137242000Y-65869246D01*
X137257549Y-65967420D01*
X137257549Y-65967421D01*
X137257550Y-65967422D01*
X137303831Y-66058254D01*
X137306774Y-66095642D01*
X137282418Y-66124159D01*
X137260172Y-66129500D01*
X136924828Y-66129500D01*
X136890180Y-66115148D01*
X136875828Y-66080500D01*
X136881169Y-66058254D01*
X136906809Y-66007932D01*
X136927451Y-65967420D01*
X136943000Y-65869246D01*
X136943000Y-65290754D01*
X136927451Y-65192580D01*
X136906439Y-65151342D01*
X136867161Y-65074253D01*
X136867157Y-65074248D01*
X136838621Y-65045712D01*
X136831331Y-65036406D01*
X136830758Y-65035457D01*
X136823023Y-65022657D01*
X136819962Y-65019304D01*
X136807202Y-64984038D01*
X136807704Y-64978927D01*
X136831149Y-64824192D01*
X136832861Y-64809186D01*
X136832993Y-64807472D01*
X136833237Y-64803909D01*
X136833235Y-64803898D01*
X136833205Y-64803263D01*
X136833645Y-64793918D01*
X136835647Y-64780000D01*
X136831358Y-64750174D01*
X136830912Y-64740948D01*
X136831149Y-64735805D01*
X136823836Y-64687543D01*
X136811493Y-64606081D01*
X136820492Y-64569676D01*
X136828713Y-64560981D01*
X136835474Y-64555391D01*
X136840273Y-64551296D01*
X136840815Y-64550819D01*
X136852582Y-64534923D01*
X136857310Y-64529436D01*
X136903528Y-64483220D01*
X136964719Y-64363126D01*
X136980500Y-64263488D01*
X136980500Y-63696512D01*
X136964719Y-63596874D01*
X136923303Y-63515590D01*
X136903532Y-63476786D01*
X136903527Y-63476779D01*
X136808220Y-63381472D01*
X136808213Y-63381467D01*
X136688129Y-63320282D01*
X136688127Y-63320281D01*
X136688126Y-63320281D01*
X136588488Y-63304500D01*
X136071512Y-63304500D01*
X135971874Y-63320281D01*
X135971872Y-63320281D01*
X135971870Y-63320282D01*
X135851786Y-63381467D01*
X135851779Y-63381472D01*
X135756472Y-63476779D01*
X135756467Y-63476786D01*
X135695282Y-63596870D01*
X135695281Y-63596872D01*
X135695281Y-63596874D01*
X135679500Y-63696512D01*
X135679500Y-64263488D01*
X135695281Y-64363126D01*
X135695281Y-64363127D01*
X135695282Y-64363129D01*
X135756467Y-64483213D01*
X135756472Y-64483220D01*
X135804680Y-64531428D01*
X135808026Y-64535133D01*
X135824524Y-64555390D01*
X135831286Y-64560983D01*
X135848839Y-64594124D01*
X135848504Y-64606082D01*
X135828848Y-64735814D01*
X135827131Y-64750884D01*
X135827004Y-64752539D01*
X135826762Y-64756088D01*
X135826794Y-64756746D01*
X135826353Y-64766084D01*
X135824353Y-64780001D01*
X135824353Y-64780002D01*
X135828639Y-64809816D01*
X135829086Y-64819037D01*
X135828849Y-64824190D01*
X135846725Y-64942174D01*
X135837726Y-64978581D01*
X135832926Y-64984162D01*
X135826207Y-64990881D01*
X135821427Y-64995078D01*
X135812474Y-65001961D01*
X135811503Y-65002751D01*
X135811502Y-65002751D01*
X135803020Y-65013568D01*
X135799112Y-65017976D01*
X135742841Y-65074249D01*
X135728615Y-65102167D01*
X135725673Y-65107180D01*
X135725284Y-65107761D01*
X135694082Y-65128567D01*
X135684568Y-65129500D01*
X134636899Y-65129500D01*
X134602251Y-65115148D01*
X134469114Y-64982011D01*
X134366390Y-64922702D01*
X134366387Y-64922701D01*
X134337877Y-64915062D01*
X134298463Y-64904501D01*
X134251811Y-64892000D01*
X134251809Y-64892000D01*
X133901010Y-64892000D01*
X133884360Y-64889084D01*
X133880839Y-64887812D01*
X133841937Y-64881917D01*
X133630272Y-64849846D01*
X133623809Y-64848414D01*
X133601967Y-64842001D01*
X133601961Y-64842000D01*
X133601960Y-64842000D01*
X133582176Y-64842000D01*
X133574829Y-64841446D01*
X133574177Y-64841347D01*
X133559128Y-64839633D01*
X133559120Y-64839632D01*
X133559108Y-64839631D01*
X133557399Y-64839500D01*
X133556700Y-64839452D01*
X133553909Y-64839261D01*
X133541453Y-64841335D01*
X133533409Y-64842000D01*
X133501051Y-64842000D01*
X133498797Y-64841948D01*
X133485809Y-64841349D01*
X133485190Y-64841443D01*
X133485175Y-64841446D01*
X133485168Y-64841447D01*
X133477826Y-64842000D01*
X133458037Y-64842000D01*
X133436189Y-64848415D01*
X133429726Y-64849846D01*
X133359468Y-64860491D01*
X133323061Y-64851492D01*
X133311638Y-64838227D01*
X133311296Y-64838480D01*
X133309116Y-64835527D01*
X133309116Y-64835525D01*
X133235526Y-64735813D01*
X133230709Y-64729286D01*
X133124477Y-64650885D01*
X133124475Y-64650884D01*
X133087069Y-64637794D01*
X132999851Y-64607275D01*
X132999842Y-64607274D01*
X132970267Y-64604501D01*
X132970266Y-64604500D01*
X132970256Y-64604500D01*
X132389744Y-64604500D01*
X132389734Y-64604500D01*
X132389732Y-64604501D01*
X132360157Y-64607274D01*
X132360148Y-64607275D01*
X132235522Y-64650885D01*
X132129288Y-64729288D01*
X132050885Y-64835522D01*
X132007275Y-64960148D01*
X132007274Y-64960157D01*
X132004501Y-64989732D01*
X132004500Y-64989753D01*
X132004500Y-65695246D01*
X132004501Y-65695267D01*
X132007274Y-65724842D01*
X132007275Y-65724851D01*
X132015859Y-65749381D01*
X132050884Y-65849475D01*
X132050885Y-65849477D01*
X132050884Y-65849477D01*
X132129288Y-65955711D01*
X132235520Y-66034113D01*
X132235521Y-66034113D01*
X132235525Y-66034116D01*
X132235911Y-66034251D01*
X132236101Y-66034420D01*
X132238768Y-66035830D01*
X132238418Y-66036491D01*
X132263872Y-66059242D01*
X132265974Y-66096686D01*
X132240982Y-66124648D01*
X132219724Y-66129500D01*
X131197595Y-66129500D01*
X131150000Y-66129500D01*
X131032307Y-66129500D01*
X130799551Y-66164582D01*
X130785833Y-66168813D01*
X130574629Y-66233960D01*
X130574616Y-66233965D01*
X130362550Y-66336091D01*
X130268380Y-66400295D01*
X130231667Y-66407955D01*
X130200291Y-66387412D01*
X130198342Y-66384309D01*
X130180492Y-66353392D01*
X130180491Y-66353391D01*
X130180489Y-66353387D01*
X130096613Y-66269511D01*
X129993887Y-66210201D01*
X129993884Y-66210200D01*
X129879312Y-66179500D01*
X129879309Y-66179500D01*
X129760691Y-66179500D01*
X129760688Y-66179500D01*
X129646115Y-66210200D01*
X129646112Y-66210201D01*
X129543386Y-66269511D01*
X129543386Y-66269512D01*
X129459512Y-66353386D01*
X129459511Y-66353386D01*
X129400201Y-66456112D01*
X129400200Y-66456115D01*
X129369500Y-66570688D01*
X129369500Y-66689311D01*
X129400200Y-66803884D01*
X129400201Y-66803887D01*
X129400439Y-66804299D01*
X129459511Y-66906613D01*
X129543387Y-66990489D01*
X129584906Y-67014460D01*
X129646110Y-67049797D01*
X129646111Y-67049797D01*
X129646114Y-67049799D01*
X129658251Y-67053051D01*
X129688004Y-67075880D01*
X129692900Y-67113062D01*
X129691182Y-67118282D01*
X129645066Y-67235784D01*
X129645065Y-67235786D01*
X129592686Y-67465269D01*
X129592685Y-67465278D01*
X129576245Y-67684662D01*
X129559344Y-67718141D01*
X129527382Y-67730000D01*
X128112618Y-67730000D01*
X128077970Y-67715648D01*
X128063755Y-67684662D01*
X128047314Y-67465278D01*
X128047314Y-67465273D01*
X127994935Y-67235789D01*
X127948817Y-67118282D01*
X127949518Y-67080786D01*
X127976528Y-67054768D01*
X127981733Y-67053055D01*
X127993886Y-67049799D01*
X128096613Y-66990489D01*
X128180489Y-66906613D01*
X128239799Y-66803886D01*
X128259463Y-66730500D01*
X128267670Y-66699873D01*
X128290500Y-66670120D01*
X128327682Y-66665225D01*
X128357435Y-66688055D01*
X128362330Y-66699873D01*
X128390200Y-66803884D01*
X128390201Y-66803887D01*
X128390439Y-66804299D01*
X128449511Y-66906613D01*
X128533387Y-66990489D01*
X128574906Y-67014460D01*
X128636110Y-67049797D01*
X128636114Y-67049799D01*
X128664758Y-67057474D01*
X128750688Y-67080500D01*
X128750691Y-67080500D01*
X128869311Y-67080500D01*
X128926597Y-67065149D01*
X128983886Y-67049799D01*
X129086613Y-66990489D01*
X129170489Y-66906613D01*
X129229799Y-66803886D01*
X129249463Y-66730500D01*
X129260500Y-66689311D01*
X129260500Y-66570688D01*
X129229799Y-66456115D01*
X129229798Y-66456112D01*
X129198696Y-66402242D01*
X129170489Y-66353387D01*
X129086613Y-66269511D01*
X128983887Y-66210201D01*
X128949494Y-66200985D01*
X128919741Y-66178154D01*
X128914847Y-66140972D01*
X128922752Y-66124558D01*
X128996616Y-66024475D01*
X129040225Y-65899849D01*
X129043000Y-65870256D01*
X129043000Y-65289744D01*
X129040225Y-65260151D01*
X128996616Y-65135525D01*
X128996614Y-65135522D01*
X128996615Y-65135522D01*
X128918211Y-65029288D01*
X128811977Y-64950885D01*
X128811975Y-64950884D01*
X128774569Y-64937794D01*
X128687351Y-64907275D01*
X128687342Y-64907274D01*
X128657767Y-64904501D01*
X128657766Y-64904500D01*
X128657756Y-64904500D01*
X127981484Y-64904500D01*
X127946836Y-64890148D01*
X127932484Y-64855500D01*
X127932983Y-64848525D01*
X127933922Y-64842000D01*
X127935647Y-64830000D01*
X127932860Y-64810619D01*
X127925794Y-64761473D01*
X127935068Y-64725135D01*
X127967321Y-64705998D01*
X127974295Y-64705499D01*
X128032129Y-64705499D01*
X128032132Y-64705499D01*
X128112495Y-64689515D01*
X128152779Y-64662597D01*
X128189559Y-64655281D01*
X128207217Y-64662595D01*
X128247505Y-64689515D01*
X128327867Y-64705500D01*
X128532132Y-64705499D01*
X128612495Y-64689515D01*
X128652779Y-64662597D01*
X128689559Y-64655281D01*
X128707217Y-64662595D01*
X128747505Y-64689515D01*
X128827867Y-64705500D01*
X129032132Y-64705499D01*
X129112495Y-64689515D01*
X129152779Y-64662597D01*
X129189559Y-64655281D01*
X129207217Y-64662595D01*
X129247505Y-64689515D01*
X129327867Y-64705500D01*
X129532132Y-64705499D01*
X129612495Y-64689515D01*
X129652779Y-64662597D01*
X129689559Y-64655281D01*
X129707217Y-64662595D01*
X129747505Y-64689515D01*
X129827867Y-64705500D01*
X130032132Y-64705499D01*
X130112495Y-64689515D01*
X130203624Y-64628624D01*
X130264515Y-64537495D01*
X130280500Y-64457133D01*
X130280499Y-63779498D01*
X130294851Y-63744851D01*
X130329499Y-63730499D01*
X131007129Y-63730499D01*
X131007132Y-63730499D01*
X131087495Y-63714515D01*
X131178624Y-63653624D01*
X131239515Y-63562495D01*
X131255500Y-63482133D01*
X131255499Y-63277868D01*
X131239515Y-63197505D01*
X131211447Y-63155499D01*
X131178624Y-63106375D01*
X131112952Y-63062495D01*
X131087495Y-63045485D01*
X131007133Y-63029500D01*
X131007129Y-63029500D01*
X130252871Y-63029500D01*
X130172504Y-63045485D01*
X130081223Y-63106477D01*
X130044440Y-63113793D01*
X130013258Y-63092958D01*
X130005000Y-63065735D01*
X130005000Y-62694264D01*
X130019352Y-62659616D01*
X130054000Y-62645264D01*
X130081223Y-62653522D01*
X130098427Y-62665017D01*
X130172505Y-62714515D01*
X130252867Y-62730500D01*
X131007132Y-62730499D01*
X131087495Y-62714515D01*
X131178624Y-62653624D01*
X131239515Y-62562495D01*
X131255500Y-62482133D01*
X131255499Y-62376582D01*
X131269850Y-62341936D01*
X131304499Y-62327584D01*
X131339145Y-62341934D01*
X131339147Y-62341936D01*
X131460766Y-62463556D01*
X131460768Y-62463557D01*
X131460769Y-62463558D01*
X131562027Y-62505500D01*
X131671627Y-62505500D01*
X132355500Y-62505500D01*
X132390148Y-62519852D01*
X132404500Y-62554500D01*
X132404500Y-62833496D01*
X132390148Y-62868144D01*
X132362906Y-62880955D01*
X132363056Y-62881641D01*
X132360150Y-62882275D01*
X132347562Y-62886679D01*
X132343662Y-62887863D01*
X132315631Y-62895119D01*
X132285548Y-62905449D01*
X132285524Y-62905458D01*
X132282262Y-62906869D01*
X132282225Y-62906886D01*
X132266236Y-62914758D01*
X132260780Y-62917045D01*
X132235524Y-62925883D01*
X132235522Y-62925884D01*
X132129288Y-63004288D01*
X132050885Y-63110522D01*
X132007275Y-63235148D01*
X132007274Y-63235157D01*
X132004501Y-63264732D01*
X132004500Y-63264753D01*
X132004500Y-63970246D01*
X132004501Y-63970267D01*
X132007274Y-63999842D01*
X132007275Y-63999851D01*
X132019945Y-64036058D01*
X132050884Y-64124475D01*
X132050885Y-64124477D01*
X132050884Y-64124477D01*
X132129288Y-64230711D01*
X132235522Y-64309114D01*
X132235525Y-64309116D01*
X132360151Y-64352725D01*
X132389744Y-64355500D01*
X132389754Y-64355500D01*
X132970246Y-64355500D01*
X132970256Y-64355500D01*
X132999849Y-64352725D01*
X133124475Y-64309116D01*
X133230711Y-64230711D01*
X133309116Y-64124475D01*
X133352725Y-63999849D01*
X133355500Y-63970256D01*
X133355500Y-63264744D01*
X133352725Y-63235151D01*
X133309116Y-63110525D01*
X133309114Y-63110522D01*
X133309115Y-63110522D01*
X133230711Y-63004288D01*
X133124478Y-62925885D01*
X133092680Y-62914758D01*
X133067564Y-62905969D01*
X133062464Y-62903854D01*
X133054887Y-62900198D01*
X133044358Y-62895117D01*
X133016349Y-62887868D01*
X133012447Y-62886682D01*
X132999850Y-62882275D01*
X132996930Y-62881637D01*
X132997112Y-62880799D01*
X132966760Y-62864747D01*
X132955500Y-62833495D01*
X132955500Y-62325202D01*
X132955499Y-62325198D01*
X132913557Y-62223942D01*
X132913555Y-62223940D01*
X132913555Y-62223939D01*
X132836058Y-62146443D01*
X132686060Y-61996444D01*
X132686058Y-61996443D01*
X132668835Y-61989309D01*
X132657578Y-61984646D01*
X132584801Y-61954500D01*
X132584800Y-61954500D01*
X131751239Y-61954500D01*
X131716591Y-61940148D01*
X131714208Y-61937765D01*
X131699856Y-61903117D01*
X131714208Y-61868469D01*
X131735050Y-61856102D01*
X131790053Y-61839953D01*
X131911128Y-61762143D01*
X132005377Y-61653373D01*
X132065165Y-61522457D01*
X132065165Y-61522455D01*
X132065166Y-61522454D01*
X132085647Y-61380002D01*
X132085647Y-61379997D01*
X132065166Y-61237545D01*
X132060751Y-61227879D01*
X132005377Y-61106627D01*
X131934510Y-61024842D01*
X131911128Y-60997857D01*
X131886653Y-60982128D01*
X131790053Y-60920047D01*
X131790050Y-60920046D01*
X131651965Y-60879500D01*
X131651961Y-60879500D01*
X131508039Y-60879500D01*
X131508034Y-60879500D01*
X131369946Y-60920046D01*
X131369946Y-60920047D01*
X131355853Y-60929103D01*
X131350057Y-60932296D01*
X131349093Y-60932744D01*
X131329426Y-60944366D01*
X131292295Y-60949636D01*
X131262313Y-60927107D01*
X131255499Y-60902182D01*
X131255499Y-60777868D01*
X131239515Y-60697505D01*
X131212192Y-60656614D01*
X131178624Y-60606375D01*
X131100068Y-60553886D01*
X131087495Y-60545485D01*
X131087494Y-60545484D01*
X131087493Y-60545484D01*
X131044023Y-60536837D01*
X131012841Y-60516002D01*
X131005525Y-60479219D01*
X131009925Y-60466532D01*
X131015644Y-60455308D01*
X131015644Y-60455307D01*
X131015646Y-60455304D01*
X131035492Y-60330000D01*
X131015646Y-60204696D01*
X131015644Y-60204692D01*
X131015644Y-60204690D01*
X130958054Y-60091664D01*
X130958049Y-60091657D01*
X130868342Y-60001950D01*
X130868335Y-60001945D01*
X130755308Y-59944355D01*
X130755305Y-59944354D01*
X130755304Y-59944354D01*
X130630000Y-59924508D01*
X130504696Y-59944354D01*
X130504694Y-59944354D01*
X130504692Y-59944355D01*
X130504690Y-59944355D01*
X130391664Y-60001945D01*
X130391657Y-60001950D01*
X130301950Y-60091657D01*
X130301945Y-60091664D01*
X130244355Y-60204690D01*
X130244355Y-60204692D01*
X130244354Y-60204694D01*
X130244354Y-60204696D01*
X130224508Y-60330000D01*
X130244354Y-60455304D01*
X130244354Y-60455305D01*
X130244355Y-60455307D01*
X130250076Y-60466536D01*
X130253017Y-60503924D01*
X130228660Y-60532440D01*
X130215975Y-60536839D01*
X130172504Y-60545485D01*
X130081375Y-60606375D01*
X130020484Y-60697506D01*
X130016893Y-60715560D01*
X129996058Y-60746742D01*
X129968835Y-60755000D01*
X129777673Y-60755000D01*
X129743025Y-60740648D01*
X129728673Y-60706000D01*
X129736931Y-60678777D01*
X129764515Y-60637495D01*
X129780500Y-60557133D01*
X129780499Y-59802868D01*
X129764515Y-59722505D01*
X129715646Y-59649368D01*
X129703624Y-59631375D01*
X129633920Y-59584801D01*
X129612495Y-59570485D01*
X129532133Y-59554500D01*
X129532129Y-59554500D01*
X129327871Y-59554500D01*
X129247504Y-59570485D01*
X129247501Y-59570486D01*
X129207222Y-59597400D01*
X129170440Y-59604716D01*
X129152778Y-59597400D01*
X129112495Y-59570485D01*
X129111822Y-59570206D01*
X129111307Y-59569690D01*
X129108483Y-59567804D01*
X129108858Y-59567241D01*
X129085307Y-59543684D01*
X129085311Y-59506181D01*
X129111833Y-59479666D01*
X129124178Y-59476358D01*
X129205236Y-59465687D01*
X129345233Y-59407698D01*
X129465451Y-59315451D01*
X129557698Y-59195233D01*
X129615687Y-59055236D01*
X129630500Y-58942720D01*
X129630500Y-57117280D01*
X129615687Y-57004764D01*
X129557698Y-56864767D01*
X129515159Y-56809329D01*
X129505452Y-56773104D01*
X129524204Y-56740626D01*
X129554033Y-56730500D01*
X129805967Y-56730500D01*
X129840615Y-56744852D01*
X129854967Y-56779500D01*
X129844841Y-56809329D01*
X129802302Y-56864766D01*
X129802299Y-56864771D01*
X129744312Y-57004764D01*
X129733697Y-57085399D01*
X129729500Y-57117280D01*
X129729500Y-58942720D01*
X129735091Y-58985192D01*
X129744312Y-59055235D01*
X129802299Y-59195228D01*
X129802302Y-59195233D01*
X129894549Y-59315451D01*
X130014767Y-59407698D01*
X130014769Y-59407698D01*
X130014771Y-59407700D01*
X130126421Y-59453947D01*
X130154764Y-59465687D01*
X130267280Y-59480500D01*
X130267284Y-59480500D01*
X131092716Y-59480500D01*
X131092720Y-59480500D01*
X131205236Y-59465687D01*
X131345233Y-59407698D01*
X131465451Y-59315451D01*
X131557698Y-59195233D01*
X131615687Y-59055236D01*
X131630500Y-58942720D01*
X131630500Y-57117280D01*
X131615687Y-57004764D01*
X131557698Y-56864767D01*
X131515159Y-56809329D01*
X131505452Y-56773104D01*
X131524204Y-56740626D01*
X131554033Y-56730500D01*
X131805967Y-56730500D01*
X131840615Y-56744852D01*
X131854967Y-56779500D01*
X131844841Y-56809329D01*
X131802302Y-56864766D01*
X131802299Y-56864771D01*
X131744312Y-57004764D01*
X131733697Y-57085399D01*
X131729500Y-57117280D01*
X131729500Y-58942720D01*
X131735091Y-58985192D01*
X131744312Y-59055235D01*
X131802299Y-59195228D01*
X131802302Y-59195233D01*
X131894549Y-59315451D01*
X132014767Y-59407698D01*
X132014769Y-59407698D01*
X132014771Y-59407700D01*
X132126421Y-59453947D01*
X132154764Y-59465687D01*
X132267280Y-59480500D01*
X132267284Y-59480500D01*
X133092716Y-59480500D01*
X133092720Y-59480500D01*
X133205236Y-59465687D01*
X133345233Y-59407698D01*
X133465451Y-59315451D01*
X133557698Y-59195233D01*
X133615687Y-59055236D01*
X133630500Y-58942720D01*
X133630500Y-58728037D01*
X133633323Y-58711646D01*
X133636472Y-58702777D01*
X133677335Y-58422431D01*
X133696535Y-58390216D01*
X133725823Y-58380500D01*
X134073688Y-58380500D01*
X134108336Y-58394852D01*
X134113884Y-58401478D01*
X134116836Y-58405712D01*
X134117214Y-58406255D01*
X134120670Y-58412023D01*
X134131468Y-58433214D01*
X134131470Y-58433217D01*
X134131472Y-58433220D01*
X134131473Y-58433221D01*
X134131475Y-58433223D01*
X134145510Y-58447258D01*
X134149554Y-58451841D01*
X134157145Y-58461610D01*
X134158724Y-58463438D01*
X134158736Y-58463451D01*
X134165205Y-58470593D01*
X134165206Y-58470594D01*
X134172014Y-58475122D01*
X134179525Y-58481273D01*
X134179680Y-58481428D01*
X134183026Y-58485133D01*
X134199524Y-58505391D01*
X134199527Y-58505393D01*
X134221546Y-58523603D01*
X134224971Y-58526719D01*
X134226780Y-58528528D01*
X134226782Y-58528529D01*
X134229899Y-58530794D01*
X134229792Y-58530941D01*
X134232826Y-58532931D01*
X134236729Y-58536159D01*
X134254282Y-58569300D01*
X134254500Y-58573918D01*
X134254500Y-59060749D01*
X134251787Y-59076828D01*
X134250053Y-59081818D01*
X134250051Y-59081824D01*
X134227011Y-59247712D01*
X134227011Y-59247715D01*
X134227011Y-59247716D01*
X134228610Y-59303374D01*
X134228969Y-59315890D01*
X134229193Y-59317879D01*
X134229500Y-59323358D01*
X134229500Y-60338260D01*
X134239427Y-60406393D01*
X134290802Y-60511483D01*
X134290803Y-60511484D01*
X134292495Y-60513176D01*
X134305177Y-60535140D01*
X134310200Y-60553886D01*
X134310201Y-60553889D01*
X134369511Y-60656614D01*
X134369512Y-60656615D01*
X134833748Y-61120852D01*
X134848100Y-61155500D01*
X134833748Y-61190148D01*
X134799100Y-61204500D01*
X134546738Y-61204500D01*
X134478605Y-61214427D01*
X134478603Y-61214428D01*
X134373519Y-61265801D01*
X134373515Y-61265803D01*
X134290803Y-61348515D01*
X134290801Y-61348519D01*
X134239428Y-61453603D01*
X134239427Y-61453605D01*
X134229500Y-61521738D01*
X134229500Y-62613261D01*
X134239427Y-62681394D01*
X134239428Y-62681396D01*
X134255619Y-62714514D01*
X134290802Y-62786483D01*
X134373517Y-62869198D01*
X134478607Y-62920573D01*
X134526884Y-62927606D01*
X134546738Y-62930500D01*
X134546740Y-62930500D01*
X134913262Y-62930500D01*
X134930590Y-62927974D01*
X134981393Y-62920573D01*
X135086483Y-62869198D01*
X135169198Y-62786483D01*
X135220573Y-62681393D01*
X135230500Y-62613260D01*
X135230500Y-61521740D01*
X135230500Y-61521738D01*
X135230500Y-61520191D01*
X135244852Y-61485543D01*
X135279500Y-61471191D01*
X135292180Y-61472860D01*
X135302018Y-61475496D01*
X135320689Y-61480500D01*
X135320691Y-61480500D01*
X136016995Y-61480500D01*
X136079193Y-61463833D01*
X136110294Y-61455500D01*
X136131571Y-61449799D01*
X136234298Y-61390489D01*
X136694790Y-60929997D01*
X139224353Y-60929997D01*
X139224353Y-60930002D01*
X139244833Y-61072454D01*
X139271114Y-61130000D01*
X139304623Y-61203373D01*
X139304624Y-61203374D01*
X139304625Y-61203376D01*
X139371260Y-61280277D01*
X139398872Y-61312143D01*
X139519947Y-61389953D01*
X139536120Y-61394701D01*
X139565320Y-61418231D01*
X139569331Y-61455519D01*
X139561742Y-61470811D01*
X139550882Y-61485527D01*
X139507275Y-61610148D01*
X139507274Y-61610157D01*
X139504501Y-61639732D01*
X139504500Y-61639753D01*
X139504500Y-62220246D01*
X139504501Y-62220267D01*
X139507274Y-62249842D01*
X139507275Y-62249851D01*
X139533641Y-62325198D01*
X139550884Y-62374475D01*
X139550885Y-62374477D01*
X139550884Y-62374477D01*
X139629288Y-62480711D01*
X139717673Y-62545941D01*
X139735525Y-62559116D01*
X139860151Y-62602725D01*
X139889744Y-62605500D01*
X139889754Y-62605500D01*
X140595246Y-62605500D01*
X140595256Y-62605500D01*
X140624849Y-62602725D01*
X140749475Y-62559116D01*
X140855711Y-62480711D01*
X140934116Y-62374475D01*
X140977725Y-62249849D01*
X140980500Y-62220256D01*
X140980500Y-61639744D01*
X140977725Y-61610151D01*
X140934116Y-61485525D01*
X140934114Y-61485522D01*
X140934115Y-61485522D01*
X140855711Y-61379288D01*
X140749478Y-61300885D01*
X140749469Y-61300881D01*
X140727284Y-61293118D01*
X140714522Y-61286405D01*
X140713055Y-61285331D01*
X140693576Y-61253283D01*
X140693000Y-61245794D01*
X140693000Y-61133188D01*
X140663969Y-61024846D01*
X140663968Y-61024842D01*
X140663968Y-61024843D01*
X140662299Y-61018614D01*
X140662299Y-61018613D01*
X140602989Y-60915886D01*
X140256614Y-60569511D01*
X140219109Y-60547857D01*
X140153888Y-60510201D01*
X140153886Y-60510200D01*
X140129673Y-60503713D01*
X140099551Y-60495642D01*
X140039311Y-60479500D01*
X140039309Y-60479500D01*
X139971670Y-60479500D01*
X139952099Y-60475422D01*
X139944281Y-60472016D01*
X139943252Y-60471466D01*
X139943236Y-60471502D01*
X139938910Y-60469524D01*
X139937603Y-60469107D01*
X139937302Y-60469044D01*
X139936836Y-60468946D01*
X139933125Y-60468012D01*
X139801965Y-60429500D01*
X139801961Y-60429500D01*
X139658039Y-60429500D01*
X139658034Y-60429500D01*
X139519949Y-60470046D01*
X139519947Y-60470046D01*
X139519947Y-60470047D01*
X139505675Y-60479219D01*
X139398871Y-60547857D01*
X139304625Y-60656623D01*
X139304624Y-60656625D01*
X139244833Y-60787545D01*
X139224353Y-60929997D01*
X136694790Y-60929997D01*
X136990489Y-60634298D01*
X137035040Y-60557133D01*
X137047518Y-60535519D01*
X137055299Y-60525380D01*
X137069198Y-60511483D01*
X137120573Y-60406393D01*
X137130500Y-60338260D01*
X137130500Y-59246740D01*
X137120573Y-59178607D01*
X137069198Y-59073517D01*
X136986483Y-58990802D01*
X136933938Y-58965114D01*
X136881396Y-58939428D01*
X136881394Y-58939427D01*
X136813262Y-58929500D01*
X136813260Y-58929500D01*
X136446740Y-58929500D01*
X136446738Y-58929500D01*
X136378605Y-58939427D01*
X136378603Y-58939428D01*
X136273519Y-58990801D01*
X136273515Y-58990803D01*
X136214148Y-59050171D01*
X136179500Y-59064523D01*
X136144852Y-59050171D01*
X136130500Y-59015523D01*
X136130500Y-58745219D01*
X136144852Y-58710571D01*
X136164946Y-58698430D01*
X136226879Y-58679165D01*
X136456586Y-58607710D01*
X136471140Y-58605500D01*
X136513486Y-58605500D01*
X136513488Y-58605500D01*
X136613126Y-58589719D01*
X136689401Y-58550855D01*
X136733213Y-58528532D01*
X136733215Y-58528530D01*
X136733220Y-58528528D01*
X136828528Y-58433220D01*
X136839328Y-58412021D01*
X136842789Y-58406249D01*
X136846115Y-58401478D01*
X136877703Y-58381262D01*
X136886312Y-58380500D01*
X137373101Y-58380500D01*
X137407749Y-58394852D01*
X137465148Y-58452251D01*
X137479500Y-58486899D01*
X137479500Y-58658989D01*
X137476585Y-58675638D01*
X137475312Y-58679159D01*
X137428847Y-58985819D01*
X137427131Y-59000884D01*
X137427004Y-59002539D01*
X137426762Y-59006088D01*
X137426794Y-59006746D01*
X137426353Y-59016084D01*
X137424353Y-59030001D01*
X137424353Y-59030002D01*
X137444833Y-59172454D01*
X137476935Y-59242746D01*
X137504623Y-59303373D01*
X137504624Y-59303374D01*
X137504625Y-59303376D01*
X137595020Y-59407698D01*
X137598872Y-59412143D01*
X137719947Y-59489953D01*
X137789499Y-59510375D01*
X137858034Y-59530499D01*
X137858037Y-59530499D01*
X137858039Y-59530500D01*
X137858040Y-59530500D01*
X138001960Y-59530500D01*
X138001961Y-59530500D01*
X138001963Y-59530499D01*
X138001965Y-59530499D01*
X138025992Y-59523444D01*
X138140053Y-59489953D01*
X138261128Y-59412143D01*
X138355377Y-59303373D01*
X138415165Y-59172457D01*
X138415165Y-59172455D01*
X138415166Y-59172454D01*
X138435647Y-59030002D01*
X138435647Y-59029999D01*
X138433646Y-59016084D01*
X138431358Y-59000174D01*
X138430912Y-58990948D01*
X138431149Y-58985804D01*
X138384689Y-58679169D01*
X138384688Y-58679165D01*
X138384688Y-58679162D01*
X138382821Y-58673318D01*
X138380500Y-58658414D01*
X138380500Y-58220688D01*
X138351469Y-58112346D01*
X138351468Y-58112342D01*
X138351468Y-58112343D01*
X138349799Y-58106114D01*
X138349799Y-58106113D01*
X138290490Y-58003386D01*
X137856614Y-57569511D01*
X137817399Y-57546870D01*
X137753888Y-57510201D01*
X137753886Y-57510200D01*
X137729673Y-57503713D01*
X137699551Y-57495642D01*
X137639311Y-57479500D01*
X137639309Y-57479500D01*
X136886313Y-57479500D01*
X136851665Y-57465148D01*
X136846117Y-57458523D01*
X136845833Y-57458115D01*
X136842784Y-57453742D01*
X136839324Y-57447969D01*
X136828530Y-57426783D01*
X136828527Y-57426779D01*
X136814490Y-57412742D01*
X136810445Y-57408158D01*
X136802866Y-57398403D01*
X136802854Y-57398389D01*
X136801275Y-57396561D01*
X136800301Y-57395485D01*
X136794799Y-57389410D01*
X136787978Y-57384872D01*
X136780472Y-57378724D01*
X136733220Y-57331472D01*
X136733213Y-57331467D01*
X136613129Y-57270282D01*
X136613127Y-57270281D01*
X136613126Y-57270281D01*
X136513488Y-57254500D01*
X135996512Y-57254500D01*
X135896874Y-57270281D01*
X135896872Y-57270281D01*
X135896870Y-57270282D01*
X135776786Y-57331467D01*
X135776779Y-57331472D01*
X135681472Y-57426779D01*
X135681467Y-57426786D01*
X135620282Y-57546870D01*
X135620281Y-57546872D01*
X135620281Y-57546874D01*
X135604500Y-57646512D01*
X135604500Y-57646513D01*
X135604500Y-57686019D01*
X135601740Y-57702231D01*
X135473738Y-58067313D01*
X135462147Y-58085748D01*
X135439149Y-58108747D01*
X135404501Y-58123100D01*
X135369853Y-58108749D01*
X135355500Y-58074101D01*
X135355500Y-57646513D01*
X135355500Y-57646512D01*
X135339719Y-57546874D01*
X135321033Y-57510200D01*
X135278532Y-57426786D01*
X135278527Y-57426779D01*
X135183220Y-57331472D01*
X135183213Y-57331467D01*
X135063129Y-57270282D01*
X135063127Y-57270281D01*
X135063126Y-57270281D01*
X134963488Y-57254500D01*
X134446512Y-57254500D01*
X134346874Y-57270281D01*
X134346872Y-57270281D01*
X134346870Y-57270282D01*
X134226786Y-57331467D01*
X134226778Y-57331473D01*
X134131475Y-57426775D01*
X134131473Y-57426778D01*
X134131472Y-57426780D01*
X134120676Y-57447969D01*
X134120674Y-57447972D01*
X134117216Y-57453739D01*
X134113885Y-57458518D01*
X134082301Y-57478737D01*
X134073687Y-57479500D01*
X133718217Y-57479500D01*
X133683569Y-57465148D01*
X133670011Y-57439286D01*
X133667732Y-57426783D01*
X133631294Y-57226861D01*
X133630500Y-57218075D01*
X133630500Y-57117283D01*
X133626303Y-57085405D01*
X133615687Y-57004764D01*
X133557698Y-56864767D01*
X133515159Y-56809329D01*
X133505452Y-56773104D01*
X133524204Y-56740626D01*
X133554033Y-56730500D01*
X139227593Y-56730500D01*
X139227595Y-56730500D01*
X139264175Y-56718614D01*
X139266615Y-56717892D01*
X139279561Y-56714422D01*
X139295989Y-56710021D01*
X139298438Y-56708606D01*
X139307787Y-56704443D01*
X139318125Y-56701085D01*
X139341826Y-56683863D01*
X139346091Y-56681093D01*
X139364511Y-56670460D01*
X139373043Y-56661926D01*
X139378878Y-56656944D01*
X139395134Y-56645134D01*
X139406945Y-56628876D01*
X139411926Y-56623043D01*
X139420460Y-56614511D01*
X139431093Y-56596091D01*
X139433863Y-56591826D01*
X139451085Y-56568125D01*
X139454443Y-56557787D01*
X139458606Y-56548438D01*
X139460021Y-56545989D01*
X139464729Y-56528417D01*
X139467892Y-56516615D01*
X139468620Y-56514155D01*
X139480500Y-56477595D01*
X139480500Y-56431325D01*
X139480572Y-56428672D01*
X139485836Y-56331583D01*
X141429500Y-56331583D01*
X141429500Y-56528416D01*
X141460290Y-56722823D01*
X141460291Y-56722826D01*
X141521116Y-56910026D01*
X141610472Y-57085399D01*
X141610475Y-57085403D01*
X141610476Y-57085405D01*
X141726172Y-57244646D01*
X141726174Y-57244648D01*
X141726177Y-57244652D01*
X141865347Y-57383822D01*
X141865350Y-57383824D01*
X141865354Y-57383828D01*
X142024595Y-57499524D01*
X142024597Y-57499525D01*
X142024600Y-57499527D01*
X142117517Y-57546870D01*
X142199975Y-57588884D01*
X142387174Y-57649709D01*
X142581583Y-57680500D01*
X142581584Y-57680500D01*
X142778416Y-57680500D01*
X142778417Y-57680500D01*
X142972826Y-57649709D01*
X143160025Y-57588884D01*
X143335405Y-57499524D01*
X143494646Y-57383828D01*
X143633828Y-57244646D01*
X143749524Y-57085405D01*
X143838884Y-56910025D01*
X143899709Y-56722826D01*
X143930500Y-56528417D01*
X143930500Y-56331583D01*
X143899709Y-56137174D01*
X143838884Y-55949975D01*
X143749524Y-55774595D01*
X143633828Y-55615354D01*
X143633824Y-55615350D01*
X143633822Y-55615347D01*
X143494652Y-55476177D01*
X143494653Y-55476177D01*
X143401359Y-55408395D01*
X143335405Y-55360476D01*
X143335403Y-55360475D01*
X143335399Y-55360472D01*
X143160026Y-55271116D01*
X142972826Y-55210291D01*
X142972823Y-55210290D01*
X142823482Y-55186637D01*
X142778417Y-55179500D01*
X142581583Y-55179500D01*
X142544998Y-55185294D01*
X142387176Y-55210290D01*
X142387173Y-55210291D01*
X142199973Y-55271116D01*
X142024600Y-55360472D01*
X141865347Y-55476177D01*
X141726177Y-55615347D01*
X141610472Y-55774600D01*
X141521116Y-55949973D01*
X141460291Y-56137173D01*
X141460290Y-56137176D01*
X141429500Y-56331583D01*
X139485836Y-56331583D01*
X139490623Y-56243293D01*
X139499112Y-56086713D01*
X139499684Y-56081456D01*
X139554873Y-55744823D01*
X139556012Y-55739647D01*
X139647278Y-55410934D01*
X139648958Y-55405948D01*
X139775235Y-55089016D01*
X139777450Y-55084228D01*
X139937248Y-54782816D01*
X139939963Y-54778303D01*
X140131417Y-54495931D01*
X140134610Y-54491731D01*
X140355464Y-54231721D01*
X140359098Y-54227885D01*
X140606765Y-53993284D01*
X140610786Y-53989867D01*
X140882383Y-53783403D01*
X140886751Y-53780443D01*
X141179064Y-53604564D01*
X141183721Y-53602094D01*
X141493351Y-53458845D01*
X141498238Y-53456898D01*
X141821542Y-53347964D01*
X141826625Y-53346553D01*
X142159793Y-53273218D01*
X142165000Y-53272363D01*
X142504144Y-53235478D01*
X142509442Y-53235192D01*
X142850558Y-53235192D01*
X142855855Y-53235478D01*
G37*
%TD.AperFunction*%
%TA.AperFunction,Conductor*%
G36*
X114855855Y-53235478D02*
G01*
X115194996Y-53272363D01*
X115200209Y-53273218D01*
X115533369Y-53346552D01*
X115538462Y-53347966D01*
X115861755Y-53456895D01*
X115866654Y-53458848D01*
X116176270Y-53602091D01*
X116180943Y-53604568D01*
X116473239Y-53780438D01*
X116477627Y-53783412D01*
X116749201Y-53989858D01*
X116753244Y-53993293D01*
X117000893Y-54227878D01*
X117004542Y-54231730D01*
X117225380Y-54491720D01*
X117228591Y-54495944D01*
X117420025Y-54778287D01*
X117422760Y-54782833D01*
X117582542Y-55084215D01*
X117584770Y-55089030D01*
X117692923Y-55360476D01*
X117711033Y-55405927D01*
X117712727Y-55410955D01*
X117803987Y-55739647D01*
X117805127Y-55744829D01*
X117860313Y-56081447D01*
X117860887Y-56086721D01*
X117879428Y-56428672D01*
X117879500Y-56431325D01*
X117879500Y-56477595D01*
X117891381Y-56514162D01*
X117892109Y-56516621D01*
X117899978Y-56545987D01*
X117901396Y-56548444D01*
X117905555Y-56557788D01*
X117908914Y-56568123D01*
X117908915Y-56568126D01*
X117926127Y-56591816D01*
X117928921Y-56596118D01*
X117939537Y-56614507D01*
X117939542Y-56614513D01*
X117948064Y-56623035D01*
X117953058Y-56628882D01*
X117964865Y-56645133D01*
X117981120Y-56656944D01*
X117986966Y-56661937D01*
X117995489Y-56670460D01*
X117995492Y-56670461D01*
X117995495Y-56670464D01*
X118013888Y-56681082D01*
X118018174Y-56683864D01*
X118041875Y-56701085D01*
X118052207Y-56704442D01*
X118061565Y-56708609D01*
X118064011Y-56710021D01*
X118093409Y-56717898D01*
X118095808Y-56718608D01*
X118132405Y-56730500D01*
X118140438Y-56730500D01*
X123805967Y-56730500D01*
X123840615Y-56744852D01*
X123854967Y-56779500D01*
X123844841Y-56809329D01*
X123802302Y-56864766D01*
X123802299Y-56864771D01*
X123744312Y-57004764D01*
X123733697Y-57085399D01*
X123729500Y-57117280D01*
X123729500Y-58942720D01*
X123735091Y-58985192D01*
X123744312Y-59055235D01*
X123802299Y-59195228D01*
X123802302Y-59195233D01*
X123894549Y-59315451D01*
X124014767Y-59407698D01*
X124014769Y-59407698D01*
X124014771Y-59407700D01*
X124126421Y-59453947D01*
X124154764Y-59465687D01*
X124267280Y-59480500D01*
X124268179Y-59480500D01*
X124268755Y-59480596D01*
X124268884Y-59480605D01*
X124268883Y-59480617D01*
X124284146Y-59483174D01*
X124290788Y-59485464D01*
X124477166Y-59510879D01*
X124509557Y-59529780D01*
X124519096Y-59566049D01*
X124509971Y-59588526D01*
X124438384Y-59685524D01*
X124394775Y-59810148D01*
X124394774Y-59810157D01*
X124392001Y-59839732D01*
X124392000Y-59839753D01*
X124392000Y-59857138D01*
X124389325Y-59873105D01*
X124386706Y-59880700D01*
X124386703Y-59880716D01*
X124327252Y-60316508D01*
X124313350Y-60344533D01*
X124067737Y-60590148D01*
X124033089Y-60604500D01*
X122025200Y-60604500D01*
X122025198Y-60604500D01*
X122025196Y-60604501D01*
X121953598Y-60634157D01*
X121953599Y-60634158D01*
X121923939Y-60646443D01*
X121923938Y-60646445D01*
X121689148Y-60881235D01*
X121654500Y-60895587D01*
X121619852Y-60881235D01*
X121605500Y-60846587D01*
X121605500Y-60064411D01*
X121619852Y-60029763D01*
X122229763Y-59419852D01*
X122264411Y-59405500D01*
X122760934Y-59405500D01*
X122792565Y-59417077D01*
X122797729Y-59421442D01*
X122809755Y-59428443D01*
X122819748Y-59436140D01*
X122841657Y-59458049D01*
X122841664Y-59458054D01*
X122954691Y-59515644D01*
X122954692Y-59515644D01*
X122954696Y-59515646D01*
X123080000Y-59535492D01*
X123205304Y-59515646D01*
X123205308Y-59515644D01*
X123205309Y-59515644D01*
X123318335Y-59458054D01*
X123318337Y-59458052D01*
X123318342Y-59458050D01*
X123408050Y-59368342D01*
X123408054Y-59368335D01*
X123465644Y-59255309D01*
X123465644Y-59255307D01*
X123465646Y-59255304D01*
X123485492Y-59130000D01*
X123465646Y-59004696D01*
X123465644Y-59004692D01*
X123465644Y-59004690D01*
X123408054Y-58891664D01*
X123408049Y-58891657D01*
X123318342Y-58801950D01*
X123318335Y-58801945D01*
X123205308Y-58744355D01*
X123205305Y-58744354D01*
X123205304Y-58744354D01*
X123080000Y-58724508D01*
X122954696Y-58744354D01*
X122954694Y-58744354D01*
X122954693Y-58744355D01*
X122841659Y-58801949D01*
X122841657Y-58801950D01*
X122819003Y-58824603D01*
X122808081Y-58832826D01*
X122797737Y-58838549D01*
X122797730Y-58838555D01*
X122792561Y-58842924D01*
X122760932Y-58854500D01*
X122075198Y-58854500D01*
X121991312Y-58889248D01*
X121985480Y-58891664D01*
X121973940Y-58896444D01*
X121973939Y-58896444D01*
X121173942Y-59696443D01*
X121096444Y-59773939D01*
X121096444Y-59773940D01*
X121054500Y-59875198D01*
X121054500Y-63934801D01*
X121069191Y-63970267D01*
X121081445Y-63999851D01*
X121092281Y-64026009D01*
X121096444Y-64036060D01*
X121096445Y-64036061D01*
X121673939Y-64613556D01*
X121673941Y-64613557D01*
X121673942Y-64613558D01*
X121775200Y-64655500D01*
X121775202Y-64655500D01*
X124384798Y-64655500D01*
X124384800Y-64655500D01*
X124486058Y-64613557D01*
X124563557Y-64536058D01*
X124563556Y-64536058D01*
X124756349Y-64343265D01*
X124789156Y-64328948D01*
X125267686Y-64310984D01*
X125303694Y-64306425D01*
X125303712Y-64306420D01*
X125304758Y-64306242D01*
X125304766Y-64306289D01*
X125304769Y-64306289D01*
X125304777Y-64306353D01*
X125304786Y-64306407D01*
X125313215Y-64305500D01*
X125382746Y-64305500D01*
X125382756Y-64305500D01*
X125412349Y-64302725D01*
X125536975Y-64259116D01*
X125643211Y-64180711D01*
X125721616Y-64074475D01*
X125765225Y-63949849D01*
X125768000Y-63920256D01*
X125768000Y-63898556D01*
X125770261Y-63883842D01*
X125773589Y-63873274D01*
X125787603Y-63744851D01*
X125792587Y-63699184D01*
X125810613Y-63666297D01*
X125841298Y-63655500D01*
X126169320Y-63655500D01*
X126196542Y-63663758D01*
X126202899Y-63668006D01*
X126204387Y-63669042D01*
X126221559Y-63681495D01*
X126221562Y-63681497D01*
X126225035Y-63683256D01*
X126224821Y-63683678D01*
X126230213Y-63686256D01*
X126272505Y-63714515D01*
X126352867Y-63730500D01*
X127030500Y-63730499D01*
X127065148Y-63744851D01*
X127079500Y-63779499D01*
X127079500Y-64421961D01*
X127072685Y-64446889D01*
X127016989Y-64541141D01*
X127011839Y-64548298D01*
X127004622Y-64556627D01*
X126994754Y-64578236D01*
X126992368Y-64582806D01*
X126982760Y-64599066D01*
X126975949Y-64611554D01*
X126975318Y-64612814D01*
X126974067Y-64615349D01*
X126971341Y-64627127D01*
X126968176Y-64636429D01*
X126944834Y-64687543D01*
X126924353Y-64829997D01*
X126924353Y-64830002D01*
X126944833Y-64972454D01*
X126973606Y-65035457D01*
X126975272Y-65039593D01*
X126982753Y-65060922D01*
X126992366Y-65077189D01*
X126994753Y-65081761D01*
X127004623Y-65103373D01*
X127011839Y-65111700D01*
X127016989Y-65118857D01*
X127072685Y-65213108D01*
X127079500Y-65238036D01*
X127079500Y-65426145D01*
X127090880Y-65468613D01*
X127090880Y-65468614D01*
X127103384Y-65515284D01*
X127103386Y-65515289D01*
X127106019Y-65519849D01*
X127149530Y-65595212D01*
X127414788Y-65860470D01*
X127482993Y-65899848D01*
X127482994Y-65899849D01*
X127494709Y-65906613D01*
X127494712Y-65906614D01*
X127549224Y-65921220D01*
X127578977Y-65944050D01*
X127582532Y-65951641D01*
X127587698Y-65965692D01*
X127587701Y-65965699D01*
X127587707Y-65965715D01*
X127590393Y-65971984D01*
X127596194Y-65985525D01*
X127596201Y-65985540D01*
X127597293Y-65987759D01*
X127603420Y-65999469D01*
X127603308Y-65999527D01*
X127607595Y-66007932D01*
X127613385Y-66024477D01*
X127613386Y-66024479D01*
X127690549Y-66129032D01*
X127699577Y-66165432D01*
X127680221Y-66197554D01*
X127663808Y-66205459D01*
X127646114Y-66210200D01*
X127646111Y-66210201D01*
X127543386Y-66269511D01*
X127543386Y-66269512D01*
X127459514Y-66353383D01*
X127459505Y-66353395D01*
X127441656Y-66384309D01*
X127411902Y-66407139D01*
X127374721Y-66402242D01*
X127371620Y-66400294D01*
X127277454Y-66336093D01*
X127277451Y-66336092D01*
X127065383Y-66233965D01*
X127065370Y-66233960D01*
X126910852Y-66186298D01*
X126840449Y-66164582D01*
X126607693Y-66129500D01*
X126607691Y-66129500D01*
X114681286Y-66129500D01*
X114678722Y-66129433D01*
X114348126Y-66112107D01*
X114343025Y-66111571D01*
X114017317Y-66059983D01*
X114012300Y-66058916D01*
X113693780Y-65973569D01*
X113688902Y-65971984D01*
X113381046Y-65853810D01*
X113376360Y-65851724D01*
X113082537Y-65702013D01*
X113078096Y-65699449D01*
X112801535Y-65519849D01*
X112797385Y-65516834D01*
X112737838Y-65468614D01*
X112541109Y-65309305D01*
X112537298Y-65305873D01*
X112304126Y-65072701D01*
X112300694Y-65068890D01*
X112274389Y-65036406D01*
X112093160Y-64812607D01*
X112090154Y-64808470D01*
X111910548Y-64531900D01*
X111907986Y-64527462D01*
X111900571Y-64512909D01*
X111758273Y-64233634D01*
X111756189Y-64228953D01*
X111708416Y-64104500D01*
X111638014Y-63921095D01*
X111636430Y-63916219D01*
X111629679Y-63891025D01*
X111551082Y-63597696D01*
X111550016Y-63592682D01*
X111537806Y-63515590D01*
X111498426Y-63266964D01*
X111497893Y-63261882D01*
X111480567Y-62931278D01*
X111480500Y-62928714D01*
X111480500Y-56431325D01*
X111480572Y-56428672D01*
X111485836Y-56331583D01*
X113429500Y-56331583D01*
X113429500Y-56528416D01*
X113460290Y-56722823D01*
X113460291Y-56722826D01*
X113521116Y-56910026D01*
X113610472Y-57085399D01*
X113610475Y-57085403D01*
X113610476Y-57085405D01*
X113726172Y-57244646D01*
X113726174Y-57244648D01*
X113726177Y-57244652D01*
X113865347Y-57383822D01*
X113865350Y-57383824D01*
X113865354Y-57383828D01*
X114024595Y-57499524D01*
X114024597Y-57499525D01*
X114024600Y-57499527D01*
X114117517Y-57546870D01*
X114199975Y-57588884D01*
X114387174Y-57649709D01*
X114581583Y-57680500D01*
X114581584Y-57680500D01*
X114778416Y-57680500D01*
X114778417Y-57680500D01*
X114972826Y-57649709D01*
X115160025Y-57588884D01*
X115335405Y-57499524D01*
X115494646Y-57383828D01*
X115633828Y-57244646D01*
X115749524Y-57085405D01*
X115838884Y-56910025D01*
X115899709Y-56722826D01*
X115930500Y-56528417D01*
X115930500Y-56331583D01*
X115899709Y-56137174D01*
X115838884Y-55949975D01*
X115749524Y-55774595D01*
X115633828Y-55615354D01*
X115633824Y-55615350D01*
X115633822Y-55615347D01*
X115494652Y-55476177D01*
X115494653Y-55476177D01*
X115401359Y-55408395D01*
X115335405Y-55360476D01*
X115335403Y-55360475D01*
X115335399Y-55360472D01*
X115160026Y-55271116D01*
X114972826Y-55210291D01*
X114972823Y-55210290D01*
X114823482Y-55186637D01*
X114778417Y-55179500D01*
X114581583Y-55179500D01*
X114544998Y-55185294D01*
X114387176Y-55210290D01*
X114387173Y-55210291D01*
X114199973Y-55271116D01*
X114024600Y-55360472D01*
X113865347Y-55476177D01*
X113726177Y-55615347D01*
X113610472Y-55774600D01*
X113521116Y-55949973D01*
X113460291Y-56137173D01*
X113460290Y-56137176D01*
X113429500Y-56331583D01*
X111485836Y-56331583D01*
X111490623Y-56243293D01*
X111499112Y-56086713D01*
X111499684Y-56081456D01*
X111554873Y-55744823D01*
X111556012Y-55739647D01*
X111647278Y-55410934D01*
X111648958Y-55405948D01*
X111775235Y-55089016D01*
X111777450Y-55084228D01*
X111937248Y-54782816D01*
X111939963Y-54778303D01*
X112131417Y-54495931D01*
X112134610Y-54491731D01*
X112355464Y-54231721D01*
X112359098Y-54227885D01*
X112606765Y-53993284D01*
X112610786Y-53989867D01*
X112882383Y-53783403D01*
X112886751Y-53780443D01*
X113179064Y-53604564D01*
X113183721Y-53602094D01*
X113493351Y-53458845D01*
X113498238Y-53456898D01*
X113821542Y-53347964D01*
X113826625Y-53346553D01*
X114159793Y-53273218D01*
X114165000Y-53272363D01*
X114504144Y-53235478D01*
X114509442Y-53235192D01*
X114850558Y-53235192D01*
X114855855Y-53235478D01*
G37*
%TD.AperFunction*%
%TA.AperFunction,Conductor*%
G36*
X121689148Y-62978763D02*
G01*
X121823937Y-63113554D01*
X121823943Y-63113558D01*
X121829420Y-63115826D01*
X121853597Y-63125840D01*
X121853598Y-63125841D01*
X121853599Y-63125841D01*
X121925200Y-63155500D01*
X124379831Y-63155500D01*
X124414479Y-63169852D01*
X124428831Y-63204500D01*
X124426081Y-63220684D01*
X124394775Y-63310148D01*
X124394774Y-63310157D01*
X124392001Y-63339732D01*
X124392000Y-63339753D01*
X124392000Y-63429424D01*
X124390893Y-63439781D01*
X124386752Y-63458928D01*
X124386751Y-63458930D01*
X124379053Y-63921841D01*
X124364708Y-63955674D01*
X124230235Y-64090148D01*
X124195590Y-64104500D01*
X121964412Y-64104500D01*
X121929764Y-64090148D01*
X121619852Y-63780236D01*
X121605500Y-63745588D01*
X121605500Y-63013411D01*
X121619852Y-62978763D01*
X121654500Y-62964411D01*
X121689148Y-62978763D01*
G37*
%TD.AperFunction*%
%TD*%
%TA.AperFunction,Conductor*%
%TO.N,GND*%
G36*
X125769441Y-86133931D02*
G01*
X125769983Y-86134408D01*
X126161882Y-86501461D01*
X126165578Y-86509617D01*
X126162423Y-86517998D01*
X126161882Y-86518539D01*
X125769983Y-86885591D01*
X125761602Y-86888746D01*
X125753446Y-86885050D01*
X125752969Y-86884508D01*
X125652684Y-86763245D01*
X125650000Y-86755789D01*
X125650000Y-86264210D01*
X125652684Y-86256754D01*
X125752970Y-86135490D01*
X125760882Y-86131299D01*
X125769441Y-86133931D01*
G37*
%TD.AperFunction*%
%TD*%
%TA.AperFunction,Conductor*%
%TO.N,GND*%
G36*
X125433402Y-86212030D02*
G01*
X125740054Y-86258493D01*
X125747719Y-86263120D01*
X125750000Y-86270060D01*
X125750000Y-86749939D01*
X125746573Y-86758212D01*
X125740053Y-86761507D01*
X125433407Y-86807968D01*
X125424714Y-86805819D01*
X125420086Y-86798153D01*
X125419954Y-86796449D01*
X125419000Y-86510000D01*
X125419954Y-86223558D01*
X125423408Y-86215298D01*
X125431693Y-86211899D01*
X125433402Y-86212030D01*
G37*
%TD.AperFunction*%
%TD*%
%TA.AperFunction,Conductor*%
%TO.N,GND*%
G36*
X124923016Y-86017102D02*
G01*
X125067278Y-86117661D01*
X125072105Y-86125203D01*
X125070185Y-86133950D01*
X125068606Y-86135778D01*
X124678019Y-86503451D01*
X124669647Y-86506627D01*
X124661981Y-86503451D01*
X124482967Y-86334940D01*
X124271392Y-86135777D01*
X124267717Y-86127612D01*
X124270893Y-86119240D01*
X124272716Y-86117665D01*
X124416984Y-86017101D01*
X124423675Y-86015000D01*
X124916325Y-86015000D01*
X124923016Y-86017102D01*
G37*
%TD.AperFunction*%
%TD*%
%TA.AperFunction,Conductor*%
%TO.N,GND*%
G36*
X124902998Y-84517576D02*
G01*
X124903539Y-84518117D01*
X125270591Y-84910016D01*
X125273746Y-84918397D01*
X125270050Y-84926553D01*
X125269508Y-84927030D01*
X125148245Y-85027316D01*
X125140789Y-85030000D01*
X124649211Y-85030000D01*
X124641755Y-85027316D01*
X124520491Y-84927030D01*
X124516299Y-84919117D01*
X124518931Y-84910558D01*
X124519408Y-84910016D01*
X124886461Y-84518117D01*
X124894617Y-84514421D01*
X124902998Y-84517576D01*
G37*
%TD.AperFunction*%
%TD*%
%TA.AperFunction,Conductor*%
%TO.N,GND*%
G36*
X125086553Y-86134949D02*
G01*
X125087030Y-86135491D01*
X125187316Y-86256754D01*
X125190000Y-86264210D01*
X125190000Y-86755789D01*
X125187316Y-86763245D01*
X125087030Y-86884508D01*
X125079117Y-86888700D01*
X125070558Y-86886068D01*
X125070016Y-86885591D01*
X124678117Y-86518539D01*
X124674421Y-86510383D01*
X124677576Y-86502002D01*
X124678117Y-86501461D01*
X125068860Y-86135491D01*
X125070016Y-86134407D01*
X125078397Y-86131253D01*
X125086553Y-86134949D01*
G37*
%TD.AperFunction*%
%TD*%
%TA.AperFunction,Conductor*%
%TO.N,GND*%
G36*
X125415285Y-86214180D02*
G01*
X125419913Y-86221846D01*
X125420045Y-86223560D01*
X125421000Y-86510000D01*
X125421000Y-86510078D01*
X125420045Y-86796439D01*
X125416591Y-86804701D01*
X125408306Y-86808100D01*
X125406592Y-86807968D01*
X125099947Y-86761507D01*
X125092281Y-86756879D01*
X125090000Y-86749939D01*
X125090000Y-86270060D01*
X125093427Y-86261787D01*
X125099944Y-86258493D01*
X125406593Y-86212031D01*
X125415285Y-86214180D01*
G37*
%TD.AperFunction*%
%TD*%
%TA.AperFunction,Conductor*%
%TO.N,GND*%
G36*
X129926682Y-87684883D02*
G01*
X129929605Y-87687807D01*
X130083996Y-87909743D01*
X130085907Y-87918491D01*
X130084397Y-87922488D01*
X130048415Y-87981864D01*
X130041197Y-87987163D01*
X130038409Y-87987500D01*
X129801591Y-87987500D01*
X129793318Y-87984073D01*
X129791585Y-87981864D01*
X129787146Y-87974540D01*
X129785789Y-87965689D01*
X129786444Y-87963762D01*
X129792707Y-87949580D01*
X129795500Y-87925505D01*
X129795499Y-87856634D01*
X129797592Y-87849958D01*
X129910396Y-87687805D01*
X129917933Y-87682972D01*
X129926682Y-87684883D01*
G37*
%TD.AperFunction*%
%TD*%
%TA.AperFunction,Conductor*%
%TO.N,GND*%
G36*
X130045473Y-87993427D02*
G01*
X130048000Y-87997200D01*
X130100287Y-88122689D01*
X130100306Y-88131644D01*
X130094014Y-88137978D01*
X129924527Y-88209100D01*
X129915573Y-88209141D01*
X129915473Y-88209100D01*
X129745985Y-88137978D01*
X129739682Y-88131616D01*
X129739711Y-88122691D01*
X129792000Y-87997199D01*
X129798345Y-87990881D01*
X129802800Y-87990000D01*
X130037200Y-87990000D01*
X130045473Y-87993427D01*
G37*
%TD.AperFunction*%
%TD*%
%TA.AperFunction,Conductor*%
%TO.N,GND*%
G36*
X127966244Y-86376447D02*
G01*
X127973953Y-86379851D01*
X127980417Y-86382706D01*
X127980418Y-86382706D01*
X127980420Y-86382707D01*
X128004495Y-86385500D01*
X128073363Y-86385499D01*
X128080042Y-86387594D01*
X128242192Y-86500395D01*
X128247027Y-86507933D01*
X128245116Y-86516681D01*
X128242192Y-86519605D01*
X128080042Y-86632405D01*
X128073361Y-86634500D01*
X128004495Y-86634500D01*
X127980423Y-86637292D01*
X127980414Y-86637294D01*
X127966247Y-86643549D01*
X127957295Y-86643756D01*
X127955458Y-86642852D01*
X127948136Y-86638415D01*
X127942837Y-86631197D01*
X127942500Y-86628409D01*
X127942500Y-86391590D01*
X127945927Y-86383317D01*
X127948128Y-86381588D01*
X127955461Y-86377145D01*
X127964309Y-86375789D01*
X127966244Y-86376447D01*
G37*
%TD.AperFunction*%
%TD*%
%TA.AperFunction,Conductor*%
%TO.N,GND*%
G36*
X126631346Y-86210676D02*
G01*
X126632760Y-86213537D01*
X126689398Y-86383196D01*
X126690000Y-86386901D01*
X126690000Y-86633098D01*
X126689398Y-86636803D01*
X126632760Y-86806462D01*
X126626890Y-86813224D01*
X126617957Y-86813855D01*
X126615096Y-86812441D01*
X126350567Y-86633098D01*
X126183282Y-86519683D01*
X126178359Y-86512205D01*
X126180165Y-86503434D01*
X126183281Y-86500317D01*
X126615097Y-86207557D01*
X126623867Y-86205752D01*
X126631346Y-86210676D01*
G37*
%TD.AperFunction*%
%TD*%
%TA.AperFunction,Conductor*%
%TO.N,GND*%
G36*
X127422033Y-89685784D02*
G01*
X127677222Y-89784193D01*
X127683708Y-89790367D01*
X127683928Y-89799319D01*
X127683783Y-89799678D01*
X127180771Y-90985605D01*
X127174386Y-90991883D01*
X127165431Y-90991807D01*
X127159229Y-90985605D01*
X126656216Y-89799678D01*
X126656140Y-89790723D01*
X126662418Y-89784338D01*
X126662728Y-89784212D01*
X126917967Y-89685784D01*
X126922177Y-89685000D01*
X127417823Y-89685000D01*
X127422033Y-89685784D01*
G37*
%TD.AperFunction*%
%TD*%
%TA.AperFunction,Conductor*%
%TO.N,GND*%
G36*
X127456440Y-89309954D02*
G01*
X127464701Y-89313408D01*
X127468100Y-89321693D01*
X127467968Y-89323407D01*
X127421507Y-89630053D01*
X127416879Y-89637719D01*
X127409939Y-89640000D01*
X126930061Y-89640000D01*
X126921788Y-89636573D01*
X126918493Y-89630053D01*
X126872031Y-89323407D01*
X126874180Y-89314714D01*
X126881846Y-89310086D01*
X126883549Y-89309954D01*
X127170000Y-89309000D01*
X127456440Y-89309954D01*
G37*
%TD.AperFunction*%
%TD*%
%TA.AperFunction,Conductor*%
%TO.N,I2C3_SCL*%
G36*
X132479811Y-87964433D02*
G01*
X132480177Y-87964604D01*
X132685122Y-88064600D01*
X132950041Y-88193861D01*
X132955973Y-88200568D01*
X132956530Y-88205742D01*
X132937566Y-88366993D01*
X132934219Y-88373899D01*
X132834814Y-88473304D01*
X132826541Y-88476731D01*
X132825685Y-88476700D01*
X132273793Y-88436218D01*
X132265793Y-88432195D01*
X132262980Y-88423693D01*
X132263962Y-88419787D01*
X132464361Y-87970352D01*
X132470859Y-87964194D01*
X132479811Y-87964433D01*
G37*
%TD.AperFunction*%
%TD*%
%TA.AperFunction,Conductor*%
%TO.N,I2C3_SCL*%
G36*
X130378323Y-86398501D02*
G01*
X130396157Y-86432443D01*
X130397500Y-86437885D01*
X130397500Y-86582114D01*
X130396157Y-86587556D01*
X130378323Y-86621498D01*
X130371442Y-86627228D01*
X130363452Y-86626850D01*
X130109814Y-86520794D01*
X130103504Y-86514441D01*
X130103534Y-86505486D01*
X130109814Y-86499206D01*
X130256465Y-86437885D01*
X130363452Y-86393148D01*
X130372407Y-86393119D01*
X130378323Y-86398501D01*
G37*
%TD.AperFunction*%
%TD*%
%TA.AperFunction,Conductor*%
%TO.N,I2C3_SCL*%
G36*
X130586185Y-86376132D02*
G01*
X130641939Y-86431494D01*
X130712639Y-86501698D01*
X130716095Y-86509959D01*
X130712697Y-86518244D01*
X130712639Y-86518302D01*
X130586187Y-86643866D01*
X130577902Y-86647264D01*
X130570390Y-86644499D01*
X130504147Y-86588505D01*
X130500041Y-86580548D01*
X130500000Y-86579570D01*
X130500000Y-86440429D01*
X130503427Y-86432156D01*
X130504138Y-86431501D01*
X130570391Y-86375499D01*
X130578921Y-86372776D01*
X130586185Y-86376132D01*
G37*
%TD.AperFunction*%
%TD*%
%TA.AperFunction,Conductor*%
%TO.N,I2C3_SCL*%
G36*
X133247843Y-89143427D02*
G01*
X133248505Y-89144147D01*
X133304499Y-89210390D01*
X133307223Y-89218921D01*
X133303866Y-89226187D01*
X133178302Y-89352639D01*
X133170041Y-89356095D01*
X133161756Y-89352697D01*
X133161698Y-89352639D01*
X133119525Y-89310168D01*
X133036132Y-89226186D01*
X133032735Y-89217902D01*
X133035499Y-89210392D01*
X133091495Y-89144147D01*
X133099453Y-89140041D01*
X133100430Y-89140000D01*
X133239570Y-89140000D01*
X133247843Y-89143427D01*
G37*
%TD.AperFunction*%
%TD*%
%TA.AperFunction,Conductor*%
%TO.N,I2C3_SCL*%
G36*
X133246310Y-89685305D02*
G01*
X133674966Y-89785383D01*
X133682242Y-89790601D01*
X133683699Y-89799437D01*
X133683076Y-89801346D01*
X133180771Y-90985605D01*
X133174386Y-90991883D01*
X133165431Y-90991807D01*
X133159229Y-90985605D01*
X132975266Y-90551885D01*
X132656922Y-89801344D01*
X132656847Y-89792391D01*
X132663125Y-89786006D01*
X132665025Y-89785385D01*
X133093689Y-89685305D01*
X133096349Y-89685000D01*
X133243651Y-89685000D01*
X133246310Y-89685305D01*
G37*
%TD.AperFunction*%
%TD*%
%TA.AperFunction,Conductor*%
%TO.N,I2C3_SCL*%
G36*
X133178243Y-89367301D02*
G01*
X133303866Y-89493812D01*
X133307264Y-89502097D01*
X133304500Y-89509608D01*
X133248504Y-89575853D01*
X133240548Y-89579959D01*
X133239570Y-89580000D01*
X133100430Y-89580000D01*
X133092157Y-89576573D01*
X133091495Y-89575853D01*
X133035500Y-89509609D01*
X133032776Y-89501078D01*
X133036131Y-89493814D01*
X133161699Y-89367359D01*
X133169959Y-89363904D01*
X133178243Y-89367301D01*
G37*
%TD.AperFunction*%
%TD*%
%TA.AperFunction,Conductor*%
%TO.N,I2C3_SDA*%
G36*
X131246310Y-89685305D02*
G01*
X131674966Y-89785383D01*
X131682242Y-89790601D01*
X131683699Y-89799437D01*
X131683076Y-89801346D01*
X131180771Y-90985605D01*
X131174386Y-90991883D01*
X131165431Y-90991807D01*
X131159229Y-90985605D01*
X130975266Y-90551885D01*
X130656922Y-89801344D01*
X130656847Y-89792391D01*
X130663125Y-89786006D01*
X130665025Y-89785385D01*
X131093689Y-89685305D01*
X131096349Y-89685000D01*
X131243651Y-89685000D01*
X131246310Y-89685305D01*
G37*
%TD.AperFunction*%
%TD*%
%TA.AperFunction,Conductor*%
%TO.N,I2C3_SDA*%
G36*
X132001884Y-86091250D02*
G01*
X132444756Y-86400406D01*
X132449578Y-86407952D01*
X132447653Y-86416697D01*
X132444756Y-86419594D01*
X132001884Y-86728749D01*
X131993139Y-86730674D01*
X131985593Y-86725852D01*
X131983860Y-86722086D01*
X131922873Y-86486441D01*
X131922500Y-86483510D01*
X131922500Y-86336489D01*
X131922873Y-86333558D01*
X131983860Y-86097913D01*
X131989251Y-86090762D01*
X131998118Y-86089517D01*
X132001884Y-86091250D01*
G37*
%TD.AperFunction*%
%TD*%
%TA.AperFunction,Conductor*%
%TO.N,I2C3_SDA*%
G36*
X130378323Y-85898501D02*
G01*
X130396157Y-85932443D01*
X130397500Y-85937885D01*
X130397500Y-86082114D01*
X130396157Y-86087556D01*
X130378323Y-86121498D01*
X130371442Y-86127228D01*
X130363452Y-86126850D01*
X130109814Y-86020794D01*
X130103504Y-86014441D01*
X130103534Y-86005486D01*
X130109814Y-85999206D01*
X130256465Y-85937885D01*
X130363452Y-85893148D01*
X130372407Y-85893119D01*
X130378323Y-85898501D01*
G37*
%TD.AperFunction*%
%TD*%
%TA.AperFunction,Conductor*%
%TO.N,I2C3_IMU_INT*%
G36*
X128497556Y-85033843D02*
G01*
X128531498Y-85051676D01*
X128537228Y-85058557D01*
X128536850Y-85066547D01*
X128430794Y-85320185D01*
X128424441Y-85326495D01*
X128415486Y-85326465D01*
X128409206Y-85320185D01*
X128303149Y-85066547D01*
X128303119Y-85057592D01*
X128308497Y-85051678D01*
X128342447Y-85033841D01*
X128347886Y-85032500D01*
X128492114Y-85032500D01*
X128497556Y-85033843D01*
G37*
%TD.AperFunction*%
%TD*%
%TA.AperFunction,Conductor*%
%TO.N,I2C3_IMU_INT*%
G36*
X128351734Y-84538408D02*
G01*
X128358037Y-84544769D01*
X128358432Y-84545896D01*
X128396663Y-84675895D01*
X128395709Y-84684799D01*
X128393711Y-84687469D01*
X128295175Y-84786005D01*
X128288912Y-84789258D01*
X128183661Y-84807617D01*
X128174923Y-84805663D01*
X128170125Y-84798101D01*
X128169951Y-84796132D01*
X128169568Y-84687469D01*
X128169320Y-84617177D01*
X128172718Y-84608894D01*
X128176588Y-84606310D01*
X128342780Y-84538367D01*
X128351734Y-84538408D01*
G37*
%TD.AperFunction*%
%TD*%
%TA.AperFunction,Conductor*%
%TO.N,I2C3_IMU_INT*%
G36*
X128959277Y-88809962D02*
G01*
X128967538Y-88813418D01*
X128970895Y-88820684D01*
X128978142Y-88907119D01*
X128975418Y-88915650D01*
X128974756Y-88916370D01*
X128876370Y-89014756D01*
X128868097Y-89018183D01*
X128867119Y-89018142D01*
X128780684Y-89010895D01*
X128772727Y-89006789D01*
X128769962Y-88999277D01*
X128769670Y-88916370D01*
X128769334Y-88821073D01*
X128772732Y-88812790D01*
X128780992Y-88809334D01*
X128959277Y-88809962D01*
G37*
%TD.AperFunction*%
%TD*%
%TA.AperFunction,Conductor*%
%TO.N,I2C3_IMU_INT*%
G36*
X129246310Y-89685305D02*
G01*
X129674966Y-89785383D01*
X129682242Y-89790601D01*
X129683699Y-89799437D01*
X129683076Y-89801346D01*
X129180771Y-90985605D01*
X129174386Y-90991883D01*
X129165431Y-90991807D01*
X129159229Y-90985605D01*
X128975266Y-90551885D01*
X128656922Y-89801344D01*
X128656847Y-89792391D01*
X128663125Y-89786006D01*
X128665025Y-89785385D01*
X129093689Y-89685305D01*
X129096349Y-89685000D01*
X129243651Y-89685000D01*
X129246310Y-89685305D01*
G37*
%TD.AperFunction*%
%TD*%
%TA.AperFunction,Conductor*%
%TO.N,GND*%
G36*
X122810312Y-61609332D02*
G01*
X123302818Y-61920105D01*
X123307986Y-61927418D01*
X123306469Y-61936244D01*
X123302818Y-61939895D01*
X122810312Y-62250667D01*
X122801486Y-62252184D01*
X122794173Y-62247016D01*
X122793087Y-62244809D01*
X122733219Y-62081955D01*
X122732500Y-62077918D01*
X122732500Y-61782081D01*
X122733219Y-61778044D01*
X122793088Y-61615188D01*
X122799158Y-61608607D01*
X122808105Y-61608246D01*
X122810312Y-61609332D01*
G37*
%TD.AperFunction*%
%TD*%
%TA.AperFunction,Conductor*%
%TO.N,GND*%
G36*
X122685220Y-61783427D02*
G01*
X122688647Y-61791700D01*
X122688647Y-62068300D01*
X122685220Y-62076573D01*
X122676947Y-62080000D01*
X122415739Y-62080000D01*
X122407466Y-62076573D01*
X122404039Y-62068300D01*
X122404039Y-62068261D01*
X122404961Y-61791661D01*
X122408415Y-61783399D01*
X122416661Y-61780000D01*
X122676947Y-61780000D01*
X122685220Y-61783427D01*
G37*
%TD.AperFunction*%
%TD*%
%TA.AperFunction,Conductor*%
%TO.N,GND*%
G36*
X133141708Y-64962909D02*
G01*
X133143416Y-64965568D01*
X133201407Y-65090151D01*
X133202500Y-65095088D01*
X133202500Y-65589911D01*
X133201407Y-65594848D01*
X133143416Y-65719431D01*
X133136818Y-65725486D01*
X133127872Y-65725101D01*
X133125213Y-65723393D01*
X132689425Y-65351399D01*
X132685357Y-65343421D01*
X132688122Y-65334904D01*
X132689425Y-65333601D01*
X133125215Y-64961605D01*
X133133730Y-64958841D01*
X133141708Y-64962909D01*
G37*
%TD.AperFunction*%
%TD*%
%TA.AperFunction,Conductor*%
%TO.N,GND*%
G36*
X133525285Y-65046680D02*
G01*
X133529913Y-65054346D01*
X133530045Y-65056060D01*
X133531000Y-65342500D01*
X133531000Y-65342578D01*
X133530045Y-65628939D01*
X133526591Y-65637201D01*
X133518306Y-65640600D01*
X133516592Y-65640468D01*
X133209947Y-65594007D01*
X133202281Y-65589379D01*
X133200000Y-65582439D01*
X133200000Y-65102560D01*
X133203427Y-65094287D01*
X133209944Y-65090993D01*
X133516593Y-65044531D01*
X133525285Y-65046680D01*
G37*
%TD.AperFunction*%
%TD*%
%TA.AperFunction,Conductor*%
%TO.N,GND*%
G36*
X136337998Y-63987576D02*
G01*
X136338539Y-63988117D01*
X136705591Y-64380016D01*
X136708746Y-64388397D01*
X136705050Y-64396553D01*
X136704508Y-64397030D01*
X136583245Y-64497316D01*
X136575789Y-64500000D01*
X136084211Y-64500000D01*
X136076755Y-64497316D01*
X135955491Y-64397030D01*
X135951299Y-64389117D01*
X135953931Y-64380558D01*
X135954408Y-64380016D01*
X136321461Y-63988117D01*
X136329617Y-63984421D01*
X136337998Y-63987576D01*
G37*
%TD.AperFunction*%
%TD*%
%TA.AperFunction,Conductor*%
%TO.N,GND*%
G36*
X136578212Y-64453427D02*
G01*
X136581507Y-64459947D01*
X136627968Y-64766592D01*
X136625819Y-64775285D01*
X136618153Y-64779913D01*
X136616439Y-64780045D01*
X136330039Y-64780999D01*
X136329961Y-64780999D01*
X136043560Y-64780045D01*
X136035298Y-64776591D01*
X136031899Y-64768306D01*
X136032030Y-64766598D01*
X136078493Y-64459947D01*
X136083121Y-64452281D01*
X136090061Y-64450000D01*
X136569939Y-64450000D01*
X136578212Y-64453427D01*
G37*
%TD.AperFunction*%
%TD*%
%TA.AperFunction,Conductor*%
%TO.N,GND*%
G36*
X136645759Y-57530893D02*
G01*
X136647338Y-57532721D01*
X136747898Y-57676984D01*
X136750000Y-57683675D01*
X136750000Y-58176324D01*
X136747898Y-58183015D01*
X136647338Y-58327278D01*
X136639796Y-58332105D01*
X136631049Y-58330185D01*
X136629224Y-58328608D01*
X136261547Y-57938018D01*
X136258372Y-57929647D01*
X136261547Y-57921982D01*
X136629223Y-57531391D01*
X136637387Y-57527717D01*
X136645759Y-57530893D01*
G37*
%TD.AperFunction*%
%TD*%
%TA.AperFunction,Conductor*%
%TO.N,GND*%
G36*
X127295448Y-60045346D02*
G01*
X127422643Y-60171699D01*
X127426097Y-60179961D01*
X127422698Y-60188246D01*
X127422643Y-60188301D01*
X127295448Y-60314653D01*
X127287163Y-60318052D01*
X127278901Y-60314598D01*
X127275729Y-60308646D01*
X127265227Y-60256134D01*
X127265000Y-60253840D01*
X127265000Y-60106160D01*
X127265227Y-60103866D01*
X127275729Y-60051353D01*
X127280712Y-60043912D01*
X127289496Y-60042174D01*
X127295448Y-60045346D01*
G37*
%TD.AperFunction*%
%TD*%
%TA.AperFunction,Conductor*%
%TO.N,GND*%
G36*
X139855532Y-60657508D02*
G01*
X140203953Y-60809285D01*
X140210168Y-60815729D01*
X140210005Y-60824683D01*
X140207552Y-60828283D01*
X139926191Y-61109645D01*
X139917918Y-61113072D01*
X139909645Y-61109645D01*
X139734839Y-60934839D01*
X139731412Y-60926566D01*
X139732314Y-60922060D01*
X139840226Y-60663793D01*
X139846578Y-60657482D01*
X139855532Y-60657508D01*
G37*
%TD.AperFunction*%
%TD*%
%TA.AperFunction,Conductor*%
%TO.N,GND*%
G36*
X123731703Y-61416123D02*
G01*
X123732294Y-61416675D01*
X123831719Y-61516100D01*
X123835066Y-61523006D01*
X123853991Y-61683927D01*
X123851554Y-61692544D01*
X123847106Y-61695993D01*
X123327770Y-61925848D01*
X123318818Y-61926063D01*
X123312336Y-61919884D01*
X123312235Y-61919648D01*
X123126934Y-61470008D01*
X123126950Y-61461053D01*
X123133293Y-61454733D01*
X123136940Y-61453878D01*
X123723213Y-61413276D01*
X123731703Y-61416123D01*
G37*
%TD.AperFunction*%
%TD*%
%TA.AperFunction,Conductor*%
%TO.N,GND*%
G36*
X135929690Y-59103427D02*
G01*
X135932577Y-59108188D01*
X135967152Y-59218055D01*
X135966434Y-59226845D01*
X135690442Y-59772842D01*
X135683651Y-59778680D01*
X135674722Y-59778006D01*
X135669558Y-59772842D01*
X135393565Y-59226845D01*
X135392847Y-59218055D01*
X135427423Y-59108188D01*
X135433175Y-59101325D01*
X135438583Y-59100000D01*
X135921417Y-59100000D01*
X135929690Y-59103427D01*
G37*
%TD.AperFunction*%
%TD*%
%TA.AperFunction,Conductor*%
%TO.N,GND*%
G36*
X135939490Y-65178267D02*
G01*
X135941626Y-65180107D01*
X136298819Y-65572120D01*
X136301858Y-65580543D01*
X136298819Y-65587880D01*
X135941626Y-65979892D01*
X135933521Y-65983699D01*
X135925098Y-65980660D01*
X135923258Y-65978524D01*
X135825730Y-65832955D01*
X135823750Y-65826443D01*
X135823750Y-65333556D01*
X135825730Y-65327044D01*
X135923259Y-65181473D01*
X135930710Y-65176509D01*
X135939490Y-65178267D01*
G37*
%TD.AperFunction*%
%TD*%
%TA.AperFunction,Conductor*%
%TO.N,GND*%
G36*
X131469652Y-61113792D02*
G01*
X131470373Y-61115229D01*
X131517660Y-61228403D01*
X131579115Y-61375489D01*
X131579142Y-61384444D01*
X131579115Y-61384511D01*
X131470375Y-61644766D01*
X131464023Y-61651078D01*
X131455068Y-61651051D01*
X131453627Y-61650328D01*
X131255748Y-61533396D01*
X131250369Y-61526237D01*
X131250000Y-61523323D01*
X131250000Y-61236676D01*
X131253427Y-61228403D01*
X131255746Y-61226604D01*
X131453628Y-61109670D01*
X131462493Y-61108413D01*
X131469652Y-61113792D01*
G37*
%TD.AperFunction*%
%TD*%
%TA.AperFunction,Conductor*%
%TO.N,GND*%
G36*
X127797812Y-65259332D02*
G01*
X128290318Y-65570105D01*
X128295486Y-65577418D01*
X128293969Y-65586244D01*
X128290318Y-65589895D01*
X127797812Y-65900667D01*
X127788986Y-65902184D01*
X127781673Y-65897016D01*
X127780587Y-65894809D01*
X127720719Y-65731955D01*
X127720000Y-65727918D01*
X127720000Y-65432081D01*
X127720719Y-65428044D01*
X127780588Y-65265188D01*
X127786658Y-65258607D01*
X127795605Y-65258246D01*
X127797812Y-65259332D01*
G37*
%TD.AperFunction*%
%TD*%
%TA.AperFunction,Conductor*%
%TO.N,GND*%
G36*
X136583112Y-65064677D02*
G01*
X136583480Y-65065062D01*
X136671254Y-65161209D01*
X136674301Y-65169629D01*
X136671281Y-65176955D01*
X136313668Y-65571438D01*
X136305573Y-65575266D01*
X136297142Y-65572248D01*
X136296332Y-65571438D01*
X135940327Y-65178730D01*
X135937309Y-65170299D01*
X135941137Y-65162204D01*
X135942105Y-65161417D01*
X136048723Y-65083969D01*
X136076925Y-65063484D01*
X136083801Y-65061250D01*
X136574839Y-65061250D01*
X136583112Y-65064677D01*
G37*
%TD.AperFunction*%
%TD*%
%TA.AperFunction,Conductor*%
%TO.N,GND*%
G36*
X136616440Y-64779954D02*
G01*
X136624701Y-64783408D01*
X136628100Y-64791693D01*
X136627968Y-64793407D01*
X136581507Y-65100053D01*
X136576879Y-65107719D01*
X136569939Y-65110000D01*
X136090061Y-65110000D01*
X136081788Y-65106573D01*
X136078493Y-65100053D01*
X136032031Y-64793407D01*
X136034180Y-64784714D01*
X136041846Y-64780086D01*
X136043549Y-64779954D01*
X136330000Y-64779000D01*
X136616440Y-64779954D01*
G37*
%TD.AperFunction*%
%TD*%
%TA.AperFunction,Conductor*%
%TO.N,GND*%
G36*
X127581597Y-64503427D02*
G01*
X127583397Y-64505748D01*
X127591086Y-64518761D01*
X127592488Y-64522430D01*
X127595485Y-64537494D01*
X127595485Y-64537495D01*
X127653001Y-64623573D01*
X127653346Y-64624121D01*
X127700328Y-64703627D01*
X127701586Y-64712493D01*
X127696207Y-64719652D01*
X127694766Y-64720375D01*
X127434511Y-64829115D01*
X127425556Y-64829142D01*
X127425489Y-64829115D01*
X127312176Y-64781770D01*
X127165232Y-64720374D01*
X127158921Y-64714023D01*
X127158948Y-64705068D01*
X127159666Y-64703636D01*
X127276603Y-64505747D01*
X127283762Y-64500369D01*
X127286676Y-64500000D01*
X127573324Y-64500000D01*
X127581597Y-64503427D01*
G37*
%TD.AperFunction*%
%TD*%
%TA.AperFunction,Conductor*%
%TO.N,GND*%
G36*
X140494848Y-61408593D02*
G01*
X140619431Y-61466583D01*
X140625486Y-61473181D01*
X140625101Y-61482127D01*
X140623393Y-61484786D01*
X140251399Y-61920574D01*
X140243421Y-61924642D01*
X140234904Y-61921877D01*
X140233601Y-61920574D01*
X139861606Y-61484786D01*
X139858841Y-61476269D01*
X139862909Y-61468291D01*
X139865566Y-61466584D01*
X139990152Y-61408593D01*
X139995089Y-61407500D01*
X140489911Y-61407500D01*
X140494848Y-61408593D01*
G37*
%TD.AperFunction*%
%TD*%
%TA.AperFunction,Conductor*%
%TO.N,GND*%
G36*
X127694767Y-64939625D02*
G01*
X127701078Y-64945976D01*
X127701051Y-64954931D01*
X127700328Y-64956372D01*
X127583397Y-65154252D01*
X127576238Y-65159631D01*
X127573324Y-65160000D01*
X127286676Y-65160000D01*
X127278403Y-65156573D01*
X127276603Y-65154252D01*
X127159671Y-64956372D01*
X127158413Y-64947506D01*
X127163792Y-64940347D01*
X127165217Y-64939631D01*
X127425490Y-64830883D01*
X127434444Y-64830857D01*
X127694767Y-64939625D01*
G37*
%TD.AperFunction*%
%TD*%
%TA.AperFunction,Conductor*%
%TO.N,GND*%
G36*
X133543402Y-65044530D02*
G01*
X133850054Y-65090993D01*
X133857719Y-65095620D01*
X133860000Y-65102560D01*
X133860000Y-65582439D01*
X133856573Y-65590712D01*
X133850053Y-65594007D01*
X133543407Y-65640468D01*
X133534714Y-65638319D01*
X133530086Y-65630653D01*
X133529954Y-65628949D01*
X133529000Y-65342500D01*
X133529954Y-65056058D01*
X133533408Y-65047798D01*
X133541693Y-65044399D01*
X133543402Y-65044530D01*
G37*
%TD.AperFunction*%
%TD*%
%TA.AperFunction,Conductor*%
%TO.N,GND*%
G36*
X135816409Y-57748304D02*
G01*
X136250783Y-57927264D01*
X136257127Y-57933584D01*
X136257411Y-57934338D01*
X136412560Y-58393644D01*
X136411961Y-58402578D01*
X136405219Y-58408473D01*
X136404950Y-58408560D01*
X136012592Y-58530609D01*
X136003675Y-58529794D01*
X136000844Y-58527710D01*
X135657492Y-58184358D01*
X135654065Y-58176085D01*
X135654722Y-58172221D01*
X135800916Y-57755251D01*
X135806886Y-57748580D01*
X135815827Y-57748083D01*
X135816409Y-57748304D01*
G37*
%TD.AperFunction*%
%TD*%
%TA.AperFunction,Conductor*%
%TO.N,GND*%
G36*
X138178212Y-58703427D02*
G01*
X138181507Y-58709947D01*
X138227968Y-59016592D01*
X138225819Y-59025285D01*
X138218153Y-59029913D01*
X138216439Y-59030045D01*
X137930039Y-59030999D01*
X137929961Y-59030999D01*
X137643560Y-59030045D01*
X137635298Y-59026591D01*
X137631899Y-59018306D01*
X137632030Y-59016598D01*
X137678493Y-58709947D01*
X137683121Y-58702281D01*
X137690061Y-58700000D01*
X138169939Y-58700000D01*
X138178212Y-58703427D01*
G37*
%TD.AperFunction*%
%TD*%
%TA.AperFunction,Conductor*%
%TO.N,Net-(U1-REGOUT)*%
G36*
X132756441Y-63032873D02*
G01*
X132992870Y-63094063D01*
X133000020Y-63099453D01*
X133001265Y-63108320D01*
X132999833Y-63111633D01*
X132689895Y-63602818D01*
X132682582Y-63607986D01*
X132673756Y-63606469D01*
X132670105Y-63602818D01*
X132360166Y-63111633D01*
X132358649Y-63102807D01*
X132363817Y-63095494D01*
X132367123Y-63094064D01*
X132603559Y-63032873D01*
X132606490Y-63032500D01*
X132753510Y-63032500D01*
X132756441Y-63032873D01*
G37*
%TD.AperFunction*%
%TD*%
%TA.AperFunction,Conductor*%
%TO.N,Net-(U1-REGOUT)*%
G36*
X131033745Y-61755335D02*
G01*
X131037956Y-61759030D01*
X131067898Y-61801984D01*
X131070000Y-61808675D01*
X131070000Y-61951324D01*
X131067898Y-61958015D01*
X131037956Y-62000969D01*
X131030414Y-62005796D01*
X131024824Y-62005431D01*
X130664195Y-61891153D01*
X130657343Y-61885387D01*
X130656576Y-61876466D01*
X130662342Y-61869614D01*
X130664195Y-61868847D01*
X131024824Y-61754568D01*
X131033745Y-61755335D01*
G37*
%TD.AperFunction*%
%TD*%
%TA.AperFunction,Conductor*%
%TO.N,Net-(U1-CPOUT)*%
G36*
X125459530Y-61418911D02*
G01*
X125556719Y-61516100D01*
X125560066Y-61523006D01*
X125578991Y-61683927D01*
X125576554Y-61692544D01*
X125572106Y-61695993D01*
X125052770Y-61925848D01*
X125043818Y-61926063D01*
X125037336Y-61919884D01*
X125037235Y-61919648D01*
X124852614Y-61471658D01*
X124852630Y-61462703D01*
X124858973Y-61456383D01*
X124863431Y-61455500D01*
X125352324Y-61455500D01*
X125352326Y-61455500D01*
X125446781Y-61416375D01*
X125455734Y-61416375D01*
X125459530Y-61418911D01*
G37*
%TD.AperFunction*%
%TD*%
%TA.AperFunction,Conductor*%
%TO.N,Net-(U1-CPOUT)*%
G36*
X126335175Y-61254568D02*
G01*
X126695804Y-61368847D01*
X126702656Y-61374613D01*
X126703423Y-61383534D01*
X126697657Y-61390386D01*
X126695804Y-61391153D01*
X126335175Y-61505431D01*
X126326254Y-61504664D01*
X126322043Y-61500968D01*
X126292102Y-61458014D01*
X126290000Y-61451324D01*
X126290000Y-61308675D01*
X126292102Y-61301985D01*
X126322043Y-61259031D01*
X126329585Y-61254203D01*
X126335175Y-61254568D01*
G37*
%TD.AperFunction*%
%TD*%
%TA.AperFunction,Conductor*%
%TO.N,+3.3V*%
G36*
X131682164Y-63965195D02*
G01*
X131405000Y-64081000D01*
X131127836Y-63965195D01*
X131255000Y-63750000D01*
X131555000Y-63750000D01*
X131682164Y-63965195D01*
G37*
%TD.AperFunction*%
%TD*%
%TA.AperFunction,Conductor*%
%TO.N,+3.3V*%
G36*
X131682164Y-64194805D02*
G01*
X131555000Y-64410000D01*
X131255000Y-64410000D01*
X131127836Y-64194805D01*
X131405000Y-64079000D01*
X131682164Y-64194805D01*
G37*
%TD.AperFunction*%
%TD*%
%TA.AperFunction,Conductor*%
%TO.N,+3.3V*%
G36*
X122610000Y-60130000D02*
G01*
X122610000Y-60430000D01*
X122394805Y-60557164D01*
X122279000Y-60280000D01*
X122394805Y-60002836D01*
X122610000Y-60130000D01*
G37*
%TD.AperFunction*%
%TD*%
%TA.AperFunction,Conductor*%
%TO.N,+3.3V*%
G36*
X133057164Y-61365195D02*
G01*
X132780000Y-61481000D01*
X132502836Y-61365195D01*
X132630000Y-61150000D01*
X132930000Y-61150000D01*
X133057164Y-61365195D01*
G37*
%TD.AperFunction*%
%TD*%
%TA.AperFunction,Conductor*%
%TO.N,+3.3V*%
G36*
X122560000Y-63380000D02*
G01*
X122560000Y-63880000D01*
X122230000Y-63930000D01*
X122229000Y-63630000D01*
X122230000Y-63330000D01*
X122560000Y-63380000D01*
G37*
%TD.AperFunction*%
%TD*%
%TA.AperFunction,Conductor*%
%TO.N,VDC*%
G36*
X134712998Y-57937576D02*
G01*
X134713539Y-57938117D01*
X135080591Y-58330016D01*
X135083746Y-58338397D01*
X135080050Y-58346553D01*
X135079508Y-58347030D01*
X134958245Y-58447316D01*
X134950789Y-58450000D01*
X134459211Y-58450000D01*
X134451755Y-58447316D01*
X134330491Y-58347030D01*
X134326299Y-58339117D01*
X134328931Y-58330558D01*
X134329408Y-58330016D01*
X134696461Y-57938117D01*
X134704617Y-57934421D01*
X134712998Y-57937576D01*
G37*
%TD.AperFunction*%
%TD*%
%TA.AperFunction,Conductor*%
%TO.N,VDC*%
G36*
X134956036Y-59103427D02*
G01*
X134958231Y-59106475D01*
X134965573Y-59121186D01*
X135006552Y-59203302D01*
X135007180Y-59212234D01*
X135006643Y-59213563D01*
X134739514Y-59773554D01*
X134732859Y-59779546D01*
X134723917Y-59779077D01*
X134718852Y-59774419D01*
X134432044Y-59283499D01*
X134430557Y-59275987D01*
X134453599Y-59110090D01*
X134458132Y-59102367D01*
X134465188Y-59100000D01*
X134947763Y-59100000D01*
X134956036Y-59103427D01*
G37*
%TD.AperFunction*%
%TD*%
%TA.AperFunction,Conductor*%
%TO.N,VDC*%
G36*
X133415394Y-57202632D02*
G01*
X133419218Y-57209355D01*
X133504810Y-57678957D01*
X133505000Y-57681055D01*
X133505000Y-58179149D01*
X133504878Y-58180837D01*
X133433121Y-58673137D01*
X133428536Y-58680829D01*
X133419855Y-58683027D01*
X133413790Y-58680211D01*
X132687695Y-58037694D01*
X132683770Y-58029645D01*
X132686627Y-58021246D01*
X133398889Y-57203765D01*
X133406905Y-57199781D01*
X133415394Y-57202632D01*
G37*
%TD.AperFunction*%
%TD*%
%TA.AperFunction,Conductor*%
%TO.N,VDC*%
G36*
X134328950Y-57529814D02*
G01*
X134330775Y-57531390D01*
X134474126Y-57683675D01*
X134698451Y-57921981D01*
X134701627Y-57930353D01*
X134698451Y-57938019D01*
X134330778Y-58328606D01*
X134322612Y-58332282D01*
X134314240Y-58329106D01*
X134312661Y-58327278D01*
X134212102Y-58183015D01*
X134210000Y-58176324D01*
X134210000Y-57683675D01*
X134212102Y-57676984D01*
X134312662Y-57532720D01*
X134320203Y-57527894D01*
X134328950Y-57529814D01*
G37*
%TD.AperFunction*%
%TD*%
%TA.AperFunction,Conductor*%
%TO.N,Net-(D1-A)*%
G36*
X138304932Y-65251773D02*
G01*
X138306699Y-65254806D01*
X138360427Y-65390422D01*
X138361250Y-65394731D01*
X138361250Y-65887339D01*
X138357823Y-65895612D01*
X138357438Y-65895980D01*
X138262078Y-65983034D01*
X138253658Y-65986081D01*
X138245549Y-65982281D01*
X138245542Y-65982273D01*
X137887373Y-65589189D01*
X137884334Y-65580766D01*
X137888141Y-65572661D01*
X137888663Y-65572212D01*
X138288481Y-65250004D01*
X138297072Y-65247482D01*
X138304932Y-65251773D01*
G37*
%TD.AperFunction*%
%TD*%
%TA.AperFunction,Conductor*%
%TO.N,Net-(D1-A)*%
G36*
X139032558Y-65258972D02*
G01*
X139034602Y-65260191D01*
X139453953Y-65572365D01*
X139470291Y-65584528D01*
X139474881Y-65592217D01*
X139472690Y-65600899D01*
X139471693Y-65602070D01*
X139082864Y-66001900D01*
X139074639Y-66005442D01*
X139066319Y-66002131D01*
X139066172Y-66001985D01*
X138960896Y-65895921D01*
X138957500Y-65887679D01*
X138957500Y-65395088D01*
X138958593Y-65390151D01*
X139017014Y-65264642D01*
X139023612Y-65258587D01*
X139032558Y-65258972D01*
G37*
%TD.AperFunction*%
%TD*%
%TA.AperFunction,Conductor*%
%TO.N,I2C3_IMU_INT*%
G36*
X128757843Y-58563427D02*
G01*
X128758505Y-58564147D01*
X128814499Y-58630390D01*
X128817223Y-58638921D01*
X128813866Y-58646187D01*
X128688302Y-58772639D01*
X128680041Y-58776095D01*
X128671756Y-58772697D01*
X128671698Y-58772639D01*
X128629525Y-58730168D01*
X128546132Y-58646186D01*
X128542735Y-58637902D01*
X128545499Y-58630392D01*
X128601495Y-58564147D01*
X128609453Y-58560041D01*
X128610430Y-58560000D01*
X128749570Y-58560000D01*
X128757843Y-58563427D01*
G37*
%TD.AperFunction*%
%TD*%
%TA.AperFunction,Conductor*%
%TO.N,I2C3_IMU_INT*%
G36*
X130706134Y-60715227D02*
G01*
X130732390Y-60720478D01*
X130758646Y-60725729D01*
X130766087Y-60730712D01*
X130767825Y-60739496D01*
X130764653Y-60745448D01*
X130638301Y-60872643D01*
X130630039Y-60876097D01*
X130621754Y-60872698D01*
X130621699Y-60872643D01*
X130495346Y-60745448D01*
X130491947Y-60737163D01*
X130495401Y-60728901D01*
X130501351Y-60725729D01*
X130536361Y-60718727D01*
X130553866Y-60715227D01*
X130556160Y-60715000D01*
X130703840Y-60715000D01*
X130706134Y-60715227D01*
G37*
%TD.AperFunction*%
%TD*%
%TA.AperFunction,Conductor*%
%TO.N,I2C3_IMU_INT*%
G36*
X130638243Y-60337301D02*
G01*
X130763866Y-60463812D01*
X130767264Y-60472097D01*
X130764500Y-60479608D01*
X130708504Y-60545853D01*
X130700548Y-60549959D01*
X130699570Y-60550000D01*
X130560430Y-60550000D01*
X130552157Y-60546573D01*
X130551495Y-60545853D01*
X130495500Y-60479609D01*
X130492776Y-60471078D01*
X130496131Y-60463814D01*
X130621699Y-60337359D01*
X130629959Y-60333904D01*
X130638243Y-60337301D01*
G37*
%TD.AperFunction*%
%TD*%
%TA.AperFunction,Conductor*%
%TO.N,I2C3_SCL*%
G36*
X126335175Y-62754568D02*
G01*
X126695804Y-62868847D01*
X126702656Y-62874613D01*
X126703423Y-62883534D01*
X126697657Y-62890386D01*
X126695804Y-62891153D01*
X126335175Y-63005431D01*
X126326254Y-63004664D01*
X126322043Y-63000968D01*
X126292102Y-62958014D01*
X126290000Y-62951324D01*
X126290000Y-62808675D01*
X126292102Y-62801985D01*
X126322043Y-62759031D01*
X126329585Y-62754203D01*
X126335175Y-62754568D01*
G37*
%TD.AperFunction*%
%TD*%
%TA.AperFunction,Conductor*%
%TO.N,I2C3_SCL*%
G36*
X124607016Y-59899540D02*
G01*
X125067968Y-60123114D01*
X125073915Y-60129807D01*
X125073388Y-60138746D01*
X125072237Y-60140639D01*
X124745114Y-60578880D01*
X124737419Y-60583460D01*
X124730251Y-60582215D01*
X124628007Y-60527923D01*
X124625221Y-60525862D01*
X124524501Y-60425142D01*
X124521074Y-60416869D01*
X124521181Y-60415288D01*
X124590319Y-59908484D01*
X124594832Y-59900753D01*
X124603492Y-59898475D01*
X124607016Y-59899540D01*
G37*
%TD.AperFunction*%
%TD*%
%TA.AperFunction,Conductor*%
%TO.N,I2C3_SCL*%
G36*
X124692193Y-58057879D02*
G01*
X124692664Y-58058859D01*
X125194331Y-59241613D01*
X125194407Y-59250568D01*
X125189080Y-59256498D01*
X125007586Y-59353616D01*
X125002066Y-59355000D01*
X124855796Y-59355000D01*
X124854215Y-59354893D01*
X124844850Y-59353616D01*
X124777692Y-59344458D01*
X124318554Y-59281848D01*
X124310820Y-59277334D01*
X124308542Y-59268674D01*
X124308928Y-59266896D01*
X124313557Y-59251455D01*
X124670687Y-58060067D01*
X124676344Y-58053128D01*
X124685252Y-58052221D01*
X124692193Y-58057879D01*
G37*
%TD.AperFunction*%
%TD*%
%TA.AperFunction,Conductor*%
%TO.N,I2C3_SCL*%
G36*
X125005841Y-59607622D02*
G01*
X125313652Y-59652610D01*
X125321342Y-59657197D01*
X125323536Y-59665879D01*
X125322317Y-59669627D01*
X125088643Y-60114543D01*
X125081763Y-60120274D01*
X125072845Y-60119461D01*
X125068900Y-60116089D01*
X124747031Y-59683716D01*
X124744840Y-59675034D01*
X124749430Y-59667345D01*
X124750641Y-59666555D01*
X124852319Y-59609016D01*
X124858081Y-59607500D01*
X125004150Y-59607500D01*
X125005841Y-59607622D01*
G37*
%TD.AperFunction*%
%TD*%
%TA.AperFunction,Conductor*%
%TO.N,I2C3_SDA*%
G36*
X125505850Y-63230117D02*
G01*
X125507514Y-63231285D01*
X125607538Y-63301506D01*
X125612339Y-63309063D01*
X125612514Y-63311081D01*
X125612514Y-63454363D01*
X125612445Y-63455632D01*
X125569302Y-63850981D01*
X125564998Y-63858834D01*
X125556402Y-63861343D01*
X125552555Y-63860234D01*
X125094030Y-63637307D01*
X125088088Y-63630608D01*
X125088624Y-63621669D01*
X125091006Y-63618380D01*
X125490991Y-63231284D01*
X125499319Y-63227995D01*
X125505850Y-63230117D01*
G37*
%TD.AperFunction*%
%TD*%
%TA.AperFunction,Conductor*%
%TO.N,I2C3_SDA*%
G36*
X126335175Y-63254568D02*
G01*
X126695804Y-63368847D01*
X126702656Y-63374613D01*
X126703423Y-63383534D01*
X126697657Y-63390386D01*
X126695804Y-63391153D01*
X126335175Y-63505431D01*
X126326254Y-63504664D01*
X126322043Y-63500968D01*
X126292102Y-63458014D01*
X126290000Y-63451324D01*
X126290000Y-63308675D01*
X126292102Y-63301985D01*
X126322043Y-63259031D01*
X126329585Y-63254203D01*
X126335175Y-63254568D01*
G37*
%TD.AperFunction*%
%TD*%
%TA.AperFunction,Conductor*%
%TO.N,I2C3_SDA*%
G36*
X124608038Y-63451589D02*
G01*
X125075946Y-63627503D01*
X125082483Y-63633621D01*
X125082645Y-63633996D01*
X125270355Y-64089479D01*
X125270339Y-64098434D01*
X125263996Y-64104754D01*
X125259977Y-64105629D01*
X124694101Y-64126873D01*
X124685705Y-64123759D01*
X124685389Y-64123454D01*
X124586442Y-64024507D01*
X124583015Y-64016234D01*
X124583017Y-64016039D01*
X124592224Y-63462347D01*
X124595788Y-63454132D01*
X124604117Y-63450844D01*
X124608038Y-63451589D01*
G37*
%TD.AperFunction*%
%TD*%
%TA.AperFunction,Conductor*%
%TO.N,I2C3_SDA*%
G36*
X126329606Y-59545498D02*
G01*
X126395854Y-59601495D01*
X126399959Y-59609451D01*
X126400000Y-59610429D01*
X126400000Y-59749570D01*
X126396573Y-59757843D01*
X126395861Y-59758498D01*
X126330359Y-59813866D01*
X126329609Y-59814500D01*
X126321078Y-59817223D01*
X126313813Y-59813866D01*
X126187359Y-59688300D01*
X126183904Y-59680041D01*
X126187302Y-59671756D01*
X126313814Y-59546131D01*
X126322097Y-59542735D01*
X126329606Y-59545498D01*
G37*
%TD.AperFunction*%
%TD*%
%TA.AperFunction,Conductor*%
%TO.N,I2C3_SDA*%
G36*
X126684569Y-58048192D02*
G01*
X126690771Y-58054394D01*
X127193076Y-59238653D01*
X127193152Y-59247608D01*
X127186874Y-59253993D01*
X127184965Y-59254616D01*
X126756311Y-59354694D01*
X126753651Y-59355000D01*
X126606349Y-59355000D01*
X126603689Y-59354694D01*
X126175034Y-59254616D01*
X126167757Y-59249398D01*
X126166300Y-59240562D01*
X126166919Y-59238663D01*
X126669229Y-58054393D01*
X126675614Y-58048116D01*
X126684569Y-58048192D01*
G37*
%TD.AperFunction*%
%TD*%
%TA.AperFunction,Conductor*%
%TO.N,I2C3_SDA*%
G36*
X122946185Y-58996132D02*
G01*
X123001939Y-59051494D01*
X123072639Y-59121698D01*
X123076095Y-59129959D01*
X123072697Y-59138244D01*
X123072639Y-59138302D01*
X122946187Y-59263866D01*
X122937902Y-59267264D01*
X122930390Y-59264499D01*
X122864147Y-59208505D01*
X122860041Y-59200548D01*
X122860000Y-59199570D01*
X122860000Y-59060429D01*
X122863427Y-59052156D01*
X122864138Y-59051501D01*
X122930391Y-58995499D01*
X122938921Y-58992776D01*
X122946185Y-58996132D01*
G37*
%TD.AperFunction*%
%TD*%
M02*
