%TF.GenerationSoftware,KiCad,Pcbnew,8.0.8*%
%TF.CreationDate,2025-04-24T20:49:58+02:00*%
%TF.ProjectId,IMU_PCBs,494d555f-5043-4427-932e-6b696361645f,rev?*%
%TF.SameCoordinates,Original*%
%TF.FileFunction,Legend,Bot*%
%TF.FilePolarity,Positive*%
%FSLAX46Y46*%
G04 Gerber Fmt 4.6, Leading zero omitted, Abs format (unit mm)*
G04 Created by KiCad (PCBNEW 8.0.8) date 2025-04-24 20:49:58*
%MOMM*%
%LPD*%
G01*
G04 APERTURE LIST*
%ADD10C,0.170000*%
G04 APERTURE END LIST*
D10*
X126586398Y-89883746D02*
X126538779Y-89788508D01*
X126538779Y-89788508D02*
X126538779Y-89645651D01*
X126538779Y-89645651D02*
X126586398Y-89502794D01*
X126586398Y-89502794D02*
X126681636Y-89407556D01*
X126681636Y-89407556D02*
X126776874Y-89359937D01*
X126776874Y-89359937D02*
X126967350Y-89312318D01*
X126967350Y-89312318D02*
X127110207Y-89312318D01*
X127110207Y-89312318D02*
X127300683Y-89359937D01*
X127300683Y-89359937D02*
X127395921Y-89407556D01*
X127395921Y-89407556D02*
X127491160Y-89502794D01*
X127491160Y-89502794D02*
X127538779Y-89645651D01*
X127538779Y-89645651D02*
X127538779Y-89740889D01*
X127538779Y-89740889D02*
X127491160Y-89883746D01*
X127491160Y-89883746D02*
X127443540Y-89931365D01*
X127443540Y-89931365D02*
X127110207Y-89931365D01*
X127110207Y-89931365D02*
X127110207Y-89740889D01*
X127538779Y-90359937D02*
X126538779Y-90359937D01*
X126538779Y-90359937D02*
X127538779Y-90931365D01*
X127538779Y-90931365D02*
X126538779Y-90931365D01*
X127538779Y-91407556D02*
X126538779Y-91407556D01*
X126538779Y-91407556D02*
X126538779Y-91645651D01*
X126538779Y-91645651D02*
X126586398Y-91788508D01*
X126586398Y-91788508D02*
X126681636Y-91883746D01*
X126681636Y-91883746D02*
X126776874Y-91931365D01*
X126776874Y-91931365D02*
X126967350Y-91978984D01*
X126967350Y-91978984D02*
X127110207Y-91978984D01*
X127110207Y-91978984D02*
X127300683Y-91931365D01*
X127300683Y-91931365D02*
X127395921Y-91883746D01*
X127395921Y-91883746D02*
X127491160Y-91788508D01*
X127491160Y-91788508D02*
X127538779Y-91645651D01*
X127538779Y-91645651D02*
X127538779Y-91407556D01*
X129538779Y-89859937D02*
X128538779Y-89859937D01*
X129538779Y-90336127D02*
X128538779Y-90336127D01*
X128538779Y-90336127D02*
X129538779Y-90907555D01*
X129538779Y-90907555D02*
X128538779Y-90907555D01*
X128538779Y-91240889D02*
X128538779Y-91812317D01*
X129538779Y-91526603D02*
X128538779Y-91526603D01*
X124538779Y-89717080D02*
X125538779Y-90050413D01*
X125538779Y-90050413D02*
X124538779Y-90383746D01*
X125538779Y-90717080D02*
X124538779Y-90717080D01*
X125538779Y-91193270D02*
X124538779Y-91193270D01*
X124538779Y-91193270D02*
X125538779Y-91764698D01*
X125538779Y-91764698D02*
X124538779Y-91764698D01*
X133491160Y-89312318D02*
X133538779Y-89455175D01*
X133538779Y-89455175D02*
X133538779Y-89693270D01*
X133538779Y-89693270D02*
X133491160Y-89788508D01*
X133491160Y-89788508D02*
X133443540Y-89836127D01*
X133443540Y-89836127D02*
X133348302Y-89883746D01*
X133348302Y-89883746D02*
X133253064Y-89883746D01*
X133253064Y-89883746D02*
X133157826Y-89836127D01*
X133157826Y-89836127D02*
X133110207Y-89788508D01*
X133110207Y-89788508D02*
X133062588Y-89693270D01*
X133062588Y-89693270D02*
X133014969Y-89502794D01*
X133014969Y-89502794D02*
X132967350Y-89407556D01*
X132967350Y-89407556D02*
X132919731Y-89359937D01*
X132919731Y-89359937D02*
X132824493Y-89312318D01*
X132824493Y-89312318D02*
X132729255Y-89312318D01*
X132729255Y-89312318D02*
X132634017Y-89359937D01*
X132634017Y-89359937D02*
X132586398Y-89407556D01*
X132586398Y-89407556D02*
X132538779Y-89502794D01*
X132538779Y-89502794D02*
X132538779Y-89740889D01*
X132538779Y-89740889D02*
X132586398Y-89883746D01*
X133443540Y-90883746D02*
X133491160Y-90836127D01*
X133491160Y-90836127D02*
X133538779Y-90693270D01*
X133538779Y-90693270D02*
X133538779Y-90598032D01*
X133538779Y-90598032D02*
X133491160Y-90455175D01*
X133491160Y-90455175D02*
X133395921Y-90359937D01*
X133395921Y-90359937D02*
X133300683Y-90312318D01*
X133300683Y-90312318D02*
X133110207Y-90264699D01*
X133110207Y-90264699D02*
X132967350Y-90264699D01*
X132967350Y-90264699D02*
X132776874Y-90312318D01*
X132776874Y-90312318D02*
X132681636Y-90359937D01*
X132681636Y-90359937D02*
X132586398Y-90455175D01*
X132586398Y-90455175D02*
X132538779Y-90598032D01*
X132538779Y-90598032D02*
X132538779Y-90693270D01*
X132538779Y-90693270D02*
X132586398Y-90836127D01*
X132586398Y-90836127D02*
X132634017Y-90883746D01*
X133538779Y-91788508D02*
X133538779Y-91312318D01*
X133538779Y-91312318D02*
X132538779Y-91312318D01*
X131491160Y-89312318D02*
X131538779Y-89455175D01*
X131538779Y-89455175D02*
X131538779Y-89693270D01*
X131538779Y-89693270D02*
X131491160Y-89788508D01*
X131491160Y-89788508D02*
X131443540Y-89836127D01*
X131443540Y-89836127D02*
X131348302Y-89883746D01*
X131348302Y-89883746D02*
X131253064Y-89883746D01*
X131253064Y-89883746D02*
X131157826Y-89836127D01*
X131157826Y-89836127D02*
X131110207Y-89788508D01*
X131110207Y-89788508D02*
X131062588Y-89693270D01*
X131062588Y-89693270D02*
X131014969Y-89502794D01*
X131014969Y-89502794D02*
X130967350Y-89407556D01*
X130967350Y-89407556D02*
X130919731Y-89359937D01*
X130919731Y-89359937D02*
X130824493Y-89312318D01*
X130824493Y-89312318D02*
X130729255Y-89312318D01*
X130729255Y-89312318D02*
X130634017Y-89359937D01*
X130634017Y-89359937D02*
X130586398Y-89407556D01*
X130586398Y-89407556D02*
X130538779Y-89502794D01*
X130538779Y-89502794D02*
X130538779Y-89740889D01*
X130538779Y-89740889D02*
X130586398Y-89883746D01*
X131538779Y-90312318D02*
X130538779Y-90312318D01*
X130538779Y-90312318D02*
X130538779Y-90550413D01*
X130538779Y-90550413D02*
X130586398Y-90693270D01*
X130586398Y-90693270D02*
X130681636Y-90788508D01*
X130681636Y-90788508D02*
X130776874Y-90836127D01*
X130776874Y-90836127D02*
X130967350Y-90883746D01*
X130967350Y-90883746D02*
X131110207Y-90883746D01*
X131110207Y-90883746D02*
X131300683Y-90836127D01*
X131300683Y-90836127D02*
X131395921Y-90788508D01*
X131395921Y-90788508D02*
X131491160Y-90693270D01*
X131491160Y-90693270D02*
X131538779Y-90550413D01*
X131538779Y-90550413D02*
X131538779Y-90312318D01*
X131253064Y-91264699D02*
X131253064Y-91740889D01*
X131538779Y-91169461D02*
X130538779Y-91502794D01*
X130538779Y-91502794D02*
X131538779Y-91836127D01*
X124358840Y-59327681D02*
X124311220Y-59184824D01*
X124311220Y-59184824D02*
X124311220Y-58946729D01*
X124311220Y-58946729D02*
X124358840Y-58851491D01*
X124358840Y-58851491D02*
X124406459Y-58803872D01*
X124406459Y-58803872D02*
X124501697Y-58756253D01*
X124501697Y-58756253D02*
X124596935Y-58756253D01*
X124596935Y-58756253D02*
X124692173Y-58803872D01*
X124692173Y-58803872D02*
X124739792Y-58851491D01*
X124739792Y-58851491D02*
X124787411Y-58946729D01*
X124787411Y-58946729D02*
X124835030Y-59137205D01*
X124835030Y-59137205D02*
X124882649Y-59232443D01*
X124882649Y-59232443D02*
X124930268Y-59280062D01*
X124930268Y-59280062D02*
X125025506Y-59327681D01*
X125025506Y-59327681D02*
X125120744Y-59327681D01*
X125120744Y-59327681D02*
X125215982Y-59280062D01*
X125215982Y-59280062D02*
X125263601Y-59232443D01*
X125263601Y-59232443D02*
X125311220Y-59137205D01*
X125311220Y-59137205D02*
X125311220Y-58899110D01*
X125311220Y-58899110D02*
X125263601Y-58756253D01*
X124406459Y-57756253D02*
X124358840Y-57803872D01*
X124358840Y-57803872D02*
X124311220Y-57946729D01*
X124311220Y-57946729D02*
X124311220Y-58041967D01*
X124311220Y-58041967D02*
X124358840Y-58184824D01*
X124358840Y-58184824D02*
X124454078Y-58280062D01*
X124454078Y-58280062D02*
X124549316Y-58327681D01*
X124549316Y-58327681D02*
X124739792Y-58375300D01*
X124739792Y-58375300D02*
X124882649Y-58375300D01*
X124882649Y-58375300D02*
X125073125Y-58327681D01*
X125073125Y-58327681D02*
X125168363Y-58280062D01*
X125168363Y-58280062D02*
X125263601Y-58184824D01*
X125263601Y-58184824D02*
X125311220Y-58041967D01*
X125311220Y-58041967D02*
X125311220Y-57946729D01*
X125311220Y-57946729D02*
X125263601Y-57803872D01*
X125263601Y-57803872D02*
X125215982Y-57756253D01*
X124311220Y-56851491D02*
X124311220Y-57327681D01*
X124311220Y-57327681D02*
X125311220Y-57327681D01*
X126408840Y-59327681D02*
X126361220Y-59184824D01*
X126361220Y-59184824D02*
X126361220Y-58946729D01*
X126361220Y-58946729D02*
X126408840Y-58851491D01*
X126408840Y-58851491D02*
X126456459Y-58803872D01*
X126456459Y-58803872D02*
X126551697Y-58756253D01*
X126551697Y-58756253D02*
X126646935Y-58756253D01*
X126646935Y-58756253D02*
X126742173Y-58803872D01*
X126742173Y-58803872D02*
X126789792Y-58851491D01*
X126789792Y-58851491D02*
X126837411Y-58946729D01*
X126837411Y-58946729D02*
X126885030Y-59137205D01*
X126885030Y-59137205D02*
X126932649Y-59232443D01*
X126932649Y-59232443D02*
X126980268Y-59280062D01*
X126980268Y-59280062D02*
X127075506Y-59327681D01*
X127075506Y-59327681D02*
X127170744Y-59327681D01*
X127170744Y-59327681D02*
X127265982Y-59280062D01*
X127265982Y-59280062D02*
X127313601Y-59232443D01*
X127313601Y-59232443D02*
X127361220Y-59137205D01*
X127361220Y-59137205D02*
X127361220Y-58899110D01*
X127361220Y-58899110D02*
X127313601Y-58756253D01*
X126361220Y-58327681D02*
X127361220Y-58327681D01*
X127361220Y-58327681D02*
X127361220Y-58089586D01*
X127361220Y-58089586D02*
X127313601Y-57946729D01*
X127313601Y-57946729D02*
X127218363Y-57851491D01*
X127218363Y-57851491D02*
X127123125Y-57803872D01*
X127123125Y-57803872D02*
X126932649Y-57756253D01*
X126932649Y-57756253D02*
X126789792Y-57756253D01*
X126789792Y-57756253D02*
X126599316Y-57803872D01*
X126599316Y-57803872D02*
X126504078Y-57851491D01*
X126504078Y-57851491D02*
X126408840Y-57946729D01*
X126408840Y-57946729D02*
X126361220Y-58089586D01*
X126361220Y-58089586D02*
X126361220Y-58327681D01*
X126646935Y-57375300D02*
X126646935Y-56899110D01*
X126361220Y-57470538D02*
X127361220Y-57137205D01*
X127361220Y-57137205D02*
X126361220Y-56803872D01*
X133261220Y-59372919D02*
X132261220Y-59039586D01*
X132261220Y-59039586D02*
X133261220Y-58706253D01*
X132261220Y-58372919D02*
X133261220Y-58372919D01*
X133261220Y-58372919D02*
X133261220Y-58134824D01*
X133261220Y-58134824D02*
X133213601Y-57991967D01*
X133213601Y-57991967D02*
X133118363Y-57896729D01*
X133118363Y-57896729D02*
X133023125Y-57849110D01*
X133023125Y-57849110D02*
X132832649Y-57801491D01*
X132832649Y-57801491D02*
X132689792Y-57801491D01*
X132689792Y-57801491D02*
X132499316Y-57849110D01*
X132499316Y-57849110D02*
X132404078Y-57896729D01*
X132404078Y-57896729D02*
X132308840Y-57991967D01*
X132308840Y-57991967D02*
X132261220Y-58134824D01*
X132261220Y-58134824D02*
X132261220Y-58372919D01*
X132356459Y-56801491D02*
X132308840Y-56849110D01*
X132308840Y-56849110D02*
X132261220Y-56991967D01*
X132261220Y-56991967D02*
X132261220Y-57087205D01*
X132261220Y-57087205D02*
X132308840Y-57230062D01*
X132308840Y-57230062D02*
X132404078Y-57325300D01*
X132404078Y-57325300D02*
X132499316Y-57372919D01*
X132499316Y-57372919D02*
X132689792Y-57420538D01*
X132689792Y-57420538D02*
X132832649Y-57420538D01*
X132832649Y-57420538D02*
X133023125Y-57372919D01*
X133023125Y-57372919D02*
X133118363Y-57325300D01*
X133118363Y-57325300D02*
X133213601Y-57230062D01*
X133213601Y-57230062D02*
X133261220Y-57087205D01*
X133261220Y-57087205D02*
X133261220Y-56991967D01*
X133261220Y-56991967D02*
X133213601Y-56849110D01*
X133213601Y-56849110D02*
X133165982Y-56801491D01*
X131213601Y-58906253D02*
X131261220Y-59001491D01*
X131261220Y-59001491D02*
X131261220Y-59144348D01*
X131261220Y-59144348D02*
X131213601Y-59287205D01*
X131213601Y-59287205D02*
X131118363Y-59382443D01*
X131118363Y-59382443D02*
X131023125Y-59430062D01*
X131023125Y-59430062D02*
X130832649Y-59477681D01*
X130832649Y-59477681D02*
X130689792Y-59477681D01*
X130689792Y-59477681D02*
X130499316Y-59430062D01*
X130499316Y-59430062D02*
X130404078Y-59382443D01*
X130404078Y-59382443D02*
X130308840Y-59287205D01*
X130308840Y-59287205D02*
X130261220Y-59144348D01*
X130261220Y-59144348D02*
X130261220Y-59049110D01*
X130261220Y-59049110D02*
X130308840Y-58906253D01*
X130308840Y-58906253D02*
X130356459Y-58858634D01*
X130356459Y-58858634D02*
X130689792Y-58858634D01*
X130689792Y-58858634D02*
X130689792Y-59049110D01*
X130261220Y-58430062D02*
X131261220Y-58430062D01*
X131261220Y-58430062D02*
X130261220Y-57858634D01*
X130261220Y-57858634D02*
X131261220Y-57858634D01*
X130261220Y-57382443D02*
X131261220Y-57382443D01*
X131261220Y-57382443D02*
X131261220Y-57144348D01*
X131261220Y-57144348D02*
X131213601Y-57001491D01*
X131213601Y-57001491D02*
X131118363Y-56906253D01*
X131118363Y-56906253D02*
X131023125Y-56858634D01*
X131023125Y-56858634D02*
X130832649Y-56811015D01*
X130832649Y-56811015D02*
X130689792Y-56811015D01*
X130689792Y-56811015D02*
X130499316Y-56858634D01*
X130499316Y-56858634D02*
X130404078Y-56906253D01*
X130404078Y-56906253D02*
X130308840Y-57001491D01*
X130308840Y-57001491D02*
X130261220Y-57144348D01*
X130261220Y-57144348D02*
X130261220Y-57382443D01*
X128211220Y-58730062D02*
X129211220Y-58730062D01*
X128211220Y-58253872D02*
X129211220Y-58253872D01*
X129211220Y-58253872D02*
X128211220Y-57682444D01*
X128211220Y-57682444D02*
X129211220Y-57682444D01*
X129211220Y-57349110D02*
X129211220Y-56777682D01*
X128211220Y-57063396D02*
X129211220Y-57063396D01*
M02*
