%TF.GenerationSoftware,KiCad,Pcbnew,8.0.3*%
%TF.CreationDate,2025-05-12T20:40:59+02:00*%
%TF.ProjectId,AnalogSensorPCB,416e616c-6f67-4536-956e-736f72504342,rev?*%
%TF.SameCoordinates,Original*%
%TF.FileFunction,Drillmap*%
%TF.FilePolarity,Positive*%
%FSLAX45Y45*%
G04 Gerber Fmt 4.5, Leading zero omitted, Abs format (unit mm)*
G04 Created by KiCad (PCBNEW 8.0.3) date 2025-05-12 20:40:59*
%MOMM*%
%LPD*%
G01*
G04 APERTURE LIST*
%ADD10C,0.050000*%
%ADD11C,0.200000*%
%ADD12C,0.220000*%
G04 APERTURE END LIST*
D10*
X7165000Y-8065000D02*
X9990000Y-6975000D01*
X7165000Y-7340000D02*
X9990000Y-6250000D01*
X16640000Y-6250000D02*
X13315000Y-6250000D01*
X19465000Y-8065000D02*
X16640000Y-6975000D01*
X14150000Y-7575000D02*
X12480000Y-7575000D01*
X16640000Y-6975000D02*
X14150000Y-6975000D01*
X19465000Y-7340000D02*
X16640000Y-6250000D01*
X19655070Y-7412961D02*
G75*
G02*
X19465001Y-8064996I-95030J-326019D01*
G01*
X9990000Y-6975000D02*
X12480000Y-6975000D01*
X12480000Y-6975000D02*
X12480000Y-7575000D01*
X7165000Y-7340000D02*
X6974930Y-7412961D01*
X9990000Y-6250000D02*
X13315000Y-6250000D01*
X14150000Y-6975000D02*
X14150000Y-7575000D01*
X19465000Y-7340000D02*
X19655070Y-7412961D01*
X7165000Y-8065000D02*
G75*
G02*
X6974930Y-7412962I-95035J326019D01*
G01*
D11*
D12*
X7055000Y-7592500D02*
X7275000Y-7812500D01*
X7275000Y-7592500D02*
X7055000Y-7812500D01*
X19355000Y-7592500D02*
X19575000Y-7812500D01*
X19575000Y-7592500D02*
X19355000Y-7812500D01*
D11*
X6988654Y-8392553D02*
X6988654Y-8192553D01*
X6988654Y-8192553D02*
X7036273Y-8192553D01*
X7036273Y-8192553D02*
X7064844Y-8202076D01*
X7064844Y-8202076D02*
X7083892Y-8221124D01*
X7083892Y-8221124D02*
X7093416Y-8240172D01*
X7093416Y-8240172D02*
X7102940Y-8278267D01*
X7102940Y-8278267D02*
X7102940Y-8306838D01*
X7102940Y-8306838D02*
X7093416Y-8344934D01*
X7093416Y-8344934D02*
X7083892Y-8363981D01*
X7083892Y-8363981D02*
X7064844Y-8383029D01*
X7064844Y-8383029D02*
X7036273Y-8392553D01*
X7036273Y-8392553D02*
X6988654Y-8392553D01*
X7188654Y-8392553D02*
X7188654Y-8259219D01*
X7188654Y-8297315D02*
X7198178Y-8278267D01*
X7198178Y-8278267D02*
X7207701Y-8268743D01*
X7207701Y-8268743D02*
X7226749Y-8259219D01*
X7226749Y-8259219D02*
X7245797Y-8259219D01*
X7312463Y-8392553D02*
X7312463Y-8259219D01*
X7312463Y-8192553D02*
X7302940Y-8202076D01*
X7302940Y-8202076D02*
X7312463Y-8211600D01*
X7312463Y-8211600D02*
X7321987Y-8202076D01*
X7321987Y-8202076D02*
X7312463Y-8192553D01*
X7312463Y-8192553D02*
X7312463Y-8211600D01*
X7436273Y-8392553D02*
X7417225Y-8383029D01*
X7417225Y-8383029D02*
X7407701Y-8363981D01*
X7407701Y-8363981D02*
X7407701Y-8192553D01*
X7541035Y-8392553D02*
X7521987Y-8383029D01*
X7521987Y-8383029D02*
X7512463Y-8363981D01*
X7512463Y-8363981D02*
X7512463Y-8192553D01*
X7769606Y-8392553D02*
X7769606Y-8192553D01*
X7769606Y-8192553D02*
X7836273Y-8335410D01*
X7836273Y-8335410D02*
X7902940Y-8192553D01*
X7902940Y-8192553D02*
X7902940Y-8392553D01*
X8083892Y-8392553D02*
X8083892Y-8287791D01*
X8083892Y-8287791D02*
X8074368Y-8268743D01*
X8074368Y-8268743D02*
X8055321Y-8259219D01*
X8055321Y-8259219D02*
X8017225Y-8259219D01*
X8017225Y-8259219D02*
X7998178Y-8268743D01*
X8083892Y-8383029D02*
X8064844Y-8392553D01*
X8064844Y-8392553D02*
X8017225Y-8392553D01*
X8017225Y-8392553D02*
X7998178Y-8383029D01*
X7998178Y-8383029D02*
X7988654Y-8363981D01*
X7988654Y-8363981D02*
X7988654Y-8344934D01*
X7988654Y-8344934D02*
X7998178Y-8325886D01*
X7998178Y-8325886D02*
X8017225Y-8316362D01*
X8017225Y-8316362D02*
X8064844Y-8316362D01*
X8064844Y-8316362D02*
X8083892Y-8306838D01*
X8179130Y-8259219D02*
X8179130Y-8459219D01*
X8179130Y-8268743D02*
X8198178Y-8259219D01*
X8198178Y-8259219D02*
X8236273Y-8259219D01*
X8236273Y-8259219D02*
X8255321Y-8268743D01*
X8255321Y-8268743D02*
X8264844Y-8278267D01*
X8264844Y-8278267D02*
X8274368Y-8297315D01*
X8274368Y-8297315D02*
X8274368Y-8354457D01*
X8274368Y-8354457D02*
X8264844Y-8373505D01*
X8264844Y-8373505D02*
X8255321Y-8383029D01*
X8255321Y-8383029D02*
X8236273Y-8392553D01*
X8236273Y-8392553D02*
X8198178Y-8392553D01*
X8198178Y-8392553D02*
X8179130Y-8383029D01*
X8360082Y-8373505D02*
X8369606Y-8383029D01*
X8369606Y-8383029D02*
X8360082Y-8392553D01*
X8360082Y-8392553D02*
X8350559Y-8383029D01*
X8350559Y-8383029D02*
X8360082Y-8373505D01*
X8360082Y-8373505D02*
X8360082Y-8392553D01*
X8360082Y-8268743D02*
X8369606Y-8278267D01*
X8369606Y-8278267D02*
X8360082Y-8287791D01*
X8360082Y-8287791D02*
X8350559Y-8278267D01*
X8350559Y-8278267D02*
X8360082Y-8268743D01*
X8360082Y-8268743D02*
X8360082Y-8287791D01*
X6527877Y-8621069D02*
X6727877Y-8821069D01*
X6727877Y-8621069D02*
X6527877Y-8821069D01*
X6979130Y-8631600D02*
X6988654Y-8622077D01*
X6988654Y-8622077D02*
X7007701Y-8612553D01*
X7007701Y-8612553D02*
X7055321Y-8612553D01*
X7055321Y-8612553D02*
X7074368Y-8622077D01*
X7074368Y-8622077D02*
X7083892Y-8631600D01*
X7083892Y-8631600D02*
X7093416Y-8650648D01*
X7093416Y-8650648D02*
X7093416Y-8669696D01*
X7093416Y-8669696D02*
X7083892Y-8698267D01*
X7083892Y-8698267D02*
X6969606Y-8812553D01*
X6969606Y-8812553D02*
X7093416Y-8812553D01*
X7179130Y-8793505D02*
X7188654Y-8803029D01*
X7188654Y-8803029D02*
X7179130Y-8812553D01*
X7179130Y-8812553D02*
X7169606Y-8803029D01*
X7169606Y-8803029D02*
X7179130Y-8793505D01*
X7179130Y-8793505D02*
X7179130Y-8812553D01*
X7264844Y-8631600D02*
X7274368Y-8622077D01*
X7274368Y-8622077D02*
X7293416Y-8612553D01*
X7293416Y-8612553D02*
X7341035Y-8612553D01*
X7341035Y-8612553D02*
X7360082Y-8622077D01*
X7360082Y-8622077D02*
X7369606Y-8631600D01*
X7369606Y-8631600D02*
X7379130Y-8650648D01*
X7379130Y-8650648D02*
X7379130Y-8669696D01*
X7379130Y-8669696D02*
X7369606Y-8698267D01*
X7369606Y-8698267D02*
X7255321Y-8812553D01*
X7255321Y-8812553D02*
X7379130Y-8812553D01*
X7502940Y-8612553D02*
X7521987Y-8612553D01*
X7521987Y-8612553D02*
X7541035Y-8622077D01*
X7541035Y-8622077D02*
X7550559Y-8631600D01*
X7550559Y-8631600D02*
X7560082Y-8650648D01*
X7560082Y-8650648D02*
X7569606Y-8688743D01*
X7569606Y-8688743D02*
X7569606Y-8736362D01*
X7569606Y-8736362D02*
X7560082Y-8774457D01*
X7560082Y-8774457D02*
X7550559Y-8793505D01*
X7550559Y-8793505D02*
X7541035Y-8803029D01*
X7541035Y-8803029D02*
X7521987Y-8812553D01*
X7521987Y-8812553D02*
X7502940Y-8812553D01*
X7502940Y-8812553D02*
X7483892Y-8803029D01*
X7483892Y-8803029D02*
X7474368Y-8793505D01*
X7474368Y-8793505D02*
X7464844Y-8774457D01*
X7464844Y-8774457D02*
X7455321Y-8736362D01*
X7455321Y-8736362D02*
X7455321Y-8688743D01*
X7455321Y-8688743D02*
X7464844Y-8650648D01*
X7464844Y-8650648D02*
X7474368Y-8631600D01*
X7474368Y-8631600D02*
X7483892Y-8622077D01*
X7483892Y-8622077D02*
X7502940Y-8612553D01*
X7693416Y-8612553D02*
X7712463Y-8612553D01*
X7712463Y-8612553D02*
X7731511Y-8622077D01*
X7731511Y-8622077D02*
X7741035Y-8631600D01*
X7741035Y-8631600D02*
X7750559Y-8650648D01*
X7750559Y-8650648D02*
X7760082Y-8688743D01*
X7760082Y-8688743D02*
X7760082Y-8736362D01*
X7760082Y-8736362D02*
X7750559Y-8774457D01*
X7750559Y-8774457D02*
X7741035Y-8793505D01*
X7741035Y-8793505D02*
X7731511Y-8803029D01*
X7731511Y-8803029D02*
X7712463Y-8812553D01*
X7712463Y-8812553D02*
X7693416Y-8812553D01*
X7693416Y-8812553D02*
X7674368Y-8803029D01*
X7674368Y-8803029D02*
X7664844Y-8793505D01*
X7664844Y-8793505D02*
X7655321Y-8774457D01*
X7655321Y-8774457D02*
X7645797Y-8736362D01*
X7645797Y-8736362D02*
X7645797Y-8688743D01*
X7645797Y-8688743D02*
X7655321Y-8650648D01*
X7655321Y-8650648D02*
X7664844Y-8631600D01*
X7664844Y-8631600D02*
X7674368Y-8622077D01*
X7674368Y-8622077D02*
X7693416Y-8612553D01*
X7845797Y-8812553D02*
X7845797Y-8679219D01*
X7845797Y-8698267D02*
X7855321Y-8688743D01*
X7855321Y-8688743D02*
X7874368Y-8679219D01*
X7874368Y-8679219D02*
X7902940Y-8679219D01*
X7902940Y-8679219D02*
X7921987Y-8688743D01*
X7921987Y-8688743D02*
X7931511Y-8707791D01*
X7931511Y-8707791D02*
X7931511Y-8812553D01*
X7931511Y-8707791D02*
X7941035Y-8688743D01*
X7941035Y-8688743D02*
X7960082Y-8679219D01*
X7960082Y-8679219D02*
X7988654Y-8679219D01*
X7988654Y-8679219D02*
X8007702Y-8688743D01*
X8007702Y-8688743D02*
X8017225Y-8707791D01*
X8017225Y-8707791D02*
X8017225Y-8812553D01*
X8112463Y-8812553D02*
X8112463Y-8679219D01*
X8112463Y-8698267D02*
X8121987Y-8688743D01*
X8121987Y-8688743D02*
X8141035Y-8679219D01*
X8141035Y-8679219D02*
X8169606Y-8679219D01*
X8169606Y-8679219D02*
X8188654Y-8688743D01*
X8188654Y-8688743D02*
X8198178Y-8707791D01*
X8198178Y-8707791D02*
X8198178Y-8812553D01*
X8198178Y-8707791D02*
X8207702Y-8688743D01*
X8207702Y-8688743D02*
X8226749Y-8679219D01*
X8226749Y-8679219D02*
X8255321Y-8679219D01*
X8255321Y-8679219D02*
X8274368Y-8688743D01*
X8274368Y-8688743D02*
X8283892Y-8707791D01*
X8283892Y-8707791D02*
X8283892Y-8812553D01*
X8674368Y-8603029D02*
X8502940Y-8860172D01*
X8931511Y-8612553D02*
X8950559Y-8612553D01*
X8950559Y-8612553D02*
X8969607Y-8622077D01*
X8969607Y-8622077D02*
X8979130Y-8631600D01*
X8979130Y-8631600D02*
X8988654Y-8650648D01*
X8988654Y-8650648D02*
X8998178Y-8688743D01*
X8998178Y-8688743D02*
X8998178Y-8736362D01*
X8998178Y-8736362D02*
X8988654Y-8774457D01*
X8988654Y-8774457D02*
X8979130Y-8793505D01*
X8979130Y-8793505D02*
X8969607Y-8803029D01*
X8969607Y-8803029D02*
X8950559Y-8812553D01*
X8950559Y-8812553D02*
X8931511Y-8812553D01*
X8931511Y-8812553D02*
X8912464Y-8803029D01*
X8912464Y-8803029D02*
X8902940Y-8793505D01*
X8902940Y-8793505D02*
X8893416Y-8774457D01*
X8893416Y-8774457D02*
X8883892Y-8736362D01*
X8883892Y-8736362D02*
X8883892Y-8688743D01*
X8883892Y-8688743D02*
X8893416Y-8650648D01*
X8893416Y-8650648D02*
X8902940Y-8631600D01*
X8902940Y-8631600D02*
X8912464Y-8622077D01*
X8912464Y-8622077D02*
X8931511Y-8612553D01*
X9083892Y-8793505D02*
X9093416Y-8803029D01*
X9093416Y-8803029D02*
X9083892Y-8812553D01*
X9083892Y-8812553D02*
X9074368Y-8803029D01*
X9074368Y-8803029D02*
X9083892Y-8793505D01*
X9083892Y-8793505D02*
X9083892Y-8812553D01*
X9217226Y-8612553D02*
X9236273Y-8612553D01*
X9236273Y-8612553D02*
X9255321Y-8622077D01*
X9255321Y-8622077D02*
X9264845Y-8631600D01*
X9264845Y-8631600D02*
X9274368Y-8650648D01*
X9274368Y-8650648D02*
X9283892Y-8688743D01*
X9283892Y-8688743D02*
X9283892Y-8736362D01*
X9283892Y-8736362D02*
X9274368Y-8774457D01*
X9274368Y-8774457D02*
X9264845Y-8793505D01*
X9264845Y-8793505D02*
X9255321Y-8803029D01*
X9255321Y-8803029D02*
X9236273Y-8812553D01*
X9236273Y-8812553D02*
X9217226Y-8812553D01*
X9217226Y-8812553D02*
X9198178Y-8803029D01*
X9198178Y-8803029D02*
X9188654Y-8793505D01*
X9188654Y-8793505D02*
X9179130Y-8774457D01*
X9179130Y-8774457D02*
X9169607Y-8736362D01*
X9169607Y-8736362D02*
X9169607Y-8688743D01*
X9169607Y-8688743D02*
X9179130Y-8650648D01*
X9179130Y-8650648D02*
X9188654Y-8631600D01*
X9188654Y-8631600D02*
X9198178Y-8622077D01*
X9198178Y-8622077D02*
X9217226Y-8612553D01*
X9398178Y-8698267D02*
X9379130Y-8688743D01*
X9379130Y-8688743D02*
X9369607Y-8679219D01*
X9369607Y-8679219D02*
X9360083Y-8660172D01*
X9360083Y-8660172D02*
X9360083Y-8650648D01*
X9360083Y-8650648D02*
X9369607Y-8631600D01*
X9369607Y-8631600D02*
X9379130Y-8622077D01*
X9379130Y-8622077D02*
X9398178Y-8612553D01*
X9398178Y-8612553D02*
X9436273Y-8612553D01*
X9436273Y-8612553D02*
X9455321Y-8622077D01*
X9455321Y-8622077D02*
X9464845Y-8631600D01*
X9464845Y-8631600D02*
X9474368Y-8650648D01*
X9474368Y-8650648D02*
X9474368Y-8660172D01*
X9474368Y-8660172D02*
X9464845Y-8679219D01*
X9464845Y-8679219D02*
X9455321Y-8688743D01*
X9455321Y-8688743D02*
X9436273Y-8698267D01*
X9436273Y-8698267D02*
X9398178Y-8698267D01*
X9398178Y-8698267D02*
X9379130Y-8707791D01*
X9379130Y-8707791D02*
X9369607Y-8717315D01*
X9369607Y-8717315D02*
X9360083Y-8736362D01*
X9360083Y-8736362D02*
X9360083Y-8774457D01*
X9360083Y-8774457D02*
X9369607Y-8793505D01*
X9369607Y-8793505D02*
X9379130Y-8803029D01*
X9379130Y-8803029D02*
X9398178Y-8812553D01*
X9398178Y-8812553D02*
X9436273Y-8812553D01*
X9436273Y-8812553D02*
X9455321Y-8803029D01*
X9455321Y-8803029D02*
X9464845Y-8793505D01*
X9464845Y-8793505D02*
X9474368Y-8774457D01*
X9474368Y-8774457D02*
X9474368Y-8736362D01*
X9474368Y-8736362D02*
X9464845Y-8717315D01*
X9464845Y-8717315D02*
X9455321Y-8707791D01*
X9455321Y-8707791D02*
X9436273Y-8698267D01*
X9645797Y-8612553D02*
X9607702Y-8612553D01*
X9607702Y-8612553D02*
X9588654Y-8622077D01*
X9588654Y-8622077D02*
X9579130Y-8631600D01*
X9579130Y-8631600D02*
X9560083Y-8660172D01*
X9560083Y-8660172D02*
X9550559Y-8698267D01*
X9550559Y-8698267D02*
X9550559Y-8774457D01*
X9550559Y-8774457D02*
X9560083Y-8793505D01*
X9560083Y-8793505D02*
X9569607Y-8803029D01*
X9569607Y-8803029D02*
X9588654Y-8812553D01*
X9588654Y-8812553D02*
X9626749Y-8812553D01*
X9626749Y-8812553D02*
X9645797Y-8803029D01*
X9645797Y-8803029D02*
X9655321Y-8793505D01*
X9655321Y-8793505D02*
X9664845Y-8774457D01*
X9664845Y-8774457D02*
X9664845Y-8726838D01*
X9664845Y-8726838D02*
X9655321Y-8707791D01*
X9655321Y-8707791D02*
X9645797Y-8698267D01*
X9645797Y-8698267D02*
X9626749Y-8688743D01*
X9626749Y-8688743D02*
X9588654Y-8688743D01*
X9588654Y-8688743D02*
X9569607Y-8698267D01*
X9569607Y-8698267D02*
X9560083Y-8707791D01*
X9560083Y-8707791D02*
X9550559Y-8726838D01*
X9836273Y-8612553D02*
X9798178Y-8612553D01*
X9798178Y-8612553D02*
X9779130Y-8622077D01*
X9779130Y-8622077D02*
X9769607Y-8631600D01*
X9769607Y-8631600D02*
X9750559Y-8660172D01*
X9750559Y-8660172D02*
X9741035Y-8698267D01*
X9741035Y-8698267D02*
X9741035Y-8774457D01*
X9741035Y-8774457D02*
X9750559Y-8793505D01*
X9750559Y-8793505D02*
X9760083Y-8803029D01*
X9760083Y-8803029D02*
X9779130Y-8812553D01*
X9779130Y-8812553D02*
X9817226Y-8812553D01*
X9817226Y-8812553D02*
X9836273Y-8803029D01*
X9836273Y-8803029D02*
X9845797Y-8793505D01*
X9845797Y-8793505D02*
X9855321Y-8774457D01*
X9855321Y-8774457D02*
X9855321Y-8726838D01*
X9855321Y-8726838D02*
X9845797Y-8707791D01*
X9845797Y-8707791D02*
X9836273Y-8698267D01*
X9836273Y-8698267D02*
X9817226Y-8688743D01*
X9817226Y-8688743D02*
X9779130Y-8688743D01*
X9779130Y-8688743D02*
X9760083Y-8698267D01*
X9760083Y-8698267D02*
X9750559Y-8707791D01*
X9750559Y-8707791D02*
X9741035Y-8726838D01*
X9931511Y-8612553D02*
X9931511Y-8650648D01*
X10007702Y-8612553D02*
X10007702Y-8650648D01*
X10302940Y-8888743D02*
X10293416Y-8879219D01*
X10293416Y-8879219D02*
X10274369Y-8850648D01*
X10274369Y-8850648D02*
X10264845Y-8831600D01*
X10264845Y-8831600D02*
X10255321Y-8803029D01*
X10255321Y-8803029D02*
X10245797Y-8755410D01*
X10245797Y-8755410D02*
X10245797Y-8717315D01*
X10245797Y-8717315D02*
X10255321Y-8669696D01*
X10255321Y-8669696D02*
X10264845Y-8641124D01*
X10264845Y-8641124D02*
X10274369Y-8622077D01*
X10274369Y-8622077D02*
X10293416Y-8593505D01*
X10293416Y-8593505D02*
X10302940Y-8583981D01*
X10369607Y-8631600D02*
X10379130Y-8622077D01*
X10379130Y-8622077D02*
X10398178Y-8612553D01*
X10398178Y-8612553D02*
X10445797Y-8612553D01*
X10445797Y-8612553D02*
X10464845Y-8622077D01*
X10464845Y-8622077D02*
X10474369Y-8631600D01*
X10474369Y-8631600D02*
X10483892Y-8650648D01*
X10483892Y-8650648D02*
X10483892Y-8669696D01*
X10483892Y-8669696D02*
X10474369Y-8698267D01*
X10474369Y-8698267D02*
X10360083Y-8812553D01*
X10360083Y-8812553D02*
X10483892Y-8812553D01*
X10721988Y-8812553D02*
X10721988Y-8612553D01*
X10807702Y-8812553D02*
X10807702Y-8707791D01*
X10807702Y-8707791D02*
X10798178Y-8688743D01*
X10798178Y-8688743D02*
X10779131Y-8679219D01*
X10779131Y-8679219D02*
X10750559Y-8679219D01*
X10750559Y-8679219D02*
X10731511Y-8688743D01*
X10731511Y-8688743D02*
X10721988Y-8698267D01*
X10931511Y-8812553D02*
X10912464Y-8803029D01*
X10912464Y-8803029D02*
X10902940Y-8793505D01*
X10902940Y-8793505D02*
X10893416Y-8774457D01*
X10893416Y-8774457D02*
X10893416Y-8717315D01*
X10893416Y-8717315D02*
X10902940Y-8698267D01*
X10902940Y-8698267D02*
X10912464Y-8688743D01*
X10912464Y-8688743D02*
X10931511Y-8679219D01*
X10931511Y-8679219D02*
X10960083Y-8679219D01*
X10960083Y-8679219D02*
X10979131Y-8688743D01*
X10979131Y-8688743D02*
X10988654Y-8698267D01*
X10988654Y-8698267D02*
X10998178Y-8717315D01*
X10998178Y-8717315D02*
X10998178Y-8774457D01*
X10998178Y-8774457D02*
X10988654Y-8793505D01*
X10988654Y-8793505D02*
X10979131Y-8803029D01*
X10979131Y-8803029D02*
X10960083Y-8812553D01*
X10960083Y-8812553D02*
X10931511Y-8812553D01*
X11112464Y-8812553D02*
X11093416Y-8803029D01*
X11093416Y-8803029D02*
X11083892Y-8783981D01*
X11083892Y-8783981D02*
X11083892Y-8612553D01*
X11264845Y-8803029D02*
X11245797Y-8812553D01*
X11245797Y-8812553D02*
X11207702Y-8812553D01*
X11207702Y-8812553D02*
X11188654Y-8803029D01*
X11188654Y-8803029D02*
X11179131Y-8783981D01*
X11179131Y-8783981D02*
X11179131Y-8707791D01*
X11179131Y-8707791D02*
X11188654Y-8688743D01*
X11188654Y-8688743D02*
X11207702Y-8679219D01*
X11207702Y-8679219D02*
X11245797Y-8679219D01*
X11245797Y-8679219D02*
X11264845Y-8688743D01*
X11264845Y-8688743D02*
X11274369Y-8707791D01*
X11274369Y-8707791D02*
X11274369Y-8726838D01*
X11274369Y-8726838D02*
X11179131Y-8745886D01*
X11350559Y-8803029D02*
X11369607Y-8812553D01*
X11369607Y-8812553D02*
X11407702Y-8812553D01*
X11407702Y-8812553D02*
X11426750Y-8803029D01*
X11426750Y-8803029D02*
X11436273Y-8783981D01*
X11436273Y-8783981D02*
X11436273Y-8774457D01*
X11436273Y-8774457D02*
X11426750Y-8755410D01*
X11426750Y-8755410D02*
X11407702Y-8745886D01*
X11407702Y-8745886D02*
X11379130Y-8745886D01*
X11379130Y-8745886D02*
X11360083Y-8736362D01*
X11360083Y-8736362D02*
X11350559Y-8717315D01*
X11350559Y-8717315D02*
X11350559Y-8707791D01*
X11350559Y-8707791D02*
X11360083Y-8688743D01*
X11360083Y-8688743D02*
X11379130Y-8679219D01*
X11379130Y-8679219D02*
X11407702Y-8679219D01*
X11407702Y-8679219D02*
X11426750Y-8688743D01*
X11502940Y-8888743D02*
X11512464Y-8879219D01*
X11512464Y-8879219D02*
X11531511Y-8850648D01*
X11531511Y-8850648D02*
X11541035Y-8831600D01*
X11541035Y-8831600D02*
X11550559Y-8803029D01*
X11550559Y-8803029D02*
X11560083Y-8755410D01*
X11560083Y-8755410D02*
X11560083Y-8717315D01*
X11560083Y-8717315D02*
X11550559Y-8669696D01*
X11550559Y-8669696D02*
X11541035Y-8641124D01*
X11541035Y-8641124D02*
X11531511Y-8622077D01*
X11531511Y-8622077D02*
X11512464Y-8593505D01*
X11512464Y-8593505D02*
X11502940Y-8583981D01*
X11864845Y-8888743D02*
X11855321Y-8879219D01*
X11855321Y-8879219D02*
X11836273Y-8850648D01*
X11836273Y-8850648D02*
X11826750Y-8831600D01*
X11826750Y-8831600D02*
X11817226Y-8803029D01*
X11817226Y-8803029D02*
X11807702Y-8755410D01*
X11807702Y-8755410D02*
X11807702Y-8717315D01*
X11807702Y-8717315D02*
X11817226Y-8669696D01*
X11817226Y-8669696D02*
X11826750Y-8641124D01*
X11826750Y-8641124D02*
X11836273Y-8622077D01*
X11836273Y-8622077D02*
X11855321Y-8593505D01*
X11855321Y-8593505D02*
X11864845Y-8583981D01*
X11941035Y-8679219D02*
X11941035Y-8812553D01*
X11941035Y-8698267D02*
X11950559Y-8688743D01*
X11950559Y-8688743D02*
X11969607Y-8679219D01*
X11969607Y-8679219D02*
X11998178Y-8679219D01*
X11998178Y-8679219D02*
X12017226Y-8688743D01*
X12017226Y-8688743D02*
X12026750Y-8707791D01*
X12026750Y-8707791D02*
X12026750Y-8812553D01*
X12150559Y-8812553D02*
X12131511Y-8803029D01*
X12131511Y-8803029D02*
X12121988Y-8793505D01*
X12121988Y-8793505D02*
X12112464Y-8774457D01*
X12112464Y-8774457D02*
X12112464Y-8717315D01*
X12112464Y-8717315D02*
X12121988Y-8698267D01*
X12121988Y-8698267D02*
X12131511Y-8688743D01*
X12131511Y-8688743D02*
X12150559Y-8679219D01*
X12150559Y-8679219D02*
X12179131Y-8679219D01*
X12179131Y-8679219D02*
X12198178Y-8688743D01*
X12198178Y-8688743D02*
X12207702Y-8698267D01*
X12207702Y-8698267D02*
X12217226Y-8717315D01*
X12217226Y-8717315D02*
X12217226Y-8774457D01*
X12217226Y-8774457D02*
X12207702Y-8793505D01*
X12207702Y-8793505D02*
X12198178Y-8803029D01*
X12198178Y-8803029D02*
X12179131Y-8812553D01*
X12179131Y-8812553D02*
X12150559Y-8812553D01*
X12274369Y-8679219D02*
X12350559Y-8679219D01*
X12302940Y-8612553D02*
X12302940Y-8783981D01*
X12302940Y-8783981D02*
X12312464Y-8803029D01*
X12312464Y-8803029D02*
X12331511Y-8812553D01*
X12331511Y-8812553D02*
X12350559Y-8812553D01*
X12569607Y-8679219D02*
X12569607Y-8879219D01*
X12569607Y-8688743D02*
X12588654Y-8679219D01*
X12588654Y-8679219D02*
X12626750Y-8679219D01*
X12626750Y-8679219D02*
X12645797Y-8688743D01*
X12645797Y-8688743D02*
X12655321Y-8698267D01*
X12655321Y-8698267D02*
X12664845Y-8717315D01*
X12664845Y-8717315D02*
X12664845Y-8774457D01*
X12664845Y-8774457D02*
X12655321Y-8793505D01*
X12655321Y-8793505D02*
X12645797Y-8803029D01*
X12645797Y-8803029D02*
X12626750Y-8812553D01*
X12626750Y-8812553D02*
X12588654Y-8812553D01*
X12588654Y-8812553D02*
X12569607Y-8803029D01*
X12779131Y-8812553D02*
X12760083Y-8803029D01*
X12760083Y-8803029D02*
X12750559Y-8783981D01*
X12750559Y-8783981D02*
X12750559Y-8612553D01*
X12941035Y-8812553D02*
X12941035Y-8707791D01*
X12941035Y-8707791D02*
X12931512Y-8688743D01*
X12931512Y-8688743D02*
X12912464Y-8679219D01*
X12912464Y-8679219D02*
X12874369Y-8679219D01*
X12874369Y-8679219D02*
X12855321Y-8688743D01*
X12941035Y-8803029D02*
X12921988Y-8812553D01*
X12921988Y-8812553D02*
X12874369Y-8812553D01*
X12874369Y-8812553D02*
X12855321Y-8803029D01*
X12855321Y-8803029D02*
X12845797Y-8783981D01*
X12845797Y-8783981D02*
X12845797Y-8764934D01*
X12845797Y-8764934D02*
X12855321Y-8745886D01*
X12855321Y-8745886D02*
X12874369Y-8736362D01*
X12874369Y-8736362D02*
X12921988Y-8736362D01*
X12921988Y-8736362D02*
X12941035Y-8726838D01*
X13007702Y-8679219D02*
X13083892Y-8679219D01*
X13036273Y-8612553D02*
X13036273Y-8783981D01*
X13036273Y-8783981D02*
X13045797Y-8803029D01*
X13045797Y-8803029D02*
X13064845Y-8812553D01*
X13064845Y-8812553D02*
X13083892Y-8812553D01*
X13226750Y-8803029D02*
X13207702Y-8812553D01*
X13207702Y-8812553D02*
X13169607Y-8812553D01*
X13169607Y-8812553D02*
X13150559Y-8803029D01*
X13150559Y-8803029D02*
X13141035Y-8783981D01*
X13141035Y-8783981D02*
X13141035Y-8707791D01*
X13141035Y-8707791D02*
X13150559Y-8688743D01*
X13150559Y-8688743D02*
X13169607Y-8679219D01*
X13169607Y-8679219D02*
X13207702Y-8679219D01*
X13207702Y-8679219D02*
X13226750Y-8688743D01*
X13226750Y-8688743D02*
X13236273Y-8707791D01*
X13236273Y-8707791D02*
X13236273Y-8726838D01*
X13236273Y-8726838D02*
X13141035Y-8745886D01*
X13407702Y-8812553D02*
X13407702Y-8612553D01*
X13407702Y-8803029D02*
X13388654Y-8812553D01*
X13388654Y-8812553D02*
X13350559Y-8812553D01*
X13350559Y-8812553D02*
X13331512Y-8803029D01*
X13331512Y-8803029D02*
X13321988Y-8793505D01*
X13321988Y-8793505D02*
X13312464Y-8774457D01*
X13312464Y-8774457D02*
X13312464Y-8717315D01*
X13312464Y-8717315D02*
X13321988Y-8698267D01*
X13321988Y-8698267D02*
X13331512Y-8688743D01*
X13331512Y-8688743D02*
X13350559Y-8679219D01*
X13350559Y-8679219D02*
X13388654Y-8679219D01*
X13388654Y-8679219D02*
X13407702Y-8688743D01*
X13483893Y-8888743D02*
X13493416Y-8879219D01*
X13493416Y-8879219D02*
X13512464Y-8850648D01*
X13512464Y-8850648D02*
X13521988Y-8831600D01*
X13521988Y-8831600D02*
X13531512Y-8803029D01*
X13531512Y-8803029D02*
X13541035Y-8755410D01*
X13541035Y-8755410D02*
X13541035Y-8717315D01*
X13541035Y-8717315D02*
X13531512Y-8669696D01*
X13531512Y-8669696D02*
X13521988Y-8641124D01*
X13521988Y-8641124D02*
X13512464Y-8622077D01*
X13512464Y-8622077D02*
X13493416Y-8593505D01*
X13493416Y-8593505D02*
X13483893Y-8583981D01*
M02*
