%TF.GenerationSoftware,KiCad,Pcbnew,8.0.3*%
%TF.CreationDate,2025-05-12T20:40:50+02:00*%
%TF.ProjectId,AnalogSensorPCB,416e616c-6f67-4536-956e-736f72504342,rev?*%
%TF.SameCoordinates,Original*%
%TF.FileFunction,Paste,Bot*%
%TF.FilePolarity,Positive*%
%FSLAX46Y46*%
G04 Gerber Fmt 4.6, Leading zero omitted, Abs format (unit mm)*
G04 Created by KiCad (PCBNEW 8.0.3) date 2025-05-12 20:40:50*
%MOMM*%
%LPD*%
G01*
G04 APERTURE LIST*
G04 Aperture macros list*
%AMRoundRect*
0 Rectangle with rounded corners*
0 $1 Rounding radius*
0 $2 $3 $4 $5 $6 $7 $8 $9 X,Y pos of 4 corners*
0 Add a 4 corners polygon primitive as box body*
4,1,4,$2,$3,$4,$5,$6,$7,$8,$9,$2,$3,0*
0 Add four circle primitives for the rounded corners*
1,1,$1+$1,$2,$3*
1,1,$1+$1,$4,$5*
1,1,$1+$1,$6,$7*
1,1,$1+$1,$8,$9*
0 Add four rect primitives between the rounded corners*
20,1,$1+$1,$2,$3,$4,$5,0*
20,1,$1+$1,$4,$5,$6,$7,0*
20,1,$1+$1,$6,$7,$8,$9,0*
20,1,$1+$1,$8,$9,$2,$3,0*%
G04 Aperture macros list end*
%ADD10RoundRect,0.237500X0.237500X-0.250000X0.237500X0.250000X-0.237500X0.250000X-0.237500X-0.250000X0*%
%ADD11R,1.000000X1.000000*%
%ADD12RoundRect,0.237500X-0.237500X0.250000X-0.237500X-0.250000X0.237500X-0.250000X0.237500X0.250000X0*%
G04 APERTURE END LIST*
D10*
%TO.C,R8*%
X142750000Y-66325000D03*
X142750000Y-64500000D03*
%TD*%
D11*
%TO.C,U8*%
X145249998Y-65600000D03*
X145249998Y-67400000D03*
X149549998Y-67400000D03*
X149549998Y-65600000D03*
%TD*%
%TO.C,U11*%
X173749998Y-69100000D03*
X173749998Y-70900000D03*
X178049998Y-70900000D03*
X178049998Y-69100000D03*
%TD*%
%TO.C,U3*%
X97749998Y-65600000D03*
X97749998Y-67400000D03*
X102049998Y-67400000D03*
X102049998Y-65600000D03*
%TD*%
%TO.C,U12*%
X183249998Y-72600000D03*
X183249998Y-74400000D03*
X187549998Y-74400000D03*
X187549998Y-72600000D03*
%TD*%
%TO.C,U2*%
X88249998Y-69100000D03*
X88249998Y-70900000D03*
X92549998Y-70900000D03*
X92549998Y-69100000D03*
%TD*%
D12*
%TO.C,R5*%
X123640000Y-64517500D03*
X123640000Y-66342500D03*
%TD*%
D11*
%TO.C,U1*%
X78749998Y-72600000D03*
X78749998Y-74400000D03*
X83049998Y-74400000D03*
X83049998Y-72600000D03*
%TD*%
D10*
%TO.C,R11*%
X161640000Y-66232500D03*
X161640000Y-64407500D03*
%TD*%
D11*
%TO.C,U7*%
X135749998Y-65600000D03*
X135749998Y-67400000D03*
X140049998Y-67400000D03*
X140049998Y-65600000D03*
%TD*%
D12*
%TO.C,R16*%
X180690000Y-69387500D03*
X180690000Y-71212500D03*
%TD*%
%TO.C,R2*%
X104600000Y-64517500D03*
X104600000Y-66342500D03*
%TD*%
D11*
%TO.C,U10*%
X164249998Y-65600000D03*
X164249998Y-67400000D03*
X168549998Y-67400000D03*
X168549998Y-65600000D03*
%TD*%
%TO.C,U4*%
X107249998Y-65600000D03*
X107249998Y-67400000D03*
X111549998Y-67400000D03*
X111549998Y-65600000D03*
%TD*%
D10*
%TO.C,R1*%
X85580000Y-71485000D03*
X85580000Y-69660000D03*
%TD*%
D11*
%TO.C,U5*%
X116749998Y-65600000D03*
X116749998Y-67400000D03*
X121049998Y-67400000D03*
X121049998Y-65600000D03*
%TD*%
%TO.C,U9*%
X154749998Y-65600000D03*
X154749998Y-67400000D03*
X159049998Y-67400000D03*
X159049998Y-65600000D03*
%TD*%
%TO.C,U6*%
X126249998Y-65600000D03*
X126249998Y-67400000D03*
X130549998Y-67400000D03*
X130549998Y-65600000D03*
%TD*%
M02*
