%TF.GenerationSoftware,KiCad,Pcbnew,8.0.3*%
%TF.CreationDate,2025-05-12T20:40:50+02:00*%
%TF.ProjectId,AnalogSensorPCB,416e616c-6f67-4536-956e-736f72504342,rev?*%
%TF.SameCoordinates,Original*%
%TF.FileFunction,Soldermask,Top*%
%TF.FilePolarity,Negative*%
%FSLAX46Y46*%
G04 Gerber Fmt 4.6, Leading zero omitted, Abs format (unit mm)*
G04 Created by KiCad (PCBNEW 8.0.3) date 2025-05-12 20:40:50*
%MOMM*%
%LPD*%
G01*
G04 APERTURE LIST*
G04 Aperture macros list*
%AMRoundRect*
0 Rectangle with rounded corners*
0 $1 Rounding radius*
0 $2 $3 $4 $5 $6 $7 $8 $9 X,Y pos of 4 corners*
0 Add a 4 corners polygon primitive as box body*
4,1,4,$2,$3,$4,$5,$6,$7,$8,$9,$2,$3,0*
0 Add four circle primitives for the rounded corners*
1,1,$1+$1,$2,$3*
1,1,$1+$1,$4,$5*
1,1,$1+$1,$6,$7*
1,1,$1+$1,$8,$9*
0 Add four rect primitives between the rounded corners*
20,1,$1+$1,$2,$3,$4,$5,0*
20,1,$1+$1,$4,$5,$6,$7,0*
20,1,$1+$1,$6,$7,$8,$9,0*
20,1,$1+$1,$8,$9,$2,$3,0*%
G04 Aperture macros list end*
%ADD10R,0.300000X1.300000*%
%ADD11R,1.800000X2.200000*%
%ADD12RoundRect,0.160000X0.160000X-0.197500X0.160000X0.197500X-0.160000X0.197500X-0.160000X-0.197500X0*%
%ADD13RoundRect,0.155000X-0.212500X-0.155000X0.212500X-0.155000X0.212500X0.155000X-0.212500X0.155000X0*%
%ADD14C,2.200000*%
G04 APERTURE END LIST*
D10*
%TO.C,J1*%
X128750000Y-70950000D03*
X129250000Y-70950000D03*
X129750000Y-70950000D03*
X130250000Y-70950000D03*
X130750000Y-70950000D03*
X131250000Y-70950000D03*
X131750000Y-70950000D03*
X132250000Y-70950000D03*
X132750000Y-70950000D03*
X133250000Y-70950000D03*
X133750000Y-70950000D03*
X134250000Y-70950000D03*
X134750000Y-70950000D03*
X135250000Y-70950000D03*
X135750000Y-70950000D03*
X136250000Y-70950000D03*
X136750000Y-70950000D03*
X137250000Y-70950000D03*
D11*
X126850000Y-74200000D03*
X139150000Y-74200000D03*
%TD*%
D12*
%TO.C,R17*%
X183210000Y-72357500D03*
X183210000Y-71162500D03*
%TD*%
D13*
%TO.C,C1*%
X138342500Y-70950000D03*
X139477500Y-70950000D03*
%TD*%
D14*
%TO.C,REF\u002A\u002A*%
X194650000Y-77025000D03*
%TD*%
D12*
%TO.C,R13*%
X92530000Y-69065000D03*
X92530000Y-67870000D03*
%TD*%
%TO.C,R10*%
X140030000Y-65570000D03*
X140030000Y-64375000D03*
%TD*%
%TO.C,R6*%
X130530000Y-65587500D03*
X130530000Y-64392500D03*
%TD*%
%TO.C,R15*%
X159090000Y-65535000D03*
X159090000Y-64340000D03*
%TD*%
%TO.C,R18*%
X173700000Y-68955000D03*
X173700000Y-67760000D03*
%TD*%
%TO.C,R4*%
X102070000Y-65495000D03*
X102070000Y-64300000D03*
%TD*%
%TO.C,R14*%
X83070000Y-72560000D03*
X83070000Y-71365000D03*
%TD*%
D13*
%TO.C,C2*%
X138332500Y-69940000D03*
X139467500Y-69940000D03*
%TD*%
D12*
%TO.C,R9*%
X149590000Y-65595000D03*
X149590000Y-64400000D03*
%TD*%
%TO.C,R3*%
X111550000Y-65527500D03*
X111550000Y-64332500D03*
%TD*%
D14*
%TO.C,REF\u002A\u002A*%
X71650000Y-77025000D03*
%TD*%
D12*
%TO.C,R7*%
X121080000Y-65550000D03*
X121080000Y-64355000D03*
%TD*%
%TO.C,R12*%
X164250000Y-65587500D03*
X164250000Y-64392500D03*
%TD*%
M02*
