%TF.GenerationSoftware,KiCad,Pcbnew,8.0.3*%
%TF.CreationDate,2025-05-12T20:40:59+02:00*%
%TF.ProjectId,AnalogSensorPCB,416e616c-6f67-4536-956e-736f72504342,rev?*%
%TF.SameCoordinates,Original*%
%TF.FileFunction,Plated,1,2,PTH,Drill*%
%TF.FilePolarity,Positive*%
%FSLAX46Y46*%
G04 Gerber Fmt 4.6, Leading zero omitted, Abs format (unit mm)*
G04 Created by KiCad (PCBNEW 8.0.3) date 2025-05-12 20:40:59*
%MOMM*%
%LPD*%
G01*
G04 APERTURE LIST*
%TA.AperFunction,ViaDrill*%
%ADD10C,0.200000*%
%TD*%
%TA.AperFunction,ViaDrill*%
%ADD11C,0.260000*%
%TD*%
G04 APERTURE END LIST*
D10*
X86780000Y-71820000D03*
X93720000Y-68780000D03*
X102070000Y-66630000D03*
X111550000Y-66580000D03*
X121660000Y-66660000D03*
X130530000Y-66580000D03*
X138700000Y-66490000D03*
X149455000Y-66545000D03*
X157750000Y-67500000D03*
X165280000Y-66480000D03*
X176670000Y-69930000D03*
X185470000Y-74230000D03*
D11*
X77710000Y-74540000D03*
X82710000Y-70390000D03*
X90460000Y-70270000D03*
X96280000Y-67410000D03*
X97749998Y-64689998D03*
X99820000Y-67150000D03*
X109330000Y-66540000D03*
X114290000Y-66630000D03*
X116749998Y-64160002D03*
X118620000Y-66630000D03*
X127860000Y-71990000D03*
X127910000Y-71010000D03*
X127920000Y-70180000D03*
X128870000Y-66000000D03*
X132860000Y-66850000D03*
X137000000Y-63370000D03*
X137000000Y-64349998D03*
X137180000Y-72110000D03*
X137230000Y-69680000D03*
X137570000Y-73310000D03*
X138000000Y-63310000D03*
X138060000Y-72100000D03*
X139750000Y-72000000D03*
X140500000Y-69860000D03*
X140520000Y-70960000D03*
X144020000Y-66260000D03*
X146750000Y-65450000D03*
X146780000Y-66320000D03*
X147940000Y-65430000D03*
X151750000Y-66650000D03*
X154749998Y-64330002D03*
X155870000Y-66810000D03*
X160420000Y-66930000D03*
X165420000Y-67760000D03*
X170700000Y-67970000D03*
X172800000Y-71300000D03*
X174570000Y-66810000D03*
X175830000Y-70830000D03*
X183260000Y-75390000D03*
M02*
