%TF.GenerationSoftware,KiCad,Pcbnew,8.0.3*%
%TF.CreationDate,2025-05-12T20:40:50+02:00*%
%TF.ProjectId,AnalogSensorPCB,416e616c-6f67-4536-956e-736f72504342,rev?*%
%TF.SameCoordinates,Original*%
%TF.FileFunction,Legend,Top*%
%TF.FilePolarity,Positive*%
%FSLAX46Y46*%
G04 Gerber Fmt 4.6, Leading zero omitted, Abs format (unit mm)*
G04 Created by KiCad (PCBNEW 8.0.3) date 2025-05-12 20:40:50*
%MOMM*%
%LPD*%
G01*
G04 APERTURE LIST*
%ADD10C,0.170000*%
%ADD11C,0.120000*%
%ADD12C,0.000000*%
G04 APERTURE END LIST*
D10*
X184983779Y-72312857D02*
X184507588Y-72646190D01*
X184983779Y-72884285D02*
X183983779Y-72884285D01*
X183983779Y-72884285D02*
X183983779Y-72503333D01*
X183983779Y-72503333D02*
X184031398Y-72408095D01*
X184031398Y-72408095D02*
X184079017Y-72360476D01*
X184079017Y-72360476D02*
X184174255Y-72312857D01*
X184174255Y-72312857D02*
X184317112Y-72312857D01*
X184317112Y-72312857D02*
X184412350Y-72360476D01*
X184412350Y-72360476D02*
X184459969Y-72408095D01*
X184459969Y-72408095D02*
X184507588Y-72503333D01*
X184507588Y-72503333D02*
X184507588Y-72884285D01*
X184983779Y-71360476D02*
X184983779Y-71931904D01*
X184983779Y-71646190D02*
X183983779Y-71646190D01*
X183983779Y-71646190D02*
X184126636Y-71741428D01*
X184126636Y-71741428D02*
X184221874Y-71836666D01*
X184221874Y-71836666D02*
X184269493Y-71931904D01*
X183983779Y-71027142D02*
X183983779Y-70360476D01*
X183983779Y-70360476D02*
X184983779Y-70789047D01*
X138623333Y-69228540D02*
X138575714Y-69276160D01*
X138575714Y-69276160D02*
X138432857Y-69323779D01*
X138432857Y-69323779D02*
X138337619Y-69323779D01*
X138337619Y-69323779D02*
X138194762Y-69276160D01*
X138194762Y-69276160D02*
X138099524Y-69180921D01*
X138099524Y-69180921D02*
X138051905Y-69085683D01*
X138051905Y-69085683D02*
X138004286Y-68895207D01*
X138004286Y-68895207D02*
X138004286Y-68752350D01*
X138004286Y-68752350D02*
X138051905Y-68561874D01*
X138051905Y-68561874D02*
X138099524Y-68466636D01*
X138099524Y-68466636D02*
X138194762Y-68371398D01*
X138194762Y-68371398D02*
X138337619Y-68323779D01*
X138337619Y-68323779D02*
X138432857Y-68323779D01*
X138432857Y-68323779D02*
X138575714Y-68371398D01*
X138575714Y-68371398D02*
X138623333Y-68419017D01*
X139575714Y-69323779D02*
X139004286Y-69323779D01*
X139290000Y-69323779D02*
X139290000Y-68323779D01*
X139290000Y-68323779D02*
X139194762Y-68466636D01*
X139194762Y-68466636D02*
X139099524Y-68561874D01*
X139099524Y-68561874D02*
X139004286Y-68609493D01*
X94273779Y-68852857D02*
X93797588Y-69186190D01*
X94273779Y-69424285D02*
X93273779Y-69424285D01*
X93273779Y-69424285D02*
X93273779Y-69043333D01*
X93273779Y-69043333D02*
X93321398Y-68948095D01*
X93321398Y-68948095D02*
X93369017Y-68900476D01*
X93369017Y-68900476D02*
X93464255Y-68852857D01*
X93464255Y-68852857D02*
X93607112Y-68852857D01*
X93607112Y-68852857D02*
X93702350Y-68900476D01*
X93702350Y-68900476D02*
X93749969Y-68948095D01*
X93749969Y-68948095D02*
X93797588Y-69043333D01*
X93797588Y-69043333D02*
X93797588Y-69424285D01*
X94273779Y-67900476D02*
X94273779Y-68471904D01*
X94273779Y-68186190D02*
X93273779Y-68186190D01*
X93273779Y-68186190D02*
X93416636Y-68281428D01*
X93416636Y-68281428D02*
X93511874Y-68376666D01*
X93511874Y-68376666D02*
X93559493Y-68471904D01*
X93273779Y-67567142D02*
X93273779Y-66948095D01*
X93273779Y-66948095D02*
X93654731Y-67281428D01*
X93654731Y-67281428D02*
X93654731Y-67138571D01*
X93654731Y-67138571D02*
X93702350Y-67043333D01*
X93702350Y-67043333D02*
X93749969Y-66995714D01*
X93749969Y-66995714D02*
X93845207Y-66948095D01*
X93845207Y-66948095D02*
X94083302Y-66948095D01*
X94083302Y-66948095D02*
X94178540Y-66995714D01*
X94178540Y-66995714D02*
X94226160Y-67043333D01*
X94226160Y-67043333D02*
X94273779Y-67138571D01*
X94273779Y-67138571D02*
X94273779Y-67424285D01*
X94273779Y-67424285D02*
X94226160Y-67519523D01*
X94226160Y-67519523D02*
X94178540Y-67567142D01*
X141843779Y-65542857D02*
X141367588Y-65876190D01*
X141843779Y-66114285D02*
X140843779Y-66114285D01*
X140843779Y-66114285D02*
X140843779Y-65733333D01*
X140843779Y-65733333D02*
X140891398Y-65638095D01*
X140891398Y-65638095D02*
X140939017Y-65590476D01*
X140939017Y-65590476D02*
X141034255Y-65542857D01*
X141034255Y-65542857D02*
X141177112Y-65542857D01*
X141177112Y-65542857D02*
X141272350Y-65590476D01*
X141272350Y-65590476D02*
X141319969Y-65638095D01*
X141319969Y-65638095D02*
X141367588Y-65733333D01*
X141367588Y-65733333D02*
X141367588Y-66114285D01*
X141843779Y-64590476D02*
X141843779Y-65161904D01*
X141843779Y-64876190D02*
X140843779Y-64876190D01*
X140843779Y-64876190D02*
X140986636Y-64971428D01*
X140986636Y-64971428D02*
X141081874Y-65066666D01*
X141081874Y-65066666D02*
X141129493Y-65161904D01*
X140843779Y-63971428D02*
X140843779Y-63876190D01*
X140843779Y-63876190D02*
X140891398Y-63780952D01*
X140891398Y-63780952D02*
X140939017Y-63733333D01*
X140939017Y-63733333D02*
X141034255Y-63685714D01*
X141034255Y-63685714D02*
X141224731Y-63638095D01*
X141224731Y-63638095D02*
X141462826Y-63638095D01*
X141462826Y-63638095D02*
X141653302Y-63685714D01*
X141653302Y-63685714D02*
X141748540Y-63733333D01*
X141748540Y-63733333D02*
X141796160Y-63780952D01*
X141796160Y-63780952D02*
X141843779Y-63876190D01*
X141843779Y-63876190D02*
X141843779Y-63971428D01*
X141843779Y-63971428D02*
X141796160Y-64066666D01*
X141796160Y-64066666D02*
X141748540Y-64114285D01*
X141748540Y-64114285D02*
X141653302Y-64161904D01*
X141653302Y-64161904D02*
X141462826Y-64209523D01*
X141462826Y-64209523D02*
X141224731Y-64209523D01*
X141224731Y-64209523D02*
X141034255Y-64161904D01*
X141034255Y-64161904D02*
X140939017Y-64114285D01*
X140939017Y-64114285D02*
X140891398Y-64066666D01*
X140891398Y-64066666D02*
X140843779Y-63971428D01*
X132173779Y-65186666D02*
X131697588Y-65519999D01*
X132173779Y-65758094D02*
X131173779Y-65758094D01*
X131173779Y-65758094D02*
X131173779Y-65377142D01*
X131173779Y-65377142D02*
X131221398Y-65281904D01*
X131221398Y-65281904D02*
X131269017Y-65234285D01*
X131269017Y-65234285D02*
X131364255Y-65186666D01*
X131364255Y-65186666D02*
X131507112Y-65186666D01*
X131507112Y-65186666D02*
X131602350Y-65234285D01*
X131602350Y-65234285D02*
X131649969Y-65281904D01*
X131649969Y-65281904D02*
X131697588Y-65377142D01*
X131697588Y-65377142D02*
X131697588Y-65758094D01*
X131173779Y-64329523D02*
X131173779Y-64519999D01*
X131173779Y-64519999D02*
X131221398Y-64615237D01*
X131221398Y-64615237D02*
X131269017Y-64662856D01*
X131269017Y-64662856D02*
X131411874Y-64758094D01*
X131411874Y-64758094D02*
X131602350Y-64805713D01*
X131602350Y-64805713D02*
X131983302Y-64805713D01*
X131983302Y-64805713D02*
X132078540Y-64758094D01*
X132078540Y-64758094D02*
X132126160Y-64710475D01*
X132126160Y-64710475D02*
X132173779Y-64615237D01*
X132173779Y-64615237D02*
X132173779Y-64424761D01*
X132173779Y-64424761D02*
X132126160Y-64329523D01*
X132126160Y-64329523D02*
X132078540Y-64281904D01*
X132078540Y-64281904D02*
X131983302Y-64234285D01*
X131983302Y-64234285D02*
X131745207Y-64234285D01*
X131745207Y-64234285D02*
X131649969Y-64281904D01*
X131649969Y-64281904D02*
X131602350Y-64329523D01*
X131602350Y-64329523D02*
X131554731Y-64424761D01*
X131554731Y-64424761D02*
X131554731Y-64615237D01*
X131554731Y-64615237D02*
X131602350Y-64710475D01*
X131602350Y-64710475D02*
X131649969Y-64758094D01*
X131649969Y-64758094D02*
X131745207Y-64805713D01*
X160863779Y-65352857D02*
X160387588Y-65686190D01*
X160863779Y-65924285D02*
X159863779Y-65924285D01*
X159863779Y-65924285D02*
X159863779Y-65543333D01*
X159863779Y-65543333D02*
X159911398Y-65448095D01*
X159911398Y-65448095D02*
X159959017Y-65400476D01*
X159959017Y-65400476D02*
X160054255Y-65352857D01*
X160054255Y-65352857D02*
X160197112Y-65352857D01*
X160197112Y-65352857D02*
X160292350Y-65400476D01*
X160292350Y-65400476D02*
X160339969Y-65448095D01*
X160339969Y-65448095D02*
X160387588Y-65543333D01*
X160387588Y-65543333D02*
X160387588Y-65924285D01*
X160863779Y-64400476D02*
X160863779Y-64971904D01*
X160863779Y-64686190D02*
X159863779Y-64686190D01*
X159863779Y-64686190D02*
X160006636Y-64781428D01*
X160006636Y-64781428D02*
X160101874Y-64876666D01*
X160101874Y-64876666D02*
X160149493Y-64971904D01*
X159863779Y-63495714D02*
X159863779Y-63971904D01*
X159863779Y-63971904D02*
X160339969Y-64019523D01*
X160339969Y-64019523D02*
X160292350Y-63971904D01*
X160292350Y-63971904D02*
X160244731Y-63876666D01*
X160244731Y-63876666D02*
X160244731Y-63638571D01*
X160244731Y-63638571D02*
X160292350Y-63543333D01*
X160292350Y-63543333D02*
X160339969Y-63495714D01*
X160339969Y-63495714D02*
X160435207Y-63448095D01*
X160435207Y-63448095D02*
X160673302Y-63448095D01*
X160673302Y-63448095D02*
X160768540Y-63495714D01*
X160768540Y-63495714D02*
X160816160Y-63543333D01*
X160816160Y-63543333D02*
X160863779Y-63638571D01*
X160863779Y-63638571D02*
X160863779Y-63876666D01*
X160863779Y-63876666D02*
X160816160Y-63971904D01*
X160816160Y-63971904D02*
X160768540Y-64019523D01*
X175553779Y-68892857D02*
X175077588Y-69226190D01*
X175553779Y-69464285D02*
X174553779Y-69464285D01*
X174553779Y-69464285D02*
X174553779Y-69083333D01*
X174553779Y-69083333D02*
X174601398Y-68988095D01*
X174601398Y-68988095D02*
X174649017Y-68940476D01*
X174649017Y-68940476D02*
X174744255Y-68892857D01*
X174744255Y-68892857D02*
X174887112Y-68892857D01*
X174887112Y-68892857D02*
X174982350Y-68940476D01*
X174982350Y-68940476D02*
X175029969Y-68988095D01*
X175029969Y-68988095D02*
X175077588Y-69083333D01*
X175077588Y-69083333D02*
X175077588Y-69464285D01*
X175553779Y-67940476D02*
X175553779Y-68511904D01*
X175553779Y-68226190D02*
X174553779Y-68226190D01*
X174553779Y-68226190D02*
X174696636Y-68321428D01*
X174696636Y-68321428D02*
X174791874Y-68416666D01*
X174791874Y-68416666D02*
X174839493Y-68511904D01*
X174982350Y-67369047D02*
X174934731Y-67464285D01*
X174934731Y-67464285D02*
X174887112Y-67511904D01*
X174887112Y-67511904D02*
X174791874Y-67559523D01*
X174791874Y-67559523D02*
X174744255Y-67559523D01*
X174744255Y-67559523D02*
X174649017Y-67511904D01*
X174649017Y-67511904D02*
X174601398Y-67464285D01*
X174601398Y-67464285D02*
X174553779Y-67369047D01*
X174553779Y-67369047D02*
X174553779Y-67178571D01*
X174553779Y-67178571D02*
X174601398Y-67083333D01*
X174601398Y-67083333D02*
X174649017Y-67035714D01*
X174649017Y-67035714D02*
X174744255Y-66988095D01*
X174744255Y-66988095D02*
X174791874Y-66988095D01*
X174791874Y-66988095D02*
X174887112Y-67035714D01*
X174887112Y-67035714D02*
X174934731Y-67083333D01*
X174934731Y-67083333D02*
X174982350Y-67178571D01*
X174982350Y-67178571D02*
X174982350Y-67369047D01*
X174982350Y-67369047D02*
X175029969Y-67464285D01*
X175029969Y-67464285D02*
X175077588Y-67511904D01*
X175077588Y-67511904D02*
X175172826Y-67559523D01*
X175172826Y-67559523D02*
X175363302Y-67559523D01*
X175363302Y-67559523D02*
X175458540Y-67511904D01*
X175458540Y-67511904D02*
X175506160Y-67464285D01*
X175506160Y-67464285D02*
X175553779Y-67369047D01*
X175553779Y-67369047D02*
X175553779Y-67178571D01*
X175553779Y-67178571D02*
X175506160Y-67083333D01*
X175506160Y-67083333D02*
X175458540Y-67035714D01*
X175458540Y-67035714D02*
X175363302Y-66988095D01*
X175363302Y-66988095D02*
X175172826Y-66988095D01*
X175172826Y-66988095D02*
X175077588Y-67035714D01*
X175077588Y-67035714D02*
X175029969Y-67083333D01*
X175029969Y-67083333D02*
X174982350Y-67178571D01*
X103793779Y-65236666D02*
X103317588Y-65569999D01*
X103793779Y-65808094D02*
X102793779Y-65808094D01*
X102793779Y-65808094D02*
X102793779Y-65427142D01*
X102793779Y-65427142D02*
X102841398Y-65331904D01*
X102841398Y-65331904D02*
X102889017Y-65284285D01*
X102889017Y-65284285D02*
X102984255Y-65236666D01*
X102984255Y-65236666D02*
X103127112Y-65236666D01*
X103127112Y-65236666D02*
X103222350Y-65284285D01*
X103222350Y-65284285D02*
X103269969Y-65331904D01*
X103269969Y-65331904D02*
X103317588Y-65427142D01*
X103317588Y-65427142D02*
X103317588Y-65808094D01*
X103127112Y-64379523D02*
X103793779Y-64379523D01*
X102746160Y-64617618D02*
X103460445Y-64855713D01*
X103460445Y-64855713D02*
X103460445Y-64236666D01*
X84723779Y-72442857D02*
X84247588Y-72776190D01*
X84723779Y-73014285D02*
X83723779Y-73014285D01*
X83723779Y-73014285D02*
X83723779Y-72633333D01*
X83723779Y-72633333D02*
X83771398Y-72538095D01*
X83771398Y-72538095D02*
X83819017Y-72490476D01*
X83819017Y-72490476D02*
X83914255Y-72442857D01*
X83914255Y-72442857D02*
X84057112Y-72442857D01*
X84057112Y-72442857D02*
X84152350Y-72490476D01*
X84152350Y-72490476D02*
X84199969Y-72538095D01*
X84199969Y-72538095D02*
X84247588Y-72633333D01*
X84247588Y-72633333D02*
X84247588Y-73014285D01*
X84723779Y-71490476D02*
X84723779Y-72061904D01*
X84723779Y-71776190D02*
X83723779Y-71776190D01*
X83723779Y-71776190D02*
X83866636Y-71871428D01*
X83866636Y-71871428D02*
X83961874Y-71966666D01*
X83961874Y-71966666D02*
X84009493Y-72061904D01*
X84057112Y-70633333D02*
X84723779Y-70633333D01*
X83676160Y-70871428D02*
X84390445Y-71109523D01*
X84390445Y-71109523D02*
X84390445Y-70490476D01*
X138523333Y-67948540D02*
X138475714Y-67996160D01*
X138475714Y-67996160D02*
X138332857Y-68043779D01*
X138332857Y-68043779D02*
X138237619Y-68043779D01*
X138237619Y-68043779D02*
X138094762Y-67996160D01*
X138094762Y-67996160D02*
X137999524Y-67900921D01*
X137999524Y-67900921D02*
X137951905Y-67805683D01*
X137951905Y-67805683D02*
X137904286Y-67615207D01*
X137904286Y-67615207D02*
X137904286Y-67472350D01*
X137904286Y-67472350D02*
X137951905Y-67281874D01*
X137951905Y-67281874D02*
X137999524Y-67186636D01*
X137999524Y-67186636D02*
X138094762Y-67091398D01*
X138094762Y-67091398D02*
X138237619Y-67043779D01*
X138237619Y-67043779D02*
X138332857Y-67043779D01*
X138332857Y-67043779D02*
X138475714Y-67091398D01*
X138475714Y-67091398D02*
X138523333Y-67139017D01*
X138904286Y-67139017D02*
X138951905Y-67091398D01*
X138951905Y-67091398D02*
X139047143Y-67043779D01*
X139047143Y-67043779D02*
X139285238Y-67043779D01*
X139285238Y-67043779D02*
X139380476Y-67091398D01*
X139380476Y-67091398D02*
X139428095Y-67139017D01*
X139428095Y-67139017D02*
X139475714Y-67234255D01*
X139475714Y-67234255D02*
X139475714Y-67329493D01*
X139475714Y-67329493D02*
X139428095Y-67472350D01*
X139428095Y-67472350D02*
X138856667Y-68043779D01*
X138856667Y-68043779D02*
X139475714Y-68043779D01*
X151263779Y-65144166D02*
X150787588Y-65477499D01*
X151263779Y-65715594D02*
X150263779Y-65715594D01*
X150263779Y-65715594D02*
X150263779Y-65334642D01*
X150263779Y-65334642D02*
X150311398Y-65239404D01*
X150311398Y-65239404D02*
X150359017Y-65191785D01*
X150359017Y-65191785D02*
X150454255Y-65144166D01*
X150454255Y-65144166D02*
X150597112Y-65144166D01*
X150597112Y-65144166D02*
X150692350Y-65191785D01*
X150692350Y-65191785D02*
X150739969Y-65239404D01*
X150739969Y-65239404D02*
X150787588Y-65334642D01*
X150787588Y-65334642D02*
X150787588Y-65715594D01*
X151263779Y-64667975D02*
X151263779Y-64477499D01*
X151263779Y-64477499D02*
X151216160Y-64382261D01*
X151216160Y-64382261D02*
X151168540Y-64334642D01*
X151168540Y-64334642D02*
X151025683Y-64239404D01*
X151025683Y-64239404D02*
X150835207Y-64191785D01*
X150835207Y-64191785D02*
X150454255Y-64191785D01*
X150454255Y-64191785D02*
X150359017Y-64239404D01*
X150359017Y-64239404D02*
X150311398Y-64287023D01*
X150311398Y-64287023D02*
X150263779Y-64382261D01*
X150263779Y-64382261D02*
X150263779Y-64572737D01*
X150263779Y-64572737D02*
X150311398Y-64667975D01*
X150311398Y-64667975D02*
X150359017Y-64715594D01*
X150359017Y-64715594D02*
X150454255Y-64763213D01*
X150454255Y-64763213D02*
X150692350Y-64763213D01*
X150692350Y-64763213D02*
X150787588Y-64715594D01*
X150787588Y-64715594D02*
X150835207Y-64667975D01*
X150835207Y-64667975D02*
X150882826Y-64572737D01*
X150882826Y-64572737D02*
X150882826Y-64382261D01*
X150882826Y-64382261D02*
X150835207Y-64287023D01*
X150835207Y-64287023D02*
X150787588Y-64239404D01*
X150787588Y-64239404D02*
X150692350Y-64191785D01*
X113253779Y-65126666D02*
X112777588Y-65459999D01*
X113253779Y-65698094D02*
X112253779Y-65698094D01*
X112253779Y-65698094D02*
X112253779Y-65317142D01*
X112253779Y-65317142D02*
X112301398Y-65221904D01*
X112301398Y-65221904D02*
X112349017Y-65174285D01*
X112349017Y-65174285D02*
X112444255Y-65126666D01*
X112444255Y-65126666D02*
X112587112Y-65126666D01*
X112587112Y-65126666D02*
X112682350Y-65174285D01*
X112682350Y-65174285D02*
X112729969Y-65221904D01*
X112729969Y-65221904D02*
X112777588Y-65317142D01*
X112777588Y-65317142D02*
X112777588Y-65698094D01*
X112253779Y-64793332D02*
X112253779Y-64174285D01*
X112253779Y-64174285D02*
X112634731Y-64507618D01*
X112634731Y-64507618D02*
X112634731Y-64364761D01*
X112634731Y-64364761D02*
X112682350Y-64269523D01*
X112682350Y-64269523D02*
X112729969Y-64221904D01*
X112729969Y-64221904D02*
X112825207Y-64174285D01*
X112825207Y-64174285D02*
X113063302Y-64174285D01*
X113063302Y-64174285D02*
X113158540Y-64221904D01*
X113158540Y-64221904D02*
X113206160Y-64269523D01*
X113206160Y-64269523D02*
X113253779Y-64364761D01*
X113253779Y-64364761D02*
X113253779Y-64650475D01*
X113253779Y-64650475D02*
X113206160Y-64745713D01*
X113206160Y-64745713D02*
X113158540Y-64793332D01*
X122753779Y-65186666D02*
X122277588Y-65519999D01*
X122753779Y-65758094D02*
X121753779Y-65758094D01*
X121753779Y-65758094D02*
X121753779Y-65377142D01*
X121753779Y-65377142D02*
X121801398Y-65281904D01*
X121801398Y-65281904D02*
X121849017Y-65234285D01*
X121849017Y-65234285D02*
X121944255Y-65186666D01*
X121944255Y-65186666D02*
X122087112Y-65186666D01*
X122087112Y-65186666D02*
X122182350Y-65234285D01*
X122182350Y-65234285D02*
X122229969Y-65281904D01*
X122229969Y-65281904D02*
X122277588Y-65377142D01*
X122277588Y-65377142D02*
X122277588Y-65758094D01*
X121753779Y-64853332D02*
X121753779Y-64186666D01*
X121753779Y-64186666D02*
X122753779Y-64615237D01*
X166023779Y-66182857D02*
X165547588Y-66516190D01*
X166023779Y-66754285D02*
X165023779Y-66754285D01*
X165023779Y-66754285D02*
X165023779Y-66373333D01*
X165023779Y-66373333D02*
X165071398Y-66278095D01*
X165071398Y-66278095D02*
X165119017Y-66230476D01*
X165119017Y-66230476D02*
X165214255Y-66182857D01*
X165214255Y-66182857D02*
X165357112Y-66182857D01*
X165357112Y-66182857D02*
X165452350Y-66230476D01*
X165452350Y-66230476D02*
X165499969Y-66278095D01*
X165499969Y-66278095D02*
X165547588Y-66373333D01*
X165547588Y-66373333D02*
X165547588Y-66754285D01*
X166023779Y-65230476D02*
X166023779Y-65801904D01*
X166023779Y-65516190D02*
X165023779Y-65516190D01*
X165023779Y-65516190D02*
X165166636Y-65611428D01*
X165166636Y-65611428D02*
X165261874Y-65706666D01*
X165261874Y-65706666D02*
X165309493Y-65801904D01*
X165119017Y-64849523D02*
X165071398Y-64801904D01*
X165071398Y-64801904D02*
X165023779Y-64706666D01*
X165023779Y-64706666D02*
X165023779Y-64468571D01*
X165023779Y-64468571D02*
X165071398Y-64373333D01*
X165071398Y-64373333D02*
X165119017Y-64325714D01*
X165119017Y-64325714D02*
X165214255Y-64278095D01*
X165214255Y-64278095D02*
X165309493Y-64278095D01*
X165309493Y-64278095D02*
X165452350Y-64325714D01*
X165452350Y-64325714D02*
X166023779Y-64897142D01*
X166023779Y-64897142D02*
X166023779Y-64278095D01*
D11*
%TO.C,J1*%
X126850000Y-71500000D02*
X126850000Y-72840000D01*
X128340000Y-71500000D02*
X126850000Y-71500000D01*
X128340000Y-71500000D02*
X128340000Y-70300000D01*
X137660000Y-71500000D02*
X139150000Y-71500000D01*
X139150000Y-71500000D02*
X139150000Y-72840000D01*
%TO.C,R17*%
X182830000Y-71927621D02*
X182830000Y-71592379D01*
X183590000Y-71927621D02*
X183590000Y-71592379D01*
%TO.C,C1*%
X138794165Y-70590000D02*
X139025835Y-70590000D01*
X138794165Y-71310000D02*
X139025835Y-71310000D01*
%TO.C,R13*%
X92150000Y-68635121D02*
X92150000Y-68299879D01*
X92910000Y-68635121D02*
X92910000Y-68299879D01*
%TO.C,R10*%
X139650000Y-65140121D02*
X139650000Y-64804879D01*
X140410000Y-65140121D02*
X140410000Y-64804879D01*
%TO.C,R6*%
X130150000Y-65157621D02*
X130150000Y-64822379D01*
X130910000Y-65157621D02*
X130910000Y-64822379D01*
D12*
%TO.C,G\u002A\u002A\u002A*%
G36*
X130179603Y-66389526D02*
G01*
X130211549Y-66391055D01*
X130236785Y-66393204D01*
X130255705Y-66396191D01*
X130271746Y-66400824D01*
X130288348Y-66407909D01*
X130292999Y-66410164D01*
X130327215Y-66432206D01*
X130354903Y-66460905D01*
X130375495Y-66495196D01*
X130388422Y-66534009D01*
X130393118Y-66576280D01*
X130392347Y-66596707D01*
X130390476Y-66608078D01*
X130386111Y-66628188D01*
X130379419Y-66656385D01*
X130370563Y-66692020D01*
X130359709Y-66734444D01*
X130347024Y-66783007D01*
X130332671Y-66837060D01*
X130316817Y-66895954D01*
X130306611Y-66933495D01*
X130289406Y-66996693D01*
X130270275Y-67067206D01*
X130249787Y-67142917D01*
X130228514Y-67221709D01*
X130207026Y-67301466D01*
X130185894Y-67380071D01*
X130165687Y-67455407D01*
X130146977Y-67525359D01*
X130137812Y-67559716D01*
X130123311Y-67614122D01*
X130109511Y-67665866D01*
X130096623Y-67714159D01*
X130084859Y-67758213D01*
X130074429Y-67797237D01*
X130065543Y-67830444D01*
X130058414Y-67857044D01*
X130053252Y-67876249D01*
X130050268Y-67887270D01*
X130049620Y-67889595D01*
X130043756Y-67894889D01*
X130029141Y-67902277D01*
X130006476Y-67911437D01*
X129987595Y-67918243D01*
X129860295Y-67967099D01*
X129732325Y-68025347D01*
X129604212Y-68092697D01*
X129476486Y-68168858D01*
X129349675Y-68253540D01*
X129263501Y-68316396D01*
X129239681Y-68334094D01*
X129218716Y-68349125D01*
X129201747Y-68360716D01*
X129189911Y-68368096D01*
X129184350Y-68370493D01*
X129184072Y-68370185D01*
X129185172Y-68364348D01*
X129188325Y-68349956D01*
X129193317Y-68327941D01*
X129199931Y-68299235D01*
X129207951Y-68264770D01*
X129217161Y-68225480D01*
X129227343Y-68182297D01*
X129238284Y-68136153D01*
X129240189Y-68128141D01*
X129251162Y-68081738D01*
X129261316Y-68038252D01*
X129270448Y-67998595D01*
X129278351Y-67963683D01*
X129284823Y-67934430D01*
X129289658Y-67911751D01*
X129292653Y-67896559D01*
X129293602Y-67889769D01*
X129293538Y-67889507D01*
X129287765Y-67890154D01*
X129274731Y-67895260D01*
X129255519Y-67904228D01*
X129231212Y-67916460D01*
X129202893Y-67931360D01*
X129171644Y-67948331D01*
X129138548Y-67966774D01*
X129104688Y-67986094D01*
X129071148Y-68005692D01*
X129039009Y-68024972D01*
X129009354Y-68043337D01*
X128983267Y-68060188D01*
X128979459Y-68062730D01*
X128964463Y-68072492D01*
X128952932Y-68079441D01*
X128946913Y-68082357D01*
X128946521Y-68082328D01*
X128947183Y-68077372D01*
X128949839Y-68064248D01*
X128954200Y-68044272D01*
X128959972Y-68018761D01*
X128966864Y-67989031D01*
X128972151Y-67966616D01*
X128981555Y-67926746D01*
X128991818Y-67882766D01*
X129002180Y-67837967D01*
X129011880Y-67795639D01*
X129020159Y-67759071D01*
X129021108Y-67754838D01*
X129029781Y-67716164D01*
X129036660Y-67685918D01*
X129042070Y-67663004D01*
X129046336Y-67646326D01*
X129049785Y-67634789D01*
X129052742Y-67627298D01*
X129055533Y-67622757D01*
X129058483Y-67620071D01*
X129061707Y-67618250D01*
X129069578Y-67613901D01*
X129083763Y-67605733D01*
X129102207Y-67594940D01*
X129121603Y-67583460D01*
X129170651Y-67555711D01*
X129225780Y-67527006D01*
X129283671Y-67499006D01*
X129341008Y-67473371D01*
X129345048Y-67471652D01*
X129366497Y-67462535D01*
X129384428Y-67454871D01*
X129397074Y-67449419D01*
X129402667Y-67446939D01*
X129402765Y-67446886D01*
X129404297Y-67442062D01*
X129407890Y-67428761D01*
X129413295Y-67407985D01*
X129420260Y-67380736D01*
X129428536Y-67348015D01*
X129437872Y-67310824D01*
X129448017Y-67270165D01*
X129458722Y-67227039D01*
X129469736Y-67182448D01*
X129480808Y-67137393D01*
X129491688Y-67092877D01*
X129502127Y-67049901D01*
X129505968Y-67034005D01*
X129513289Y-67002894D01*
X129519735Y-66974039D01*
X129524955Y-66949125D01*
X129528601Y-66929838D01*
X129530324Y-66917861D01*
X129530414Y-66916060D01*
X129527137Y-66899534D01*
X129518423Y-66888139D01*
X129506530Y-66884107D01*
X129494911Y-66886088D01*
X129475826Y-66891674D01*
X129450638Y-66900330D01*
X129420716Y-66911522D01*
X129387426Y-66924714D01*
X129352133Y-66939370D01*
X129316204Y-66954957D01*
X129281005Y-66970938D01*
X129262570Y-66979645D01*
X129239547Y-66990488D01*
X129219779Y-66999414D01*
X129204851Y-67005739D01*
X129196347Y-67008778D01*
X129195017Y-67008872D01*
X129195598Y-67003788D01*
X129198240Y-66990354D01*
X129202692Y-66969702D01*
X129208701Y-66942959D01*
X129216014Y-66911254D01*
X129224381Y-66875718D01*
X129230165Y-66851513D01*
X129240011Y-66810523D01*
X129249866Y-66769472D01*
X129259302Y-66730146D01*
X129267890Y-66694331D01*
X129275201Y-66663814D01*
X129280808Y-66640381D01*
X129282268Y-66634269D01*
X129297076Y-66572236D01*
X129329598Y-66556824D01*
X129399265Y-66526583D01*
X129476529Y-66498029D01*
X129559293Y-66471771D01*
X129645457Y-66448421D01*
X129732922Y-66428587D01*
X129819590Y-66412881D01*
X129830414Y-66411215D01*
X129886265Y-66403856D01*
X129946258Y-66397825D01*
X130007992Y-66393249D01*
X130069063Y-66390256D01*
X130127068Y-66388973D01*
X130179603Y-66389526D01*
G37*
G36*
X133208681Y-67213603D02*
G01*
X133220475Y-67219189D01*
X133237013Y-67227387D01*
X133249926Y-67233950D01*
X133278776Y-67248472D01*
X133314869Y-67266200D01*
X133356544Y-67286351D01*
X133402140Y-67308142D01*
X133449997Y-67330789D01*
X133498454Y-67353511D01*
X133545850Y-67375522D01*
X133590526Y-67396040D01*
X133630819Y-67414283D01*
X133656787Y-67425833D01*
X133692892Y-67442040D01*
X133722153Y-67455822D01*
X133744012Y-67466898D01*
X133757912Y-67474985D01*
X133763295Y-67479799D01*
X133763309Y-67479849D01*
X133768601Y-67485670D01*
X133780485Y-67493281D01*
X133796416Y-67501059D01*
X133796820Y-67501231D01*
X133817281Y-67508955D01*
X133832888Y-67512171D01*
X133847042Y-67511572D01*
X133847320Y-67511528D01*
X133860084Y-67510636D01*
X133868272Y-67512187D01*
X133869235Y-67513046D01*
X133866960Y-67517731D01*
X133859363Y-67529105D01*
X133847173Y-67546208D01*
X133831123Y-67568078D01*
X133811945Y-67593754D01*
X133790369Y-67622275D01*
X133767126Y-67652681D01*
X133742949Y-67684009D01*
X133718568Y-67715301D01*
X133694715Y-67745593D01*
X133672121Y-67773926D01*
X133651517Y-67799338D01*
X133649427Y-67801885D01*
X133635251Y-67819546D01*
X133626543Y-67831822D01*
X133622297Y-67840628D01*
X133621506Y-67847878D01*
X133622484Y-67853105D01*
X133625451Y-67860214D01*
X133631312Y-67866328D01*
X133641882Y-67872672D01*
X133658979Y-67880471D01*
X133669760Y-67884976D01*
X133691799Y-67893575D01*
X133706176Y-67897964D01*
X133713900Y-67898404D01*
X133715780Y-67896834D01*
X133719922Y-67895761D01*
X133730642Y-67897915D01*
X133748533Y-67903480D01*
X133774189Y-67912639D01*
X133806024Y-67924731D01*
X133837611Y-67936768D01*
X133875530Y-67950919D01*
X133916885Y-67966122D01*
X133958784Y-67981314D01*
X133998332Y-67995435D01*
X134008463Y-67999008D01*
X134043858Y-68011485D01*
X134071118Y-68021257D01*
X134091318Y-68028827D01*
X134105538Y-68034698D01*
X134114853Y-68039374D01*
X134120341Y-68043359D01*
X134123079Y-68047155D01*
X134124145Y-68051267D01*
X134124350Y-68053168D01*
X134125118Y-68063545D01*
X134126348Y-68082573D01*
X134128000Y-68109569D01*
X134130037Y-68143846D01*
X134132422Y-68184721D01*
X134135117Y-68231508D01*
X134138084Y-68283523D01*
X134141286Y-68340081D01*
X134144685Y-68400496D01*
X134148243Y-68464085D01*
X134151924Y-68530162D01*
X134155688Y-68598042D01*
X134159500Y-68667041D01*
X134163320Y-68736474D01*
X134167112Y-68805656D01*
X134170837Y-68873902D01*
X134174459Y-68940527D01*
X134177939Y-69004846D01*
X134181240Y-69066175D01*
X134184325Y-69123829D01*
X134187155Y-69177123D01*
X134189693Y-69225372D01*
X134191902Y-69267892D01*
X134193744Y-69303997D01*
X134195181Y-69333002D01*
X134196175Y-69354223D01*
X134196689Y-69366976D01*
X134196720Y-69370646D01*
X134191249Y-69370192D01*
X134177835Y-69366949D01*
X134157755Y-69361320D01*
X134132287Y-69353706D01*
X134102706Y-69344511D01*
X134070290Y-69334135D01*
X134036316Y-69322981D01*
X134002060Y-69311452D01*
X133968800Y-69299948D01*
X133942609Y-69290617D01*
X133853824Y-69257537D01*
X133765471Y-69222666D01*
X133675616Y-69185188D01*
X133582327Y-69144288D01*
X133483669Y-69099150D01*
X133439560Y-69078446D01*
X133336511Y-69029743D01*
X133333237Y-68904486D01*
X133332449Y-68874405D01*
X133331441Y-68836108D01*
X133330255Y-68791128D01*
X133328930Y-68741002D01*
X133327509Y-68687266D01*
X133326030Y-68631454D01*
X133324535Y-68575103D01*
X133323065Y-68519747D01*
X133322895Y-68513375D01*
X133321545Y-68461785D01*
X133320277Y-68411891D01*
X133319119Y-68364778D01*
X133318094Y-68321531D01*
X133317228Y-68283235D01*
X133316545Y-68250977D01*
X133316070Y-68225840D01*
X133315829Y-68208912D01*
X133315804Y-68204481D01*
X133315504Y-68183413D01*
X133314459Y-68170518D01*
X133312401Y-68164226D01*
X133309068Y-68162966D01*
X133308817Y-68163017D01*
X133304229Y-68167056D01*
X133293998Y-68178036D01*
X133278645Y-68195337D01*
X133258692Y-68218339D01*
X133234659Y-68246420D01*
X133207067Y-68278961D01*
X133176437Y-68315340D01*
X133143291Y-68354937D01*
X133108149Y-68397131D01*
X133071533Y-68441301D01*
X133033963Y-68486827D01*
X132995960Y-68533089D01*
X132958046Y-68579465D01*
X132921539Y-68624350D01*
X132896793Y-68654698D01*
X132873887Y-68682478D01*
X132853565Y-68706813D01*
X132836570Y-68726824D01*
X132823646Y-68741634D01*
X132815536Y-68750367D01*
X132813069Y-68752399D01*
X132808070Y-68750097D01*
X132795317Y-68743468D01*
X132775584Y-68732934D01*
X132749641Y-68718914D01*
X132718259Y-68701828D01*
X132682209Y-68682095D01*
X132642265Y-68660135D01*
X132599196Y-68636369D01*
X132563337Y-68616518D01*
X132515645Y-68590085D01*
X132468341Y-68563876D01*
X132422508Y-68538491D01*
X132379231Y-68514530D01*
X132339595Y-68492594D01*
X132304684Y-68473282D01*
X132275582Y-68457196D01*
X132253375Y-68444935D01*
X132245048Y-68440346D01*
X132220923Y-68427019D01*
X132199907Y-68415329D01*
X132183437Y-68406083D01*
X132172950Y-68400084D01*
X132169838Y-68398171D01*
X132172634Y-68394401D01*
X132181542Y-68384687D01*
X132195705Y-68369911D01*
X132214264Y-68350958D01*
X132236363Y-68328709D01*
X132261142Y-68304047D01*
X132265281Y-68299954D01*
X132297997Y-68267335D01*
X132324862Y-68239804D01*
X132347217Y-68215852D01*
X132366401Y-68193974D01*
X132383754Y-68172662D01*
X132400616Y-68150410D01*
X132410825Y-68136303D01*
X132425398Y-68116885D01*
X132446319Y-68090530D01*
X132473361Y-68057506D01*
X132506297Y-68018082D01*
X132544900Y-67972527D01*
X132588944Y-67921112D01*
X132638201Y-67864105D01*
X132692444Y-67801775D01*
X132703188Y-67789475D01*
X132746443Y-67739927D01*
X132790955Y-67688831D01*
X132835823Y-67637229D01*
X132880143Y-67586163D01*
X132923013Y-67536675D01*
X132963531Y-67489808D01*
X133000795Y-67446603D01*
X133033902Y-67408102D01*
X133061951Y-67375348D01*
X133074316Y-67360841D01*
X133102018Y-67328335D01*
X133127752Y-67298265D01*
X133150835Y-67271420D01*
X133170584Y-67248586D01*
X133186317Y-67230554D01*
X133197350Y-67218110D01*
X133203002Y-67212044D01*
X133203585Y-67211574D01*
X133208681Y-67213603D01*
G37*
G36*
X132366286Y-67213930D02*
G01*
X132400734Y-67256956D01*
X132425821Y-67301180D01*
X132436981Y-67327161D01*
X132445231Y-67351329D01*
X132450491Y-67374971D01*
X132452681Y-67399373D01*
X132451720Y-67425824D01*
X132447529Y-67455609D01*
X132440026Y-67490017D01*
X132429132Y-67530334D01*
X132414766Y-67577848D01*
X132407021Y-67602315D01*
X132395626Y-67637508D01*
X132384594Y-67670751D01*
X132374431Y-67700580D01*
X132365644Y-67725532D01*
X132358740Y-67744144D01*
X132354224Y-67754952D01*
X132354129Y-67755143D01*
X132334066Y-67784779D01*
X132307060Y-67807995D01*
X132273938Y-67824277D01*
X132235526Y-67833108D01*
X132228080Y-67833870D01*
X132212902Y-67834955D01*
X132198916Y-67835309D01*
X132185224Y-67834616D01*
X132170925Y-67832564D01*
X132155121Y-67828839D01*
X132136912Y-67823128D01*
X132115398Y-67815116D01*
X132089681Y-67804491D01*
X132058861Y-67790938D01*
X132022039Y-67774145D01*
X131978315Y-67753798D01*
X131926790Y-67729582D01*
X131920658Y-67726693D01*
X131811109Y-67675893D01*
X131704362Y-67628035D01*
X131601479Y-67583567D01*
X131503522Y-67542939D01*
X131411552Y-67506599D01*
X131326632Y-67474995D01*
X131317450Y-67471715D01*
X131278133Y-67458450D01*
X131246402Y-67449651D01*
X131221121Y-67445408D01*
X131201152Y-67445813D01*
X131185361Y-67450960D01*
X131172612Y-67460939D01*
X131161768Y-67475842D01*
X131156941Y-67484704D01*
X131147242Y-67514068D01*
X131145565Y-67545850D01*
X131151480Y-67577595D01*
X131164556Y-67606847D01*
X131182222Y-67629137D01*
X131197217Y-67641001D01*
X131219103Y-67654926D01*
X131245584Y-67669695D01*
X131274362Y-67684091D01*
X131303139Y-67696897D01*
X131327975Y-67706342D01*
X131349329Y-67711854D01*
X131374161Y-67715610D01*
X131399453Y-67717426D01*
X131422184Y-67717117D01*
X131439336Y-67714498D01*
X131442634Y-67713365D01*
X131463355Y-67700008D01*
X131476670Y-67680800D01*
X131481690Y-67657054D01*
X131481708Y-67655683D01*
X131482578Y-67636626D01*
X131486172Y-67626047D01*
X131494195Y-67622721D01*
X131508355Y-67625422D01*
X131519014Y-67628907D01*
X131536933Y-67635876D01*
X131562495Y-67646923D01*
X131594724Y-67661561D01*
X131632640Y-67679304D01*
X131675265Y-67699665D01*
X131721623Y-67722157D01*
X131770733Y-67746295D01*
X131821618Y-67771590D01*
X131873300Y-67797557D01*
X131924800Y-67823709D01*
X131975141Y-67849559D01*
X132023344Y-67874621D01*
X132068431Y-67898408D01*
X132109423Y-67920433D01*
X132145344Y-67940210D01*
X132149926Y-67942779D01*
X132182592Y-67961148D01*
X132207811Y-67975267D01*
X132226662Y-67985629D01*
X132240223Y-67992729D01*
X132249573Y-67997062D01*
X132255789Y-67999123D01*
X132259950Y-67999406D01*
X132263133Y-67998405D01*
X132266417Y-67996616D01*
X132266820Y-67996398D01*
X132274538Y-67993542D01*
X132276753Y-67997048D01*
X132276756Y-67997350D01*
X132275325Y-68005218D01*
X132271387Y-68020608D01*
X132265476Y-68041774D01*
X132258128Y-68066966D01*
X132249875Y-68094439D01*
X132241253Y-68122444D01*
X132232796Y-68149234D01*
X132225037Y-68173062D01*
X132218511Y-68192178D01*
X132213752Y-68204837D01*
X132212432Y-68207762D01*
X132193948Y-68235459D01*
X132169068Y-68260581D01*
X132141125Y-68279868D01*
X132135989Y-68282487D01*
X132119963Y-68289303D01*
X132104035Y-68293682D01*
X132084844Y-68296311D01*
X132061170Y-68297785D01*
X132040848Y-68298246D01*
X132022220Y-68297451D01*
X132004001Y-68294970D01*
X131984907Y-68290372D01*
X131963654Y-68283227D01*
X131938956Y-68273105D01*
X131909529Y-68259573D01*
X131874088Y-68242203D01*
X131832389Y-68221094D01*
X131678800Y-68144480D01*
X131531362Y-68074728D01*
X131389503Y-68011629D01*
X131252652Y-67954975D01*
X131120236Y-67904557D01*
X130991685Y-67860167D01*
X130866427Y-67821595D01*
X130743890Y-67788634D01*
X130623502Y-67761074D01*
X130515316Y-67740510D01*
X130469482Y-67731223D01*
X130431987Y-67720256D01*
X130401472Y-67706992D01*
X130376579Y-67690813D01*
X130355948Y-67671103D01*
X130351879Y-67666271D01*
X130331596Y-67636949D01*
X130318404Y-67606630D01*
X130311436Y-67572670D01*
X130309764Y-67537765D01*
X130310150Y-67519781D01*
X130311366Y-67503453D01*
X130313806Y-67486697D01*
X130317864Y-67467427D01*
X130323932Y-67443559D01*
X130332405Y-67413009D01*
X130335078Y-67403619D01*
X130341723Y-67380147D01*
X130350532Y-67348734D01*
X130361096Y-67310849D01*
X130373008Y-67267962D01*
X130385859Y-67221542D01*
X130395771Y-67185634D01*
X131240001Y-67185634D01*
X131243904Y-67191017D01*
X131252666Y-67197217D01*
X131267203Y-67204717D01*
X131288429Y-67214003D01*
X131317261Y-67225558D01*
X131345779Y-67236519D01*
X131388084Y-67252520D01*
X131422480Y-67265300D01*
X131450142Y-67275197D01*
X131472245Y-67282549D01*
X131489963Y-67287693D01*
X131504472Y-67290966D01*
X131516947Y-67292706D01*
X131528563Y-67293250D01*
X131540495Y-67292937D01*
X131541939Y-67292861D01*
X131560207Y-67291491D01*
X131572085Y-67288944D01*
X131580937Y-67283885D01*
X131590126Y-67274978D01*
X131591939Y-67273012D01*
X131599763Y-67264072D01*
X131604620Y-67256302D01*
X131607219Y-67247040D01*
X131608264Y-67233625D01*
X131608462Y-67213396D01*
X131608463Y-67210765D01*
X131607488Y-67182692D01*
X131604652Y-67162367D01*
X131601572Y-67153223D01*
X131588825Y-67135533D01*
X131568776Y-67116212D01*
X131543343Y-67096817D01*
X131514443Y-67078910D01*
X131502320Y-67072501D01*
X131451471Y-67049182D01*
X131406645Y-67033363D01*
X131367666Y-67025009D01*
X131334358Y-67024087D01*
X131306544Y-67030562D01*
X131300009Y-67033546D01*
X131291721Y-67038922D01*
X131284690Y-67046682D01*
X131278173Y-67058346D01*
X131271432Y-67075434D01*
X131263725Y-67099463D01*
X131257503Y-67120722D01*
X131251191Y-67142674D01*
X131245742Y-67161448D01*
X131241786Y-67174888D01*
X131240041Y-67180583D01*
X131240001Y-67185634D01*
X130395771Y-67185634D01*
X130399242Y-67173060D01*
X130412749Y-67123984D01*
X130421018Y-67093863D01*
X130444077Y-67009884D01*
X130466082Y-66929945D01*
X130486909Y-66854490D01*
X130506432Y-66783965D01*
X130524528Y-66718814D01*
X130541072Y-66659483D01*
X130555939Y-66606415D01*
X130569005Y-66560056D01*
X130580144Y-66520851D01*
X130589232Y-66489245D01*
X130596145Y-66465682D01*
X130600757Y-66450607D01*
X130602945Y-66444465D01*
X130603013Y-66444372D01*
X130608582Y-66444284D01*
X130621902Y-66446149D01*
X130641235Y-66449665D01*
X130664841Y-66454528D01*
X130676810Y-66457170D01*
X130795441Y-66486426D01*
X130918474Y-66521591D01*
X131043239Y-66561856D01*
X131160517Y-66603934D01*
X131194170Y-66616764D01*
X131228527Y-66630119D01*
X131262304Y-66643474D01*
X131294218Y-66656306D01*
X131322982Y-66668091D01*
X131347315Y-66678304D01*
X131365931Y-66686420D01*
X131377547Y-66691916D01*
X131380724Y-66693826D01*
X131380555Y-66699355D01*
X131377824Y-66712771D01*
X131372891Y-66732652D01*
X131366115Y-66757577D01*
X131357856Y-66786124D01*
X131354947Y-66795830D01*
X131346226Y-66825331D01*
X131338791Y-66851745D01*
X131333016Y-66873628D01*
X131329279Y-66889537D01*
X131327954Y-66898029D01*
X131328095Y-66898935D01*
X131334830Y-66903741D01*
X131341989Y-66900422D01*
X131347195Y-66890202D01*
X131347495Y-66888948D01*
X131353456Y-66874365D01*
X131364750Y-66856179D01*
X131379310Y-66837148D01*
X131395069Y-66820027D01*
X131406870Y-66809767D01*
X131440152Y-66790771D01*
X131477955Y-66779707D01*
X131518911Y-66776732D01*
X131561648Y-66782002D01*
X131587467Y-66789150D01*
X131602546Y-66795060D01*
X131625312Y-66805141D01*
X131654867Y-66818932D01*
X131690310Y-66835971D01*
X131730743Y-66855797D01*
X131775266Y-66877949D01*
X131822980Y-66901967D01*
X131872987Y-66927388D01*
X131924386Y-66953752D01*
X131976279Y-66980598D01*
X132027766Y-67007464D01*
X132077949Y-67033889D01*
X132125928Y-67059413D01*
X132170803Y-67083573D01*
X132211676Y-67105909D01*
X132247647Y-67125960D01*
X132276828Y-67142685D01*
X132324594Y-67175426D01*
X132362859Y-67210765D01*
X132366286Y-67213930D01*
G37*
G36*
X136634817Y-67400458D02*
G01*
X136642609Y-67406058D01*
X136651206Y-67413208D01*
X136656865Y-67415814D01*
X136662580Y-67420395D01*
X136667446Y-67432976D01*
X136671103Y-67451813D01*
X136673189Y-67475162D01*
X136673480Y-67496302D01*
X136672822Y-67509501D01*
X136671204Y-67525635D01*
X136668471Y-67545578D01*
X136664469Y-67570204D01*
X136659045Y-67600386D01*
X136652043Y-67637000D01*
X136643310Y-67680920D01*
X136632692Y-67733019D01*
X136626176Y-67764594D01*
X136610731Y-67839046D01*
X136594668Y-67916220D01*
X136578122Y-67995490D01*
X136561224Y-68076230D01*
X136544109Y-68157815D01*
X136526908Y-68239617D01*
X136509756Y-68321012D01*
X136492785Y-68401373D01*
X136476128Y-68480073D01*
X136459919Y-68556488D01*
X136444289Y-68629990D01*
X136429374Y-68699954D01*
X136415305Y-68765754D01*
X136402215Y-68826763D01*
X136390238Y-68882356D01*
X136379507Y-68931907D01*
X136370154Y-68974788D01*
X136362314Y-69010376D01*
X136356118Y-69038042D01*
X136351700Y-69057162D01*
X136349949Y-69064303D01*
X136326498Y-69141723D01*
X136296225Y-69219156D01*
X136260098Y-69294812D01*
X136219083Y-69366904D01*
X136174144Y-69433642D01*
X136126247Y-69493238D01*
X136107204Y-69513920D01*
X136080169Y-69540410D01*
X136050906Y-69565559D01*
X136018322Y-69590080D01*
X135981320Y-69614685D01*
X135938807Y-69640086D01*
X135889687Y-69666995D01*
X135832866Y-69696124D01*
X135808868Y-69708001D01*
X135682992Y-69764686D01*
X135554840Y-69812195D01*
X135423732Y-69850730D01*
X135288989Y-69880488D01*
X135149932Y-69901669D01*
X135147487Y-69901961D01*
X135111263Y-69905336D01*
X135067294Y-69907930D01*
X135017562Y-69909744D01*
X134964048Y-69910777D01*
X134908731Y-69911028D01*
X134853592Y-69910498D01*
X134800613Y-69909185D01*
X134751773Y-69907090D01*
X134709054Y-69904213D01*
X134686511Y-69902035D01*
X134623573Y-69894387D01*
X134563600Y-69885900D01*
X134507584Y-69876771D01*
X134456521Y-69867198D01*
X134411404Y-69857379D01*
X134373225Y-69847511D01*
X134342979Y-69837793D01*
X134324761Y-69830057D01*
X134290285Y-69807919D01*
X134258474Y-69778508D01*
X134231717Y-69744300D01*
X134216998Y-69718253D01*
X134202848Y-69684803D01*
X134194068Y-69653800D01*
X134189931Y-69621506D01*
X134189713Y-69584183D01*
X134189933Y-69578800D01*
X134190994Y-69561700D01*
X134192798Y-69545338D01*
X134195716Y-69528022D01*
X134200118Y-69508058D01*
X134206374Y-69483755D01*
X134214856Y-69453419D01*
X134225083Y-69418253D01*
X134234983Y-69384545D01*
X134244546Y-69351955D01*
X134253235Y-69322315D01*
X134260512Y-69297455D01*
X134265842Y-69279207D01*
X134267611Y-69273131D01*
X134272963Y-69255814D01*
X134277357Y-69245920D01*
X134282206Y-69241406D01*
X134288921Y-69240231D01*
X134290377Y-69240217D01*
X134299134Y-69241189D01*
X134315721Y-69243892D01*
X134338429Y-69248012D01*
X134365548Y-69253240D01*
X134395367Y-69259263D01*
X134398475Y-69259906D01*
X134479124Y-69275961D01*
X134552774Y-69289109D01*
X134621647Y-69299633D01*
X134687964Y-69307814D01*
X134753947Y-69313933D01*
X134821818Y-69318274D01*
X134876755Y-69320580D01*
X134919458Y-69321510D01*
X134961509Y-69321477D01*
X135001522Y-69320559D01*
X135038111Y-69318831D01*
X135069891Y-69316369D01*
X135095476Y-69313250D01*
X135113480Y-69309548D01*
X135119748Y-69307243D01*
X135128339Y-69303391D01*
X135133369Y-69303102D01*
X135135017Y-69307665D01*
X135133463Y-69318368D01*
X135128887Y-69336501D01*
X135125536Y-69348704D01*
X135118403Y-69383610D01*
X135116373Y-69416848D01*
X135119257Y-69446715D01*
X135126867Y-69471512D01*
X135139013Y-69489538D01*
X135141410Y-69491718D01*
X135165098Y-69505702D01*
X135195236Y-69514177D01*
X135230388Y-69517383D01*
X135269118Y-69515557D01*
X135309992Y-69508935D01*
X135351572Y-69497756D01*
X135392425Y-69482258D01*
X135431114Y-69462677D01*
X135466204Y-69439252D01*
X135468287Y-69437632D01*
X135492481Y-69416269D01*
X135511746Y-69393251D01*
X135527674Y-69366167D01*
X135541852Y-69332607D01*
X135546795Y-69318590D01*
X135550152Y-69307362D01*
X135555566Y-69287571D01*
X135562809Y-69260141D01*
X135571652Y-69225995D01*
X135581868Y-69186054D01*
X135593228Y-69141242D01*
X135605503Y-69092482D01*
X135618466Y-69040694D01*
X135631886Y-68986803D01*
X135645537Y-68931731D01*
X135659189Y-68876401D01*
X135672615Y-68821734D01*
X135685585Y-68768654D01*
X135697871Y-68718084D01*
X135709246Y-68670945D01*
X135719480Y-68628161D01*
X135728344Y-68590654D01*
X135735612Y-68559347D01*
X135741053Y-68535162D01*
X135742925Y-68526471D01*
X135748136Y-68496660D01*
X135749425Y-68473818D01*
X135746734Y-68455951D01*
X135740374Y-68441672D01*
X135728175Y-68428518D01*
X135710465Y-68420605D01*
X135686729Y-68417943D01*
X135656450Y-68420540D01*
X135619112Y-68428406D01*
X135574199Y-68441552D01*
X135563969Y-68444913D01*
X135500738Y-68468715D01*
X135446672Y-68494922D01*
X135401424Y-68523773D01*
X135364646Y-68555507D01*
X135335989Y-68590361D01*
X135324422Y-68609358D01*
X135318089Y-68623476D01*
X135310397Y-68644377D01*
X135302272Y-68669360D01*
X135294638Y-68695723D01*
X135293883Y-68698536D01*
X135287436Y-68722414D01*
X135281743Y-68742874D01*
X135277327Y-68758078D01*
X135274714Y-68766187D01*
X135274380Y-68766930D01*
X135275867Y-68772488D01*
X135281875Y-68779447D01*
X135286815Y-68783400D01*
X135292264Y-68785485D01*
X135300359Y-68785699D01*
X135313237Y-68784039D01*
X135333036Y-68780503D01*
X135339077Y-68779371D01*
X135371048Y-68772724D01*
X135405618Y-68764449D01*
X135440794Y-68755126D01*
X135474580Y-68745337D01*
X135504982Y-68735661D01*
X135530004Y-68726680D01*
X135547652Y-68718973D01*
X135548924Y-68718301D01*
X135563231Y-68710985D01*
X135570695Y-68708509D01*
X135572731Y-68710522D01*
X135572343Y-68712507D01*
X135570670Y-68718956D01*
X135566943Y-68733789D01*
X135561435Y-68755917D01*
X135554414Y-68784248D01*
X135546151Y-68817691D01*
X135536916Y-68855157D01*
X135526980Y-68895553D01*
X135525597Y-68901180D01*
X135515467Y-68942378D01*
X135505899Y-68981215D01*
X135497182Y-69016521D01*
X135489606Y-69047130D01*
X135483460Y-69071874D01*
X135479032Y-69089585D01*
X135476611Y-69099096D01*
X135476499Y-69099518D01*
X135471739Y-69117369D01*
X135399857Y-69134744D01*
X135335322Y-69149620D01*
X135275670Y-69161685D01*
X135218737Y-69171182D01*
X135162354Y-69178357D01*
X135104358Y-69183452D01*
X135042583Y-69186712D01*
X134974862Y-69188380D01*
X134920658Y-69188734D01*
X134856863Y-69188390D01*
X134800480Y-69187167D01*
X134749190Y-69184881D01*
X134700674Y-69181346D01*
X134652613Y-69176380D01*
X134602687Y-69169798D01*
X134548577Y-69161416D01*
X134523097Y-69157152D01*
X134494665Y-69152115D01*
X134463968Y-69146344D01*
X134432529Y-69140164D01*
X134401872Y-69133897D01*
X134373520Y-69127865D01*
X134348997Y-69122392D01*
X134329827Y-69117799D01*
X134317533Y-69114410D01*
X134313694Y-69112805D01*
X134314588Y-69107854D01*
X134317913Y-69094596D01*
X134323377Y-69074093D01*
X134330690Y-69047407D01*
X134339561Y-69015599D01*
X134349699Y-68979732D01*
X134360302Y-68942643D01*
X134370491Y-68907075D01*
X134382909Y-68863539D01*
X134397152Y-68813461D01*
X134412815Y-68758265D01*
X134429494Y-68699379D01*
X134446787Y-68638228D01*
X134464288Y-68576238D01*
X134481594Y-68514834D01*
X134497101Y-68459716D01*
X134512174Y-68406195D01*
X134526523Y-68355458D01*
X134539924Y-68308281D01*
X134552153Y-68265445D01*
X134562986Y-68227726D01*
X134572200Y-68195903D01*
X134579570Y-68170753D01*
X134584873Y-68153055D01*
X134587884Y-68143586D01*
X134588460Y-68142182D01*
X134594079Y-68141728D01*
X134607616Y-68142402D01*
X134627318Y-68144068D01*
X134651428Y-68146587D01*
X134664560Y-68148121D01*
X134724005Y-68153985D01*
X134789200Y-68158093D01*
X134857995Y-68160454D01*
X134928240Y-68161080D01*
X134997784Y-68159983D01*
X135064476Y-68157172D01*
X135126168Y-68152660D01*
X135180708Y-68146456D01*
X135187833Y-68145426D01*
X135206992Y-68142746D01*
X135222085Y-68140964D01*
X135230828Y-68140335D01*
X135232074Y-68140489D01*
X135231314Y-68145381D01*
X135228328Y-68158462D01*
X135223425Y-68178501D01*
X135216911Y-68204267D01*
X135209094Y-68234528D01*
X135200281Y-68268052D01*
X135200003Y-68269100D01*
X135189799Y-68307908D01*
X135182048Y-68338266D01*
X135176559Y-68361112D01*
X135173137Y-68377387D01*
X135171591Y-68388031D01*
X135171729Y-68393983D01*
X135173357Y-68396183D01*
X135173952Y-68396257D01*
X135180038Y-68391707D01*
X135188622Y-68378608D01*
X135199228Y-68357704D01*
X135200779Y-68354343D01*
X135232410Y-68296351D01*
X135272282Y-68241702D01*
X135319076Y-68191788D01*
X135371475Y-68148003D01*
X135428159Y-68111738D01*
X135432853Y-68109196D01*
X135449767Y-68101092D01*
X135473585Y-68090951D01*
X135501922Y-68079723D01*
X135532396Y-68068362D01*
X135555676Y-68060169D01*
X135680635Y-68013318D01*
X135801953Y-67959322D01*
X135920323Y-67897761D01*
X136036436Y-67828216D01*
X136150986Y-67750268D01*
X136264665Y-67663495D01*
X136378167Y-67567479D01*
X136397768Y-67549960D01*
X136433653Y-67517699D01*
X136463195Y-67491317D01*
X136487250Y-67470108D01*
X136506673Y-67453367D01*
X136522321Y-67440387D01*
X136535050Y-67430464D01*
X136545716Y-67422892D01*
X136555175Y-67416966D01*
X136564282Y-67411978D01*
X136566559Y-67410818D01*
X136593675Y-67399953D01*
X136616703Y-67396482D01*
X136634817Y-67400458D01*
G37*
D11*
%TO.C,R15*%
X158710000Y-65105121D02*
X158710000Y-64769879D01*
X159470000Y-65105121D02*
X159470000Y-64769879D01*
%TO.C,R18*%
X173320000Y-68525121D02*
X173320000Y-68189879D01*
X174080000Y-68525121D02*
X174080000Y-68189879D01*
%TO.C,R4*%
X101690000Y-65065121D02*
X101690000Y-64729879D01*
X102450000Y-65065121D02*
X102450000Y-64729879D01*
%TO.C,R14*%
X82690000Y-72130121D02*
X82690000Y-71794879D01*
X83450000Y-72130121D02*
X83450000Y-71794879D01*
%TO.C,C2*%
X138784165Y-69580000D02*
X139015835Y-69580000D01*
X138784165Y-70300000D02*
X139015835Y-70300000D01*
%TO.C,R9*%
X149210000Y-65165121D02*
X149210000Y-64829879D01*
X149970000Y-65165121D02*
X149970000Y-64829879D01*
%TO.C,R3*%
X111170000Y-65097621D02*
X111170000Y-64762379D01*
X111930000Y-65097621D02*
X111930000Y-64762379D01*
%TO.C,R7*%
X120700000Y-65120121D02*
X120700000Y-64784879D01*
X121460000Y-65120121D02*
X121460000Y-64784879D01*
%TO.C,R12*%
X163870000Y-65157621D02*
X163870000Y-64822379D01*
X164630000Y-65157621D02*
X164630000Y-64822379D01*
%TD*%
M02*
